<?xml version="1.0" encoding="utf-8"?>
<!-- Generator: Adobe Illustrator 21.1.0, SVG Export Plug-In . SVG Version: 6.00 Build 0)  -->
<svg version="1.1" id="Layer_1" xmlns="http://www.w3.org/2000/svg" xmlns:xlink="http://www.w3.org/1999/xlink" x="0px" y="0px"
	 viewBox="0 0 40.4 47" style="enable-background:new 0 0 40.4 47;" xml:space="preserve">
<style type="text/css">
	.st0{fill:#A6CE39;}
	.st1{fill:#5D6261;}
</style>
<g>
	<g>
		<polygon class="st0" points="20.2,46.8 0,35.2 0,11.9 20.2,0.3 40.3,11.9 40.3,35.2 		"/>
		<g>
			<path class="st1" d="M20.2,46.8L0,35.2V11.9L20.2,0.3l20.2,11.6v23.2L20.2,46.8z M3.6,33.1l16.6,9.5l16.6-9.5V13.9L20.2,4.4
				L3.6,13.9C3.6,13.9,3.6,33.1,3.6,33.1z"/>
		</g>
		<path class="st1" d="M20.4,11L20.4,11h-6.3v24.1l0.3,0.2c1.8,0.9,3.8,1.4,5.9,1.4c7.1,0,12.8-5.8,12.8-12.8
			C33,16.9,27.4,11.1,20.4,11z M20.3,32.9c-0.8,0-1.6-0.1-2.4-0.4V14.8h2.3l0,0c0,0,0,0,0.1,0h0.1l0,0c5,0.1,8.9,4.1,8.9,9
			C29.3,28.9,25.2,32.9,20.3,32.9z"/>
		<path class="st1" d="M11.8,14.3c-2.7,2.3-4.4,5.8-4.4,9.6c0,3.9,1.7,7.3,4.4,9.6V14.3z"/>
	</g>
</g>
</svg>
