<?xml version="1.0" encoding="utf-8"?>
<!-- Generator: Adobe Illustrator 21.1.0, SVG Export Plug-In . SVG Version: 6.00 Build 0)  -->
<svg version="1.1" id="Layer_1" xmlns="http://www.w3.org/2000/svg" xmlns:xlink="http://www.w3.org/1999/xlink" x="0px" y="0px"
	 viewBox="0 0 180 47" style="enable-background:new 0 0 180 47;" xml:space="preserve">
<style type="text/css">
	.st0{fill:#A6CE39;}
	.st1{fill:#5D6261;}
</style>
<g>
	<g>
		<polygon class="st0" points="54.4,46.8 34.2,35.2 34.2,11.9 54.4,0.3 74.5,11.9 74.5,35.2 		"/>
		<g>
			<path class="st1" d="M54.4,46.8L34.2,35.2V11.9L54.4,0.3l20.2,11.6v23.2L54.4,46.8z M37.8,33.1l16.6,9.5l16.6-9.5V13.9L54.4,4.4
				l-16.6,9.5V33.1z"/>
		</g>
		<path class="st1" d="M54.6,11L54.6,11h-6.3v24.1l0.3,0.2c1.8,0.9,3.8,1.4,5.9,1.4c7.1,0,12.8-5.8,12.8-12.8
			C67.2,16.9,61.6,11.1,54.6,11z M54.5,32.9c-0.8,0-1.6-0.1-2.4-0.4V14.8h2.3l0,0c0,0,0,0,0.1,0h0.1l0,0c5,0.1,8.9,4.1,8.9,9
			C63.5,28.9,59.4,32.9,54.5,32.9z"/>
		<path class="st1" d="M46,14.3c-2.7,2.3-4.4,5.8-4.4,9.6c0,3.9,1.7,7.3,4.4,9.6V14.3z"/>
	</g>
	<g>
		<path class="st1" d="M4.1,31.4c-2.9,0-4.1-2-4.1-4v-15h3.5v14.9c0,0.8,0.4,1.3,1.3,1.3h1.3v3L4.1,31.4L4.1,31.4z"/>
		<path class="st1" d="M8.5,16.9h3.2v1.3h0.1c0.3-0.5,1.3-1.7,3.8-1.7c0.8,0,2.8,0.2,4.2,2.2c1.5-2.2,3.7-2.2,4.7-2.2
			c2.9,0,4.2,1.5,4.8,2.2c0.5,0.7,1.1,2.2,1.1,4.3v8.5h-3.5v-8.1c0-0.8,0-3.8-2.8-3.8c-1,0-1.9,0.5-2.4,1.4
			c-0.5,0.9-0.5,2.3-0.5,3.2v7.3h-3.5v-8.1c0-2-0.7-3.8-2.9-3.8c-2.8,0-2.8,3.1-2.8,4.6v7.3H8.4L8.5,16.9L8.5,16.9z"/>
	</g>
	<path class="st1" d="M92.8,26.2c-0.4,1.9-2,5.6-6.9,5.6c-4.9,0-7.7-3.1-7.7-7.6c0-4.3,2.5-7.6,7.7-7.6c4.7,0,6.5,3.1,6.8,5.1h-1.9
		c-0.6-2.4-2.4-3.4-4.9-3.4c-4,0-5.8,2.6-5.8,5.9c0,3.6,2.1,5.9,5.8,5.9c2.9,0,4.5-1.6,5-3.9L92.8,26.2L92.8,26.2z"/>
	<path class="st1" d="M117.4,26.7c-0.8,2.5-2.9,5-7.4,5c-5.7,0-7.5-4.1-7.5-7.6c0-4.1,2.3-7.7,7.5-7.7c3.5,0,7.7,1.6,7.7,8.2h-13.2
		c0,3,2.1,5.5,5.5,5.5c3.2,0,4.8-1.2,5.4-3.3L117.4,26.7L117.4,26.7z M115.8,23c-0.5-3.6-3.1-4.9-5.7-4.9c-2.5,0-5.2,1.4-5.7,4.9
		H115.8z"/>
	<path class="st1" d="M119.9,21.3c0.3-3.1,1.9-4.9,6.6-4.9c4.6,0,6.3,1.5,6.3,4.3v7.5c0,1.2,0.4,1.4,1.1,1.4c0.4,0,0.6,0,0.6,0v1.8
		c0,0-0.6,0-1.3,0c-1.3,0-2.2-1.2-2.2-2.5l0,0c-0.6,1-1.9,2.9-6.4,2.9c-2.3,0-5.3-1.1-5.3-4.3c0-4,3.9-4.4,6.8-4.5
		c4.3-0.3,4.8-0.5,4.8-1.9c0-2.1-1.3-2.9-4.5-2.9c-3.1,0-4.6,0.9-4.7,3.1L119.9,21.3L119.9,21.3z M130.9,23.5
		c-0.9,0.5-2.2,0.7-6.1,1.1c-2.2,0.2-3.6,1-3.6,2.7c0,2.2,1.9,2.9,4,2.9c2.6,0,5.8-1.5,5.8-4.5V23.5z"/>
	<path class="st1" d="M141,31.4c-3.1,0-3.7-1.9-3.7-4.2v-8.7h-3v-1.5h3v-4.6h2v4.6h3.9v1.5h-3.9v8.7c0,1.3,0.4,2.3,2,2.3h1.2v1.9
		H141z"/>
	<path class="st1" d="M145.8,16.9h2v14.5h-2V16.9z"/>
	<path class="st1" d="M162.7,16.9h2.1l-6.5,14.5h-2.1l-6.5-14.5h2.1l5.4,12.1L162.7,16.9z"/>
	<path class="st1" d="M179.6,26.7c-0.8,2.5-2.9,5-7.4,5c-5.7,0-7.5-4.1-7.5-7.6c0-4.1,2.3-7.7,7.5-7.7c3.5,0,7.7,1.6,7.7,8.2h-13.2
		c0,3,2.1,5.5,5.5,5.5c3.2,0,4.8-1.2,5.4-3.3L179.6,26.7L179.6,26.7z M178,23c-0.5-3.6-3.1-4.9-5.7-4.9c-2.5,0-5.2,1.4-5.7,4.9H178z
		"/>
	<circle class="st0" cx="146.8" cy="13.5" r="1.4"/>
	<path class="st1" d="M102.2,16.4c-2.4,0-4.3,0.8-5.2,2.2v-1.9h-2v14.5h2v-7.8c0-4.1,2.5-5,4.7-5c0.2,0,0.4,0,0.5,0L102.2,16.4z"/>
</g>
</svg>
