<?xml version="1.0" encoding="utf-8"?>
<!-- Generator: Adobe Illustrator 21.1.0, SVG Export Plug-In . SVG Version: 6.00 Build 0)  -->
<svg version="1.1" id="Layer_1" xmlns="http://www.w3.org/2000/svg" xmlns:xlink="http://www.w3.org/1999/xlink" x="0px" y="0px"
	 viewBox="0 0 400 400" style="enable-background:new 0 0 400 400;" xml:space="preserve">
<style type="text/css">
	.st0{fill:#00B4ED;}
	.st1{fill:#FFFFFF;}
</style>
<rect width="400" height="400"/>
<g>
	<g>
		<rect x="81.2" y="268.9" class="st0" width="8.3" height="50.1"/>
		<g>
			<g>
				<path class="st1" d="M101.5,269c0.5-0.1,1.2-0.2,2-0.2c0.9-0.1,1.8-0.1,2.6-0.1c1.1,0,2.1,0.1,3,0.3c0.9,0.2,1.7,0.5,2.3,0.9
					c0.6,0.4,1.2,1,1.5,1.7c0.4,0.7,0.5,1.5,0.5,2.5c0,0.6-0.1,1.2-0.3,1.7c-0.2,0.5-0.4,1-0.7,1.4c-0.3,0.4-0.7,0.7-1.1,1
					s-0.8,0.5-1.3,0.6c0.5,0.1,1.1,0.2,1.6,0.4c0.6,0.2,1.1,0.6,1.5,1c0.4,0.4,0.8,1,1.1,1.6c0.3,0.6,0.4,1.4,0.4,2.4
					c0,1.1-0.2,2.1-0.7,2.9c-0.4,0.8-1.1,1.4-1.8,1.9c-0.8,0.5-1.7,0.8-2.7,1c-1,0.2-2.1,0.3-3.3,0.3c-0.7,0-1.5,0-2.4-0.1
					c-0.9-0.1-1.7-0.2-2.5-0.2V269z M106.5,277.7c1.3,0,2.3-0.3,3-0.9c0.7-0.6,1-1.4,1-2.6c0-1.1-0.4-1.9-1.1-2.5
					c-0.7-0.5-1.8-0.8-3-0.8c-0.4,0-0.8,0-1.1,0c-0.4,0-0.7,0-0.9,0.1v6.6H106.5z M104.4,287.6c0.3,0,0.6,0.1,1,0.1
					c0.4,0,0.8,0,1.2,0c0.7,0,1.4-0.1,2-0.2c0.6-0.1,1.1-0.3,1.6-0.6c0.5-0.3,0.8-0.7,1.1-1.1c0.3-0.5,0.4-1.1,0.4-1.8
					c0-0.7-0.1-1.3-0.4-1.8c-0.3-0.5-0.6-0.9-1-1.2c-0.4-0.3-1-0.5-1.6-0.6c-0.6-0.1-1.3-0.2-1.9-0.2h-2.4V287.6z"/>
				<path class="st1" d="M117.6,275c0.2,0,0.4-0.1,0.6-0.1c0.2,0,0.4,0,0.6,0c0.2,0,0.4,0,0.6,0c0.2,0,0.4,0,0.6,0.1
					c0.1,0.3,0.1,0.7,0.2,1.1c0.1,0.5,0.1,0.9,0.1,1.2c0.4-0.7,0.9-1.2,1.6-1.7c0.7-0.5,1.5-0.7,2.6-0.7c0.2,0,0.3,0,0.5,0
					c0.2,0,0.3,0,0.4,0c0,0.2,0.1,0.4,0.1,0.6c0,0.2,0,0.4,0,0.6c0,0.2,0,0.5,0,0.7c0,0.3-0.1,0.5-0.1,0.7c-0.2,0-0.3-0.1-0.5-0.1
					c-0.2,0-0.3,0-0.4,0c-0.5,0-1,0.1-1.5,0.2c-0.5,0.1-0.9,0.4-1.3,0.8c-0.4,0.4-0.7,0.9-0.9,1.5c-0.2,0.6-0.3,1.5-0.3,2.5v7.4
					c-0.2,0-0.5,0.1-0.7,0.1c-0.3,0-0.5,0-0.7,0c-0.2,0-0.5,0-0.7,0c-0.3,0-0.5,0-0.7-0.1V275z"/>
				<path class="st1" d="M133.5,290.3c-1.2,0-2.2-0.2-3.1-0.6c-0.9-0.4-1.6-0.9-2.2-1.6c-0.6-0.7-1-1.5-1.3-2.5
					c-0.3-0.9-0.4-2-0.4-3.1c0-1.1,0.1-2.1,0.4-3.1c0.3-0.9,0.7-1.8,1.3-2.5c0.6-0.7,1.3-1.3,2.2-1.7c0.9-0.4,1.9-0.6,3.1-0.6
					c1.2,0,2.2,0.2,3.1,0.6c0.9,0.4,1.6,1,2.2,1.7c0.6,0.7,1,1.5,1.3,2.5c0.3,1,0.4,2,0.4,3.1c0,1.1-0.1,2.1-0.4,3.1
					c-0.3,1-0.7,1.8-1.3,2.5c-0.6,0.7-1.3,1.2-2.2,1.6C135.6,290.1,134.6,290.3,133.5,290.3z M133.5,288c1.3,0,2.3-0.5,3-1.5
					c0.6-1,1-2.3,1-4s-0.3-3.1-1-4c-0.6-1-1.6-1.4-3-1.4c-1.3,0-2.3,0.5-3,1.4c-0.6,1-0.9,2.3-0.9,4s0.3,3.1,0.9,4
					C131.1,287.5,132.1,288,133.5,288z"/>
				<path class="st1" d="M141.7,275c0.3,0,0.5-0.1,0.8-0.1c0.3,0,0.5,0,0.7,0c0.3,0,0.5,0,0.8,0c0.3,0,0.5,0,0.7,0.1l2.9,12.2
					L151,275c0.2,0,0.4-0.1,0.7-0.1c0.3,0,0.5,0,0.8,0c0.3,0,0.6,0,0.8,0c0.2,0,0.4,0,0.7,0.1l3.3,12l2.9-12c0.2,0,0.4-0.1,0.6-0.1
					c0.2,0,0.4,0,0.7,0c0.2,0,0.5,0,0.7,0c0.3,0,0.5,0,0.8,0.1l-4.4,14.9c-0.3,0-0.5,0.1-0.8,0.1c-0.3,0-0.5,0-0.7,0
					c-0.2,0-0.4,0-0.7,0c-0.3,0-0.5,0-0.8-0.1l-3.2-11.3l-3.3,11.3c-0.3,0-0.5,0.1-0.8,0.1c-0.3,0-0.5,0-0.7,0c-0.2,0-0.5,0-0.7,0
					c-0.3,0-0.5,0-0.7-0.1L141.7,275z"/>
				<path class="st1" d="M165.5,275c0.2,0,0.4-0.1,0.6-0.1c0.2,0,0.4,0,0.6,0c0.2,0,0.4,0,0.6,0c0.2,0,0.4,0,0.6,0.1
					c0.1,0.3,0.1,0.7,0.2,1.2c0.1,0.5,0.1,0.9,0.1,1.2c0.2-0.3,0.4-0.7,0.7-1c0.3-0.3,0.6-0.6,1-0.9c0.4-0.3,0.8-0.5,1.3-0.6
					c0.5-0.2,1.1-0.2,1.7-0.2c1.7,0,3,0.5,3.8,1.5c0.8,1,1.2,2.4,1.2,4.3v9.5c-0.2,0-0.5,0.1-0.7,0.1c-0.3,0-0.5,0-0.7,0
					c-0.2,0-0.5,0-0.7,0c-0.3,0-0.5,0-0.7-0.1v-8.7c0-1.4-0.2-2.4-0.6-3c-0.4-0.6-1.1-1-2-1c-0.5,0-1.1,0.1-1.5,0.3
					c-0.5,0.2-0.9,0.5-1.3,0.9c-0.4,0.4-0.7,0.9-0.9,1.6c-0.2,0.6-0.3,1.4-0.3,2.3v7.6c-0.2,0-0.5,0.1-0.7,0.1c-0.3,0-0.5,0-0.7,0
					c-0.2,0-0.5,0-0.7,0c-0.3,0-0.5,0-0.7-0.1V275z"/>
				<path class="st1" d="M181.4,287.2c0.5,0.2,1.1,0.4,1.7,0.5c0.6,0.1,1.3,0.2,1.9,0.2c0.4,0,0.9,0,1.3-0.1
					c0.4-0.1,0.8-0.2,1.1-0.4c0.3-0.2,0.5-0.4,0.7-0.7c0.2-0.3,0.3-0.6,0.3-0.9c0-0.4-0.1-0.7-0.2-1c-0.1-0.3-0.3-0.5-0.6-0.6
					c-0.2-0.2-0.5-0.3-0.8-0.5c-0.3-0.1-0.7-0.2-1-0.4l-1-0.4c-1.2-0.5-2.1-1-2.7-1.6c-0.6-0.6-0.8-1.4-0.8-2.4
					c0-1.3,0.5-2.4,1.4-3.1c0.9-0.8,2.3-1.2,4.1-1.2c0.8,0,1.5,0.1,2.2,0.2s1.4,0.3,1.9,0.5c0,0.4-0.1,0.8-0.2,1.2
					c-0.1,0.4-0.2,0.7-0.4,1.1c-0.4-0.2-0.9-0.3-1.5-0.5c-0.6-0.1-1.2-0.2-1.9-0.2c-0.7,0-1.4,0.1-1.9,0.4c-0.6,0.3-0.8,0.7-0.8,1.3
					c0,0.3,0.1,0.6,0.2,0.8c0.1,0.2,0.3,0.4,0.6,0.6c0.2,0.2,0.5,0.3,0.8,0.4c0.3,0.1,0.6,0.2,1,0.3l1.3,0.4
					c0.5,0.2,0.9,0.3,1.3,0.6c0.4,0.2,0.8,0.5,1.1,0.8c0.3,0.3,0.5,0.7,0.7,1.2c0.2,0.5,0.3,1,0.3,1.6c0,0.7-0.1,1.4-0.4,2
					c-0.3,0.6-0.7,1.1-1.2,1.5c-0.5,0.4-1.2,0.7-1.9,1c-0.8,0.2-1.6,0.3-2.5,0.3c-0.9,0-1.7-0.1-2.4-0.2c-0.7-0.1-1.3-0.3-1.9-0.5
					c0-0.4,0.1-0.8,0.2-1.2C181.1,288,181.3,287.6,181.4,287.2z"/>
				<path class="st1" d="M195.1,277.3h-2.3l-0.1-0.4l5-5.6h0.2v3.7h3.8c0.1,0.3,0.1,0.7,0.1,1.1c0,0.2,0,0.4,0,0.6
					c0,0.2,0,0.4-0.1,0.6h-3.8v6.8c0,0.8,0,1.5,0.1,1.9c0.1,0.5,0.2,0.9,0.3,1.1c0.2,0.3,0.4,0.4,0.7,0.5c0.3,0.1,0.6,0.1,1.1,0.1
					c0.3,0,0.6,0,0.9-0.1c0.3,0,0.6-0.1,0.8-0.2c0.1,0.4,0.2,0.8,0.2,1.2c0,0.4,0,0.8,0,1.1c-0.4,0.1-0.8,0.2-1.2,0.2
					c-0.4,0-0.9,0.1-1.4,0.1c-1.4,0-2.5-0.3-3.3-1c-0.8-0.7-1.2-1.8-1.2-3.4V277.3z"/>
				<path class="st1" d="M206.5,283.2c0,1.6,0.5,2.8,1.3,3.6c0.8,0.8,2,1.1,3.6,1.1c1.4,0,2.7-0.2,3.9-0.7c0.2,0.3,0.3,0.6,0.4,1.1
					c0.1,0.4,0.2,0.8,0.2,1.2c-0.6,0.3-1.3,0.5-2.1,0.6c-0.8,0.1-1.6,0.2-2.5,0.2c-1.4,0-2.5-0.2-3.5-0.6c-1-0.4-1.8-0.9-2.4-1.6
					c-0.6-0.7-1.1-1.5-1.4-2.4c-0.3-0.9-0.4-2-0.4-3.1c0-1.1,0.1-2.1,0.4-3.1c0.3-1,0.7-1.8,1.3-2.5c0.6-0.7,1.3-1.3,2.2-1.7
					c0.9-0.4,1.9-0.6,3.1-0.6c1,0,1.9,0.2,2.7,0.5c0.8,0.3,1.4,0.8,1.9,1.4c0.5,0.6,0.9,1.3,1.2,2.2c0.3,0.8,0.4,1.8,0.4,2.7
					c0,0.3,0,0.6,0,0.9c0,0.3,0,0.6-0.1,0.8H206.5z M213.9,281c0-0.5-0.1-1.1-0.2-1.6c-0.1-0.5-0.4-0.9-0.6-1.3
					c-0.3-0.4-0.6-0.7-1.1-0.9c-0.4-0.2-1-0.3-1.6-0.3c-1.2,0-2.1,0.4-2.7,1.1c-0.6,0.7-1,1.7-1.1,3H213.9z"/>
				<path class="st1" d="M220.6,277.3h-1.9c0-0.2-0.1-0.3-0.1-0.5c0-0.2,0-0.4,0-0.6c0-0.2,0-0.4,0-0.6c0-0.2,0-0.4,0.1-0.5h4.7
					v14.9c-0.2,0-0.5,0.1-0.7,0.1c-0.3,0-0.5,0-0.7,0c-0.2,0-0.4,0-0.7,0c-0.3,0-0.5,0-0.7-0.1V277.3z M219.9,271.7
					c0-0.2-0.1-0.5-0.1-0.8c0-0.3,0-0.5,0-0.7c0-0.2,0-0.5,0-0.7c0-0.3,0-0.5,0.1-0.7c0.3,0,0.5-0.1,0.8-0.1c0.3,0,0.5,0,0.8,0
					c0.2,0,0.5,0,0.8,0c0.3,0,0.6,0,0.8,0.1c0,0.2,0.1,0.5,0.1,0.7c0,0.3,0,0.5,0,0.7c0,0.2,0,0.5,0,0.7c0,0.3,0,0.5-0.1,0.8
					c-0.2,0-0.5,0.1-0.8,0.1c-0.3,0-0.5,0-0.7,0c-0.2,0-0.5,0-0.8,0C220.4,271.8,220.2,271.7,219.9,271.7z"/>
				<path class="st1" d="M227.5,275c0.2,0,0.4-0.1,0.6-0.1c0.2,0,0.4,0,0.6,0c0.2,0,0.4,0,0.6,0c0.2,0,0.4,0,0.6,0.1
					c0.1,0.3,0.1,0.7,0.2,1.2c0.1,0.5,0.1,0.9,0.1,1.2c0.2-0.3,0.4-0.7,0.7-1c0.3-0.3,0.6-0.6,1-0.9c0.4-0.3,0.8-0.5,1.3-0.6
					c0.5-0.2,1.1-0.2,1.7-0.2c1.7,0,3,0.5,3.8,1.5c0.8,1,1.2,2.4,1.2,4.3v9.5c-0.2,0-0.5,0.1-0.7,0.1c-0.3,0-0.5,0-0.7,0
					c-0.2,0-0.5,0-0.7,0c-0.3,0-0.5,0-0.7-0.1v-8.7c0-1.4-0.2-2.4-0.6-3c-0.4-0.6-1.1-1-2-1c-0.5,0-1.1,0.1-1.5,0.3
					c-0.5,0.2-0.9,0.5-1.3,0.9c-0.4,0.4-0.7,0.9-0.9,1.6c-0.2,0.6-0.3,1.4-0.3,2.3v7.6c-0.2,0-0.5,0.1-0.7,0.1c-0.3,0-0.5,0-0.7,0
					c-0.2,0-0.5,0-0.7,0c-0.3,0-0.5,0-0.7-0.1V275z"/>
				<path class="st1" d="M250.9,269c0.2,0,0.5-0.1,0.7-0.1c0.3,0,0.5,0,0.8,0c0.3,0,0.5,0,0.8,0c0.3,0,0.5,0,0.7,0.1v8.6h8.9V269
					c0.2,0,0.4-0.1,0.7-0.1c0.3,0,0.5,0,0.8,0s0.5,0,0.8,0c0.3,0,0.5,0,0.7,0.1v20.9c-0.2,0-0.4,0.1-0.7,0.1c-0.3,0-0.5,0-0.8,0
					c-0.3,0-0.5,0-0.8,0c-0.3,0-0.5,0-0.7-0.1v-9.7h-8.9v9.7c-0.2,0-0.5,0.1-0.7,0.1c-0.2,0-0.5,0-0.8,0c-0.3,0-0.5,0-0.8,0
					c-0.3,0-0.5,0-0.7-0.1V269z"/>
				<path class="st1" d="M275.2,289.9c-0.2,0-0.3,0-0.5,0c-0.2,0-0.3,0-0.5,0c-0.2,0-0.4,0-0.6,0c-0.2,0-0.4,0-0.5,0l-4.9-14.9
					c0.3,0,0.5-0.1,0.8-0.1c0.3,0,0.5,0,0.8,0c0.3,0,0.5,0,0.8,0c0.3,0,0.6,0,0.8,0.1l4.1,13.9l4.3-13.9c0.4-0.1,0.9-0.1,1.4-0.1
					c0.2,0,0.5,0,0.7,0c0.3,0,0.5,0,0.8,0.1l-5.8,17.9c-0.3,0.8-0.6,1.5-0.8,2c-0.3,0.5-0.6,1-1,1.3c-0.4,0.3-0.8,0.6-1.2,0.7
					c-0.5,0.1-1,0.2-1.6,0.2c-0.4,0-0.9,0-1.3-0.1c-0.4-0.1-0.8-0.2-1.1-0.2c0-0.4,0-0.8,0.1-1.2c0.1-0.3,0.2-0.7,0.3-1
					c0.2,0.1,0.4,0.1,0.7,0.2c0.3,0.1,0.6,0.1,1,0.1c0.3,0,0.5,0,0.7-0.1c0.2,0,0.4-0.1,0.6-0.3c0.2-0.1,0.4-0.4,0.5-0.6
					c0.2-0.3,0.3-0.6,0.5-1.1L275.2,289.9z"/>
				<path class="st1" d="M292.5,280.1c0-1.1-0.3-1.9-0.9-2.4c-0.6-0.4-1.4-0.7-2.5-0.7c-0.7,0-1.3,0.1-1.9,0.2
					c-0.6,0.1-1.2,0.2-1.7,0.4c-0.4-0.6-0.6-1.4-0.6-2.3c0.7-0.2,1.4-0.4,2.2-0.5c0.8-0.1,1.6-0.2,2.3-0.2c1.9,0,3.4,0.4,4.4,1.3
					c1,0.9,1.5,2.3,1.5,4.2v9.3c-0.7,0.2-1.5,0.3-2.5,0.5c-1,0.2-2,0.2-3,0.2c-1,0-1.8-0.1-2.6-0.3c-0.8-0.2-1.4-0.5-1.9-0.8
					c-0.5-0.4-0.9-0.9-1.2-1.5c-0.3-0.6-0.4-1.3-0.4-2.2c0-0.8,0.2-1.6,0.5-2.2c0.3-0.6,0.8-1.2,1.4-1.6c0.6-0.4,1.2-0.7,2-0.9
					c0.8-0.2,1.6-0.3,2.4-0.3c0.6,0,1.1,0,1.5,0c0.4,0,0.7,0.1,1,0.1V280.1z M292.5,282.9c-0.3,0-0.7-0.1-1.1-0.1
					c-0.4,0-0.8-0.1-1.1-0.1c-1.2,0-2.1,0.2-2.7,0.7c-0.6,0.4-0.9,1.1-0.9,2c0,0.6,0.1,1,0.3,1.4c0.2,0.3,0.5,0.6,0.8,0.8
					c0.3,0.2,0.7,0.3,1.1,0.3c0.4,0,0.8,0.1,1.1,0.1c0.4,0,0.9,0,1.4-0.1c0.5,0,0.9-0.1,1.3-0.2V282.9z"/>
				<path class="st1" d="M299.2,277.3h-2.3l-0.1-0.4l5-5.6h0.2v3.7h3.8c0.1,0.3,0.1,0.7,0.1,1.1c0,0.2,0,0.4,0,0.6
					c0,0.2,0,0.4-0.1,0.6H302v6.8c0,0.8,0,1.5,0.1,1.9c0.1,0.5,0.2,0.9,0.3,1.1s0.4,0.4,0.7,0.5c0.3,0.1,0.6,0.1,1.1,0.1
					c0.3,0,0.6,0,0.9-0.1c0.3,0,0.6-0.1,0.8-0.2c0.1,0.4,0.2,0.8,0.2,1.2c0,0.4,0,0.8,0,1.1c-0.4,0.1-0.8,0.2-1.2,0.2
					c-0.4,0-0.9,0.1-1.4,0.1c-1.4,0-2.5-0.3-3.3-1c-0.8-0.7-1.2-1.8-1.2-3.4V277.3z"/>
				<path class="st1" d="M309.4,277.3h-2.3l-0.1-0.4l5-5.6h0.2v3.7h3.8c0.1,0.3,0.1,0.7,0.1,1.1c0,0.2,0,0.4,0,0.6
					c0,0.2,0,0.4-0.1,0.6h-3.8v6.8c0,0.8,0,1.5,0.1,1.9c0.1,0.5,0.2,0.9,0.3,1.1c0.2,0.3,0.4,0.4,0.7,0.5c0.3,0.1,0.6,0.1,1.1,0.1
					c0.3,0,0.6,0,0.9-0.1c0.3,0,0.6-0.1,0.8-0.2c0.1,0.4,0.2,0.8,0.2,1.2c0,0.4,0,0.8,0,1.1c-0.4,0.1-0.8,0.2-1.2,0.2
					c-0.4,0-0.9,0.1-1.4,0.1c-1.4,0-2.5-0.3-3.3-1c-0.8-0.7-1.2-1.8-1.2-3.4V277.3z"/>
				<path class="st1" d="M101.4,297.7h10.9c0,0.2,0.1,0.4,0.1,0.6c0,0.2,0,0.4,0,0.7c0,0.2,0,0.4,0,0.7c0,0.2,0,0.4-0.1,0.6h-8v6.1
					h6.7c0,0.2,0.1,0.4,0.1,0.7c0,0.2,0,0.4,0,0.7c0,0.2,0,0.4,0,0.7c0,0.2,0,0.4-0.1,0.7h-6.7v9.6c-0.2,0-0.5,0.1-0.7,0.1
					c-0.2,0-0.5,0-0.8,0c-0.3,0-0.5,0-0.8,0c-0.3,0-0.5,0-0.7-0.1V297.7z"/>
				<path class="st1" d="M121.7,308.8c0-1.1-0.3-1.9-0.9-2.4c-0.6-0.4-1.4-0.7-2.5-0.7c-0.7,0-1.3,0.1-1.9,0.2
					c-0.6,0.1-1.2,0.2-1.7,0.4c-0.4-0.6-0.6-1.4-0.6-2.3c0.7-0.2,1.4-0.4,2.2-0.5c0.8-0.1,1.6-0.2,2.3-0.2c1.9,0,3.4,0.4,4.4,1.3
					c1,0.9,1.5,2.3,1.5,4.2v9.3c-0.7,0.2-1.5,0.3-2.5,0.5c-1,0.2-2,0.2-3,0.2c-0.9,0-1.8-0.1-2.6-0.3c-0.8-0.2-1.4-0.5-1.9-0.8
					c-0.5-0.4-0.9-0.9-1.2-1.5c-0.3-0.6-0.4-1.3-0.4-2.2c0-0.8,0.2-1.6,0.5-2.2c0.3-0.6,0.8-1.2,1.4-1.6c0.6-0.4,1.3-0.7,2-0.9
					c0.8-0.2,1.6-0.3,2.4-0.3c0.6,0,1.1,0,1.5,0c0.4,0,0.7,0.1,1,0.1V308.8z M121.7,311.6c-0.3,0-0.7-0.1-1.1-0.1
					c-0.4,0-0.8-0.1-1.1-0.1c-1.2,0-2.1,0.2-2.7,0.7c-0.6,0.4-0.9,1.1-0.9,2c0,0.6,0.1,1,0.3,1.4c0.2,0.3,0.5,0.6,0.8,0.8
					c0.3,0.2,0.7,0.3,1.1,0.3c0.4,0,0.8,0.1,1.1,0.1c0.4,0,0.9,0,1.4-0.1c0.5,0,0.9-0.1,1.3-0.2V311.6z"/>
				<path class="st1" d="M127.7,303.7c0.2,0,0.4-0.1,0.6-0.1c0.2,0,0.4,0,0.6,0c0.2,0,0.4,0,0.6,0c0.2,0,0.4,0,0.6,0.1
					c0.1,0.3,0.1,0.7,0.2,1.1c0.1,0.5,0.1,0.9,0.1,1.2c0.4-0.7,0.9-1.2,1.6-1.7c0.7-0.5,1.5-0.7,2.6-0.7c0.2,0,0.3,0,0.5,0
					c0.2,0,0.3,0,0.4,0c0,0.2,0.1,0.4,0.1,0.6c0,0.2,0,0.4,0,0.6c0,0.2,0,0.5,0,0.7c0,0.3-0.1,0.5-0.1,0.7c-0.2,0-0.3-0.1-0.5-0.1
					c-0.2,0-0.3,0-0.4,0c-0.5,0-1,0.1-1.5,0.2c-0.5,0.1-0.9,0.4-1.3,0.8c-0.4,0.4-0.7,0.9-0.9,1.5c-0.2,0.6-0.3,1.5-0.3,2.5v7.4
					c-0.2,0-0.5,0.1-0.7,0.1c-0.3,0-0.5,0-0.7,0c-0.2,0-0.5,0-0.7,0c-0.3,0-0.5,0-0.7-0.1V303.7z"/>
				<path class="st1" d="M137.9,297.3c0.2,0,0.5-0.1,0.7-0.1c0.3,0,0.5,0,0.7,0c0.2,0,0.5,0,0.7,0c0.3,0,0.5,0,0.7,0.1v8.2
					c0.3-0.6,0.9-1.1,1.6-1.5c0.7-0.4,1.6-0.6,2.7-0.6c0.9,0,1.7,0.1,2.5,0.4c0.8,0.3,1.4,0.7,1.9,1.4c0.5,0.6,1,1.4,1.3,2.3
					c0.3,0.9,0.5,2.1,0.5,3.3c0,2.6-0.7,4.6-2.2,6c-1.4,1.4-3.5,2.2-6.2,2.2c-0.9,0-1.7-0.1-2.6-0.2c-0.9-0.2-1.7-0.4-2.3-0.6V297.3
					z M140.8,316.2c0.3,0.1,0.7,0.2,1.1,0.2c0.4,0,0.8,0.1,1.2,0.1c0.7,0,1.4-0.1,2-0.3c0.6-0.2,1.1-0.6,1.6-1
					c0.4-0.5,0.8-1,1.1-1.7c0.3-0.7,0.4-1.5,0.4-2.5c0-1.6-0.3-2.9-0.8-3.8c-0.6-0.9-1.5-1.3-2.8-1.3c-0.4,0-0.9,0.1-1.3,0.2
					c-0.4,0.1-0.8,0.4-1.2,0.7c-0.4,0.3-0.7,0.7-0.9,1.3c-0.2,0.5-0.3,1.2-0.3,1.9V316.2z"/>
				<path class="st1" d="M155.9,311.9c0,1.6,0.5,2.8,1.3,3.6c0.8,0.8,2,1.1,3.6,1.1c1.4,0,2.7-0.2,3.9-0.7c0.2,0.3,0.3,0.6,0.4,1.1
					c0.1,0.4,0.2,0.8,0.2,1.2c-0.6,0.3-1.3,0.5-2.1,0.6c-0.8,0.1-1.6,0.2-2.5,0.2c-1.4,0-2.5-0.2-3.5-0.6c-1-0.4-1.8-0.9-2.4-1.6
					c-0.6-0.7-1.1-1.5-1.4-2.4c-0.3-0.9-0.4-2-0.4-3.1c0-1.1,0.1-2.1,0.4-3.1c0.3-1,0.7-1.8,1.3-2.5c0.6-0.7,1.3-1.3,2.2-1.7
					c0.9-0.4,1.9-0.6,3.1-0.6c1,0,1.9,0.2,2.7,0.5c0.8,0.3,1.4,0.8,1.9,1.4c0.5,0.6,0.9,1.3,1.2,2.2c0.3,0.8,0.4,1.8,0.4,2.7
					c0,0.3,0,0.6,0,0.9c0,0.3,0,0.6-0.1,0.8H155.9z M163.3,309.7c0-0.5-0.1-1.1-0.2-1.6c-0.1-0.5-0.4-0.9-0.6-1.3
					c-0.3-0.4-0.6-0.7-1.1-0.9c-0.4-0.2-1-0.3-1.6-0.3c-1.2,0-2.1,0.4-2.7,1.1c-0.6,0.7-1,1.7-1.1,3H163.3z"/>
				<path class="st1" d="M168.6,303.7c0.2,0,0.4-0.1,0.6-0.1c0.2,0,0.4,0,0.6,0c0.2,0,0.4,0,0.6,0c0.2,0,0.4,0,0.6,0.1
					c0.1,0.3,0.1,0.7,0.2,1.1c0.1,0.5,0.1,0.9,0.1,1.2c0.4-0.7,0.9-1.2,1.6-1.7c0.7-0.5,1.5-0.7,2.6-0.7c0.2,0,0.3,0,0.5,0
					c0.2,0,0.3,0,0.4,0c0,0.2,0.1,0.4,0.1,0.6c0,0.2,0,0.4,0,0.6c0,0.2,0,0.5,0,0.7c0,0.3-0.1,0.5-0.1,0.7c-0.2,0-0.3-0.1-0.5-0.1
					c-0.2,0-0.3,0-0.4,0c-0.5,0-1,0.1-1.5,0.2c-0.5,0.1-0.9,0.4-1.3,0.8c-0.4,0.4-0.7,0.9-0.9,1.5c-0.2,0.6-0.3,1.5-0.3,2.5v7.4
					c-0.2,0-0.5,0.1-0.7,0.1c-0.3,0-0.5,0-0.7,0c-0.2,0-0.5,0-0.7,0c-0.3,0-0.5,0-0.7-0.1V303.7z"/>
				<path class="st1" d="M184,315.5c0.6,0.2,1.3,0.4,2,0.6c0.7,0.2,1.6,0.3,2.6,0.3c1.6,0,2.8-0.3,3.6-1c0.8-0.6,1.2-1.5,1.2-2.6
					c0-0.5-0.1-1-0.2-1.4c-0.2-0.4-0.4-0.7-0.7-1c-0.3-0.3-0.7-0.5-1.2-0.8c-0.5-0.2-1.1-0.5-1.7-0.8l-1.7-0.7
					c-0.6-0.2-1.1-0.5-1.5-0.8c-0.5-0.3-0.9-0.6-1.2-1c-0.3-0.4-0.6-0.9-0.8-1.4c-0.2-0.5-0.3-1.2-0.3-1.9c0-1.8,0.6-3.1,1.8-4.1
					c1.2-1,2.9-1.5,5.1-1.5c0.9,0,1.8,0.1,2.6,0.2c0.8,0.2,1.6,0.3,2.2,0.6c-0.1,0.8-0.3,1.6-0.6,2.4c-0.5-0.2-1.1-0.4-1.8-0.5
					c-0.7-0.2-1.5-0.2-2.3-0.2c-1.2,0-2.2,0.2-2.8,0.7c-0.7,0.5-1,1.2-1,2.2c0,0.4,0.1,0.8,0.2,1.1c0.2,0.3,0.4,0.6,0.7,0.8
					c0.3,0.2,0.6,0.5,1,0.7c0.4,0.2,0.8,0.4,1.2,0.5l1.6,0.6c0.8,0.3,1.5,0.6,2.1,1c0.6,0.3,1.1,0.7,1.5,1.2c0.4,0.5,0.8,1,1,1.6
					c0.2,0.6,0.3,1.3,0.3,2.2c0,2-0.7,3.6-2.1,4.7c-1.4,1.2-3.3,1.7-5.8,1.7c-0.6,0-1.1,0-1.6-0.1c-0.5,0-0.9-0.1-1.4-0.2
					c-0.4-0.1-0.8-0.2-1.2-0.3c-0.4-0.1-0.8-0.2-1.2-0.4c0-0.4,0.1-0.9,0.3-1.3C183.7,316.3,183.8,315.9,184,315.5z"/>
				<path class="st1" d="M208.9,316.1c0.2,0.3,0.3,0.6,0.4,1c0.1,0.4,0.2,0.8,0.2,1.3c-1.1,0.4-2.5,0.7-3.9,0.7
					c-2.5,0-4.4-0.7-5.6-2.1c-1.3-1.4-1.9-3.3-1.9-5.7c0-1.1,0.2-2.1,0.5-3.1c0.3-0.9,0.8-1.8,1.4-2.5c0.6-0.7,1.4-1.3,2.3-1.7
					c0.9-0.4,2-0.6,3.2-0.6c0.8,0,1.5,0,2.2,0.1c0.6,0.1,1.2,0.3,1.8,0.5c0,0.3,0,0.7-0.1,1.1c-0.1,0.4-0.2,0.8-0.4,1.1
					c-0.9-0.3-2-0.5-3.3-0.5c-1.5,0-2.6,0.5-3.3,1.5c-0.7,1-1.1,2.3-1.1,3.9c0,1.9,0.4,3.2,1.3,4.1c0.8,0.9,2,1.3,3.4,1.3
					c0.6,0,1.1,0,1.6-0.1C207.9,316.4,208.4,316.3,208.9,316.1z"/>
				<path class="st1" d="M212.1,297.3c0.2,0,0.5-0.1,0.7-0.1c0.3,0,0.5,0,0.7,0s0.5,0,0.7,0c0.3,0,0.5,0,0.7,0.1v8.7
					c0.2-0.3,0.4-0.6,0.7-0.9c0.3-0.3,0.6-0.6,1-0.9c0.4-0.3,0.8-0.5,1.3-0.6c0.5-0.2,1-0.2,1.6-0.2c1.7,0,3,0.5,3.8,1.5
					c0.8,1,1.2,2.4,1.2,4.3v9.5c-0.2,0-0.5,0.1-0.7,0.1c-0.3,0-0.5,0-0.7,0c-0.2,0-0.5,0-0.7,0c-0.3,0-0.5,0-0.7-0.1V310
					c0-1.4-0.2-2.4-0.7-3c-0.5-0.6-1.1-1-2.1-1c-0.5,0-1,0.1-1.5,0.3c-0.5,0.2-0.9,0.5-1.3,0.9c-0.4,0.4-0.7,0.9-0.9,1.6
					c-0.2,0.6-0.3,1.4-0.3,2.3v7.6c-0.2,0-0.5,0.1-0.7,0.1c-0.3,0-0.5,0-0.7,0c-0.2,0-0.4,0-0.7,0c-0.3,0-0.5,0-0.7-0.1V297.3z"/>
				<path class="st1" d="M227.6,303.7c0.2,0,0.4-0.1,0.6-0.1c0.2,0,0.4,0,0.6,0c0.2,0,0.4,0,0.6,0c0.2,0,0.4,0,0.6,0.1
					c0.1,0.3,0.1,0.7,0.2,1.1c0.1,0.5,0.1,0.9,0.1,1.2c0.4-0.7,0.9-1.2,1.6-1.7c0.7-0.5,1.5-0.7,2.6-0.7c0.2,0,0.3,0,0.5,0
					c0.2,0,0.3,0,0.4,0c0,0.2,0.1,0.4,0.1,0.6c0,0.2,0,0.4,0,0.6c0,0.2,0,0.5,0,0.7c0,0.3-0.1,0.5-0.1,0.7c-0.2,0-0.3-0.1-0.5-0.1
					c-0.2,0-0.3,0-0.4,0c-0.5,0-1,0.1-1.5,0.2c-0.5,0.1-0.9,0.4-1.3,0.8c-0.4,0.4-0.7,0.9-0.9,1.5c-0.2,0.6-0.3,1.5-0.3,2.5v7.4
					c-0.2,0-0.5,0.1-0.7,0.1c-0.3,0-0.5,0-0.7,0c-0.2,0-0.5,0-0.7,0c-0.3,0-0.5,0-0.7-0.1V303.7z"/>
				<path class="st1" d="M239.2,311.9c0,1.6,0.5,2.8,1.3,3.6c0.8,0.8,2,1.1,3.6,1.1c1.4,0,2.7-0.2,3.9-0.7c0.2,0.3,0.3,0.6,0.4,1.1
					c0.1,0.4,0.2,0.8,0.2,1.2c-0.6,0.3-1.3,0.5-2.1,0.6c-0.8,0.1-1.6,0.2-2.5,0.2c-1.4,0-2.5-0.2-3.5-0.6c-1-0.4-1.8-0.9-2.4-1.6
					c-0.6-0.7-1.1-1.5-1.4-2.4c-0.3-0.9-0.4-2-0.4-3.1c0-1.1,0.1-2.1,0.4-3.1c0.3-1,0.7-1.8,1.3-2.5c0.6-0.7,1.3-1.3,2.2-1.7
					c0.9-0.4,1.9-0.6,3.1-0.6c1,0,1.9,0.2,2.7,0.5c0.8,0.3,1.4,0.8,1.9,1.4c0.5,0.6,0.9,1.3,1.2,2.2c0.3,0.8,0.4,1.8,0.4,2.7
					c0,0.3,0,0.6,0,0.9c0,0.3,0,0.6-0.1,0.8H239.2z M246.6,309.7c0-0.5-0.1-1.1-0.2-1.6c-0.1-0.5-0.4-0.9-0.6-1.3
					c-0.3-0.4-0.6-0.7-1.1-0.9c-0.4-0.2-1-0.3-1.6-0.3c-1.2,0-2.1,0.4-2.7,1.1c-0.6,0.7-1,1.7-1.1,3H246.6z"/>
				<path class="st1" d="M262.3,316.1c0.2,0.3,0.3,0.6,0.4,1c0.1,0.4,0.2,0.8,0.2,1.3c-1.1,0.4-2.5,0.7-3.9,0.7
					c-2.5,0-4.4-0.7-5.6-2.1c-1.3-1.4-1.9-3.3-1.9-5.7c0-1.1,0.2-2.1,0.5-3.1c0.3-0.9,0.8-1.8,1.4-2.5c0.6-0.7,1.4-1.3,2.3-1.7
					c0.9-0.4,2-0.6,3.2-0.6c0.8,0,1.5,0,2.2,0.1c0.6,0.1,1.2,0.3,1.8,0.5c0,0.3,0,0.7-0.1,1.1c-0.1,0.4-0.2,0.8-0.4,1.1
					c-0.9-0.3-2-0.5-3.3-0.5c-1.5,0-2.6,0.5-3.3,1.5c-0.7,1-1.1,2.3-1.1,3.9c0,1.9,0.4,3.2,1.3,4.1c0.8,0.9,2,1.3,3.4,1.3
					c0.6,0,1.1,0,1.6-0.1C261.3,316.4,261.8,316.3,262.3,316.1z"/>
				<path class="st1" d="M265.4,297.3c0.2,0,0.5-0.1,0.7-0.1c0.3,0,0.5,0,0.7,0c0.2,0,0.5,0,0.7,0c0.3,0,0.5,0,0.7,0.1v21.3
					c-0.2,0-0.5,0.1-0.7,0.1c-0.3,0-0.5,0-0.7,0c-0.2,0-0.5,0-0.7,0c-0.3,0-0.5,0-0.7-0.1V297.3z M269.1,310.9l4.7-7.2
					c0.3,0,0.5-0.1,0.8-0.1c0.3,0,0.5,0,0.8,0c0.3,0,0.6,0,0.8,0c0.3,0,0.5,0,0.8,0.1l-4.7,7l5.6,7.9c-0.3,0-0.5,0.1-0.8,0.1
					c-0.3,0-0.5,0-0.8,0c-0.3,0-0.5,0-0.8,0c-0.3,0-0.5,0-0.8-0.1L269.1,310.9z"/>
			</g>
		</g>
	</g>
	<g>
		<path class="st0" d="M241.2,87.5c0,0,2,0.2,3.6,2.5c1.1,1.6,1,4,1,4l0,0c2.7,1.9,3.2,4,2.5,5.2c-0.7,1.3-1.7,1.6-1.7,2.2
			c0,0.5-0.1,8.2-0.1,11.6c26.7,4.1,47.2,27.3,47.2,55.2c0,3.6-0.4,7.2-1,10.7c1.1,1.4,1.1,3.2,0.4,4.9c-0.9,2.3-2.2,4.8-2.2,4.8
			l0.1,11.9c0,0,3.5,1.3,5.9,2.3c7.5,3.1,9.3,7.1,5.9,14.1c0,0-1.3,2.2-1.3,2.2l0,3.8c12.6-14.7,20.2-33.8,20.2-54.6
			c0-45.3-35.8-82.1-80.6-83.9V87.5z"/>
		<path class="st0" d="M174.6,243.9l-3.8-4.5c-1.5,1.7-3.3,2.5-5.7,2.5c-4.8,0-8.2-3.5-8.2-8.5s3.1-8.3,7.7-8.3
			c2.1,0,4.1,0.8,6.1,2.6l3.9-4l0-4.8c0,0-1.3-2.2-1.3-2.2c-3.4-7-1.6-11.1,5.9-14.1c2.5-1,5.9-2.3,5.9-2.3l0.1-11.9
			c0,0-1.3-2.4-2.2-4.8c-0.5-1.4-0.6-2.8-0.1-4.1c-0.8-3.7-1.2-7.5-1.2-11.5c0-28.1,20.8-51.4,47.8-55.2c0-3.4-0.1-11-0.1-11.5
			c0-0.6-1-0.9-1.7-2.2c-0.7-1.2-0.2-3.3,2.5-5.2l0,0c0,0,0-2.4,1-4c1.6-2.3,3.6-2.5,3.6-2.5v-3.4c-28.1,0.9-52.7,15.6-67.3,37.5
			c0-0.3,0-0.6,0-0.9c0-21.5-17.3-36.6-41.4-36.6c-26.1,0-43.8,18.1-43.8,45c0,1,0,2,0,3.2h27.5c0.4-14.9,4.4-20.9,14.7-20.9
			c7.6,0,12.5,5,12.5,12.5c0,5.4-2.2,10.2-10.2,22.7l-46.4,72.9h0v28.3h6.9v-28.3h5.4v28.3h6.9v-16.1l10.3,16.1h6.9v-28.3h10.4v28.3
			h9.1c4.1,0,7.4-1.1,9.9-3.2c1.9-1.7,3.3-4.2,4-7c1.5,6.5,6.8,10.8,13.8,10.8c2.3,0,4.5-0.5,6.5-1.3c1.4-0.6,2.3-1.2,3.8-2.5
			L174.6,243.9z M110.3,235.3L100,219.4h10.3V235.3z M150.9,163.3c1.3-2,2.4-3.8,3.6-5.6c-0.4,3.4-0.7,6.8-0.7,10.4
			c0,8.8,1.4,17.3,3.9,25.3h-26.5L150.9,163.3z M135.5,242.1h-1.1v-17.2h1.3c4.8,0,8.3,3.5,8.3,8.5
			C144,238.6,140.6,242.1,135.5,242.1z M150.6,229.4c-0.7-2.8-2.1-5.1-4.2-6.9c-2.6-2.2-5.6-3.1-10.5-3.1h24.2
			C155.3,220.8,151.8,224.4,150.6,229.4z"/>
	</g>
	<path class="st1" d="M296.9,202.5c-2.5-1-5.9-2.3-5.9-2.3l-0.1-11.9c0,0,1.3-2.4,2.2-4.8c0.9-2.3,0.6-4.8-2.1-6.2l-4.1-1.8
		c1.1-3.1,1.3-5.2-1.3-6.8l-2.8-1.6c0,0,0.2-6.7-5.3-19.2c-7.2-16.6-24.3-22.2-24.3-22.2l0-3.4c0-1.3-4.6-2.3-4.6-2.3l0-3.3
		c-0.1-1.9-2.1-2.3-2.1-2.3s0.1-12.5,0.1-13.1c0-0.6,1-0.9,1.7-2.2c0.7-1.2,0.2-3.3-2.5-5.2l0,0c0,0,0-2.4-1-4
		c-1.6-2.3-3.6-2.5-3.6-2.5v-4c0,0,0.8,0,0.9-0.5v-2.5l-1.7-1.1l0-3.2h1.2c0,0,0.4-3.5,0.3-5.7c-0.1-2.2-2.6-6-2.6-6l0.9-0.9
		c0,0,0.3-2.8-1.4-2.5c-1.7,0.4-1.5,2.7-1.5,2.7s-1,1-1.8,3.1c-0.8,2.1-1.3,7-1.3,7h1.7v5.5l-1.7,1.1v2.5c0,0.4,0.9,0.5,0.9,0.5v4
		c0,0-2,0.2-3.6,2.5c-1.1,1.6-1,4-1,4l0,0c-2.7,1.9-3.2,4-2.5,5.2c0.7,1.3,1.7,1.6,1.7,2.2c0,0.6,0.1,13.1,0.1,13.1s-2,0.4-2.1,2.3
		l0,3.3c0,0-4.6,1-4.6,2.3l0,3.4c0,0-17,5.6-24.3,22.2c-5.5,12.6-5.3,19.2-5.3,19.2l-2.8,1.6c-2.7,1.6-2.4,3.7-1.3,6.8l-4.1,1.8
		c-2.7,1.4-3,3.9-2.1,6.2c0.9,2.3,2.2,4.8,2.2,4.8l-0.1,11.9c0,0-3.5,1.3-5.9,2.3c-7.5,3.1-9.3,7.1-5.9,14.1c0,0,1.3,2.2,1.3,2.2
		l0,4.5c1.7,2,3.6,3.9,5.5,5.7c0-3.7,0-7.4,0-11.2c0-0.6,0.4-1,1.8-1.4c1.4-0.4,1.8-0.4,1.8,0.3c0,5.1,0,10.3,0,15.4
		c1.5,1.3,3.1,2.5,4.7,3.7c0-6.8,0-13.6,0-20.3c0-0.8,0.5-1.2,2.1-1.6c1.6-0.4,2.1-0.3,2.1,0.4c0,8.1,0,16.3,0,24.4
		c1.7,1.1,3.4,2.1,5.1,3c0-9.5,0-19,0-28.5c0-0.9,0.7-1.3,2.7-1.7c2.1-0.4,2.7-0.3,2.7,0.6c0,10.7,0,21.4,0,32.1
		c-0.1,0-0.2,0-0.2,0.1c10.6,4.8,22.4,7.5,34.8,7.5c12.4,0,24.2-2.7,34.8-7.5c0-10.7,0-21.4,0-32.1c0-0.9,0.6-1.1,2.7-0.6
		c2,0.4,2.7,0.8,2.7,1.7c0,9.4,0,18.9,0,28.3c1.8-1,3.5-2,5.1-3.1c0-8.1,0-16.1,0-24.2c0-0.8,0.5-0.9,2.1-0.4
		c1.6,0.4,2.1,0.8,2.1,1.6c0,6.7,0,13.4,0,20.2c1.6-1.2,3.2-2.4,4.7-3.7c0-5.1,0-10.1,0-15.2c0-0.6,0.4-0.7,1.8-0.3
		c1.3,0.4,1.8,0.8,1.8,1.4c0,3.6,0,7.3,0,10.9c2.1-2,4-4,5.9-6.2l0-3.8c0,0,1.3-2.2,1.3-2.2C306.2,209.6,304.4,205.6,296.9,202.5z
		 M188.5,199.4c0-3.7,0-7.4,0-11.1c0-0.8,0.5-1.6,1.1-1.8c0.6-0.2,1.1,0.3,1.1,1.1c0,3.7,0,7.4,0,11.1
		C190,199,189.2,199.2,188.5,199.4z M193.2,198.1c0-3.8,0-7.5,0-11.3c0-0.9,0.6-1.9,1.4-2.1c0.8-0.2,1.4,0.4,1.4,1.4
		c0,3.8,0,7.5,0,11.3C195,197.7,194.1,197.9,193.2,198.1z M198.7,196.8c0-3.8,0-7.5,0-11.3c0-1.1,0.7-2.1,1.6-2.3
		c0.9-0.2,1.6,0.5,1.6,1.6c0,3.8,0,7.5,0,11.3C200.8,196.3,199.7,196.6,198.7,196.8z M221.3,181.7c0-1.4,0.9-2.6,2-2.6
		c1.1-0.1,2,0.9,2,2.3c0,3.8,0,7.6,0,11.5c-1.4,0.1-2.7,0.2-4.1,0.3C221.3,189.3,221.3,185.5,221.3,181.7z M205.1,195.4
		c0-3.8,0-7.6,0-11.3c0-1.2,0.8-2.2,1.7-2.4c0.9-0.2,1.7,0.6,1.7,1.8c0,3.8,0,7.6,0,11.3C207.4,195,206.3,195.2,205.1,195.4z
		 M208.8,243.3c0-11.1,0-22.4,0-32.1c0-1,0.8-1.4,3.2-1.8c2.5-0.3,3.2-0.1,3.2,0.9c0,9.6,0,20.9,0,32
		C213.1,242.6,210.9,243,208.8,243.3z M212.7,194.2c0-3.9,0-7.7,0-11.6c0-1.2,0.8-2.4,1.8-2.5c1-0.1,1.8,0.8,1.8,2
		c0,3.9,0,7.7,0,11.6C215.1,193.8,213.9,194,212.7,194.2z M220.8,241.7c0-11.3,0-22.9,0-31.9c0-1.1,1-1.5,3.8-1.7
		c2.9-0.2,3.8,0.1,3.8,1.1c0,9,0,20.6,0,31.9C225.8,241.3,223.3,241.5,220.8,241.7z M231.1,181.1c0-1.4,0.9-2.6,2.1-2.6
		c1.2,0,2.1,1.1,2.1,2.5c0,3.8,0,7.6,0,11.4c-1.4,0-2.9,0.1-4.3,0.1C231.1,188.7,231.1,184.9,231.1,181.1z M237.8,240.9
		c-1.4,0-2.8,0-4.1,0.1c0-11.3,0-22.8,0-31.7c0-1.1,1.1-1.5,4.2-1.5c3.3,0,4.2,0.4,4.2,1.5c0,9,0,20.5,0,31.7
		C240.8,240.9,239.3,240.9,237.8,240.9z M245.1,192.5c-1.4-0.1-2.9-0.1-4.3-0.1c0-3.8,0-7.6,0-11.4c0-1.4,0.9-2.6,2.1-2.5
		c1.2,0,2.1,1.2,2.1,2.6C245.1,184.9,245.1,188.7,245.1,192.5z M250.8,181.4c0-1.4,0.9-2.4,2-2.3c1.1,0.1,2,1.3,2,2.6
		c0,3.8,0,7.6,0,11.5c-1.4-0.1-2.7-0.2-4.1-0.3C250.8,189,250.8,185.2,250.8,181.4z M255.1,241.7c-2.5-0.2-5-0.4-7.6-0.6
		c0-11.3,0-22.9,0-31.9c0-1.1,0.9-1.3,3.8-1.1c2.8,0.2,3.8,0.6,3.8,1.7C255.1,218.8,255.1,230.4,255.1,241.7z M259.8,182.1
		c0-1.2,0.8-2.2,1.8-2c1,0.1,1.8,1.3,1.8,2.5c0,3.9,0,7.7,0,11.6c-1.2-0.2-2.5-0.3-3.7-0.5C259.8,189.8,259.8,186,259.8,182.1z
		 M267.1,243.4c-2.1-0.4-4.3-0.7-6.5-1c0-11,0-22.4,0-32c0-1,0.7-1.2,3.2-0.9c2.4,0.3,3.2,0.8,3.2,1.8
		C267.1,220.9,267.1,232.3,267.1,243.4z M271,195.4c-1.1-0.2-2.3-0.4-3.4-0.6c0-3.8,0-7.6,0-11.3c0-1.2,0.8-2,1.7-1.8
		c0.9,0.2,1.7,1.2,1.7,2.4C271,187.9,271,191.7,271,195.4z M277.5,196.8c-1-0.2-2.1-0.5-3.1-0.7c0-3.8,0-7.5,0-11.3
		c0-1.1,0.7-1.8,1.6-1.6c0.9,0.2,1.6,1.2,1.6,2.3C277.5,189.3,277.5,193,277.5,196.8z M283,198.1c-0.9-0.2-1.8-0.5-2.8-0.7
		c0-3.8,0-7.5,0-11.3c0-0.9,0.6-1.6,1.4-1.4c0.8,0.2,1.4,1.1,1.4,2.1C283,190.6,283,194.4,283,198.1z M287.7,199.4
		c-0.8-0.2-1.5-0.4-2.3-0.7c0-3.7,0-7.4,0-11.1c0-0.8,0.5-1.3,1.1-1.1c0.6,0.2,1.1,1,1.1,1.8C287.7,192.1,287.7,195.7,287.7,199.4z"
		/>
</g>
</svg>
