<?xml version="1.0" encoding="utf-8"?>
<!-- Generator: Adobe Illustrator 21.1.0, SVG Export Plug-In . SVG Version: 6.00 Build 0)  -->
<svg version="1.1" id="Layer_1" xmlns="http://www.w3.org/2000/svg" xmlns:xlink="http://www.w3.org/1999/xlink" x="0px" y="0px"
	 viewBox="0 0 304 304" style="enable-background:new 0 0 304 304;" xml:space="preserve">
<style type="text/css">
	.st0{fill:#FFFFFF;}
	.st1{fill:url(#SVGID_1_);}
	.st2{fill:url(#SVGID_2_);}
	.st3{fill:#534F98;}
</style>
<rect class="st0" width="304" height="304"/>
<g>
	<g>
		<path d="M56.7,164.5l-7.8-13.4l0,0H44v13.4h-3.9v-34.1h8.8c6.9,0,11,4.9,11,10.3c0,4.5-2.7,8.5-7.2,9.8l8.6,13.9h-4.5V164.5z
			 M44,147.3h4.7c4.3,0,7.2-2.7,7.2-6.6c0-3.8-2.9-6.5-7.2-6.5H44V147.3z"/>
		<path d="M63.6,147.4c0-9.5,6.9-17.6,17.5-17.6c10.5,0,17.5,8.1,17.5,17.6c0,9.5-7,17.6-17.5,17.6C70.5,165,63.6,156.8,63.6,147.4z
			 M94.7,147.4c0-7.3-5.5-13.8-13.6-13.8s-13.6,6.4-13.6,13.8c0,7.4,5.5,13.8,13.6,13.8S94.7,154.8,94.7,147.4z"/>
		<path d="M102.7,147.4c0-9.5,6.8-17.6,17.4-17.6c3.2,0,5.8,0.7,7.9,1.8v4.3c-2.1-1.4-4.4-2.3-7.9-2.3c-8,0-13.5,6.4-13.5,13.8
			c0,7.4,5.5,13.8,13.5,13.8c3.4,0,5.9-0.9,7.9-2.3v4.3c-2.2,1.1-4.7,1.8-7.9,1.8C109.5,165,102.7,156.8,102.7,147.4z"/>
		<path d="M152.9,164.5l-14-15.8v15.8H135v-34.1h3.9v16.9l13.9-16.9h4.6L143,147.9l14.8,16.6H152.9z"/>
		<path d="M176.7,152.4v12.1h-3.9v-12.1l-11.7-22.1h4.4l9.3,18.1l9.3-18.1h4.4L176.7,152.4z"/>
		<polygon points="69.9,170.7 58.7,196 47.6,170.7 40,205.2 43.9,205.2 48.8,182.9 58.7,205.3 58.7,205.3 58.7,205.3 58.7,205.3 
			58.7,205.3 68.5,182.9 73.5,205.2 77.5,205.2 		"/>
		<path d="M79.7,188.2c0-9.5,6.9-17.6,17.5-17.6c10.5,0,17.5,8.1,17.5,17.6s-7,17.6-17.5,17.6C86.7,205.8,79.7,197.7,79.7,188.2z
			 M110.8,188.2c0-7.3-5.5-13.8-13.6-13.8s-13.6,6.4-13.6,13.8c0,7.3,5.5,13.8,13.6,13.8S110.8,195.5,110.8,188.2z"/>
		<path d="M120.4,194v-22.9h3.8v22.4c0,5.6,3.2,8.5,7.7,8.5c4.5,0,7.7-2.9,7.7-8.5v-22.4h3.9V194c0,7-4.4,11.7-11.5,11.7
			C124.8,205.8,120.4,201.1,120.4,194z"/>
		<path d="M204.1,175h-8.7v30.3h-3.9V175h-8.9v-3.8h21.4V175z"/>
		<path d="M235.3,171.2h3.9v34.1h-3.9V171.2z"/>
		<polygon points="176.7,171.2 172.8,171.2 172.8,195.9 150.5,170.5 150.5,205.2 154.4,205.2 154.4,180.9 176.7,205.8 		"/>
		<polygon points="273.1,171.2 269.2,171.2 269.2,195.9 246.8,170.5 246.7,205.2 250.6,205.2 250.6,180.9 273.1,205.8 		"/>
		<path d="M227.7,205.2h4l-14.9-34.5l-14.9,34.5h4l3.4-7.8h15L227.7,205.2z M210.9,193.6l6-13.7l6,13.7H210.9z"/>
	</g>
	<path d="M54.1,212.7h-14v47.7h9.5v-16.6h4.5c11.3,0,19-6.3,19-15.6C73.2,220.7,66.5,212.7,54.1,212.7z M49.6,221h4.3
		c5.7,0,9.7,3,9.7,7.2c0,4.4-3.7,7.2-9.7,7.2h-4.3C49.6,235.5,49.6,221,49.6,221z"/>
	<path d="M104.1,234.3c2.6-2.3,4-5.4,4-8.8c0-6.4-5.2-12.9-16.5-12.9H75.9v47.7h18.3c11.5,0,17.5-7.1,17.5-14.2
		C111.8,241.1,108.9,236.8,104.1,234.3z M91.1,231.6h-5.7v-10.6h5.7c4.5,0,7.4,2,7.4,5.2C98.5,229.4,95.4,231.6,91.1,231.6z
		 M85.4,239.9h8.3c5,0,8.2,2.4,8.2,6c0,3.7-3.3,6.2-8.2,6.2h-8.3V239.9z"/>
	<path d="M132.6,232.2L132.6,232.2c-4.7-2-8.8-3.6-8.8-7.1c0-2.7,2.5-4.4,6.2-4.4c4.2,0,7.6,3,9,4.2l0.9,0.9l6.3-6.1l-0.8-0.9
		c-1.9-2.1-7.2-6.9-15.5-6.9c-9,0-15.8,5.6-15.9,12.9c0,8.9,7.3,11.9,13.8,14.4c5,2.1,9.3,3.8,9.3,7.9c0,3-2.7,4.9-6.8,4.9
		c-3.8,0-7.7-2.1-10.4-5.6l-0.8-1.1l-6.6,6.4l0.4,0.5c3.7,5.2,10.3,8.3,17.1,8.3c9.9,0,16.8-5.6,16.9-13.5
		C147.2,238.2,139.1,234.9,132.6,232.2z"/>
	<g>
		<g>
			
				<linearGradient id="SVGID_1_" gradientUnits="userSpaceOnUse" x1="68.4153" y1="242.7351" x2="172.7298" y2="182.5092" gradientTransform="matrix(1 0 0 -1 0 304)">
				<stop  offset="0.15" style="stop-color:#659AD2"/>
				<stop  offset="0.2179" style="stop-color:#689BCC"/>
				<stop  offset="0.3288" style="stop-color:#6B9FBF"/>
				<stop  offset="0.4688" style="stop-color:#71A4AC"/>
				<stop  offset="0.6325" style="stop-color:#77AA8E"/>
				<stop  offset="0.8139" style="stop-color:#80B363"/>
				<stop  offset="0.95" style="stop-color:#85BD3C"/>
			</linearGradient>
			<path class="st1" d="M111.7,66.2c-14.6,0.2-28.4,3.2-40.8,8.5L52.1,89.4c11.6-5,24.8-7.9,38.7-8.1c25.9-0.3,49.3,9,66.2,24.1
				c6.5,5.9,16.6,5.3,22.6-1l7.6-8C168.7,77.5,141.7,65.8,111.7,66.2z"/>
			
				<linearGradient id="SVGID_2_" gradientUnits="userSpaceOnUse" x1="50.1082" y1="224.9054" x2="130.9859" y2="178.2106" gradientTransform="matrix(1 0 0 -1 0 304)">
				<stop  offset="0" style="stop-color:#659AD2"/>
				<stop  offset="0.5" style="stop-color:#85BD3C"/>
				<stop  offset="1" style="stop-color:#CBD422"/>
			</linearGradient>
			<path class="st2" d="M84.2,82.3c-4.9,0-9.7,0.5-14.3,1.3C63.7,85,57.7,87,52.1,89.4l-14.7,11.6c9.3-4.3,19.8-6.8,30.9-6.9
				c18.4-0.1,35.2,6.3,47.9,16.8c6.8,5.7,16.8,5.2,22.9-1.3l3.1-3.3C127.8,91.5,107.2,82.2,84.2,82.3z"/>
		</g>
		<path class="st3" d="M151,52.1c-2.8-2.2-6.7-2.2-9.5,0l-4.5,3.6L115.8,39L70.9,74.6c1.8-0.7,3.6-1.4,5.4-2.1
			c14.5-5.9,30.4-9,46.6-9c24.1,0,47.5,6.9,66.9,19.5L151,52.1z"/>
	</g>
	<g>
		<g>
			<circle cx="181.1" cy="236.5" r="24.5"/>
			<path class="st0" d="M195.2,236.7h2.7l-6.1-13.9h-4l6.1,13.9h-2.8v3.7c0,2.3-0.9,3.2-3.9,3.2v7.1h4v-7.1h1.3
				c1.1,0,2.7-0.9,2.8-2.8v-4.1H195.2z M183.4,222.9c0,0-3.6,0-7.4,0c-6.1,0-11.1,4.2-11.1,10.6c0,5.4,3.2,9.1,7.9,9.8v7.4h10v-7.1
				h1.3c1.6-0.2,2.7-1.2,2.7-2.7v-4.1h2.7L183.4,222.9z M181.5,234.7c-1.3,0-2.5-1.1-2.5-2.5c0-1.3,1.1-2.5,2.5-2.5
				c1.3,0,2.5,1.1,2.5,2.5C183.9,233.7,182.8,234.7,181.5,234.7z"/>
		</g>
	</g>
</g>
</svg>
