<?xml version="1.0" encoding="utf-8"?>
<!-- Generator: Adobe Illustrator 21.1.0, SVG Export Plug-In . SVG Version: 6.00 Build 0)  -->
<svg version="1.1" id="Layer_1" xmlns="http://www.w3.org/2000/svg" xmlns:xlink="http://www.w3.org/1999/xlink" x="0px" y="0px"
	 viewBox="0 0 304 304" style="enable-background:new 0 0 304 304;" xml:space="preserve">
<style type="text/css">
	.st0{fill:#29589F;}
	.st1{fill:url(#SVGID_1_);}
	.st2{fill:url(#SVGID_2_);}
	.st3{fill:#939598;}
	.st4{fill:#00B4EB;}
</style>
<g>
	<rect x="-1" y="-1" class="st0" width="306" height="306"/>
	<g>
		<g>
			<g>
				
					<linearGradient id="SVGID_1_" gradientUnits="userSpaceOnUse" x1="152.3034" y1="154.1" x2="152.3034" y2="37.5212" gradientTransform="matrix(1 0 0 1 0 9)">
					<stop  offset="7.350677e-03" style="stop-color:#939598"/>
					<stop  offset="0.9978" style="stop-color:#00B4EB"/>
				</linearGradient>
				<path class="st1" d="M202.7,121.6l-9.6-9.6l9.5-9.5c3.5-3.5,3.5-9.1,0-12.6l-7.6-7.6l0,0l-0.9-0.9c-6.6-6.5-19-18.7-8.1-32.4
					c0.5-0.6,0.4-1.3-0.1-2c-0.5-0.5-1.3-0.6-2-0.2c-11,7.8-17,16.6-17.8,25.9c-1,12.1,6.7,22.5,13.4,29.3l10,10l-37.3,37.3
					L114.9,112l10-10c6.6-6.6,14.3-17.1,13.4-29.3c-0.8-9.4-6.7-18-17.7-25.9c-0.6-0.4-1.3-0.4-2,0.2c-0.5,0.5-0.6,1.3-0.1,2
					c10.8,13.7-1.4,25.8-8.1,32.4l-0.9,0.9l0,0l-7.6,7.6c-3.5,3.5-3.5,9.1,0,12.6l9.5,9.5l-9.6,9.6c-1.6,1.6-2.6,3.9-2.6,6.3
					c0,2.4,0.9,4.5,2.6,6.3l25,25c2.6,2.6,6.1,3.9,9.5,3.9s6.8-1.3,9.5-3.9l6.5-6.5l6.5,6.5c2.6,2.6,6.1,3.9,9.5,3.9
					s6.8-1.3,9.5-3.9l25-25c1.6-1.6,2.6-3.9,2.6-6.3C205.5,125.4,204.5,123.1,202.7,121.6z M181.4,100.1
					c-6.3-6.3-13.6-16.1-12.6-27.2c0.6-7.1,4.6-14,12-20.3c-6,13.3,5.7,24.7,11.6,30.5l1.2,1.2l0,0l7.3,7.3c2.5,2.5,2.5,6.5,0,9
					l-9.5,9.5L181.4,100.1z M103.7,100.6c-2.5-2.5-2.5-6.5,0-9l7.3-7.3l0,0l1.2-1.2c6-5.9,17.5-17.2,11.6-30.5
					c7.3,6.4,11.4,13.1,12,20.3c0.9,11.1-6.4,20.9-12.6,27.2l-10,10L103.7,100.6z M144,157.4c-4.2,4.2-11.1,4.2-15.3,0l-25-25
					c-2.5-2.5-2.5-6.5,0-9l9.6-9.6l37.2,37.2L144,157.4z M200.9,132.3l-25,25c-4.2,4.2-11.1,4.2-15.3,0l-6.4-6.4l37.2-37.2l9.6,9.6
					C203.3,125.8,203.3,129.8,200.9,132.3z"/>
				
					<linearGradient id="SVGID_2_" gradientUnits="userSpaceOnUse" x1="152.45" y1="129.8095" x2="152.45" y2="25.6095" gradientTransform="matrix(1 0 0 1 0 9)">
					<stop  offset="7.350677e-03" style="stop-color:#939598"/>
					<stop  offset="0.9978" style="stop-color:#00B4EB"/>
				</linearGradient>
				<path class="st2" d="M144.9,72.1c0.5,5.8-1,11-2.3,14.8c-3.8,11.4-15.6,24.3-15.7,24.4l-0.9,0.9l26.5,26.5l26.4-26.4l-0.9-0.9
					c-0.1-0.1-12.5-13.5-16.3-24.7c-1.8-4.8-2.5-9.7-2.1-14.5c0.5-5.7,2.6-11.2,6.2-16.4l0.5-0.7l-14.2-20.6l-14,20.6l0.5,0.7
					C142.4,60.9,144.4,66.5,144.9,72.1z M152.2,39l11,16c-3.6,5.4-5.7,11-6.2,16.9c-0.4,5.2,0.3,10.5,2.3,15.7
					c3.5,10.1,13.1,21.4,16,24.7L152.5,135l-22.8-22.8c2.9-3.3,12.1-14.1,15.4-24.4c1.3-4.1,2.9-9.8,2.4-16
					c-0.5-5.9-2.6-11.5-6.1-16.9L152.2,39z"/>
			</g>
			<g>
				<g>
					<path class="st3" d="M54.1,192.7v3.6H40.2v27.3h-3.7v-27.3H22.6v-3.6H54.1z"/>
					<path class="st3" d="M65,192.7h17.4c6.9,0.1,7,0.1,9,0.4c2.3,0.3,3.9,1.4,4.7,3.4c0.6,1.3,0.9,3,0.9,5.5c0,5.7-0.9,7.3-4.5,8.1
						c1.3,0.3,2.1,0.7,2.9,1.5c1.1,1.3,1.3,2.2,1.3,7.4v4.3H93v-3c0-3.9,0-4-0.2-5.3c-0.2-2-1.2-3.2-3-3.5c-1.3-0.2-1.3-0.2-7.2-0.3
						H68.7v11.9H65V192.7z M82.3,208.1h3.4c4.4,0,6.2-0.5,6.9-2.1c0.3-0.7,0.6-2.5,0.6-4c0-2.2-0.5-3.9-1.3-4.5
						c-1.1-0.9-2.8-1.1-9.5-1.1H68.7v11.7L82.3,208.1L82.3,208.1z"/>
					<path class="st3" d="M113,192.7v30.8h-3.7v-30.8H113z"/>
					<path class="st3" d="M129.8,192.7V220h21.9v3.6h-25.6v-30.8h3.6v-0.1H129.8z"/>
					<path class="st3" d="M191.1,195.1c1.2,1.3,1.6,2.8,2,6.2c0.2,1.5,0.3,4.6,0.3,7c0,7.5-0.6,11-2.1,12.9s-4.6,2.5-13.2,2.5
						c-7.4,0-12.1-0.2-14.2-0.7c-2.3-0.6-4-2.5-4.5-4.9c-0.5-2.1-0.6-4.8-0.6-9.9c0-8.2,0.7-11.6,2.7-13.3c1.3-1.2,2.9-1.5,6.6-1.9
						c1.6-0.1,6.5-0.2,8.9-0.2C186.3,192.6,189.3,193.1,191.1,195.1z M163.7,197.9c-1,1-1.3,3.9-1.3,9.8c0,6.8,0.3,9.5,1.2,10.6
						c0.8,0.9,1.9,1.2,4.9,1.3c1.4,0.1,6.2,0.2,7.9,0.2c4,0,7.9-0.2,9.8-0.6c1.5-0.3,2.5-1.3,2.9-3.2c0.3-1.6,0.5-4.9,0.5-7.8
						c0-3.5-0.2-7.1-0.4-8.6c-0.3-1.8-1.3-2.7-3.1-3c-2.1-0.4-4.2-0.5-11.4-0.5C167.8,196.4,164.9,196.8,163.7,197.9z"/>
					<path class="st3" d="M237.1,208c0,6.2-0.1,7.7-0.5,9.5c-1,5.2-3.5,6.2-15.7,6.2c-5.2,0-9.8-0.2-11.9-0.6
						c-2.7-0.5-4.5-2.2-5.2-4.8c-0.5-2.3-0.8-5.8-0.8-10c0-4,0.3-7.7,0.8-10c1-4.5,3.9-5.6,15.5-5.6c3.9,0,9.6,0.3,11.3,0.6
						c2.5,0.4,4.5,1.9,5.4,3.9c0.6,1.3,0.8,2.6,0.8,5.3H233c0-2.7-0.3-3.9-0.9-4.5c-0.8-0.8-1.9-1.1-4.9-1.3c-1.4-0.1-5-0.2-7.1-0.2
						c-7.7,0-10.6,0.4-11.7,1.5c-1,1.1-1.3,3.5-1.3,9.6c0,3.9,0.2,7.6,0.5,9c0.7,3.2,1.9,3.5,15,3.5c6.5,0,8.9-0.4,9.9-1.6
						c0.8-0.9,1-2.2,1-6.7h-14.4V208H237.1L237.1,208z"/>
					<path class="st3" d="M250.5,192.7l13.4,14.7l12.9-14.7h5.2l-16.3,18.2v12.6H262v-12.6l-16.6-18.2H250.5z"/>
				</g>
			</g>
		</g>
		<g>
			<g>
				<g>
					<path class="st4" d="M74.7,239.9v8.7h10.7v-8.7h2.1v19.9h-2.1v-9.2H74.7v9.2h-2.1v-19.9H74.7z"/>
					<path class="st4" d="M106.5,239.9l7.4,19.9h-2.2l-1.8-4.7H99.8l-1.9,4.7h-2.2l7.4-19.9H106.5z M104.7,241.4l-4.2,11.6h8.7
						L104.7,241.4L104.7,241.4z"/>
					<path class="st4" d="M134.7,252.9c0-1.4-0.7-2.5-2.4-2.5h-7.8v9.5h-2.1V240h9.1c3.6,0,5.4,1.9,5.4,5.2c0,2.8-0.9,3.9-2.3,4.2
						c1.2,0.2,2.3,1.2,2.3,3.1v7.4h-2.2V252.9z M131.6,248.5c2.3,0,3.1-0.9,3.1-3.4c0-2.1-0.9-3.1-3.1-3.1h-7.2v6.5H131.6z"/>
					<path class="st4" d="M153.3,257.3l6.4-17.4h2.2l-7.3,19.9h-2.4l-7.3-19.9h2.2L153.3,257.3z"/>
					<path class="st4" d="M183.3,239.9v2h-10.8v6.6h10.3v2h-10.3v7.3h10.8v2h-12.9v-19.9H183.3L183.3,239.9z"/>
					<path class="st4" d="M198.4,239.9h3.1c5.4,0,6.5,2.1,6.5,5.7h-2.1c-0.1-2.9-1.2-3.6-3.9-3.6h-3.9c-3,0-3.7,1.2-3.7,3.1v0.6
						c0,1.6,0.7,2.7,3.4,2.8l3.9,0.1c4.8,0.2,6.5,2.2,6.5,5.2v1c0,3.5-1.9,5.2-6.5,5.2h-3.2c-3.9,0-6-1.5-6-5v-0.6h2.1v0.5
						c0,2.4,1.3,3.1,3.9,3.1h3.2c3.7,0,4.3-1.2,4.3-3.7c0-2.4-1-3.4-3.9-3.5l-4.1-0.1c-3.6-0.1-5.6-1.3-5.6-4.6V245
						C192.3,241.9,194,239.9,198.4,239.9z"/>
					<path class="st4" d="M232,242h-7.1v17.9h-2.1V242h-7.1v-2h16.5L232,242L232,242L232,242z"/>
				</g>
			</g>
		</g>
	</g>
</g>
</svg>
