<svg id="Layer_1" data-name="Layer 1" xmlns="http://www.w3.org/2000/svg" viewBox="0 0 410 300"><defs><style>.cls-1{fill:#134772;}.cls-2{opacity:0.5;}.cls-3{fill:none;stroke:#fff;stroke-miterlimit:10;stroke-width:1.28px;}.cls-4{fill:#a2a88f;}</style></defs><title>identities</title><path class="cls-1" d="M204.21,81.33c1.95,3.49-6.57,13.31-28.48,16.63-6.7,1-16.09,10.53-18.85,13.36,0,0,3.66,1.74,4.61,4.58.39,1.17,4,4.31,2.79,4.06-3.08-.64-4.57.3-5.67.37-4.82.28-8.85,5.81-16.4,5.86-3.66,0-13-3.15-14.48-2.12-3.83,2.69-8.41-.41-12.75-3.6s2.2-2,2.2-2,11.14,1.18,12.86-2.6-17.26-19-20.56-21.21S82.08,81.35,76.82,73.13c-7.59-11.86,1,2.93,39,14.14,8.69,2.57,9.55,3.05,28.88,21.92.81.79,3.42-.27,4.46-.71,8.24-3.44,17.38-12.79,31.79-16.26S203.76,80.52,204.21,81.33Z"/><g class="cls-2"><line class="cls-3" x1="57.65" y1="72.35" x2="169.43" y2="3.41"/><line class="cls-3" x1="59.34" y1="75.09" x2="171.12" y2="6.15"/><line class="cls-3" x1="61.03" y1="77.83" x2="172.81" y2="8.89"/><line class="cls-3" x1="62.72" y1="80.57" x2="174.5" y2="11.63"/><line class="cls-3" x1="64.41" y1="83.31" x2="176.18" y2="14.36"/><line class="cls-3" x1="66.1" y1="86.04" x2="177.87" y2="17.1"/><line class="cls-3" x1="67.79" y1="88.78" x2="179.56" y2="19.84"/><line class="cls-3" x1="69.47" y1="91.52" x2="181.25" y2="22.58"/><line class="cls-3" x1="71.16" y1="94.26" x2="182.94" y2="25.32"/><line class="cls-3" x1="72.85" y1="97" x2="184.63" y2="28.05"/><line class="cls-3" x1="74.54" y1="99.73" x2="186.32" y2="30.79"/><line class="cls-3" x1="76.23" y1="102.47" x2="188" y2="33.53"/><line class="cls-3" x1="77.92" y1="105.21" x2="189.69" y2="36.27"/><line class="cls-3" x1="79.61" y1="107.95" x2="191.38" y2="39"/><line class="cls-3" x1="81.29" y1="110.68" x2="193.07" y2="41.74"/><line class="cls-3" x1="82.98" y1="113.42" x2="194.76" y2="44.48"/><line class="cls-3" x1="84.67" y1="116.16" x2="196.45" y2="47.22"/><line class="cls-3" x1="86.36" y1="118.9" x2="198.14" y2="49.96"/><line class="cls-3" x1="88.05" y1="121.64" x2="199.83" y2="52.69"/><line class="cls-3" x1="89.74" y1="124.37" x2="201.51" y2="55.43"/><line class="cls-3" x1="91.43" y1="127.11" x2="203.2" y2="58.17"/><line class="cls-3" x1="93.11" y1="129.85" x2="204.89" y2="60.91"/><line class="cls-3" x1="94.8" y1="132.59" x2="206.58" y2="63.65"/><line class="cls-3" x1="96.49" y1="135.32" x2="208.27" y2="66.38"/><line class="cls-3" x1="98.18" y1="138.06" x2="209.96" y2="69.12"/><line class="cls-3" x1="99.99" y1="140.74" x2="211.77" y2="71.8"/><line class="cls-3" x1="101.68" y1="143.48" x2="213.46" y2="74.54"/><line class="cls-3" x1="103.37" y1="146.22" x2="215.14" y2="77.28"/><line class="cls-3" x1="105.06" y1="148.96" x2="216.83" y2="80.02"/><line class="cls-3" x1="106.75" y1="151.7" x2="218.52" y2="82.75"/><line class="cls-3" x1="108.43" y1="154.43" x2="220.21" y2="85.49"/><line class="cls-3" x1="110.12" y1="157.17" x2="221.9" y2="88.23"/><line class="cls-3" x1="111.81" y1="159.91" x2="223.59" y2="90.97"/><line class="cls-3" x1="113.5" y1="162.65" x2="225.28" y2="93.71"/><line class="cls-3" x1="115.19" y1="165.39" x2="226.96" y2="96.44"/><line class="cls-3" x1="116.88" y1="168.12" x2="228.65" y2="99.18"/><line class="cls-3" x1="118.57" y1="170.86" x2="230.34" y2="101.92"/><line class="cls-3" x1="120.25" y1="173.6" x2="232.03" y2="104.66"/><line class="cls-3" x1="121.94" y1="176.34" x2="233.72" y2="107.39"/><line class="cls-3" x1="123.63" y1="179.07" x2="235.41" y2="110.13"/></g><path class="cls-1" d="M74.2,149.65H86.71c7.31,0,11.72,4.33,11.72,10.58v.09c0,7.09-5.51,10.76-12.38,10.76H80.94v9.18H74.2Zm12.07,15.44c3.37,0,5.34-2,5.34-4.64v-.09c0-3-2.1-4.64-5.47-4.64h-5.2v9.36Z"/><path class="cls-1" d="M109.4,149.65h6.74v30.62H109.4Z"/><path class="cls-1" d="M129.47,149.65h6.21L150,168.5V149.65h6.65v30.62h-5.73L136.12,160.8v19.46h-6.65Z"/><path class="cls-1" d="M167.6,175.8l4-4.77c2.76,2.27,5.64,3.72,9.14,3.72,2.76,0,4.42-1.09,4.42-2.89v-.09c0-1.71-1.05-2.58-6.17-3.89-6.17-1.57-10.15-3.28-10.15-9.36v-.09c0-5.55,4.46-9.23,10.72-9.23a17.73,17.73,0,0,1,11.37,3.89l-3.5,5.07c-2.71-1.88-5.38-3-8-3s-3.94,1.18-3.94,2.67v.09c0,2,1.31,2.67,6.6,4,6.21,1.62,9.71,3.85,9.71,9.19v.09c0,6.08-4.64,9.49-11.24,9.49A19.49,19.49,0,0,1,167.6,175.8Z"/><path class="cls-1" d="M209.84,155.86h-9.32v-6.21h25.37v6.21h-9.32v24.41h-6.73Z"/><path class="cls-1" d="M236.73,149.65h14c3.89,0,6.91,1.09,8.92,3.1a9.61,9.61,0,0,1,2.63,7v.09a9.51,9.51,0,0,1-6.56,9.49l7.48,10.94h-7.87l-6.56-9.8h-5.29v9.8h-6.74Zm13.56,14.87c3.28,0,5.16-1.75,5.16-4.33v-.09c0-2.89-2-4.37-5.29-4.37h-6.69v8.79Z"/><path class="cls-1" d="M274.33,149.65h6.74v30.62h-6.74Z"/><path class="cls-1" d="M294.4,149.65h12.51c7.31,0,11.72,4.33,11.72,10.58v.09c0,7.09-5.51,10.76-12.38,10.76h-5.12v9.18H294.4Zm12.07,15.44c3.37,0,5.34-2,5.34-4.64v-.09c0-3-2.1-4.64-5.47-4.64h-5.21v9.36Z"/><path class="cls-1" d="M329.3,149.65h23.09v6H336v6.21h14.43v6H336v6.43h16.62v6H329.3Z"/><path class="cls-4" d="M144.34,197.73v0a8.37,8.37,0,0,1,8.58-8.51,8.5,8.5,0,0,1,6.49,2.54l-2.3,2.66a6.08,6.08,0,0,0-4.21-1.86,4.88,4.88,0,0,0-4.77,5.13v0a4.89,4.89,0,0,0,4.77,5.17,5.93,5.93,0,0,0,4.33-1.93l2.3,2.33a8.42,8.42,0,0,1-6.75,2.94A8.31,8.31,0,0,1,144.34,197.73Z"/><path class="cls-4" d="M184.64,189.33H188L195,205.91h-3.79l-1.51-3.69h-7l-1.5,3.69h-3.69Zm3.81,9.69-2.19-5.34L184.07,199Z"/><path class="cls-4" d="M215.09,189.45h6.73c3.93,0,6.3,2.33,6.3,5.69v0c0,3.81-3,5.78-6.65,5.78h-2.75v4.94h-3.62Zm6.49,8.3c1.81,0,2.87-1.08,2.87-2.49v0c0-1.62-1.13-2.49-2.94-2.49h-2.8v5Z"/><path class="cls-4" d="M248.95,189.45h3.62v16.46h-3.62Z"/><path class="cls-4" d="M278.5,192.79h-5v-3.34h13.64v3.34h-5v13.12H278.5Z"/><path class="cls-4" d="M311.42,189.33h3.34l7.05,16.58H318l-1.51-3.69h-7l-1.51,3.69h-3.69Zm3.81,9.69L313,193.69,310.86,199Z"/><path class="cls-4" d="M342.34,189.45H346v13.17h8.21v3.29H342.34Z"/></svg>