<svg id="Layer_1" data-name="Layer 1" xmlns="http://www.w3.org/2000/svg" xmlns:xlink="http://www.w3.org/1999/xlink" viewBox="0 0 410 300"><defs><style>.cls-1{fill:url(#linear-gradient);}.cls-2{fill:url(#linear-gradient-2);}.cls-3{fill:#77787b;}.cls-4{fill:#00b4eb;}</style><linearGradient id="linear-gradient" x1="204.96" y1="157.27" x2="204.96" y2="36.17" gradientUnits="userSpaceOnUse"><stop offset="0.01" stop-color="#808184"/><stop offset="1" stop-color="#00b4eb"/></linearGradient><linearGradient id="linear-gradient-2" x1="205.22" y1="131.91" x2="205.22" y2="23.54" xlink:href="#linear-gradient"/></defs><title>identities</title><path class="cls-1" d="M257.47,114.06l-10-10,9.87-9.87a9.24,9.24,0,0,0,0-13.06l-8-8h0l-.94-.93c-6.89-6.77-19.72-19.37-8.46-33.59a1.56,1.56,0,0,0-2.13-2.23c-11.45,8.11-17.67,17.16-18.49,26.9-1.06,12.53,7,23.42,13.9,30.35l10.39,10.39L205,142.81l-38.72-38.72L176.63,93.7c6.93-6.93,15-17.81,13.9-30.35-.82-9.74-7-18.78-18.49-26.89a1.56,1.56,0,0,0-2.13,2.24c11.25,14.21-1.58,26.81-8.47,33.58l-.94.93h0l-8,8a9.24,9.24,0,0,0,0,13.06l9.87,9.87-10,10a9.23,9.23,0,0,0,0,13.05l26.08,26.08a14,14,0,0,0,19.73,0l6.7-6.7,6.7,6.7a14,14,0,0,0,19.73,0l26.08-26.08a9.23,9.23,0,0,0,0-13.05ZM235.21,91.79c-6.52-6.52-14.09-16.71-13.12-28.21.63-7.43,4.8-14.5,12.43-21.07-6.15,13.81,5.91,25.65,12.07,31.71l1.22,1.2h0l7.66,7.66a6.54,6.54,0,0,1,0,9.23l-9.87,9.87Zm-80.74.52a6.54,6.54,0,0,1,0-9.23l7.66-7.66h0l1.22-1.2c6.16-6.05,18.22-17.9,12.07-31.7,7.62,6.57,11.8,13.64,12.43,21.07,1,11.5-6.6,21.69-13.12,28.21l-10.39,10.39Zm41.89,59a11.27,11.27,0,0,1-15.91,0L154.37,125.2a6.54,6.54,0,0,1,0-9.23l10-10L203,144.65Zm59.2-26.08-26.08,26.08a11.27,11.27,0,0,1-15.91,0l-6.63-6.63L245.59,106l10,10A6.54,6.54,0,0,1,255.56,125.2Z"/><path class="cls-2" d="M197.31,62.71c.5,5.93-1,11.39-2.32,15.49-3.88,11.88-16.17,25.19-16.3,25.32l-.89,1,27.42,27.42,27.42-27.42-.89-1c-.13-.14-13-14-16.94-25.71A33.56,33.56,0,0,1,219,45.73l.53-.77L204.89,23.54,190.4,45l.53.76A34.69,34.69,0,0,1,197.31,62.71Zm7.6-34.37L216.29,45a37,37,0,0,0-6.34,17.53,37.49,37.49,0,0,0,2.32,16.25c3.58,10.48,13.59,22.25,16.63,25.67l-23.68,23.68L181.54,104.4c3-3.35,12.52-14.68,16-25.36,1.42-4.34,3-10.15,2.45-16.56A37.09,37.09,0,0,0,193.67,45Z"/><path class="cls-3" d="M102.9,188.08v3.75H88.51v28.29H84.66V191.82H70.18v-3.75Z"/><path class="cls-3" d="M114.35,188.08h18c7.26.1,7.3.1,9.29.38a6.17,6.17,0,0,1,5,3.55,13.5,13.5,0,0,1,.91,5.71c0,5.91-1,7.59-4.75,8.45a4.74,4.74,0,0,1,2.94,1.63c1.12,1.3,1.3,2.26,1.3,7.73v4.56h-3.85V217a31.38,31.38,0,0,0-.17-5.43c-.22-2.06-1.25-3.26-3.07-3.55-1.34-.24-1.34-.24-7.56-.29H118.2v12.34h-3.85Zm18,15.94h3.46c4.62,0,6.4-.53,7.17-2.16a12.36,12.36,0,0,0,.61-4.18c0-2.26-.52-4-1.38-4.71-1.17-1-2.9-1.15-9.85-1.15H118.2V204Z"/><path class="cls-3" d="M164.22,188.08v32h-3.85v-32Z"/><path class="cls-3" d="M181.68,188.08v28.29h22.73v3.75H177.84v-32Z"/><path class="cls-3" d="M245.3,190.58c1.21,1.3,1.73,2.93,2,6.34.17,1.63.3,4.85.3,7.3,0,7.88-.61,11.48-2.2,13.4s-4.88,2.59-13.7,2.59c-7.69,0-12.62-.24-14.78-.77a6.56,6.56,0,0,1-4.71-5.19c-.47-2.11-.65-5.09-.65-10.28,0-8.6.69-12,2.81-13.83,1.47-1.2,2.94-1.63,6.87-1.92,1.73-.1,6.7-.24,9.2-.24C240.33,188,243.44,188.51,245.3,190.58ZM217,193.41c-1,1.06-1.47,4.08-1.47,10.23,0,7.11.3,9.89,1.21,11,.78.91,1.95,1.25,5.14,1.49,1.56.1,6.4.24,8.25.24a64.19,64.19,0,0,0,10.16-.62c1.68-.34,2.59-1.34,2.94-3.27a66.5,66.5,0,0,0,.47-8.16,70.16,70.16,0,0,0-.43-8.88A3.43,3.43,0,0,0,240,192.3c-2.2-.38-4.41-.48-11.8-.48C221.06,191.82,218.12,192.26,217,193.41Z"/><path class="cls-3" d="M293.23,203.88c0,6.34-.13,8-.47,9.89-1.08,5.38-3.59,6.39-16.25,6.39a91.81,91.81,0,0,1-12.4-.63,6.31,6.31,0,0,1-5.32-5,52.42,52.42,0,0,1-.82-10.37,49.8,49.8,0,0,1,.86-10.37c1.08-4.71,4-5.76,16-5.76a113.89,113.89,0,0,1,11.76.58,7.05,7.05,0,0,1,5.57,4.13c.61,1.44.78,2.64.82,5.43h-3.93c0-2.79-.3-4-1-4.71s-1.94-1.15-5.19-1.34c-1.56-.14-5.23-.24-7.39-.24-8.08,0-11.06.38-12.23,1.63s-1.43,3.6-1.43,10a67.68,67.68,0,0,0,.47,9.22c.74,3.31,2,3.6,15.65,3.6,6.74,0,9.16-.43,10.29-1.73.78-.91,1-2.31,1.08-7h-15v-3.75Z"/><path class="cls-3" d="M307.11,188.08,321,203.45l13.44-15.37h5.36L322.92,207v13.11h-3.85V207l-17.2-18.92Z"/><path class="cls-4" d="M124.66,237.3v9h11.12v-9h2.15V258h-2.15v-9.62H124.66V258h-2.18V237.3Z"/><path class="cls-4" d="M157.63,237.3,165.4,258h-2.24l-1.85-5H150.63l-1.85,5h-2.3l7.74-20.74Zm-1.73,1.52-4.42,12.07h9L156,238.83Z"/><path class="cls-4" d="M186.95,250.72a2.25,2.25,0,0,0-2.51-2.54h-8.19V258H174.1V237.3h9.44c3.68,0,5.56,1.94,5.56,5.38,0,2.87-.93,4-2.33,4.39a2.92,2.92,0,0,1,2.33,3.2V258h-2.15Zm-3.17-4.63c2.39,0,3.17-1,3.17-3.47,0-2.18-.93-3.23-3.17-3.23h-7.53v6.69Z"/><path class="cls-4" d="M206.43,255.44,213,237.3h2.27L207.69,258h-2.51l-7.59-20.74h2.27Z"/><path class="cls-4" d="M237.66,237.3v2.09H226.46v6.87h10.7v2.09h-10.7V256h11.21V258H224.31V237.3Z"/><path class="cls-4" d="M253.26,237.3h3.23c5.59,0,6.72,2.15,6.72,5.86h-2.15c-.06-3-1.29-3.71-4-3.71h-4c-3,0-3.86,1.29-3.86,3.2v.66c0,1.79.72,2.78,3.47,2.87l4.06.12c5.08.18,6.66,2.27,6.66,5.35v1c0,3.62-2,5.38-6.66,5.38h-3.35c-4,0-6.16-1.64-6.16-5.29v-.6h2.15v.54c0,2.45,1.34,3.2,4,3.2h3.35c3.86,0,4.51-1.29,4.51-3.77s-1.08-3.53-4-3.65l-4.36-.15c-3.68-.12-5.77-1.46-5.77-4.87v-.93C247,239.27,248.75,237.3,253.26,237.3Z"/><path class="cls-4" d="M288.26,239.39h-7.44V258h-2.15V239.39H271.2V237.3h17.07Z"/></svg>