<svg id="Layer_1" data-name="Layer 1" xmlns="http://www.w3.org/2000/svg" viewBox="0 0 410 300"><defs><style>.cls-1{fill:#6c1b78;}</style></defs><title>identities</title><path class="cls-1" d="M122.13,134.85c.39,2-3.83,4.15-5.16,4.85l-1.17,1-1.18.62h-.47l-.47.4c0-.08-.15-.16-.23-.16a1.25,1.25,0,0,1-1,.47h-.08a6.33,6.33,0,0,1-1.49,1l-1.17.7a3.59,3.59,0,0,1-1.41.47l-.55.32-2,.47-.24.15c-.08.08-.23.24-.31.08s.23-.39.39-.47c.86-.63,1.8-1.18,2.66-1.72.55-.32,1.17-1,1.88-1a8.68,8.68,0,0,1,2.58-1.64c.08,0,.08,0,.08-.08.46-.71,1.48-.94,2.11-1.41s1.09-.86,1.64-1.25a11.28,11.28,0,0,0,3.36-3.29c.16-.23.23-.55.39-.86v-.09h-.16c-.62.63-1.56.71-2.34,1.1l-.7.63a40.4,40.4,0,0,0-4.62,2.9c-.08,0-.31.15-.31.31a19.89,19.89,0,0,0-3.37,2.5c-.31.39-1.33.63-1.33,1.33H107v.63h-.32v.07c-.16.24-.39.63-.7.7-.07.08-.16.08-.16,0-.16.32-.31.32-.55.47l-.54.94h-.08l.24.62a4.48,4.48,0,0,0-1.18.86h-.08v.39c-.71.08-.71.7-1,1.25l-.86.94-.78,1.17-.63.78c-.08.08-.39.63-.15.63h.08l.23-.63c.16.47-.86,2.27-1.09,2.74s0,1.09-.15,1.64l-.16.47c-.39.86,1,1.1,1.65.94.39-.15,3.2-1.56,3.2-1.88l.08.08h.23a7.7,7.7,0,0,1,1.8-1.33,32.11,32.11,0,0,0,2.5-2,102.73,102.73,0,0,0,8.37-8.14c.78-.78.86-.16.47.47a27.82,27.82,0,0,1-3.13,3.44C113.14,148.63,112,150,111,151a34.43,34.43,0,0,1-5.55,5.17,13.74,13.74,0,0,1-2.66,1.64,5.2,5.2,0,0,1-3.76-.08,4.6,4.6,0,0,1-2.42-4c0-1.25.85-2.19,1.4-3.21,1.33-2.35,2-4.54,4-6.57.47-.47,3.21-3.6,3.68-3.6a1.85,1.85,0,0,1,.55-.55,31.41,31.41,0,0,0,2.27-2.35c.24.24.24-.7.63-.7l.55-.08.16-.62a4.28,4.28,0,0,1,1.33-1.33l2.11-1.49,2.58-1.88c.24-.16-.07-.31.24-.47.78-.08.62-.08.62-.16a7.54,7.54,0,0,1,1.88-.39c1.17.08,3.52,2.51,3.6,3.68Zm3.43-5.9a1.88,1.88,0,0,1-.15-.15s0,0-.07,0,.06-.09,0-.13-.11-.1-.17-.2-.07,0-.11.07a1.84,1.84,0,0,1-.11-.36l-.1-.05-.21-.52-.43-.8s0-.09,0-.14h0s-.11,0-.13-.06a4.57,4.57,0,0,1-1-1.47,15,15,0,0,1-2.56,1.08s-.13,0-.16,0h0l-.13.12L119,127l-.75.4-.13,0s-.34.23-.48.3,0-.09,0-.09-.29.1-.33.14-.06.09-.1.13,0,0,0,0-.3.1-.32.1-.06.08-.08.08.18-.29.32-.37.06-.08.1-.12a3.27,3.27,0,0,1,.57-.34c.32-.18.66-.42,1-.56l.14-.07s1.27-.84,1.28-.7l.11-.08a34.28,34.28,0,0,1,4-2.67c.39.49.56,3.17.56,3.17l0,.09h0c.13-.12.31.92.38.88l.05.09a6.71,6.71,0,0,1,.27.69,2.39,2.39,0,0,1,.16.42s-.06.09,0,.13-.07.48-.1.39S125.58,129,125.56,129Zm-7.41,14.35c-.08,0-.16-.15-.16-.31s.07-.32.16-.32.7-.39.7-.15S118.22,143.31,118.15,143.31Z"/><path class="cls-1" d="M134.66,132.43l-.39.63a5.18,5.18,0,0,0-.56.78l-.62,1.1-.71,1.25-.08.16h.08c.16,0,.87-.32,1.1-.32s.86.16,1.1.16h.23c.16,0,.94-.23,1.18-.23s.62.16.94.16a19.85,19.85,0,0,1,2.19.16c.08,0,.16.15.31.15l2,.08a.59.59,0,0,0,.39-.15.46.46,0,0,0,.08.31,2.89,2.89,0,0,1,.86-.23s.15.16.08.23a14.12,14.12,0,0,1-2.11.55c-.16,0-.16-.16-.32-.16s-.78.23-1.1.23a.3.3,0,0,0-.07.23c-.16,0-.24-.23-.47-.23s-.71.16-1.1.23a.6.6,0,0,0-.08.39c-.55,0-1.72-.07-1.72-.07l-.47.15a2.2,2.2,0,0,0-.47.31c-.16,0-.31-.16-.47-.16a16.23,16.23,0,0,0-2,.47c-.16.08-.39.31-.63.31h-1.33c-.47.7-.24.63-.7,1.33-.31.47-.55,1-.86,1.49-.86,1.8-.39,1.87-1.64,3.6a12.76,12.76,0,0,0-1.1,2.82c-.55,1.17-.55,1.8-1.09,2.82.16.39-.23.47-.39.71v.62c0,.23-.54,1.41-.78,2.5.55,1.72-1,2.19-.78,3.83.08.47-.16,3,.86,3.92.86.78,3.13-.55,3.59-.87l.47-.23c0,.08.08.08,0,.08-.16.15-.78.94-.71,1.09-.08,0-.31-.07-.23,0l-.63.55c-.86.24-3.75,1-5-1.33-.24-.39-.08-.39-.31-.78-.4-.55-.32,0-.55-.62-.31-.86.47-3,.39-3.68-.08-1.33.86-3,1.09-4.15a25.68,25.68,0,0,1,2.19-5.95,26.2,26.2,0,0,0,1.64-3.68l1.64-3.05c.16-.23.08-.08-.15-.08s-.39.55-.62.55h-.16c-.23-.08-1.8-.15-2-.24a3.79,3.79,0,0,1-.54-1.56l.16-2.19c.15.08.15.23.39.23s2.58-.39,2.74-.39,1.33.08,1.72.08a11,11,0,0,1,1.33-1.33c.16-.16.63-1.41.78-1.41a14.24,14.24,0,0,1,1.41-1.88c1.41-1.64,2.19-3.68,3.76-5.16.39-.39,2.58-3.68,2.89-3.68.32-.87-.24-.6,0-.93a7.2,7.2,0,0,1,.5-.6c.1-.11.17-.44.28-.56.26-.28.39-.35.67-.62s.43-.76.66-1,.61-.46.92-.8c1.88-2,4.93-.31,4.46.08C141.78,122.65,136.92,128.29,134.66,132.43Z"/><path class="cls-1" d="M158.19,134.85c.39,2-3.83,4.15-5.16,4.85l-1.17,1-1.17.62h-.47l-.47.4c0-.08-.15-.16-.24-.16a1.25,1.25,0,0,1-1,.47h-.08a6.43,6.43,0,0,1-1.49,1l-1.18.7a3.6,3.6,0,0,1-1.41.47l-.54.32-2,.47-.23.15c-.08.08-.23.24-.31.08s.23-.39.39-.47c.86-.63,1.8-1.18,2.65-1.72.55-.32,1.17-1,1.88-1a8.66,8.66,0,0,1,2.58-1.64c.08,0,.08,0,.08-.08.47-.71,1.48-.94,2.11-1.41s1.1-.86,1.65-1.25a11.22,11.22,0,0,0,3.36-3.29c.15-.23.23-.55.39-.86v-.09h-.16c-.63.63-1.57.71-2.35,1.1l-.7.63a40.8,40.8,0,0,0-4.62,2.9c-.07,0-.31.15-.31.31a19.94,19.94,0,0,0-3.36,2.5c-.32.39-1.33.63-1.33,1.33H143v.63h-.31v.07c-.16.24-.39.63-.71.7-.08.08-.15.08-.15,0-.15.32-.31.32-.54.47l-.55.94h-.08l.23.62a4.53,4.53,0,0,0-1.17.86h-.08v.39c-.71.08-.71.7-1,1.25l-.86.94-.78,1.17-.63.78c-.08.08-.39.63-.16.63h.08l.23-.63c.16.47-.86,2.27-1.09,2.74s0,1.09-.16,1.64l-.15.47c-.39.86,1,1.1,1.64.94.39-.15,3.21-1.56,3.21-1.88l.08.08h.23a7.66,7.66,0,0,1,1.8-1.33c.86-.63,1.72-1.33,2.5-2a102.57,102.57,0,0,0,8.37-8.14c.78-.78.86-.16.47.47a28.08,28.08,0,0,1-3.13,3.44c-1.09,1.17-2.19,2.5-3.2,3.59a34.75,34.75,0,0,1-5.56,5.17,13.65,13.65,0,0,1-2.66,1.64,5.18,5.18,0,0,1-3.75-.08,3.65,3.65,0,0,1-1.88-1.88,3.69,3.69,0,0,1-.55-2.11c0-1.25.86-2.19,1.41-3.21,1.33-2.35,2-4.54,4-6.57.47-.47,3.21-3.6,3.68-3.6a1.82,1.82,0,0,1,.55-.55,31.14,31.14,0,0,0,2.27-2.35c.23.24.23-.7.63-.7l.54-.08.16-.62a4.34,4.34,0,0,1,1.33-1.33l2.11-1.49,2.58-1.88c.23-.16-.08-.31.23-.47.78-.08.63-.08.63-.16a7.5,7.5,0,0,1,1.88-.39c1.18.08,3.52,2.51,3.6,3.68Zm-4,8.45c-.07,0-.15-.15-.15-.31s.08-.32.15-.32.71-.39.71-.15A2.26,2.26,0,0,1,154.2,143.31Z"/><path class="cls-1" d="M228.74,106.23l-.39-.32a7.75,7.75,0,0,0-2-.94c-1.65-.39-3.45.39-5.09.78a9.16,9.16,0,0,1-1.41.32l-1.25.78-.23-.08c-.24.32-1.88.55-1.72.86-.08,0-.31,0-.31-.08a28,28,0,0,1-2.74,2.42,17.24,17.24,0,0,1-3,1.1c-.47.94-2.27,1.49-3.13,2.27-2.89,2.42-5.71,4.93-8.45,7.59-.39.39-.71.86-1.1,1.33a53.3,53.3,0,0,0-7.74,11.42l-.31.63-.08.54-.86,1.33-.39.94-.78,1L186.34,141c-.32.55-.63,1-.94,1.57a23.56,23.56,0,0,0-1.1,2.43l-.63.86L183.2,147l-.47.55-.23.94c-.24.55-.47,1-.71,1.56-2.27,5.24.94,3.6.31,4.69-.78,1.41-2.27,3.29-3.05,4.7l-.31.31c-.08.55-1.25,2.74-2,2.82-.55.07-3.6-1.1-3.37-1.8l.31-.16a30.06,30.06,0,0,1,2.51-4.54c0-.39.7-1.33.55-1.72a8.81,8.81,0,0,0,1.49-2.66c.86-1.65,1.64-3.37,2.58-5,1.09-2,2-4.38,1.73-5.47-.71.94-3.37,4.15-3.37,4.15-.94,1.25-2.35,2.66-3.29,3.91a34.86,34.86,0,0,1-5.08,5.63,14.52,14.52,0,0,1-2.5,1.8c-1,.62-2.35,1.56-3.45,1.09a4.13,4.13,0,0,1-2-1.88,5.62,5.62,0,0,1-.55-2.11,8,8,0,0,1,1.25-3.29,32.25,32.25,0,0,1,4.93-6.49c.39-.55,2.58-3.13,3-3.13-.08-.39,5.87-5.16,7.91-7.27.86-.7,1.25-1.1,2.11-1.72a13.79,13.79,0,0,1,2.74-1.49,8.52,8.52,0,0,1,4.46,2.35c1.09-1.64,2-3.75,3.29-5.24,1.64-1.88,1.41-2.12,2.89-4.46.55-.71,1.17-1.41,1.72-2.19a33.93,33.93,0,0,1,3.91-4.85c.39-.47,1.41-1.72,1.88-1.87L205,113c.39-.31-.24-.7.16-1,.7-.55,1.32-1,2-1.49a6.36,6.36,0,0,1,1.72-1.09,13.56,13.56,0,0,1,2.74-1.65l2.5-1.56a6.08,6.08,0,0,0,1.25-.47l1.72-.32.23-.08c.32-.46,3.05-.94,3.69-.94l.7-.08c.31-.16.62,0,.94-.08a16.45,16.45,0,0,1,2.81.16l1.25.24c.39.31,2.12.94,2.27,1.33ZM187,133.61c0-.16-.78-.16-.94-.16-.62.63-1.56.71-2.35,1.1l-.78.63c-.86.47-9.62,6.1-9.62,7h-.47v.63h-.31v.07c-.23.24-.39.63-.7.7-.08.08-.16.08-.16,0h-.08c-.08.32-.31.32-.47.47l-.62.94h-.08l.31.62a3.86,3.86,0,0,0-1.25.86v.39c-.79.08-.79.7-1.09,1.25l-.86.94-.47,1.25-.55.79c-.08.08-.39.55-.24.55v.08c.24,0-.15.47-.55.39-.31.71-2,4.07.47,3.68,1-.07,2.66-2,3.36-2a5.16,5.16,0,0,1,1.72-1.49c.7-.7,1.56-1.49,2.26-2.19,2.11-2.19,4.62-4.69,6.73-7,.55-.78,1.1-1.64,1.57-2.43.86-1.25,2.89-2.43,3.91-4-.08-.39.94-1.33,1.26-1.88C187.11,134.47,186.8,133.84,187,133.61Z"/><path class="cls-1" d="M211.19,134.85c.38,2-3.84,4.15-5.17,4.85l-1.17,1-1.17.62h-.47l-.47.4c0-.08-.15-.16-.23-.16a1.26,1.26,0,0,1-1,.47h-.08a6.38,6.38,0,0,1-1.48,1l-1.17.7a3.64,3.64,0,0,1-1.41.47l-.55.32-2,.47-.23.15c-.08.08-.24.24-.31.08s.23-.39.39-.47c.86-.63,1.8-1.18,2.66-1.72.55-.32,1.17-1,1.88-1a8.65,8.65,0,0,1,2.58-1.64c.08,0,.08,0,.08-.08.47-.71,1.49-.94,2.12-1.41s1.09-.86,1.64-1.25a11.19,11.19,0,0,0,3.36-3.29,9.33,9.33,0,0,0,.39-.86v-.09h-.15c-.63.63-1.57.71-2.35,1.1l-.7.63a40.26,40.26,0,0,0-4.61,2.9c-.08,0-.32.15-.32.31a20.06,20.06,0,0,0-3.36,2.5c-.31.39-1.33.63-1.33,1.33H196v.63h-.32v.07c-.15.24-.39.63-.7.7-.08.08-.16.08-.16,0-.15.32-.31.32-.54.47l-.55.94h-.08l.23.62a4.49,4.49,0,0,0-1.17.86h-.08v.39c-.7.08-.7.7-1,1.25l-.86.94-.78,1.17-.63.78c-.08.08-.39.63-.15.63h.08l.24-.63c.16.47-.86,2.27-1.1,2.74s0,1.09-.15,1.64l-.16.47c-.39.86,1,1.1,1.64.94.39-.15,3.21-1.56,3.21-1.88l.08.08h.23a7,7,0,0,1,2.07-1.29,31.41,31.41,0,0,0,2.71-1.76,103.61,103.61,0,0,0,9.18-7.21c.86-.69.87-.07.41.51a27.21,27.21,0,0,1-3.47,3.1c-1.21,1.05-2.44,2.26-3.57,3.24a34.73,34.73,0,0,1-6.06,4.55,25.66,25.66,0,0,1-2.67,1.67,5.2,5.2,0,0,1-3.76-.08,3.66,3.66,0,0,1-1.88-1.88,3.72,3.72,0,0,1-.55-2.11c0-1.25.86-2.19,1.41-3.21,1.33-2.35,2-4.54,4-6.57.47-.47,3.21-3.6,3.68-3.6a1.81,1.81,0,0,1,.55-.55,31.68,31.68,0,0,0,2.27-2.35c.24.24.24-.7.63-.7l.55-.08.15-.62a4.31,4.31,0,0,1,1.33-1.33l2.11-1.49,2.58-1.88c.23-.16-.08-.31.23-.47.79-.08.62-.08.62-.16a7.54,7.54,0,0,1,1.88-.39c1.17.08,3.52,2.51,3.6,3.68Zm-2.69,9.82c-.08,0-.13-.17-.12-.32s.11-.31.19-.3.74-.32.72-.08A2.27,2.27,0,0,1,208.5,144.68Z"/><path class="cls-1" d="M226.35,131.24c-1.35.24-1.08.41-1.82.65a4.38,4.38,0,0,1-.81.53h-.07a.44.44,0,0,1-.34.23l-.2.29a26.22,26.22,0,0,1-2.89,2.22L218.05,137c-.33.29-1.21.93-1.35,1.28-.27,1.11,2.36,4,3.11,4.91a13.42,13.42,0,0,1,1.68,2.57l.55,1.69a8.65,8.65,0,0,1-.07,2.63,4.69,4.69,0,0,1-.13.93c-.27.35-.41-.4-.81.29s.54.18.07.82c-.2.24-1.75,1.69-1.75,2l-.21-.06v.29c-.54.05-.47.53-.87.82s-.74.23-.95.53l-.13.41H217l.06.17H217v.06a1.37,1.37,0,0,0-.94.7c0,.06,0,.11-.07.11l-.47-.11V157h-.06c-.07.53-1.76,1.17-1.76,1.28l.07.24a10.21,10.21,0,0,0-2.56.87c-.94.41-3.37.88-4.31.3a3.92,3.92,0,0,1-1.42-1.23l-.4-.93a3.88,3.88,0,0,1-.67-1.69c.13-2.57,2-4.5,3.64-6.43a25.35,25.35,0,0,1,5.19-4.85,7.84,7.84,0,0,1,2.09-1.11l.54-.23.13.12a11.72,11.72,0,0,1-1.82,1.11l-.34.35-.74.41a7.19,7.19,0,0,1-.75.65,14.54,14.54,0,0,0-1.75,1.75,3.07,3.07,0,0,0-.47.52,19.83,19.83,0,0,0-1.69,2.39,8.2,8.2,0,0,0-.94,1.63,22.43,22.43,0,0,0-.81,2.16V155c-.13,1.11-.81,4.38,1.28,4.38a2.79,2.79,0,0,1,1.21-.23l1.28-.47c.74-.53,1.48-1,2.23-1.52a27.38,27.38,0,0,0,4.71-4.67c1.48-1.81,3.17-3.63,3.17-6a1.86,1.86,0,0,0-.47-1.46c-.27-.23-1.35-1.75-1.69-2-.67-.35-1.14-1.28-2-2.69-.27-.35-.68-1.28-.88-1.58a1.67,1.67,0,0,0-.47.47l-.47.35a21.34,21.34,0,0,0-1.82,1.63c-1,.93-2.22,1.81-3.3,2.74-.21.23-1.08.88-1.62,1.4-.2.18-.47-.35-.27-.58a12.61,12.61,0,0,1,1.15-1.17,30.32,30.32,0,0,0,2.63-2.27c.74-.7,1.55-1.35,2.36-2a6.19,6.19,0,0,0,1.62-2.16c-.27-.82-.34-2.16,1.21-3.68a23.52,23.52,0,0,1,4.92-3.62,12.92,12.92,0,0,1,3-1.05c.33-.06.2.23.54.18s.54-.24.81-.18c.68.11,1.48,1.17,1.68,1.69.07.17.75,1,.54,1.11C228,131.54,227.76,132.12,226.35,131.24Zm-5.12,1.23c-.34.23-.61.47-.95.7a11,11,0,0,0-1.55,1.34l-1.21.93c-.48.36-.48.71-.88,1.11,0,.06-.06.82.07.82v-.06h.07a26.78,26.78,0,0,1,3.77-3.21c.41-.36,1-.71,1.21-1.17h.07l.4-.41C222.77,131.42,222,132,221.22,132.47Z"/><path class="cls-1" d="M293.72,114.67a11.22,11.22,0,0,0-2.43,3.21c.16,1.18-7.35,8.37-8.05,9.15a30,30,0,0,0-2.74,2.82h-.08l-.47.62c-.16.78-4.54,3.36-4.54,4.15-.54.23-5.94,4.93-6.41,4.93l-2.34,4.15c.23.54-.78,1.64-1.25,1.64,0,.08,0,.31-.08.31-.32.23-.32.47-.32.86h-.08l-.16.07.16.39-.47.08c-.08.47-.94,1.88-1.41,1.88V149H263c.62.54,0,.24-.24.24v.07c.24.47.16.94-.39.94,0,.08-.08.16.08.16l.08.08v.08c-.47.15-.54.39-.54.86h-.16l-.63,1.49c-.23.78.55.16.24.86-.54,1.25-.39,1.33-.08,1.8.78.63,4.62-1.33,5.56-2.27,2-2,4.15-3.91,6.18-5.87.78-.79,1.57-1.49,2.35-2.27.16-.08,1.33-1.25,1.73-1.48.23-.08.78.15.62.31-.47.39-2.35,2.11-2.5,2.27-1.25,1.25-1.57,2-2.81,3.21-1,.86-1.8,1.88-2.74,2.73-.62.63-1.64,1.8-2.27,2.43-1,.86-1.64,1.25-2.66,2.19a14.79,14.79,0,0,1-1.48.86c-.55.55-2.9-.55-3.68-.94a3.31,3.31,0,0,1-1.72-3.52c.08-.24.16-.39.23-.63.39-.86.71-2,1.17-2.74,2.11-3.76,1.64-3.68,4.23-7.2.07-.08.94-1.8,1-1.8l.55-.86c.7-.55,2.27-3.44,3.45-4.77-.78.55,1.92-3.77,2.4-4.32,2.89-3.44,7.69-11.95,19-23.92a19.22,19.22,0,0,0,3-2.26c1.33-.47,2.74.08,3.21,2.11.16.86,1.56,2.27.94,3A41.19,41.19,0,0,0,293.72,114.67ZM274.4,131.34c-1.41,1.64-3.21,4.85-2,4.07,5.16-3.05,12.6-11.89,14.71-14.47a10.17,10.17,0,0,1,1.64-3c.54-.7,1.09-2,1.8-3,2-2.66,2.58-5.79.07-3.29C288.72,113,276.75,128.6,274.4,131.34Zm3.68,12c-.08,0-.16-.16-.16-.31s.08-.32.16-.32.71-.39.71-.15S278.15,143.38,278.08,143.38Z"/><path class="cls-1" d="M301.68,134.85c.39,2-3.83,4.15-5.16,4.85l-1.17,1-1.17.62h-.47l-.47.4c0-.08-.15-.16-.23-.16a1.26,1.26,0,0,1-1,.47h-.08a6.29,6.29,0,0,1-1.49,1l-1.17.7a3.6,3.6,0,0,1-1.41.47l-.55.32-2,.47-.24.15c-.08.08-.23.24-.31.08s.23-.39.39-.47c.86-.63,1.8-1.18,2.66-1.72.55-.32,1.17-1,1.88-1a8.67,8.67,0,0,1,2.58-1.64c.08,0,.08,0,.08-.08.47-.71,1.48-.94,2.11-1.41s1.09-.86,1.64-1.25a11.31,11.31,0,0,0,3.37-3.29c.15-.23.23-.55.39-.86v-.09h-.16c-.63.63-1.57.71-2.35,1.1l-.7.63a41,41,0,0,0-4.62,2.9c-.07,0-.31.15-.31.31a20,20,0,0,0-3.36,2.5c-.32.39-1.33.63-1.33,1.33h-.55v.63h-.31v.07c-.16.24-.39.63-.7.7-.08.08-.15.08-.15,0-.16.32-.31.32-.55.47l-.55.94h-.08l.23.62a4.54,4.54,0,0,0-1.17.86h-.08v.39c-.7.08-.7.7-1,1.25l-.86.94-.78,1.17-.62.78c-.08.08-.39.63-.15.63h.07L280,151c.15.47-.86,2.27-1.09,2.74s0,1.09-.16,1.64l-.15.47c-.39.86,1,1.1,1.64.94.39-.15,3.21-1.56,3.21-1.88l.07.08h.24a7.76,7.76,0,0,1,1.8-1.33,31.37,31.37,0,0,0,2.5-2,103,103,0,0,0,8.38-8.14c.78-.78.85-.16.47.47a28.09,28.09,0,0,1-3.13,3.44c-1.1,1.17-2.19,2.5-3.2,3.59a34.62,34.62,0,0,1-5.56,5.17,13.47,13.47,0,0,1-2.66,1.64,5.19,5.19,0,0,1-3.75-.08,3.66,3.66,0,0,1-1.88-1.88,3.7,3.7,0,0,1-.54-2.11c0-1.25.86-2.19,1.41-3.21,1.33-2.35,2-4.54,4-6.57.47-.47,3.21-3.6,3.68-3.6a1.81,1.81,0,0,1,.55-.55,32.31,32.31,0,0,0,2.27-2.35c.23.24.23-.7.63-.7l.54-.08.16-.62a4.31,4.31,0,0,1,1.33-1.33l2.12-1.49,2.58-1.88c.24-.16-.08-.31.24-.47.78-.08.62-.08.62-.16a7.57,7.57,0,0,1,1.88-.39c1.17.08,3.52,2.51,3.6,3.68Zm-4,8.45c-.08,0-.15-.15-.15-.31s.08-.32.15-.32.71-.39.71-.15A2.29,2.29,0,0,1,297.69,143.31Z"/><path class="cls-1" d="M318.72,137.45c-.32.31-3.88,5.15-4.62,5.46a20.71,20.71,0,0,1-2,3.05c-.24-.24-1.1,1.72-1.33,2.19-.47,1.17-1.1,1.8-1.57,2.82.16.39-.24.47-.39.71a1.7,1.7,0,0,1,.08.62,25.58,25.58,0,0,0-.7,2.5c.62,1.72-.94,2.19-.62,3.83.07.47-.08,3,1.09,3.92.79.78,3-.55,3.52-.87l.4-.23c.08.08.08.08,0,.08-.08.15-.71.94-.63,1.09-.08,0-.31-.07-.23,0l-.62.55c-.78.24-3.28.39-4.06-.55-.32-.39-.08-.39-.4-.78-.38-.55-.31.08-.54-.62a30,30,0,0,1-.32-4.46,13.92,13.92,0,0,1,.39-3.68,19.59,19.59,0,0,1,2-5.95,11.42,11.42,0,0,0,1-3c-2.66,3.83-6.57,9.7-8.53,11.34-1.72,1.41-3.67,2.19-4.92.32-.94-1.33-.55-2.43.23-3.53.08-.08-.55-.86,0-1.33.39-.55,1-1.72,1.41-2.27a20.4,20.4,0,0,0,1.17-1.72c.23-.31,1.1-1.87,1.33-2.27,1.1-1.49,2.66-3.91,3.29-4.85,0,0,3.54-5.3,4.48-6.47.48-.55.94-1.33,1.41-1.88a4.18,4.18,0,0,1,.55-.7l.5,0c.63,0,2,1,1.42,1.77-.1.15-2.1,2.69-2.33,2.85a.24.24,0,0,0-.16.08c-2.66,3.13-2.11,1.41-2.58,3.29a14.34,14.34,0,0,0-1.72,2l-.38.62-.55.63-.23.78a5.64,5.64,0,0,1-.55.94c-.47.54-.94,1.09-1.4,1.72a3.69,3.69,0,0,0-.55,1.48c-.15.16-.46,1.17-.62,1.17,0,.86-.86,1.8-1.33,2.43-.23.39-1.33,2.89-1.17,3.91.39,0,.16.94.62.78a11.59,11.59,0,0,0,2.82-2.11c3.83-3.52,5.94-8.68,9.31-12.21.62-.62,5.06-7.14,6.62-5.78.4.34,2.37,1.73,1.91,2A2,2,0,0,0,318.72,137.45Z"/><path class="cls-1" d="M333.57,129.09l-1.17,1.41-.63.47c-.31.31,1-1.19.67-.88a13,13,0,0,1-1,1,.64.64,0,0,1-.47.31c-.39.79-2.58,1.88-2.58,2.66-.16.16-.71,1.33,0,1.33v-.08h.07a3.82,3.82,0,0,0,1.26-.47h.23c.31-.31.71-.31,1-.47s.63-.39,1-.55a3.1,3.1,0,0,1,3.68,1.88l.08.16a.44.44,0,0,1-.23.39l-1,.54-.62.47-.47.16-1.1,1-.07.08c-.08,0-.24.08-.24.15-.16.24-.31.55-.63.47h-.08v.39c-.16.16-.32.47-.55.47-.07,0-.23,0-.23.08h-.08l.08.24a1.88,1.88,0,0,0-.87.47,4.11,4.11,0,0,0-.54.86c-.31.47-1.33,1.33-1.41,1.72,0,.08,0,.08-.08.08v.08l-.55.31c-.07.71-2.11,2.35-2.11,2.74l.08.24h-.08a6,6,0,0,0-1.57,2.19h-.08s-.47-.08-.94,1.17a7,7,0,0,0-1.57,2.19c0,.08,0,.08-.08.08-.55.78-1.25,2.58-.78,2.58.86-.55,2-1.39,2.87-2,1.6-1.36,3.35-2.63,5-4a36.62,36.62,0,0,1,3.65-3.31c.58-.42,1-.78,1.6-1.28.85-.79-.22.85-.56,1.13-.77.72-1.63,1.75-2.15,2.26-1,.86-1.81,2-2.82,2.83a15,15,0,0,1-1.26,1,22.28,22.28,0,0,0-2.24,2.49c-.26.29-1.06,1.07-1.06,1.39l-.08.09-.86,1.16c-.47.55-.62.16-.94.71l-.39.39a5.08,5.08,0,0,1-2.58,2.35c-.16,0-.71.08-.71.24-.7-.24-1.88-.47-2.19-1.41a1.65,1.65,0,0,1-.07-.86,6.16,6.16,0,0,1,.86-1.8,52.82,52.82,0,0,1,3.52-5.09c.86-1.17,1.64-2.42,2.51-3.52,0,0,.15-.24,1.48-1.8h-.08c0-.08,0-.31.08-.31a.76.76,0,0,0,.23-.62c.31-.16.86-1.26,1.1-1.26l-.16-.23a12.2,12.2,0,0,0,1.72-2.58c1.09-1.41,2.19-2.82,3.21-4.3l.07-.15h-.07c-.86.55-1.72.08-2.43-.47l-.55-.31c-.55.63-1.25,1.17-1.8,1.88-1.48,1.64-2.89,3.36-4.38,5-.62.62-1.17,1.25-1.72,1.8-.7.7-1.57.39-.39-.78s2.35-2.19,3.37-3.36c.86-1,1.64-2,2.42-3.05a11.75,11.75,0,0,0,1.88-2.5c.08-.23-.24-.55-.24-.86a6,6,0,0,1,.47-2c1.1-2.19,1.22-2.1,2.94-4a12.67,12.67,0,0,1,2.12-2l1-.7.78-.39c.7.15,2.5,1.25,2.35,2.11C335.38,127.36,334,128.62,333.57,129.09Zm.07,15.07c-.16,0-.22-.18-.21-.33s.11-.3.19-.3.73-.33.71-.1A2.15,2.15,0,0,1,333.64,144.16Z"/><path class="cls-1" d="M353.15,130c-1.55.26-1.22.45-2.07.71a4.6,4.6,0,0,1-.9.58h-.08a.47.47,0,0,1-.37.25l-.22.32c-.51.71-2.48,1.81-3.22,2.45l-2.38,2.07c-.37.32-1.35,1-1.48,1.42-.24,1.22,3,4.39,3.92,5.42a16.13,16.13,0,0,1,2.11,2.84l.74,1.87a9,9,0,0,1,.09,2.91,4.63,4.63,0,0,1-.09,1c-.29.39-.49-.45-.92.32s.64.19.13.9c-.22.26-1.92,1.87-1.9,2.2l-.24-.06v.32c-.62.07-.51.58-1,.9s-.85.26-1.06.58l-.13.45h-.24l.09.19h-.08v.07c-.39.07-1,.46-1.05.78,0,.07,0,.13-.07.13l-.56-.13v-.07h-.08c0,.58-2,1.29-2,1.42l.09.26a11.49,11.49,0,0,0-2.92,1c-1.07.45-3.85,1-5,.32a4.74,4.74,0,0,1-1.72-1.36l-.53-1a4.41,4.41,0,0,1-.89-1.88c0-2.84,2-5,3.81-7.1a26.61,26.61,0,0,1,5.71-5.36,8.67,8.67,0,0,1,2.35-1.23l.61-.26.16.13a12.24,12.24,0,0,1-2,1.22l-.37.39-.84.45a7,7,0,0,1-.82.71,15.24,15.24,0,0,0-1.92,1.94,3.05,3.05,0,0,0-.52.58,20.4,20.4,0,0,0-1.8,2.65,8.46,8.46,0,0,0-1,1.81,21.35,21.35,0,0,0-.8,2.39l0,.71c-.09,1.23-.66,4.84,1.77,4.84a3.28,3.28,0,0,1,1.39-.26l1.46-.52c.82-.58,1.66-1.1,2.48-1.67a28.17,28.17,0,0,0,5.18-5.17c1.6-2,3.44-4,3.29-6.65a2.13,2.13,0,0,0-.64-1.61c-.33-.26-1.68-1.94-2.09-2.26-.8-.39-1.41-1.42-2.52-3-.33-.39-.86-1.42-1.11-1.74a1.71,1.71,0,0,0-.52.52l-.52.38a24,24,0,0,0-2,1.81c-1.12,1-2.47,2-3.66,3-.22.26-1.45,1.36-2,1.94-.22.19-1.93,1.23-1.71,1s2.82-3.15,3-3.3c1.21-1.42,1.79-1.48,2.82-2.51.82-.78,1.71-1.49,2.61-2.19a6.36,6.36,0,0,0,1.75-2.39c-.37-.9-.54-2.39,1.16-4.06a25.34,25.34,0,0,1,5.48-4,15.12,15.12,0,0,1,3.38-1.16c.39-.06.25.26.64.19s.61-.25.93-.19a3.91,3.91,0,0,1,2.06,1.87c.09.2.92,1.1.7,1.23C355,130.35,354.85,131,353.15,130Zm-5.86,1.45c-.37.27-.67.53-1,.79a11.36,11.36,0,0,0-1.71,1.52l-1.34,1.05c-.53.4-.51.79-.95,1.26,0,.07,0,.93.13.93V137h.08a28.24,28.24,0,0,1,4.17-3.64c.45-.39,1.13-.79,1.33-1.32H348l.44-.46C349,130.29,348.2,131,347.29,131.48Z"/><path class="cls-1" d="M365.68,129.79c.16-.26.48-1.89.69-1.95a10.11,10.11,0,0,1,.53-1.14,13.32,13.32,0,0,0,.77-1.3c.13.08,0-.34.2-.38l.23-.09v-.3a2.1,2.1,0,0,1,.46-.74l.79-.9c.32-.37,1.66-1.11,2-1.49.09-.1-.07-.14.06-.24.34-.12.28-.1.26-.14a3.51,3.51,0,0,1,.8-.38c.53-.09,1.56-1,1.72-.46l-.67,2.45c.39.83-1.27,2.28-1.79,2.74l-.42.58-.46.41-.21,0-.16.23a.13.13,0,0,0-.13,0c-.08.13-.22.31-.41.32h0a3,3,0,0,1-.56.62l-.45.44c-.14.18-.36.23-.58.36l-.21.2-.83.42-.09.09s-.08.13-.13.08.06-.2.12-.26c.32-.37.68-.72,1-1.06s.42-.59.74-.66a4,4,0,0,1,1-1s0,0,0,0c.14-.37.57-.58.8-.86s.4-.51.61-.74a5.25,5.25,0,0,0,1.15-1.84,3.46,3.46,0,0,0,.08-.43v0h-.07c-.21.35-.62.49-.94.75l-.25.36a18.78,18.78,0,0,0-1.76,1.8.2.2,0,0,0-.11.17,9.11,9.11,0,0,0-1.23,1.49c-.1.21-.53.42-.46.74l-.24.06.07.28-.13,0v0c0,.12-.11.32-.24.39s-.06.05-.07,0c0,.16-.1.18-.2.27l-.14.48h0l.17.25a2.17,2.17,0,0,0-.43.51h0l0,.18c-.31.11-.13-.25-.22,0l-.29.52"/><path class="cls-1" d="M357.37,135c.29,0,1.78-.28,1.91-.12a10.71,10.71,0,0,1,1.18,0,12.94,12.94,0,0,0,1.4.17c0,.14.3-.1.4,0l.17.16.26-.1a1.86,1.86,0,0,1,.8.11l1.07.34,1.32.39c.12,0,.09-.11.22,0,.24.24.19.19.22.17a3.29,3.29,0,0,1,.63.53c.29.41,4.35,2.36-.28,2.14l-.29.17c-.55.63-2.42-.24-3-.51l-.66-.14-.53-.24-.13-.16-.26-.06s0-.09,0-.12a.58.58,0,0,1-.43-.23l0,0a2.7,2.7,0,0,1-.74-.25l-.55-.22c-.21,0-.34-.21-.54-.35l-.25-.11-.68-.53-.12,0c-.05,0-.14,0-.11-.08s.2,0,.26,0c.44.13.88.31,1.3.46.25.11.65.14.85.38a3.92,3.92,0,0,1,1.25.45s0,0,0,0c.36,0,.71.27,1,.36l.86.23a5,5,0,0,0,2,.3c.12,0,.25-.07.4-.09l0,0,0-.06c-.38-.05-.65-.35-1-.51l-.4-.07a17.28,17.28,0,0,0-2.21-.82.17.17,0,0,0-.18,0,9.2,9.2,0,0,0-1.75-.5c-.21,0-.57-.29-.8-.11l-.15-.18-.21.16-.09-.1,0,0a.69.69,0,0,1-.42-.06c-.05,0-.07,0,0-.05-.15,0-.19,0-.31-.07l-.46.05,0,0-.15.24a2.07,2.07,0,0,0-.61-.18l0,0-.14.1c-.21-.22.15-.2-.12-.17l-.54-.06"/><path class="cls-1" d="M364.15,134.57c-.05-.38,0-1.29,0-1.6a1.45,1.45,0,0,0-.52.22l-.48.13a17.83,17.83,0,0,0-1.95.72c-1.09.42-2.31.73-3.45,1.12-.24.13,1.33-.32.74-.07-.21.08-.2-.45,0-.57a8.24,8.24,0,0,1,1.61-.87c.81-.32,1.63-.57,2.46-.82a5.6,5.6,0,0,0,2-1.22A3.48,3.48,0,0,1,367,129a19.12,19.12,0,0,1,4.94-1.29,9.61,9.61,0,0,1,2.54.15c.27.07,0,.26.31.33s.48,0,.65.13a2.74,2.74,0,0,1,.53,2c0,.16.14,1.07-.05,1.09,0,0-.37.41-1-.8-1.06-.27-.94,0-1.56-.09a3.4,3.4,0,0,1-.78.15l-.05,0a.34.34,0,0,1-.33.07l-.26.17a21.3,21.3,0,0,1-2.95.83l-2.28.8a5.46,5.46,0,0,0-1.47.59m5.54-3.25c-.33.08-.62.18-1,.25a9,9,0,0,0-1.63.58l-1.24.35c-.48.13-.62.42-1.06.61,0,.05-.38.65-.28.69l0,0,0,0a22.06,22.06,0,0,1,4-1.35,3.6,3.6,0,0,0,1.32-.55l.05,0,.45-.2C372.21,129.51,371.45,129.74,370.69,129.84Z"/><path class="cls-1" d="M339.78,144.32a15.71,15.71,0,0,0,2.39-1.65c.43-.27.92-.54,1.35-.84,1.05-.74,1.83-1.23,3-1.91a8.85,8.85,0,0,1,1.39-.79l1.73-.63c.28-.14-.14-.2.15-.35l1.45-.71a8.59,8.59,0,0,1,1.22-.56,19.84,19.84,0,0,1,1.93-.88l1.75-.85a7.66,7.66,0,0,0,.88-.33l1.2-.37.16-.06a17.15,17.15,0,0,1,2.57-.91l.49-.15c.22-.1.44-.11.66-.2.72-.18,1.32-.35,2-.48l.89-.17a16,16,0,0,1,1.66-.06l-.16.15-.29,0a10.56,10.56,0,0,0-1.42.11,23.23,23.23,0,0,0-3.57,1.21c-.33.13-.66.24-1,.34l-.87.46h-.17c-.17.14-1.32.48-1.2.56-.06,0-.22,0-.22,0-.77.44-1,.38-1.83.81-.44.22-1.62.65-2.17.83a16.84,16.84,0,0,1-2.39,1.33c-2.1,1.12-3.8,1.88-5.86,3-.3.16-.91.81-1.21,1-.89.49-1.79,1-2.69,1.44l-.66.43Z"/><path class="cls-1" d="M100.48,119.39l.6,0,0-.53.54-.11,0-.8a5.26,5.26,0,0,0,1.36-2.07l.34,0c.07-.13,0-.4,0-.53a1.91,1.91,0,0,0,.85-1.09,4.07,4.07,0,0,0,1-1.29c0-.4.36-.65.45-1l1.1-2.15v-.07a12.51,12.51,0,0,0,1.43-3.26c.3-.89.64-.92.67-1.58a.06.06,0,0,1,.07-.06l.2-.06a6.3,6.3,0,0,1,2.09.83c.24.14.78.22,1,.43s.17.6.29.86a2.4,2.4,0,0,1,.29,1.29c-.06,1.13-.23,1-.61,2.07l-1.68,3c-.55.44-4,6.54-4.63,6.38"/><path class="cls-1" d="M86.16,137.92c-.3,0-.52.53-.82.51a16.07,16.07,0,0,0-1.9-.11,7.6,7.6,0,0,1-.79-.28,4.75,4.75,0,0,1-.72-1.6l.21-2.18c.2.09.19.25.49.26s3.22-.22,3.52-.2l1.19.11,1.52.18c.37,0,1.1,0,1.1,0l1-.23,1.5,0,1.21,0c.3,0,1.19.23,1.49.24h.2c.2,0,1.32-.16,1.51-.16s.89.21,1.29.23c.8,0,2,.18,2.79.31.1,0,.19.17.39.18l2.59.22a.32.32,0,0,1,.59.19,4.21,4.21,0,0,1,1.11-.18.65.65,0,0,1,.09.24,19.39,19.39,0,0,1-2.73.4c-.2,0-.19-.17-.39-.18a14.09,14.09,0,0,1-1.41.16.26.26,0,0,0-.11.23c-.2,0-.29-.25-.49-.26s-.91.11-1.51.16c-.1.07-.11.23-.12.38-.7,0-2.2-.2-2.2-.2l-.61.13a1.34,1.34,0,0,0-.51.28c-.2,0-.39-.18-.69-.2s-1.82.22-2.42.34a2.35,2.35,0,0,1-.82.27l-.84,0-.79,0-1.34.4h-.68c-.24,0-.7-.06-.83.05a.52.52,0,0,1-.43.21C86.48,137.91,86.16,137.92,86.16,137.92Z"/><path class="cls-1" d="M112.12,108c-.23.23-.37-.11-.6.21l-1.1,1.09c-.15.08-1.64,2.19-1.64,2.19-.71.7-4.78,7.27-5.95,9-.94,1.49-1.41.94-3,4.85l-.15.62c-.23.32-.7.55-.78.86l-.16.54-.63,1.41-.08.16-.47.27L97,130.71l-.55.81c-.39.71-.78,1.41-1.17,2s-.7,1-1,1.56a23.87,23.87,0,0,0-1.33,2.43l-.7.86-.54,1.17-.47.55-.31.94c-.31.54-.55,1-.86,1.56a17,17,0,0,1-2.11,2.82,45.29,45.29,0,0,1-3.52,4.77,39.28,39.28,0,0,1-3.76,4.22c-.47.39-2.58,2.82-2.9,2.82,0,.07-3.28,3.6-3.52,3.83-.63.62-1.33,1.17-2,1.8a41.29,41.29,0,0,1-5.48,4.3c-.47.31-1.56,1.33-2.19,1.33l-1.41.86c-.55.24-1.1.39-1.57.63a21.35,21.35,0,0,1-2.34.86,5.18,5.18,0,0,1-2,.55,11.83,11.83,0,0,1-3.05.78l-2.89.78a7.37,7.37,0,0,0-1.41.16L48,172.83h-.31c-.39.39-3.45-.08-4.15-.31l-.78-.16h.08a4.24,4.24,0,0,1-1.1-.24,13.78,13.78,0,0,1-3.05-1.18,11,11,0,0,1-1.41-.62c-.39-.55-2.19-1.8-2.34-2.27l.23-.23.39.47A23.89,23.89,0,0,0,37.66,170c1.8.93,3.83.78,5.71.86.47,0,1,.15,1.49.15l1.49-.31.31.15c.23-.32,2,0,1.88-.32a.6.6,0,0,1,.39.16,35.27,35.27,0,0,1,4.38-1.1A5.07,5.07,0,0,1,55.5,169c.63-.86,2.66-.86,3.68-1.33,3.83-1.88,7-2.74,10.56-5.25.94-.71,2.74-2.19,3.68-3,1.41-1.57,3.21-2.19,4.07-4.07.62-.86,1.33-1.57,1.88-2.35,2-2.58,4.54-4.69,6.34-7.74.94-1.64,3.52-5.16,4.62-6.8,1.25-2.11,2.35-4.07,3.36-5.95H93.6l1-2.19.64-.81.09-.65h.08a10.75,10.75,0,0,0,.82-1.12,1.72,1.72,0,0,1,.47-.32,21.73,21.73,0,0,1,1.49-2.58c1-1.57,2-3.91,3.13-5.4.32-.39,1.49-3.21,1.72-3.29.24-.39.54-.7.79-1.1.62-.94,1.17-2,1.8-2.89,1.1-1.8,1.49-3.21,2.66-4.69.31-.31,1.63-1.78,1.86-2.09"/><path class="cls-1" d="M109,114.3c-.24.19-.52.52-.79.78s.23.64-.18,1a13.19,13.19,0,0,0-.87,1.92c-.74.56-3.62,6.38-5,7.84-1.11,1.27-.4.74-2.57,4.26l-.26.58c-.27.26-.71.41-.84.7l-.25.5-.83,1.25-.1.14-.45.17-.85,1.35-.64.69c-.48.61-1,1.22-1.42,1.76s-.81.86-1.19,1.33a26.67,26.67,0,0,0-1.64,2.12l-.77.71-.71,1-.51.45-.47.86c-.38.47-.68.89-1.06,1.36a17,17,0,0,1-2.37,2.35,45.21,45.21,0,0,1-4,4l2.19-4.56c1.14-1.43,4.06-4.38,5.32-5.78,1.5-1.83,2.85-3.53,4.11-5.17h-.07l1.27-2,.71-.67.22-.61h.07a10.11,10.11,0,0,0,.92-.94,1.4,1.4,0,0,1,.46-.22,22.93,22.93,0,0,1,1.8-2.24c1.19-1.34,1.51-3.54,2.81-4.77.34-.32,1-2.94,1.18-3,.28-.34.61-.59.89-.92.73-.8.43-1.78,1.16-2.58,1.31-1.55,1-2.94,2.27-4.17.33-.24,1.35-2.53,1.62-2.79"/><polyline class="cls-1" points="105.98 114.35 101.25 120.81 94.93 133.87 97.66 131.42 104.55 119.95 108.42 112.92"/><path class="cls-1" d="M106.42,115h-.07a.78.78,0,0,1-.42.14c-.92,0-1.65-.9-2.43-1.08v.07a.54.54,0,0,1,.23.53l-1.14-.38.07-.27.21.07V114l-.72-.25-.2.4c-.21-.13-.36-.26-.57-.39a9,9,0,0,1-2.34-.42.55.55,0,0,1-.35.14c-.57,0-1.07-.64-1.57-.77a1.11,1.11,0,0,1-.77.41l.13-.54-.28-.06L96,113a.56.56,0,0,0-.36-.12l-.43-.26-.21.14h-.57l.07-.4h-.07l-.07.07a2.7,2.7,0,0,1-1.06.22c-.57,0-1.14-.11-1.78-.17l-.07-.33a.64.64,0,0,1-.5,0l-.07-.07-.14.33a8.87,8.87,0,0,0-1.92-.09c-1.13,0-2.34-.42-3.4-.4a12,12,0,0,1-1.56-.17,1.26,1.26,0,0,1-.63.21,6.18,6.18,0,0,1-1.07-.11l-.07.27h-.21c-.43-.06-2.9.12-3,.46a8.92,8.92,0,0,1-1.34,0c-.76.88-5.58.84-5.71,1.51-9.94,1.91-21,10.24-20.79,20.55,0,1.13.44,2.18.35,2.77,0,.07,0,.16-.07,0-.19-.34.17-.75-.24-.89l.11.4a6.21,6.21,0,0,1-.67-2.8c-.09-4.86,2.44-10.07,5.84-13.6a33,33,0,0,1,3.49-2.66c.21-.14,2.38-1.51,2.45-1.65,1.55-.56,6.1-3.38,8-3.21h.14c.69-1.07,10.58-2.53,12.21-2.36l.07-.07a2.08,2.08,0,0,1,1.56,0,2.37,2.37,0,0,1,1-.22,8.64,8.64,0,0,1,1.28.11,5.42,5.42,0,0,1,2.05.16.65.65,0,0,1,.49-.21,2.79,2.79,0,0,1,1,.25c.07-.14.28-.14.42-.14a7.08,7.08,0,0,1,1.63.3l.14-.27a33.06,33.06,0,0,0,6.32.82c.21,0,1.49.17,1.5.44,0,.07.14-.07.28-.07.36.13,1.85.23,1.78.43.07,0,.28-.07.43-.07a13.87,13.87,0,0,1,2.85.68v-.07l.21-.13a9.66,9.66,0,0,0,2.42.55c.14,0,.28-.07.28-.21l.29.06.3.24,1.21.09,4.95.73.43-.06a2.42,2.42,0,0,0,1.06.31l.14-.34.28.06v.27l.43-.21c.15.34.5.26.78.25h.21l.08.33c.07-.07.07-.07.14,0l.06-.34c.28.06.43.32.72.38,0,0,.07-.06.07,0a.3.3,0,0,1,.21-.07c.36,0,.43.33.79.38l.07.07.07-.13.21-.34a11.31,11.31,0,0,0,1.49.31l-.07.34h.07a1.2,1.2,0,0,1,.5-.08,13.94,13.94,0,0,1,2.2.43c.71.05.57.39.86.45V116a2.69,2.69,0,0,1,1-.21,23.07,23.07,0,0,1,4.33.58c.28-.2.78,0,1.13,0,3-.06,8.27-.82,10.71-2.46.49-.34.84-1,1.47-1-1.06,4.08-8.94,6.43-12.84,6.5a8,8,0,0,1-1.84-.1c-.71-.12-1.49,0-2.13-.09-.14,0-.71-.05-.71-.18l-.15-.07a.88.88,0,0,1-.42.07c-3.19.06-6.18-1.08-9.3-1.42l-.14-.07H117a3,3,0,0,0-1.14-.44l-.28.07a5.19,5.19,0,0,1-1.66-.23l-1.07-.22-2.47-.54-1.14-.52-1-.12s.2.16-.31-.07l-.67-.29h-.4Z"/><path class="cls-1" d="M260.55,119.39l.61,0,0-.53.54-.11,0-.8a5.31,5.31,0,0,0,1.36-2.07l.34,0c.07-.13,0-.4,0-.53a1.9,1.9,0,0,0,.85-1.09,4.08,4.08,0,0,0,1-1.29c0-.4.35-.65.44-1l1.1-2.15v-.07a12.33,12.33,0,0,0,1.42-3.26c.31-.89.64-.92.68-1.58a.06.06,0,0,1,.07-.06l.2-.06a6.22,6.22,0,0,1,2.09.83c.24.14.78.22,1,.43s.17.6.29.86a2.42,2.42,0,0,1,.29,1.29c-.06,1.13-.23,1-.62,2.07l-1.67,3c-.56.44-4,6.54-4.64,6.38"/><path class="cls-1" d="M246.24,137.92c-.3,0-.53.53-.83.51a16,16,0,0,0-1.9-.11,7.59,7.59,0,0,1-.78-.28,4.66,4.66,0,0,1-.71-1.6l.21-2.18c.2.09.19.25.49.26s3.22-.22,3.52-.2l1.19.11,1.52.18c.36,0,1.09,0,1.09,0l1-.23,1.5,0,1.21,0c.29,0,1.19.23,1.49.24h.2c.2,0,1.31-.16,1.51-.16s.89.21,1.29.23c.8,0,2,.18,2.79.31.1,0,.19.17.39.18l2.59.22a.57.57,0,0,0,.41-.13.6.6,0,0,0,.19.32,4.2,4.2,0,0,1,1.11-.18.73.73,0,0,1,.09.24,19.34,19.34,0,0,1-2.73.4c-.2,0-.19-.17-.39-.18s-.91.18-1.41.16a.24.24,0,0,0-.11.23c-.2,0-.29-.25-.49-.26s-.91.11-1.51.16c-.11.07-.11.23-.12.38-.7,0-2.19-.2-2.19-.2l-.61.13a1.4,1.4,0,0,0-.52.28c-.2,0-.39-.18-.69-.2s-1.82.22-2.43.34a2.34,2.34,0,0,1-.82.27l-.85,0-.79,0-1.34.4h-.67c-.25,0-.7-.06-.83.05a.53.53,0,0,1-.44.21C246.56,137.91,246.24,137.92,246.24,137.92Z"/><path class="cls-1" d="M272.19,108c-.23.23-.37-.11-.6.21l-1.1,1.09c-.16.08-1.64,2.19-1.64,2.19-.7.7-4.78,7.27-5.94,9-.94,1.49-1.41.94-3,4.85l-.16.62c-.23.32-.7.55-.78.86l-.16.54-.63,1.41-.07.16-.47.27-.62,1.51-.55.81c-.4.71-.78,1.41-1.18,2s-.71,1-1,1.56a24.14,24.14,0,0,0-1.33,2.43l-.7.86-.55,1.17-.47.55-.31.94c-.31.54-.55,1-.86,1.56a16.7,16.7,0,0,1-2.12,2.82,45.29,45.29,0,0,1-3.52,4.77,39.67,39.67,0,0,1-3.75,4.22c-.47.39-2.58,2.82-2.9,2.82,0,.07-3.28,3.6-3.52,3.83-.62.62-1.33,1.17-1.95,1.8a42,42,0,0,1-5.48,4.3c-.47.31-1.56,1.33-2.19,1.33l-1.41.86c-.55.24-1.1.39-1.56.63a21.51,21.51,0,0,1-2.35.86,5.19,5.19,0,0,1-2,.55,11.74,11.74,0,0,1-3.05.78l-2.9.78a7.2,7.2,0,0,0-1.4.16l-1.88-.32h-.31c-.4.39-3.44-.08-4.15-.31l-.78-.16h.08a4.23,4.23,0,0,1-1.09-.24,13.81,13.81,0,0,1-3.05-1.18,11,11,0,0,1-1.41-.62c-.39-.55-2.19-1.8-2.35-2.27l.24-.23.39.47a23.26,23.26,0,0,0,2.11,1.72c1.8.93,3.83.78,5.71.86.47,0,1,.15,1.49.15l1.49-.31.31.15c.24-.32,2,0,1.88-.32a.6.6,0,0,1,.39.16,35.45,35.45,0,0,1,4.38-1.1,5.08,5.08,0,0,1,2.19-.63c.62-.86,2.66-.86,3.68-1.33,3.83-1.88,7-2.74,10.56-5.25.94-.71,2.74-2.19,3.68-3,1.41-1.57,3.21-2.19,4.07-4.07.62-.86,1.33-1.57,1.88-2.35,2-2.58,4.54-4.69,6.34-7.74.94-1.64,3.52-5.16,4.61-6.8,1.25-2.11,2.35-4.07,3.37-5.95h-.08l1-2.19.64-.81.09-.65h.08a11.57,11.57,0,0,0,.82-1.12,1.59,1.59,0,0,1,.47-.32,22.67,22.67,0,0,1,1.48-2.58c1-1.57,2-3.91,3.13-5.4.31-.39,1.48-3.21,1.72-3.29.24-.39.55-.7.78-1.1.62-.94,1.18-2,1.8-2.89,1.09-1.8,1.49-3.21,2.66-4.69.32-.31,1.63-1.78,1.86-2.09"/><path class="cls-1" d="M269.09,114.3a11,11,0,0,0-.79.78c-.41.31.23.64-.18,1a13.23,13.23,0,0,0-.87,1.92c-.74.56-3.61,6.38-5,7.84-1.11,1.27-.4.74-2.56,4.26l-.27.58c-.26.26-.71.41-.84.7l-.25.5-.83,1.25-.09.14-.45.17-.85,1.35-.64.69c-.48.61-1,1.22-1.42,1.76s-.81.86-1.19,1.33a24.56,24.56,0,0,0-1.64,2.12l-.78.71-.71,1-.51.45-.47.86c-.38.47-.68.89-1.06,1.36a17.08,17.08,0,0,1-2.38,2.35,45.15,45.15,0,0,1-4,4l2.19-4.56c1.14-1.43,4.06-4.38,5.33-5.78,1.5-1.83,2.84-3.53,4.1-5.17H253l1.27-2,.72-.67.21-.61h.07a9.79,9.79,0,0,0,.93-.94,1.39,1.39,0,0,1,.46-.22,23.42,23.42,0,0,1,1.8-2.24c1.19-1.34,1.51-3.54,2.81-4.77.35-.32,1-2.94,1.18-3,.28-.34.61-.59.9-.92.72-.8.42-1.78,1.15-2.58,1.31-1.55,1-2.94,2.27-4.17.33-.24,1.35-2.53,1.62-2.79"/><polyline class="cls-1" points="266.06 114.35 261.32 120.81 255.01 133.87 257.74 131.42 264.62 119.95 268.5 112.92"/><path class="cls-1" d="M211.55,128.21a22.94,22.94,0,0,1,4.93-7.78,34.24,34.24,0,0,1,3.5-2.65c.21-.13,2.39-1.5,2.45-1.63,1.55-.56,6.11-3.35,8-3.19h.14c.69-1.08,10.58-2.49,12.22-2.32l.07-.07a2.09,2.09,0,0,1,1.56,0,2.31,2.31,0,0,1,1-.21,7.78,7.78,0,0,1,1.28.11,5.4,5.4,0,0,1,2.06.17.66.66,0,0,1,.49-.21,2.73,2.73,0,0,1,1,.25c.06-.14.27-.14.42-.14a6.61,6.61,0,0,1,1.63.31l.14-.27a32.92,32.92,0,0,0,6.31.83c.21,0,1.48.18,1.49.44,0,.07.14-.07.28-.07.36.13,1.84.24,1.77.44.08,0,.29-.07.42-.07a13.45,13.45,0,0,1,2.85.69v-.07l.21-.14a10,10,0,0,0,2.41.57c.14,0,.28-.07.28-.2l.28.06.3.24,1.21.09,4.95.75.44-.05a2.42,2.42,0,0,0,1.06.31l.14-.34.29.07v.26l.42-.21c.15.33.5.26.78.25h.21l.08.33c.07-.07.07-.07.14,0l.07-.34c.28.07.42.33.71.39,0,0,.07-.07.07,0a.26.26,0,0,1,.21-.07c.36,0,.44.32.78.38l.07.07.07-.13.21-.34a12.44,12.44,0,0,0,1.49.31l-.07.33h.07a1.08,1.08,0,0,1,.5-.07,14.17,14.17,0,0,1,2.2.43c.71.05.57.39.86.45v-.06a2.55,2.55,0,0,1,1-.22,23.64,23.64,0,0,1,4.33.6c.28-.2.78,0,1.14,0,3-.05,8.27-.8,10.72-2.43.49-.34.84-.95,1.48-1-1.07,4.08-9,6.4-12.86,6.46a8.39,8.39,0,0,1-1.84-.1c-.71-.12-1.49,0-2.13-.1-.14,0-.7-.06-.71-.19l-.14-.07a.92.92,0,0,1-.42.07c-3.18.05-6.18-1.1-9.3-1.45l-.14-.07h-.07a2.88,2.88,0,0,0-1.14-.45l-.29.07A5.18,5.18,0,0,1,274,117l-1.07-.22-2.46-.55-1.14-.52-1-.13s.19.16-.31-.07l-.67-.3h-.4l-.37-.18h-.07a.79.79,0,0,1-.42.14c-.92,0-1.64-.91-2.43-1.09v.07c.14.13.29.33.22.53l-1.14-.38.07-.27.21.06v-.07l-.71-.26-.2.4c-.22-.13-.36-.26-.57-.39a9.4,9.4,0,0,1-2.34-.43.57.57,0,0,1-.35.14c-.56,0-1.07-.65-1.57-.78a1.11,1.11,0,0,1-.78.41l.14-.53-.29-.06-.13.4a.6.6,0,0,0-.36-.13l-.43-.26-.2.13h-.57l.07-.4h-.07l-.07.07a2.75,2.75,0,0,1-1.05.22c-.57,0-1.14-.12-1.78-.17l-.07-.33a.64.64,0,0,1-.49,0l-.07-.07-.13.33a8.89,8.89,0,0,0-1.91-.1c-1.14,0-2.34-.43-3.41-.41a11.16,11.16,0,0,1-1.56-.18,1.18,1.18,0,0,1-.63.21,6.42,6.42,0,0,1-1.07-.12l-.07.27h-.21c-.42-.06-2.9.11-3,.44a8.36,8.36,0,0,1-1.35,0c-.76.87-5.59.81-5.72,1.48-8.09,1.53-17,6.79-20,14.23"/><path class="cls-1" d="M212.39,127.3c-.51.8-.8,2.8-1.07,3.22,0,0-.06.09-.14,0-.16-.3.5-.69.17-.9l-.11.09a4.56,4.56,0,0,1,.71-2.42"/></svg>