<svg id="Layer_1" data-name="Layer 1" xmlns="http://www.w3.org/2000/svg" viewBox="0 0 410 300"><title>identities</title><path d="M338,167.12c-10.18-12.84-29.49-7.32-30.94-10.25,1.21,1.24,8.16-.32,15.78,1.06-8.22-5.79-19.22-1.14-23.64-.68a10.75,10.75,0,0,1-6-.8c-5-2.05-6.22-8.83-14.2-11.4-5.15-4.2-9.47-1.9-11.88-.12-.59.44-2.81,1.6-2.85,2.2.39,1.75,2.38,3.05,5.69,3.47s6.28.12,8.18,2.69a13.09,13.09,0,0,1,1.06,1.28c1.5,2.65,2.55,9.38,8.61,12.08,3,1.36,3.87.21,3.87.21l0,0a18.87,18.87,0,0,0,3.49,1c1.85.27,7.38.29,7.38.29l2.4,0c3.42,2.27,9.47.19,12.42-2.69,3.9-.2,7.14-.26,8.78-2a38.29,38.29,0,0,0-18.2,1c4.33-2.39,17-4.82,26.54,2a14.32,14.32,0,0,1,6,6.91A12.33,12.33,0,0,0,338,167.12Z"/><path d="M225.47,164.05c-3.68,1.36-11.07,3-18.06-1.26-2.12-1.49-9.93-6-11.86-7.45.27-.7.7-2,1-2.74s1-2.07-.36-2a14.09,14.09,0,0,0-6.06,1.34c-16.31-9.75-26.06-5.82-31.91-3.05,0,0-2.94-4.73-3.74-6s-2.2-3.54-3.11-1.86a22,22,0,0,0-2.44,13.76c-2.27,1.4-10.24,9.64-11.79,12.79s.28,6,4.28,5.84c2.85-.1,8.64-1,16.34-4,3.2,1.79,7.31,3.64,11.83,3.73s3.59-1.37,1.7-3.71l-5.06-6c6.12-5.12,17-4.84,20.74-2.89,0,0,2.39,2.83,3.7,4.59s1.94.86,2-.2l.8-3.76c.81.12,7.77,3.08,10.28,4.16,3.33,1.43,4.63,2.08,5.55,4.13a30.52,30.52,0,0,0,2.43,4.48c.7.79,1.21-3.17,1.58-4.27,3.87.49,9-1.07,12.94-4.71C227.47,163.7,228.1,163.08,225.47,164.05Z"/><path d="M34.35,153.57c.58-4.73,2-7.22,6.71-12.44a17.74,17.74,0,0,0,3.3-5.7c.48-1.76,1.3.34,1.52,2.18a58.31,58.31,0,0,0,1.47,7.88c.8,2.83,5.88,9,12.37,9.22,2.08.08,2,3.35,0,4v0c5.16-5.28,6.82-.77,4.66.66,8.18-1.92,11.79-.87,17.24,1.51s14.12,1.42,17.12-.36c-4,2.57-12.19,3.57-17.58,1.42-7.85-3.13-9.77-2.25-16.8-1.31,2.1,1.51.38,6.24-4.68.44v0a2.1,2.1,0,0,1-.33,4.08c-5.65.89-7.85,5.24-9.13,7.81a24.63,24.63,0,0,0-2.42,8.45c-.08,4-.67,4.24-1.14,3.2a16.68,16.68,0,0,0-4.86-5.78c-5-4.2-7.06-7.83-7.59-12.57-.22-2-.93-3.06-1.55-3.18-1.52-.3-2.22-.63-2.45-1.85-.61-1.09-1.74-.38-1.83-1.91.14-1.53,1.43-1,2.08-2.09a2.5,2.5,0,0,1,2.41-1.55A2.19,2.19,0,0,0,34.35,153.57Z"/><path d="M96.8,145.92c.71,5.79,2.5,8.82,8.2,15.21a21.69,21.69,0,0,1,4,7c.58,2.15,1.59-.42,1.86-2.66a71.31,71.31,0,0,1,1.8-9.63c1-3.46,7.19-11,15.11-11.26,2.55-.1,2.45-4.1-.06-4.92v.06c6.3,6.45,8.33.93,5.7-.81,10,2.35,14.41,1.07,21.07-1.84s17.25-1.73,20.92.43c-4.85-3.15-14.89-4.37-21.49-1.74-9.6,3.83-11.95,2.74-20.54,1.6,2.57-1.85.47-7.63-5.72-.54v0a2.57,2.57,0,0,0-.41-5c-6.9-1.09-9.6-6.4-11.15-9.55-1.07-2.17-2.89-7-3-10.32-.1-4.86-.82-5.18-1.39-3.91-1,2.27-2.82,4.47-5.94,7.07-6.15,5.13-8.62,9.57-9.28,15.37-.27,2.39-1.13,3.74-1.9,3.89-1.86.36-2.71.77-3,2.27-.75,1.34-2.12.47-2.24,2.34.17,1.87,1.75,1.24,2.54,2.55.5,1.48,1.83,1.76,2.95,1.89A2.67,2.67,0,0,1,96.8,145.92Z"/><path d="M282.18,139.11c-3.61-1.53-10.92-3.5-18.1.4-2.19,1.39-10.2,5.53-12.2,6.87.23.72.6,2.06.85,2.79s.95,2.12-.46,2a14.09,14.09,0,0,1-6-1.62c-16.76,9-26.3,4.58-32,1.54,0,0-3.16,4.58-4,5.82s-2.37,3.44-3.2,1.71a22,22,0,0,1-1.79-13.86c-2.2-1.5-9.77-10.12-11.17-13.34s.56-6,4.55-5.63c2.84.23,8.58,1.45,16.13,4.8,3.28-1.64,7.47-3.29,12-3.16s3.52,1.54,1.53,3.79L223,137c5.87,5.41,16.73,5.64,20.57,3.87,0,0,2.52-2.71,3.91-4.41s2-.77,2,.29l.62,3.8c.81-.08,7.91-2.71,10.47-3.67,3.39-1.27,4.73-1.86,5.74-3.86a30.55,30.55,0,0,1,2.64-4.36c.73-.75,1.05,3.23,1.38,4.34,3.89-.3,9,1.5,12.7,5.32C284.17,139.55,284.77,140.2,282.18,139.11Z"/><path d="M374.86,165.7c-13.25,1.27-25.39-8.66-27-13.27a37.41,37.41,0,0,0,16.33,11.23c-.53-2.6-3.88-4.95-7.09-6.7-1.13-4.45-5.66-9.92-10.22-9.75l-2.25-1.43s-5.51-2.93-7.42-3.74c-.69-.29-1.82-.72-3.24-1.17h.1c.25-1-2.59-2.89-7.06-3.26-3.89-.32-9,1.43-12.62,2.76h.23l-1.12.41c-3.29,1.34-6.12-.76-9.52-2.29s-6-1.45-7.41,0c-.31.59,1.12,3,1.43,3.74,1.25,3.08,4,7.76,11.33,6.77a60.41,60.41,0,0,1,16.69,1.71,40.15,40.15,0,0,1,9.22,3.82c5.09,3.31,11.71,13.52,23,12.63-8-3.09-13.52-7.67-15.64-7.93,3.41-1.33,15.32,11,30,9.25,5-.76,8.87-2.73,11-5.66A15,15,0,0,1,374.86,165.7Z"/></svg>