<svg id="Layer_1" data-name="Layer 1" xmlns="http://www.w3.org/2000/svg" xmlns:xlink="http://www.w3.org/1999/xlink" viewBox="0 0 410 300"><defs><style>.cls-1{fill:#834938;}.cls-2{fill:#737c29;}.cls-3{fill:url(#linear-gradient);}.cls-4{fill:url(#linear-gradient-2);}.cls-5{fill:url(#linear-gradient-3);}</style><linearGradient id="linear-gradient" x1="175.32" y1="153.84" x2="222.43" y2="106.74" gradientUnits="userSpaceOnUse"><stop offset="0" stop-color="#003663"/><stop offset="1" stop-color="#006eb6"/></linearGradient><linearGradient id="linear-gradient-2" x1="169.32" y1="147.84" x2="216.42" y2="100.74" xlink:href="#linear-gradient"/><linearGradient id="linear-gradient-3" x1="192.74" y1="171.26" x2="239.84" y2="124.16" xlink:href="#linear-gradient"/></defs><title>identities</title><path class="cls-1" d="M45.61,149.35v-1.83h1.34c1,0,3,.12,3.18-1.18l.13-1.22v-21a3.64,3.64,0,0,0-.08-1.18c-.59-1.42-3.3-.89-4.56-1.06V120H60.82a21.09,21.09,0,0,1,5.06.69,7.41,7.41,0,0,1,5.69,7.43,7.49,7.49,0,0,1-2.38,5.56,9.35,9.35,0,0,1-5.27,2.39,24.15,24.15,0,0,1-2.47.2c-.67,0-1.38,0-2,0-1.55,0-3.05-.08-4.6-.08v8.08a6,6,0,0,0,.38,2.6c.13.2.42.28.63.41a18.06,18.06,0,0,0,2.55.16h1.34v1.83Zm9.2-14.9c1.34,0,2.68.08,4,.08,4.81,0,7.73-1.22,7.73-6.41,0-4-1.8-6-5.94-6.17-.92-.08-1.88-.08-2.8-.08a6.63,6.63,0,0,0-2,.2,2.42,2.42,0,0,0-.5.16c-.5.32-.46,1-.5,1.5Z"/><path class="cls-1" d="M79.84,135.35h.08c.5-2.15,2.51-5.44,6.23-5.44a3.15,3.15,0,0,1,3.3,3.17A2.46,2.46,0,0,1,87,135.83a2.17,2.17,0,0,1-2.17-2.19,2.79,2.79,0,0,1,.58-1.66c.08-.12.21-.2.29-.32-5.1.57-5.81,9-5.81,10.8v4.63c0,1,2.09.85,2.84.85h1.09v1.42H72.49v-1.42c.5,0,1-.08,1.51-.08,2.09,0,2-.41,2-2.39V134.21c-.33-1.7-1.63-1.54-3-1.58h-.84v-1.7l7.69-.41Z"/><path class="cls-1" d="M106.68,143.71c0,.57,0,1.14,0,1.75a2,2,0,0,0,.84,1.66,1.65,1.65,0,0,0,1.38.2c.42-.12.79-.28,1.17-.41.42.08.54.2.54.61-.46,1.38-2.3,2.19-3.72,2.19-2.13,0-3.18-1.06-3.72-3A9.88,9.88,0,0,1,95.69,150c-3.18,0-5.89-1.42-5.89-4.83,0-5.36,9.07-6.86,13.21-7.43a22.17,22.17,0,0,0,0-2.88c-.12-2.48-2.22-3.08-4.47-3.08-1.17,0-2.72.08-3.6.85-.46.41-.29.73,0,1.18a3.66,3.66,0,0,1,.63,1.66c0,1.42-1,2-2.34,2-1.5,0-2.22-1.18-2.22-2.56,0-1.79,1.51-3.21,3.05-3.9a11.17,11.17,0,0,1,5.1-1.06,13.32,13.32,0,0,1,4,.57c3.34,1.18,3.68,3.08,3.68,6.21Zm-12.79,1.06a3.26,3.26,0,0,0,3.51,3.17,6.11,6.11,0,0,0,4.6-2.31c1.13-1.42,1-2.8,1-4.5v-1.79C99.7,139.93,93.89,140.38,93.89,144.76Z"/><path class="cls-1" d="M111,149.35v-1.42h1.13a6.41,6.41,0,0,0,2.17-.32,6.33,6.33,0,0,0,.33-2.8v-9.34a6.91,6.91,0,0,0-.21-2.27c-.29-.45-.79-.41-1.25-.49l-2.51-.08v-1.7l7.82-.41V146.1c0,1.26-.17,1.66,1.21,1.75a21.92,21.92,0,0,0,2.3.08v1.42Zm5.31-24.27a2.52,2.52,0,0,1-2.43-2.48,2.47,2.47,0,0,1,4.93.08A2.56,2.56,0,0,1,116.34,125.08Z"/><path class="cls-1" d="M129.34,135.35h.08c.5-2.15,2.51-5.44,6.23-5.44a3.15,3.15,0,0,1,3.3,3.17,2.46,2.46,0,0,1-2.51,2.76,2.17,2.17,0,0,1-2.17-2.19,2.79,2.79,0,0,1,.58-1.66c.08-.12.21-.2.29-.32-5.1.57-5.81,9-5.81,10.8v4.63c0,1,2.09.85,2.84.85h1.09v1.42H122v-1.42c.5,0,1-.08,1.51-.08,2.09,0,2-.41,2-2.39V134.21c-.33-1.7-1.63-1.54-3-1.58h-.84v-1.7l7.69-.41Z"/><path class="cls-1" d="M140.42,149.35v-1.42h1.13a6.41,6.41,0,0,0,2.17-.32,6.33,6.33,0,0,0,.33-2.8v-9.34a6.91,6.91,0,0,0-.21-2.27c-.29-.45-.79-.41-1.25-.49l-2.51-.08v-1.7l7.82-.41V146.1c0,1.26-.17,1.66,1.21,1.75a21.92,21.92,0,0,0,2.3.08v1.42Zm5.31-24.27a2.52,2.52,0,0,1-2.43-2.48,2.47,2.47,0,0,1,4.93.08A2.56,2.56,0,0,1,145.73,125.08Z"/><path class="cls-1" d="M155.09,140.22c-.17,3.73,1.51,7.67,5.94,7.67a6.28,6.28,0,0,0,5.43-2.8,9.17,9.17,0,0,0,.5-.85,3.86,3.86,0,0,0,.42-.69l1.42.77c-1.71,3.65-4.31,5.64-8.49,5.64a9,9,0,0,1-9.49-9.74c0-5.36,3.55-10.31,9.36-10.31a8,8,0,0,1,7,4.1,12.67,12.67,0,0,1,1.38,4.46,11.61,11.61,0,0,1,.21,1.75Zm7.11-1.66c1.46,0,2.17.12,2.17-1.5,0-2.64-1.13-5.52-4.31-5.52-3.72,0-4.68,4.14-4.89,7Z"/><path class="cls-1" d="M263.15,119.68h1.61l.61,11.73-1.87.08a38,38,0,0,0-1.26-3.73,10.06,10.06,0,0,0-3.26-4.67,8.62,8.62,0,0,0-5.43-1.83,7.91,7.91,0,0,0-7.43,4.87,22,22,0,0,0-1.52,9.29c0,6.13,1.61,12.7,9.6,12.7,6,0,8.95-3.94,9.81-9.09l2,.32c-1,6.58-5.21,10.59-12.46,10.59A14.29,14.29,0,0,1,239,135.39a15.56,15.56,0,0,1,3.82-10.84,13.8,13.8,0,0,1,10.73-5.11,11.58,11.58,0,0,1,7.86,2.8Z"/><path class="cls-1" d="M272.57,140.22c-.17,3.73,1.56,7.67,6.17,7.67a6.6,6.6,0,0,0,5.65-2.8,8.93,8.93,0,0,0,.52-.85,3.8,3.8,0,0,0,.43-.69l1.48.77C285,148,282.34,150,278,150a9.83,9.83,0,0,1-7.34-2.8,9,9,0,0,1-2.52-6.94c0-5.36,3.69-10.31,9.73-10.31a8.32,8.32,0,0,1,7.25,4.1,12.33,12.33,0,0,1,1.43,4.46,11.32,11.32,0,0,1,.22,1.75Zm7.38-1.66c1.52,0,2.26.12,2.26-1.5,0-2.64-1.17-5.52-4.47-5.52-3.87,0-4.86,4.14-5.08,7Z"/><path class="cls-1" d="M288.64,147.93h1.09a6.13,6.13,0,0,0,2.13-.32c.26-.12.35-.53.35-.81V135.47a6.65,6.65,0,0,0-.22-2.27c-.22-.45-.69-.41-1.13-.49l-2.21-.08v-1.7l7.47-.41V134h.09c2-3.37,4.65-4.06,6.64-4.06s5.12.85,6.34,4.06a10.36,10.36,0,0,1,.56,3.86v8.73c0,.2,0,.41,0,.61a.86.86,0,0,0,.78.65c.61,0,1.22,0,1.87.08l.78,0v1.42h-11v-1.42a19.56,19.56,0,0,0,2.17-.08,1.59,1.59,0,0,0,1-.32c.13-.08.17-.28.26-.41a2.88,2.88,0,0,0,0-.61V137.7a14.84,14.84,0,0,0-.22-2.72c-.26-1.62-2.08-2.68-4-2.68a5.43,5.43,0,0,0-4.47,2.68,8.45,8.45,0,0,0-.91,4.71v6.78c0,.2,0,.45.09.69.09.93,1.91.69,2.61.73l.83,0v1.42H288.64Z"/><path class="cls-1" d="M312.18,130.52c4.65-.28,5.56-4.79,5.82-8.2h1.74v8.2h6.47v1.79h-6.47v12.14c0,1.18.09,3.12,2.82,3.12s3.34-3.45,3.34-5.52h1.74c0,4.22-1.48,7.91-6.56,7.91-3,0-5.34-1.83-5.34-4.38V132.3h-3.56Z"/><path class="cls-1" d="M333.37,140.22c-.17,3.73,1.56,7.67,6.17,7.67a6.6,6.6,0,0,0,5.65-2.8,8.93,8.93,0,0,0,.52-.85,3.8,3.8,0,0,0,.43-.69l1.48.77c-1.78,3.65-4.47,5.64-8.82,5.64a9.83,9.83,0,0,1-7.34-2.8,9,9,0,0,1-2.52-6.94c0-5.36,3.69-10.31,9.73-10.31a8.32,8.32,0,0,1,7.25,4.1,12.33,12.33,0,0,1,1.43,4.46,11.32,11.32,0,0,1,.22,1.75Zm7.38-1.66c1.52,0,2.26.12,2.26-1.5,0-2.64-1.17-5.52-4.47-5.52-3.87,0-4.86,4.14-5.08,7Z"/><path class="cls-1" d="M357.17,135.35h.09c.52-2.15,2.61-5.44,6.47-5.44a3.22,3.22,0,0,1,3.43,3.17,2.5,2.5,0,0,1-2.61,2.76,2.21,2.21,0,0,1-2.26-2.19,2.72,2.72,0,0,1,.61-1.66c.09-.12.22-.2.3-.32-5.3.57-6,9-6,10.8v4.63c0,1,2.17.85,3,.85h1.13v1.42H349.53v-1.42c.52,0,1-.08,1.56-.08,2.17,0,2.08-.41,2.08-2.39V134.21c-.35-1.7-1.69-1.54-3.13-1.58h-.87v-1.7l8-.41Z"/><path class="cls-2" d="M76.07,167.56h1c1.57,0,3.05.41,3.05,2.29a1.79,1.79,0,0,1-.89,1.58v0a2.15,2.15,0,0,1,1.67,2.11c0,1.67-1.43,2.33-2.9,2.33H76.07Zm1,3.69h.27c1,0,1.79-.2,1.79-1.39s-.8-1.37-1.77-1.37h-.29Zm0,3.71h.8c1,0,2-.29,2-1.47s-1.19-1.41-2.12-1.41h-.64Z"/><path class="cls-2" d="M96.76,175.89H95.5L93,172.37h-.43v3.53h-1v-8.33h1.26a4.41,4.41,0,0,1,2.2.39,2.31,2.31,0,0,1,1.09,2,2.27,2.27,0,0,1-2,2.33Zm-4.14-4.39h.33c1.06,0,2.21-.2,2.21-1.53s-1.24-1.49-2.27-1.49h-.28Z"/><path class="cls-2" d="M108.08,175.89h-1v-8.33h1Z"/><path class="cls-2" d="M126.74,171.7V172a3.87,3.87,0,0,1-3.95,4,4.34,4.34,0,0,1,.11-8.69A4.37,4.37,0,0,1,126.3,169l-.73.7a3.29,3.29,0,0,0-5.95,2,3.4,3.4,0,0,0,3.24,3.4,2.8,2.8,0,0,0,2.73-2.48h-2.16v-1Z"/><path class="cls-2" d="M142.19,170.92v-3.36h1v8.33h-1v-4h-4v4h-1v-8.33h1v3.36Z"/><path class="cls-2" d="M156.48,175.89h-1v-7.38h-2v-1h5v1h-2Z"/><path class="cls-2" d="M176.92,171.73a4.37,4.37,0,0,1-8.73,0,4.37,4.37,0,0,1,8.73,0Zm-1,0a3.33,3.33,0,1,0-6.65,0,3.33,3.33,0,1,0,6.65,0Z"/><path class="cls-2" d="M187.34,167.16l6.26,6.55v-6.16h1v8.68l-6.26-6.55v6.21h-1Z"/><path class="cls-2" d="M204.39,172.6a.85.85,0,1,1,.85.85A.84.84,0,0,1,204.39,172.6Z"/><path class="cls-2" d="M221.79,169.15a3.31,3.31,0,0,0-5.49,2.59,3.28,3.28,0,0,0,5.49,2.52v1.23a4.51,4.51,0,0,1-2.19.59,4.31,4.31,0,0,1-4.34-4.3,4.38,4.38,0,0,1,4.43-4.39,4,4,0,0,1,2.1.56Z"/><path class="cls-2" d="M239.8,171.73a4.37,4.37,0,0,1-8.73,0,4.37,4.37,0,0,1,8.73,0Zm-1,0a3.33,3.33,0,1,0-6.65,0,3.33,3.33,0,1,0,6.65,0Z"/><path class="cls-2" d="M250.46,174.94H253v1h-3.57v-8.33h1Z"/><path class="cls-2" d="M270.44,171.73a4.37,4.37,0,0,1-8.73,0,4.37,4.37,0,0,1,8.73,0Zm-1,0a3.33,3.33,0,1,0-6.65,0,3.33,3.33,0,1,0,6.65,0Z"/><path class="cls-2" d="M285.25,175.89H284l-2.45-3.53h-.43v3.53h-1v-8.33h1.26a4.41,4.41,0,0,1,2.2.39,2.31,2.31,0,0,1,1.09,2,2.27,2.27,0,0,1-2,2.33Zm-4.14-4.39h.33c1.06,0,2.21-.2,2.21-1.53s-1.24-1.49-2.27-1.49h-.28Z"/><path class="cls-2" d="M295.87,173.81l-1,2.09h-1.12l4-8.69,4,8.69h-1.12l-1-2.09Zm1.91-4.32-1.48,3.37h3Z"/><path class="cls-2" d="M311,167.56h1.72c2.55,0,4.67,1.35,4.67,4.12s-2.08,4.21-4.71,4.21H311Zm1,7.38h.36c2.12,0,4-.8,4-3.22s-1.83-3.22-4-3.22H312Z"/><path class="cls-2" d="M335.19,171.73a4.37,4.37,0,0,1-8.73,0,4.37,4.37,0,0,1,8.73,0Zm-1,0a3.33,3.33,0,1,0-6.65,0,3.33,3.33,0,1,0,6.65,0Z"/><rect class="cls-1" x="34.74" y="184.95" width="343.46" height="0.99"/><path class="cls-1" d="M34.74,108.91H202.13v-1H34.74Zm202.1-1v1H378.19v-1Z"/><path class="cls-3" d="M231.75,105.64c1-.58,1.09-1.09.84-1.86-.71.38-1.35-.38-.39-.9s.71-1.79.58-2.24a17.39,17.39,0,0,1-2.56,1.15c-1.09.38-.9-.19,1-1.66s1.79-2.69,1.41-3.71c-.64.83-5.51,4.42-7,5.5s-1.54.26-.64-.83c3.88-4.72,4.67-6.62,3.45-9.21,0,1.47-4.54,7.36-5.82,9.09s-1.54,0-.13-2.37c2.67-4.49,2.75-8.45,0-9.66,1.35,3.32-3.39,11.65-4.1,13.12s-1.15.83-.77-.07c2.28-5.32,2.88-12.1-.58-13,1.6,2.36-1.41,13.57-2.05,15s-.76.9-.57.19c2-7.62.07-13.12-3.65-13.82,2,1.73,2.68,9.53,1.66,15.68,1.09-7.81-2-9.15-4.54-9.09,2.49,2.43,3.39,10.43,1.41,15.23,1.34-4-1.34-4.86-2.49-5.06.83,2-.39,6.59-1.54,10.31a69.49,69.49,0,0,0-10.44,12.07c-2,.21-10.53,1.26-12.45,1.78l-.18.06a2.77,2.77,0,0,0-2.14,1.91c-1.79.33-2.53,1.51-2.43,3.43,0,.3.4-.11,1-.48A2.21,2.21,0,0,1,180.9,134a2.12,2.12,0,0,1,1.53-1.8c3.06-.59,10.27-1.12,11.88-1.29,2.43,3.81-4.31,7.07-6.59,7.25.31-.85.75-2.4-3.62-2.7a31,31,0,0,0-4,0,1.52,1.52,0,0,0-1.08.64,24.84,24.84,0,0,1,4.12.17,13.52,13.52,0,0,1,2.72.49c1.36.41.51,1.81-.6,2.51-3.72,2-4.37,4.33-9.23,9.12s-9.41,5.31-11,5.25a6.31,6.31,0,0,0,4.35.51c-2.5,2.56-12.1,8.32-17.86.19a4.58,4.58,0,0,0,.64,3.07,8.71,8.71,0,0,1-3.07-3.2c-.45,2.24,1.86,9,15.3,5.76.58-.19,1.09-.32.51.19a9.1,9.1,0,0,1-2.68,1.47c1.61.58,4.12-.4,5.21-.91s2-.37,1.18.72a12,12,0,0,1-1.73,1.92c1.46.53,3.81-1,4.77-1.92s1.63-.64,1.38.06a8.22,8.22,0,0,1-.68,1.37l-.21.36c1.1.28,3.67-1.33,4.48-2s1.18,0,.61.64,22.36-3.57,30-13.74c0,0,.93-1.18,1.64-2.19a7,7,0,0,1,3.84-3.21c4.94-2.18,9.24-6.12,6.17-10.37-.37,0-1.36.06-2,0,11.65-5,16.08-19,15-23.79,1.28-1.28.51-1.86.19-2S230.79,106.22,231.75,105.64Z"/><path class="cls-4" d="M182.74,133s-.84.14-.79.92l4.22-1.2Z"/><path class="cls-5" d="M220.27,147.43a1.08,1.08,0,0,0,1.15-.71,1.26,1.26,0,0,0,1.21.75,1.79,1.79,0,0,0,1.49-1,1,1,0,0,0,.89.38,2.27,2.27,0,0,0,1.85-1.56,1,1,0,0,0,.69.19,2.45,2.45,0,0,0,2-1.58,1.49,1.49,0,0,0,.09-.5h.2a2.5,2.5,0,0,0,2-1.6,1.31,1.31,0,0,0,0-.87,2.59,2.59,0,0,0,1.84-1.59,1.11,1.11,0,0,0-.18-1.22,2.68,2.68,0,0,0,1.15-1.35c.26-.73,0-1.32-.6-1.46a2.59,2.59,0,0,0,.71-1c.31-.88-.12-1.55-1-1.5l-.18,0a2.38,2.38,0,0,0,.32-.6c.31-.89-.12-1.57-1-1.51a2.15,2.15,0,0,0-1,.4l0-.08c.31-.89-.13-1.56-1-1.51s-3.87,2.17-9.41,3.2c.8,1.43.7,3.78-1.65,5.7a5.22,5.22,0,0,0,.1-6.18c6.33-1,11.16-4,12-4s1.41.71,1.08,1.72l0,.09a2.3,2.3,0,0,1,1.14-.45c.93-.06,1.41.71,1.07,1.72a2.77,2.77,0,0,1-.35.69l.2,0c.93-.06,1.41.71,1.07,1.71a3,3,0,0,1-.78,1.17c.65.16,1,.83.67,1.66a3,3,0,0,1-1.26,1.54,1.31,1.31,0,0,1,.2,1.39,2.87,2.87,0,0,1-2,1.82,1.56,1.56,0,0,1,0,1,2.75,2.75,0,0,1-2.22,1.82h-.22a1.77,1.77,0,0,1-.09.57,2.69,2.69,0,0,1-2.19,1.8,1.14,1.14,0,0,1-.76-.22,2.64,2.64,0,0,1-2.15,1.76,1.26,1.26,0,0,1-1-.44,2,2,0,0,1-1.62,1.11,1.14,1.14,0,0,1-1.2-.77,1.19,1.19,0,0,1-1.48.8c-2.1-.61-1.53-6.73-6.42-5.62,1.46-.55,3.37-1.45,5.09,2.08C219.2,146,219.5,147.29,220.27,147.43Z"/></svg>