<svg id="Layer_1" data-name="Layer 1" xmlns="http://www.w3.org/2000/svg" viewBox="0 0 410 300"><defs><style>.cls-1{fill:#231f20;}.cls-2{fill:#ef3e42;}.cls-3{fill:#febf50;}</style></defs><title>identities</title><path class="cls-1" d="M82.38,186.8h5c2.52,0,4.36,1,4.36,3.13s-1.79,2.84-5.14,2.84H82.38Zm3.31,12.56c5,0,5.78,1.29,5.78,5.22a17.93,17.93,0,0,0,.55,5.26h11v-.92c-1.29,0-1.15-1.33-1.15-5.26,0-6.05-2.11-6.8-5.6-8,3.86-1,5.55-3.88,5.55-7.35,0-5.84-3.63-8.55-14.64-8.55H71.55v30H82.38V199.36Z"/><path class="cls-1" d="M105.11,209.83v-30h10.83v10.14h10.24V179.79H137v30H126.18V198.19H115.94v11.64Z"/><path class="cls-1" d="M140.68,209.83v-30h10.83v30Z"/><path class="cls-1" d="M177.18,196.19l-.41-6.84v-9.56h10.37v30H177l-11.8-16.36.41,6.84v9.52H155.24v-30h10.15Z"/><path class="cls-1" d="M206.33,186.34c4.77-.12,6.61,4.22,6.61,8.3,0,5-1.84,8.64-6.52,8.64-5.19,0-6.47-4.8-6.47-8.64S201.42,186.34,206.33,186.34Zm.09-7.34c-10.28,0-17.31,6.13-17.31,15.57,0,10.22,6.93,16.07,17.31,16.07,9.78,0,17.35-5.76,17.35-16C223.77,186.71,218.22,179,206.42,179Z"/><path class="cls-2" d="M225.56,209.83v-30h13.08l5.83,18.74,5.83-18.74h13.08v30h-9.73v-9.18l.14-4.67.55-5.42h-.09l-6,19.28h-7.53l-6-19.28h-.09l.46,4.42.23,4.67v10.18Z"/><path class="cls-2" d="M277.67,205.54c-1.88,0-3-.75-3-1.84,0-2.84,4.13-2.17,7.25-3.55C282.12,203.16,281,205.54,277.67,205.54Zm15.06,4.3v-.42a2.73,2.73,0,0,1-1.29-2.8V196.4c0-5.22-.69-9.06-12.07-9.06-9.5,0-13.13,2.71-13.13,7.34h9.18c.23-1.88,2-2.13,3.35-2.13,1,0,3.12.21,3.12,1.79,0,4.09-17.12-.42-17.12,9.52,0,4.55,4,6.59,8.58,6.59,3.58,0,6.33-.67,9-3l.46,2.34Z"/><path class="cls-2" d="M301.57,198.4,293.27,188h11.09l3.17,5.47,3.36-5.47h10.94l-8.59,10.39,8.69,11.48H310.79l-3.55-6.26-3.65,6.26h-11Z"/><circle class="cls-2" cx="269.95" cy="124.65" r="47.79"/><path class="cls-3" d="M322.34,140.62s9.71-24.1,7.45-32.77l-22,20.46L307.25,117l-8,6.59-18.2-13V92.25l-10.92,12.83c-8.67-9.71-53.59-17.8-47.51,28.44.87,6.59,23.06,59.64,75.25,29.82l16.64-4,4.51,1.56,5.72-16Z"/><path class="cls-1" d="M330.27,100.07c-2.24,5.78-7.07,11.86-11.41,16.56A49.72,49.72,0,1,0,300,163.78a56.37,56.37,0,0,0,16.3-3.18l3.65,2.56L326.48,145l-2.22-5.5C331.9,127.5,333.62,107.93,330.27,100.07ZM269.82,79A45.41,45.41,0,0,1,315,120.6c-2.68,2.63-4.6,4.27-4.6,4.27,1.07-4.54-1-14-3.06-16.7-.22,1-1.75,8.55-6.68,11.87l-17.55-12.54a31.27,31.27,0,0,0-1-22.53c-1.76,6-6.47,11.71-10.92,16-12.48-8.33-28.67-8.7-39.42-1.2A45.34,45.34,0,0,1,269.82,79Zm51.63,67.5-5.33-3.37c1.75,1.79,4,5.25,2.48,11.14l-1.12,3.05-2.14-1.11-10.58-7.06,5.57,8.76c-28.78,9.08-62.23-18.89-54.82-31.32-10.9,9.45,8.43,34.28,37.08,37a45.31,45.31,0,0,1-68.13-39.2q0-1.16.06-2.3s0-.08,0-.11,0-.19,0-.29c2.5-25.66,28.09-25.05,35.16-21.41l-3.64,2.84a37.94,37.94,0,0,1,9,3.2c-2.07,1.64-3.47,2.59-3.47,2.59l12.68,6.77L267.14,109c4.87-2.53,9.61-5.9,12.47-9.94,1.3,2.1.92,11.58-1.13,15.54a11.75,11.75,0,0,0,2.83-3.2l19.22,13.87s4.9-2.74,6-6.91a16.79,16.79,0,0,1-1.4,9.81l3.64,2.7c3.43-1.19,15.36-12.07,19.17-18,.45,4.3-3.51,20.22-7.28,24a12.45,12.45,0,0,1-10-5.07c.58,4.56,6.89,8.67,12.05,11.39Z"/><path class="cls-1" d="M297.37,133.56l7,4.94a15.58,15.58,0,0,0-10.29-14c2.94,1.83,5.15,4.69,5.16,7.52l-15.81-11.24-.12,1.16h0c-2.26,13.89,7.59,19.76,16.28,17.55-10.66.71-14.49-7.19-13.19-13.66l.72.5c-.68,6.53,5.54,12.48,10.26,11.46a11.7,11.7,0,0,1-2.89-1.15A3,3,0,0,0,297.37,133.56Zm-7-5,2.41,1.7a3.15,3.15,0,0,0-1.6,3c0,.09,0,.17,0,.25A5.72,5.72,0,0,1,290.33,128.6Z"/></svg>