<svg id="Layer_1" data-name="Layer 1" xmlns="http://www.w3.org/2000/svg" viewBox="0 0 410 300"><defs><style>.cls-1{fill:#0b0204;}.cls-2{fill:#fff;}.cls-3{fill:#00b4ed;}.cls-4{fill:#a0a2a5;}.cls-5{fill:#58595b;}</style></defs><title>identities</title><rect class="cls-1" x="114.42" y="55.87" width="182.61" height="182.61"/><path class="cls-2" d="M143.49,98.92q.63-.1,1.46-.16T147,98.7a11.36,11.36,0,0,1,2,.18,5.1,5.1,0,0,1,1.68.6,3.11,3.11,0,0,1,1.13,1.13,3.46,3.46,0,0,1,.41,1.77,3.55,3.55,0,0,1-.19,1.17,3.25,3.25,0,0,1-.5.94,3.09,3.09,0,0,1-.71.67,1.93,1.93,0,0,1-.81.32,4.29,4.29,0,0,1,1,.28,3.31,3.31,0,0,1,1.81,1.73,3.77,3.77,0,0,1,.31,1.61,4.09,4.09,0,0,1-.48,2.1,3.55,3.55,0,0,1-1.3,1.29,5.58,5.58,0,0,1-1.89.65,13.89,13.89,0,0,1-2.26.18q-.9,0-1.79,0t-2-.19Zm3.72,5.75a4.44,4.44,0,0,0,.92-.09,1.93,1.93,0,0,0,.74-.31,1.52,1.52,0,0,0,.49-.61,2.34,2.34,0,0,0,.18-1,1.88,1.88,0,0,0-.21-.94,1.6,1.6,0,0,0-.53-.57,2,2,0,0,0-.73-.28,4.74,4.74,0,0,0-.8-.07,6.24,6.24,0,0,0-.93.06v3.78Zm-.87,6.26c.18,0,.4,0,.64.06l.66,0a5,5,0,0,0,.87-.08,2.56,2.56,0,0,0,.85-.3A1.87,1.87,0,0,0,150,110a1.93,1.93,0,0,0,.26-1.05,2.31,2.31,0,0,0-.2-1,1.63,1.63,0,0,0-.56-.65,2.32,2.32,0,0,0-.87-.34,5.78,5.78,0,0,0-1.11-.1h-1.18Z"/><path class="cls-2" d="M156.49,98.94l1.62-.17q.76-.07,1.68-.07a11.6,11.6,0,0,1,2.14.2,5.78,5.78,0,0,1,1.9.7A3.94,3.94,0,0,1,165.2,101a4.12,4.12,0,0,1,.52,2.18,4.45,4.45,0,0,1-.2,1.39,4.24,4.24,0,0,1-.5,1.05,4.35,4.35,0,0,1-.66.78,4.74,4.74,0,0,1-.67.52l-.33.22,3.44,6-.83.08c-.29,0-.58,0-.89,0a9.16,9.16,0,0,1-1.48-.12l-3.7-6.57.47-.24.67-.35a4.14,4.14,0,0,0,.76-.54,3,3,0,0,0,.62-.79,2.61,2.61,0,0,0-.45-2.91,2.8,2.8,0,0,0-1.83-.58,4.78,4.78,0,0,0-.79.06v11.95l-.71.07c-.24,0-.47,0-.69,0l-.71,0q-.37,0-.77-.08Z"/><path class="cls-2" d="M174.93,113.33a6.39,6.39,0,0,1-2.76-.55,5.15,5.15,0,0,1-1.91-1.53,6.6,6.6,0,0,1-1.11-2.3,11,11,0,0,1-.36-2.9,11.19,11.19,0,0,1,.36-2.92,6.69,6.69,0,0,1,1.11-2.33,5.1,5.1,0,0,1,1.91-1.54,7.17,7.17,0,0,1,5.51,0,5.11,5.11,0,0,1,1.91,1.54,6.73,6.73,0,0,1,1.11,2.33,11.19,11.19,0,0,1,.36,2.92,11,11,0,0,1-.36,2.9,6.65,6.65,0,0,1-1.11,2.3,5.16,5.16,0,0,1-1.91,1.53A6.39,6.39,0,0,1,174.93,113.33Zm0-2.4q3.05,0,3.05-4.88a7.21,7.21,0,0,0-.74-3.66,2.49,2.49,0,0,0-2.29-1.22q-3.09,0-3.09,4.88T174.93,110.93Z"/><path class="cls-2" d="M183,98.94a9.84,9.84,0,0,1,1.61-.12l.72,0a4.52,4.52,0,0,1,.72.1l2,10.65,2.44-10.65.73-.09c.22,0,.45,0,.69,0a7.55,7.55,0,0,1,1.28.12l2.54,10.93,2-10.93a6.58,6.58,0,0,1,1.26-.12,7.43,7.43,0,0,1,.77,0l.73.08-3.41,14.15a8.93,8.93,0,0,1-1.48.12,12.34,12.34,0,0,1-1.63-.12l-2.26-9.43-2.44,9.43-.84.08a7.51,7.51,0,0,1-.8,0,8,8,0,0,1-1.32-.12Z"/><path class="cls-2" d="M203.22,98.94a6.07,6.07,0,0,1,1.16-.12,6.57,6.57,0,0,1,1.22.12l5.47,9v-9a8.22,8.22,0,0,1,1.36-.12,5.79,5.79,0,0,1,1.18.12v14.15a6.2,6.2,0,0,1-1.14.12,6.7,6.7,0,0,1-1.2-.12l-5.51-9v9a6.88,6.88,0,0,1-1.28.12,6.56,6.56,0,0,1-1.26-.12Z"/><path class="cls-2" d="M219.93,106.54a8.69,8.69,0,0,1-1.2-.56,3.58,3.58,0,0,1-.91-.73,3,3,0,0,1-.58-1,4.32,4.32,0,0,1-.21-1.42,4.28,4.28,0,0,1,.35-1.77,3.51,3.51,0,0,1,1-1.29,4.29,4.29,0,0,1,1.52-.79,6.91,6.91,0,0,1,2-.27,9.52,9.52,0,0,1,1.88.18,14.22,14.22,0,0,1,1.84.51,7,7,0,0,1-.63,2.25l-.6-.24a4.63,4.63,0,0,0-.65-.2,7.08,7.08,0,0,0-.78-.13,8.64,8.64,0,0,0-1,0,4.11,4.11,0,0,0-.68.06,1.92,1.92,0,0,0-.62.22,1.23,1.23,0,0,0-.45.46,1.57,1.57,0,0,0-.18.8,1.42,1.42,0,0,0,.14.66,1.39,1.39,0,0,0,.37.45,2.35,2.35,0,0,0,.53.31l.59.25,1.18.45q.75.3,1.36.61a3.68,3.68,0,0,1,1,.78,3.27,3.27,0,0,1,.66,1.12,4.86,4.86,0,0,1,.24,1.62,4.49,4.49,0,0,1-.36,1.83,3.93,3.93,0,0,1-1.05,1.42,5,5,0,0,1-1.7.93,7.45,7.45,0,0,1-2.33.33q-.65,0-1.16,0a8.86,8.86,0,0,1-1-.13,9,9,0,0,1-.92-.23q-.45-.14-.94-.33a8.32,8.32,0,0,1,.22-1.19q.16-.62.37-1.25a10.23,10.23,0,0,0,1.56.5,6.94,6.94,0,0,0,1.56.17,3.53,3.53,0,0,0,1.95-.46A1.56,1.56,0,0,0,223,109a1.67,1.67,0,0,0-.17-.79,1.75,1.75,0,0,0-.43-.53,2.58,2.58,0,0,0-.6-.36l-.69-.29Z"/><path class="cls-2" d="M231.92,101.38H228.4a6.28,6.28,0,0,1-.12-1.24,6.07,6.07,0,0,1,.12-1.2h9.94a6.07,6.07,0,0,1,.12,1.2,6.28,6.28,0,0,1-.12,1.24h-3.52v11.71l-.71.07c-.24,0-.47,0-.69,0l-.72,0q-.38,0-.78-.08Z"/><path class="cls-2" d="M241.31,98.94h8a6.07,6.07,0,0,1,.12,1.2,6.28,6.28,0,0,1-.12,1.24h-5.16v3.07h4.09a6.67,6.67,0,0,1,.12,1.22,6.58,6.58,0,0,1-.12,1.24h-4.09v3.74h5.3a6.16,6.16,0,0,1,.12,1.2,6.37,6.37,0,0,1-.12,1.24h-8.17Z"/><path class="cls-2" d="M252.75,98.94a8.91,8.91,0,0,1,1.44-.12,9.26,9.26,0,0,1,1.46.12v14.15a9.14,9.14,0,0,1-1.44.12,9,9,0,0,1-1.46-.12Z"/><path class="cls-2" d="M259.38,98.94a6.07,6.07,0,0,1,1.16-.12,6.57,6.57,0,0,1,1.22.12l5.47,9v-9a8.22,8.22,0,0,1,1.36-.12,5.79,5.79,0,0,1,1.18.12v14.15a6.2,6.2,0,0,1-1.14.12,6.7,6.7,0,0,1-1.2-.12l-5.51-9v9a6.88,6.88,0,0,1-1.28.12,6.56,6.56,0,0,1-1.26-.12Z"/><path class="cls-3" d="M156.56,126.7v3.68c0,4.53-2.18,7-6.63,7h-2.1V148h-4.45V119.7h6.55C154.37,119.7,156.56,122.17,156.56,126.7Zm-8.74-3v9.59h2.1c1.42,0,2.18-.65,2.18-2.67v-4.25c0-2-.77-2.67-2.18-2.67Z"/><path class="cls-3" d="M161.49,126.5c0-4.53,2.39-7.12,6.75-7.12S175,122,175,126.5v14.72c0,4.53-2.39,7.12-6.75,7.12s-6.75-2.59-6.75-7.12Zm4.45,15c0,2,.89,2.79,2.3,2.79s2.3-.77,2.3-2.79V126.21c0-2-.89-2.79-2.3-2.79s-2.3.77-2.3,2.79Z"/><path class="cls-3" d="M181.1,119.7h7c4.45,0,6.63,2.47,6.63,7V141c0,4.53-2.18,7-6.63,7h-7Zm4.45,4V144h2.51c1.42,0,2.27-.73,2.27-2.75V126.5c0-2-.85-2.75-2.27-2.75Z"/><path class="cls-3" d="M213.73,137.46v3.76c0,4.53-2.27,7.12-6.63,7.12s-6.63-2.59-6.63-7.12V126.5c0-4.53,2.27-7.12,6.63-7.12s6.63,2.59,6.63,7.12v2.75h-4.21v-3c0-2-.89-2.79-2.3-2.79s-2.3.77-2.3,2.79V141.5c0,2,.89,2.75,2.3,2.75s2.3-.73,2.3-2.75v-4Z"/><path class="cls-3" d="M234.07,148h-4.49l-.77-5.14h-5.46l-.77,5.14H218.5L223,119.7h6.51Zm-10.15-9h4.29l-2.14-14.32Z"/><path class="cls-3" d="M245.35,119.38c4.33,0,6.55,2.59,6.55,7.12v.89H247.7v-1.17c0-2-.81-2.79-2.22-2.79s-2.22.77-2.22,2.79c0,5.82,8.7,6.92,8.7,15,0,4.53-2.26,7.12-6.63,7.12s-6.63-2.59-6.63-7.12v-1.74h4.21v2c0,2,.89,2.75,2.31,2.75s2.3-.73,2.3-2.75c0-5.82-8.7-6.92-8.7-15C238.8,122,241,119.38,245.35,119.38Z"/><path class="cls-3" d="M256.43,119.7h13.75v4h-4.65V148h-4.45V123.75h-4.65Z"/><path class="cls-4" d="M151.56,154.14c6.15,0,9.31,3.68,9.31,10.12v1.26h-6v-1.67c0-2.87-1.15-4-3.16-4s-3.16,1.09-3.16,4c0,8.28,12.36,9.83,12.36,21.32,0,6.44-3.22,10.11-9.43,10.11s-9.43-3.68-9.43-10.11v-2.47h6v2.87c0,2.87,1.26,3.91,3.28,3.91s3.28-1,3.28-3.91c0-8.28-12.36-9.83-12.36-21.32C142.25,157.82,145.41,154.14,151.56,154.14Z"/><path class="cls-4" d="M172.3,171.56H181v5.75H172.3v11.78h10.92v5.75H166V154.6h17.24v5.75H172.3Z"/><path class="cls-4" d="M202.36,194.83c-.35-1-.57-1.67-.57-4.94v-6.32c0-3.74-1.26-5.11-4.14-5.11h-2.18v16.38h-6.32V154.6h9.54c6.55,0,9.37,3,9.37,9.25V167c0,4.14-1.32,6.84-4.14,8.16,3.16,1.32,4.19,4.37,4.19,8.56v6.21a11.86,11.86,0,0,0,.69,4.89Zm-6.9-34.48v12.36h2.47c2.36,0,3.79-1,3.79-4.25v-4c0-2.87-1-4.14-3.22-4.14Z"/><path class="cls-4" d="M215.11,154.6h6.32v40.23h-6.32Z"/><path class="cls-4" d="M235.22,171.56h8.68v5.75h-8.68v11.78h10.92v5.75H228.9V154.6h17.24v5.75H235.22Z"/><path class="cls-4" d="M259.41,154.14c6.15,0,9.31,3.68,9.31,10.12v1.26h-6v-1.67c0-2.87-1.15-4-3.16-4s-3.16,1.09-3.16,4c0,8.28,12.36,9.83,12.36,21.32,0,6.44-3.22,10.11-9.43,10.11s-9.43-3.68-9.43-10.11v-2.47h6v2.87c0,2.87,1.26,3.91,3.28,3.91s3.28-1,3.28-3.91c0-8.28-12.36-9.83-12.36-21.32C250.1,157.82,253.26,154.14,259.41,154.14Z"/><rect class="cls-5" x="142.77" y="81.38" width="127.15" height="8.51"/><rect class="cls-5" x="142.77" y="203.81" width="127.15" height="8.51"/></svg>