<svg id="Layer_1" data-name="Layer 1" xmlns="http://www.w3.org/2000/svg" xmlns:xlink="http://www.w3.org/1999/xlink" viewBox="0 0 410 300"><defs><style>.cls-1{fill:#434142;}.cls-2{fill:#bed73b;}.cls-3{fill:#ffd64f;}.cls-4{fill:url(#linear-gradient);}.cls-5{fill:#bd8cbf;}</style><linearGradient id="linear-gradient" x1="169.16" y1="176.81" x2="242.67" y2="176.81" gradientUnits="userSpaceOnUse"><stop offset="0" stop-color="#bd8cbf"/><stop offset="1" stop-color="#bed73b"/></linearGradient></defs><title>identities</title><ellipse class="cls-1" cx="202.12" cy="150.25" rx="127.64" ry="79.39"/><path class="cls-2" d="M233.58,177.89c-2.27-1.83-5.47-6.75-7.24-8.79-.55,2.82.77,8.41,1.49,11.22a5.44,5.44,0,0,1-.22,3.54,2.68,2.68,0,0,1-3.87,1.16,2.31,2.31,0,0,1-1.27-1.77,133.22,133.22,0,0,0-1.38-14A145.45,145.45,0,0,1,220,149.79c0-1.27,1.82-2.49,3.37-2.54,4.59-.17,1.49,6.14,2.76,9,.5,1.05,2-.28,2.6-.77,2-1.27,3.32-3.65,5.36-4.37,1.49-.55,4.09,1.33,3.54,2.6-2.27,3.82-7.13,4.76-10.23,7.63-.83.72,2.16,3.82,2.93,5.14,2.82,3,7.13,6.08,8.08,10C238.78,177.61,235.4,179.38,233.58,177.89Z"/><path class="cls-2" d="M265.15,178.88c-2.32,1.16-4.92,1.88-7.47.94-1.38-.5-2.82-2.1-2.32-3.48.44-.72,1.82-1.11,1.88-2A143.85,143.85,0,0,0,256,155c0-.66-.94-1.38-1.38-2.1-.22-.22,0-.94,0-1.16.44-1.88,2.54-2.1,3.76-1.88a12.5,12.5,0,0,1,6.75,1.88,26.65,26.65,0,0,1,7.08,6.8C277.65,166,272.23,175.34,265.15,178.88Zm-4-23.06c0,1.82.55,19.41,1.05,19.41,2.1.44,4.26-1.49,5.14-2.88,1.66-2.6,3.54-5.64,2.43-8.68C268.52,160.19,265.37,156.32,261.11,155.82Z"/><path class="cls-2" d="M293.68,161.37c-2.82,2.05-6.69-5.64-10.89-2.56-1.6,1.22.94,4.17,2,4.62a23.36,23.36,0,0,1,8.74,5.58c1.6,1.8,1,5.26-.17,7.51-2.88,5.58-13.05,8.66-16.37.71-.77-1.8,1.05-3.79,2.6-3.91,1.33-.13,1.49,2.31,2.54,2.88,2.6,1.54,7.13-.06,7.13-3.72,0-.9-1.49-2.31-2.54-2.82-3.71-1.92-8-3-9.73-7.31-2.16-5.13,6.58-11.29,10.23-9.43,2.71,1.35,6,2.12,7.3,5.2A3.54,3.54,0,0,1,293.68,161.37Z"/><path class="cls-3" d="M128.39,101.1l13.89,32.08,13.94-32.08L164,141.5h-4.36l-4.92-25.85h-.1l-12.32,27.42L130,115.65h-.1L125,141.5h-4.36Z"/><path class="cls-3" d="M203.71,122.44a19.92,19.92,0,1,1-19.92-19.82A19.81,19.81,0,0,1,203.71,122.44Zm-35.58-.05a15.66,15.66,0,1,0,15.66-15.81A15.8,15.8,0,0,0,168.13,122.39Z"/><path class="cls-3" d="M245.37,122.44a19.92,19.92,0,1,1-19.92-19.82A19.81,19.81,0,0,1,245.37,122.44Zm-35.58-.05a15.66,15.66,0,1,0,15.66-15.81A15.8,15.8,0,0,0,209.79,122.39Z"/><path class="cls-3" d="M252.37,141.5h-4.26V103.28h5.52c7.25,0,14,1.93,14,10.54,0,5.88-3.7,10-9.58,10.54L270.2,141.5H265l-11.56-16.78h-1.06Zm0-20.53h1.32c4.82,0,9.68-.91,9.68-6.84,0-6.28-4.61-6.89-9.73-6.89h-1.27Z"/><path class="cls-3" d="M272.54,103.28h19.82v4H276.79v11.35h15.1v4h-15.1v15h15.56v4H272.54Z"/><path class="cls-2" d="M185.18,160.52c-1.42-.21-2.69-.86-4.18-.35-3.94,1.38-3.42,5.91-2,9,1.38-.31,4.49-2.32,5.94-1.87.66.07.9.83.66,1.49-.59,1.48-5.11,1.93-5.32,3-.28,1.45,1.73,2.63,2.21,4.11.45.9-1.52,1.45-2.35,1.11-1.69-1.07-1.8-3.25-3.35-4.15-.31-.1-1.21.14-1.86-.07-.48,0-.73-.73-.62-1.21.38-.66,1.59-.66,1.52-1.59-.14-2-1-4.11-.76-6.15a8.15,8.15,0,0,1,2.69-5c2.38-2.28,7.39-3.42,8.5.52A1,1,0,0,1,185.18,160.52Z"/><path class="cls-2" d="M191.82,173.86a3.34,3.34,0,0,1-3.49.31,6,6,0,0,1-2.59-6.91c.55-1.93,1.8-2.94,2.21-3.9.83-1.86,3.25-1.31,4.56.14a8.24,8.24,0,0,1,1.69,3.39C194.93,169.61,193.65,171.92,191.82,173.86Zm-2.38-3.11c2.49.55,2.73-2.76.86-4.8C189.54,165.15,185.81,169.92,189.43,170.75Z"/><path class="cls-2" d="M200.31,169.09a4.86,4.86,0,0,0-.52,2.42c0,.73,0,1.38.11,2.35s.34,2.52-.11,3.35a1.88,1.88,0,0,1-2.94.17c-.52-.35-.55-.86-.52-1.55a49.82,49.82,0,0,0-.52-8.46c-.21-1.73-1.9-3.66-.35-5,1.73-1.55,3.8.52,3.45,2.76,1.24-.45,3.39-3.49,5.84-2.8,1.17,0,1.59,2.25.52,2.76A10.26,10.26,0,0,0,200.31,169.09Z"/><path class="cls-4" d="M172.16,183.43a30.7,30.7,0,0,1-1.53-3.84,1.07,1.07,0,1,0-2,.65,32.92,32.92,0,0,0,1.63,4.1,1.07,1.07,0,0,0,1.93-.92Zm36.75-20.2a23.31,23.31,0,0,1,.72,4,1.07,1.07,0,0,0,1.07,1h.1a1.07,1.07,0,0,0,1-1.16,26.18,26.18,0,0,0-.79-4.38,1.07,1.07,0,1,0-2.06.56ZM141,183.51a1.07,1.07,0,0,0-2,.7,25.24,25.24,0,0,0,1.85,4.06,1.07,1.07,0,1,0,1.86-1A23.55,23.55,0,0,1,141,183.51Zm27.19-15.18h.13a1.07,1.07,0,0,0,1.05-.94,24.18,24.18,0,0,1,.83-4,1.07,1.07,0,1,0-2-.61,26.4,26.4,0,0,0-.91,4.36A1.07,1.07,0,0,0,168.2,168.32Zm-17.45,28.29a1.07,1.07,0,1,0-1.36,1.65h0a42.49,42.49,0,0,0,3.52,2.62,1,1,0,0,0,.59.18,1.07,1.07,0,0,0,.6-2A39.77,39.77,0,0,1,150.75,196.61Zm19.55-36.54a1,1,0,0,0,.49.12,1.06,1.06,0,0,0,.95-.58,20.43,20.43,0,0,1,2.2-3.41,1.07,1.07,0,1,0-1.67-1.33,22.45,22.45,0,0,0-2.43,3.76A1.07,1.07,0,0,0,170.3,160.07Zm-.86,45a35.34,35.34,0,0,1-4.05-.85,1.07,1.07,0,1,0-.56,2.06,36.94,36.94,0,0,0,4.3.9h.16a1.07,1.07,0,0,0,.15-2.13Zm-8-2.16a39.48,39.48,0,0,1-3.78-1.74,1.07,1.07,0,1,0-1,1.89,40.92,40.92,0,0,0,4,1.83,1,1,0,0,0,.39.08,1.07,1.07,0,0,0,.4-2.06Zm7.14-26.11.19,0a1.07,1.07,0,0,0,.87-1.24,28.67,28.67,0,0,1-.43-4.1,1.07,1.07,0,1,0-2.14.07,30.64,30.64,0,0,0,.46,4.4A1.07,1.07,0,0,0,168.58,176.85Zm30.93-26.43a19.08,19.08,0,0,1,3.23,2.43,1.07,1.07,0,0,0,1.46-1.56h0a20.87,20.87,0,0,0-3.59-2.7,1.07,1.07,0,1,0-1.09,1.84Zm8,9a1.07,1.07,0,1,0,1.93-.92h0a24.71,24.71,0,0,0-2.27-3.85,1.07,1.07,0,1,0-1.73,1.25A22.22,22.22,0,0,1,207.5,159.4Zm-31.4-5.84a1.07,1.07,0,0,0,.68-.25,20.52,20.52,0,0,1,3.36-2.26,1.07,1.07,0,0,0-1-1.88,22.53,22.53,0,0,0-3.72,2.5,1.07,1.07,0,0,0,.68,1.89Zm34.71,16.79a1.07,1.07,0,0,0-1.15,1,25.87,25.87,0,0,1-.64,4.05,1.07,1.07,0,0,0,.79,1.29,1,1,0,0,0,.25,0,1.07,1.07,0,0,0,1-.82,27.81,27.81,0,0,0,.69-4.39A1.07,1.07,0,0,0,210.8,170.35Zm-18.86-22.19a14.34,14.34,0,0,1,3.92.63,1,1,0,0,0,.31,0,1.07,1.07,0,0,0,.31-2.09h0A16.51,16.51,0,0,0,192,146a1.07,1.07,0,0,0,0,2.14ZM178,193.36a1.07,1.07,0,0,0,.09,1.51,33.31,33.31,0,0,0,3.48,2.71,1.05,1.05,0,0,0,.6.19,1.07,1.07,0,0,0,.6-2,30.84,30.84,0,0,1-3.26-2.54A1.07,1.07,0,0,0,178,193.36Zm5.51-43.84a1.05,1.05,0,0,0,.33-.05,26.33,26.33,0,0,1,4-1,1.07,1.07,0,1,0-.34-2.11,28.48,28.48,0,0,0-4.31,1,1.07,1.07,0,0,0,.33,2.09ZM145,190.66a1.07,1.07,0,1,0-1.7,1.29,36.43,36.43,0,0,0,2.88,3.33,1.07,1.07,0,0,0,1.53-1.49A34.76,34.76,0,0,1,145,190.66Zm64.17-11.95a1.07,1.07,0,0,0-1.39.6,30.66,30.66,0,0,1-1.38,3L206,183a1.07,1.07,0,0,0,1.88,1l.42-.79a33.75,33.75,0,0,0,1.47-3.18A1.07,1.07,0,0,0,209.16,178.71Zm13.79,19.18c-1.48.55-2.84,1-4,1.34a1.07,1.07,0,0,0,.3,2.1,1,1,0,0,0,.3,0c1.21-.35,2.61-.82,4.13-1.39a1.07,1.07,0,0,0-.74-2Zm-8.06,2.39q-2.11.47-4.12.78a1.07,1.07,0,0,0,.16,2.13h.16q2.09-.32,4.27-.81a1.07,1.07,0,1,0-.47-2.08Zm15.83-5.72c-1.29.62-2.58,1.21-3.85,1.76a1.07,1.07,0,1,0,.84,2c1.29-.55,2.62-1.16,3.94-1.8a1.07,1.07,0,1,0-.94-1.92Zm-54.86-2.47a1.06,1.06,0,0,0,.7-.26,1.07,1.07,0,0,0,.11-1.51,31.28,31.28,0,0,1-2.48-3.3,1.07,1.07,0,1,0-1.79,1.17,33.36,33.36,0,0,0,2.65,3.53A1.07,1.07,0,0,0,175.85,192.1ZM238,190.45c-1.13.75-2.34,1.48-3.59,2.18a1.07,1.07,0,0,0,.52,2,1,1,0,0,0,.52-.14c1.3-.72,2.55-1.48,3.73-2.26a1.07,1.07,0,1,0-1.18-1.78Zm6.09-5.37a16.69,16.69,0,0,1-2.76,2.9,1.07,1.07,0,1,0,1.38,1.63,18.88,18.88,0,0,0,3.12-3.28,1.07,1.07,0,0,0-1.74-1.24Zm-58.5,18.11a30,30,0,0,1-3.91,1.31,1.07,1.07,0,0,0,.27,2.1,1.1,1.1,0,0,0,.27,0h0a32.75,32.75,0,0,0,4.19-1.4,1.07,1.07,0,1,0-.82-2Zm-8,2.07a30.77,30.77,0,0,1-3.56.21h-.56a1.07,1.07,0,0,0,0,2.14h.59a32.24,32.24,0,0,0,3.81-.22,1.07,1.07,0,1,0-.25-2.12Zm20.58-3.88a38,38,0,0,1-4.06-.69,1.07,1.07,0,0,0-1.4-1.61c-.63.47-1.27.92-1.9,1.33a1.07,1.07,0,0,0-.71-.89,32.78,32.78,0,0,1-3.8-1.62,1.07,1.07,0,0,0-1,1.91,35.21,35.21,0,0,0,3.8,1.63,1.07,1.07,0,0,0,1.19,1.76q1.23-.71,2.45-1.55a1.07,1.07,0,0,0,.83,1.1,41,41,0,0,0,4.32.74h.12a1.07,1.07,0,0,0,.12-2.13Zm8.33.16q-1.73.12-3.38.12h-.8a1.07,1.07,0,1,0,0,2.14h.84q1.73,0,3.53-.13a1.07,1.07,0,1,0-.15-2.13Zm-4.25-9.69a1.07,1.07,0,0,0,.86-.44h0q1.25-1.7,2.45-3.6a1.07,1.07,0,1,0-1.81-1.14q-1.15,1.84-2.36,3.46a1.07,1.07,0,0,0,.86,1.71Zm-3.48,1.55q-1.43,1.63-2.9,3a1.07,1.07,0,0,0,1.46,1.56q1.55-1.45,3-3.15a1.07,1.07,0,0,0-1.61-1.41Zm48.93-33.52h-1.28l-.1,0-.09,0H245a.77.77,0,0,0-.76.82l.25,4.65a.87.87,0,0,0,.85.82h2.14a.87.87,0,0,0,.85-.82l.26-4.65A.77.77,0,0,0,247.8,159.88Zm-1.37-8.57a3.47,3.47,0,1,0,3.47,3.47A3.47,3.47,0,0,0,246.43,151.31Zm.48,24.76h-1.05a.77.77,0,0,0-.76.82l.2,3.68a.86.86,0,0,0,.08.29c0,.29,0,.6,0,.9a1.07,1.07,0,0,0,2.14,0h0c0-.62,0-1.26,0-1.89l.16-3A.76.76,0,0,0,246.9,176.07Zm.46-8.32h-2a.76.76,0,0,0-.76.82l.27,5.1a.87.87,0,0,0,.85.82H247a.87.87,0,0,0,.85-.82l.28-5.1A.76.76,0,0,0,247.36,167.75Z"/><path class="cls-5" d="M147.63,172a12.48,12.48,0,0,0,3.22-2.44,14.54,14.54,0,0,0,4.86-6.76,13.46,13.46,0,0,0,.53-4.18,10,10,0,0,0-.68-4.12,10.15,10.15,0,0,0-2.46-3.39,14.69,14.69,0,0,0-3.55-2.2,10.7,10.7,0,0,0-3.49-1,9.25,9.25,0,0,0-3.7-.2,10.28,10.28,0,0,0-3.07,2.1,13.6,13.6,0,0,0-2.46,2.67,18.63,18.63,0,0,0-2.07,3,23,23,0,0,0-1.55,3.37,21.46,21.46,0,0,0-.47,3.56,21,21,0,0,1-.64-3.92c-.11-1.26.12-2.63.13-4.09,0-1.31-.15-2.68-.05-4.1s.25-2.69.42-4.08.09-2.78.32-4.14c.3,0,.86.17,1.15,0a2.66,2.66,0,0,0,1.22-3.35,2.61,2.61,0,0,0-3.32-1.18,2.65,2.65,0,0,0-1.28,3.31c.23.5,1,.76,1.49,1-.35,1.19-1,2.41-1.28,3.67s-.11,2.55-.25,3.8-.32,2.55-.37,3.78-.25,2.61-.23,3.8c0,1.41.28,2.76.41,3.84a35,35,0,0,0-1.86-3.39,33.34,33.34,0,0,0-2.23-3.08,32.15,32.15,0,0,0-2.92-2.45,25.65,25.65,0,0,0-2.76-2.63,24,24,0,0,0-3.3-2,24.12,24.12,0,0,0-3.72-.94c0-.25.2-.7.09-.94a2.12,2.12,0,0,0-2.73-.84,1.79,1.79,0,0,0-.78,2.46,1.84,1.84,0,0,0,2.41,1,1.76,1.76,0,0,0,.88-.92,19.64,19.64,0,0,1,3.52,1.57,24.11,24.11,0,0,1,3.16,2.26,28.82,28.82,0,0,1,2.87,2.62,30.4,30.4,0,0,1,2.29,3.14,33.22,33.22,0,0,1,2.37,3.11,14.58,14.58,0,0,1,1.27,3.68s.22-.2.2-.21a13.33,13.33,0,0,0-7.73-2.77,13.49,13.49,0,0,0-4.05.7,14.35,14.35,0,0,0-3.81,1.52,12.66,12.66,0,0,0-2.91,2.87,9.52,9.52,0,0,0-2,3.5,14.12,14.12,0,0,0-.67,3.88,15.35,15.35,0,0,0,.89,3.83,13,13,0,0,0,1.5,3.57,9.55,9.55,0,0,0,2.69,2.73,7.84,7.84,0,0,0,3.51,1.46,9.74,9.74,0,0,0,3.89-.05,15.35,15.35,0,0,0,3.81-1.2,28.74,28.74,0,0,0,3.34-2.41,13,13,0,0,0-2.81,2.86,8,8,0,0,0-1.26,3.64,7.82,7.82,0,0,0,.51,3.83,9.44,9.44,0,0,0,2.28,3.14,9.69,9.69,0,0,0,3.19,2.3,7.33,7.33,0,0,0,4,.36c1.19-.28,2-1.42,3-2.54a9.24,9.24,0,0,0,2.24-3.2,21.5,21.5,0,0,0,.38-3.92,24.24,24.24,0,0,0,.37-3.65,18,18,0,0,0,3.24,1.7,13.89,13.89,0,0,0,3.64,1.29,8.76,8.76,0,0,0,3.81-.05,7.32,7.32,0,0,0,3.42-1.67,8.14,8.14,0,0,0,2.16-3.2,8.26,8.26,0,0,0,.44-3.85,7,7,0,0,0-1.36-3.7,7.33,7.33,0,0,0-3.5-1.73A10,10,0,0,0,147.63,172Zm-8.75,8.75c-.42-.33-.34-.22-.32.22a19,19,0,0,1-.52,3.87,9.12,9.12,0,0,1-1.27,3.56,4.16,4.16,0,0,1-2.86,2.28,5.22,5.22,0,0,1-3.61-1.06,6.81,6.81,0,0,1-2.45-2.89,5.6,5.6,0,0,1-.44-3.79,7,7,0,0,1,2.05-3.34c.76-.68.54-1.21-.25-.65a19.86,19.86,0,0,1-3.08,2.39,9.54,9.54,0,0,1-3.82,1,6.21,6.21,0,0,1-3.62-1.41,7.66,7.66,0,0,1-2.15-3.12,10.72,10.72,0,0,1-1.12-3.64,11,11,0,0,1,.2-3.85A7.56,7.56,0,0,1,118,167a9.07,9.07,0,0,1,7.56-2.87,9,9,0,0,1,4.1,1,7.11,7.11,0,0,1,2.73,3.2c.77,1.3,1.09.08,1.07-.89a15,15,0,0,1,.46-4.16,16,16,0,0,1,1.64-3.85,12.1,12.1,0,0,1,2.33-3.55,7.16,7.16,0,0,1,4-1.31,7.33,7.33,0,0,1,4.14.54,9.24,9.24,0,0,1,3.28,2.65,6.51,6.51,0,0,1,1.21,3.93,9.57,9.57,0,0,1-.64,4.11,14.42,14.42,0,0,1-2.38,3.45,12.32,12.32,0,0,1-3.16,2.66c-.9.52-.32.76.06.76a7,7,0,0,1,4,1.12,4.2,4.2,0,0,1,2.18,3.18,5.41,5.41,0,0,1-.49,4,5.32,5.32,0,0,1-3.51,2,7.09,7.09,0,0,1-4.07-.18A15,15,0,0,1,138.88,180.79Z"/></svg>