<svg id="Layer_1" data-name="Layer 1" xmlns="http://www.w3.org/2000/svg" viewBox="0 0 410 300"><defs><style>.cls-1{fill:#0064b1;}.cls-2{fill:#f6a01a;}.cls-3{fill:#0a0203;}.cls-4{fill:#fff;}.cls-5{fill:#68737a;}.cls-6{fill:#bbc0c3;}.cls-7{fill:#a4d7f4;}</style></defs><title>identities</title><path class="cls-1" d="M89,133.65c5.81,0,8.65-1.29,10.91-2.65v12c-1.87,1.16-5.1,2.58-10.78,2.58-16.59,0-24.92-11.94-24.92-23.82s8.26-23.56,24.46-23.56c6.45,0,8.58,1.23,11.23,2.65v12a18.85,18.85,0,0,0-10.91-3c-8.58,0-12.85,5.55-12.85,11.88S80.4,133.65,89,133.65Z"/><path class="cls-1" d="M131.78,116.81V98.73H143v46.09H131.78V126.75H117.06v18.07H105.83V98.73h11.23v18.07Z"/><path class="cls-1" d="M148.94,144.82V98.73h11.23v46.09Z"/><path class="cls-1" d="M190,133.65c5.81,0,8.65-1.29,10.91-2.65v12c-1.87,1.16-5.1,2.58-10.78,2.58-16.59,0-24.92-11.94-24.92-23.82s8.26-23.56,24.46-23.56c6.45,0,8.58,1.23,11.23,2.65v12a18.85,18.85,0,0,0-10.91-3c-8.58,0-12.85,5.55-12.85,11.88S181.41,133.65,190,133.65Z"/><path class="cls-1" d="M231.24,98.73l14.2,46.09H234.27l-2.07-6.65H217.56l-2.13,6.65H204.19l14.2-46.09Zm-10.65,29.18h8.58L225,113.77Z"/><path class="cls-1" d="M267.77,109.25a12.59,12.59,0,1,0,11,18.59H268.74v-8.58h22.4c.06.84.13,1.74.13,2.65A23.65,23.65,0,1,1,286.75,108l-9,6.2A12.57,12.57,0,0,0,267.77,109.25Z"/><path class="cls-1" d="M318.12,145.59a23.69,23.69,0,1,1,23.69-23.69A23.66,23.66,0,0,1,318.12,145.59Z"/><path class="cls-2" d="M79.06,174.79c-2.08,0-3.38,1.13-3.38,4.09v4.45H69.51v-4c0-6.64,3.32-10.44,9.72-10.44S89,172.66,89,179.3c0,13.64-14.17,18.32-12.93,25.61H88.37v5.93H69.51v-5.1c0-12.21,12.93-14.23,12.93-26.21C82.44,175.8,81.14,174.79,79.06,174.79Z"/><path class="cls-2" d="M95.42,179.3c0-6.64,3.5-10.44,9.9-10.44s9.9,3.79,9.9,10.44v21.58c0,6.64-3.5,10.43-9.9,10.43s-9.9-3.79-9.9-10.43Zm6.52,22c0,3,1.3,4.09,3.38,4.09s3.38-1.13,3.38-4.09V178.88c0-3-1.3-4.09-3.38-4.09s-3.38,1.13-3.38,4.09Z"/><path class="cls-2" d="M120.8,174.55c5,0,6.17-2.43,7.17-5.22h4.39v41.5h-6.52V179.18h-5Z"/><path class="cls-2" d="M147,197.44v3.85c0,3,1.3,4,3.38,4s3.38-1.07,3.38-4v-9.13c0-3-1.3-4.09-3.38-4.09S147,189.2,147,192.16v1.24h-6.17L142,169.34h17.19v5.93H147.9l-.53,9.9a6.22,6.22,0,0,1,5.69-3c4.8,0,7.23,3.38,7.23,9.49v9.25c0,6.64-3.32,10.43-9.72,10.43s-9.72-3.79-9.72-10.43v-3.44Z"/><path class="cls-3" d="M323.88,37.41h-.4q0-3.52-.1-7l-.33-.06q0,3.55-.1,7.09h-.4V38h.28q-.11,8-.22,16l1.19-.2q-.11-7.92-.22-15.84h.28Z"/><rect class="cls-3" x="311.29" y="64.6" width="2.28" height="14.68"/><rect class="cls-4" x="312.76" y="64.6" width="0.81" height="14.68"/><polygon class="cls-3" points="319.94 52.75 318.9 52.26 313.57 53.23 313.57 79.28 320.07 79.28 319.94 52.75"/><path class="cls-3" d="M319.34,35.7h-.42q0-3.55-.1-7.1H319V24.85h-.69V28.6h.18q0,3.55-.1,7.1H318v.64h.29q-.11,8.44-.23,16.88l1.25-.21q-.12-8.34-.23-16.67h.3Z"/><polygon class="cls-4" points="326.59 81.48 318.9 79.81 318.9 52.26 326.59 53.93 326.59 81.48"/><polygon class="cls-3" points="325.99 57.81 319.5 56.4 319.5 54.66 325.99 56.07 325.99 57.81"/><path class="cls-3" d="M326,59.72l-6.49-1.4v.91l6.49,1.4ZM326,61l-6.49-1.4v.91l6.49,1.4Zm0,2.19v-.91l-6.49-1.4v.91Zm-6.49-1v.91l6.5,1.4v-.91Zm0,2.19,6.49,1.4v-.91l-6.49-1.4Zm0,1.28L326,67v-.91l-6.49-1.4Zm0,1.28L326,68.3v-.91L319.5,66Zm0,1.28,6.49,1.4v-.91l-6.49-1.4Zm0,1.28,6.49,1.4v-.91l-6.49-1.4Zm0,1.28,6.49,1.4v-.91l-6.49-1.4Zm0,1.28,6.49,1.4V72.5l-6.49-1.4Zm0,1.28,6.49,1.4v-.91l-6.49-1.4Zm0,1.28L326,76v-.91l-6.49-1.4Zm0,1.28,6.49,1.4v-.91l-6.49-1.4Zm0,1.28,6.49,1.4v-.91l-6.49-1.4Zm0,.37v.91l5.79,1.25v-.91Z"/><polygon class="cls-3" points="316.9 78.17 315.62 77.99 309.33 78.92 309.33 80.8 307.78 80.8 307.78 114 316.75 113.99 316.9 78.17"/><polygon class="cls-4" points="329.58 115.81 325.26 114.32 325.26 78.72 329.58 80.2 329.58 115.81"/><path class="cls-3" d="M325.69,82.06v.67l3.46,1.19v-.67Zm0,2,3.46,1.19v-.67l-3.46-1.19Zm0,1.33,3.46,1.19v-.67l-3.46-1.19Zm0,1.33,3.46,1.19v-.67l-3.46-1.19Zm3.46,1.85-3.46-1.19v.67l3.46,1.19Zm0,1.33-3.46-1.19v.67l3.46,1.19Zm-3.46.81,3.46,1.19v-.67l-3.46-1.19Zm0,1.33,3.46,1.19v-.67l-3.46-1.19Zm0,1.33,3.46,1.19v-.67l-3.46-1.19Zm0,1.33,3.46,1.19v-.67l-3.46-1.19Zm0,1.33,3.46,1.19v-.67l-3.46-1.19Zm0,1.33,3.46,1.19v-.67l-3.46-1.19Zm0,1.33,3.46,1.19v-.67l-3.46-1.19Zm0,1.33,3.46,1.19v-.67l-3.46-1.19Zm0,1.33,3.46,1.19v-.67l-3.46-1.19Zm0,1.33,3.46,1.19v-.67l-3.46-1.19Zm0,1.33,3.46,1.19v-.67l-3.46-1.19Zm0,1.33,3.46,1.19v-.67l-3.46-1.19Zm0,1.33,3.46,1.19v-.67L325.69,106Zm0,1.33,3.46,1.19v-.67l-3.46-1.19Zm0,1.33,3.46,1.19v-.67l-3.46-1.19Zm0,1.33,3.46,1.19v-.67L325.69,110Zm0,1.33,3.46,1.19v-.67l-3.46-1.19Zm0,1.33,3.46,1.19v-.67l-3.46-1.19Z"/><path class="cls-3" d="M325.29,144.49V78.79h-6.87v66.8A23.73,23.73,0,0,0,325.29,144.49Z"/><polygon class="cls-4" points="319.61 112.58 315.62 112.02 315.62 77.99 319.61 78.55 319.61 112.58"/><path class="cls-3" d="M316,81.28V82l3.19.45v-.68Zm0,2,3.19.45v-.68L316,82.63Zm0,1.35,3.19.45v-.68L316,84ZM316,86l3.19.45v-.68L316,85.34Zm3.19,1.12L316,86.69v.68l3.19.45Zm0,1.35L316,88v.68l3.19.45ZM316,90.07l3.19.45v-.68L316,89.39Zm0,1.35,3.19.45V91.2L316,90.75Zm0,1.35,3.19.45v-.68L316,92.1Zm0,1.35,3.19.45V93.9L316,93.45Zm0,1.35,3.19.45v-.68L316,94.8Zm0,1.35,3.19.45V96.6L316,96.15Zm0,1.35,3.19.45V98L316,97.51Zm0,1.35,3.19.45v-.68L316,98.86Zm0,1.35,3.19.45v-.68l-3.19-.45Zm0,1.35,3.19.45V102l-3.19-.45Zm0,1.35,3.19.45v-.68l-3.19-.45Zm0,1.35,3.19.45v-.68l-3.19-.45Zm0,1.35,3.19.45v-.68l-3.19-.45Zm0,1.35,3.19.45v-.68L316,107Zm0,1.35,3.19.45v-.68l-3.19-.45Zm0,1.35,3.19.45v-.68l-3.19-.45Zm0,1.35,3.19.45v-.68L316,111Z"/><path class="cls-4" d="M332.51,140.73v-27l-7.42-.66v31.51A23.59,23.59,0,0,0,332.51,140.73Z"/><path class="cls-3" d="M318.12,145.59c.53,0,1.05,0,1.57-.06V112.31l-3.85-.6-11.83,2v27.22A23.6,23.6,0,0,0,318.12,145.59Z"/><path class="cls-4" d="M318.12,145.59c.58,0,1.14,0,1.71-.07V112.28l-4-.56v33.77C316.59,145.55,317.35,145.59,318.12,145.59Z"/><path class="cls-5" d="M191.16,184.29v4.07h-9.71v-19h4.63v14.92Z"/><path class="cls-5" d="M199.78,173.44v3.38H205v4.07h-5.27v3.4h5.59v4.07H195.15v-19h10.21v4.07Z"/><path class="cls-5" d="M219.68,169.37l5.85,19h-4.6l-.85-2.74h-6l-.88,2.74h-4.63l5.85-19Zm-4.39,12h3.54l-1.73-5.83Z"/><path class="cls-5" d="M235.37,188.37h-6.52v-19h6.52c6.12,0,9.2,4.76,9.2,9.52S241.52,188.37,235.37,188.37Zm-.69-4c3.19,0,5-2.58,5-5.4s-1.86-5.48-5-5.48h-1.2v10.88Z"/><path class="cls-5" d="M252.61,173.44v3.38h5.27v4.07h-5.27v3.4h5.59v4.07H248v-19H258.2v4.07Z"/><path class="cls-5" d="M262.46,188.37v-19h7.1a5.77,5.77,0,0,1,6.09,6,5.65,5.65,0,0,1-3.86,5.61l4.79,7.39h-5.05l-4.44-7v7Zm6.68-11.12a1.72,1.72,0,0,0,1.92-1.89,1.81,1.81,0,0,0-1.92-1.92h-2v3.8Z"/><path class="cls-5" d="M286.77,173.23c-1.14,0-2.07.56-2.07,1.62,0,.77.53,1.33,2.21,1.57,3.75.56,5.59,3,5.59,5.93,0,3.11-2.39,6.17-6.92,6.17a10.8,10.8,0,0,1-7.29-2.5l2.31-3.35a7.41,7.41,0,0,0,4.68,1.78c1.52,0,2.31-.9,2.31-1.92,0-1.28-.85-2.07-2.53-2.37-3.88-.69-5.43-2.63-5.43-5.08,0-3.43,2.74-5.88,6.94-5.88a9.45,9.45,0,0,1,5.16,1.36l-1.62,3.75A6.14,6.14,0,0,0,286.77,173.23Z"/><path class="cls-5" d="M306.89,176.82v-7.45h4.63v19h-4.63v-7.45h-6.06v7.45h-4.63v-19h4.63v7.45Z"/><path class="cls-5" d="M316.22,188.37v-19h4.63v19Z"/><path class="cls-5" d="M332.69,181.32h-2.47v7h-4.63v-19h7.1a6,6,0,1,1,0,11.94Zm-.43-4.07a1.72,1.72,0,0,0,1.92-1.89,1.81,1.81,0,0,0-1.92-1.92h-2v3.8Z"/><path class="cls-5" d="M186.16,195.85v3.38h5.43v4.07h-5.43v3.4h5.76v4.07H181.39v-19h10.53v4.07Z"/><path class="cls-5" d="M205,196.7l3-4.92h5.59l-5.84,9.07,6.55,9.92H209l-3.84-5.91-3.78,5.91H196l6.44-10.05-5.92-8.94h5.32Z"/><path class="cls-5" d="M226.31,206.17a8.29,8.29,0,0,0,4.63-1.09V210a8.53,8.53,0,0,1-4.58,1.06c-7,0-10.58-4.92-10.58-9.82s3.51-9.71,10.39-9.71a8.34,8.34,0,0,1,4.77,1.09v4.95a8.18,8.18,0,0,0-4.63-1.22c-3.65,0-5.46,2.29-5.46,4.89S222.66,206.17,226.31,206.17Z"/><path class="cls-5" d="M247.08,199.22v-7.45h4.77v19h-4.77v-7.45h-6.25v7.45h-4.77v-19h4.77v7.45Z"/><path class="cls-5" d="M267.63,191.78l6,19h-4.74L268,208h-6.22l-.9,2.74h-4.77l6-19Zm-4.52,12h3.65L265,198Z"/><path class="cls-5" d="M292.07,191.78h4.77v19h-4.77l-9.32-11v11H278v-19h4.36l9.73,11.17Z"/><path class="cls-5" d="M311,196.11a5.19,5.19,0,1,0,0,10.37,5.34,5.34,0,0,0,4.69-2.71h-4.28v-3.54H321c0,.35.05.72.05,1.09A10.06,10.06,0,1,1,311,191.56a10.21,10.21,0,0,1,8.14,4l-3.84,2.55A5.39,5.39,0,0,0,311,196.11Z"/><path class="cls-5" d="M329.86,195.85v3.38h5.43v4.07h-5.43v3.4h5.76v4.07H325.09v-19h10.53v4.07Z"/><rect class="cls-6" x="168.52" y="169.44" width="4.43" height="41.4"/><rect class="cls-7" x="69.75" y="152.29" width="268.86" height="10.25"/><polygon class="cls-3" points="331.76 123.5 325.83 122.97 325.83 123.64 331.76 124.17 331.76 123.5"/><polygon class="cls-3" points="331.76 128.83 325.83 128.3 325.83 128.97 331.76 129.5 331.76 128.83"/><polygon class="cls-3" points="331.76 127.49 325.83 126.97 325.83 127.64 331.76 128.16 331.76 127.49"/><polygon class="cls-3" points="331.76 124.83 325.83 124.3 325.83 124.97 331.76 125.5 331.76 124.83"/><polygon class="cls-3" points="331.76 126.16 325.83 125.63 325.83 126.3 331.76 126.83 331.76 126.16"/><polygon class="cls-3" points="331.76 122.16 325.83 121.64 325.83 122.31 331.76 122.83 331.76 122.16"/><polygon class="cls-3" points="331.76 116.83 325.83 116.31 325.83 116.97 331.76 117.5 331.76 116.83"/><polygon class="cls-3" points="331.76 118.17 325.83 117.64 325.83 118.31 331.76 118.83 331.76 118.17"/><polygon class="cls-3" points="331.76 120.83 325.83 120.3 325.83 120.97 331.76 121.5 331.76 120.83"/><polygon class="cls-3" points="331.76 119.5 325.83 118.97 325.83 119.64 331.76 120.17 331.76 119.5"/><polygon class="cls-3" points="331.76 138.16 325.83 137.63 325.83 138.3 331.76 138.82 331.76 138.16"/><polygon class="cls-3" points="331.76 139.49 325.83 138.96 325.83 139.63 331.76 140.16 331.76 139.49"/><path class="cls-3" d="M331.76,141.27v-.45l-5.94-.53V141l5.67.5Z"/><polygon class="cls-3" points="331.76 130.16 325.83 129.63 325.83 130.3 331.76 130.83 331.76 130.16"/><path class="cls-3" d="M328.52,143.2l-2.69-.24v.67l1.46.13Q327.91,143.5,328.52,143.2Z"/><path class="cls-3" d="M330.6,142l-4.77-.42v.67l3.78.33Q330.11,142.35,330.6,142Z"/><polygon class="cls-3" points="331.76 136.82 325.83 136.3 325.83 136.97 331.76 137.49 331.76 136.82"/><polygon class="cls-3" points="331.76 132.82 325.83 132.3 325.83 132.97 331.76 133.49 331.76 132.82"/><polygon class="cls-3" points="331.76 131.49 325.83 130.97 325.83 131.64 331.76 132.16 331.76 131.49"/><polygon class="cls-3" points="331.76 135.49 325.83 134.96 325.83 135.63 331.76 136.16 331.76 135.49"/><polygon class="cls-3" points="331.76 134.16 325.83 133.63 325.83 134.3 331.76 134.83 331.76 134.16"/><polygon class="cls-3" points="319.43 124.96 316.24 124.51 316.24 125.19 319.43 125.65 319.43 124.96"/><polygon class="cls-3" points="319.43 123.61 316.24 123.16 316.24 123.84 319.43 124.29 319.43 123.61"/><polygon class="cls-3" points="319.43 127.68 316.24 127.23 316.24 127.91 319.43 128.36 319.43 127.68"/><polygon class="cls-3" points="319.43 122.25 316.24 121.8 316.24 122.48 319.43 122.93 319.43 122.25"/><polygon class="cls-3" points="319.43 126.32 316.24 125.87 316.24 126.55 319.43 127 319.43 126.32"/><polygon class="cls-3" points="319.43 118.18 316.24 117.73 316.24 118.41 319.43 118.86 319.43 118.18"/><polygon class="cls-3" points="319.43 116.82 316.24 116.37 316.24 117.05 319.43 117.5 319.43 116.82"/><polygon class="cls-3" points="319.43 115.46 316.24 115.01 316.24 115.69 319.43 116.14 319.43 115.46"/><polygon class="cls-3" points="319.43 119.53 316.24 119.08 316.24 119.77 319.43 120.22 319.43 119.53"/><polygon class="cls-3" points="319.43 130.39 316.24 129.94 316.24 130.62 319.43 131.07 319.43 130.39"/><polygon class="cls-3" points="319.43 120.89 316.24 120.44 316.24 121.12 319.43 121.57 319.43 120.89"/><polygon class="cls-3" points="319.43 129.03 316.24 128.59 316.24 129.27 319.43 129.72 319.43 129.03"/><polygon class="cls-3" points="319.43 141.25 316.24 140.8 316.24 141.48 319.43 141.93 319.43 141.25"/><polygon class="cls-3" points="319.43 142.61 316.24 142.16 316.24 142.84 319.43 143.29 319.43 142.61"/><polygon class="cls-3" points="319.43 139.89 316.24 139.44 316.24 140.13 319.43 140.57 319.43 139.89"/><path class="cls-3" d="M318.12,145.59c.44,0,.88,0,1.31,0v-.23l-3.19-.45v.64C316.86,145.56,317.48,145.59,318.12,145.59Z"/><polygon class="cls-3" points="319.43 143.97 316.24 143.51 316.24 144.2 319.43 144.65 319.43 143.97"/><polygon class="cls-3" points="319.43 137.18 316.24 136.73 316.24 137.41 319.43 137.86 319.43 137.18"/><polygon class="cls-3" points="319.43 134.46 316.24 134.01 316.24 134.69 319.43 135.15 319.43 134.46"/><polygon class="cls-3" points="319.43 138.54 316.24 138.09 316.24 138.77 319.43 139.22 319.43 138.54"/><polygon class="cls-3" points="319.43 133.11 316.24 132.66 316.24 133.34 319.43 133.79 319.43 133.11"/><polygon class="cls-3" points="319.43 131.75 316.24 131.3 316.24 131.98 319.43 132.43 319.43 131.75"/><polygon class="cls-3" points="319.43 135.82 316.24 135.37 316.24 136.05 319.43 136.5 319.43 135.82"/></svg>