<?xml version="1.0" encoding="utf-8"?>
<!-- Generator: Adobe Illustrator 21.1.0, SVG Export Plug-In . SVG Version: 6.00 Build 0)  -->
<svg version="1.1" id="Layer_1" xmlns="http://www.w3.org/2000/svg" xmlns:xlink="http://www.w3.org/1999/xlink" x="0px" y="0px"
	 viewBox="0 0 410 300" style="enable-background:new 0 0 410 300;" xml:space="preserve">
<style type="text/css">
	.st0{fill:#58B7DD;}
	.st1{fill:#80C342;}
	.st2{fill:#4A7B26;}
</style>
<title>identities</title>
<g>
	<g>
		<path class="st0" d="M237.6,118.6h5.2v54.9h-5.2V118.6z"/>
		<path class="st0" d="M250.9,132.9h5.2v40.5h-5.2V132.9z"/>
		<path class="st0" d="M262.8,132.9h5.2v5.2h0.1c1.6-2.4,5.6-6.2,12.4-6.2c5,0,9.1,1.3,12.8,5c3,3,5,7.6,5,14.3v22.3h-5.2v-22.3
			c0-5.3-1.6-9-3.9-11.1c-2.8-2.7-6.5-3.5-8.8-3.5c-2.3,0-6,0.7-8.8,3.5c-2.2,2.2-3.9,5.9-3.8,11.1v22.3h-5.2V132.9z"/>
		<path class="st0" d="M303.9,118.6h5.2v39.1h0.1l18.9-24.8h6.7l-16,20.5l16.8,20.1h-6.7l-13.3-16l-6.5,8.3v7.7h-5.2V118.6z"/>
		<path class="st0" d="M339.9,161.4c0.1,7.7,5.4,8.3,7.3,8.3c4.9,0,7.6-2.9,7.6-7.3c0-5.6-5-6.8-8.1-8.1
			c-4.1-1.4-10.7-3.6-10.7-11.3c0-5.7,4.1-11.3,11.6-11.3c6.1,0,11.1,4.7,11,11h-5.2c-0.4-5-3.8-6.4-6.1-6.4c-4.2,0-6.2,3.3-6.2,6.1
			c0,4.3,4.3,5.8,7.3,6.7c4.7,1.6,11.6,4.1,11.6,12.5c0.1,7-4.2,12.5-12.7,12.5c-5.6,0-12.7-3.9-12.5-13H339.9z"/>
		<circle class="st0" cx="253.4" cy="125.1" r="3.5"/>
	</g>
	<g>
		<path class="st1" d="M81.2,203.6c-1.6,0-2.7-0.4-3.7-1.4l0.8-0.8c0.9,0.9,1.7,1.2,3,1.2c1.6,0,2.6-0.8,2.6-2
			c0-0.6-0.2-1.1-0.5-1.4c-0.4-0.3-0.6-0.4-1.4-0.5l-1.3-0.2c-0.9-0.1-1.5-0.4-2-0.8c-0.6-0.5-0.8-1.2-0.8-2c0-1.9,1.3-3.1,3.5-3.1
			c1.4,0,2.3,0.4,3.3,1.2l-0.8,0.8c-0.7-0.6-1.4-0.9-2.5-0.9c-1.5,0-2.3,0.8-2.3,2c0,0.5,0.2,1,0.5,1.3c0.3,0.3,0.9,0.5,1.5,0.6
			l1.2,0.2c1,0.2,1.5,0.4,2,0.8c0.6,0.5,0.9,1.3,0.9,2.2C85,202.4,83.5,203.6,81.2,203.6z"/>
		<path class="st1" d="M91.6,203.6c-2.2,0-3.8-1.5-3.8-3.7v-7.3h1.2v7.2c0,1.7,1,2.7,2.6,2.7c1.6,0,2.7-1.1,2.7-2.7v-7.2h1.2v7.3
			C95.4,202,93.8,203.6,91.6,203.6z"/>
		<path class="st1" d="M101.6,203.6c-1.6,0-2.7-0.4-3.7-1.4l0.8-0.8c0.9,0.9,1.7,1.2,3,1.2c1.6,0,2.6-0.8,2.6-2
			c0-0.6-0.2-1.1-0.5-1.4c-0.4-0.3-0.6-0.4-1.4-0.5l-1.3-0.2c-0.9-0.1-1.5-0.4-2-0.8c-0.6-0.5-0.8-1.2-0.8-2c0-1.9,1.3-3.1,3.5-3.1
			c1.4,0,2.3,0.4,3.3,1.2l-0.8,0.8c-0.7-0.6-1.4-0.9-2.5-0.9c-1.5,0-2.3,0.8-2.3,2c0,0.5,0.2,1,0.5,1.3c0.3,0.3,0.9,0.5,1.5,0.6
			l1.2,0.2c1,0.2,1.5,0.4,2,0.8c0.6,0.5,0.9,1.3,0.9,2.2C105.4,202.4,103.9,203.6,101.6,203.6z"/>
		<path class="st1" d="M111.5,193.6v9.9h-1.2v-9.9h-3.2v-1h7.5v1H111.5z"/>
		<path class="st1" d="M122.6,203.5l-0.9-2.5H117l-0.9,2.5h-1.2l4-10.9h1l4,10.9H122.6z M119.4,194.2l-2.1,5.8h4.1L119.4,194.2z"/>
		<path class="st1" d="M126.1,203.5v-10.9h1.2v10.9H126.1z"/>
		<path class="st1" d="M137.8,203.5l-5.8-8.8v8.8h-1.2v-10.9h1.1l5.8,8.7v-8.7h1.2v10.9H137.8z"/>
		<path class="st1" d="M142.5,203.5v-10.9h1.2v10.9H142.5z"/>
		<path class="st1" d="M154.3,203.5l-5.8-8.8v8.8h-1.2v-10.9h1.1l5.8,8.7v-8.7h1.2v10.9H154.3z"/>
		<path class="st1" d="M165.3,202.3c-0.8,0.8-1.8,1.3-2.9,1.3c-1.1,0-2.1-0.4-2.8-1.1c-1-1-1-2.1-1-4.4c0-2.3,0-3.4,1-4.4
			c0.7-0.7,1.7-1.1,2.8-1.1c2.1,0,3.5,1.3,3.8,3.3h-1.2c-0.3-1.4-1.3-2.2-2.7-2.2c-0.7,0-1.4,0.3-1.9,0.8c-0.7,0.7-0.8,1.4-0.8,3.7
			c0,2.3,0.1,3,0.8,3.7c0.5,0.5,1.2,0.8,1.9,0.8c0.8,0,1.6-0.3,2.1-0.9c0.4-0.5,0.6-1.1,0.6-2v-0.8h-2.7v-1h3.8v1.7
			C166.3,200.7,166,201.6,165.3,202.3z"/>
		<path class="st1" d="M177.8,199h-2.9v4.5h-1.2v-10.9h4.1c2,0,3.4,1.2,3.4,3.2C181.1,197.7,179.8,199,177.8,199z M177.7,193.6h-2.8
			v4.3h2.8c1.4,0,2.3-0.7,2.3-2.2C180,194.3,179,193.6,177.7,193.6z"/>
		<path class="st1" d="M183.8,203.5v-10.9h6.8v1H185v3.8h4.8v1H185v3.9h5.6v1H183.8z"/>
		<path class="st1" d="M199.7,202.4c-0.7,0.7-1.7,1.1-2.8,1.1c-1.1,0-2.1-0.4-2.8-1.1c-1-1-1-2.1-1-4.4c0-2.3,0-3.4,1-4.4
			c0.7-0.7,1.7-1.1,2.8-1.1c1.1,0,2.1,0.4,2.8,1.1c1,1,1,2.1,1,4.4C200.7,200.3,200.7,201.4,199.7,202.4z M198.8,194.3
			c-0.5-0.5-1.2-0.8-1.9-0.8c-0.7,0-1.4,0.3-1.9,0.8c-0.7,0.7-0.8,1.4-0.8,3.7c0,2.3,0.1,3,0.8,3.7c0.5,0.5,1.2,0.8,1.9,0.8
			c0.7,0,1.4-0.3,1.9-0.8c0.7-0.7,0.8-1.4,0.8-3.7C199.5,195.7,199.5,195,198.8,194.3z"/>
		<path class="st1" d="M208,199h-2.9v4.5h-1.2v-10.9h4.1c2,0,3.4,1.2,3.4,3.2C211.3,197.7,210,199,208,199z M207.9,193.6h-2.8v4.3
			h2.8c1.4,0,2.3-0.7,2.3-2.2C210.2,194.3,209.2,193.6,207.9,193.6z"/>
		<path class="st1" d="M214,203.5v-10.9h1.2v9.9h5.6v1H214z"/>
		<path class="st1" d="M223.3,203.5v-10.9h6.8v1h-5.6v3.8h4.8v1h-4.8v3.9h5.6v1H223.3z"/>
		<path class="st1" d="M240.1,198.4v2.7h-1v-2.7h-2.7v-1h2.7v-2.7h1v2.7h2.7v1H240.1z"/>
		<path class="st1" d="M253.1,193.6v9.9H252v-9.9h-3.2v-1h7.5v1H253.1z"/>
		<path class="st1" d="M265.1,203.5v-5H260v5h-1.2v-10.9h1.2v4.9h5.2v-4.9h1.2v10.9H265.1z"/>
		<path class="st1" d="M269.6,203.5v-10.9h6.8v1h-5.6v3.8h4.8v1h-4.8v3.9h5.6v1H269.6z"/>
		<path class="st1" d="M287,199h-2.9v4.5h-1.2v-10.9h4.1c2,0,3.4,1.2,3.4,3.2C290.4,197.7,289,199,287,199z M286.9,193.6h-2.8v4.3
			h2.8c1.4,0,2.3-0.7,2.3-2.2C289.2,194.3,288.3,193.6,286.9,193.6z"/>
		<path class="st1" d="M292.7,203.5v-10.9h1.2v9.9h5.6v1H292.7z"/>
		<path class="st1" d="M308,203.5l-0.9-2.5h-4.8l-0.9,2.5h-1.2l4-10.9h1l4,10.9H308z M304.8,194.2l-2.1,5.8h4.1L304.8,194.2z"/>
		<path class="st1" d="M318.2,203.5l-5.8-8.8v8.8h-1.2v-10.9h1.1l5.8,8.7v-8.7h1.2v10.9H318.2z"/>
		<path class="st1" d="M322.6,203.5v-10.9h6.8v1h-5.6v3.8h4.8v1h-4.8v3.9h5.6v1H322.6z"/>
		<path class="st1" d="M335.1,193.6v9.9H334v-9.9h-3.2v-1h7.5v1H335.1z"/>
	</g>
	<g>
		<path class="st1" d="M159.3,101l17.1,15.3c-0.5-5.3-2.8-10.5-6.9-14.5c-4.6-4.6-10.6-6.9-16.6-7c0.1,6,2.4,12,7,16.6
			c4.1,4.1,9.2,6.4,14.6,6.9L159.3,101z"/>
		<path class="st1" d="M188.9,93.5c-6.2,6.2-9.6,14.1-10.3,22.1l22.7-19.9l-20,22.4c8-0.7,15.9-4.1,22-10.3
			c6.9-6.9,10.3-15.8,10.4-24.8C204.7,83.2,195.8,86.7,188.9,93.5z"/>
	</g>
	<g>
		<path class="st2" d="M56.9,155.1c0.4,7.9,7.8,14.7,15.7,14.7c7.4-0.1,12.7-4.5,14.5-9.6h5.5c-2.8,8.1-10.6,14.2-19.9,14.2
			c-11.3,0-21.1-9.2-21.1-21.2c0-11.5,9.3-21.1,21-21.3c8.9,0.1,15.2,5.3,18.1,10.4c2.7,4.4,3.3,8.9,3.1,12.8H56.9z M88.6,150.4
			c-1.6-9.6-9.4-13.9-15.9-13.9c-6.4,0-14.3,4.3-15.8,13.9H88.6z"/>
		<path class="st2" d="M144.9,132.9h5.2v5.9h0.2c2.4-5.7,7-6.6,11.4-6.9v5.5c-3.6,0.3-6.7,1.6-8.7,4c-1.8,2.2-2.8,5.1-2.8,8.4v23.7
			h-5.2V132.9z"/>
		<path class="st2" d="M195.1,118.6h5.2v19.5h0.1c1.6-2.4,5.6-6.2,12.4-6.2c5,0,9.1,1.3,12.8,5c3,3,5,7.6,5,14.3v22.3h-5.2v-22.3
			c0-5.3-1.6-9-3.9-11.1c-2.8-2.7-6.5-3.5-8.8-3.5c-2.3,0-6,0.7-8.8,3.5c-2.2,2.2-3.9,5.9-3.8,11.1v22.3h-5.2V118.6z"/>
		<g>
			<path class="st2" d="M140,173.4h-5.2v-7.1h-0.1c-4.4,6.7-11.5,8.1-15.7,8.1c-12.7,0-21.7-9.7-21.7-21.3
				c0-10.8,8.5-21.1,21.7-21.1c4.4,0,11.5,1.4,15.7,8.1h0.1v-7.1h5.2V173.4z M119,169.7c8.7,0,16.2-7,16.2-16.5
				c0-8.9-6.9-16.6-16.2-16.6c-8.9,0-16.6,6.4-16.6,16.7C102.4,162.3,109.1,169.7,119,169.7z"/>
		</g>
		<polygon class="st2" points="180.1,132.9 180.1,119.2 177.8,121.9 175,118.6 174.9,118.6 174.9,132.9 166.4,132.9 166.4,137.6 
			174.9,137.6 174.9,173.4 180.1,173.4 180.1,137.6 189.8,137.6 189.8,132.9 		"/>
	</g>
</g>
</svg>
