<svg id="Layer_1" data-name="Layer 1" xmlns="http://www.w3.org/2000/svg" xmlns:xlink="http://www.w3.org/1999/xlink" viewBox="0 0 410 300"><defs><style>.cls-1{fill:#fff;}.cls-2{fill:#1b75bc;}.cls-3{fill:#ffcb05;}.cls-4{fill:url(#linear-gradient);}.cls-5{opacity:0.7;}.cls-6{fill:#00558e;}.cls-7{fill:url(#New_Gradient_Swatch_5);}.cls-8{fill:url(#linear-gradient-2);}.cls-9{fill:url(#New_Gradient_Swatch_5-2);}.cls-10{fill:url(#New_Gradient_Swatch_5-3);}.cls-11{fill:url(#New_Gradient_Swatch_5-4);}.cls-12{fill:url(#linear-gradient-3);}.cls-13{fill:url(#linear-gradient-4);}.cls-14{fill:url(#linear-gradient-5);}.cls-15{fill:url(#linear-gradient-6);}.cls-16{fill:url(#New_Gradient_Swatch_5-5);}.cls-17{fill:url(#New_Gradient_Swatch_5-6);}.cls-18{fill:url(#New_Gradient_Swatch_5-7);}.cls-19{fill:url(#linear-gradient-7);}.cls-20{fill:url(#linear-gradient-8);}.cls-21{fill:url(#linear-gradient-9);}.cls-22{fill:url(#linear-gradient-10);}.cls-23{fill:url(#linear-gradient-11);}.cls-24{fill:url(#linear-gradient-12);}.cls-25{fill:url(#linear-gradient-13);}</style><linearGradient id="linear-gradient" x1="204.76" y1="76.35" x2="204.76" y2="219.14" gradientUnits="userSpaceOnUse"><stop offset="0.11" stop-color="#ffca05"/><stop offset="0.4" stop-color="#d6de23"/><stop offset="0.4" stop-color="#d6de23"/><stop offset="0.58" stop-color="#d6de23"/><stop offset="0.6" stop-color="#d0dc2e"/><stop offset="0.64" stop-color="#c1d849"/><stop offset="0.69" stop-color="#b6d55c"/><stop offset="0.74" stop-color="#b0d467"/><stop offset="0.79" stop-color="#aed36b"/><stop offset="0.81" stop-color="#a4d070"/><stop offset="0.85" stop-color="#89c97c"/><stop offset="0.9" stop-color="#76c484"/><stop offset="0.95" stop-color="#6bc189"/><stop offset="1" stop-color="#67c08b"/></linearGradient><linearGradient id="New_Gradient_Swatch_5" x1="324.7" y1="94.81" x2="322.81" y2="117.21" gradientTransform="translate(-111.2 -36.82) rotate(3.88)" gradientUnits="userSpaceOnUse"><stop offset="0" stop-color="#00b7eb"/><stop offset="0.04" stop-color="#02b2e7"/><stop offset="0.27" stop-color="#0d97d4"/><stop offset="0.5" stop-color="#1584c7"/><stop offset="0.74" stop-color="#1979bf"/><stop offset="1" stop-color="#1b75bc"/></linearGradient><linearGradient id="linear-gradient-2" x1="384.48" y1="-2.54" x2="398.23" y2="31.52" gradientTransform="translate(-181.52 24.63) rotate(9.98)" gradientUnits="userSpaceOnUse"><stop offset="0" stop-color="#00b7eb"/><stop offset="0.03" stop-color="#02b2e7"/><stop offset="0.2" stop-color="#0d97d4"/><stop offset="0.37" stop-color="#1584c7"/><stop offset="0.54" stop-color="#1979bf"/><stop offset="0.73" stop-color="#1b75bc"/></linearGradient><linearGradient id="New_Gradient_Swatch_5-2" x1="1886.61" y1="-1353.4" x2="1898.66" y2="-1353.4" gradientTransform="matrix(0.32, 0.95, 0.95, -0.32, 897.01, -2137.48)" xlink:href="#New_Gradient_Swatch_5"/><linearGradient id="New_Gradient_Swatch_5-3" x1="1891.63" y1="-1357.6" x2="1899.22" y2="-1357.6" gradientTransform="matrix(0.32, 0.95, 0.95, -0.32, 897.01, -2137.48)" xlink:href="#New_Gradient_Swatch_5"/><linearGradient id="New_Gradient_Swatch_5-4" x1="2075.61" y1="-1729.38" x2="2080.82" y2="-1729.38" gradientTransform="matrix(0.59, 0.81, 0.81, -0.59, 378.18, -2615.82)" xlink:href="#New_Gradient_Swatch_5"/><linearGradient id="linear-gradient-3" x1="162.49" y1="94.33" x2="162.49" y2="210.78" xlink:href="#linear-gradient"/><linearGradient id="linear-gradient-4" x1="197.42" y1="78.83" x2="197.42" y2="220.52" xlink:href="#linear-gradient"/><linearGradient id="linear-gradient-5" x1="224.74" y1="85.4" x2="224.74" y2="213.04" xlink:href="#linear-gradient"/><linearGradient id="linear-gradient-6" x1="248.54" y1="88.41" x2="248.54" y2="212.84" xlink:href="#linear-gradient"/><linearGradient id="New_Gradient_Swatch_5-5" x1="227.11" y1="97.29" x2="212.73" y2="113.13" gradientTransform="matrix(1, 0, 0, 1, 0, 0)" xlink:href="#New_Gradient_Swatch_5"/><linearGradient id="New_Gradient_Swatch_5-6" x1="176.5" y1="107.69" x2="200.73" y2="127.57" gradientTransform="matrix(1, 0, 0, 1, 0, 0)" xlink:href="#New_Gradient_Swatch_5"/><linearGradient id="New_Gradient_Swatch_5-7" x1="192.59" y1="148.32" x2="192.69" y2="148.4" gradientTransform="matrix(1, 0, 0, 1, 0, 0)" xlink:href="#New_Gradient_Swatch_5"/><linearGradient id="linear-gradient-7" x1="183.63" y1="100.8" x2="198.74" y2="100.8" gradientUnits="userSpaceOnUse"><stop offset="0" stop-color="#4ccbf1"/><stop offset="0.39" stop-color="#fff"/><stop offset="0.52" stop-color="#f3f9fd"/><stop offset="0.66" stop-color="#eaf5fc"/><stop offset="0.68" stop-color="#d5effb"/><stop offset="0.73" stop-color="#abe4f8"/><stop offset="0.78" stop-color="#89dbf5"/><stop offset="0.83" stop-color="#6ed4f3"/><stop offset="0.89" stop-color="#5bcff2"/><stop offset="0.94" stop-color="#50ccf1"/><stop offset="1" stop-color="#4ccbf1"/></linearGradient><linearGradient id="linear-gradient-8" x1="292.99" y1="-15.87" x2="300.59" y2="-15.87" gradientTransform="translate(-74.5 67.75) rotate(5.95)" xlink:href="#linear-gradient-7"/><linearGradient id="linear-gradient-9" x1="290.51" y1="-8.78" x2="294.96" y2="-8.78" gradientTransform="translate(-74.5 67.75) rotate(5.95)" xlink:href="#linear-gradient-7"/><linearGradient id="linear-gradient-10" x1="28.76" y1="312.87" x2="31.52" y2="312.87" gradientTransform="translate(122.51 -219.68) rotate(-11.74)" xlink:href="#linear-gradient-7"/><linearGradient id="linear-gradient-11" x1="202.78" y1="77.22" x2="210.67" y2="77.22" xlink:href="#linear-gradient-7"/><linearGradient id="linear-gradient-12" x1="265.73" y1="-16.66" x2="279.25" y2="-16.66" gradientTransform="translate(-74.86 73.05) rotate(6.1)" xlink:href="#linear-gradient-7"/><linearGradient id="linear-gradient-13" x1="115.15" y1="205.64" x2="128.58" y2="205.64" gradientTransform="translate(77.79 -93.29) rotate(-7.34)" xlink:href="#linear-gradient-7"/></defs><title>identities</title><path class="cls-1" d="M269.89,172q.22-.32.42-.66a8.83,8.83,0,0,0,.44-.86,18,18,0,0,0-1.06-16.64l-.24-.39a19.42,19.42,0,0,0-4.08-4.59c5.73-6.23,8.74-14.68,8.74-24.62,0-8-2-15-5.81-20.79a8.89,8.89,0,0,0,1-4V71.69a8.87,8.87,0,0,0-10.32-8.75,219.35,219.35,0,0,1-31,2.56,102.45,102.45,0,0,1-19.84-1.76,8.87,8.87,0,0,0-8.82,3.37c-.16.21-.3.42-.44.64-7-4.06-15.61-6.11-25.66-6.11-25.91,0-37.72,16.39-37.72,31.63,0,7.75,3.47,14.14,9.51,17.93-6,3.79-9.51,10.18-9.51,17.93a29.27,29.27,0,0,0,10.6,22.47q1.08.93,2.28,1.78-.8.73-1.55,1.51c-5.61,5.9-8.57,14-8.57,23.33,0,7.39,1.74,13.52,5.18,18.26a15.29,15.29,0,0,0-4.17,10.71,15.88,15.88,0,0,0,1,5.76,13.13,13.13,0,0,0-1.17,5.47c0,8.25,7.54,15,16.81,15a18.67,18.67,0,0,0,8.86-2.19,15.18,15.18,0,0,0,11.9.85,8.83,8.83,0,0,0,3.6.19,21.46,21.46,0,0,1,3.26-.26c.58,0,1,0,1.17,0a8.89,8.89,0,0,0,4-.52,9,9,0,0,0,5.68,1.07,24.54,24.54,0,0,1,3.28-.28c.4,0,.58,0,.59,0a8.84,8.84,0,0,0,2.3,0,8.45,8.45,0,0,0,1.3-.1,21.45,21.45,0,0,1,3.26-.26c.58,0,1,0,1.16,0a8.9,8.9,0,0,0,4-.52,9,9,0,0,0,5.68,1.07,24.54,24.54,0,0,1,3.28-.28c.4,0,.59,0,.59,0a8.88,8.88,0,0,0,3.22-.12,15.37,15.37,0,0,0,5.52,1,15.16,15.16,0,0,0,5.36-1,8.67,8.67,0,0,0,2.77,0,12.27,12.27,0,0,1,1.9-.13h1c.33,0,.57,0,.67,0a8.7,8.7,0,0,0,6.66-1.49,16,16,0,0,0,8.44,2.33c8.59,0,15.31-6.38,15.31-14.52a13.44,13.44,0,0,0-.94-5.06,11.26,11.26,0,0,0,.34-2.77,12.08,12.08,0,0,0-5.21-10,25,25,0,0,0,7.44-17.91A24.14,24.14,0,0,0,269.89,172Z"/><path class="cls-2" d="M269.79,182.76a20.79,20.79,0,0,0-3-11,9.1,9.1,0,0,0,1.28-1.7,6.45,6.45,0,0,0,.32-.62,15.52,15.52,0,0,0-.95-14.35l-.17-.28a16.8,16.8,0,0,0-5.92-5.61c6.59-5.83,10.18-14.32,10.18-25,0-8.2-2.16-15.18-6.34-20.72a6.33,6.33,0,0,0,1.48-4.08V71.68a6.34,6.34,0,0,0-7.37-6.25A221.75,221.75,0,0,1,227.93,68a105,105,0,0,1-20.33-1.81,6.34,6.34,0,0,0-7.51,5.33c-6.4-4.48-15.31-7.39-26.92-7.39C149,64.16,138,79.24,138,93.25c0,8.79,5,15.36,13,17.93-8,2.57-13,9.14-13,17.93a26.77,26.77,0,0,0,9.71,20.54,31.81,31.81,0,0,0,5,3.48,25.61,25.61,0,0,0-4.08,3.48c-5.15,5.42-7.87,12.89-7.87,21.59,0,8.49,2.47,14.5,6.13,18.54a12.81,12.81,0,0,0-5.12,10.43A12.6,12.6,0,0,0,143,213a10.31,10.31,0,0,0-1.45,5.38c0,6.85,6.4,12.43,14.27,12.43a16,16,0,0,0,8.88-2.62,11.71,11.71,0,0,0,6.92,2.11,12,12,0,0,0,4.87-1,6.31,6.31,0,0,0,3.3.37,24,24,0,0,1,3.65-.29c.85,0,1.39,0,1.39,0h0a6.32,6.32,0,0,0,3.92-.85l.17,0a6.34,6.34,0,0,0,5,1.45,26.83,26.83,0,0,1,3.65-.3,7.1,7.1,0,0,1,1,0,22.51,22.51,0,0,0,2.84-.06,24,24,0,0,1,3.65-.29c.85,0,1.39,0,1.39,0h0a6.32,6.32,0,0,0,3.92-.85l.17,0a6.34,6.34,0,0,0,5,1.45,26.83,26.83,0,0,1,3.65-.3,7.1,7.1,0,0,1,1,0,6.34,6.34,0,0,0,3-.29,12.84,12.84,0,0,0,5.35,1.15,12.65,12.65,0,0,0,5.12-1.07,6.19,6.19,0,0,0,2.62.15,14.64,14.64,0,0,1,2.29-.16h1.06a9.29,9.29,0,0,1,1,.06,6.21,6.21,0,0,0,5.79-1.93c.1-.11.19-.23.28-.35a13,13,0,0,0,8.64,3.09c7.16,0,12.78-5.26,12.78-12a10.58,10.58,0,0,0-1.11-4.88,8.67,8.67,0,0,0,.51-3,9.93,9.93,0,0,0-7.29-9.43A22.3,22.3,0,0,0,269.79,182.76Z"/><path class="cls-3" d="M157.13,208.91a3.67,3.67,0,0,1-2.51-3,1.85,1.85,0,0,1,1.84-1.9c1.21,0,1.56.63,1.56,1.08a.72.72,0,0,1-.79.73,1,1,0,0,1-.86-.48,3.82,3.82,0,0,0,7.62.09c0-2.47-2-5.36-7.39-5.36s-8.5,3.17-8.5,7.14c0,5,3.3,5.11,8.12,8.09a2.71,2.71,0,0,1,1.3,2.09,1.53,1.53,0,0,1-1.46,1.49,1.37,1.37,0,0,1-1.43-1.24.86.86,0,0,1,.92-1,2.14,2.14,0,0,1,.57.1,4.68,4.68,0,0,0-4.16-2.09c-2.25,0-4,1.24-4,3.78,0,3.43,3.68,6.09,7.93,6.09,4.73,0,8.95-3.24,8.95-8.09C164.8,211.29,160.55,210.34,157.13,208.91Z"/><path class="cls-3" d="M175.94,207.39a22.48,22.48,0,0,1-3.77-.34c.77,1.45.79,7.83.79,7.83,0,1.48,0,3.12-1.16,3.12-.88,0-1.11-1.79-1.11-3.15a33.23,33.23,0,0,1,.79-7,17.56,17.56,0,0,1-2.38.14,23.29,23.29,0,0,1-3.91-.34c.71,1,.82,4.74.82,6.95a18,18,0,0,1-.06,2.24c0,3.46,1.28,7.18,5.7,7.18,5.16,0,5.9-5.33,5.9-8.06,0-.43,0-.88,0-1.33a42,42,0,0,1,.57-7.35A14,14,0,0,1,175.94,207.39Z"/><path class="cls-3" d="M195,206.51a4.74,4.74,0,0,0-3.72,2.47,3,3,0,0,0-3.09-2.47,4.51,4.51,0,0,0-3.4,2c.09-.62.17-1.16.28-1.65a14,14,0,0,1-2.16.14,22.54,22.54,0,0,1-3.8-.34,41.92,41.92,0,0,1,.43,6.84,60.42,60.42,0,0,1-.68,9.93,30.51,30.51,0,0,1,4.62-.37c1.28,0,2.07.09,2.07.09a36,36,0,0,1-1-9.25c0-1.65.28-3.12,1.47-3.12s1,2.78,1,3.6a65.79,65.79,0,0,1-.68,8.23,16.72,16.72,0,0,1,3.43-.45,15.9,15.9,0,0,1,2.18.2c-.11,0-.06-7.21-.23-10.3.34-.77.68-1.28,1-1.28,1,0,1,2.78,1,3.6a46,46,0,0,1-.77,9.36,33.43,33.43,0,0,1,4.57-.37,13.23,13.23,0,0,1,1.9.11,75.23,75.23,0,0,1-.37-9.81C199.15,208.64,197.65,206.51,195,206.51Z"/><path class="cls-3" d="M216.59,206.51a4.74,4.74,0,0,0-3.72,2.47,3,3,0,0,0-3.09-2.47,4.51,4.51,0,0,0-3.4,2c.09-.62.17-1.16.28-1.65a14,14,0,0,1-2.16.14,22.54,22.54,0,0,1-3.8-.34,41.93,41.93,0,0,1,.43,6.84,60.42,60.42,0,0,1-.68,9.93,30.51,30.51,0,0,1,4.62-.37c1.28,0,2.07.09,2.07.09a36,36,0,0,1-1-9.25c0-1.65.28-3.12,1.47-3.12s1,2.78,1,3.6a65.79,65.79,0,0,1-.68,8.23,16.72,16.72,0,0,1,3.43-.45,15.9,15.9,0,0,1,2.18.2c-.11,0-.06-7.21-.23-10.3.34-.77.68-1.28,1-1.28,1,0,1,2.78,1,3.6a46,46,0,0,1-.77,9.36,33.43,33.43,0,0,1,4.57-.37,13.23,13.23,0,0,1,1.9.11,75.23,75.23,0,0,1-.37-9.81C220.76,208.64,219.25,206.51,216.59,206.51Z"/><path class="cls-3" d="M230.69,218.31a2.64,2.64,0,0,1-2.89-2.52c5.19,0,6.58-2.67,6.58-5.45,0-2.55-1.93-3.46-4.08-3.46-4.31,0-8.14,3.4-8.14,9.56,0,5.7,3.09,7.86,6.41,7.86a5.64,5.64,0,0,0,5.93-5.7,8.32,8.32,0,0,0-.65-3.15C233.72,218.08,230.69,218.31,230.69,218.31Zm-.79-7.63a.73.73,0,0,1,.79.71c0,1.33-1.9,2.07-3,2.1C227.85,212.32,228.62,210.68,229.89,210.68Z"/><path class="cls-3" d="M244.17,206.71a4.32,4.32,0,0,0-3.18,1.7,10.78,10.78,0,0,1,.26-1.53,11.6,11.6,0,0,1-2,.14,21.83,21.83,0,0,1-3.69-.34,41.92,41.92,0,0,1,.43,6.84,60.42,60.42,0,0,1-.68,9.93,24.27,24.27,0,0,1,4.43-.22,13.82,13.82,0,0,1,2,.15,26,26,0,0,1-1-9.41c.17-2,1-3.32,2.18-3.32s1.36.71,1.36,1.11-.34.79-1,.79a1,1,0,0,1-.91-.79,3.62,3.62,0,0,0-.62,2,2.93,2.93,0,0,0,3.06,3c2.5,0,3.91-2.5,3.91-5S247.49,206.71,244.17,206.71Z"/><path class="cls-3" d="M254.45,210.91a1.33,1.33,0,0,1,1.31-1.36c.88,0,1.16.48,1.16.79a.53.53,0,0,1-.6.51.68.68,0,0,1-.62-.34,2.78,2.78,0,0,0,5.53.11c0-1.73-1.39-3.74-5.33-3.74s-6.18,2.13-6.18,5c0,3.6,2.38,3.63,5.87,5.79a1.9,1.9,0,0,1,.94,1.48,1.12,1.12,0,0,1-1,1.11,1,1,0,0,1-1-.91.59.59,0,0,1,.65-.68,2.22,2.22,0,0,1,.43.06,3.41,3.41,0,0,0-3-1.5,2.61,2.61,0,0,0-2.92,2.69c0,2.41,2.67,4.23,5.79,4.23,3.43,0,6.44-2.21,6.44-5.64C261.82,213,254.45,214.2,254.45,210.91Z"/><path class="cls-4" d="M232.39,90.89h5a37.75,37.75,0,0,1,22.93,8.59V71.68a226.42,226.42,0,0,1-32.42,2.68,112,112,0,0,1-21.57-1.93c3.73,7.19,4,39.93,4,40.9,9.83-3.65,30.72-.54,30.72,11.7,0,4.62-2.26,7.73-7,7.73a5.67,5.67,0,0,1-6-5.47,4.41,4.41,0,0,1,4.18-4.19,8,8,0,0,1,2,.32c-2.48-4.51-8.7-7.08-14.8-7.08S208,118.85,206,124c-1.51-8-7.49-10.93-13.48-12.5,6.69-1.29,13.84-7.51,13.84-16.64,0-12.45-11.18-24.37-33.22-24.37-19.38,0-28.84,11.16-28.84,22.76,0,8.59,6.46,12.77,14.65,12.77,6.23,0,12.58-2.58,15.11-7.08a8.3,8.3,0,0,1-2.08.32,4.46,4.46,0,0,1-4.27-4.19,5.73,5.73,0,0,1,6.11-5.47c4.05,0,5.93,4.07,5.84,6.54-.27,7.13-5.71,11.71-15.29,14.29,6.26,1.33,15.75,7,15.8,16a6.07,6.07,0,0,1-6.35,6.33,5.74,5.74,0,0,1-6.11-5.47,4.46,4.46,0,0,1,4.27-4.19,8.3,8.3,0,0,1,2.08.32c-2.54-4.51-8.88-7.08-15.11-7.08-8.19,0-14.65,4.19-14.65,12.77,0,11.59,10.15,22.76,29.53,22.76,18.75,0,29.14-7.39,31.83-17.92,2.25,9.68,11.37,17.92,27.68,17.92,21.57,0,31.85-10.95,31.85-27.59,0-23.23-19.66-27.54-29.43-28.43A7.46,7.46,0,0,0,232.39,90.89Z"/><g class="cls-5"><path class="cls-1" d="M173.85,133.81a6.07,6.07,0,0,0,6.35-6.33c0-.18,0-.36,0-.53a6,6,0,0,1-6.33,5.81,5.78,5.78,0,0,1-6.08-4.92,3.5,3.5,0,0,0,0,.5A5.74,5.74,0,0,0,173.85,133.81Z"/><path class="cls-1" d="M206,125.06c2-5.15,7.22-7.67,13.45-7.67,5.51,0,11.1,2.11,14,5.84.26.05.54.11.83.19-2.48-4.51-8.7-7.08-14.8-7.08S208,118.85,206,124c-1.35-7.13-6.11-10.65-13.48-12.5-.82.07-1.59.16-2.32.2C197.4,113.28,204.5,117.08,206,125.06Z"/><path class="cls-1" d="M234,133.81c4.74,0,7-3.11,7-7.73,0-.13,0-.26,0-.39-.21,4.24-2.47,7.06-7,7.06a5.7,5.7,0,0,1-5.95-4.92c0,.24,0,.4,0,.56A5.59,5.59,0,0,0,234,133.81Z"/><path class="cls-1" d="M179.69,97.2a5.31,5.31,0,0,0,0-.71c-.43,6.93-5.84,11.41-15.26,13.94.6.13,1.23.3,1.89.5C174.69,108.27,179.44,103.84,179.69,97.2Z"/><path class="cls-1" d="M159,117.39c5.63,0,11.34,2.11,14.27,5.84.27.05.55.11.85.19-2.54-4.51-8.88-7.08-15.11-7.08-8.19,0-14.65,4.19-14.65,12.77,0,.16,0,.33,0,.49C144.61,121.39,151,117.39,159,117.39Z"/><path class="cls-1" d="M144.32,93.25c1.1-12.26,11-21.21,28.84-21.7,21.75,0,32.92,11.6,33.21,23.87,0-.19,0-.37,0-.56,0-12.45-11.18-24.37-33.22-24.37-19.38,0-28.84,11.16-28.84,22.76"/><path class="cls-1" d="M172,100.32a6.82,6.82,0,0,0,1.23-.13,9.92,9.92,0,0,0,.85-1.25,8.3,8.3,0,0,1-2.08.32,4.52,4.52,0,0,1-4.23-3.69C167.68,97.95,169.93,100.32,172,100.32Z"/><path class="cls-1" d="M227.93,75.42a226.42,226.42,0,0,0,32.42-2.68V71.68a226.42,226.42,0,0,1-32.42,2.68,112,112,0,0,1-21.57-1.93,9.68,9.68,0,0,1,.49,1.15A112.74,112.74,0,0,0,227.93,75.42Z"/></g><path class="cls-6" d="M190.22,111.7c1-.08,2-.2,2.43-.23a17.05,17.05,0,0,0,13.73-16.61C206.14,100.13,202.94,107.84,190.22,111.7Z"/><path class="cls-6" d="M232.39,90.89h5a37.75,37.75,0,0,1,22.93,8.59V98.37a37.75,37.75,0,0,0-22.93-8.59H230.1A10.51,10.51,0,0,1,232.39,90.89Z"/><path class="cls-6" d="M210.31,113.32c9.71-3.61,30.23-.6,30.7,11.29,0-.23,0-.46,0-.7,0-12.24-20.89-15.35-30.72-11.7"/><path class="cls-6" d="M173.85,88.49a5.86,5.86,0,0,0-6.07,6,5.77,5.77,0,0,1,6.07-4.89c3.67,0,5.55,3.34,5.8,5.8C179.56,91.95,177.91,88.5,173.85,88.49Z"/><path class="cls-6" d="M167.85,110.39l-1.55.55c6,1.9,13.47,7.09,13.87,14.91,0-.18,0-.36,0-.54C180.16,117.84,173.65,112.69,167.85,110.39Z"/><path class="cls-6" d="M159,104.92c5,0,10-1.64,13.1-4.58.22,0,.57-.06,1.16-.15-2.86,3.73-8.64,5.84-14.27,5.84-8.19,0-14.65-4.19-14.65-12.77C144.32,96.32,146.93,104.93,159,104.92Z"/><path class="cls-6" d="M172.1,122H172a4.46,4.46,0,0,0-4.27,4.19,4.6,4.6,0,0,0,0,.59,4.52,4.52,0,0,1,4.23-3.66,6.81,6.81,0,0,1,1.22.13A12.72,12.72,0,0,0,172.1,122Z"/><path class="cls-6" d="M232.31,122h-.09a4.33,4.33,0,0,0-4.12,4.16,4.22,4.22,0,0,0,0,.61,4.46,4.46,0,0,1,4.14-3.66,6.52,6.52,0,0,1,1.18.13A10.63,10.63,0,0,0,232.31,122Z"/><path class="cls-1" d="M203,126.94c.63,3.81.88,9.24-2,14.48,4.39-6.88,3.67-15.69,1.65-20h0c-2.21-4.43-6.2-7.59-13.08-8.72-17.09-2.8-7.1-25.07,8.76-12.09a24.64,24.64,0,0,1,8.35,14.7c-.78-11.25-9.6-18.27-14-21.1-9.62-6.19-3.53-18.75,8-11.15a18.18,18.18,0,0,1,4.16,4.17,18.7,18.7,0,0,0-2.6-4c-7.27-8.51,2.88-15.23,8.09-6.51,4.35,7.27.87,16-1.59,20.56a40.57,40.57,0,0,1,.37,8.83c2.18-6.34,6.5-12.32,14.92-14.16,10.51-2.3,13,10.6,2.4,12.74-8.37,1.69-13,5.32-15.66,9.49a27,27,0,0,0-3.07,9.69,23.14,23.14,0,0,0,6.73,20c-7.79-8-6.7-21.32-2.3-28.89,2.89-4.49,7.68-7.36,14.62-8.76,6.07-1.23,8.42-5.52,8-9.22-.33-3.34-3.09-6.93-8.36-6.93a12.87,12.87,0,0,0-2.74.31c-.62.13-1.22.3-1.81.48a4,4,0,0,0,.19-1.55,3.89,3.89,0,0,0-.17-.87q.69-.06,1.44-.07c3.43-.06,5.2-2.41,5.18-4.7s-1.78-4.54-5.11-4.54q-.35,0-.73,0a11,11,0,0,0-3.59,1,3,3,0,0,0-.17-.82,2.76,2.76,0,0,0-2.61-1.81,3.59,3.59,0,0,0-2.54,1.17,5.47,5.47,0,0,0-.53.65,15.8,15.8,0,0,0-1.54-3.46c-1.84-3.08-4.52-4.85-7.34-4.85a6.12,6.12,0,0,0-5.63,3.56,7.28,7.28,0,0,0-.13,5.51,11.84,11.84,0,0,0-4.63-1,7.29,7.29,0,0,0-7.31,5.26c-1.14,3.89.73,8.14,4.79,10.93a12.12,12.12,0,0,0-2.6-.29,9.57,9.57,0,0,0-9.76,8.68c-.33,4.06,2.15,9.27,10.22,10.59C196,115.41,201.16,118.23,203,126.94Zm11.92-47.07c1.85-1.89,4.13.43,1.27,2.89a8,8,0,0,0-2.51,4.43S212.65,82.18,214.91,79.87Zm7.94.93c5.25-.51,5.52,6,.48,6a16.8,16.8,0,0,0-4.8.69c2.49.2,3.12,4-.9,5.06a9.92,9.92,0,0,0-5.86,5,17.69,17.69,0,0,1,.35-2.17C212.61,91.54,214.67,81.6,222.85,80.8Z"/><path class="cls-7" d="M206.84,100.46s9.71-13.33,3.51-23.7c-5.21-8.72-15.37-2-8.09,6.51C206.79,88.58,207.62,96,206.84,100.46Z"/><path class="cls-8" d="M206.51,120.19s9-26.42-5.82-37.08c-11.53-7.6-17.63,5-8,11.15C197.67,97.47,208.39,106.1,206.51,120.19Z"/><path class="cls-9" d="M212,96.92s.72-15.13,10.88-16.12c5.25-.51,5.52,6,.48,6C213.27,87,213.54,92.72,212,96.92Z"/><path class="cls-10" d="M211.77,97.57s.59-7.6,5.13-9.7c3.71-1.72,5.52,3.52.73,4.73A9.92,9.92,0,0,0,211.77,97.57Z"/><path class="cls-11" d="M213.67,87.19s-1-5,1.24-7.32c1.85-1.89,4.13.43,1.27,2.89A8,8,0,0,0,213.67,87.19Z"/><path class="cls-12" d="M168.41,182.75c-.07,0-6.73.48-7.23-6.14,13,0,16.44-6.48,16.44-13.24,0-6.2-4.82-8.41-10.21-8.41-10.77,0-20.34,8.27-20.34,23.23,0,13.86,7.73,19.1,16,19.1,8.51,0,14.81-5.79,14.81-13.86a19.76,19.76,0,0,0-1.63-7.65C176,182.19,168.41,182.75,168.41,182.75Zm-2-18.54a1.79,1.79,0,0,1,2,1.72c0,3.24-4.75,5-7.37,5.1C161.32,168.2,163.24,164.2,166.43,164.2Z"/><path class="cls-13" d="M203.17,153.2c-4.82,0-7.87,2.41-9.78,6.59.28-2.34,1.54-7.18,1.54-7.18a62.3,62.3,0,0,1-8.46,3.25,43.28,43.28,0,0,1-6.62,1c1.7,6.24,2.12,14.77,2.12,25s-1.23,17.68-2.58,22.28c2.67-.11,5.52-.17,8.47-.17,2.64,0,5.19,0,7.61.14-2-4.12-2.26-12.11-2.45-17.64,1.13,5.46,4.25,9.29,8.79,9.29,5.81,0,13.61-5.81,13.61-22.4C215.43,153.49,206.43,153.2,203.17,153.2ZM197.36,183c-3.12,0-3.47-3-3.47-5.46v-5.6c0-2.91.5-8.22,3.83-8.22,3,0,3.19,5.53,3.19,8S200.69,183,197.36,183Z"/><path class="cls-14" d="M231.72,156.11a50.31,50.31,0,0,1-5.94-.56,23.31,23.31,0,0,1-9.56-3.69c1.47,4.78,2.37,22.54,2.37,22.54,0,1.37,0,17.52-2.75,22.85a50.46,50.46,0,0,1,11.82-.42,18.28,18.28,0,0,1,6,1.42c-2-7-3-18.3-3-26C230.62,165.47,230.83,160.29,231.72,156.11Z"/><path class="cls-15" d="M254.17,181.72c-2.2,0-6.8-1.34-6.8-8.62,0-10.62,5.1-11.21,6.31-11.21a2.89,2.89,0,0,1,.5,0h0a7.15,7.15,0,0,1,5.61,5.17h0c.32,1,1.88,1.36,2.79-.21a9.11,9.11,0,0,0-.66-8.61c-1.81-2.81-5-5.07-10.19-5.07-11,0-18.15,13.15-18.15,24.51,0,10.25,5.53,20.72,15.24,20.72,8.72,0,14.6-7.72,14.6-15.67a14.34,14.34,0,0,0-2.06-7.65A7.37,7.37,0,0,1,254.17,181.72Z"/><g class="cls-5"><path class="cls-1" d="M147.07,178.2c0-15,9.57-23.23,20.34-23.23,5.39,0,10.21,2.21,10.21,8.41,0,.25,0,.49,0,.74-.17-6-4.9-8.09-10.19-8.09C157,156.22,148.1,163.85,147.07,178.2Z"/><path class="cls-1" d="M168.41,167a1.71,1.71,0,0,0-.06-.44c-.54,2.78-4.84,4.35-7.31,4.48a3.37,3.37,0,0,0,0,1.06C163.66,172,168.41,170.22,168.41,167Z"/><path class="cls-1" d="M197.36,184c3.33,0,3.54-8.72,3.54-11.27,0-.16,0-.33,0-.51,0,3.06-.42,10.72-3.54,10.72s-3.47-3-3.47-5.46v1.06C193.88,181.05,194.24,184,197.36,184Z"/><path class="cls-1" d="M251.76,154.26c5.23,0,8.38,2.26,10.19,5.07.93,1.62,1.55,2.88,1.42,4.49a9.79,9.79,0,0,0-1.42-5.55c-1.81-2.81-5-5.07-10.19-5.07-10.38,0-17.34,11.74-18.08,22.62C234.85,164.19,243.31,154.26,251.76,154.26Z"/><path class="cls-1" d="M225.78,155.55a23.31,23.31,0,0,1-9.56-3.69c.11.36.22.79.32,1.28a24.43,24.43,0,0,0,9.24,3.47,49,49,0,0,0,5.74.55c.06-.36.13-.71.2-1A50.31,50.31,0,0,1,225.78,155.55Z"/><path class="cls-1" d="M186.47,155.86a43.28,43.28,0,0,1-6.62,1c.09.34.18.69.26,1a43.34,43.34,0,0,0,6.35-1,60.68,60.68,0,0,0,8.16-3.11c.18-.72.3-1.2.3-1.2A62.3,62.3,0,0,1,186.47,155.86Z"/><path class="cls-1" d="M203.17,153.2c-4.61,0-7.6,2.21-9.52,6.06-.11.59-.2,1.13-.26,1.59,1.91-4.18,5-6.59,9.78-6.59,3.23,0,12.09.29,12.25,19.59,0-.17,0-.34,0-.52C215.43,153.49,206.43,153.2,203.17,153.2Z"/><path class="cls-1" d="M261.4,176.17a7.37,7.37,0,0,1-7.23,6.61c-2.2,0-6.8-1.34-6.8-8.62,0-.26,0-.52,0-.77.13,7,4.63,8.33,6.79,8.33a7.37,7.37,0,0,0,7.23-6.61,13.45,13.45,0,0,1,2,6.87A11.47,11.47,0,0,0,261.4,176.17Z"/><path class="cls-1" d="M177.91,183.43a19.76,19.76,0,0,0-1.63-7.65c-.28,6.41-7.87,7-7.87,7s-6,.43-7.09-5.08h0c.5,6.62,7,6.14,7.09,6.14s7.58-.55,7.87-7A20.14,20.14,0,0,1,177.91,183.43Z"/></g><path class="cls-6" d="M166.43,164.2a1.86,1.86,0,0,1,1.92,1.26,2.12,2.12,0,0,0-2.15-2.22c-3.19,0-4.69,3.83-5,6.66h0C161.83,167.25,163.64,164.2,166.43,164.2Z"/><path class="cls-6" d="M177.63,163.37c0,6.73-3.24,13.23-16.44,13.23a8,8,0,0,1,0-1.11C168.28,175.23,177,173.38,177.63,163.37Z"/><path class="cls-6" d="M163.09,196.18c6.2,0,14.34-3.6,14.81-12.75,0,8.07-6.31,13.86-14.81,13.86-8.29,0-16-5.24-16-19.1C147.89,190.07,154.56,195.85,163.09,196.18Z"/><path class="cls-6" d="M263.46,182.76c0,7.95-5.88,15.67-14.6,15.67-9.71,0-15.24-10.47-15.24-20.72,0-.17,0-.34,0-.51.21,10.06,5.71,20.11,15.23,20.13A15.51,15.51,0,0,0,263.46,182.76Z"/><path class="cls-6" d="M187.87,202.84c-2.84,0-5.58.06-8.16.16-.1.39-.2.77-.31,1.12,2.67-.11,5.52-.17,8.47-.17,2.64,0,5.19,0,7.61.14-.16-.35-.31-.73-.45-1.12C192.74,202.88,190.35,202.84,187.87,202.84Z"/><path class="cls-6" d="M259.82,166h0a7.15,7.15,0,0,0-5.61-5.17h0a2.89,2.89,0,0,0-.5,0c-1.21,0-6.31.59-6.31,11.21,0,.11,0,.2,0,.3.25-9.84,5.12-10.41,6.3-10.41a2.89,2.89,0,0,1,.5,0h0a7.15,7.15,0,0,1,5.61,5.17h0c.32,1,1.88,1.36,2.79-.21a8.72,8.72,0,0,0,.76-4.15,4.83,4.83,0,0,1-.76,3C261.69,167.35,260.14,167,259.82,166Z"/><path class="cls-6" d="M197.71,162.58c-3.33,0-3.83,5.32-3.83,8.22v1.11c0-2.91.5-8.22,3.83-8.22,2.78,0,3.15,4.83,3.19,7.48,0-.22,0-.41,0-.58C200.9,168.11,200.69,162.58,197.71,162.58Z"/><path class="cls-6" d="M227.66,195.73a50.48,50.48,0,0,0-11.32.35,10.06,10.06,0,0,1-.5,1.18,50.46,50.46,0,0,1,11.82-.42,18.28,18.28,0,0,1,6,1.42c-.12-.4-.23-.82-.34-1.26A19.41,19.41,0,0,0,227.66,195.73Z"/><path class="cls-6" d="M201.82,194.62c-4.54,0-7.66-3.83-8.79-9.29,0,.42,0,.86,0,1.3,1.17,5.35,4.26,9.09,8.74,9.09,5.81,0,13.61-5.81,13.61-22.4,0-.19,0-.37,0-.56C215.25,188.93,207.57,194.62,201.82,194.62Z"/><path class="cls-16" d="M207.31,133.19c-.25-5.65.26-13.46,3.48-19,2.67-4.17,7.29-7.8,15.66-9.49,10.58-2.14,8.11-15-2.4-12.74-13.09,2.86-16.28,15.74-16.91,24.41C206.89,120.92,207.13,130.14,207.31,133.19Z"/><path class="cls-17" d="M189.56,112.75c6.88,1.13,10.87,4.28,13.08,8.72h0c2.71,5.72,3.09,19.55-8,26a19.57,19.57,0,0,0,11-13.33c2.25,9.68,10.9,18,27.59,18,2.42,0,5-.12,6.91-.29l6.23-1.23-.18-.38c-11.85,2.64-17.25.86-20.36,0-16-4.79-20.16-18-17.73-28.82h-.75c-.29-7.35-2.42-15.38-9.06-20.81C182.46,87.68,172.47,110,189.56,112.75Z"/><path class="cls-18" d="M193.08,148.27l-.71.32Z"/><path class="cls-19" d="M183.63,100.61c1.54-2.61,8.49-5.45,15.1,3C195.68,100.25,188.47,97.42,183.63,100.61Z"/><path class="cls-20" d="M226.11,83.14c-.26-1.5-4-2.92-7.68.46C220.38,82.36,224,81.22,226.11,83.14Z"/><path class="cls-21" d="M219.84,89c-.36-1.05-2.8-1.6-4.61,1.33C216.26,89.2,218.3,87.9,219.84,89Z"/><path class="cls-22" d="M217,79.82c-.4-.6-1.92-.44-2.44,1.83C214.9,80.69,215.86,79.42,217,79.82Z"/><path class="cls-23" d="M202.78,74c2.75-1.51,6.9,1.05,7.89,6.91C209.76,77.86,206.63,73.59,202.78,74Z"/><path class="cls-24" d="M191.34,82.76c2.25-1.48,9.48-1,12.91,6.41C201.28,84.72,195.16,82.13,191.34,82.76Z"/><path class="cls-25" d="M231.86,96.29c-.35-2.48-6.57-6.22-13.52.08C221.48,93.92,229.37,92.8,231.86,96.29Z"/><path class="cls-6" d="M193.08,148.27c.53-.25,1.05-.5,1.55-.77a18.52,18.52,0,0,0,6.45-6.21c-5.05,6.62-13.35,9.46-27.24,9.46-19.1,0-29.22-10.83-29.51-22.24,0,.2,0,.39,0,.59,0,11.59,10.15,22.76,29.53,22.76,7.5,0,13.65-1.18,18.52-3.27Z"/><path class="cls-6" d="M265.19,123.66c-.2,16.36-10.49,27.2-32,26.94a33.28,33.28,0,0,1-18.06-6,28.29,28.29,0,0,0,10.72,5.71c3.11.81,8.4,2.61,20.25,0h0c13.59-3.72,19.08-13.08,19.08-26C265.2,124.07,265.19,123.86,265.19,123.66Z"/><path class="cls-1" d="M235.77,95.84a7.57,7.57,0,0,1,.12,1.06c9.69.88,29,5.13,29.31,27.84,0-.16,0-.31,0-.47C265.2,101,245.54,96.72,235.77,95.84Z"/></svg>