<svg id="Layer_1" data-name="Layer 1" xmlns="http://www.w3.org/2000/svg" xmlns:xlink="http://www.w3.org/1999/xlink" viewBox="0 0 410 300"><defs><style>.cls-1{fill:#88ac2e;}.cls-2{fill:url(#linear-gradient);}</style><linearGradient id="linear-gradient" x1="205.37" y1="63.41" x2="205.37" y2="112.97" gradientUnits="userSpaceOnUse"><stop offset="0" stop-color="#bed158"/><stop offset="0.87" stop-color="#4e6e32"/></linearGradient></defs><title>identities</title><path class="cls-1" d="M83.61,209.78,82,213.63H80.32l6.26-14.21,6.1,14.21H91l-1.6-3.85Zm2.93-6.84-2.32,5.43h4.59Z"/><path class="cls-1" d="M104.59,213.63h-1.51V201.47H99.81v-1.4h8.09v1.4h-3.31Z"/><path class="cls-1" d="M134.06,213.63h-1.51V201.47h-3.27v-1.4h8.09v1.4h-3.31Z"/><path class="cls-1" d="M156.08,205.57v-5.5h1.51v13.56h-1.51V207h-6.94v6.66h-1.51V200.07h1.51v5.5Z"/><path class="cls-1" d="M169,200.07h7v1.4h-5.52v4h5.36v1.4h-5.36v5.32h5.52v1.41h-7Z"/><path class="cls-1" d="M211.91,206.81a6.46,6.46,0,0,1-1.4,4.78,6.71,6.71,0,0,1-5,2.26,7,7,0,1,1,5.83-11.1l-1.1,1a5.5,5.5,0,0,0-4.66-2.55A5.63,5.63,0,0,0,200,206.9a5.47,5.47,0,0,0,1.58,3.83,5.71,5.71,0,0,0,3.85,1.72c2.36,0,4.84-1.72,4.84-4.24h-4v-1.4Z"/><path class="cls-1" d="M224,209.78l-1.64,3.85h-1.66L227,199.42l6.1,14.21H231.4l-1.6-3.85Zm2.93-6.84-2.32,5.43h4.59Z"/><path class="cls-1" d="M245.06,213.63h-1.51V200.07h2c2.57,0,5,.68,5,3.74a3.54,3.54,0,0,1-3.4,3.74l4.32,6.08h-1.85l-4.1-6h-.38Zm0-7.29h.47c1.71,0,3.44-.32,3.44-2.43s-1.64-2.44-3.45-2.44h-.45Z"/><path class="cls-1" d="M262.29,200.07h2.56a7.38,7.38,0,0,1,5.28,1.63,7,7,0,0,1,0,10.22,7.2,7.2,0,0,1-5.36,1.71h-2.52Zm2.61,12.15a5.68,5.68,0,0,0,4.28-1.4,5.54,5.54,0,0,0-.07-8,5.83,5.83,0,0,0-4.21-1.31h-1.1v10.75Z"/><path class="cls-1" d="M283.13,200.07h7v1.4h-5.52v4H290v1.4h-5.36v5.32h5.52v1.41h-7Z"/><path class="cls-1" d="M301.46,199.5,312,210.57v-10.5h1.51v14.17L303,203.18v10.45h-1.51Z"/><path class="cls-1" d="M331.17,202.71a2.49,2.49,0,0,0-2.34-1.47,2.15,2.15,0,0,0-2.25,2.1c0,1.17,1.21,1.71,2.12,2.12l.9.4c1.76.77,3.25,1.65,3.25,3.81a4.28,4.28,0,0,1-8.49.68l1.48-.41a2.79,2.79,0,0,0,2.71,2.52,2.73,2.73,0,0,0,2.79-2.64c0-1.58-1.24-2.12-2.5-2.7l-.83-.36c-1.58-.72-2.95-1.53-2.95-3.47a3.56,3.56,0,0,1,3.79-3.45,3.89,3.89,0,0,1,3.51,2.1Z"/><path class="cls-2" d="M125.11,121.68c-1.18,2.09-1.25,5.5-1.25,7.87V144h-3.55v2.93h3.55v29.25H127V146.9h8.08V144H127V130.18c0-4,.07-9.47,5.5-9.47a15.43,15.43,0,0,1,2.58.42v-2.85a7.55,7.55,0,0,0-2.78-.49A8.05,8.05,0,0,0,125.11,121.68Zm29,29.53c0-2.79,2.79-5,5.5-5a6.12,6.12,0,0,1,5.64,3.62l2.72-1.39a9.53,9.53,0,0,0-8.22-5.16c-4.67,0-8.78,3.27-8.78,8.15,0,5.43,5,7.31,9.4,8.91,3.2,1.11,6.27,2.37,6.27,6.34a7.19,7.19,0,0,1-7.24,7.24c-4.25,0-6.83-2.72-8-6.55l-3.06,1a11.07,11.07,0,0,0,11.07,8.5c5.78,0,10.38-4.11,10.38-10C169.75,155.19,154.08,158.95,154.08,151.22ZM95.52,121.68c-1.18,2.09-1.25,5.5-1.25,7.87V144H90.71v2.93h3.55v29.25H97.4V146.9h8.08V144H97.4V130.18c0-4,.07-9.47,5.5-9.47a15.43,15.43,0,0,1,2.58.42v-2.85a7.55,7.55,0,0,0-2.78-.49A8.06,8.06,0,0,0,95.52,121.68ZM59.36,143.28a16.79,16.79,0,1,0,16.93,16.79A16.75,16.75,0,0,0,59.36,143.28Zm-.21,30.65c-7.59,0-13.37-6.48-13.37-13.79s5.71-13.93,13.37-13.93a13.86,13.86,0,1,1,0,27.72Zm293.27-22.71c0-2.79,2.79-5,5.5-5a6.12,6.12,0,0,1,5.64,3.62l2.72-1.39a9.53,9.53,0,0,0-8.22-5.16c-4.67,0-8.78,3.27-8.78,8.15,0,5.43,5,7.31,9.4,8.91,3.2,1.11,6.27,2.37,6.27,6.34a7.19,7.19,0,0,1-7.24,7.24c-4.25,0-6.83-2.72-8-6.55l-3.06,1a11.07,11.07,0,0,0,11.08,8.5c5.78,0,10.38-4.11,10.38-10C368.1,155.19,352.43,158.95,352.43,151.22ZM245.8,143.28a16.79,16.79,0,1,0,16.93,16.79A16.75,16.75,0,0,0,245.8,143.28Zm-.21,30.65c-7.59,0-13.37-6.48-13.37-13.79s5.71-13.93,13.37-13.93a13.86,13.86,0,1,1,0,27.72ZM330,132.48h-3.13V144h-3.55v2.93h3.55v29.25H330V146.9h5.64V144H330Zm-36.35,10.8a16.79,16.79,0,1,0,16.93,16.79A16.75,16.75,0,0,0,293.64,143.28Zm-.21,30.65c-7.59,0-13.37-6.48-13.37-13.79s5.71-13.93,13.37-13.93a13.86,13.86,0,1,1,0,27.72Zm-97-108.61c-7.31,7.15-9.6,14.39-9.11,20.58-.34-.39-.69-.77-1.08-1.16-8.63-8.9-29.68-10.53-43.35,3.55,4.81,4.74,14.32,4.27,23.44,6.77,8.68,2.29,14.38,5.68,18.53,10.8-1.16-11-12.46-22.7-31.89-20.81,17.2-3.24,30.62,5.36,34.36,16.08,1.42,4.05,1.57,10.63,1.66,20.12v54.91h3.13V160.27c0-6.55,1.32-14.07,9.4-14.07,7,0,7.73,4.74,7.73,10.52v19.43h3.13V156.72c0-8.29-2.3-13.44-10.59-13.44a10.54,10.54,0,0,0-9.54,5.71h-.14v-30.3h0c0-7.59.23-17.44,1-22.26,2.86-18.06,24-36.28,55-30.65-30-4.48-50.54,15.1-51.69,32.36,7.08-8.85,17.42-13.22,30.92-16.79,14.19-3.9,29-3.16,36.45-10.53C242.54,48.94,209.81,51.47,196.4,65.31Z"/></svg>