<svg id="Layer_1" data-name="Layer 1" xmlns="http://www.w3.org/2000/svg" viewBox="0 0 410 300"><defs><style>.cls-1,.cls-2{fill:#231f20;}.cls-2,.cls-3{stroke:#fff;}.cls-2{stroke-width:2.47px;}.cls-3{fill:none;stroke-width:2.66px;}</style></defs><title>identities</title><path class="cls-1" d="M75.63,168.37l-1.57,3.85H73.3l4.91-12.1,4.89,12.1h-.76l-1.57-3.85ZM78.21,162l-2.3,5.65h4.58Z"/><path class="cls-1" d="M87.52,172.22h-.75v-11h-3v-.7h6.8v.7h-3Z"/><path class="cls-1" d="M100.14,160.51h2.11A5.78,5.78,0,0,1,106.6,162a6.06,6.06,0,0,1,.06,8.68,5.76,5.76,0,0,1-4.41,1.55h-2.11Zm2.1,11a5.15,5.15,0,0,0,3.93-1.41,5.29,5.29,0,0,0-.14-7.62,5.2,5.2,0,0,0-3.79-1.27h-1.35v10.31Z"/><path class="cls-1" d="M112.72,161.21v4.25h4.72v.7h-4.72v5.36h4.84v.7H112V160.51h5.59v.7Z"/><path class="cls-1" d="M132.14,172.6l-9.83-10.45v10.06h-.75V160.35l9.83,10.37V160.51h.75Z"/><path class="cls-1" d="M139.41,170.51h0l3.46-10h.75l-4.26,12.1-4.21-12.1h.75Z"/><path class="cls-1" d="M147.44,161.21v4.25h4.72v.7h-4.72v5.36h4.84v.7H146.7V160.51h5.59v.7Z"/><path class="cls-1" d="M162.08,172.22h-.85l-3.82-5.54H157v5.54h-.75V160.51h1.46a4.31,4.31,0,0,1,2.67.59,2.94,2.94,0,0,1,1.18,2.52c0,2-1.41,3.09-3.35,3.06ZM158,166a2.92,2.92,0,0,0,2.05-.54,2.34,2.34,0,0,0,.82-1.85,2.24,2.24,0,0,0-1.24-2.11,5,5,0,0,0-2.1-.26H157V166Z"/><path class="cls-1" d="M172.1,172.22V160.51h2.34a3.38,3.38,0,0,1,2.42.68,3.07,3.07,0,0,1,1,2.42A2.53,2.53,0,0,1,176.5,166a2.94,2.94,0,0,1,2.42,3,3.09,3.09,0,0,1-1.09,2.42,3.86,3.86,0,0,1-2.73.84Zm.75-6.4h1.29a3.17,3.17,0,0,0,2.1-.43,2.06,2.06,0,0,0,.87-1.88,2.2,2.2,0,0,0-1-1.93,3.69,3.69,0,0,0-2-.37h-1.29Zm0,5.7h1.79a4.09,4.09,0,0,0,2.39-.45,2.47,2.47,0,0,0,1.15-2.08,2.3,2.3,0,0,0-1.21-2.1,5.8,5.8,0,0,0-2.47-.37h-1.65Z"/><path class="cls-1" d="M194,166.36a6.07,6.07,0,1,1-6.07-6A6.1,6.1,0,0,1,194,166.36Zm-11.4,0a5.33,5.33,0,1,0,5.33-5.31A5.36,5.36,0,0,0,182.63,166.36Z"/><path class="cls-1" d="M200.17,172.22h-.75v-11h-3v-.7h6.8v.7h-3Z"/><path class="cls-1" d="M206.17,168.37l-1.57,3.85h-.76l4.91-12.1,4.89,12.1h-.76l-1.57-3.85Zm2.58-6.35-2.3,5.65H211Z"/><path class="cls-1" d="M227.27,172.6l-9.83-10.45v10.06h-.75V160.35l9.83,10.37V160.51h.75Z"/><path class="cls-1" d="M232.24,172.22h-.75V160.51h.75Z"/><path class="cls-1" d="M245.77,162.9a5.34,5.34,0,0,0-3.93-1.85,5.44,5.44,0,0,0-5.33,5.39,5.1,5.1,0,0,0,1.57,3.62,5.68,5.68,0,0,0,3.76,1.62,5.57,5.57,0,0,0,3.93-1.79v1a6,6,0,1,1-3.88-10.56,5.81,5.81,0,0,1,3.88,1.52Z"/><path class="cls-1" d="M267,166.33a5.57,5.57,0,0,1-1.21,4.13,5.78,5.78,0,0,1-4.33,2,6.06,6.06,0,1,1,5-9.58l-.95.89a4.76,4.76,0,0,0-4-2.21,4.86,4.86,0,0,0-4.78,4.89,4.72,4.72,0,0,0,1.37,3.31,4.93,4.93,0,0,0,3.32,1.49c2,0,4.18-1.49,4.18-3.67h-3.48v-1.21Z"/><path class="cls-1" d="M272.31,168.89l-1.41,3.32h-1.43l5.4-12.27,5.26,12.27H278.7l-1.38-3.32Zm2.53-5.9-2,4.69h4Z"/><path class="cls-1" d="M284.43,172.22h-1.3V160.51h1.69c2.22,0,4.29.59,4.29,3.23a3.06,3.06,0,0,1-2.93,3.23l3.73,5.25h-1.6l-3.54-5.14h-.33Zm0-6.29h.4c1.48,0,3-.28,3-2.1s-1.41-2.11-3-2.11h-.39Z"/><path class="cls-1" d="M293.26,160.51h2.21a6.39,6.39,0,0,1,4.57,1.41,6,6,0,0,1,0,8.82,6.22,6.22,0,0,1-4.63,1.48h-2.17Zm2.25,10.5a4.91,4.91,0,0,0,3.7-1.21,4.79,4.79,0,0,0-.06-6.94,5,5,0,0,0-3.63-1.13h-.95V171Z"/><path class="cls-1" d="M305.5,160.51h6.07v1.21H306.8v3.48h4.63v1.21H306.8V171h4.77v1.21H305.5Z"/><path class="cls-1" d="M315.58,160l9.13,9.57v-9.07H326v12.24l-9.13-9.55v9h-1.3Z"/><path class="cls-1" d="M335.48,162.79a2.15,2.15,0,0,0-2-1.27,1.86,1.86,0,0,0-1.94,1.82c0,1,1,1.47,1.83,1.83l.78.34c1.52.67,2.81,1.43,2.81,3.29a3.7,3.7,0,0,1-7.33.59l1.27-.36a2.41,2.41,0,0,0,2.35,2.17,2.35,2.35,0,0,0,2.41-2.28c0-1.37-1.07-1.83-2.16-2.33l-.71-.31c-1.37-.62-2.55-1.32-2.55-3a3.07,3.07,0,0,1,3.28-3,3.36,3.36,0,0,1,3,1.82Z"/><path class="cls-1" d="M161.4,212.74h-1.46v-7.21H159v-1.35h.89V201.1h1.46v3.08h1.53v1.35H161.4Z"/><path class="cls-1" d="M167.28,201a1,1,0,0,1-2.08,0,1,1,0,1,1,2.08,0ZM167,212.74h-1.46v-8.56H167Z"/><path class="cls-1" d="M174.12,206.16a1.37,1.37,0,0,0-1.17-.87,1,1,0,0,0-1.06.95c0,.78,1,1.07,2,1.49a2.61,2.61,0,0,1,2,2.46A2.8,2.8,0,0,1,173,213a3.08,3.08,0,0,1-3-2.17l1.29-.55c.36.8.78,1.37,1.75,1.37a1.3,1.3,0,0,0,1.38-1.31c0-1.91-3.86-1.26-3.86-4a2.44,2.44,0,0,1,2.55-2.42,2.59,2.59,0,0,1,2.28,1.59Z"/><path class="cls-1" d="M182,206.16a1.37,1.37,0,0,0-1.17-.87,1,1,0,0,0-1.06.95c0,.78,1,1.07,2,1.49a2.61,2.61,0,0,1,2,2.46,2.8,2.8,0,0,1-2.9,2.79,3.08,3.08,0,0,1-3-2.17l1.29-.55c.36.8.78,1.37,1.75,1.37a1.3,1.3,0,0,0,1.38-1.31c0-1.91-3.86-1.26-3.86-4a2.44,2.44,0,0,1,2.55-2.42,2.59,2.59,0,0,1,2.28,1.59Z"/><path class="cls-1" d="M187.83,209c0,1.44.16,2.68,1.93,2.68s1.93-1.24,1.93-2.68v-4.77h1.46v4.94c0,2.28-.86,3.86-3.39,3.86s-3.39-1.59-3.39-3.86v-4.94h1.46Z"/><path class="cls-1" d="M197.18,208.77a2.77,2.77,0,0,0,2.81,2.86,2.93,2.93,0,0,0,2.6-1.77l1.24.71a4.33,4.33,0,0,1-4,2.4,4.14,4.14,0,0,1-4.19-4.41c0-2.53,1.48-4.63,4.15-4.63s4.21,2.28,4.06,4.83Zm5.19-1.24a2.61,2.61,0,0,0-2.51-2.24,2.71,2.71,0,0,0-2.6,2.24Z"/><path class="cls-1" d="M218.92,206.27a3.88,3.88,0,0,0-3-1.37,3.63,3.63,0,0,0,0,7.25,4.05,4.05,0,0,0,3.1-1.51v1.11a4.65,4.65,0,0,1-3.06,1.17,4.39,4.39,0,0,1,0-8.78,4.41,4.41,0,0,1,2.93,1Z"/><path class="cls-1" d="M227.72,204.32v5a3.83,3.83,0,0,1-.51,2.42,3.36,3.36,0,0,1-5,0,3.84,3.84,0,0,1-.51-2.42v-5h.82v4.75c0,1.62.18,3.08,2.2,3.08s2.2-1.46,2.2-3.08v-4.75Z"/><path class="cls-1" d="M231.87,212.74H231v-15h.82Z"/><path class="cls-1" d="M236.22,212.74h-.82v-7.65h-.93v-.77h.93v-3h.82v3h1.48v.77h-1.48Z"/><path class="cls-1" d="M245.68,204.32v5a3.83,3.83,0,0,1-.51,2.42,3.36,3.36,0,0,1-5,0,3.84,3.84,0,0,1-.51-2.42v-5h.82v4.75c0,1.62.18,3.08,2.2,3.08s2.2-1.46,2.2-3.08v-4.75Z"/><path class="cls-1" d="M249.82,205.42h0a1.91,1.91,0,0,1,1.82-1.28,2.13,2.13,0,0,1,.89.2l-.44.73a1.13,1.13,0,0,0-.58-.16c-1.84,0-1.73,2.29-1.73,3.53v4.3H249v-8.42h.82Z"/><path class="cls-1" d="M254.7,208.6a3.28,3.28,0,0,0,3.37,3.55,3.37,3.37,0,0,0,3-1.91l.69.4a4.25,4.25,0,1,1-3.77-6.5c2.55,0,4.06,2,4,4.46Zm6.49-.77a3.26,3.26,0,0,0-6.49,0Z"/><path class="cls-1" d="M271.75,205.83h0a3.77,3.77,0,0,1,3.21-1.69,4.15,4.15,0,0,1,4.15,4.46,4,4,0,0,1-4.12,4.32,3.81,3.81,0,0,1-3.24-1.64h0v6.38h-.82V204.32h.82Zm-.05,2.88a3.26,3.26,0,0,0,3.35,3.44,3.36,3.36,0,0,0,3.28-3.53,3.46,3.46,0,0,0-3.32-3.72C272.86,204.91,271.69,206.69,271.69,208.71Z"/><path class="cls-1" d="M282.59,205.42h0a1.91,1.91,0,0,1,1.82-1.28,2.13,2.13,0,0,1,.89.2l-.44.73a1.13,1.13,0,0,0-.58-.16c-1.84,0-1.73,2.29-1.73,3.53v4.3h-.82v-8.42h.82Z"/><path class="cls-1" d="M295.46,208.53a4.4,4.4,0,1,1-4.43-4.39A4.34,4.34,0,0,1,295.46,208.53Zm-8,0a3.58,3.58,0,1,0,3.5-3.64A3.57,3.57,0,0,0,287.48,208.55Z"/><path class="cls-1" d="M305.61,212.34a5.61,5.61,0,0,1-.84,3.57,4.06,4.06,0,0,1-3.35,1.62,3.83,3.83,0,0,1-4.15-3.61h.82a3.07,3.07,0,0,0,3.26,2.84,3.15,3.15,0,0,0,2.7-1.26,5.42,5.42,0,0,0,.75-3.19v-1h0a4.25,4.25,0,1,1-3.17-7.14,3.74,3.74,0,0,1,3.17,1.64h0v-1.46h.82Zm-7.4-3.86a3.44,3.44,0,0,0,3.32,3.68c2.15,0,3.32-1.75,3.32-3.77a3.3,3.3,0,0,0-3.37-3.48A3.43,3.43,0,0,0,298.22,208.48Z"/><path class="cls-1" d="M309.88,205.42h0a1.91,1.91,0,0,1,1.82-1.28,2.13,2.13,0,0,1,.89.2l-.44.73a1.13,1.13,0,0,0-.58-.16c-1.84,0-1.73,2.29-1.73,3.53v4.3h-.82v-8.42h.82Z"/><path class="cls-1" d="M322.16,212.74h-.82v-1.51h0a3.77,3.77,0,0,1-3.21,1.69,4.15,4.15,0,0,1-4.15-4.45,4,4,0,0,1,4.12-4.34,3.87,3.87,0,0,1,3.24,1.64h0v-1.46h.82Zm-7.4-4.26a3.44,3.44,0,0,0,3.32,3.68c2.15,0,3.32-1.75,3.32-3.77a3.3,3.3,0,0,0-3.37-3.48A3.43,3.43,0,0,0,314.77,208.48Z"/><path class="cls-1" d="M326.43,205.38h0a2.32,2.32,0,0,1,2.11-1.24,2.48,2.48,0,0,1,2.37,1.53,2.59,2.59,0,0,1,2.46-1.53c2.17,0,2.6,1.48,2.6,3.32v5.28h-.82v-5.39c0-1.29-.2-2.44-1.8-2.44s-2.17,1.53-2.17,3v4.85h-.82v-5.19c0-1.31-.24-2.64-1.88-2.64s-2.09,1.84-2.09,3.21v4.63h-.82v-8.42h.82Z"/><path d="M198.35,142.18l-21.65-31V90.08l3.85-5.51c.87-1.25.34-2.27-1.19-2.27H162.57c-1.52,0-2.06,1-1.18,2.27l3.66,5.25v21.1l-21.84,31.26c-2.51,3.6-1,6.54,3.41,6.54h48.31C199.33,148.72,200.86,145.78,198.35,142.18Z"/><path class="cls-1" d="M77.06,136H74.39V111h-3v-2.5h3V98.71h2.67v9.81h4.81V111H77.06Z"/><path class="cls-1" d="M90.37,86.94V112.8h.12a9,9,0,0,1,8.14-4.87c7.07,0,9,4.4,9,11.47V136H105V119.39c0-4.93-.59-9-6.6-9-6.89,0-8,6.42-8,12V136H87.7v-49Z"/><path class="cls-1" d="M115.63,122.48c-.18,7,4.63,11.59,11,11.59a11,11,0,0,0,9.69-6.24l2.26,1.31a13.39,13.39,0,0,1-12.3,7.43c-8.14,0-13.31-6.6-13.31-14.38s5.29-14.26,13.31-14.26c8.32,0,13.25,6.65,13.19,14.56Zm21.16-2.5a10.63,10.63,0,0,0-21.16,0Z"/><path class="cls-1" d="M214.21,130.86h13.61V136h-19.2V91.17h5.59Z"/><path class="cls-1" d="M243.81,124.74,238.7,136h-6l21.39-46.71L275.48,136h-6l-5.11-11.23Zm10.28-23.24-8,18.13h15.93Z"/><path class="cls-1" d="M280.53,91.17H286c8.44,0,16.4,2.2,16.4,12.3,0,3.27-1.78,7.07-4.81,8.5v.12c5.29,1,9,6.12,9,11.35,0,9-7.67,12.54-15.57,12.54H280.53ZM286.12,111h1.43c5.29,0,9.63-1.07,9.63-7.49s-4.28-7.37-9.51-7.37h-1.54Zm0,20h4.28c5.17,0,10.58-1.55,10.58-7.91s-6.42-7.61-11.41-7.61h-3.45Z"/><path class="cls-1" d="M333.89,99.66a7.68,7.68,0,0,0-7.19-4.22c-3.57,0-7.49,2.44-7.49,6.36,0,3.51,3.45,5.35,6.24,6.42l3.21,1.25c6.36,2.5,11.11,6,11.11,13.49,0,8.14-6.3,14-14.32,14-7.25,0-12.9-5.35-13.85-12.54l5.65-1.19a8.39,8.39,0,0,0,8.68,8.5c4.81,0,8.26-4,8.26-8.74s-3.86-6.89-7.73-8.5l-3.09-1.31c-5.11-2.2-9.75-5.11-9.75-11.35,0-7.25,6.42-11.59,13.19-11.59A12.78,12.78,0,0,1,338.35,97Z"/><rect class="cls-1" x="74.08" y="144.8" width="263.31" height="3.99"/><path class="cls-2" d="M176,134.86a20.08,20.08,0,0,0-5,15.43,19.64,19.64,0,0,0,19.9-21.85A20.08,20.08,0,0,0,176,134.86Z"/><path class="cls-2" d="M165.85,134.86a20.12,20.12,0,0,1,5,15.43,19.65,19.65,0,0,1-19.9-21.85A20.1,20.1,0,0,1,165.85,134.86Z"/><path class="cls-3" d="M163.55,134.56a20.76,20.76,0,0,0,7.39,15.57,20.09,20.09,0,0,0,0-31.14A20.76,20.76,0,0,0,163.55,134.56Z"/></svg>