<svg id="Layer_1" data-name="Layer 1" xmlns="http://www.w3.org/2000/svg" xmlns:xlink="http://www.w3.org/1999/xlink" viewBox="0 0 410 300"><defs><style>.cls-1{fill:url(#linear-gradient);}.cls-2{fill:#e1f3fc;}.cls-3{fill:url(#New_Gradient_Swatch_11);}.cls-4{fill:#00adee;}.cls-5{fill:url(#New_Gradient_Swatch_11-2);}.cls-6{fill:url(#New_Gradient_Swatch_3);}.cls-7{fill:url(#New_Gradient_Swatch_3-2);}.cls-8{fill:url(#New_Gradient_Swatch_3-3);}.cls-9{fill:url(#New_Gradient_Swatch_3-4);}.cls-10{fill:url(#New_Gradient_Swatch_3-5);}.cls-11{fill:url(#New_Gradient_Swatch_3-6);}.cls-12{fill:url(#New_Gradient_Swatch_3-7);}.cls-13{fill:url(#New_Gradient_Swatch_3-8);}.cls-14{fill:url(#New_Gradient_Swatch_3-9);}.cls-15{fill:url(#New_Gradient_Swatch_3-10);}.cls-16{fill:url(#linear-gradient-2);}.cls-17{fill:url(#New_Gradient_Swatch_3-11);}.cls-18{fill:url(#New_Gradient_Swatch_3-12);}.cls-19{fill:url(#New_Gradient_Swatch_3-13);}.cls-20{fill:url(#linear-gradient-3);}.cls-21{fill:#fff;}.cls-22{fill:url(#linear-gradient-4);}.cls-23{fill:url(#linear-gradient-5);}.cls-24{fill:url(#linear-gradient-6);}</style><linearGradient id="linear-gradient" x1="153.87" y1="100.26" x2="284.41" y2="205.35" gradientUnits="userSpaceOnUse"><stop offset="0" stop-color="#44c7f4"/><stop offset="0.57" stop-color="#9cdbf8"/><stop offset="1" stop-color="#b8e4fa"/></linearGradient><linearGradient id="New_Gradient_Swatch_11" x1="295.95" y1="173.02" x2="173.94" y2="179.07" gradientUnits="userSpaceOnUse"><stop offset="0" stop-color="#005e9c"/><stop offset="0.43" stop-color="#0088cf"/><stop offset="1" stop-color="#00adee"/></linearGradient><linearGradient id="New_Gradient_Swatch_11-2" x1="204.6" y1="170.14" x2="260.86" y2="170.14" xlink:href="#New_Gradient_Swatch_11"/><linearGradient id="New_Gradient_Swatch_3" x1="84.71" y1="149.26" x2="84.71" y2="105.18" gradientUnits="userSpaceOnUse"><stop offset="0" stop-color="#ffca05"/><stop offset="0.36" stop-color="#ffca05"/><stop offset="0.76" stop-color="#fd0"/><stop offset="1" stop-color="#ffdf5d"/></linearGradient><linearGradient id="New_Gradient_Swatch_3-2" x1="111.25" y1="158.9" x2="111.25" y2="113.45" xlink:href="#New_Gradient_Swatch_3"/><linearGradient id="New_Gradient_Swatch_3-3" x1="138.02" y1="152.35" x2="138.02" y2="120.25" xlink:href="#New_Gradient_Swatch_3"/><linearGradient id="New_Gradient_Swatch_3-4" x1="95.58" y1="196.7" x2="97.15" y2="165.25" gradientTransform="matrix(1, 0, 0.05, 0.96, 59.21, -41.18)" xlink:href="#New_Gradient_Swatch_3"/><linearGradient id="New_Gradient_Swatch_3-5" x1="187.16" y1="140.83" x2="187.16" y2="112.61" xlink:href="#New_Gradient_Swatch_3"/><linearGradient id="New_Gradient_Swatch_3-6" x1="205.55" y1="134.87" x2="205.55" y2="107.26" xlink:href="#New_Gradient_Swatch_3"/><linearGradient id="New_Gradient_Swatch_3-7" x1="320.69" y1="124.03" x2="319.5" y2="100.51" gradientTransform="matrix(1, -0.02, -0.05, 1, -62.5, 13.68)" xlink:href="#New_Gradient_Swatch_3"/><linearGradient id="New_Gradient_Swatch_3-8" x1="273.53" y1="45.16" x2="273.53" y2="18.96" gradientTransform="matrix(1, -0.18, 0, 1, 0, 138.61)" xlink:href="#New_Gradient_Swatch_3"/><linearGradient id="New_Gradient_Swatch_3-9" x1="237.36" y1="129.86" x2="237.36" y2="105.29" xlink:href="#New_Gradient_Swatch_3"/><linearGradient id="New_Gradient_Swatch_3-10" x1="224.8" y1="130.96" x2="224.8" y2="105.5" xlink:href="#New_Gradient_Swatch_3"/><linearGradient id="linear-gradient-2" x1="176.58" y1="160.67" x2="176.58" y2="93.18" gradientUnits="userSpaceOnUse"><stop offset="0" stop-color="#fff200"/><stop offset="0.69" stop-color="#fff"/></linearGradient><linearGradient id="New_Gradient_Swatch_3-11" x1="90.15" y1="101.93" x2="90.15" y2="82.4" xlink:href="#New_Gradient_Swatch_3"/><linearGradient id="New_Gradient_Swatch_3-12" x1="100.25" y1="106.97" x2="100.25" y2="84.67" xlink:href="#New_Gradient_Swatch_3"/><linearGradient id="New_Gradient_Swatch_3-13" x1="112.93" y1="109.09" x2="112.93" y2="95.78" xlink:href="#New_Gradient_Swatch_3"/><linearGradient id="linear-gradient-3" x1="416.5" y1="843.91" x2="461.44" y2="859.09" gradientTransform="translate(-219.34 -661.21) rotate(-6.21)" gradientUnits="userSpaceOnUse"><stop offset="0" stop-color="#0054a6"/><stop offset="1" stop-color="#00adee"/></linearGradient><linearGradient id="linear-gradient-4" x1="-452.84" y1="1222.47" x2="-401.55" y2="1222.47" gradientTransform="matrix(0.65, -0.76, 0.76, 0.65, -362.38, -979.28)" xlink:href="#linear-gradient-3"/><linearGradient id="linear-gradient-5" x1="657.31" y1="55.16" x2="695.79" y2="55.16" gradientTransform="translate(-279.95 -211.18) rotate(27.26)" xlink:href="#linear-gradient-3"/><linearGradient id="linear-gradient-6" x1="235.34" y1="190.47" x2="329.42" y2="190.47" gradientUnits="userSpaceOnUse"><stop offset="0" stop-color="#fd0"/><stop offset="0.39" stop-color="#fd0"/><stop offset="0.9" stop-color="#00adee"/><stop offset="1" stop-color="#008ed3"/></linearGradient></defs><title>identities</title><path class="cls-1" d="M81.32,72a11.71,11.71,0,0,0-6.13,9.16,13.75,13.75,0,0,0-10.76,1.66,13.93,13.93,0,0,0-6.33,11.87v2.55l0,48.44a12.48,12.48,0,0,0,6.27,10.8,115.74,115.74,0,0,0,12.34,6.29,12.22,12.22,0,0,0,3,.86,12.29,12.29,0,0,0,2.77,1.51,128.6,128.6,0,0,0,13.2,4.31,12.52,12.52,0,0,0,8.53-.79,25.71,25.71,0,0,0,12.56,4.46c1.92.16,3.86.28,5.77.34a12.5,12.5,0,0,0,6.48-1.58,18.75,18.75,0,0,0,10.59,1.8l.15,0a22,22,0,0,0,4.47-1,30.5,30.5,0,0,0-.2,3.29c0,14.84,10.73,28.4,30.2,38.18,18,9,41.69,14,66.82,14l2.57,0,12.95,7.16A7.21,7.21,0,0,0,267.27,229v-2.29c3.53-.54,6.95-1.11,10.19-1.73l-.11,0a138.32,138.32,0,0,0,32.51-9.29,75,75,0,0,0,11.87-6.33,53.48,53.48,0,0,0,4.89-3.67c9.81-8,15-17.7,15.06-28.1,0,0,0-.08,0-.12a33.07,33.07,0,0,0-3.1-13.7,19.47,19.47,0,0,0,5.23-1.21,18.06,18.06,0,0,0,11.47-16.78,19.49,19.49,0,0,0-3.51-11h0c-4.52-6.66-13.16-11.47-23.34-13.08a16.06,16.06,0,0,0,.1-1.67,16.24,16.24,0,0,0-3.34-9.82,16.87,16.87,0,0,0-12.59-6.58c-5.86-.39-12.11,1.8-17.69,6.09a12.37,12.37,0,0,0-3.31-6.78c-2.92-3-8.41-6.6-13.25-7.51-.23,0-.46-.07-.69-.09a16.32,16.32,0,0,0-5.47-2.93,15,15,0,0,0-7.75-.3,19.21,19.21,0,0,0-7.26-3.48,18.27,18.27,0,0,0-10.16.49,11.64,11.64,0,0,0-5-1.63c-2.48-.2-5.07-.31-7.72-.32l-.81.06-.81-.05a155.24,155.24,0,0,0-16.59,1.15,11.54,11.54,0,0,0-1.38.26c-.24,0-.48,0-.71,0-2.56.34-5.25.74-8.24,1.22a11.85,11.85,0,0,0-1.86.46,12,12,0,0,0-2,.17l-8.61,1.51A12.35,12.35,0,0,0,188.64,94a12.43,12.43,0,0,0-3.85.36c-2.89.75-5.31,1.37-7.64,1.93a12.4,12.4,0,0,0-5.44,2.92,21.47,21.47,0,0,0-9.88-.54,23.33,23.33,0,0,0-7.52,2.8,12.43,12.43,0,0,0-4.27-.36c-2.94.27-5.87.43-8.69.48a12.22,12.22,0,0,0-2.8.4,12.23,12.23,0,0,0-2.79-.43c-1.78-.06-3.56-.17-5.33-.32,0-.12-.09-.23-.13-.35s0-.21,0-.31a11.81,11.81,0,0,0-1.22-5.21,19.55,19.55,0,0,0-14.34-11.06,17.89,17.89,0,0,0-4.41-.2,11.71,11.71,0,0,0-6.86-8.39c-1.1-.47-2.21-1-3.3-1.53A11.72,11.72,0,0,0,93.93,73l-.54-.34A11.73,11.73,0,0,0,81.32,72Zm35.45,101.13h0Zm23,.55h0Zm-.19,0h0Zm187,32-.07.06.11-.09Zm-16.76,10h0l.06,0Z"/><path class="cls-2" d="M82,121.32h0l-.08,0Zm0,0,.16.07-.16-.07Z"/><path class="cls-2" d="M272.34,92.58l-.2-.06Z"/><path class="cls-3" d="M239.65,200.79c-26-1.53-46.73-8.18-55.67-16.11s-17-41.89,47.6-43.46c68.75-1.67,71,20.2,68.08,26.84S271.1,186,260.71,186.21l-.87,15.85c44.14-10.48,60.29-18.92,59.72-32.73S295.33,132,235.62,132.27s-88,34.82-80.78,51.39c8.82,20.36,47.6,38.09,90,35.79L230,212.35l.72-4.41Z"/><path class="cls-4" d="M266.48,172.66l4.9,10.48s-24.23,5.11-35.48,3.07-23.16-3.53-28-13c-6.35-12.53,6.64-20.71,6.64-20.71l13.9-4.71,17,.88L265.91,156l3.46,13.29Z"/><path class="cls-5" d="M240.81,200c-31.44-2.56-61.44-9.71-61.44-26.84s17.31-29.89,50.77-32.47c41.33-3.18,67.79,11.51,68.37,21.48s-11.25,18.92-28.56,22.5L265.33,175s7.79-2,8.08-6.9-6.63-12.78-6.63-12.78-27.41-11.25-43.56-6.65-25.1,21-16.73,27.61,54.24,10,54.24,10L257,192.6Z"/><path d="M117.21,167h0Zm229.42-28.58c-3.78-5.57-11.52-9.55-20.71-10.64a50,50,0,0,0-6.5-.35,11.63,11.63,0,0,0,2.46-4.31,10,10,0,0,0-1.64-9,10.74,10.74,0,0,0-8-4.12c-5.35-.36-11.58,2.49-16.66,7.62a35,35,0,0,0-6.69,9.27V111.66a6.22,6.22,0,0,0-1.73-4.3c-2.16-2.25-6.56-5.07-9.9-5.69a6.21,6.21,0,0,0-2,0,10.64,10.64,0,0,0-4.81-3.16,8.8,8.8,0,0,0-7.28.95,14.22,14.22,0,0,0-7.34-4.62,12.46,12.46,0,0,0-9.88,1.87,5.52,5.52,0,0,0-4.38-2.86c-2.32-.19-4.75-.29-7.23-.3a5.34,5.34,0,0,1-1.53,0,149.22,149.22,0,0,0-15.93,1.11,5.45,5.45,0,0,0-1.09.25,6.17,6.17,0,0,0-.9,0c-2.49.33-5.13.72-8.07,1.19a6.18,6.18,0,0,0-1.8.6,6.14,6.14,0,0,0-1.94,0l-8.61,1.51a6.17,6.17,0,0,0-3.93,2.46,6.22,6.22,0,0,0-4.1-.34c-2.94.77-5.39,1.39-7.73,2A6.22,6.22,0,0,0,174,107a15.43,15.43,0,0,0-11.09-2.23,17.85,17.85,0,0,0-8,3.77,6.22,6.22,0,0,0-4.33-1.25c-3.09.28-6.16.45-9.14.51a6.17,6.17,0,0,0-3,.83,6.18,6.18,0,0,0-3-.87c-3.32-.11-6.65-.37-9.9-.77a6.21,6.21,0,0,0-.91,0l-.29-.08a5.36,5.36,0,0,0,.37-2,5.66,5.66,0,0,0-.9-3,5.52,5.52,0,0,0-.41-3.78,13.23,13.23,0,0,0-9.82-7.69,11.35,11.35,0,0,0-5.68.45A12.36,12.36,0,0,0,104.4,88V86.51A5.53,5.53,0,0,0,101,81.42c-1.22-.52-2.45-1.09-3.65-1.69a5.53,5.53,0,0,0-4.63-.14c-.95-.57-1.9-1.17-2.83-1.79a5.53,5.53,0,0,0-8.6,4.6v8.27c-2.18-1.09-4.14-2-5.77-2.76l-.22-.1a7.5,7.5,0,0,0-11,6.92v2.55l0,48.45a6.23,6.23,0,0,0,3.13,5.4,110.47,110.47,0,0,0,11.76,6,6.18,6.18,0,0,0,3,.49,6.19,6.19,0,0,0,2.48,1.77,122.32,122.32,0,0,0,12.56,4.1,6.2,6.2,0,0,0,6.89-2.74,21.29,21.29,0,0,0,13,6.22c1.84.15,3.71.27,5.56.33a6.19,6.19,0,0,0,5.83-3.54c2.46,2.94,6,4.22,10.43,3.79h.07c7.57-.81,10.55-5.84,12-11a20.28,20.28,0,0,0,4,3.79l.43.28A26.73,26.73,0,0,0,150.26,176c0,12.36,9.51,23.95,26.77,32.62,17.11,8.59,39.85,13.33,64,13.33l4.12-.07,14.41,8a1,1,0,0,0,1.21-.22l.13-.05a1,1,0,0,0,.49-.85v-7.45c4.81-.57,9.52-1.33,14.06-2.28,44.38-7.36,62.7-26.66,59.65-45.52a33.38,33.38,0,0,0-11-20.2l.41.27c6.11,4,12.16,5.1,17,3.22a11.49,11.49,0,0,0,7.09-8A12.68,12.68,0,0,0,346.63,138.38ZM158,176a23,23,0,0,1,4.22-12.94l.55.06c2.91.64,6.57.28,11.15-2.14a17.71,17.71,0,0,0-2.09,10.19c1,11.7,12.32,21.14,32.71,27.3A163.52,163.52,0,0,0,231.35,204L229,205.29a15.58,15.58,0,0,0-1.57,1c-1.17.79-2.11,1.72-2.11,2.86,0,1.59,1.66,2.64,4.18,4.07l6.57,3.66C192.66,215.83,158,197.92,158,176Zm91.19,7.83c-24.64,0-41.85-7.61-41.85-18.5a9.21,9.21,0,0,1,1.25-4.54,1,1,0,0,0,.11-.33c4.17-6,16.9-10.13,31.24-10.13,1.82,0,3.6.07,5.35.2,11.86,1.64,19.61,6.21,20.73,12.23,0,.22.06.43.08.65-4.1-3.14-11.09-5.51-19.21-6.11-13.38-1-24.73,3.2-25.37,9.34s9.69,11.94,23.06,12.92c.78.06,1.55.1,2.32.12a49.52,49.52,0,0,0,6.16-.19h0c5.85-.35,20.3-2.63,25.14-12h0a7.21,7.21,0,0,0,.66-3.87c-1.06-9.53-20.37-17.82-41.32-17.75-18.39.06-31.08,4.25-36.37,11.87-4.37,5.76-4.7,13,1.55,19,9.23,10.22,32.91,12.13,51.58,11.88,1.17,0,2.51-.09,4-.21l-12.85,7.42c-1.67.07-3.38.1-5.09.1-32.5,0-58.95-12-58.95-26.75,0-14.31,26.91-26.51,60-27.2,21.16-.44,43.11,5.85,51.06,14.64,2.53,2.8,3.62,5.76,3.25,8.82C294.44,175.45,273.15,183.88,249.17,183.88Zm57.66-.06q-1.56,1-3.29,1.89c-10.69,5.7-25.61,9.82-42.13,11.67v-9.06a1,1,0,0,0,0-.21c15.69-1.9,41.55-8.86,43.58-21.43a15.17,15.17,0,0,0,.13-4,11,11,0,0,0,6.76,3.19,8.62,8.62,0,0,0,4.59-1,13,13,0,0,1,.43,3.62C316.73,173.78,313.36,178.89,306.83,183.83Z"/><path class="cls-6" d="M70.54,94.71c0-.73.38-2.1,2.18-1.26,3.07,1.42,7.16,3.31,11.83,6,6.56,3.8,13.8,12.25,13.8,21.74,0,3.84-1.34,7.62-3.61,9.28,3.07,2.63,4.14,6.69,4.14,11.78v15.22A115.66,115.66,0,0,1,87,153.58v-13c0-4.81-2.25-6.25-5.21-7.59V121.2c1.88.92,5.67,1.05,6.08-1.78s-1-5.5-3.23-7.38c-3-2.6-2.85-.54-2.85.43,0,.37,0,6.06,0,6.42.1,10.85,0,21.69,0,32.54a105.19,105.19,0,0,1-11.17-5.71C70.59,133.93,70.59,133.88,70.54,94.71Z"/><path class="cls-7" d="M123,142.77a108.75,108.75,0,0,1-11-1.4c1.41,4.76,4.3,6.31,7,6.57q2,.21,4.07.33v12.8q-2.65-.09-5.35-.32c-8.21-.55-18.1-11.15-18.1-28.44s9.89-21.72,18.1-20.29q2.69.52,5.35.89v12.79q-2-.23-4.07-.54c-2.66-.39-5.54.16-7,4.36a110.41,110.41,0,0,0,11,1.68Z"/><path class="cls-8" d="M135.35,114q1.52,14.5,3,28.83h.09Q140,128.37,141.58,114c3.24-.06,6.44-.25,9.59-.53q-2.5,17.71-5,35.6c-1.26,8.92-2.78,11.72-7.7,12.25s-6.64-2.09-8-11.09q-2.75-18.32-5.55-37.08C128.43,113.61,131.92,113.88,135.35,114Z"/><path class="cls-9" d="M178.81,130.09c.6,12.13-4.9,24.31-12.49,26.55-7.89,2.35-15.15-7.05-15.81-20.07S156.1,112.36,164,110.9C171.69,109.52,178.21,117.92,178.81,130.09Zm-19-2.22c.37,4.7,3.17,8,6.17,7.21s5-5.2,4.69-9.78-3-7.73-6-7.09S159.49,123.17,159.86,127.87Z"/><path class="cls-10" d="M194.23,145.26l-6.65,2.46c-4.31,1.59-7.47-2.36-7.47-9.69V108.36q4-1,7.83-2,0,12.72,0,25.43c0,3.41.49,3.84,4.9,2.34l1.4-.48Z"/><path class="cls-11" d="M204,102.94v25.89c0,1.57.61,2.75,1.86,2.42s1.83-1.8,1.83-3.35V102.33q4-.65,7.89-1.17V126.7c0,7.75-4.51,14-9.73,15.58-5.41,1.62-10.41-2.22-10.41-10.52V104.44Q199.84,103.66,204,102.94Z"/><path class="cls-12" d="M263.36,121.52c-.43,9.44-5.27,15.55-11,14.91-6-.71-10.73-8.63-10.26-18.82s6-18.19,11.89-16.74C259.68,102.22,263.79,112.11,263.36,121.52Zm-14.13-8.57c-.18,3.84,1.58,7.16,3.85,7.55s4.18-2.19,4.35-5.92-1.49-7.33-3.72-7.82S249.4,109.12,249.23,112.95Z"/><path class="cls-13" d="M271.42,139a58.4,58.4,0,0,0-7-1.49V109.39c0-4.72,2.39-5.45,3.8-5.05,2,.53,3.44,3,4,5q1.77,5.74,3.52,11.57l.06,0V107.49a16.24,16.24,0,0,1,6.75,3.8V137.8c0,4.58-2.28,4.62-3.64,4-1.93-.84-3.36-3.34-4-5.32q-1.76-5.77-3.53-11.44l-.06,0Z"/><path class="cls-14" d="M240.74,136V100.15q-3.33-.27-6.76-.28v36.29l1.11,0C237.1,136,239,135.94,240.74,136Z"/><path class="cls-15" d="M221.26,137.49h0c1-.18,2-.31,3-.4,1.29-.16,2.77-.32,4.34-.48V110.3q1.9-.15,3.76-.23V99.88a141.63,141.63,0,0,0-15.11,1.06v10.71q2-.31,4-.57Z"/><path class="cls-16" d="M111.45,130.67c3.24.66,8.36,1.46,11.52,1.82v-1.27c-3-.31-8-1-11.09-1.61A10.07,10.07,0,0,0,111.45,130.67ZM86,113.46l-.17-.14a8.13,8.13,0,0,1,2,6.09c-.6,3.22-4.75,2.32-6.06,1.78,0,.33,0,.18,0,.51,2.14,1.8,6.76,1.91,7.48-.86S88.22,115.34,86,113.46Zm-1.49-14c-4.67-2.7-8.77-4.59-11.83-6-1.8-.84-2.18.53-2.18,1.26.05,39.17.05,39.22.05,51l1.43.81c0-11.18,0-11.54-.05-50,0-.73.38-2.1,2.18-1.26,3.07,1.42,7.16,3.31,11.83,6a38.35,38.35,0,0,1,5.14,3.5A29.39,29.39,0,0,0,84.55,99.46Zm1.18,36.36A7.94,7.94,0,0,1,87,140.58v13l1.43.54V142C88.39,138.72,87.34,137,85.73,135.82Zm13.79-3.51c0,11.16,4.12,19.53,9.26,24.21-4.45-4.86-7.83-12.68-7.83-22.78,0-17.16,9.89-21.72,18.1-20.29q2,.38,3.92.68v-1.22q-2.65-.38-5.35-.89C109.41,110.6,99.52,115.15,99.52,132.31Zm51.64-18.82c-3.15.29-6.34.47-9.59.53-.83,7.71-2.23,21-3.06,28.73l.74,7h.09c1-9.63,2.64-24.74,3.67-34.3,2.68-.05,5.32-.19,7.94-.4Zm124.7-6v13.3l1.37,4.51.06,0v-16.4a15.16,15.16,0,0,1,5.33,2.6v-.23A16.24,16.24,0,0,0,275.86,107.49Zm-19.93,1a10.5,10.5,0,0,1,1.49,6.07c-.17,3.73-2.11,6.31-4.35,5.92a3,3,0,0,1-1-.39,3.9,3.9,0,0,0,2.46,1.82c2.24.39,4.18-2.19,4.35-5.92C259,112.75,257.75,109.58,255.94,108.51ZM189.45,135c.27,1.77,1.3,1.8,4.78.62v-1.91l-1.4.48A11.89,11.89,0,0,1,189.45,135Zm18.27-7.07c0,1.55-.6,3-1.83,3.35a1.63,1.63,0,0,1-.32,0c.22,1,.8,1.63,1.75,1.38,1.24-.32,1.83-1.8,1.83-3.35V103.76q3.28-.53,6.46-1v-1.62q-3.88.51-7.89,1.17ZM169,120.25a10.1,10.1,0,0,1,1.68,5.06c.36,4.57-1.74,9-4.69,9.78a3.6,3.6,0,0,1-3-.57c1.16,1.62,2.76,2.44,4.42,2,3-.76,5-5.2,4.69-9.78C171.91,123.74,170.69,121.36,169,120.25Zm11.06,9.43c.06.61,0,8,0,8.36,0,4.68,1.29,8,3.34,9.34-1.21-1.72-1.92-4.43-1.92-7.91V109.79q3.24-.79,6.4-1.61v-1.8q-3.86,1-7.83,2Zm75.31-27.38a7.27,7.27,0,0,1,2.94,1.54,8.41,8.41,0,0,0-4.37-3c-5.71-1.39-11,6-11.81,15.59a25.89,25.89,0,0,0,0,5c.5,5.7,2.69,10.35,5.71,12.88-2.87-3.38-4.66-8.91-4.36-15.35C244,108.92,249.47,100.85,255.41,102.3ZM234,136.16l1.11,0,.32,0V101.3q2.7,0,5.33.18v-1.33q-3.33-.27-6.76-.28ZM271.48,122l-.06,0v3c.72,2.34,2.88,9.18,3.6,11.54a9.73,9.73,0,0,0,3.15,4.85,11.23,11.23,0,0,1-1.72-3.42C275.27,134.12,272.66,125.8,271.48,122Zm-3.25-17.69c-1.41-.4-3.8.33-3.8,5.05v28.16l1.43.24v-27c0-4.72,2.39-5.45,3.8-5.05a3.6,3.6,0,0,1,1.1.52A4.89,4.89,0,0,0,268.24,104.33Zm-47,33.16h0c.46-.09.93-.16,1.4-.22V110.87l-1.43.19Zm-4-25.85,1.43-.21v-9.07c4.7-.55,9.26-.93,13.68-1V99.88a141.78,141.78,0,0,0-15.11,1.06ZM135.35,114c-3.43-.11-6.92-.37-10.47-.81q2.8,18.76,5.55,37.08c.89,6,1.91,9.13,4,10.42-1.16-1.72-1.88-4.58-2.54-9q-2.75-18.32-5.55-37.08c3.1.39,6.16.64,9.18.77ZM164,110.9c-7.95,1.46-14.19,12.64-13.53,25.67.4,7.92,3.24,14.5,7.19,17.91-3.19-3.65-5.41-9.56-5.76-16.48-.66-13,5.58-24.21,13.53-25.67a9.47,9.47,0,0,1,8,2.39C170.92,111.74,167.6,110.26,164,110.9Zm-48.85,35.63a7.17,7.17,0,0,0,5.14,2.84c.88.09,1.77.16,2.64.23v-1.33q-2-.13-4.07-.33A7.22,7.22,0,0,1,115.19,146.53Zm80.29-14.76c0,4.54,1.5,7.74,3.73,9.45a12.94,12.94,0,0,1-2.31-8V105.87l7.12-1.25v-1.67c-2.8.47-5.65,1-8.55,1.5Z"/><path class="cls-17" d="M93.38,89.29V93q-1.4-.74-2.79-1.56v3.34c0,1.44.49,2,2,2.89.27.15.57.28.84.4v3.81q-1.11-.59-2.21-1.22a8.7,8.7,0,0,1-4.37-7.19V82.4q1.86,1.25,3.75,2.36v3Q92,88.55,93.38,89.29Z"/><path class="cls-18" d="M94.91,84.67q2,1,4,1.84v5.87a4.41,4.41,0,0,1,2.31.27,6.8,6.8,0,0,1,4.4,6.35v8q-2-.6-4-1.35V98.34a2.15,2.15,0,0,0-1.37-2.1c-.77-.31-1.37-.08-1.37,1v7.28q-2-.85-4-1.83Z"/><path class="cls-19" d="M112.69,104.12l-1.5-2.76q1.62-.78,3.22-1.65a3,3,0,0,0-1.52-.68c-1.62-.28-2.51,1.23-2.51,2.73s1.06,3.41,2.66,3.68a3.51,3.51,0,0,0,3.5-2.32q1.4.91,2.78,1.74c-1.1,2.77-3.57,4.66-6.55,4.14-3.3-.57-6.21-4.4-6.21-8a5.06,5.06,0,0,1,6.21-5.13,7.77,7.77,0,0,1,5.8,4.69Q115.65,102.51,112.69,104.12Z"/><path class="cls-20" d="M298.13,137.35c6.2-3,13.62-6.09,24.94-4.76,12.33,1.46,19.75,8.46,18.18,14.36-1.42,5.33-7.94,6.83-16,1.61-3.17-2.05-13.23-9-27.16-7.13C293.65,142,291.56,140.5,298.13,137.35Z"/><path class="cls-21" d="M334.46,142.73c1.51,1.76,4.11,2.32,3.73-.06s-6.3-7.33-12.94-6.1C329.31,136.84,333,141,334.46,142.73Z"/><path class="cls-22" d="M288.88,138.84c1.08-4.95,2.63-10.66,8.54-16.63,6.43-6.5,13.86-7.63,16.56-4,2.45,3.24.37,7.7-6.31,10-2.63.91-11.24,3.58-16.44,12.53C289.57,143.56,287.74,144.08,288.88,138.84Z"/><path class="cls-21" d="M308.46,120.19c1.7-.08,3.21-1.33,1.66-2.19s-7.11.34-9.4,4.75C301.31,120.85,306.76,120.27,308.46,120.19Z"/><path class="cls-23" d="M294.37,144.67a23,23,0,0,1,13.6,3.42c5.84,3.6,7.93,8.83,5.76,11.42-2,2.34-5.56,1.57-8.38-2.91-1.11-1.77-4.52-7.61-11.94-9.89C291,146,290.34,144.72,294.37,144.67Z"/><path class="cls-21" d="M310.76,156c.34,1.23,1.52,2.12,1.88.84s-1.45-5.14-5.06-6.06C309.07,150.86,310.42,154.75,310.76,156Z"/><path class="cls-24" d="M321.89,159.83c7.36,4.6,29.13,44.62-64.21,56v5.23s-17.26-8.95-20.77-10.87c-1-.54-3.12-.66.32-2.68,4.78-2.81,16.41-8.51,20.3-11.12v7.27C286.82,200.9,334.44,187.44,321.89,159.83Z"/></svg>