<svg id="Layer_1" data-name="Layer 1" xmlns="http://www.w3.org/2000/svg" viewBox="0 0 410 300"><defs><style>.cls-1{fill:#3b454e;}.cls-2{fill:#919297;}.cls-3{fill:#fff;}.cls-4{fill:#f1c305;}</style></defs><title>identities</title><rect class="cls-1" x="68.81" y="103.41" width="268.64" height="87.67"/><rect class="cls-2" x="198.91" y="133.84" width="5.61" height="26.89"/><path class="cls-3" d="M102.15,136.63v-2.79h10.16V157l3.83.95v2.79h-14v-2.79L106,157V137.58Z"/><path class="cls-3" d="M174.86,166.9v2.79h-15V166.9l3.83-.95V137.58l-3.83-.95v-2.79h8.66l.75,3.83a8.76,8.76,0,0,1,3.61-3.41,10.83,10.83,0,0,1,4.55-.92,13.48,13.48,0,0,1,4.6.75,7.36,7.36,0,0,1,3.36,2.39,14.69,14.69,0,0,1,2.37,4.53,19.27,19.27,0,0,1-.1,11.77,14.13,14.13,0,0,1-2.61,4.7q-2.79,3.24-8,3.24a9.06,9.06,0,0,1-3.86-.8A8.11,8.11,0,0,1,170,157V166ZM170,146.79a21.69,21.69,0,0,0,.45,4.73,11,11,0,0,0,1.19,3.24,5.59,5.59,0,0,0,1.89,1.94,5.16,5.16,0,0,0,2.74.7,4.45,4.45,0,0,0,2.51-.65,5,5,0,0,0,1.57-1.69,11.26,11.26,0,0,0,1.17-3.34,22,22,0,0,0,.42-4.43,23.48,23.48,0,0,0-.45-4.73,12.43,12.43,0,0,0-1.19-3.53,4.14,4.14,0,0,0-1.84-1.79,6,6,0,0,0-2.49-.5,4.82,4.82,0,0,0-4.38,2.29,10.48,10.48,0,0,0-1.14,3.09A21,21,0,0,0,170,146.79Z"/><polygon class="cls-3" points="146.82 133.9 146.82 136.68 150.05 137.63 146.02 153.21 145.42 155.32 145.3 155.32 144.73 153.21 139.51 133.76 134.22 133.76 129.15 153.26 128.6 155.37 128.42 155.37 127.85 153.26 123.62 137.63 127.06 136.68 127.06 133.9 114.42 133.9 114.42 136.68 117.05 137.63 124.31 160.71 131.23 160.71 136.12 143.25 141.15 160.71 148.07 160.71 155.08 137.63 157.77 136.68 157.77 133.9 146.82 133.9"/><path class="cls-4" d="M104.74,126.28a3.55,3.55,0,0,1,1-2.59,3.62,3.62,0,0,1,2.71-1,3.71,3.71,0,0,1,2.74,1,3.51,3.51,0,0,1,1,2.59,3.46,3.46,0,0,1-1,2.56,3.73,3.73,0,0,1-2.76,1,3.65,3.65,0,0,1-2.74-1A3.52,3.52,0,0,1,104.74,126.28Z"/><path class="cls-4" d="M215.37,133.82h8.32v1.79h-6.35v3H223v1.79h-5.64V145h-2Z"/><path class="cls-4" d="M234.27,133.74h1.82L241,145h-2.07l-1.13-2.7h-5.28l-1.15,2.7h-2Zm2.81,6.82-1.93-4.47-1.92,4.47Z"/><path class="cls-4" d="M248.6,133.82h2.09l3.4,5.28,3.4-5.28h2.09V145h-2v-8l-3.53,5.27H254l-3.5-5.24v8H248.6Z"/><path class="cls-4" d="M268.68,133.82h2V145h-2Z"/><path class="cls-4" d="M280.41,133.82h2v9.39h5.87V145h-7.84Z"/><path class="cls-4" d="M298.29,140.59l-4.44-6.77h2.33l3.11,4.93,3.16-4.93h2.25l-4.44,6.72V145h-2Z"/><path class="cls-4" d="M213.92,155.22v0a5.84,5.84,0,0,1,11.69,0v0a5.84,5.84,0,0,1-11.69,0Zm9.63,0v0a3.83,3.83,0,0,0-3.8-4,3.78,3.78,0,0,0-3.77,3.94v0a3.81,3.81,0,0,0,3.8,4A3.76,3.76,0,0,0,223.55,155.22Z"/><path class="cls-4" d="M234.29,149.6h8.32v1.79h-6.35v3h5.64v1.79h-5.64v4.55h-2Z"/><path class="cls-4" d="M251.55,149.6h8.32v1.79h-6.35v3h5.64v1.79h-5.64v4.55h-2Z"/><path class="cls-4" d="M268.68,149.6h2v11.17h-2Z"/><path class="cls-4" d="M278.32,155.22v0a5.65,5.65,0,0,1,5.76-5.78,5.83,5.83,0,0,1,4.37,1.74l-1.26,1.45a4.45,4.45,0,0,0-3.13-1.39,3.76,3.76,0,0,0-3.69,3.94v0a3.76,3.76,0,0,0,3.69,4,4.37,4.37,0,0,0,3.21-1.44l1.26,1.28a5.77,5.77,0,0,1-4.53,2A5.62,5.62,0,0,1,278.32,155.22Z"/><path class="cls-4" d="M295.71,149.6H304v1.76h-6.32v2.9h5.6V156h-5.6v3h6.4v1.76h-8.37Z"/></svg>