<svg id="Layer_1" data-name="Layer 1" xmlns="http://www.w3.org/2000/svg" viewBox="0 0 410 300"><defs><style>.cls-1{fill:#8dc63f;}.cls-2{fill:#d2232a;}.cls-3{fill:#f7941d;}.cls-4{fill:#231f20;}</style></defs><title>identities</title><path class="cls-1" d="M198.18,91.28a18.35,18.35,0,0,0,12.93,5.39,18.4,18.4,0,0,0-18.32-18.32A18.34,18.34,0,0,0,198.18,91.28Z"/><path class="cls-1" d="M221.79,92.09a15.59,15.59,0,0,1-11,4.57,15.61,15.61,0,0,1,15.54-15.54A15.57,15.57,0,0,1,221.79,92.09Z"/><path class="cls-1" d="M260.81,101.43a16.22,16.22,0,0,0,11.43,4.77A16.28,16.28,0,0,0,256,90,16.21,16.21,0,0,0,260.81,101.43Z"/><path class="cls-1" d="M281.54,102.22a13.57,13.57,0,0,1-9.55,4,13.6,13.6,0,0,1,13.53-13.53A13.55,13.55,0,0,1,281.54,102.22Z"/><path class="cls-1" d="M138.64,101.43a16.22,16.22,0,0,0,11.43,4.77A16.27,16.27,0,0,0,133.87,90,16.22,16.22,0,0,0,138.64,101.43Z"/><path class="cls-1" d="M159.71,102.07a14,14,0,0,1-9.89,4.12,14.07,14.07,0,0,1,14-14A14,14,0,0,1,159.71,102.07Z"/><path class="cls-2" d="M134.45,123.18a20.43,20.43,0,0,1,30.39,0h12.31a30.71,30.71,0,0,0-55,0Z"/><path class="cls-2" d="M256.62,123.18a20.43,20.43,0,0,1,30.39,0h12.31a30.71,30.71,0,0,0-55,0Z"/><path class="cls-3" d="M189,123.18a23.11,23.11,0,0,1,43.26,0h12.13a34.73,34.73,0,0,0-67.53,0Z"/><path class="cls-2" d="M89.72,173.29H91c.17-3.6,1.76-4.87,4.37-4.87a6.13,6.13,0,0,1,2.07.31l-.23,1.87a4.37,4.37,0,0,0-1.39-.21c-1.14,0-2.14.33-2.26,2.9h2.11l-.17,2H93.43l-.52,7.14c-.37,5-2,6.09-4.39,6.09a8.1,8.1,0,0,1-1.89-.23l.19-2a4.67,4.67,0,0,0,1.2.18c1.53,0,2.09-.73,2.4-4.91l.46-6.23H89.54Z"/><path class="cls-2" d="M96.45,173.29h4l-.7,4.83a22.82,22.82,0,0,0-.25,2.32c0,.56.21.83.6.83,1.27,0,3-2.71,3.77-8h2.55a40.68,40.68,0,0,0-.58,4.45l-.31,3.69h1.24l-.18,2H103a18.77,18.77,0,0,1,.62-3.65h-.06c-1,2.86-2.59,3.85-4.18,3.85S97,182.74,97,180.75c0-.6.14-1.74.23-2.69l.29-2.8H96.28Z"/><path class="cls-2" d="M115.54,182.94a7.42,7.42,0,0,1-3.19.66c-2.86,0-4.45-1.33-4.45-4.28,0-3.81,2.09-6.23,5.47-6.23,2.24,0,3.21,1.07,3.21,2.44,0,2-1.84,3.74-6,4,.06,1.41,1.1,1.82,2.22,1.82a7.49,7.49,0,0,0,3.09-.77Zm-5-5c2.59-.35,3.34-1.18,3.34-2,0-.52-.38-.81-1-.81C111.44,175.07,110.69,176.38,110.57,177.91Z"/><path class="cls-2" d="M118.75,170.5h-1.53l.18-2h4.06l-1.08,12.9h1.22l-.17,2h-3.75Z"/><path class="cls-2" d="M123.88,175.26h-1.22l.18-2h3.75l-.68,8.14h1.22l-.17,2H123.2Zm1.7-7a1.49,1.49,0,0,1,1.64,1.49,1.61,1.61,0,0,1-1.78,1.64,1.5,1.5,0,0,1-1.66-1.49A1.64,1.64,0,0,1,125.58,168.24Z"/><path class="cls-2" d="M135.62,178.63a15.41,15.41,0,0,0,.19-2.17c0-.79-.23-1-.58-1-.79,0-1.64.87-2.38,2.32a15.73,15.73,0,0,0-1.47,5.66h-2.55a35.24,35.24,0,0,0,.43-3.6l.31-4.54h-1.31l.17-2h3.75a18.68,18.68,0,0,1-.5,3.62h.08c.89-2.61,2.34-3.81,4.25-3.81,1.29,0,2.36.58,2.36,2.76a16.87,16.87,0,0,1-.13,2.15l-.43,3.42H139l-.17,2h-3.87Z"/><path class="cls-2" d="M140,185.33a5.9,5.9,0,0,0,3.19.95c2.09,0,3.05-.87,3.29-3.67a13.06,13.06,0,0,1,.5-2.88H147c-.68,2.36-2.26,3.87-4,3.87s-2.9-1.18-2.9-3.89c0-3.79,2.09-6.61,5.82-6.61a11.32,11.32,0,0,1,3,.43h.81a52.09,52.09,0,0,0-.56,5.28l-.41,4.54c-.33,3.6-2.2,5.14-5.26,5.14a8.08,8.08,0,0,1-3.73-.83Zm2.71-5.59c0,1,.39,1.53.87,1.53,1.31,0,3-3.31,3.17-6.05a4.36,4.36,0,0,0-1-.15C143.8,175.07,142.73,177.17,142.73,179.75Z"/><path class="cls-2" d="M160.55,173.29c-.31,2.2-.62,5.15-.62,6.29,0,1.37.35,1.7,1,1.7,1.29,0,2.26-3.15,2.73-8h2.55c-.23,2.24-.5,4.87-.5,5.82,0,1.6.31,2.17.95,2.17,1.16,0,2.15-2.34,2.47-6h-1.3l.16-2h3.67c-.29,7.31-2.44,10.31-5.38,10.31-2,0-2.55-1.53-2.55-3v-.39h0c-.83,2.5-2,3.39-3.71,3.39-1.49,0-2.67-.79-2.67-3.33a45.92,45.92,0,0,1,.39-5h-1.37l.17-2Z"/><path class="cls-2" d="M178,173.09c2.25,0,4.26,1.37,4.26,4.7,0,3.93-2.26,5.8-5.18,5.8-2.26,0-4.28-1.38-4.28-4.7C172.79,175,175.05,173.09,178,173.09Zm-2.53,5.67c0,1.76.66,2.63,1.78,2.63,1.51,0,2.34-1.2,2.34-3.46,0-2-.73-2.63-1.78-2.63C176.31,175.3,175.46,176.52,175.46,178.76Z"/><path class="cls-2" d="M183.33,173.29h3.75c-.1,1.08-.21,2.36-.45,3.62h.08c.64-2.92,2-3.72,3.66-3.72a1.84,1.84,0,0,1,.64.1l-.35,2.46a2.83,2.83,0,0,0-.41,0c-1.49,0-3,.89-3.83,7.7h-2.55c.12-1.08.25-2.38.31-3.44l.29-4.7h-1.31Z"/><path class="cls-2" d="M194.51,179.65c-.16,1.12-.31,2.34-.41,3.75h-2.55c.17-1,.33-2.36.42-3.6l.72-9.3h-1.53c.06-.66.12-1.31.17-2h4.06a56.72,56.72,0,0,1-.89,7.5h.06a4.31,4.31,0,0,1,3.94-2.94,2.2,2.2,0,0,1,2.49,2.19c0,1.68-1.18,3-3.58,4l1.91,2.17h1.28l-.17,2h-2.9Zm.1-.65c2.32-.78,3.73-1.88,3.73-3a.67.67,0,0,0-.72-.72c-1,0-2.22,1.14-2.82,3.07Z"/><path class="cls-2" d="M203.18,175.26h-1.32l.17-2h3.75a18.3,18.3,0,0,1-.52,3.38h.06c.79-2.42,2.32-3.58,4.06-3.58s2.75,1.33,2.75,3.58c0,3.77-2,6.92-6.05,6.92a5.38,5.38,0,0,1-1.08-.1l-.21,2.79H206l-.18,2H201l.17-2h1Zm6.28,1.72c0-.93-.19-1.56-.75-1.56-1.41,0-3.15,2.47-3.58,5.86a3.64,3.64,0,0,0,1.3.23C208.21,181.51,209.46,179.24,209.46,177Z"/><path class="cls-2" d="M214.72,170.5H213.2l.17-2h4.06l-1.08,12.9h1.22l-.18,2h-3.75Z"/><path class="cls-2" d="M228.3,173.52a14.67,14.67,0,0,0-.31,2l-.48,5.9h1.22l-.18,2H225a27.64,27.64,0,0,1,.64-3.85h-.08c-.83,2.82-2.32,4-3.95,4s-2.9-1.18-2.9-3.77c0-4.37,2.63-6.73,5.82-6.73a9.25,9.25,0,0,1,2.75.43Zm-6.07,7.75c1.34,0,3.07-3.31,3.23-6.05a4.4,4.4,0,0,0-1-.15c-2,0-3.06,2.09-3.06,4.47C221.42,180.64,221.71,181.27,222.23,181.27Z"/><path class="cls-2" d="M237.06,182.94a5.7,5.7,0,0,1-2.79.66c-2.67,0-4.48-1.39-4.48-4.64,0-4,2.47-5.86,5.36-5.86a8.27,8.27,0,0,1,2.68.43l-.23,3h-2.09v-1.35a.92.92,0,0,0-.5-.12c-1.12,0-2.55.89-2.55,3.52,0,1.9,1,2.8,2.5,2.8a5,5,0,0,0,2.36-.66Z"/><path class="cls-2" d="M245.82,182.94a7.4,7.4,0,0,1-3.19.66c-2.86,0-4.45-1.33-4.45-4.28,0-3.81,2.09-6.23,5.47-6.23,2.24,0,3.21,1.07,3.21,2.44,0,2-1.84,3.74-6,4,.05,1.41,1.1,1.82,2.22,1.82a7.5,7.5,0,0,0,3.09-.77Zm-5-5c2.59-.35,3.34-1.18,3.34-2,0-.52-.39-.81-1-.81C241.72,175.07,241,176.38,240.86,177.91Z"/><path class="cls-2" d="M257.22,173.29c-.31,2.2-.62,5.15-.62,6.29,0,1.37.35,1.7.95,1.7,1.29,0,2.26-3.15,2.72-8h2.56c-.23,2.24-.5,4.87-.5,5.82,0,1.6.31,2.17.95,2.17,1.16,0,2.15-2.34,2.48-6h-1.29l.15-2h3.68c-.29,7.31-2.44,10.31-5.38,10.31-2,0-2.55-1.53-2.55-3v-.39h0c-.83,2.5-2,3.39-3.71,3.39-1.49,0-2.67-.79-2.67-3.33a46.31,46.31,0,0,1,.39-5h-1.37l.17-2Z"/><path class="cls-2" d="M276.87,182.94a7.39,7.39,0,0,1-3.19.66c-2.86,0-4.45-1.33-4.45-4.28,0-3.81,2.09-6.23,5.47-6.23,2.25,0,3.21,1.07,3.21,2.44,0,2-1.84,3.74-6,4,.06,1.41,1.1,1.82,2.23,1.82a7.5,7.5,0,0,0,3.09-.77Zm-5-5c2.59-.35,3.35-1.18,3.35-2,0-.52-.39-.81-1-.81C272.77,175.07,272,176.38,271.9,177.91Z"/><path class="cls-2" d="M280.08,170.5h-1.53l.17-2h4.06l-1.08,12.9h1.22l-.18,2H279Z"/><path class="cls-2" d="M285.61,170.5h-1.53l.17-2h4.06l-1.08,12.9h1.22l-.17,2h-3.75Z"/><path class="cls-2" d="M296.94,178.63a15.31,15.31,0,0,0,.19-2.17c0-.79-.23-1-.58-1-.79,0-1.64.87-2.38,2.32a15.79,15.79,0,0,0-1.47,5.66h-2.55a35.81,35.81,0,0,0,.42-3.6l.31-4.54h-1.31l.17-2h3.75a18.71,18.71,0,0,1-.5,3.62h.08c.89-2.61,2.34-3.81,4.25-3.81,1.3,0,2.36.58,2.36,2.76a16.06,16.06,0,0,1-.14,2.15l-.42,3.42h1.16l-.17,2h-3.87Z"/><path class="cls-2" d="M309,182.94a7.42,7.42,0,0,1-3.19.66c-2.86,0-4.45-1.33-4.45-4.28,0-3.81,2.09-6.23,5.48-6.23,2.24,0,3.21,1.07,3.21,2.44,0,2-1.84,3.74-6,4,.06,1.41,1.11,1.82,2.23,1.82a7.49,7.49,0,0,0,3.09-.77Zm-5-5c2.59-.35,3.35-1.18,3.35-2,0-.52-.39-.81-1-.81C304.93,175.07,304.18,176.38,304.06,177.91Z"/><path class="cls-2" d="M310.66,180.23H313c0,.47-.06.87-.06,1.08a4,4,0,0,0,1.55.31c1.2,0,1.72-.54,1.72-1.16,0-1.72-5.24-.43-5.24-4.06,0-2.07,1.61-3.31,4.37-3.31a10.07,10.07,0,0,1,3.3.6c0,.48-.07,2.15-.07,2.67h-2.21v-1a3.13,3.13,0,0,0-1.25-.25c-1.28,0-1.59.5-1.59,1,0,1.66,5.24.43,5.24,4.06,0,2-1.57,3.48-4.35,3.48a13.56,13.56,0,0,1-3.85-.58Z"/><path class="cls-2" d="M320.14,180.23h2.32c0,.47-.06.87-.06,1.08a4.07,4.07,0,0,0,1.55.31c1.2,0,1.72-.54,1.72-1.16,0-1.72-5.24-.43-5.24-4.06,0-2.07,1.61-3.31,4.37-3.31a10.1,10.1,0,0,1,3.31.6c0,.48-.08,2.15-.08,2.67h-2.21v-1a3.14,3.14,0,0,0-1.26-.25c-1.28,0-1.59.5-1.59,1,0,1.66,5.25.43,5.25,4.06,0,2-1.57,3.48-4.35,3.48A13.59,13.59,0,0,1,320,183Z"/><path class="cls-4" d="M66.11,174.3a22.69,22.69,0,0,1-5.09-.58l-.52-.13.63-6.2.7.18a12.25,12.25,0,0,0,3,.4c3.36,0,4.81-1,5.63-11.39l1.16-14.5H68.09l.57-6H72c.58-8.09,4.4-11.87,12-11.87a17.49,17.49,0,0,1,5.59.79l.48.16-.77,5.8-.7-.22a11.29,11.29,0,0,0-3.44-.49c-2.52,0-4.81.46-5.24,5.82h5.51l-.57,6H79.48L78.16,158.9C77.16,171.68,72.61,174.3,66.11,174.3Z"/><path class="cls-4" d="M97.14,161.92h-7.9l.08-.69c.33-2.84.66-5.83.8-8.35l.71-10.79H87.39l.57-6H99l-.07.68c-.11,1.1-.23,2.39-.39,3.77a8.84,8.84,0,0,1,8.34-4.69,5.69,5.69,0,0,1,1.85.26l.51.16-1.08,7.11-.61-.08a7.51,7.51,0,0,0-1-.09c-3.68,0-7.37,2.21-9.36,18.2Z"/><path class="cls-4" d="M119.67,162.39c-4.56,0-7-2.61-7-7.54,0-1.23.23-3.29.46-5.29l.83-7.46h-3.16l.57-6h11.77l-2,13.35a40.71,40.71,0,0,0-.53,4.7c0,1.4.64,1.4.94,1.4,3,0,7.29-6.63,9.21-18.92l.08-.52h8l-.16.75a92.34,92.34,0,0,0-1.5,10.76l-.75,8.32h3.23l-.57,6H128.41l.06-.68c.14-1.55.32-3,.54-4.31C126.14,161.33,122.49,162.39,119.67,162.39Z"/><path class="cls-4" d="M154.09,161.92h-11l1.76-19.83h-3.18l.57-6h11l-1.76,19.83h3.18Z"/><path class="cls-4" d="M166.33,162.2c-5,0-7.62-2.46-7.62-7.12,0-.88.11-2,.23-3.22.06-.6.12-1.21.17-1.83l.65-7.95h-3.53l.57-6h3.58l.5-5.24,7.9-.56-.51,5.8h7l-.57,6h-7.06l-.65,7c0,.45-.09.94-.13,1.43-.13,1.32-.26,2.69-.26,3.46,0,1.36.51,1.92,1.75,1.92a11.85,11.85,0,0,0,4.39-1.27l1-.41-.71,6.59-.34.14A16,16,0,0,1,166.33,162.2Z"/><path class="cls-4" d="M196.75,161.92h-7.89l.08-.69c.33-2.86.66-5.87.8-8.35l.71-10.79H187l.57-6h11l-.07.68c-.11,1.15-.23,2.43-.39,3.77a8.84,8.84,0,0,1,8.34-4.69,5.69,5.69,0,0,1,1.85.26l.51.16-1.08,7.11-.61-.08a7.35,7.35,0,0,0-1-.09c-3.68,0-7.37,2.21-9.36,18.2Z"/><path class="cls-4" d="M220.45,162.39c-8.1,0-12.21-3.71-12.21-11,0-9.74,5.7-15.78,14.88-15.78,5.63,0,9,2.45,9,6.55,0,5.72-5.82,9.59-15.61,10.41.35,2.15,2.07,3.23,5.12,3.23a19.86,19.86,0,0,0,7.82-1.83l1-.44-1.14,7.1-.31.14A21.22,21.22,0,0,1,220.45,162.39ZM222,141.62c-4,0-5.13,3.63-5.44,5.58,3.54-.52,7.39-1.68,7.39-4.22C223.91,141.8,222.69,141.62,222,141.62Z"/><path class="cls-4" d="M245.39,162.39c-5.92,0-8.33-3.71-8.33-12.82a73.62,73.62,0,0,1,.38-7.48H234l.57-6h11.54l-.08.69a114.51,114.51,0,0,0-.8,12.69c0,5.6.79,6.07,1.6,6.07,2.68,0,5.88-5.36,6.54-13.41H249.8l.57-6h11.29l0,.65C261.28,144.42,259,162.39,245.39,162.39Z"/><path class="cls-4" d="M276.34,161.92h-11l1.77-19.83h-3.18l.57-6h11l-1.76,19.83h3.18Z"/><path class="cls-4" d="M289.23,162.39c-5.92,0-8.33-3.71-8.33-12.82a73.64,73.64,0,0,1,.38-7.48h-3.41l.57-6H290l-.08.69a114.43,114.43,0,0,0-.8,12.69c0,5.6.79,6.07,1.6,6.07,2.68,0,5.88-5.36,6.54-13.41h-3.59l.57-6H305.5l0,.65C305.12,144.42,302.82,162.39,289.23,162.39Z"/><path class="cls-4" d="M314.53,162.39c-5.12,0-8.18-3.66-8.18-9.8,0-11.75,7.93-17,15.79-17a26,26,0,0,1,7.24,1h3.27l-.19.77a32.44,32.44,0,0,0-.79,4.8l-1.2,13.68h3.18l-.57,6H322.65l.08-.69c.18-1.59.38-3,.6-4.4C321.14,160.45,318.12,162.39,314.53,162.39Zm7.36-20.77c-5,0-7.34,5.32-7.34,10.26,0,2.27.56,3.62,1.5,3.62,2.8,0,7.15-7,7.76-13.63A9.87,9.87,0,0,0,321.88,141.62Z"/><path class="cls-4" d="M347.37,161.92h-11l2.82-31.41h-4l.57-6h11.83l-2.82,31.41h3.18Z"/><circle class="cls-2" cx="149.71" cy="126.45" r="6.37"/><circle class="cls-2" cx="271.79" cy="126.45" r="6.38"/></svg>