<svg xmlns="http://www.w3.org/2000/svg" xmlns:xlink="http://www.w3.org/1999/xlink" viewBox="0 0 410 300"><defs><style>.cls-1{isolation:isolate;}.cls-2,.cls-8{fill:#004b88;}.cls-10,.cls-3{fill:#c81e33;}.cls-3,.cls-8,.cls-9{mix-blend-mode:multiply;}.cls-4{fill:#d0d2d3;}.cls-5{fill:#fff;opacity:0.7;}.cls-6{fill:url(#radial-gradient);}.cls-7{fill:url(#radial-gradient-17);}.cls-9{fill:#aba89f;}.cls-11{fill:#ffcb05;}</style><radialGradient id="radial-gradient" cx="4.48" cy="-60.42" r="47.19" gradientTransform="matrix(1.03, -0.14, 0.13, 0.99, 205.22, 189.45)" gradientUnits="userSpaceOnUse"><stop offset="0.57" stop-color="#fff"/><stop offset="0.59" stop-color="#f4fbfe"/><stop offset="0.62" stop-color="#d7f2fc"/><stop offset="0.67" stop-color="#a8e3f9"/><stop offset="0.72" stop-color="#67cef5"/><stop offset="0.73" stop-color="#5ecbf4"/><stop offset="0.82" stop-color="#0090d0"/><stop offset="0.93" stop-color="#8e499b"/></radialGradient><radialGradient id="radial-gradient-17" cx="4.53" cy="-60.42" r="47.16" gradientTransform="translate(197.2 189.36) scale(1.04 1)" xlink:href="#radial-gradient"/></defs><title>identities</title><g class="cls-1"><g id="Layer_1" data-name="Layer 1"><path class="cls-2" d="M187.19,74.83c-.4,0-.26-.27-.81-.2-.07.33-.83.32-.81.69a1.68,1.68,0,0,0,1.22.49c0-.13.36-.09.41-.2-.38,0,.12-.16-.2-.2s-.06.36-.61.3A4.84,4.84,0,0,0,187.19,74.83Z"/><path class="cls-2" d="M254.7,65.48c.08.58-.29.36-.21.95a.42.42,0,0,1,.42.19C254.78,66,255,65.88,254.7,65.48Z"/><path class="cls-2" d="M191,63.81Z"/><path class="cls-2" d="M251.14,94.36c-.45,0-.44.7-.84.76-.08.5.21.39.24.73h.06a5.57,5.57,0,0,0,1-.73c.08.51-.25.37-.36.57,0,.28.2-.12.23.16h0c.09-.09.07-.34.21-.35A1.42,1.42,0,0,0,251.14,94.36Z"/><path class="cls-2" d="M247.88,56.08c.07-.1.2-.23.17-.38A3.26,3.26,0,0,0,247.88,56.08Z"/><path class="cls-2" d="M195.24,73.88a.41.41,0,0,0,.23,0c0-.13,0-.26,0-.39a1.32,1.32,0,0,1-.23,0Z"/><path class="cls-2" d="M254.2,51.61v8.1h3.48L255.34,64c0,.16.07.28.22.22,0,.47-.21,0-.33,0l-.09.16v0h0l-.92,1.68a38.07,38.07,0,0,0-2.34,5.44h-.25c-.25-1.08-1.58-3.92-2-5.13L246,59.71h3.29v-8.1h-10.1a1.9,1.9,0,0,0,0,.86h-.32c0-.34-.13-.4-.11-.76a.23.23,0,0,0,.2-.1H227.62v8.1h3.1L243,80.15v7.47h-3.61v8.23h10.67c-.17-.11-.43-.06-.36-.54s.9-.45.36-1.14c.45.37.67-.36,1.32-.19.36.66.49,1.4.71,1.87h0c.15-.19.73-.73.45-.35,0,.22-.18.2-.23.35h7.3V87.62H256.1V81.48a.27.27,0,0,0-.12,0,1.78,1.78,0,0,1,.12-.66v-.58l11.71-20.57h1a.52.52,0,0,1,.2,0v0h2.26v-8.1Zm-6.36,7.31c-.47.68-.52-1.48.11-.57C248,58.62,247.53,58.81,247.84,58.92Zm.85-1.9c.3,0,.35.54.21.76C248.71,57.73,248.66,57.45,248.68,57Zm-1.59-1.9c.52.46.36,0,1.06,0,.26.5,0,.79.32,1.14,0,.58-.44-.67-.53,0-.07,0-.1-.05-.1-.09a.83.83,0,0,0,.31,1c-.14.67-.51-.88-.42.38,0-.32-.59-.56-.32-.19,0,.28-.13-.08-.32,0,0-.53.18-.81.53-.76.14-.48-.49-.46-.11-.76C247.46,55.49,247,55.83,247.1,55.12Zm-17.65.38c-.3,0-.34-.54-.21-.76C229.42,54.79,229.48,55.07,229.45,55.5ZM229.34,54c.37.3.23.34.42.95C229.53,54.76,229,54.58,229.34,54Zm11,2.09c-.2,0-.07-.63-.32-.57,0-.49.18.26.42,0A1.4,1.4,0,0,0,240.34,56.07Zm-.11-3.42c0-.67.35.4.32-.19C240.92,52.78,240.3,53,240.23,52.65ZM241.34,74c0-.44-.26-.82.12-.95C241.5,73.48,241.72,73.85,241.34,74Zm.37-17.34h-.21v-.38h.21Zm.87,13.44c.08-.34.19,0,.32,0C242.82,70.41,242.71,70.1,242.58,70.08Zm2.83-18c.09,0,.11.19.21.19,0,.15-.11.19-.11.38-.09,0-.11-.19-.21-.19C245.32,52.31,245.41,52.27,245.41,52.08Zm-1.8,1.33h.21v.38h-.21Zm-.18,25.21c-.37-.05.27-.71-.11-.76.31-.43.15.47.42.57C244,78.31,243.54,78.53,243.43,78.62Zm1.87-21.41c-.12,0-.09-.35-.11-.57h.32a.1.1,0,0,0,0-.19c.07-.46.53-.1.42.38A.68.68,0,0,0,245.3,57.21Zm.55,38.29c.16,0,.11-.33.24-.38C246.39,95.34,246,96,245.85,95.5Zm2.22-17.45c0,.16,0,.18.11.19,0,.25-.15.19-.32.19-.11-.71.36-.37.42-.76C248.58,77.76,248.3,78.27,248.08,78.05Zm2.4,7.65h-.21v-.38h.21Zm1.9-11.59a1.13,1.13,0,0,1,.21.76C252.41,74.83,252.35,74.55,252.38,74.12Zm.91,19.3c.21.1.5.1.6.38C253.51,93.76,253.32,94.24,253.3,93.41Zm1.2-26.9c0-.68.17-1.21.53-1.33a2.51,2.51,0,0,1,.21,1.52C255,66.71,254.63,66.78,254.5,66.52Zm.32,2.85c0-.25.19-.3.21-.57.21.13.28.51.32.95C255.2,69.55,255,69.56,254.81,69.37Zm3.49-2.47a1.4,1.4,0,0,0-.11.57C257.91,67.41,258,66.81,258.3,66.9Zm-1.59-.38H257c-.06.17-.13.34,0,.38,0,.22-.19.16-.32.19Zm-.21-2.85h-.42C256,62.94,256.59,62.94,256.5,63.67Zm-.21,2.66c-.06.17-.13.34,0,.38-.14.31-.27.65-.53.76C255.83,66.89,255.93,66.37,256.29,66.33Zm.21,3c-.13-.25,0-.3,0-.57.11,0,.07.38.21.38C256.71,69.36,256.59,69.33,256.5,69.37Zm.55-.91c-.08.18-.18.36-.23.53a.83.83,0,0,1-.32-.76c-.26,0-.33.3-.53.38-.14.82.5.24.42.95a1.79,1.79,0,0,0-1,0c0-.68.4-.8.42-1.52.58.22.73-.33,1.16-.38a.87.87,0,0,1,0,.8C257.11,68.4,257.14,68.36,257.05,68.46Zm1.25,2.24c-.12-.79-.41-.07-.63.19a4.5,4.5,0,0,1,0-1.71c.46-.13.24,1,.74.76C258.42,70.28,258.28,70.34,258.3,70.7Zm1.48-3.23c-.19,0-.24-.33-.21-.76H260C260.07,67.23,259.78,67.09,259.78,67.47Z"/><path class="cls-2" d="M209.4,75.59v.57h.32v-.38C209.58,75.76,209.57,75.53,209.4,75.59Z"/><path class="cls-2" d="M168.81,72.24c4.75-1.9,6.2-4.49,6.2-9.81,0-6.9-5-10.82-15.51-10.82H135.9v8.17h3.67V82.71c.39.12.89-.19,1.31.05a7.87,7.87,0,0,1-1.31.18v.62s.09-.06.09-.11c.25,0,.42.13.41.3a1.14,1.14,0,0,1-.49-.08v4H135.9v8.23H160c12.22,0,17.22-3.92,17.22-12.85C177.17,76.86,173.37,73.51,168.81,72.24Zm5.71-9.57c-.11,0-.07-.38-.21-.38C174.4,61.77,174.78,62.45,174.52,62.67Zm-.32.38c-.23.09-.2-.27-.21-.57C174.12,62.56,174.21,62.72,174.21,63Zm-.42,1.9c.39-.2.17.71.53.57,0,.44-.46.11-.53,0ZM140.07,83.35c-.2,0-.16-.12-.2-.2.27-.12.32,0,.61,0C140.42,83.26,140.07,83.22,140.07,83.35ZM152.67,60h4c2.41,0,4.18,1.71,4.18,4.62s-.95,4.87-4.3,4.87h-3.86ZM139.86,79.11c1.34,0,1.46.45,2.85.2-.37.37-1.36.41-1.22.79-.51,0-.63-.15-1-.2C141,79.36,139.83,79.64,139.86,79.11Zm2.44,1.08v.2h-.41v-.2Zm-1.63,2.17c-.56-.16.43-.58-.61-.59a1.34,1.34,0,0,1,.81-.2C140.55,81.87,141,82,140.68,82.37Zm0-1.87c-.51,0,0-.38.41-.3C141,80.33,140.73,80.35,140.68,80.49Zm.81,3.06c-.67-.1.23-.19.2-.3C142.29,83.31,141.38,83.41,141.49,83.55Zm.2-1.48c-.05-.41.79-.13.81-.3C143,81.86,142.07,82.08,141.7,82.07Zm1.63-2.37c-.35,0-.53-.17-.61,0-.56,0,0-.31.41-.2,0-.08-.08-.09-.2-.1,0-.24.69,0,.81,0C143.6,79.51,143.26,79.51,143.32,79.71Zm1.63-.3c0,.13.61.13.61,0,.3,0-.08.13,0,.3a2.26,2.26,0,0,0-1.43.1c-.1-.31.63-.22.41-.59.58,0,.85-.18,1.43-.2C145.91,79.28,145.11,79.19,145,79.41Zm1.83-.3c.07-.32,1.67-.23,2-.1A5.91,5.91,0,0,1,146.79,79.11Zm3,15.33c-.17.05-.18-.18-.32-.19v-.38c.17-.05.18.18.32.19Zm.48-15.53c.45-.05.29.19.61.2C150.78,79.36,149.92,79.19,150.25,78.92Zm.41,3.85c-.36-.07,0-.18,0-.3C151,82.54,150.68,82.65,150.65,82.76ZM150.25,89c.13-.3.44.09.81,0C151,89.22,150.37,89,150.25,89ZM151.86,55c-.21,0-.31-.15-.36-.38C151.67,54.39,152,54.38,151.86,55ZM156.56,95c.64.11.54,0,1,.1C157.59,95.09,156.53,95.36,156.56,95Zm1.18-7.37h-5.06v-11h4.87c3.48,0,5.32,2.34,5.32,5.57A5.15,5.15,0,0,1,157.74,87.62Zm7.58-8.41c.41-.57,1.57,0,2.65-.1C166.79,79.47,166.66,79,165.31,79.21Zm4.07,0c.09-.12.26-.2.61-.2C169.91,79.14,169.74,79.22,169.39,79.21Zm3.87-2.68h-.32c0-.18.13-.15.21-.19,0-.25-.43-.57-.11-.76a2.44,2.44,0,0,0-.42-.57c-.15-.5.37.54.63,0C173.1,75.22,173.18,75.72,173.25,76.54Z"/><path class="cls-2" d="M256.93,68.61l.12-.15h0Z"/><path class="cls-2" d="M178.75,57.32v.12A.19.19,0,0,0,178.75,57.32Z"/><path class="cls-2" d="M204.77,60h3.42V73.38c0,.95,0,1.82-.06,2.63a.85.85,0,0,1,.32.33c-.05.26-.19.17-.34,0-.45,8.17-2.84,9.4-6.32,9.4-3,0-5.08-1.21-5.91-6.11l0,0c-.33,0-.23-.18,0-.26q-.18-1.14-.28-2.55a.36.36,0,0,1-.23,0,.49.49,0,0,1,.21-.3c0-.34,0-.7-.05-1.07-.15.16-.24.37-.05,1H195a4.06,4.06,0,0,1,.46-1.5q0-.42,0-.87l-.12.09c0-.23-.14-.39-.32-.38.09-.3.18-.59.44-.58V59.77h3.42V51.61H178.75v5.32c.12.24.17.6.42.61v1.14c-.34.06-.31-.55-.42-.9v2.06h3.54v7.44c.11,0,.11.1,0,.2v.8a1.1,1.1,0,0,1,0,.11v.22a2.48,2.48,0,0,0,0,.32l0,0V71c.11.17.27.24.26.63a1.05,1.05,0,0,1-.26-.36v1c0,.05.08.12.15.13v.38a.13.13,0,0,1-.15-.05v.63c.07-.22.16-.41.36-.39,0,.45-.17.49-.36.55v2c0,14.37,6.84,21.08,19.62,21.46,11.9,0,18.17-6.77,18.17-21.77V59.77h3.42V51.61H204.77Zm-17.24-4.51c-.23.09-.2-.27-.21-.57C187.44,55,187.53,55.12,187.52,55.45Zm-1.69,10.83c-.07-.41.3-.6-.11-.57.11-.18,0-.7.32-.57.12,1.12.42.75.74,1.52,0,.26-.26.16-.42.19,0-.31.1-.33.11-.57ZM187,68c.28.44-.53.5-.53.57-.16-.08,0-.24,0-.57C186.73,67.74,186.9,68.54,187,68Zm-.21,3c.55.09-.17.44-.41.2C186.43,71.07,186.78,71.11,186.78,71Zm.21-2.43c.07.51.41.53.42,1.14C187.09,69.64,186.84,68.89,187,68.56Zm.11,4c.28-.06.35.26.32.76C187.14,73.36,187.07,73,187.1,72.55Zm-.42-9.31c.3-.22.45,0,.74.19-.19.51-.64-.1-.85-.19a2.06,2.06,0,0,1,.11-.95C187,62.45,186.54,62.77,186.68,63.24Zm.11-4.56c-.34.16-.33-.3-.53-.38C186.28,58,186.85,58.22,186.78,58.68Zm-.63,1.52c-.28.06-.35-.26-.32-.76C186.11,59.38,186.1,59.84,186.15,60.2Zm-.21-4c-.06.55-.17-.29-.32-.19C185.72,55.39,185.83,56.23,185.94,56.21Zm-.32-3.8c.15,0,0,.57.21.57C185.71,53.59,185.53,52.8,185.62,52.41Zm-.42,20.9c-.28-.2-.36-.75-.63-.95C184.68,72.1,185.24,72.65,185.2,73.31ZM185,75.59V76h-.21v-.38Zm-1.06-5.7c-.12.56-.34-.24-.32-.57C183.85,69.26,183.73,69.87,183.93,69.89Zm-.21,2.28c0,.36-.3.34-.21.95-.37-.37-.49-.21-.85-.38.27-.79.43.33.85-.19-.07-.19-.24-.2-.21-.57-.17,0-.4-.09-.42.19a1.13,1.13,0,0,1-.11-.95C183.22,71.29,183.32,72,183.72,72.17Zm-.32-10.45c0,.27,0,.54.11.57,0,.27-.19,0-.21-.19-.19,0-.22.23-.42.19A.65.65,0,0,1,183.4,61.72Zm-.32,7.41c0,.33-.18.43-.42.38C182.69,69.17,182.84,69.07,183.08,69.13Zm-.53.95q.46.13.53.95Q182.62,70.9,182.55,70.08Zm.42,4.75c-.21-.32-.13,0-.42,0a2.07,2.07,0,0,0,0-1C182.95,73.74,183,74.18,183,74.83Zm.21-1.33c0-.25.15-.19.32-.19-.14.56-.09.94.21,1.14C183.47,74.89,183.19,73.58,183.19,73.5Zm.53,3.8c.14.07.17.33.32.38C184,78.15,183.62,77.69,183.72,77.29Zm0-4.37c0-.32.08-.36.21-.38,0,.16,0,.18.11.19C184,73,183.84,72.9,183.72,72.93Zm.21-9.5c.07-.35.44.33.42.76C184.1,64.13,184.11,63.6,183.93,63.43Zm.85,2.85c-.09.55-.16.21-.42.19C184.38,66,184.63,66,184.77,66.28Zm0,4.56c0,.23-.14.39-.32.38C184.5,71,184.59,70.83,184.77,70.84Zm.18,6.75a.43.43,0,0,1-.19-.1.45.45,0,0,1-.21-.38h0a.64.64,0,0,1,0-.18c.17-.12.19,0,.21.19C185.32,77.15,184.92,77.3,185,77.59Zm2.15.09c.13.08.22.24.21.57C187.08,78.33,187.11,78,187.1,77.68Zm.29-1.37c-.45-.05-.29.19-.61.2-.43.24.24-.31.41-.39-.49-.19-1.31-.29-2-.59-.18-.54.6-.72.2-1.08.74.44.64-.15,1.22-.3.78-.08.24.48,1,.39-.18.63-.58,1.17.2,1.77C187.75,76.43,187.4,76.41,187.39,76.31Zm8.05-9.46c-.06.67-.5.1-.53-.38C195.12,66.55,195.11,67,195.45,66.85Zm-1,1.14c0,.38,0,.59-.21.57.15-.55.08-.21-.21-.19C194,67.8,194.31,68,194.5,68Zm-1-3.8h.21v.38h-.21Zm.32,2.85c-.22.17-.18.81-.53.76,0-.22,0-.34-.11-.38A.51.51,0,0,1,193.86,67Zm0,1.52c0,.23-.14.39-.32.38C193.59,68.7,193.68,68.55,193.86,68.56Zm-.32-.19V68h.21v.38Zm-.74-7.22c-.13-.08-.22-.24-.21-.57C192.72,60.66,192.81,60.82,192.81,61.15Zm-1.16-7.41c.2,0,.07.63.32.57,0,.25-.19.3-.21.57-.4-.12.11-.79-.42-.76C191.35,53.85,191.64,54.05,191.64,53.74Zm-.21,11.21c-.21-.32-.13,0-.42,0,0-.33.18-.43.42-.38v-.38C191.75,64.31,191.33,64.59,191.43,64.95Zm-.74-8c-.17.68-.38-.09-.63,0C190.1,56.55,190.62,56.82,190.69,57Zm-1,4.75c-.08.34-.19,0-.32,0C189.5,61.38,189.62,61.69,189.74,61.72Zm-.85-2.85a2.06,2.06,0,0,0,0,.95C188.57,60.11,188.57,58.58,188.9,58.87Zm-.42,6.08c.2-.08.15.87-.11.57C188.34,65.21,188.47,65.19,188.47,64.95Zm-.21,8.17c.11.12.11.44.32.38C188.54,74,188.17,73.51,188.26,73.12Zm.63.76c.06-.55.16.29.32.19C189.11,74.7,189,73.85,188.9,73.88Zm.53-4.75c-.38.55-.42-1.14-1-.95.08-.34.19,0,.32,0-.07-.33-.48-1-.53-.76-.16-.08,0-.24,0-.57.07.32.32.31.42.57.16-.21.22-.62.53-.57-.5,1,.46.5.53,1.71C189.56,68.51,189.12,68.91,189.42,69.13Zm.21.38c.15,0,0,.57.21.57C189.71,70.65,189.41,69.65,189.64,69.51Zm.53-1.14c-.23,0-.23-.48-.21-.95A.87.87,0,0,1,190.16,68.37Zm.42-4.56c0-.22,0-.34-.11-.38,0-.46.48.11.32-.57.32.12-.1.41,0,.76.18.07.2-.15.21-.38.39-.2.17.71.53.57-.34.45-.42.16-.74.57C191,64,191.1,63.71,190.59,63.81ZM191,68c.13,0,.32-.83.11-.38-.11,0-.07-.38-.21-.38.23-.56,1-.56,1.06.19-.12,0-.19,0-.21.19-.17-.08-.09-.6-.42-.38.09.15.06.52.21.57C191.53,68.28,191.14,68.25,191,68Zm1,.76c-.09,0-.11-.19-.21-.19v-.38C192,68.09,192,68.45,192,68.75Zm-.18,10.47c-.2,0-.16.12-.2.2-.24,0-.17-.18-.2-.3h.81C192.18,79.21,191.94,79.19,191.78,79.21Zm.28-6.1c.08-.34.19,0,.32,0C192.31,73.45,192.19,73.14,192.07,73.12Zm.74,2.85h-.21v-.38h.21Zm-.21-.95v-.38a.39.39,0,0,0,.32.19C192.85,75.22,192.75,75.23,192.59,75Zm.5-3.24h-.41v-.2h.41Zm.13-.75c0,.4-.37-.2-.32-.57h.32C193.25,70.78,193,70.95,193.23,71Zm-.11-1.14c-.4-.37.5,0,.42-.38s-.69.23-.53-.57c.39.28.79.47,1.06,0,.08.91.38.24.63.76C194.34,70.51,193.76,69.39,193.12,69.89Zm1.27,8c.14-.53.22.6.53.38C194.73,78.87,194.49,78,194.39,77.87Zm0-6.46c.08-.34.19,0,.32,0C194.63,71.74,194.52,71.43,194.39,71.41Zm.21-.57c-.47,0,.14-.56.11-1,.29-.14.21.38.42.38C195,70.72,194.54,69.83,194.6,70.84Zm21.56,0h-.32C215.69,70.28,216.32,70.28,216.16,70.84Zm-.32-.76c0-.07-.11.57-.11.57C215.57,70.7,215.59,69.62,215.84,70.08ZM208,77.68c.18-.68.28-.38.63-.57C208.53,77.47,208.3,78.14,208,77.68Zm4.76-5.13a1.33,1.33,0,0,1,.21.95.42.42,0,0,1,.42-.19c.05.78-.28-.18-.32.57C213,73.47,212.59,72.94,212.78,72.55Zm-.11-.38c0,.31-.1.33-.11.57-.09,0-.11-.19-.21-.19C212.4,72.31,212.49,72.16,212.67,72.17Zm-1,1.71c-.09.56-.27-.25-.53,0C211.18,73,211.62,73.76,211.72,73.88Zm-.74.76c.1,0,.08.23.11.38s.19,0,.21-.19c.3.6-.48.65-.63.19C210.69,74.74,211,74.95,211,74.64Zm-.21,1.9c.09-.16.29-.11.32-.38,0,.35.41.52.42,1.33a1.26,1.26,0,0,1-1.06-.95c-.55.5-.87,0-1.27.19a6.24,6.24,0,0,0-.11-2.28c.22.61.8.6.85,1.52C210.12,75.71,210.86,75.7,210.77,76.54ZM210,73.88c0-.53.39.48.42-.19.16.08,0,.24,0,.57C210.17,74.39,210.24,73.88,210,73.88Zm.53-1.14c0,.49-.35.38-.63.38C210,72.8,210.38,72.91,210.56,72.74Zm-.85.76c.48.35.2,1.14.63,1.33-.13.27-.4.43-.53.19.09-.15.06-.52.21-.57a2.18,2.18,0,0,0-.74-.38C209.36,73.46,209.64,73.71,209.72,73.5Zm-1-2.09c.24.05.24.51.11.76C208.56,72,208.75,71.88,208.76,71.41Zm.42,2.85c-.37-.15-.45.35-.63,0C208.69,73.92,209.19,73.26,209.19,74.26Z"/><path class="cls-3" d="M222.93,193.14c-.36.22.13,1,0,0Z"/><path class="cls-3" d="M222.26,195.7h15.26v-5.09h-2.27l-7.91-12.33,5.68-4.89h2.27v-5h-13v5h2.82L223,175.21a2.23,2.23,0,0,1,0,.83c-.27.05-.45,0-.48-.38.21-.1.27-.2.27-.31l-5,4.41v-6.38h2.11v-5H207.59v5h2.11v17.22h-2.11v5.09h12.33v-5.09H217.8v-4.19l2.9-2.47,4.23,6.65h-2.66ZM224.49,173c0-.33.09-.49.24-.57C224.73,172.76,224.63,172.92,224.49,173Zm-1.92,4h-.24v-.38h.24Zm.6-1.71c.07,0,.14,0,.12-.19h.24C223.71,175.56,223.12,175.66,223.17,175.29ZM222.93,195c.32-.13.23.39.36.57Q222.89,195.66,222.93,195Zm-.12-2.28c.11.46.48.5.36,1.33a.45.45,0,0,0-.36.19C222.66,194,222.34,192.94,222.81,192.76Z"/><path class="cls-3" d="M269.86,190.65h-3v-9.86l10,14.91h8.41v-7.48a.54.54,0,0,1,0-.21h0V173.39h2.58v-1.16a1.94,1.94,0,0,1-1,.06c.13-.29.51-.15,1-.11v-3.84h-9.24a2,2,0,0,0,.55,0,1.47,1.47,0,0,1-1,.39c.07-.21-.26-.22-.24-.4H276v5h2.66v9.31l-1.37-2.06c-.08.11-.1.33-.26.33a.49.49,0,0,1,.17-.46l-7.79-11.66c-.09.12-.22.14-.43,0a.57.57,0,0,0,.18-.34l-.09-.14h-1.3c0,.1-.09.16-.23.1a.8.8,0,0,1,0-.1h-6.74v.18h-.21v-.18h-2.75v5h2.27v17.26h-2.31a.82.82,0,0,1,0,.21h0v4.84h12Zm17.62-21.81c0,.13-1,.2-.41.3-.71.28.06-.42-.41-.49C287,168.29,287.3,168.78,287.48,168.84Zm-11,3.85c0-.08.2-.1.2-.2h.41C277.19,172.7,276.8,172.68,276.48,172.69Zm3,11.34c0-.3,0-.66.24-.57C279.71,183.78,279.62,183.94,279.47,184Zm.84,1.33c-.3,0-.29-.43-.48-.57.67-.45-.28,0-.12-.57h.72a1.55,1.55,0,0,0,.12.76C280.4,185,280.26,185,280.31,185.35Zm2.52,3.61a2.29,2.29,0,0,0-.72.76c-.38-.86,1-1.28.6-2.09C283.25,187.62,282.64,188.34,282.83,189Zm-.24-1.52c-.7.14,0,1.4-.6,1.52,0-.36-.4-.13-.36-.57.57-1.31-.13-1.43.55-2a.67.67,0,0,1-.78-.51c.76.38,1-.14,1.68-.38C282.95,186.21,282,186.83,282.59,187.44Zm1.63-.36c.43,0,.39.14.41.3-.17,0-.2-.1-.41-.1Zm-.79.93c.14,0,.34,0,.36.19-.07,0-.14,0-.12.19C283.52,188.37,283.39,188.34,283.43,188Zm-1.56-3.42c.28,1.19,1-1.1,1.2,0-.51,0-.75,1.34-1.2.76C282.24,185.34,281.5,184.61,281.87,184.6Zm-1.08.57c0,.33.09.49.24.57,0-.54.34-.48.48-.76a3.64,3.64,0,0,1-.6,1.14c0-.44-.35-.21-.36-.57C280.71,185.54,280.66,185.21,280.79,185.16Zm-.23-14.65c-.09.12-.26.2-.61.2C279.85,170.5,280.23,170.53,280.55,170.52Zm-.81-.1c0,.17-.35.23-.81.2C278.72,170.32,279.38,170.44,279.74,170.42Zm-1.43-1c.43.09-.07.55-.61.49C277.89,169.75,278.2,169.64,278.31,169.43Zm.2,1.58c.5-.11-.23-.46-.41-.2-.48,0,.23-.26.2-.39C278.55,170.61,279.71,171,278.52,171Zm-.13,13.2a1.27,1.27,0,0,1-.12.57.1.1,0,0,1,0,.19c0-.23-.13-.12-.24,0C278.08,184.61,278.07,184.16,278.39,184.22Zm-8.4-8.74c.13,1-.36.22,0,0Zm-2.16-2.28c0-.41.1-.6.36-.57C268.17,173.3,268,172.61,267.82,173.2Zm1.56,1.52c-.18.22-.51.67-.6,0C269,174.83,269.28,174.16,269.38,174.72Zm-.12-4.18c-.35,1.14-.49,3.29-1.08,4.56-.14-1.93.76-2.95.36-4C269,171.27,269,170.64,269.26,170.54Zm-.72-1.71c.11.81-.69,1.18-.84.95A1.52,1.52,0,0,1,268.54,168.83Zm-8.88,25.26h-.48c0-.43,0-.71.24-.76C259.42,193.71,259.75,193.57,259.66,194.09ZM264,176.62c-.13-.48.41-.84.48-.38C264.28,176.34,264.16,176.52,264,176.62Z"/><path class="cls-3" d="M282.17,186.43a.37.37,0,0,0,.18-.13Z"/><path class="cls-3" d="M193.29,189.64c-3.72,0-5.71-3.48-5.71-7.36,0-4.27,1.84-7.75,4.66-7.75s4,2.39,4.15,4.93h7V168.35h-6.14l-.9,2.19a7.24,7.24,0,0,0-6-2.66c-5.13,0-11.9,5.4-11.9,14.4,0,8.73,5.52,14,13.81,14a16.05,16.05,0,0,0,11.86-5.52l-4.58-5C199.16,186.19,196.58,189.64,193.29,189.64Z"/><path class="cls-3" d="M118.6,190.54h-1.46c0,.07.07.1.18,0-.13.2-.75.59-.11.57,0,.44-.46.11-.53,0s.16-.52,0-.57c-.1.11-.12.37-.27.37v4.76h12.64v-1.15h0a.64.64,0,0,1,0-.2v-3.82h-2.39v-6.07c3.48,0,3.91.86,3.91,4.42,0,4.58,2.47,7.28,7.59,7.28,4.34,0,5.71-3,5.71-6.26v-2.15h-2.62V189c0,.78-.31,1.25-.9,1.25s-.94-1-.94-2.66a5.93,5.93,0,0,0-5.13-5.56c3.25-.47,5.67-2.62,5.67-5.67,0-4.46-1.76-8.06-10.84-8.06H116.41v5.13h2.19Zm-1.39,1c.25-.08.23.35.53.19C117.82,192.56,117,192.41,117.21,191.51Zm21.24,1.33c.26,0,.51,0,.63.19-.11.31-.45.21-.63.38Zm-11.79-19.41h2c2.27,0,3.56,1.17,3.56,3.48,0,2.07-1.49,3.17-3.76,3.17h-1.76Z"/><path class="cls-3" d="M254,195.34v-.92a.62.62,0,0,1-.3.05c-.09.58.33.36.24.95Z"/><path class="cls-3" d="M314.52,191.43c.41-.49-.62-.46,0,0Z"/><path class="cls-3" d="M116.43,190.54h0v0Z"/><path class="cls-3" d="M98.4,195.12c.24,0,.33.19.32.58h5.79v-5.2h-4v-5h2.26a.21.21,0,0,1,.06-.09s.05,0,.07.09H108v-5.2h-7.44v-6.81h5.91V177h6.93v-8.65h-15c0,.15,0,.17.11.18,0,.28-.14-.08-.32,0,0-.06,0-.12,0-.18H90v5.17h2.43v17H90v5.2h8.67A.7.7,0,0,1,98.4,195.12Zm9.3-10.45c.41.26.05,1.29-.11.19C107.69,184.9,107.7,184.79,107.7,184.67Zm4.12-8c-.13-.08-.22-.24-.21-.57C111.74,176.21,111.83,176.37,111.82,176.7ZM98.61,190.94a.91.91,0,0,1-.11-1C98.74,190,98.56,190.67,98.61,190.94Zm0-2.66c-.14-.06-.09-.48-.11-.76.34-.17.15.62.32.76C98.77,189,98.67,187.53,98.61,188.28Zm.53,6.46c-.33.06.27-.55-.11-.57C99.22,193.51,99.35,194.62,99.14,194.74Zm1.16-9.31h-.21v-.38h.21Zm-.19-13.95c-.58-.6-.11.59-.6.57.09-.58-.12-.69-.12-1.14C99.58,170.66,100.09,170.94,100.12,171.49Zm-1.84-.24a2.83,2.83,0,0,0,0-.51h0a1.63,1.63,0,0,0,0-.29.59.59,0,0,1,.13.16,2.27,2.27,0,0,1,.13-.43h0a2,2,0,0,1-.07-.69c.25,0,.34.43.28.75.2.1.36.29.61.31a5.63,5.63,0,0,0-.24,1.71c.34,0,.82-.16.84.38-.33-.06-.58,1-.84.38-.25.17-.54-.49-.24-.57,0,.27.2.32.24.57.19-.62-.61-1.46,0-2.09-.15-.51-.44-.2-.65-.13a1.61,1.61,0,0,1,0,.54c.23,0,.23-.46.4-.6,0,.36-.14.42-.12.76a.25.25,0,0,1-.3,0c0,.21,0,.38.12.43,0,.59-.3-.48-.32.19-.16-.19-.09-.49,0-.84C98.21,171.19,98.21,171.14,98.28,171.25Zm.33,12.86a1.33,1.33,0,0,1-.21-.95C98.63,183.18,98.63,183.63,98.61,184.1ZM98.4,175v-.38c.23-.09.2.27.21.57C98.53,175.14,98.51,175,98.4,175Zm0-2.28c-.09,0-.11-.19-.21-.19C98.25,172.07,98.69,172.4,98.4,172.71Zm-.57,1.06c-.57-.39-1.06.25-1.44-.38.5-.23-.09-.81-.24-1.14.07,0,.14,0,.12-.19s0-.22.12-.19c.44,1.06.44-1.55.48-1.9.3-.2.68.4.36.57,0-.21-.2-.46-.24-.19a11,11,0,0,1,.24,2.66c-.39.17-.16-.63-.48-.57.14.28.15.78.36.95a.51.51,0,0,1,.24-.38C97.17,173.81,98,173,97.84,173.77Zm-.48-4c.3,0,.37.36.6,0,0,.52.5.89,0,1.14C98,169.93,97.61,170.58,97.36,169.78Zm1.08,4c-.23,0-.26.21-.48.19C97.92,173.4,98.42,173.23,98.44,173.77Zm0,6.92a2.65,2.65,0,0,1-.32-1.14C98.46,179.44,98.41,180.11,98.4,180.69Zm-.21,4.75c.14-.19.39-.18.42-.57.37.05-.26.71.11.76l-.32.57a.91.91,0,0,0,.32.38c-.17.14,0,.93-.32.76,0-.16,0-.18.11-.19C98.2,186.94,98.14,186.29,98.19,185.43Zm.21,7v.38h-.21v-.38Zm.32,1.33c-.4-1,.41-.09-.11.76a4.78,4.78,0,0,1-.42-1.52C98.49,193.07,98.32,193.94,98.72,193.79Z"/><path class="cls-3" d="M161.69,195.7h15.69v-5.13h-2.74l-6.93-22.23h-15v5h1.6L149,190.57h-2.66v5.13h12.44v-5.13h-3.05l.82-2.66h8l.82,2.66h-3.72Zm1.18-20.06c-.16.18-.22-.06-.2-.2C162.07,175.31,163.14,175.37,162.87,175.65Zm-5.9,4.83c.6.07,1,.26,1,.59C157.64,180.87,156.81,180.91,157,180.48Zm5.11,3.23c-.64.38-.14.57,0,.82-.1.13-.11,0-.07,0-.39.27-.3-.27-.63.13,0-.69-.35-.81-.51-1.29a.3.3,0,0,0,.21-.11H158l2.54-8.45,2.58,8.45h-1.67C161.54,183.55,161.42,183.7,162.08,183.7Z"/><path class="cls-3" d="M254,195.59c-.36-.15-.49-.65-.54-1.3.11-.18.32-.2.54-.2V191.8a1.09,1.09,0,0,1-.18-.37.52.52,0,0,1,.18-.13v-.8h-2.43v-17H254v-5.17H241v5.17h2.47v17H241v5.2h7.9a.52.52,0,0,1,.23-.47c.14.73.47-.73.6,0-.15,0-.07.21,0,.38-.3,0-.58,0-.72-.19a2.79,2.79,0,0,1,0,.28h5Zm-5.1-20.11h-.24v-.38h.24ZM251,186.68c0-.43,0-.71.24-.76A1,1,0,0,1,251,186.68Z"/><path class="cls-3" d="M310.08,195.7a.34.34,0,0,1,.36-.09s0,.06,0,.09h3.25l.06-.09c-.13-.18-.25-.35-.06-.56a.35.35,0,0,1,.31.18c.07-.15.06-.32-.1-.67.35-.4.36.39.22.91a1.51,1.51,0,0,1,.06.24h1.72c-.14-.19-.39,0-.63-.2,0-.54.32-.44.32-1,.14.06.09.48.11.76a3.83,3.83,0,0,0,.32-.76c.24-.26.4.49.42,0a1.48,1.48,0,0,1,.06.22v-3.48a.26.26,0,0,1-.17.14c-.14-.2-.1-.69.17-.75v-4.77h1.57v-4.19h-13v4.19h2.39v1.64c-.59,1-1.53,1.92-3.76,1.92a4.8,4.8,0,0,1-1.56-.26c-.09.29-.38.23-.5,0a.69.69,0,0,1,.08-.18c-2.17-1-3.38-3.64-3.38-6.78,0-3.91,2.19-7.36,5.36-7.36,2.31,0,4.34,1.8,4.46,5h7V168.35h-5.83l-.82,2.82c-.63-.63-2-3.29-7.63-3.29-6.1,0-12,5.87-12,14.4,0,7.32,4.08,12.29,9.63,13.49.13-.11.37-.05.54.1a12.65,12.65,0,0,0,2.12.19,9.73,9.73,0,0,0,1.59-.13.13.13,0,0,1,.14,0,6.76,6.76,0,0,0,4.57-2.66l1.21,2.47Zm7-11.3h.24v.38H317Zm-.84-.38a.46.46,0,0,0,.36-.19c0,.28,0,.7-.12.76,0-.15-.1-.22-.24-.19Zm-.12,6.08h.24v.38h-.24Zm.24,3.12a1.42,1.42,0,0,0-.11.57c-.1-.11-.16-.53-.21-.19C315.67,193.39,316.11,193.06,316.32,193.22Zm-1.06-.19c0,.18-.13.15-.21.19.09.15.06.52.21.57-.09.29-.16-.05-.42.19C315,193.68,315,192.51,315.27,193Zm-.38-2.17c.07.86-.82,1-.72,0Zm-2.36,2.74h-.32C312,193,312.67,193,312.52,193.6Zm-1.59-.57q.56-.06.53,1Q310.9,194,310.93,193Zm.42-.57c.05.48-.49-.46-.53.19C310.41,191.95,311.29,192,311.36,192.46Zm1-17.71c-.27,0-.32-.17-.61-.2C311.79,174.32,312.5,174.55,312.32,174.76Zm-11.74,13.91h.21V189h-.21Zm.26,1.63c-.14,0-.27.34-.36,0C300.62,190.27,300.75,190,300.84,190.29ZM295.55,192c.27-.05.45,0,.48.38C295.89,192.62,295.54,192.54,295.55,192Zm1,2.85h-.24c0-.19-.1-.23-.12-.38.17,0,.2-.31.36-.38Zm1.56-4.75h.36C298.61,190.66,297.9,190.66,298.08,190.1Zm.72,1.71c.37-.31-.25-.6-.24-.95.33.19.67-.87,1-.57-.17.48-.16,1.27-.36,1.71.38-.22.29.3.48.38,0-.12,0-.22.12-.19C299.73,193,298.92,192.1,298.8,191.81Zm1.2,2.66c-.11.31-.45,0-.42-.23,0,0,0-.05.06-.15a.3.3,0,0,0-.06.15C299.66,194.29,300.17,194,300,194.47Zm-.24-3c.33.08.11-.71.36-.76C300.24,191.21,299.93,192,299.76,191.43Zm.72,4.18c-.12-1.07.47-1,.72-1.52C301,194.66,301,195.48,300.48,195.61Zm.62-3.53h-.2c0-.22,0-.34-.11-.38-.33-.26.52-.18.42.35.24,0,.45-.41.47-.05S301.18,192.57,301.09,192.08Zm2.12-2.09c.33.36-.21,1.33-.42.76C302.81,190.27,303.21,190.48,303.22,190Zm0,2c0,.49-.37.55-.6.76C302.62,192.17,302.95,192.11,303.24,192Zm.36,1.33c-.36-.37-.74.28-.84-.38.37.13.63-.88,1-.19C303.47,192.87,303.46,193.06,303.6,193.33Zm-.17-3.15c0-.33.18-.43.42-.38,0,.34.13.4.11.76C303.62,190.73,303.63,190.26,303.43,190.18Zm1.16.19a.84.84,0,0,1-.32-.76C304.43,189.78,304.68,189.76,304.59,190.37Zm.42.19c.13.08.22.24.21.57C305,191.22,305,190.86,305,190.56Zm.53-.19c.23.14.67-.19.21-.19.17-.86.38.28.63.38.39-.3-.25-.28-.11-.76.34.24.08-.61.42-.38-.26,1.16.51.29.63,1.33,0,.4-.5,0-.42-.38a3.39,3.39,0,0,1-1.37.95C305.74,191,305.55,190.85,305.54,190.37Zm.21,3.23c-.26-.08,0-.74.21-.57C306,193.45,305.76,193.3,305.75,193.6Zm.85-2.28c.1-.64.2-.09.53-.19C307.15,191.55,306.75,191.22,306.6,191.32Zm.85.76H307v-.38h.42Zm2.54-.76c-.09-.12-.19-.23-.21,0C309.34,191.12,310.15,190.53,310,191.32Zm-.85.38c0,.62-.14,1-.42,1.14C308.47,192.35,308.7,191.56,309.14,191.7Z"/><path class="cls-3" d="M316.43,195.69h.06V195c-.09.22-.46.1-.48.68h.2C316.27,195.64,316.34,195.6,316.43,195.69Z"/><path class="cls-4" d="M99,158h-.22q0,.14,0,.29A1.26,1.26,0,0,0,99,158Z"/><path class="cls-4" d="M98.51,162.26a.8.8,0,0,1,.17.6H103c0-.1,0-.22-.13-.22.07-.67.4-.18.29.22H239.78a7.09,7.09,0,0,0,.31-.68,6.32,6.32,0,0,1,.1.68h24.16a1.25,1.25,0,0,1,.11-.49c.25,0,.35.15.37.49h2.8a.17.17,0,0,1,0-.11c.47-.08.12-.29.72-.57a3.37,3.37,0,0,1,.14.68h6.22v-.3h.24v.3H318V158H268.87c-.39.52-1,.41-1.29,1.16-.41-.63.48-.86.39-1.16H104.7l.15.1c-.23.19-.51.09-.8-.1H99.65c-.06.16-.16,0-.24,0h0s-.05.14,0,.48c-.57,0-.44.13-1,.19,0,.23-.07.76,0,.91a.29.29,0,0,0,.08,0,.08.08,0,0,1-.08,0c-.32-.17-.15-.79,0-1.58h-8.7v4.88h8.81A2.63,2.63,0,0,0,98.51,162.26Zm217-.38c0,.23-.14.39-.32.38C315.21,162,315.3,161.87,315.48,161.88Zm-.42-2.28h-.21c0-.16,0-.18-.11-.19C314.7,159,315.22,159.13,315.05,159.6Zm-10,1.82c0,.25.21.17.24.38C305.14,162.26,304.71,161.59,305,161.42Zm-18.78.72a1.69,1.69,0,0,0-.61-.1C285.71,161.77,286.35,161.83,286.25,162.14Zm-.81-.1c-.3-.09-.65-.15-.61-.39C285.37,161.61,285.35,161.85,285.44,162Zm-.61-1.18c-.06-.16.19-.17.2-.3S285.42,161,284.83,160.86Zm.21-.5c0,.27-.32.07-.32.38-.13,0-.11-.38,0-.38,0-.17-.09-.34-.21-.38C284.68,159.39,284.85,160.37,285,160.36Zm-.21,1.52c.26.22-.26.79.21.76-.13.58-.36-.21-.63,0Q284.42,161.91,284.83,161.88Zm-1.63.06h-.41v-.2h.41Zm-.2-1c-.2.33-.4-.11-.61-.1C282.5,160.57,282.7,161,283,161Zm-2.44,1.58c0,.24-.69,0-.81,0C279.79,162.28,280.09,162.67,280.55,162.53Zm-.41-.79c-.09.12-.26.2-.61.2C279.44,161.73,279.83,161.75,280.15,161.74Zm-2.48-3.36c0,.15.1.22.24.19a4.62,4.62,0,0,1-.36,1.14A1.33,1.33,0,0,1,277.67,158.38Zm-.84,2.28c-.14.36-.49,1.49-.72.57C276.57,161.51,276.65,160.22,276.83,160.66Zm-1,1c-.16.48.47.59.12.76,0-.27-.26-.22-.36-.38,0,.11-.1.22-.12,0C275.68,161.94,275.71,161.68,275.87,161.61Zm-8.16-.19h.36C268.24,162,267.53,162,267.7,161.42ZM262,160.07c.55,0-.55.5,0,.49-.09.15-.26,0-.61,0C261.6,160.38,261.91,160.27,262,160.07Zm-.61,1.87c.17,0,.19,0,.2-.1.72,0-.43.33.2.3-.35.37-.33-.21-.61-.2C261.25,161.83,261.42,161.89,261.42,161.94Zm-3.66-2.47c-.18.28-.49.49-.61.79-.43-.5.08-.47-.41-.79C256.91,159.19,257.24,159.6,257.75,159.47Zm-9.28-.06h.21v.38h-.21Zm-142.57,1.52c0,.35-.73.71-.85,0a.69.69,0,0,0,.85-.38C106.23,160,105.62,161,105.91,160.93Zm-.85-1.71a1.75,1.75,0,0,0,.85.76c-.46-.06-.48.36-.85.57C105.31,160.13,105,159.81,105.06,159.22Zm-1.59-1c.16.1.27.28.42.38-.09.28-.16.6-.42.57.27.34.71.37.74,1.14-.5-.26-.58-.63-1.06-.57C103.32,159.25,103.69,159,103.48,158.27Zm-1.06.76c-.1.58-.36-.08-.42-.19C102.1,158.26,102.35,158.93,102.42,159Zm-2,1.33c0,.16,0,.18.11.19,0,.22-.19.16-.32.19C100.16,160.42,100.28,160.38,100.41,160.36Z"/><path class="cls-4" d="M98.3,104.32c.1,0,.08.22.1.37H267.34c0-.09-.08-.17-.16-.18.06-.2.24-.09.36.18h1c0-.09-.07-.18-.16-.18s.36-.3.41.18H318V99.81H275l.11.33c-.09.26-.15-.06-.26-.33H98.64a1.24,1.24,0,0,1,.08.52c-.17-.13-.27-.41-.45-.52H89.71v4.88H98.3Zm217.18.19c-.14-.07-.17-.33-.32-.38C315.2,103.66,315.57,104.12,315.48,104.51Zm-27.73-4.07c-.12,0-.15-.33,0-.38,0,.31.33.11.36.38-.22,0-.41,1-.6.38C287.65,100.78,287.7,100.61,287.75,100.44Zm-12,.65a5.08,5.08,0,0,1,.32,1.14c-.12,0-.19,0-.21.19A1.48,1.48,0,0,1,275.74,101.09Zm-8.77.57c.29,1,1.2.49,1.37,1.9-.39-.47-.56-.86-1.16-.57C267.72,102.59,266.54,102.41,267,101.66ZM246.58,101h.24v.38h-.24Zm-148-.49c.14.07.17.33.32.38C98.89,101.37,98.52,100.91,98.61,100.52Z"/><path class="cls-2" d="M287.63,132.74Z"/><path class="cls-2" d="M288,135.4c.22.69.33-.34.6-.19a6.7,6.7,0,0,0-.36-1.33c-.3.22-.75.2-.6,1.14C287.79,135,288.29,135.31,288,135.4Z"/><path class="cls-2" d="M102.21,152.19a3.41,3.41,0,0,1,.16,1h.6c.05-.18.14-.29.29-.28a.58.58,0,0,1,0,.28h21.91V136.78h-9.68c.06.28.14.8-.15.78a6.9,6.9,0,0,0,.06-.78h-.87v8h-8.17V117.35h3.35V109h-20v8.36h3.48v27.47H89.7v8.42h12.49C102.19,152.9,102,152.52,102.21,152.19Zm2.11-11.78c0,.33-.18.43-.42.38A.47.47,0,0,1,104.32,140.41Zm-1.27,11.21c-.1.63-.21-.21-.32-.19C102.79,150.88,102.9,151.72,103.05,151.62Zm-.42.95c.11,0,.07.38.21.38,0,.18-.13.15-.21.19C102.5,152.89,102.59,152.84,102.63,152.57Zm-1.16-1.14c-.44.05-.14-.74-.32-.76C101.24,150.22,101.47,151.08,101.47,151.43Zm-2-.57h.21v.38h-.21ZM98.3,138.13c-.26-.12-.06-1,.21-.76C98.51,137.75,98.22,137.62,98.3,138.13Zm.21.57q0,.62-.32.57C98.3,139.1,98.22,138.57,98.51,138.7Zm0,.95a1.64,1.64,0,0,1,.21,1.14C98.4,140.82,98.42,139.8,98.51,139.65Zm.21-3.23c0,.33-.18.43-.42.38,0,.16,0,.18.11.19-.14.54-.28-.49-.21-.95.18,0,.27.32.32,0C98.62,136.09,98.58,136.42,98.72,136.42Zm-.42-.76c0-.45-.18-.56-.11-1.14C98.43,134.68,98.86,135.68,98.3,135.66Zm.11-10.07c-.13-.08-.22-.24-.21-.57C98.32,125.11,98.41,125.27,98.4,125.6Zm-.11,1.33c.38,1.1-.16,1.21.11,2.47C97.79,129,98.35,127.93,98.3,126.93Zm0,16c.26.08.08.87-.21.57C98,143,98.29,143.18,98.3,142.88Zm-2.86-18.7c-.15-.45,0-.35-.12-.95C95.77,123.21,95.44,124.2,95.44,124.19Zm1.67-7c-.34-.1-.22-.42-.41-.59h.61C97.34,116.83,97.34,117.06,97.11,117.17Zm1.09,27.61a4.81,4.81,0,0,1,.11,1.9C98,146.62,98.05,145.12,98.19,144.78Zm.42,3.61c.13,0,.14-.57,0-.57,0-.28.14.07.32,0-.19.66,0,.81.11,1.33-.33.09-.24-.58-.63-.38,0-.54-.19-.79-.21-1.33C98.48,147.5,98.38,148.24,98.61,148.39Zm.32,2.09c0,.53-.33,0-.21-.38-.09,0-.1.07-.11.19-.26,0,0-.64,0-.76.11.12.11.44.32.38C99,150.24,98.75,150.4,98.93,150.48Zm.21,2.09c-.59-.49-.29.6-.85.57,0-1.25.48-1.36.21-2.66.4.35.44,1.27.85,1.14C99.37,152.09,99.19,152.21,99.14,152.57Zm.32-.57c.14.07.17.33.32.38C99.73,152.85,99.37,152.39,99.46,152Zm1.69.95a1.13,1.13,0,0,1-.21-.76c.31.3.4-.14.85.19C101.61,152.9,101.16,152,101.15,153Zm.74-9.88c.08-.34.19,0,.32,0C102.13,143.41,102,143.1,101.89,143.07Z"/><path class="cls-2" d="M286.1,124.06c.1,0,.18.18.1.4h-.1V126a1.17,1.17,0,0,1,.3.14c-.06-.17-.17-.25-.21-.45.24,0,.15-.52.48-.38a2.94,2.94,0,0,1-.2.88,1,1,0,0,1,.36.72,7.11,7.11,0,0,0-.73-.59v5.3a1.06,1.06,0,0,0,.57-.61c-.22-.18-.4.57-.48,0,.33.14.24-.38.48-.38-.17,1.15,1,0,.72.57-.86.35.29.51.6,0a.1.1,0,0,1,0-.19c.41.78-.63.55-.72,1.14.21.35.35-.08.6-.19,0,.43,0,.71.24.76,0-.33-.18-.49,0-.57,0,.67.45-.48.48.19-.14,0-.13.3-.12.57-.47,0-.66.47-1,.76.22.35.67.1.84-.19-.07,0-.14,0-.12-.19.59.06.16.64.36,1.14.63.35,1-.23,1.56-.57a1.16,1.16,0,0,1-1.32.95q-.08.82-.6.95c-.42-.39-.56,0-.84-.57-.25.18-.1,1-.48.95-.16-.83.29-.69.36-1.14-.31-.22-.52.59-.48-.19.18,0,.44.07.48-.19s0-.54-.12-.57c-.33.4-.18-.25-.12-.57-.64.05,0-.81-.6-.76.09.81-.22.59-.33.71v.62h.45a6.14,6.14,0,0,0,0,1.71.81.81,0,0,1-.45,0v9h-3.48v8.42h35.45V136.78H307.43v8h-8.17V117.35h3.35V109h-20v8.36h3.48Zm.63,5c-.09-.12-.19-.23-.21,0C286.09,128.81,286.9,128.22,286.73,129Zm2,6.38c.27-.05.45,0,.48.38C289,135.73,288.59,136,288.71,135.4Zm.36,1.14c.07,0,.14,0,.12-.19h.24C289.62,136.81,289,136.9,289.07,136.53Zm.24,15.77c0,.12,0,.22.12.19s.1-.22.12,0C289.45,152.87,288.94,152.54,289.31,152.3Zm.36-15h.24v.38h-.24Zm.12,15.58c.14,0,.27-.34.36,0C290,152.9,289.88,153.21,289.79,152.87Zm0-21.09c0,.23.13.12.24,0C290.22,132.58,289.3,132,289.79,131.79Zm-1-7.41c.08.51-.25.37-.36.57C288.39,124.44,288.72,124.58,288.83,124.38Zm-1.08.38c.12,0,.14-.15.24-.19,0,.3,0,.66-.24.57Zm-.12.57c.37.21.7-.1,1.08.38h-.36c0,.22,0,.54-.12.57,0-.74-.51-.61-.72-.19C287.48,125.73,287.65,125.67,287.63,125.33Zm.36.76c-.28.06-.27.59-.48.76,0-.37-.16-.38-.24-.57C287.68,126.58,287.78,125.47,288,126.09Zm-1.58-3h.21v.38h-.21Z"/><path class="cls-2" d="M286.43,135.21c-.21,0-.31-.1-.33-.22v.41C286.24,135.37,286.41,135.41,286.43,135.21Z"/><path class="cls-2" d="M286.31,132.55c.16-.06.1-.48.12-.76a.31.31,0,0,0-.33.18v.64C286.21,132.35,286.31,131.84,286.31,132.55Z"/><path class="cls-2" d="M286.91,132.17Z"/><path class="cls-2" d="M286.1,134.34V135a.59.59,0,0,1,.33-.53C286.3,134.23,286.21,134.27,286.1,134.34Z"/><path class="cls-2" d="M150.21,107.79c-13.1,0-22.22,9.43-22.22,23.1,0,15.82,9.43,23.48,22.66,23.48,14.3,0,22.28-8.73,22.28-23S165.71,107.79,150.21,107.79Zm6.32,4.51c.14-.05.11.28.11.57-.17.05-.18-.18-.32-.19C156.34,112.47,156.53,112.55,156.53,112.3Zm-14.39,36.2c0-.25-.21-.17-.24-.38.15,0,.17-.24.36-.19C142.25,148.23,142.29,148.56,142.13,148.5Zm.6-2.47c0-.34-.12-1,.24-.76A1,1,0,0,1,142.73,146Zm1.08-.19c.3.25.5-.56.6,0C144.06,145.79,144,146.6,143.81,145.84Zm6.84-1.4c-4.05,0-7-5.25-7-13.54,0-7.85,2.66-13.42,6.52-13.36,4.87,0,7,6.14,7,13.8C157.11,139.18,154.64,144.44,150.65,144.44Zm6.41-29.67a1.13,1.13,0,0,1,.21.76C157,115.72,157.08,115.11,157.06,114.77Zm1,.19c.14-.76.22.05.53,0C158.45,115.52,158.27,114.71,158,115Z"/><path class="cls-2" d="M246.1,140.64h13l1.33,4.3h-6v8.29h14.46a.56.56,0,0,1-.07-.36c.16-.06.23-.27.48-.19v.55h10.51v-8.29h-4.43l-11.2-36H239.83v8.17h2.6l-8.54,27.79h-4.3v8.29h20.13v-8.29h-4.94Zm26.17-1.45a.8.8,0,0,1-.36.76A.8.8,0,0,1,272.27,139.19Zm-.24.95c.12.76.37-.06.36.57.17,0,.14-.42.24-.57a.1.1,0,0,1,0-.19c0,.25.21.17.24.38-.17,0-.14.42-.24.57-.44-.12-.64.13-.84.38A2.17,2.17,0,0,1,272,140.14Zm-1.8,5.51c.19-.05.08-.42,0-.57C270.72,144.76,270.4,146.49,270.22,145.65Zm0-2.85c0,.25.21.17.24.38C270,143.54,270.13,143,270.22,142.8Zm-.84,8.74c0,.12,0,.22.12.19v.38c-.34,0-.61,0-.72-.38C269.23,151.75,269.17,152,269.38,151.54Zm-16.83-32.17L256.73,133h-8.29ZM248,150.6c.36.07,0,.18,0,.3C247.61,150.82,247.95,150.72,248,150.6Z"/><path class="cls-5" d="M240.54,126.77a7,7,0,0,1,5.71-2.91,18,18,0,0,1,4.12.29l2.51.12-2.05-1.51-.94-.5c-2.11-1.14-5.3-2.87-8.58-2.67a7.55,7.55,0,0,0-2.66.65,9.7,9.7,0,0,1-3.36.91,4,4,0,0,1-2.29-.42,12.85,12.85,0,0,1,3.4-1c.49-.09.95-.18,1.33-.27l2.14-.51-2-.88a12.33,12.33,0,0,0-5.72-1.11,10.53,10.53,0,0,0-2,.32L230,117a14.38,14.38,0,0,1,2.32-.32l.89,0,.76,0a7,7,0,0,0,1.5-.22c3.16-.92,6.19-4.08,8.76-9.13l1.63-3.21-2.76,2.31a8.59,8.59,0,0,1-5.26,2.34,16.33,16.33,0,0,1-2.48-.09,17.31,17.31,0,0,0-2.63-.1,8.39,8.39,0,0,0-3.08.78,12,12,0,0,0-1.13.61,7.44,7.44,0,0,0,.71-4.29l-.39-2.92-1,2.77a5.42,5.42,0,0,1-1.25,1.94,7.91,7.91,0,0,0,1.06-6.13c-.61-3.06,1-5.75,5.08-8.45l4.13-2.75L232,91.5l-1,.29c-3,.8-8,2.15-9.53,6.24-1.21,3.17-3,4.06-3.72,4.17a11.89,11.89,0,0,1,1.71-2.95c.28-.4.54-.77.75-1.1l1.16-1.82-2,.73a14.66,14.66,0,0,0-1.38.58c2-2.4,2.82-6.38,2.45-11.6l-.24-3.46L219,85.85c-1.38,3.78-3.41,4.68-5.57,5.63a9.92,9.92,0,0,0-4.64,3.34,10.16,10.16,0,0,0-1.83,4.33,7.59,7.59,0,0,0-3-5l-2.43-1.77,1.33,2.7a5.13,5.13,0,0,1,.53,2.31,8,8,0,0,0-3.79-5.18c-2.69-1.73-3.52-4.7-2.6-9.34l.9-4.59-2.27,4.09c-.15.27-.33.57-.53.91-1.54,2.59-4.13,6.94-2.23,10.88,1.54,3.19.75,5,.4,5.41a10.52,10.52,0,0,1-1-3.26c-.09-.47-.18-.91-.27-1.27l-.49-2-.89,1.83a12.14,12.14,0,0,0-1.14,3.69,5.31,5.31,0,0,0-.19-1.11c-.93-3-4.19-5.92-9.43-8.34l-3.27-1.51L179,90.35c2.7,3,2.47,5.11,2.23,7.35a9.08,9.08,0,0,0,.65,5.53,11,11,0,0,0,.65,1.12,8.16,8.16,0,0,0-4.44-1l-.62.06-3.15.42,3,1a5.58,5.58,0,0,1,2,1.14,8.4,8.4,0,0,0-4.91-1.16,11.39,11.39,0,0,0-1.46.19c-3.24.62-6-.87-8.79-4.78L162,97.81l.8,3c.09.29.19.62.29,1,.81,2.86,2.16,7.65,6.4,9.11,3.2,1.1,4.19,2.81,4.29,3.46a10.49,10.49,0,0,1-3.14-1.61c-.41-.26-.8-.51-1.13-.7l-1.8-1,.74,1.94c.11.28.23.54.35.8-2.51-1.18-6.08-1.64-10.48-1.3l-3.72.28,3.55,1.16a8.25,8.25,0,0,1,5.79,5.27,9.33,9.33,0,0,0,3.44,4.43A11.07,11.07,0,0,0,170,124.9a8.13,8.13,0,0,0-4.75,2.86l-1.95,2.44,2.84-1.31a5.84,5.84,0,0,1,2.11-.53h0a8.55,8.55,0,0,0-5.09,3.61,7,7,0,0,1-5.71,2.91,18,18,0,0,1-4.12-.29l-4.85-.83,4.4,2.22.94.5c2.11,1.14,5.3,2.87,8.58,2.67a7.55,7.55,0,0,0,2.66-.65,9.69,9.69,0,0,1,3.36-.91,4,4,0,0,1,2.29.42,12.88,12.88,0,0,1-3.39,1c-.49.09-.95.18-1.33.27l-2.14.51,2,.88a12.33,12.33,0,0,0,5.72,1.11h0a10.54,10.54,0,0,0,2.09-.35l.08.19a15.39,15.39,0,0,1-1.75.2l-.89,0-.76,0a7,7,0,0,0-1.5.22c-3.16.92-6.19,4.08-8.76,9.13l-1.63,3.21,2.76-2.31a8.59,8.59,0,0,1,5.26-2.33,16.24,16.24,0,0,1,2.48.1,17.32,17.32,0,0,0,2.63.1,8.38,8.38,0,0,0,3.08-.78l.46-.23a7.43,7.43,0,0,0-.65,4.16L175,156l1-2.77a5.42,5.42,0,0,1,1.25-1.94,7.91,7.91,0,0,0-1.06,6.13c.61,3.06-1,5.75-5.08,8.45l.62,1.32,1-.29c3-.8,8-2.15,9.54-6.24,1.21-3.17,3-4.06,3.72-4.17a11.87,11.87,0,0,1-1.71,3c-.28.4-.54.77-.75,1.09l-1.16,1.82,2-.73c.34-.12.66-.26,1-.4-1.61,2.44-2.29,6.17-2,10.92l.24,3.46,1.19-3.26c1.38-3.78,3.41-4.68,5.57-5.63a9.93,9.93,0,0,0,4.64-3.34,10.22,10.22,0,0,0,1.74-3.89,7.59,7.59,0,0,0,3,5l2.43,1.77-1.33-2.7a5.15,5.15,0,0,1-.53-2.31,8,8,0,0,0,3.79,5.18c2.69,1.73,3.52,4.7,2.6,9.34l-.9,4.59,2.27-4.09c.15-.27.33-.57.53-.91,1.54-2.59,4.13-6.94,2.23-10.88-1.54-3.19-.75-5-.4-5.41a10.51,10.51,0,0,1,1,3.26c.09.47.18.91.27,1.27l.49,2,.89-1.83a10.45,10.45,0,0,0,.91-7.48l.53-.22a16.07,16.07,0,0,1,.28,2.85,8.68,8.68,0,0,0,.24,2.19c.93,3,4.19,5.92,9.43,8.34l3.27,1.51-2.42-2.67c-2.7-3-2.47-5.11-2.23-7.35a9.08,9.08,0,0,0-.65-5.53c-.1-.2-.21-.39-.32-.58a8.09,8.09,0,0,0,3.47.57l.62-.06,3.15-.42-3-1a5.59,5.59,0,0,1-2-1.14A8.41,8.41,0,0,0,229.4,154a11.39,11.39,0,0,0,1.46-.19c3.24-.62,6,.87,8.79,4.78l2.7,3.77L241,157.89c-.09-.29-.19-.62-.29-1-.81-2.86-2.16-7.65-6.4-9.11-3.2-1.1-4.19-2.81-4.29-3.46a10.5,10.5,0,0,1,3.14,1.61c.41.26.8.51,1.13.7l1.8,1-.74-1.94c-.1-.27-.22-.52-.34-.78,2.42,1.39,6,2,10.62,1.7l.55,0,3.72-.28-3.55-1.16a8.26,8.26,0,0,1-5.79-5.27,9.33,9.33,0,0,0-3.44-4.43,10.85,10.85,0,0,0-3.77-1.57,8.18,8.18,0,0,0,5.18-3l1.95-2.44-2.84,1.31a5.94,5.94,0,0,1-2.13.53A8.55,8.55,0,0,0,240.54,126.77Zm-50,30.11.2.08-.53.44C190.37,157.22,190.47,157,190.58,156.88Zm39.89-16.95,0,0,.1.1Zm-17.24-38.14-.5-.18a12.26,12.26,0,0,1,1.61-1.31A9.94,9.94,0,0,0,213.23,101.79Z"/><path class="cls-6" d="M193.73,109.83c-4.72-1.6-9-2.39-11.21-6.94s2-7.53-3-13c5.12,2.36,8.2,5.15,9,7.88.68,2.24-1.08,6.82,5.15,12.07Z"/><path class="cls-6" d="M181.19,123.6c-4.95.88-9,2.24-13.39-.59s-2.2-7.43-9.41-9.78c5.69-.43,9.83.5,12,2.45,1.76,1.6,2.61,6.38,10.78,7.91Z"/><path class="cls-6" d="M181.8,137.67c-1.72,4.55-2.59,8.62-7.36,10.84s-7.83-1.82-13.62,3c2.51-4.94,5.46-7.93,8.31-8.76,2.34-.68,7.09,1,12.63-5.08Z"/><path class="cls-6" d="M195.25,150.14c.87,4.74,2.23,8.66-.77,12.86s-7.77,2.19-10.3,9.14c-.38-5.46.63-9.44,2.68-11.53,1.68-1.71,6.68-2.58,8.36-10.44Z"/><path class="cls-6" d="M210.67,148.81c4.72,1.6,9,2.39,11.21,6.94s-2,7.54,3,13c-5.12-2.36-8.2-5.15-9-7.88-.68-2.24,1.08-6.82-5.15-12.07Z"/><path class="cls-6" d="M223.27,135.52c4.95-.88,9-2.24,13.38.59s2.2,7.43,9.41,9.78c-5.69.43-9.83-.5-12-2.45-1.76-1.6-2.61-6.38-10.78-7.91Z"/><path class="cls-6" d="M222.57,120.82c1.72-4.55,2.59-8.62,7.36-10.84s7.83,1.82,13.62-3c-2.51,4.94-5.46,7.93-8.31,8.76-2.34.68-7.09-1-12.63,5.08Z"/><path class="cls-6" d="M208.59,108.1c-.86-4.74-2.23-8.66.77-12.86s7.77-2.19,10.3-9.14c.38,5.46-.63,9.44-2.68,11.53-1.68,1.71-6.68,2.58-8.36,10.44Z"/><path class="cls-6" d="M195.37,108.12a23.93,23.93,0,0,1,6.8-1c.91,0,3.46-2,4-5.12a7.18,7.18,0,0,0-2.72-7.23c1.53,3.1-.31,6.31-.53,4.73-.28-2.1-.57-4.58-3.79-6.65s-3.8-5.65-2.93-10.1c-1.23,2.21-4.71,7-2.74,11.12s.45,6.53-.19,6.53c-1.26,0-1.62-3.45-2-5.16C187.27,103.48,194.76,108.34,195.37,108.12Z"/><path class="cls-6" d="M181.57,118.93a22.61,22.61,0,0,1,2-3,23.13,23.13,0,0,1,2.1-2.29c.62-.65,1-3.76-.89-6.31a7.75,7.75,0,0,0-7.27-3.21c3.38,1.13,4.42,4.63,3.11,3.66-1.75-1.28-3.78-2.81-7.61-2.07s-6.88-1.37-9.53-5.07c.75,2.38,1.8,8.11,6.23,9.63s5.13,4.26,4.68,4.7c-.9.86-3.7-1.31-5.26-2.22C172.37,121.18,181.3,119.5,181.57,118.93Z"/><path class="cls-6" d="M179.67,135.85a21.1,21.1,0,0,1-1-6.52c0-.87-2.06-3.3-5.29-3.8a8,8,0,0,0-7.56,2.69c3.25-1.51,6.57.23,4.92.45-2.19.29-4.77.6-7,3.72s-5.93,3.72-10.55,2.92c2.29,1.15,7.26,4.44,11.55,2.5s6.81-.5,6.8.11c0,1.21-3.61,1.59-5.4,2C174.75,143.68,179.9,136.44,179.67,135.85Z"/><path class="cls-6" d="M190.78,149a23.17,23.17,0,0,1-3.12-1.92,22.73,22.73,0,0,1-2.36-2c-.67-.58-3.91-.91-6.58.93a7.4,7.4,0,0,0-3.42,7c1.21-3.26,4.87-4.3,3.85-3-1.35,1.7-3,3.66-2.25,7.33s-1.5,6.62-5.39,9.21c2.48-.75,8.46-1.82,10.1-6.09s4.5-5,4.95-4.54c.89.85-1.41,3.56-2.37,5.08C193,157.79,191.37,149.23,190.78,149Z"/><path class="cls-6" d="M208.39,150.61a23.93,23.93,0,0,1-6.8,1c-.91,0-3.46,2-4,5.12a7.18,7.18,0,0,0,2.72,7.23c-1.53-3.1.31-6.31.53-4.73.28,2.1.57,4.58,3.79,6.65s3.8,5.65,2.93,10.1c1.23-2.21,4.71-7,2.74-11.12s-.45-6.53.19-6.53c1.26,0,1.62,3.44,2,5.16C216.49,155.25,209,150.39,208.39,150.61Z"/><path class="cls-6" d="M222.19,139.8a22.69,22.69,0,0,1-2,3,23.1,23.1,0,0,1-2.1,2.29c-.62.65-1,3.76.89,6.31a7.75,7.75,0,0,0,7.26,3.21c-3.38-1.13-4.42-4.63-3.11-3.66,1.75,1.28,3.78,2.81,7.61,2.07s6.88,1.37,9.53,5.07c-.75-2.38-1.8-8.11-6.23-9.63s-5.13-4.26-4.68-4.7c.9-.86,3.7,1.31,5.26,2.22C231.39,137.55,222.46,139.23,222.19,139.8Z"/><path class="cls-6" d="M224.09,122.88a21.08,21.08,0,0,1,1,6.52c0,.87,2.06,3.3,5.28,3.8a8,8,0,0,0,7.56-2.69c-3.25,1.51-6.57-.23-4.92-.45,2.19-.29,4.77-.6,7-3.72s5.93-3.72,10.55-2.92c-2.29-1.15-7.26-4.44-11.55-2.5s-6.81.5-6.8-.11c0-1.21,3.61-1.59,5.4-2C229,115.05,223.86,122.29,224.09,122.88Z"/><path class="cls-6" d="M213,109.75a23.25,23.25,0,0,1,3.12,1.92,22.69,22.69,0,0,1,2.36,2c.67.59,3.91.91,6.58-.93a7.4,7.4,0,0,0,3.42-7c-1.21,3.26-4.87,4.3-3.85,3,1.35-1.7,3-3.66,2.24-7.33s1.5-6.62,5.39-9.21c-2.48.75-8.46,1.82-10.1,6.09s-4.5,5-4.95,4.54c-.89-.85,1.41-3.56,2.37-5.08C210.73,100.94,212.39,109.5,213,109.75Z"/><ellipse class="cls-7" cx="201.92" cy="129.34" rx="30.01" ry="28.77" transform="translate(-15.41 28.01) rotate(-7.64)"/><path class="cls-8" d="M225.78,213.56h7.1v-2.32h-1.24l-3.13-10.05h-6.8v2.28h.73L220,211.24h-1.2v2.32h5.63v-2.32h-1.38l.37-1.2h3.63l.37,1.2h-1.68Zm-1.66-5.65.58-1.92c-.1-.23,0-.64.21-.68l.37-1.22,1.17,3.82Z"/><path class="cls-8" d="M160.12,204.51c0-.62.71-.94,1.22-.94a2.07,2.07,0,0,1,2.27,2.05h3.2v-4.44h-3l-.18,1.49a4,4,0,0,0-3.7-1.81c-1.73,0-4.21,1.19-4.21,3.81,0,4.51,6.8,3.93,6.8,5.31,0,.74-.89.89-1.5.89s-2.23-.28-2.23-1.77h-3.29v4.46h3.1l.19-1.36a4.77,4.77,0,0,0,3.7,1.63c2.11,0,4.69-1,4.69-3.75C167.13,205.91,160.12,206.34,160.12,204.51Zm2.9,4c.14,0,.27-.34.36,0C163.24,208.56,163.11,208.87,163,208.53Z"/><path class="cls-8" d="M108.65,203.67c0-.22.11-.11.11,0,.28.13.2-.39.32-.57a.63.63,0,0,0,.11.11v-2h-.46c.11.22.19.45-.08.4a1.05,1.05,0,0,0-.06-.4h-1.11a5.13,5.13,0,0,1,.12,1.16,5.4,5.4,0,0,1-.74-.57c-.24.11.13.3-.11.57.21-.05.41.85.85.38.3,1.07-.46,1.09-1,1.24v1.83h2.6v-.56A3.69,3.69,0,0,0,108.65,203.67Zm.11-.57v-.76c-.35,1.48-.43-1.2.21-.38,0,.3-.05.72.11.76a.65.65,0,0,1-.53.57C108.36,203.14,108.61,203.09,108.76,203.1Zm-1.16,1.71c-.46,0-.19-.33-.21-.95.17-.05.18.18.32.19A1.75,1.75,0,0,0,107.6,204.81Zm.32.57c-.1-.92.59.07.53-.38.33-.06-.27.55.11.57C108.74,205.66,108.37,205.51,107.91,205.38Z"/><path class="cls-8" d="M183,201.18h-6.8v2.28h.73l-2.39,7.77h-1.2v2.32h5.63v-2.32h-1.38l.37-1.2h3.63l.37,1.2h-1.68v2.32h7.1v-2.32h-1.24Zm-4.39,6.73,1.15-3.82,1.17,3.82Z"/><path class="cls-8" d="M256.74,212.37v-.55c-.28,0-.44.06-.42.2-1.29-.3-.11.44-1,.49.32-.29-.36-.6,0-1,.31.35,1.08,0,1.44.07v-2h-3.06v1.65H252a.85.85,0,0,1,0,.23c-.39,0-.45-.08-.44-.23h-.76v-2.89h3.36V206h-3.36v-2.44h2.83v1.58h3.06v-3.91H246.07v.17l.08,0-.08.08v2s.09,0,.12.1h.62c0-.28.08-.46.25-.5a.67.67,0,0,1,.06.5h.07v7.68h-1.11v2.35h6a3.06,3.06,0,0,1,.76,0,.15.15,0,0,1,0,0h3.88v-1.13A0,0,0,0,1,256.74,212.37Zm-9-.54c-.34.35-.6-.23-.2-.3C248.29,211.55,247.14,211.86,247.77,211.83Zm0-1.28v-.3c.37,0,.43-.12.81-.1,0,.18.25.21.2.39A2.51,2.51,0,0,0,247.77,210.55Zm5.09,2.07c-.59-.16.95-.73,0-.79.18-.21,1.14,0,1,.3C253,212,253.32,212.51,252.86,212.62Zm.81-1.08c.48,0,.38.34,1,.3C254.59,212,253.4,211.88,253.68,211.54Z"/><path class="cls-8" d="M198.64,204.51c0-.62.71-.94,1.22-.94a2.07,2.07,0,0,1,2.27,2.05h3.2v-4.44h-3l-.18,1.49a4,4,0,0,0-3.7-1.81c-1.73,0-4.21,1.19-4.21,3.81,0,4.51,6.8,3.93,6.8,5.31,0,.74-.89.89-1.5.89s-2.23-.28-2.23-1.77H194v4.46h3.1l.19-1.36a4.61,4.61,0,0,0,2.18,1.4h.28a.27.27,0,0,1,0,.07,5.3,5.3,0,0,0,1.24.14c2.11,0,4.69-1,4.69-3.75C205.65,205.91,198.64,206.34,198.64,204.51Z"/><path class="cls-8" d="M105.1,203.52h.62a1.55,1.55,0,0,1,0-.23c-.52.43.21-.68.22.23h.38c.24-.56,0-1.22.35-1.56a3.52,3.52,0,0,0-.26-.78h-1c0,.1,0,.2.13.21,0,.4-.31.13-.33-.21h-.57a1,1,0,0,1,.16.78c-.39-.13-.62.53-.63-.38.25.23.08,0-.12-.4h-.72c-.17.31-.38.5-.42,0h-.52c0,.51-.27.43-.23,1,.16-.68.6-.23.63.38-.22-.11-.34-.54-.53-.19,0,.81.6.69.53,1.71a11.38,11.38,0,0,1-1.17-2.87H98.4c0,.14,0,.28,0,.4a2.21,2.21,0,0,1-.1-.4h-1v4.6h2.6v-2.27h1.52v7.68H100v2.35h6.58V211.2H105.1Zm1.23-1.18v.57a.39.39,0,0,0-.32-.19C106,202.32,106.16,202.36,106.33,202.34Zm-.42.38c-.46.26-.38-.45-.63-.57C105.36,201.83,106,202.13,105.91,202.72Zm-7.71,1.33c0-.31.1-.33.11-.57C98.5,203.41,98.45,204.35,98.19,204.05Zm4.23-2.85c.21,0,.13.52.42.38C102.77,202,102.31,201.68,102.42,201.2Zm.74.95c0-.59.23-.61.53-.57,0,.32-.08.36-.21.38.06.17.13.34,0,.38C103.28,202.86,103.66,201.84,103.16,202.15Zm.32.57c.14.07.17.33.32.38C103.75,203.57,103.38,203.11,103.48,202.72Zm1.27,0c-.2-.08-.64.26-.53-.38C104.37,202,104.82,202.06,104.74,202.72Z"/><path class="cls-8" d="M209.78,211.2v2.35h6.58V211.2h-1.47v-7.68h1.49v2.27H219v-4.6h-9.2a.92.92,0,0,1-.49.1.39.39,0,0,1,.11-.1h-2.3v4.6h2.6v-2.27h1.52v7.68Z"/><path class="cls-8" d="M244.62,205.79v-4.31h-.1a.18.18,0,0,1,.1-.18v-.12H232.74v4.6h2.6v-2.27h1.52v7.68h-1.45v2.35h2.1c0-.2,0-.4.06-.47.07.88.77-.55,1,0-.09.3-.4.25-.54.47h4V211.2h-1.47v-7.68H242v2.27Zm-7.52,6.54a.84.84,0,0,1-.84-.38C236.52,212.09,237.19,211.61,237.09,212.33Zm-.12-7c.28.06.13-.55.36-.57a1.25,1.25,0,0,0,.12.57C237.18,205,237,205.79,237,205.3Zm.6,3c0-.59-.35.48-.36-.19C237.29,207.78,238,208,237.57,208.34Zm3.72,3.23c0,.32-.14.47-.12,0C240.49,211.63,241.1,211.13,241.29,211.57Zm-2.4-7h-.24v-.38h.24Zm.72,8.55c0-.28,0-.7.12-.76,0,.23.13.12.24,0C239.92,212.69,239.93,213.15,239.61,213.09Zm3.36-9.5a.8.8,0,0,0,.72.38c.13.48-.4.84-.48.38a.1.1,0,0,0,0-.19h-.36C242.87,203.94,242.83,203.62,243,203.59Z"/><path class="cls-8" d="M116.25,211.2h-.17C116.16,211.3,116.23,211.38,116.25,211.2Z"/><path class="cls-8" d="M116.58,212.6c0-.67.35.4.32-.19.38.4-.21.61-.21.95a.94.94,0,0,0,.13.2H121c-.08-.12-.19-.26-.34-.2v-.57c.28.08.32.57.63.57,0,.08,0,.14,0,.19,2.59,0,4.49-.9,5.58-2.48a1.31,1.31,0,0,0-.25-.18,2.06,2.06,0,0,1,.11-.95c.31.16-.14.48,0,.95a.36.36,0,0,1,.32-.09,6.88,6.88,0,0,0,.89-3.6c0-3.38-2.44-6-6.73-6h-5.4v2.34h1.1v7.68h-.55c.11.25-.35.39-.41.07,0,0,0,0,0-.07h-.13v2.35h.42C116.41,213.24,116.81,212.92,116.58,212.6Zm2.43-1.71c-.32-.17-.42-1.2,0-1.33Zm3,2.47c-.38.3-.06-.65-.32-.57C121.69,212.39,122,213,122,213.36Zm4.86-7c-.34.16-.33-.3-.53-.38C126.33,205.62,126.9,205.87,126.83,206.33Zm-.63,1.52c-.28.06-.35-.26-.32-.76C126.16,207,126.15,207.49,126.2,207.85Zm-.21-4c-.06.55-.17-.29-.32-.19C125.77,203,125.88,203.88,126,203.86Zm-1.59,8c-.25-.06-.24-.59-.42-.76C124,210.73,124.42,211.41,124.4,211.84Zm-3.86-8.32h.67c1.88,0,2.66,1.79,2.66,3.68a6.2,6.2,0,0,1-.42,2.4c0,.17,0,.31.11.33,0,.24-.16.06-.2-.13a2.33,2.33,0,0,1-2.14,1.4h-.67Zm-1.84,1.67c.32-.12-.1-.41,0-.76.22.18.22.75.53.76v1.14c-.47.08-.23-1.11-.63-1.14C118.61,205,118.69,205.09,118.69,205.19Zm-.53-3.61V202c-.09,0-.1.07-.11.19C117.85,202.23,117.91,201.29,118.17,201.58Zm-.32,1.14h.21v.38h-.21Zm.42,10.26c-.31,0-.32-.43-.63-.38C117.53,212,118.25,212.61,118.27,213Zm-.63-2.85c-.23.09-.2-.27-.21-.57C117.56,209.64,117.64,209.8,117.64,210.13Zm-.74-8.93c.3,0,.35.54.21.76A1.13,1.13,0,0,1,116.9,201.2Z"/><polygon class="cls-8" points="142.79 203.52 143.91 203.52 143.91 211.2 142.79 211.2 142.79 213.56 153.47 213.56 153.47 209.56 150.4 209.56 150.4 211.2 147.57 211.2 147.57 208.32 150.93 208.32 150.93 205.96 147.57 205.96 147.57 203.52 150.4 203.52 150.4 205.1 153.47 205.1 153.47 201.18 142.79 201.18 142.79 203.52"/><polygon class="cls-8" points="89.98 203.52 91.1 203.52 91.1 211.2 89.98 211.2 89.98 213.56 95.86 213.56 95.86 211.2 94.76 211.2 94.76 203.52 95.86 203.52 95.86 201.18 89.98 201.18 89.98 203.52"/><path class="cls-8" d="M109.08,204.24a.47.47,0,0,1,.11.09v-.21A.34.34,0,0,1,109.08,204.24Z"/><path class="cls-8" d="M131.06,211.46Z"/><path class="cls-8" d="M103.05,201.18H103A.06.06,0,0,0,103.05,201.18Z"/><path class="cls-8" d="M101.89,201.39c-.14,0-.18-.08-.23-.21h-.05C101.69,201.49,101.89,201.78,101.89,201.39Z"/><path class="cls-8" d="M106.65,203.29c.18-.08.27.28.32,0-.16,0-.07-.42,0-.57C106.69,202.72,106.62,202.64,106.65,203.29Z"/><path class="cls-8" d="M107.28,201.77c.19-.14.11-.34,0-.59h-.22A.79.79,0,0,0,107.28,201.77Z"/><path class="cls-8" d="M131.1,212.42a.29.29,0,0,1,.39-.2v-.38c.32.12-.1.41,0,.76-.14-.22-.16-.13-.24-.06a6.55,6.55,0,0,0,4.22,1.33c4,0,6.23-2.44,6.23-6.44s-2-6.59-6.36-6.59a6.33,6.33,0,0,0-3.48,1c0,.09.06.16.15.14,0,.25-.19.3-.21.57-.25-.07-.15-.36-.16-.56a6.35,6.35,0,0,0-2.52,5.33A6.49,6.49,0,0,0,131.1,212.42Zm2.71-.2h-.21v-.38h.21Zm1.51-8.65c1.36,0,1.95,1.72,1.95,3.86s-.69,3.66-1.81,3.66-2-1.47-2-3.79S134.24,203.56,135.32,203.57Zm-2.46,5.23c-.13-.08-.22-.24-.21-.57C132.77,208.31,132.86,208.47,132.86,208.8Zm-2,2.47c.18.07.2-.15.21-.38.39-.2.17.71.53.57-.34.45-.42.16-.74.57.19-.41.3-.67-.21-.57,0-.22,0-.34-.11-.38,0-.46.48.11.32-.57C131.16,210.63,130.75,210.92,130.85,211.27Zm-.11-6.65c-.17.68-.38-.09-.63,0C130.15,204.2,130.67,204.47,130.74,204.62Zm-1,4.75c-.08.34-.19,0-.32,0C129.55,209,129.67,209.34,129.79,209.37Z"/><path class="cls-8" d="M287.43,201.4c-.09.19-.19.59-.28.1.06,0,.12,0,.17-.15a6.52,6.52,0,0,0-1-.31c0,.16-.25.24-.2.65-.17-.1-.62.22-.6-.19.25-.06.4-.29.54-.52a9,9,0,0,0-1.6-.14c-3.66,0-6.21,2.64-6.21,6.46,0,4.43,2.64,6.57,6.34,6.57,4,0,6.23-2.44,6.23-6.44C290.77,204.53,289.69,202.37,287.43,201.4Zm-2.68,1c-.07.61.22.59,0,.95-.3,0-.38-.29-.48-.57C284.51,202.83,284.42,202.31,284.75,202.45ZM284,213.28c.08-.39.37-1.42.48-1.14C284.37,212.54,284.36,213.17,284,213.28Zm1.08-2.28c.23-.09.61.51.36.57C285.52,211.11,284.92,211.68,285.11,211Zm.24,2.09c.37.06-.31-.55.12-.57C285.7,212.65,285.55,213.76,285.35,213.09Zm1.68-.19v-.57c.14,0,.34,0,.36.19C287.2,212.54,287.3,213,287,212.9Zm0-1.14a4.31,4.31,0,0,1,.48-2.47c.08.71-.57,1.37,0,1.71,0-.11.1-.22.12,0C287.33,211.1,287.2,211.46,287,211.76Zm.24-3.8a3.64,3.64,0,0,1,.24-1.33c0,.28.29.17.48.19C288,207.52,287.48,207.53,287.27,208Zm-.36-.76v-.38c.15,0,.17-.24.36-.19V207C287.12,207,287.11,207.25,286.91,207.2Zm.84-1.33c0-.36-.09-.4-.24-.19.11-.57.39-.72.12-1.33-.27.53-.66.85-1,1.33.25.38.24-.08.48-.19v.76c-.35-.39-.6.28-.86.13a10.11,10.11,0,0,1,.05,1.05,8.93,8.93,0,0,1-.06,1,3.38,3.38,0,0,0,1-.12c.13.36-.14.53-.41.69-.62-.1.23-.26.2-.39a1.47,1.47,0,0,1-.82.08,3.74,3.74,0,0,1-.76,2,.09.09,0,0,1,0,.18.88.88,0,0,0,0-.12,1.31,1.31,0,0,1-.6.36,1,1,0,0,1,0,.14c-.17-.1-.29.74-.36.19.06,0,.12-.18.18-.31l-.15,0c-1.13,0-2-1.47-2-3.79s.74-3.75,1.82-3.74a1.45,1.45,0,0,1,.34,0c.26-.11.48-.17.38-.6.15.53.48-.23.6-.38V203a.1.1,0,0,1,0,.19c0-.4-.37.27-.48.38a.67.67,0,0,1,.11.35,1.94,1.94,0,0,1,.34.4,1.22,1.22,0,0,0,0-.37c0,.67.53-.34.48.19a3.37,3.37,0,0,0-.29.59,5.26,5.26,0,0,1,.35,1.35.75.75,0,0,1,.18.15,3.82,3.82,0,0,0,.24-2.47c.45-.14.26.73.6.76s.21-.81.6-.76C287.81,204.3,288.37,205.61,287.75,205.87Zm.36,1.9c.21-.17.37-.64.48,0C288.37,207.59,288.19,208.34,288.11,207.77Zm.12-3.23c-.08-.51.25-.37.36-.57C288.61,204.39,288.49,204.58,288.23,204.54Zm1.8,2.09c0-.25-.21-.17-.24-.38C290,206,290.36,206.55,290,206.63Z"/><path class="cls-8" d="M304.61,207.43c0-3.53-1.59-6-5-6.48,0,.49.45.17.48.55-.68-.1-.39.78-.84,1.33-.19-.27.22-1.31-.24-1.52.24-.27.42.18.59-.36a9.24,9.24,0,0,0-1.37-.1c-3.66,0-6.21,2.64-6.21,6.46,0,4.43,2.64,6.57,6.34,6.57C302.38,213.88,304.61,211.43,304.61,207.43Zm-1.08,3.84c-.09-.12-.19-.23-.21,0C302.89,211.06,303.7,210.47,303.53,211.27Zm-3.78,1.82c0-.25-.21-.17-.24-.38.21.05.37-.89.48-.38C299.67,212.19,300.08,213.23,299.76,213.09Zm2.93-4.86v.57h-.42C302.23,208.3,302.41,208.18,302.69,208.23Zm-2-.38c-.13-.08-.22-.24-.21-.57C300.6,207.36,300.69,207.52,300.68,207.85Zm-4.27-.54c0-2.2.74-3.75,1.82-3.74a1.39,1.39,0,0,1,1,.41c-.08-.41,0-.53.16-1,.17.1.62-.22.6.19-.24-.06-.24.26-.36.38,0-.15,0-.38-.12-.38s0,.71-.16.89a2.32,2.32,0,0,1,.29.42,1,1,0,0,1,.24-.75c0,.33.12.94-.23.76a6.47,6.47,0,0,1,.54,2.89c0,1.85-.5,3.18-1.32,3.55a1,1,0,0,1-.31.4.56.56,0,0,1-.08-.3l-.1,0C297.25,211.1,296.42,209.63,296.42,207.31Z"/><path class="cls-8" d="M276.57,207.24h-5.88V208c.12,0,.21.1.09.26l-.09,0v.87h1.08v.74a1.72,1.72,0,0,1-1.7.87c-1.54,0-2.42-1.45-2.42-3.26,0-.15,0-.31,0-.46-.16.09-.1,0,0,0s0-.09,0-.13c-.39,0-.72-.19-.78.14-.46-.1-.08-.62-.2-.89a6.24,6.24,0,0,1,1.05.35,2.9,2.9,0,0,1,1.69-2.2c-.06-.08.2-.2-.09-.22.18-.24.42-.06.45.13l.27,0a2.1,2.1,0,0,1,2,2.25h3.17v-5.22h-.76c.07.15.14.31-.08.32a1.44,1.44,0,0,0-.14-.32h-1.67l-.37,1.27a3.4,3.4,0,0,0-2.41-1.41l0,.07a.54.54,0,0,1-.39-.12c-.21,0-.43,0-.68,0-2.76,0-5.43,2.66-5.43,6.51s2.46,6.23,5.56,6.23a3.39,3.39,0,0,0,2.85-1.27l.55,1.11h3.54v-4.43h.71Zm-2.53-2.8c.59-.14.59.44,0,.3Zm-7.53,1c-.11.08-.21.16-.2.3-.6-.3-.45.2-1.22.1A1.23,1.23,0,0,1,266.51,205.42Zm.41,2.27c-.06.13-.51.08-.81.1.32-.48-1.05-.15-.81-.59.17,0,.19,0,.2.1s.76-.15,1,.1c-.11-.24-.79-.21-.61-.59.54.23,1.13.44,1.22.89-.16,0-.2-.1-.41-.1C266.67,207.68,266.79,207.69,266.91,207.69Zm6-.11h.36C273.4,208.13,272.69,208.13,272.87,207.58Z"/><path class="cls-8" d="M306.6,213.17c.23-.15.22.12.21.39H311a8.47,8.47,0,0,0,3.58-.7c0-.15-.16-.2-.33-.15v-.57c.44.12.64-.13.84-.38a.87.87,0,0,1-.13.91,5.2,5.2,0,0,0,1.55-1.29c-.22,0-.57.17-.46-.38.27-.05.44,0,.47.36a6.5,6.5,0,0,0,1.28-4.15c0-3.38-2.44-6-6.73-6h-5.4v2.34h1.1v7.68h-1.1v2.35h.89C306.6,213.43,306.6,213.3,306.6,213.17Zm9.48-2.74v.38c-.12,0-.14.15-.24.19,0-.24-.15-.26-.12-.57Zm-5.65-6.91h.67c1.88,0,2.66,1.79,2.66,3.68,0,2.21-.78,4-2.66,4h-.67Zm-.56,3c0,.21-.21.13-.21.38-.12,0-.09-.35-.11-.57C309.73,206.28,309.74,206.51,309.88,206.52ZM308.29,209h.21v.57h-.21Z"/><path class="cls-4" d="M146.38,223c.42.69.31-.72,0,0Z"/><path class="cls-4" d="M149.45,223.24v.57h.32v-.38C149.63,223.42,149.62,223.18,149.45,223.24Z"/><path class="cls-4" d="M152.62,220.39c-.09,0-.11-.19-.21-.19v0h-5.12a2.52,2.52,0,0,1,0,.4c-.22.13-.22-.12-.22-.4h-3.78a.45.45,0,0,1,0,.21h-.21c0-.16,0-.18-.11-.19s0,0,0,0H125a1.22,1.22,0,0,1,.23.78c-.22-.15-.32-.53-.48-.78h-1.14a.85.85,0,0,0-.07.59c-.37-.37-.49-.21-.85-.38a.94.94,0,0,1,.09-.21h-.3v.21c-.17.05-.18-.18-.32-.19v0h-1.69v0h-.31c0,.37.37.13.43.4s-.08.36-.21.38c.08.69.61.54.63,1.33-.37-.85-.41.3-1,.19,0,.22-.11.11-.11,0s-.19,0-.21.19c-.37-.32.25-.56.32-.19.09-.89-1-.31-.63-1.14-.36.17,0,.42-.21.76-.29.09.08-1-.21-.95.08-.34.19,0,.32,0a1.4,1.4,0,0,1-.11-.57c-.31.17-.32.17-.63,0a1.44,1.44,0,0,0,.06-.4H109c0,.1,0,.2.13.21,0,.22-.19.16-.32.19v-.4H108c.15.06.27.49.32,0,.22.12-.09.83-.42.57v-.57l0,0h-.38c-.23.08-.5.1-.61.4-.22,0,0-.21,0-.4H104.2l-.09,0s0,0,0,0H89.71v4.88h34a.56.56,0,0,1,0-.12.28.28,0,0,1,.11.12h.84a.52.52,0,0,1-.12-.3h0a.64.64,0,0,1,0-.18c.17-.12.19,0,.21.19.42,0,.28.13.21.3h11.55c-.23-.22-.37-.59-.66-.69.21-.86.6.17.72.69h.12a.16.16,0,0,1,.33,0h.27a.79.79,0,0,1,0-.12.76.76,0,0,0,0,.12h.92c0-.33.27-.33.52-.31,0,.11,0,.21,0,.31h1.54a.29.29,0,0,1,.34-.12l0,.12h2a1.61,1.61,0,0,1-.4-.69c.16-.47.37.59.63.57a.29.29,0,0,1-.08.12h3.57a.74.74,0,0,1-.21-.69c-.16.3-.6.28-.53-.38.1,0,.08.23.11.38.18-.75.53-1.12.32-2.09.27,0,.6.8.74.38.32.19-.12.51-.11.76s.13.15.21.19c-.16.52-.46-.3-.63-.38a2.5,2.5,0,0,0,0,1.14c.12,0,.09-.35.11-.57.2.34.78.61.55,1.25h1.12c.13-.32.26-.15.55-.31,0,.09-.07.2-.11.31h2.66a1.39,1.39,0,0,1-.76-.87c-.55.5-.87,0-1.27.19a6.24,6.24,0,0,0-.11-2.28c.22.61.8.6.85,1.52.19-.25.93-.26.85.57.09-.16.29-.11.32-.38,0,.34.38.52.42,1.25h17.34v-4.88H152.66A.54.54,0,0,0,152.62,220.39Zm-34.35.38c.2.08.46.07.42.57C118.42,221.39,118.24,221.27,118.27,220.77Zm-5.71,1.14h.21v.38h-.21Zm.74,2.28H113c0-.18.13-.15.21-.19,0-.25-.43-.57-.11-.76a2.44,2.44,0,0,0-.42-.57c-.15-.5.37.54.63,0C113.15,222.87,113.23,223.37,113.3,224.19Zm5.07-1.14c.09-.88.28-.61-.21-.95.07-.19.24-.2.21-.57.17.46.47.68.63,1.14A.68.68,0,0,1,118.38,223Zm2.85-2.09c.07-.46.53-.1.42.38C121.32,221.56,121.4,221,121.23,221Zm1.06,1.52c-.21-.32-.13,0-.42,0,0-.36-.23-.48-.21-1,.09,0,.1.07.11.19C121.84,222.14,122.41,221.68,122.29,222.48Zm0-1.33c.09-.28.16-.6.42-.57C122.74,221.08,122.49,221.07,122.29,221.15Zm.74,1.33c-.21-.32-.13,0-.42,0a2.07,2.07,0,0,0,0-1C123,221.39,123.07,221.83,123,222.48Zm.21-1.33c0-.25.15-.19.32-.19-.14.56-.09.94.21,1.14C123.52,222.54,123.24,221.24,123.24,221.15Zm.53-.57c0-.32.08-.36.21-.38,0,.16,0,.18.11.19C124.07,220.61,123.89,220.55,123.77,220.58Zm1.27,3h-.21v-.38H125Zm2.11-3.42c.28-.06.35.26.32.76C127.19,221,127.12,220.69,127.15,220.2Zm.29,3.76c-.45-.05-.29.19-.61.2-.43.24.24-.31.41-.39-.49-.19-1.31-.29-2-.59-.18-.54.6-.72.2-1.08.74.44.64-.15,1.22-.3.78-.08.24.48,1,.39-.18.63-.58,1.17.2,1.77C127.8,224.08,127.44,224.06,127.44,224Zm.87-3.19c.11.12.11.44.32.38C128.59,221.62,128.22,221.16,128.31,220.77Zm.63.76c.06-.55.16.29.32.19C129.16,222.35,129.05,221.51,128.95,221.53Zm3.17-.76c.08-.34.19,0,.32,0C132.36,221.11,132.24,220.8,132.12,220.77Zm.74,2.85h-.21v-.38h.21Zm-.21-.95v-.38a.39.39,0,0,0,.32.19C132.9,222.87,132.8,222.88,132.64,222.67Zm2.75,1.9a.47.47,0,0,1,.42-.38C135.79,224.52,135.63,224.62,135.39,224.57Zm.11-.38h-.42c.14-.9.37-1.62.85-1.9C136,223.42,135.1,222.88,135.5,224.19Zm-.11-2.28c0-.23-.14-.39-.32-.38.1-.33.2-.66.53-.57,0,.22-.19.16-.32.19v.38c.34.05.51-.23.53-.76.24-.06.12.55.32.57A5.47,5.47,0,0,1,135.39,221.91Zm6,1.9c-.09.36-.06-.21-.21-.19C140.88,223.37,141.51,223.37,141.42,223.81Zm-.85-2.28c.11.12.11.44.32.38C140.84,222.38,140.48,221.92,140.57,221.53Zm.32,2.85c0-.81.46,0,.63,0C141.42,224.89,141.19,224.11,140.89,224.38Zm1.06,0c-.19,0-.22-.23-.42-.19C141.54,223.64,142,223.73,141.94,224.38Zm3.49.57c-.22.1-.22-.74-.11-.19C145.55,224.54,145.55,224.55,145.43,224.95Zm.21-1.14c-.21,0-.13-.52-.42-.38.26-.33.15-.31,0-.76-.28-.06.1,1.06-.32.76,0-.16,0-.18.11-.19.08-.52-.21-.38-.21-.76s.11,0,.11.19c.08-.16.29-.11.32-.38.17.08.09.6.42.38C145.65,223.38,145.76,223.21,145.64,223.81Zm.32-.19c-.19-.14,0-.35,0-.57C146.15,223.19,146,223.39,146,223.62Zm.74-1.14c0-.23.14-.39.32-.38C147,222.33,146.88,222.49,146.7,222.48Zm.74-.38c.19.17.31.46.53.57C147.87,223.06,147.38,222.61,147.44,222.1Zm.42,1.71c0-.38,0-.59.21-.57,0,.16,0,.18-.11.19.13.27.4.29.53.57C148.41,224.44,148,223.84,147.86,223.81Zm.74-1.9c.14-.33.63-1,.63,0C148.87,221.75,148.79,222.26,148.6,221.91Zm1.27.76c.09-.15.06-.52.21-.57a2.18,2.18,0,0,0-.74-.38c.07-.61.35-.36.42-.57.48.35.2,1.14.63,1.33C150.27,222.75,150,222.91,149.87,222.67Zm.63-.76c-.29.14-.21-.38-.42-.38,0-.53.39.48.42-.19C150.66,221.42,150.46,221.58,150.5,221.91Zm-.53-1.14c.11-.31.45-.21.63-.38C150.6,220.87,150.26,220.76,150,220.77Zm.74,1.9c0-.27.32-.07.32-.38.1,0,.08.23.11.38s.19,0,.21-.19C151.65,223.08,150.87,223.13,150.72,222.67Zm.53-1.14c0-.85.43-.11.53,0C151.68,222.08,151.51,221.28,151.24,221.53Zm1.8-.38a.42.42,0,0,1,.42-.19c.05.78-.28-.18-.32.57-.13-.41-.5-.94-.32-1.33A1.33,1.33,0,0,1,153,221.15Z"/><path class="cls-4" d="M127.24,222.48c-.4,0-.26-.27-.81-.2-.07.33-.83.32-.81.69a1.68,1.68,0,0,0,1.22.49c0-.13.36-.09.41-.2-.38,0,.12-.16-.2-.2s-.06.36-.61.3A4.84,4.84,0,0,0,127.24,222.48Z"/><path class="cls-4" d="M138.65,225.06h.11C138.72,225,138.69,225,138.65,225.06Z"/><path class="cls-4" d="M281.51,225.06h.32l0-.2c0,.07,0,.13,0,.2H318v-4.88H284.67a1.57,1.57,0,0,0,0,.32h-.24a.52.52,0,0,1-.07-.32h-6c.06.07-.47.15-.45.23-.49,0,.05-.12.18-.23h-4c-.07.28-.34.53-.59.4.07-.17.13-.34,0-.38s0,0,0,0H234.34v.92c.2,0,.14.07,0,.08v3.88h47.17Zm33.76-.68V224c.23-.09.2.27.21.57C315.39,224.53,315.37,224.38,315.27,224.38Zm2.43-2.85c0,.15-.11.19-.11.38h-.21C317.33,221.5,317.53,221.55,317.7,221.53Zm-.53-.76c.23-.09.2.27.21.57-.09,0-.11-.19-.21-.19Zm-1.8.76c.1,0,.08.23.11.38.17-.08.09-.6.42-.38-.1.33-.2.66-.53.57Zm-.21.76c0,.18-.13.15-.21.19.28.24.7.51,1,0a.83.83,0,0,1,.32.76c-.42.15-.49-.15-1.06,0,0,.46.48-.11.32.57a1.19,1.19,0,0,1-.53-.76c-.08.3-.52,0-.42.57-.35,0-.7,0-.63-.76C314.45,223.83,314.62,222.42,315.16,222.29Zm-1-1.33h.21v.38h-.21Zm.11.95c-.22-.09-.38.43-.53.95-.26.08.33-1.26,0-.76C313.43,221.51,314.22,221.36,314.31,221.91Zm-2.22-1.71c.18,0,.27.32.32,0,.22.06-.11.66-.32.57Zm-2.22.76h.21v.38h-.21Zm-1.06-.38c.33.31-.22.6-.21.95C308.31,221.28,308.74,220.77,308.82,220.58Zm-1.8.57c.11,0,.07.38.21.38,0,.67-.35-.4-.32.19C306.61,221.61,307.08,221.42,307,221.15Zm-21-.24v.2C285.06,221.2,285.68,220.58,286.05,220.9Zm-1.9-.6c0,.37.16.38.24.57-.37.07-.47.65-.72,0C283.91,220.82,283.91,220.36,284.15,220.31Zm-.72,0c.28-.13.26.74,0,.57C283.33,220.81,283.28,220.37,283.43,220.31Zm-.48,3.61c0,.48-.27.46-.36.76C282.64,224.31,282.63,223.86,282.95,223.92Zm-1-.19c0,.25.49.57.12.76C282,224.37,281.62,223.91,282,223.73Zm-47.25-2.53c.39,0,.88,0,.81.3C235,221.52,234.68,221.46,234.74,221.2Zm.81,1.58c.42.09-.3.44-.81.39C234.93,223,235.49,223,235.56,222.78Zm-.61,1.87c.36-.2-.15-.19.2-.39C235.51,224.22,235.51,224.81,234.95,224.65Zm.2-.69c.06-.23.63-.22.81-.39C236.34,223.63,235.61,224,235.15,224Zm2-1.08c-.51,0,0-.38.41-.3C237.71,222.8,237.2,222.72,237.19,222.88Zm.2-.49c-.15-.34.83-.13.61-.49C238.81,222,237.79,222.29,237.39,222.38Zm14.68,1.23c-.09,0-.11-.19-.21-.19,0-.23.14-.39.32-.38C252.2,223.35,252.07,223.37,252.07,223.62Z"/><path class="cls-4" d="M120.17,220.77c-.26,0-.33-.36-.42.19C119.91,220.93,120.14,221,120.17,220.77Z"/><path class="cls-4" d="M123.56,220.2v0h-.48C123.19,220.3,123.34,220.47,123.56,220.2Z"/><path class="cls-4" d="M146.7,224.57c-.13.11-.08.29,0,.5h.18C146.82,224.91,146.85,224.58,146.7,224.57Z"/><polygon class="cls-9" points="188.49 219.82 189.19 219.82 189.19 224.63 188.49 224.63 188.49 226.1 195.17 226.1 195.17 223.6 193.25 223.6 193.25 224.63 191.48 224.63 191.48 222.82 193.59 222.82 193.59 221.35 191.48 221.35 191.48 219.82 193.25 219.82 193.25 220.81 195.17 220.81 195.17 218.36 188.49 218.36 188.49 219.82"/><path class="cls-9" d="M187.92,223.85h-.74v.37c0,.22-.09.35-.25.35s-.27-.28-.27-.75a1.68,1.68,0,0,0-1.45-1.57,1.69,1.69,0,0,0,1.6-1.6c0-1.26-.5-2.28-3.07-2.28h-3.6v1.45h.62v4.83h-.62v1.46h3.21c0-.21.27-.55,0-.58.28-.39.18.29.35.51v-1.39h-.68v-1.72c1,0,1.11.24,1.11,1.25a1.88,1.88,0,0,0,2.15,2.06c1.23,0,1.62-.85,1.62-1.77Zm-6.53-2.22c0-.44-.26-.82.12-.95C181.55,221.13,181.77,221.51,181.39,221.64Zm2.16,0h-.5V219.8h.55a.89.89,0,0,1,1,1C184.61,221.37,184.19,221.68,183.55,221.68Z"/><path class="cls-9" d="M176.47,224.38c-1.05,0-1.62-1-1.62-2.08a3.79,3.79,0,0,1,.07-.73c-.17.14-.38.37-.38.06a1.66,1.66,0,0,0,.48-.45c.21-.64.62-1.07,1.14-1.07.79,0,1.14.68,1.17,1.39h2v-3.14h-1.74l-.25.62a2,2,0,0,0-1.7-.75,3.86,3.86,0,0,0-3.36,4.07,3.68,3.68,0,0,0,3.91,4,4.54,4.54,0,0,0,3.35-1.56l-1.29-1.42A2.65,2.65,0,0,1,176.47,224.38Z"/><path class="cls-9" d="M210.88,218.15a3.78,3.78,0,0,0-3.88,4c0,2.77,1.65,4.11,4,4.11,2.5,0,3.9-1.53,3.9-4S213.59,218.15,210.88,218.15Zm.08,6.41h-.1v0c-.65-.09-1.12-1-1.12-2.35s.46-2.35,1.14-2.34c.85,0,1.22,1.07,1.22,2.41S211.65,224.56,211,224.56Zm1.6-3.46h-.41v-.2h.41Z"/><path class="cls-9" d="M199.28,218.36h-3.38v1.46h.69v4.8h-.69v1.47h3.33c2.72,0,4.25-1.45,4.25-4C203.49,220,202,218.36,199.28,218.36Zm0,6.26h-.42v-4.8h.42c1.17,0,1.66,1.12,1.66,2.3C200.94,223.51,200.46,224.61,199.28,224.63Z"/><path class="cls-9" d="M222.51,224.22c0,.22-.09.35-.25.35s-.27-.28-.27-.75a1.68,1.68,0,0,0-1.45-1.57,1.69,1.69,0,0,0,1.6-1.6c0-1.26-.5-2.28-3.07-2.28h-3.6v1.45h.62v4.83h-.62v1.46h3.58v-1.46h-.68v-1.72c1,0,1.11.24,1.11,1.25a1.88,1.88,0,0,0,2.15,2.06c1.23,0,1.62-.85,1.62-1.77v-.61h-.74Zm-3.63-2.53h-.5V219.8h.55a.89.89,0,0,1,1,1C219.94,221.37,219.52,221.68,218.88,221.68Z"/><path class="cls-9" d="M229,225.4l.34.7h.2c0-.08,0-.19-.06-.36l.3,0a.86.86,0,0,1-.06-.19l-.44.05c.21-.13.2-.36.41-.49h.05a1,1,0,0,1,.54-.67c.09.51-.18.59-.23.79a.7.7,0,0,0,.24.06.5.5,0,0,1-.21.14.87.87,0,0,0,.07.14.42.42,0,0,0-.33.16c.32.08.52.21.83.29l0-.07c.25.09.67-.1.92,0v-.63l-.08-.13h.08v-1.9H232v-1.18h-3.67v1.18H229v.46a1.07,1.07,0,0,1-1.06.54c-1,0-1.52-.91-1.52-2s.62-2.08,1.52-2.08a1.31,1.31,0,0,1,1.26,1.41h2v-3.27H229.5l-.23.8a2.32,2.32,0,0,0-2.16-.93c-1.73,0-3.4,1.66-3.4,4.07a5.11,5.11,0,0,0,.06.75c.07-.15.36-.2.8-.17a1.31,1.31,0,0,1-.79.2,3.43,3.43,0,0,0,3.42,3.13A2.12,2.12,0,0,0,229,225.4Z"/><path class="cls-9" d="M205.2,223.69a1.26,1.26,0,0,0-1.25,1.26,1.25,1.25,0,0,0,1.25,1.2,1.16,1.16,0,0,0,1.27-1.2A1.28,1.28,0,0,0,205.2,223.69Z"/><path class="cls-10" d="M228.39,139.56l-17.14-6.82c-.05.06-.08.12.12.27-.74,0-.86.32-1.38.48-.05-.33-.45-.28-.72-.25.1.18.3.34,0,.32,0-.47-.59-.26-.77-.7.48.28.83-.49,1.14.15.55-.24.77.07.79-.61l-8.17-3.25,2.08-.83c-.3-.14-.54-.57-1,0,0-.75-.26-.41-.9-.65-.35.64-.75-.13-1.29.15.2-.44.9-.23.87-.7.38,0,.16.14,0,.32.3,0,.76.08.82-.25.59.16.73.45,1.57.48-.49.31.18.23-.15.59.07,0,.15,0,.1,0l24-9.56A28.37,28.37,0,0,0,202.22,102c-15.65,0-28.33,12.16-28.33,27.16s12.68,27.16,28.33,27.16A28.37,28.37,0,0,0,228.39,139.56ZM203,126.78h.41c.06.16-.19.17-.2.3h-.41C202.72,126.92,203,126.91,203,126.78Zm-22,7.1a1.34,1.34,0,0,1-.81.2C180,133.78,180.63,133.9,181,133.88Zm-.2,1.38c-.6-.08.26-.25,0-.49C181.6,134.89,180.73,135,180.79,135.26Zm2.24-1.77c-.06-.16.19-.17.2-.3.22,0,.14.2.41.2C183.7,133.51,183.34,133.48,183,133.48Zm10.49-4.42c-.33.25-.41-.75-.24-.19C193.44,128.86,193.73,128.92,193.51,129.07Zm5.88-5.51c.53-.15.48.63.72.95C199.71,124.46,199.48,124.12,199.4,123.56Zm2.15,8.25c-.15.56-.08-.44.21-.19S201.7,131.82,201.55,131.81Zm5.39,5.32c.07-.56.27-.9.63-.95C207.37,136.5,207.41,137.27,206.94,137.13Z"/><path class="cls-10" d="M210.92,132.61l-.48-.19C210.64,132.67,210.79,132.68,210.92,132.61Z"/><path class="cls-11" d="M216.53,129.15c0-7.57-6.41-13.71-14.31-13.71s-14.31,6.14-14.31,13.71,6.41,13.71,14.31,13.71S216.53,136.72,216.53,129.15ZM203,126.78h.41c.06.16-.19.17-.2.3h-.41C202.72,126.92,203,126.91,203,126.78Zm-9.47,2.29c-.33.25-.41-.75-.24-.19C193.44,128.86,193.73,128.92,193.51,129.07Zm5.88-5.51c.53-.15.48.63.72.95C199.71,124.46,199.48,124.12,199.4,123.56Zm2.15,8.25c-.15.56-.08-.44.21-.19S201.7,131.82,201.55,131.81Zm2.73-3.54c.08,0,.2,0,0,.06-.31-.13-.55-.6-1,0,0-.75-.26-.41-.9-.65-.35.64-.75-.13-1.29.15.2-.44.9-.23.87-.7.38,0,.16.14,0,.32.3,0,.76.08.82-.25.59.16.73.45,1.57.48C203.95,128,204.61,127.91,204.28,128.27Zm2.66,8.86c.07-.56.27-.9.63-.95C207.37,136.5,207.41,137.27,206.94,137.13Zm3.05-3.63c-.05-.33-.45-.28-.72-.25.1.18.3.34,0,.32,0-.47-.59-.26-.77-.7.48.28.83-.49,1.14.15.56-.25.79.09.79-.65.4.6.61.13.88,0,.14.1,0,.1,0,.06.29.36-.29.28.13.59C210.64,133,210.51,133.33,210,133.49Z"/></g></g></svg>