<svg id="Layer_1" data-name="Layer 1" xmlns="http://www.w3.org/2000/svg" viewBox="0 0 410 300"><defs><style>.cls-1{fill:#00b4ed;}.cls-2{fill:#404041;}</style></defs><title>identities</title><rect class="cls-1" x="116.67" y="204.02" width="6.22" height="37.43"/><path class="cls-2" d="M131.84,204.09a12.42,12.42,0,0,1,1.52-.17q1-.07,2-.07a10.91,10.91,0,0,1,2.26.22,5,5,0,0,1,1.75.71,3.38,3.38,0,0,1,1.13,1.26,4,4,0,0,1,.4,1.88,3.66,3.66,0,0,1-.76,2.27,3.23,3.23,0,0,1-.8.74,3.37,3.37,0,0,1-.93.42,4.36,4.36,0,0,1,1.23.33,3.58,3.58,0,0,1,1.93,1.95,4.46,4.46,0,0,1,.32,1.77,4.27,4.27,0,0,1-.5,2.14A4,4,0,0,1,140,219a6,6,0,0,1-2,.78,12.36,12.36,0,0,1-2.49.24q-.83,0-1.8-.08t-1.85-.18Zm3.78,6.52a3.49,3.49,0,0,0,2.26-.64,2.34,2.34,0,0,0,.78-1.92,2.13,2.13,0,0,0-.84-1.85,3.79,3.79,0,0,0-2.27-.61l-.84,0q-.4,0-.68.07v4.93ZM134,218q.3,0,.77.07l.92,0a7.84,7.84,0,0,0,1.47-.13,3.62,3.62,0,0,0,1.21-.45,2.32,2.32,0,0,0,.83-.85,2.72,2.72,0,0,0,.3-1.36,3,3,0,0,0-.28-1.36,2.37,2.37,0,0,0-.77-.89,3.18,3.18,0,0,0-1.16-.48,7.1,7.1,0,0,0-1.46-.14H134Z"/><path class="cls-2" d="M143.86,208.57l.46-.07.46,0,.48,0,.43.07q.07.33.13.86a7.6,7.6,0,0,1,.07.9,4.5,4.5,0,0,1,1.21-1.28,3.2,3.2,0,0,1,1.92-.54h.36l.32,0a3.55,3.55,0,0,1,.07.41c0,.15,0,.3,0,.46a4.72,4.72,0,0,1,0,.54q0,.28-.08.54a1.49,1.49,0,0,0-.36,0H149a3.81,3.81,0,0,0-1.12.16,2.34,2.34,0,0,0-1,.58,2.86,2.86,0,0,0-.67,1.13,5.72,5.72,0,0,0-.25,1.85v5.54l-.53.07-.53,0-.53,0-.55-.07Z"/><path class="cls-2" d="M155.75,220a5.46,5.46,0,0,1-2.28-.45,4.53,4.53,0,0,1-1.63-1.23,5.11,5.11,0,0,1-1-1.85,8.58,8.58,0,0,1,0-4.61,5.12,5.12,0,0,1,1-1.85,4.65,4.65,0,0,1,1.63-1.24,5.93,5.93,0,0,1,4.56,0,4.64,4.64,0,0,1,1.63,1.24,5.12,5.12,0,0,1,1,1.85,8.58,8.58,0,0,1,0,4.61,5.12,5.12,0,0,1-1,1.85,4.53,4.53,0,0,1-1.63,1.23A5.46,5.46,0,0,1,155.75,220Zm0-1.72a2.47,2.47,0,0,0,2.22-1.09,5.45,5.45,0,0,0,.72-3,5.39,5.39,0,0,0-.72-3,2.48,2.48,0,0,0-2.22-1.08,2.45,2.45,0,0,0-2.21,1.08,5.46,5.46,0,0,0-.71,3,5.51,5.51,0,0,0,.71,3A2.44,2.44,0,0,0,155.75,218.26Z"/><path class="cls-2" d="M161.9,208.57l.61-.07.54,0,.62,0a5.15,5.15,0,0,1,.55.07l2.17,9.11,2.46-9.11.52-.07.59,0,.6,0a3.65,3.65,0,0,1,.49.05l2.43,9,2.17-9,.48-.07.52,0,.53,0,.6.07-3.33,11.15-.58.07-.53,0-.52,0-.57-.07-2.39-8.43-2.5,8.43-.6.07-.53,0-.53,0-.53-.07Z"/><path class="cls-2" d="M179.72,208.57l.47-.07.47,0,.45,0,.45.07q.07.33.13.88a8.12,8.12,0,0,1,.07.92,4.47,4.47,0,0,1,.55-.74,4.28,4.28,0,0,1,.77-.66,4,4,0,0,1,2.24-.66,3.47,3.47,0,0,1,2.83,1.1,5,5,0,0,1,.91,3.25v7.06l-.54.07-.54,0-.53,0-.53-.07v-6.48a4.22,4.22,0,0,0-.48-2.27,1.69,1.69,0,0,0-1.52-.73,3.07,3.07,0,0,0-1.15.22,2.56,2.56,0,0,0-1,.67,3.37,3.37,0,0,0-.66,1.18,5.41,5.41,0,0,0-.25,1.75v5.65l-.53.07-.53,0-.54,0-.54-.07Z"/><path class="cls-2" d="M191.58,217.69a7.43,7.43,0,0,0,2.69.52,4.11,4.11,0,0,0,1-.11,2.52,2.52,0,0,0,.79-.33,1.82,1.82,0,0,0,.54-.53,1.26,1.26,0,0,0,.21-.71,1.42,1.42,0,0,0-.16-.72,1.53,1.53,0,0,0-.43-.48,2.89,2.89,0,0,0-.63-.34l-.77-.27-.76-.28a5.5,5.5,0,0,1-2-1.17,2.43,2.43,0,0,1-.63-1.76,2.88,2.88,0,0,1,1.05-2.35,4.77,4.77,0,0,1,3.1-.87,8.45,8.45,0,0,1,1.66.16,10.26,10.26,0,0,1,1.42.38,5.28,5.28,0,0,1-.16.87,5,5,0,0,1-.29.8,11.23,11.23,0,0,0-1.14-.34,6,6,0,0,0-1.42-.16,3.4,3.4,0,0,0-1.42.28,1,1,0,0,0-.62,1,1.23,1.23,0,0,0,.15.63,1.42,1.42,0,0,0,.41.45,2.73,2.73,0,0,0,.6.32l.73.26,1,.33a7.13,7.13,0,0,1,1,.41,2.91,2.91,0,0,1,.8.6,2.78,2.78,0,0,1,.54.87,3.59,3.59,0,0,1-.12,2.69,3.22,3.22,0,0,1-.92,1.13,4.44,4.44,0,0,1-1.45.73,6.34,6.34,0,0,1-1.87.26,10.39,10.39,0,0,1-1.83-.14,9.29,9.29,0,0,1-1.46-.38,4.31,4.31,0,0,1,.18-.88Q191.41,218.13,191.58,217.69Z"/><path class="cls-2" d="M201.8,210.28h-1.7L200,210l3.74-4.17h.17v2.76h2.83a3.61,3.61,0,0,1,.09.83c0,.16,0,.31,0,.46s0,.29-.07.43h-2.83v5.09a10.93,10.93,0,0,0,.08,1.46,2.14,2.14,0,0,0,.26.84.89.89,0,0,0,.5.39,2.72,2.72,0,0,0,.79.1,4.24,4.24,0,0,0,.7-.05l.59-.12a3.44,3.44,0,0,1,.18.89q0,.46,0,.8a7,7,0,0,1-.91.16,9.08,9.08,0,0,1-1,.05,3.62,3.62,0,0,1-2.44-.76,3.17,3.17,0,0,1-.88-2.52Z"/><path class="cls-2" d="M210.32,214.67a3.64,3.64,0,0,0,.95,2.67,3.75,3.75,0,0,0,2.66.85,8,8,0,0,0,2.93-.54,3.25,3.25,0,0,1,.28.79,5.21,5.21,0,0,1,.13.92,7.28,7.28,0,0,1-1.58.46,11,11,0,0,1-1.9.15,7.18,7.18,0,0,1-2.61-.42,4.58,4.58,0,0,1-2.83-3,7.8,7.8,0,0,1-.33-2.31,8.19,8.19,0,0,1,.32-2.31,5.2,5.2,0,0,1,1-1.87,4.67,4.67,0,0,1,1.64-1.26,5.42,5.42,0,0,1,2.34-.47,4.88,4.88,0,0,1,2,.39,4.11,4.11,0,0,1,1.46,1.08,4.68,4.68,0,0,1,.89,1.63,6.68,6.68,0,0,1,.3,2.05c0,.2,0,.42,0,.64s0,.42,0,.58Zm5.52-1.61a4.1,4.1,0,0,0-.16-1.16,3,3,0,0,0-.48-1,2.33,2.33,0,0,0-.8-.66,2.53,2.53,0,0,0-1.16-.25,2.56,2.56,0,0,0-2,.8,3.93,3.93,0,0,0-.86,2.24Z"/><path class="cls-2" d="M220.83,210.26h-1.41a2.69,2.69,0,0,1-.07-.4q0-.23,0-.45t0-.45a2.69,2.69,0,0,1,.07-.4h3.52v11.15l-.53.07-.53,0-.51,0-.53-.07Zm-.48-4.15a4.34,4.34,0,0,1-.05-.57q0-.3,0-.54t0-.54a3.77,3.77,0,0,1,.05-.54l.61-.07.57,0,.57,0,.59.07a3.94,3.94,0,0,1,.05.54q0,.3,0,.54t0,.54a4.54,4.54,0,0,1-.05.57l-.58.07-.55,0-.59,0Z"/><path class="cls-2" d="M226.05,208.57l.47-.07.47,0,.45,0,.45.07q.07.33.13.88a8.26,8.26,0,0,1,.07.92,4.46,4.46,0,0,1,.55-.74,4.29,4.29,0,0,1,.77-.66,4,4,0,0,1,2.24-.66,3.47,3.47,0,0,1,2.83,1.1,5,5,0,0,1,.91,3.25v7.06l-.54.07-.54,0-.53,0-.53-.07v-6.48a4.23,4.23,0,0,0-.48-2.27,1.69,1.69,0,0,0-1.52-.73,3.07,3.07,0,0,0-1.15.22,2.56,2.56,0,0,0-1,.67,3.36,3.36,0,0,0-.66,1.18,5.41,5.41,0,0,0-.25,1.75v5.65l-.53.07-.53,0-.54,0-.54-.07Z"/><path class="cls-2" d="M243.55,204.09l.54-.07.57,0,.57,0,.54.07v6.43h6.65v-6.43l.52-.07.57,0,.58,0,.55.07v15.63l-.52.07-.59,0-.58,0-.53-.07v-7.24h-6.65v7.24l-.53.07-.58,0-.58,0-.53-.07Z"/><path class="cls-2" d="M261.65,219.74h-1.17l-.39,0-3.69-11.15a5.09,5.09,0,0,1,.59-.05h1.2a4.1,4.1,0,0,1,.59.05l3.09,10.37L265,208.57a7.61,7.61,0,0,1,1.07-.07h.54a5.84,5.84,0,0,1,.61.05L262.93,222a10.18,10.18,0,0,1-.63,1.5,3.55,3.55,0,0,1-.74,1,2.41,2.41,0,0,1-.92.52,4.18,4.18,0,0,1-1.18.15,6.42,6.42,0,0,1-1-.08,6.79,6.79,0,0,1-.86-.18,3.83,3.83,0,0,1,.35-1.67l.53.14a3.29,3.29,0,0,0,.73.08,2.51,2.51,0,0,0,.53-.05,1.2,1.2,0,0,0,.47-.22,1.63,1.63,0,0,0,.4-.47,4.17,4.17,0,0,0,.36-.83Z"/><path class="cls-2" d="M274.58,212.37a2.12,2.12,0,0,0-.65-1.78,3.07,3.07,0,0,0-1.89-.5,8,8,0,0,0-1.42.12,10.83,10.83,0,0,0-1.29.32,3.38,3.38,0,0,1-.41-1.72,10,10,0,0,1,1.63-.37,11.86,11.86,0,0,1,1.72-.13,4.88,4.88,0,0,1,3.3,1,4,4,0,0,1,1.13,3.16v7q-.76.17-1.85.36a13.25,13.25,0,0,1-2.22.18,8.67,8.67,0,0,1-1.92-.2,3.92,3.92,0,0,1-1.46-.63,2.92,2.92,0,0,1-.92-1.11,3.71,3.71,0,0,1-.33-1.63,3.32,3.32,0,0,1,1.41-2.81,4.6,4.6,0,0,1,1.5-.7,6.83,6.83,0,0,1,1.78-.23q.7,0,1.14,0l.75.08Zm0,2.11-.83-.09q-.5,0-.85,0a3.54,3.54,0,0,0-2.05.5,1.74,1.74,0,0,0-.71,1.52,1.87,1.87,0,0,0,.24,1,1.65,1.65,0,0,0,.6.57,2.07,2.07,0,0,0,.79.24,8.22,8.22,0,0,0,.83,0,10.21,10.21,0,0,0,1-.05,6.2,6.2,0,0,0,.95-.16Z"/><path class="cls-2" d="M279.58,210.28h-1.7l-.09-.3,3.74-4.17h.17v2.76h2.83a3.61,3.61,0,0,1,.09.83c0,.16,0,.31,0,.46s0,.29-.07.43h-2.83v5.09a10.89,10.89,0,0,0,.08,1.46,2.14,2.14,0,0,0,.26.84.89.89,0,0,0,.5.39,2.73,2.73,0,0,0,.79.1,4.24,4.24,0,0,0,.7-.05l.59-.12a3.44,3.44,0,0,1,.18.89q0,.46,0,.8a7,7,0,0,1-.91.16,9.08,9.08,0,0,1-1,.05,3.62,3.62,0,0,1-2.45-.76,3.18,3.18,0,0,1-.88-2.52Z"/><path class="cls-2" d="M287.25,210.28h-1.7l-.09-.3,3.74-4.17h.17v2.76h2.83a3.61,3.61,0,0,1,.09.83c0,.16,0,.31,0,.46s0,.29-.07.43h-2.83v5.09a10.88,10.88,0,0,0,.08,1.46,2.14,2.14,0,0,0,.26.84.89.89,0,0,0,.5.39,2.73,2.73,0,0,0,.79.1,4.24,4.24,0,0,0,.7-.05l.59-.12a3.44,3.44,0,0,1,.18.89q0,.46,0,.8a7,7,0,0,1-.91.16,9.08,9.08,0,0,1-1,.05,3.62,3.62,0,0,1-2.45-.76,3.18,3.18,0,0,1-.88-2.52Z"/><path class="cls-2" d="M131.82,225.56H140a4.38,4.38,0,0,1,.07.47c0,.17,0,.33,0,.49s0,.33,0,.5a4.32,4.32,0,0,1-.07.48h-6v4.59h5q0,.24.07.49t0,.49q0,.24,0,.49T139,234h-5v7.15l-.53.07-.58,0-.58,0-.53-.07Z"/><path class="cls-2" d="M146.94,233.84a2.12,2.12,0,0,0-.65-1.78,3.06,3.06,0,0,0-1.89-.5,8,8,0,0,0-1.42.12,10.84,10.84,0,0,0-1.29.32,3.38,3.38,0,0,1-.41-1.72,10,10,0,0,1,1.63-.37,11.86,11.86,0,0,1,1.72-.13,4.88,4.88,0,0,1,3.3,1,4,4,0,0,1,1.13,3.16v7q-.76.17-1.85.36a13.25,13.25,0,0,1-2.22.18,8.67,8.67,0,0,1-1.92-.2,3.92,3.92,0,0,1-1.46-.63,2.92,2.92,0,0,1-.92-1.11,3.71,3.71,0,0,1-.33-1.63,3.32,3.32,0,0,1,1.41-2.81,4.61,4.61,0,0,1,1.5-.7,6.83,6.83,0,0,1,1.78-.23q.7,0,1.14,0l.75.08Zm0,2.11-.83-.09q-.5,0-.85,0a3.54,3.54,0,0,0-2.05.5,1.74,1.74,0,0,0-.71,1.52,1.87,1.87,0,0,0,.24,1,1.65,1.65,0,0,0,.6.57,2.07,2.07,0,0,0,.79.24,8.23,8.23,0,0,0,.83,0,10.21,10.21,0,0,0,1-.05,6.21,6.21,0,0,0,.95-.16Z"/><path class="cls-2" d="M151.42,230l.46-.07.46,0,.48,0,.43.07q.07.33.13.86a7.6,7.6,0,0,1,.07.9,4.5,4.5,0,0,1,1.21-1.28,3.2,3.2,0,0,1,1.92-.54h.36l.32,0a3.56,3.56,0,0,1,.07.41c0,.15,0,.3,0,.46a4.72,4.72,0,0,1,0,.54q0,.28-.08.54a1.49,1.49,0,0,0-.36,0h-.29a3.81,3.81,0,0,0-1.12.16,2.34,2.34,0,0,0-1,.58,2.86,2.86,0,0,0-.67,1.13,5.72,5.72,0,0,0-.25,1.85v5.54l-.53.07-.53,0-.53,0-.55-.07Z"/><path class="cls-2" d="M159,225.26l.53-.07.53,0,.54,0,.54.07v6.13a3.3,3.3,0,0,1,1.22-1.13,3.93,3.93,0,0,1,2-.48,5.1,5.1,0,0,1,1.85.33,3.7,3.7,0,0,1,1.46,1,4.77,4.77,0,0,1,.95,1.74,8.22,8.22,0,0,1,.34,2.49,6.07,6.07,0,0,1-1.62,4.49,6.31,6.31,0,0,1-4.66,1.62,11,11,0,0,1-2-.18,11.91,11.91,0,0,1-1.71-.42Zm2.15,14.13a4.27,4.27,0,0,0,.84.18,7.65,7.65,0,0,0,.92.05,4.31,4.31,0,0,0,1.49-.25,3.14,3.14,0,0,0,1.18-.76,3.63,3.63,0,0,0,.79-1.3,5.43,5.43,0,0,0,.29-1.88,5.26,5.26,0,0,0-.63-2.8,2.28,2.28,0,0,0-2.09-1,3.1,3.1,0,0,0-1,.16,2.64,2.64,0,0,0-.9.52,2.53,2.53,0,0,0-.66,1,3.74,3.74,0,0,0-.25,1.45Z"/><path class="cls-2" d="M172.52,236.15a3.64,3.64,0,0,0,.95,2.67,3.75,3.75,0,0,0,2.66.85,8,8,0,0,0,2.93-.54,3.28,3.28,0,0,1,.28.79,5.18,5.18,0,0,1,.13.92,7.27,7.27,0,0,1-1.58.46,11,11,0,0,1-1.9.15,7.18,7.18,0,0,1-2.61-.42,4.58,4.58,0,0,1-2.83-3,7.81,7.81,0,0,1-.33-2.31,8.19,8.19,0,0,1,.32-2.31,5.21,5.21,0,0,1,1-1.87,4.67,4.67,0,0,1,1.64-1.26,5.42,5.42,0,0,1,2.34-.47,4.89,4.89,0,0,1,2,.39,4.11,4.11,0,0,1,1.46,1.08,4.68,4.68,0,0,1,.89,1.63,6.67,6.67,0,0,1,.3,2.05q0,.3,0,.64t0,.58Zm5.52-1.61a4.1,4.1,0,0,0-.16-1.16,3,3,0,0,0-.48-1,2.33,2.33,0,0,0-.8-.66,2.53,2.53,0,0,0-1.16-.25,2.56,2.56,0,0,0-2,.8,3.93,3.93,0,0,0-.86,2.24Z"/><path class="cls-2" d="M182,230l.46-.07.46,0,.48,0,.43.07q.07.33.13.86a7.6,7.6,0,0,1,.07.9,4.5,4.5,0,0,1,1.21-1.28,3.2,3.2,0,0,1,1.92-.54h.36l.32,0a3.56,3.56,0,0,1,.07.41c0,.15,0,.3,0,.46a4.72,4.72,0,0,1,0,.54q0,.28-.08.54a1.49,1.49,0,0,0-.36,0h-.29a3.81,3.81,0,0,0-1.12.16,2.34,2.34,0,0,0-1,.58,2.86,2.86,0,0,0-.67,1.13,5.72,5.72,0,0,0-.25,1.85v5.54l-.53.07-.53,0-.53,0-.55-.07Z"/><path class="cls-2" d="M193.52,238.82a15.08,15.08,0,0,0,1.5.46,8,8,0,0,0,1.91.2,4.11,4.11,0,0,0,2.66-.73,2.42,2.42,0,0,0,.88-2,2.66,2.66,0,0,0-.18-1,2,2,0,0,0-.55-.75,4.12,4.12,0,0,0-.92-.58q-.55-.26-1.29-.57l-1.24-.5a8.49,8.49,0,0,1-1.15-.58,3.55,3.55,0,0,1-.9-.77,3.49,3.49,0,0,1-.6-1.05,4.17,4.17,0,0,1-.22-1.42,3.81,3.81,0,0,1,1.35-3.1,5.76,5.76,0,0,1,3.78-1.12,10.8,10.8,0,0,1,2,.17,10.49,10.49,0,0,1,1.65.43,6.81,6.81,0,0,1-.48,1.8,10.84,10.84,0,0,0-1.36-.39,8,8,0,0,0-1.75-.17,3.46,3.46,0,0,0-2.11.55,2,2,0,0,0-.74,1.66,1.75,1.75,0,0,0,.18.82,2.17,2.17,0,0,0,.49.63,3.54,3.54,0,0,0,.72.49,7.84,7.84,0,0,0,.87.39l1.22.48a13,13,0,0,1,1.54.73,4.79,4.79,0,0,1,1.15.89,3.45,3.45,0,0,1,.73,1.21,4.83,4.83,0,0,1,.25,1.63,4.36,4.36,0,0,1-1.54,3.53,6.54,6.54,0,0,1-4.32,1.29q-.67,0-1.22,0a10,10,0,0,1-1-.13,8.61,8.61,0,0,1-.9-.22l-.89-.28a4.87,4.87,0,0,1,.2-1Q193.34,239.3,193.52,238.82Z"/><path class="cls-2" d="M212.14,239.25a3.54,3.54,0,0,1,.3.76,4,4,0,0,1,.15.93,8,8,0,0,1-2.93.5,5.34,5.34,0,0,1-4.19-1.58,6.13,6.13,0,0,1-1.41-4.25,7.37,7.37,0,0,1,.35-2.3,5.24,5.24,0,0,1,1-1.85,4.87,4.87,0,0,1,1.71-1.24,5.76,5.76,0,0,1,2.37-.46,10.55,10.55,0,0,1,1.61.11,6.62,6.62,0,0,1,1.33.35,4.45,4.45,0,0,1-.1.86,3.73,3.73,0,0,1-.27.86,7.41,7.41,0,0,0-2.43-.37,2.92,2.92,0,0,0-2.5,1.11,4.79,4.79,0,0,0-.83,2.93,4.26,4.26,0,0,0,.93,3.05,3.4,3.4,0,0,0,2.56,1,7.76,7.76,0,0,0,1.21-.09A5.46,5.46,0,0,0,212.14,239.25Z"/><path class="cls-2" d="M214.53,225.26l.53-.07.53,0,.54,0,.54.07v6.48a6.29,6.29,0,0,1,.49-.65,3.64,3.64,0,0,1,.72-.64,3.83,3.83,0,0,1,2.21-.66,3.5,3.5,0,0,1,2.84,1.1,4.94,4.94,0,0,1,.92,3.25v7.06l-.53.07-.53,0-.53,0-.53-.07v-6.48a4,4,0,0,0-.51-2.27,1.77,1.77,0,0,0-1.55-.73,3.16,3.16,0,0,0-1.13.21,2.52,2.52,0,0,0-1,.65,3.14,3.14,0,0,0-.65,1.16,5.53,5.53,0,0,0-.24,1.74v5.72l-.54.07-.54,0-.52,0-.54-.07Z"/><path class="cls-2" d="M226.14,230l.46-.07.46,0,.48,0,.43.07q.07.33.13.86a7.71,7.71,0,0,1,.07.9,4.5,4.5,0,0,1,1.21-1.28,3.2,3.2,0,0,1,1.92-.54h.36l.32,0a3.55,3.55,0,0,1,.07.41c0,.15,0,.3,0,.46a4.79,4.79,0,0,1,0,.54q0,.28-.08.54a1.49,1.49,0,0,0-.36,0h-.29a3.81,3.81,0,0,0-1.12.16,2.34,2.34,0,0,0-1,.58,2.86,2.86,0,0,0-.67,1.13,5.72,5.72,0,0,0-.25,1.85v5.54l-.53.07-.53,0-.53,0-.55-.07Z"/><path class="cls-2" d="M234.77,236.15a3.64,3.64,0,0,0,.95,2.67,3.75,3.75,0,0,0,2.66.85,8,8,0,0,0,2.93-.54,3.25,3.25,0,0,1,.28.79,5.21,5.21,0,0,1,.13.92,7.28,7.28,0,0,1-1.58.46,11,11,0,0,1-1.9.15,7.18,7.18,0,0,1-2.61-.42,4.58,4.58,0,0,1-2.83-3,7.8,7.8,0,0,1-.33-2.31,8.19,8.19,0,0,1,.32-2.31,5.2,5.2,0,0,1,1-1.87,4.67,4.67,0,0,1,1.64-1.26,5.42,5.42,0,0,1,2.34-.47,4.88,4.88,0,0,1,2,.39,4.11,4.11,0,0,1,1.46,1.08,4.68,4.68,0,0,1,.89,1.63,6.68,6.68,0,0,1,.3,2.05c0,.2,0,.42,0,.64s0,.42,0,.58Zm5.52-1.61a4.1,4.1,0,0,0-.16-1.16,3,3,0,0,0-.48-1,2.33,2.33,0,0,0-.8-.66,2.53,2.53,0,0,0-1.16-.25,2.56,2.56,0,0,0-2,.8,3.93,3.93,0,0,0-.86,2.24Z"/><path class="cls-2" d="M252,239.25a3.51,3.51,0,0,1,.3.76,4.07,4.07,0,0,1,.15.93,8,8,0,0,1-2.93.5,5.34,5.34,0,0,1-4.19-1.58,6.13,6.13,0,0,1-1.41-4.25,7.38,7.38,0,0,1,.35-2.3,5.24,5.24,0,0,1,1-1.85,4.87,4.87,0,0,1,1.71-1.24,5.76,5.76,0,0,1,2.37-.46,10.56,10.56,0,0,1,1.61.11,6.63,6.63,0,0,1,1.33.35,4.45,4.45,0,0,1-.1.86,3.73,3.73,0,0,1-.27.86,7.41,7.41,0,0,0-2.43-.37,2.91,2.91,0,0,0-2.5,1.11,4.79,4.79,0,0,0-.83,2.93,4.27,4.27,0,0,0,.93,3.05,3.4,3.4,0,0,0,2.56,1,7.77,7.77,0,0,0,1.21-.09A5.45,5.45,0,0,0,252,239.25Z"/><path class="cls-2" d="M254.35,225.26l.53-.07.53,0,.54,0,.54.07v15.93l-.54.07-.54,0-.53,0-.53-.07Zm2.74,10.15,3.54-5.37.57-.07.59,0,.62,0,.6.07-3.54,5.22,4.15,5.93-.59.07-.59,0-.61,0-.61-.07Z"/><path class="cls-1" d="M236.27,68.47a4,4,0,0,1,2.67,1.87,5.93,5.93,0,0,1,.78,3h0c2,1.42,2.36,3,1.86,3.86s-1.29,1.18-1.29,1.61-.07,6.15-.09,8.64a41.72,41.72,0,0,1,34.5,49.19,3.6,3.6,0,0,1,.32,3.64,35.37,35.37,0,0,1-1.68,3.56l.11,8.9s2.58.95,4.44,1.71c5.6,2.3,7,5.29,4.44,10.56l-.94,1.68v2.82A62.75,62.75,0,0,0,236.27,65.9Z"/><path class="cls-1" d="M186.5,185.36,183.69,182a5.26,5.26,0,0,1-4.23,1.84,6,6,0,0,1-6.1-6.33c0-3.69,2.35-6.2,5.79-6.2a6.74,6.74,0,0,1,4.55,1.91l2.88-3,0-3.58-.94-1.68c-2.53-5.27-1.16-8.26,4.44-10.56,1.86-.76,4.44-1.71,4.44-1.71l.11-8.9a35.4,35.4,0,0,1-1.68-3.56,3.86,3.86,0,0,1,0-3,41.74,41.74,0,0,1,34.87-49.85c0-2.52-.09-8.24-.09-8.57s-.75-.64-1.29-1.61-.16-2.44,1.86-3.86h0a5.93,5.93,0,0,1,.78-3,4,4,0,0,1,2.67-1.87V65.9a62.7,62.7,0,0,0-50.27,28c0-.24,0-.47,0-.7,0-16.07-12.94-27.38-30.95-27.38-19.49,0-32.73,13.54-32.73,33.63v2.38H138.3c.3-11.16,3.27-15.62,11-15.62,5.65,0,9.37,3.72,9.37,9.37,0,4-1.64,7.59-7.59,17L116.43,167h0v21.17h5.15V167h4v21.17h5.15v-12l7.72,12h5.15V167h7.76v21.17h6.77a10.9,10.9,0,0,0,7.37-2.42,10.38,10.38,0,0,0,3-5.24,10.17,10.17,0,0,0,10.32,8.06,12.71,12.71,0,0,0,4.83-1,10.34,10.34,0,0,0,2.87-1.86Zm-48-6.43L130.73,167h7.72Zm30.35-53.88c1-1.46,1.83-2.84,2.66-4.18a62.46,62.46,0,0,0,2.41,26.65h-19.8ZM157.3,184h-.79V171.14h1a6,6,0,0,1,6.17,6.39A6.12,6.12,0,0,1,157.3,184Zm11.23-9.47a9.75,9.75,0,0,0-3.12-5.18c-1.94-1.65-4.19-2.32-7.83-2.32h18.1A10.12,10.12,0,0,0,168.53,174.51Z"/><path class="cls-2" d="M277.89,154.4c-1.86-.76-4.44-1.71-4.44-1.71l-.11-8.9a35.37,35.37,0,0,0,1.68-3.56c.68-1.74.44-3.62-1.58-4.64l-3-1.32c.81-2.33,1-3.87-1-5.07L267.33,128s.12-5-4-14.38C257.94,101.2,245.22,97,245.22,97V94.43c0-1-3.43-1.73-3.43-1.73V90.24a2,2,0,0,0-1.6-1.72s.11-9.34.11-9.77.75-.64,1.29-1.61.16-2.44-1.86-3.86h0a5.93,5.93,0,0,0-.78-3,4,4,0,0,0-2.67-1.87v-3s.61,0,.65-.36V63.28l-1.26-.79,0-2.41h.88a29.27,29.27,0,0,0,.22-4.25c-.11-1.62-1.93-4.47-1.93-4.47l.7-.65s.22-2.13-1-1.84-1.15,2-1.15,2A7.23,7.23,0,0,0,232,53.16a28,28,0,0,0-1,5.22h1.3v4.11l-1.26.79v1.84c0,.32.65.36.65.36v3A4,4,0,0,0,229,70.33a5.93,5.93,0,0,0-.78,3h0c-2,1.42-2.36,3-1.86,3.86s1.29,1.18,1.29,1.61.11,9.77.11,9.77a2,2,0,0,0-1.6,1.72v2.47s-3.42.77-3.43,1.73V97S210,101.2,204.61,113.63c-4.09,9.39-4,14.38-4,14.38l-2.06,1.18c-2,1.2-1.81,2.74-1,5.07l-3,1.32c-2,1-2.26,2.9-1.58,4.64a35.4,35.4,0,0,0,1.68,3.56l-.11,8.9s-2.58.95-4.44,1.71c-5.6,2.3-7,5.29-4.44,10.56l.94,1.68,0,3.37q2,2.23,4.12,4.27v-8.35c0-.49.33-.74,1.32-1s1.32-.26,1.32.22q0,5.77,0,11.54,1.71,1.44,3.52,2.76,0-7.6,0-15.2c0-.58.41-.86,1.6-1.17s1.6-.24,1.6.34q0,9.11,0,18.23c1.25.8,2.53,1.57,3.84,2.28V162.57c0-.67.51-1,2-1.29s2-.2,2,.48l0,24-.17,0a62.74,62.74,0,0,0,52,0q0-12,0-24c0-.67.46-.79,2-.48s2,.62,2,1.29v21.18c1.31-.72,2.59-1.49,3.84-2.3l0-18.1c0-.58.37-.66,1.6-.34s1.6.6,1.6,1.17v15.06q1.81-1.33,3.52-2.79,0-5.69,0-11.37c0-.49.3-.54,1.32-.22s1.31.56,1.32,1v8.17a63.13,63.13,0,0,0,4.4-4.63v-2.82l.94-1.68C284.87,159.69,283.49,156.7,277.89,154.4Zm-81-2.29v-8.29a1.4,1.4,0,0,1,.85-1.32c.47-.13.85.24.85.83q0,4.14,0,8.29Zm3.52-1q0-4.21,0-8.42a1.61,1.61,0,0,1,1-1.55c.57-.14,1,.32,1,1q0,4.21,0,8.42Zm4.09-1q0-4.21,0-8.43a1.74,1.74,0,0,1,1.16-1.7c.64-.14,1.16.4,1.16,1.2q0,4.21,0,8.42Zm16.89-11.28a1.89,1.89,0,0,1,1.51-2,1.55,1.55,0,0,1,1.51,1.72q0,4.28,0,8.56-1.53.11-3,.25Q221.36,143.13,221.36,138.84Zm-12,10.27v-8.48a1.79,1.79,0,0,1,1.26-1.79c.7-.12,1.26.48,1.26,1.34q0,4.24,0,8.48Zm2.75,35.79v-24c0-.75.61-1.08,2.4-1.33s2.41-.09,2.41.66c0,7.18,0,15.66,0,23.9Q214.42,184.48,212.07,184.9Zm2.88-36.72q0-4.32,0-8.64a1.84,1.84,0,0,1,1.37-1.88c.76-.1,1.38.58,1.38,1.51q0,4.32,0,8.63Q216.33,148,214.95,148.17ZM221,183.68V159.86c0-.79.72-1.1,2.82-1.25s2.83.06,2.83.85c0,6.72,0,15.36,0,23.81C224.76,183.36,222.86,183.5,221,183.68Zm7.69-45.28a1.85,1.85,0,0,1,1.58-2,1.73,1.73,0,0,1,1.58,1.89q0,4.26,0,8.51-1.6,0-3.2.09Zm5.06,44.67c-1,0-2.06,0-3.07,0V159.39c0-.85.81-1.14,3.17-1.14s3.17.29,3.17,1.14c0,6.7,0,15.31,0,23.73C236,183.09,234.86,183.07,233.75,183.07Zm5.42-36.15q-1.6-.06-3.2-.09,0-4.26,0-8.51a1.73,1.73,0,0,1,1.58-1.89,1.85,1.85,0,0,1,1.58,2Zm4.31-8.33a1.55,1.55,0,0,1,1.51-1.72,1.89,1.89,0,0,1,1.51,2q0,4.28,0,8.57-1.52-.14-3-.25Q243.46,142.87,243.48,138.59Zm3.21,45.11c-1.86-.18-3.76-.32-5.69-.43,0-8.45,0-17.09,0-23.82,0-.79.65-1,2.83-.85s2.82.47,2.82,1.25Zm3.47-44.53c0-.93.62-1.61,1.38-1.51a1.84,1.84,0,0,1,1.37,1.88q0,4.32,0,8.64l-2.78-.37Zm5.46,45.76q-2.36-.42-4.84-.75c0-8.25,0-16.73,0-23.92,0-.75.56-.91,2.41-.66s2.4.58,2.4,1.33Zm2.92-35.82-2.55-.46q0-4.24,0-8.48c0-.86.57-1.46,1.26-1.34a1.79,1.79,0,0,1,1.26,1.79Q258.54,144.87,258.54,149.11Zm4.84,1-2.35-.51,0-8.42c0-.8.52-1.34,1.16-1.2a1.74,1.74,0,0,1,1.16,1.7Zm4.09,1-2.07-.53q0-4.21,0-8.42c0-.71.46-1.17,1-1a1.6,1.6,0,0,1,1,1.55Zm3.52,1-1.72-.49q0-4.14,0-8.29c0-.59.38-1,.85-.83a1.4,1.4,0,0,1,.85,1.32Q271,148,271,152.1Z"/></svg>