<svg id="Layer_1" data-name="Layer 1" xmlns="http://www.w3.org/2000/svg" viewBox="0 0 410 300"><defs><style>.cls-1{fill:none;stroke:#000;stroke-width:1.04px;}.cls-2{fill:#fff;}</style></defs><title>identities</title><rect x="93.03" y="123.8" width="223.23" height="56.89"/><line class="cls-1" x1="91.94" y1="84.15" x2="316.99" y2="84.15"/><path class="cls-2" d="M193.65,121.87C209.7,154,261,168.47,325.15,156v-1.55C261,166.91,209.7,152.42,193.65,120.32Z"/><path class="cls-2" d="M67.33,155c56.95-3.11,116.48,14,142.88,33.13v1.55c-26.4-19.15-85.94-36.24-142.88-33.13Z"/><path class="cls-2" d="M264,122c-38.24,16,13.46,27.73,58.54,28.23l.09-1.55c-45.08-.5-96.79-12.26-58.54-28.23Z"/><path class="cls-2" d="M322.06,173.62c-20.35,4.51-76.8,4.2-111.24-3.67s-21.29-29.71-15.45-34.18c36.68-28,79,7.27,26.62,25.22C185.67,173.44,103.93,143.89,81,115.68c23.47,26.67,104.69,56.2,141,43.76,52.39-18,10.06-53.27-26.62-25.22-5.85,4.47-19,26.31,15.45,34.18s90.89,8.18,111.24,3.67Z"/><path class="cls-2" d="M146,186.07c-9.32-20.19-49.7-23.3-76.62-22.78v-1.55c26.92-.52,67.3,2.59,76.62,22.78Z"/><line class="cls-1" x1="91.94" y1="207.51" x2="316.99" y2="207.51"/><path class="cls-2" d="M89.77,175.89c40.73-2.07,96.64-46.25,31.06-54.53l.69,1.38c65.58,8.28,9.66,52.46-31.06,54.53Z"/><path d="M103.28,196.73c-.2-.45-.31-.75-.87-.75H98.09c-.37,0-.73,0-.92.41l-1.26,2.75a2,2,0,0,0-.14.69c0,1.38,1.4.79,1.4,1.3,0,.35-.28.3-.53.3-.55,0-1.1-.08-1.65-.08s-1.06.08-1.57.08c-.12,0-.18-.1-.18-.22,0-.41.92-.08,1.44-1.2l4.7-10c1.16-2.48,1.22-2.79,1.48-2.79s.35.57.41.73L105.34,198a12.54,12.54,0,0,0,1,2.24c.59.9,1.73.47,1.73,1,0,.18-.14.18-.28.18-.81,0-1.61-.08-2.42-.08-.53,0-1.06.08-1.59.08-.12,0-.43,0-.43-.2,0-.47,1.18-.28,1.18-1a8.23,8.23,0,0,0-.61-1.87Zm-5.31-2c-.14.28,0,.35.26.35h3.89c.43,0,.41-.14.31-.39L100.51,190c-.1-.24-.2-.24-.31,0Z"/><path d="M112.19,189.49c0-.14.08-.89-.2-.91h-3.21c-1.22,0-1.26.3-1.61,1.38-.06.2-.08.45-.33.45s-.2-.14-.2-.24l.22-1.91c0-.24,0-.77.35-.77,1.53,0,3,.08,5.59.08,3.56,0,5.37-.08,5.76-.08s.55.12.57.57l.1,1.57c0,.2,0,.43-.22.43-.73,0,.33-1.5-1.67-1.5h-2.81c-.89,0-.79-.08-.79,1v10c0,1.65,1.59,1,1.59,1.61,0,.06,0,.24-.18.24-.47,0-1-.08-1.59-.08a26.39,26.39,0,0,0-2.7.08c-.18,0-.24-.06-.24-.26,0-.47,1.55-.28,1.55-1.46Z"/><path d="M128.68,193.23c0,.67,0,.67.75.67h2.12c2,0,1.51-1.57,2-1.57.16,0,.22.22.22.37,0,.69,0,1.36,0,2s0,1,0,1.55c0,.18-.08.26-.22.26-.61,0,.06-1.73-1.59-1.73H129c-.45,0-.35.33-.35.63v4c0,1.87,1.85,1.36,1.85,1.81,0,.28-.3.28-.43.28a13.37,13.37,0,0,0-2.16-.1c-1,0-1.69.1-2,.1a.19.19,0,0,1-.2-.18c0-.55,1.44,0,1.44-2.16V190c0-.88,0-1.83-1.06-2-.16,0-.59-.08-.59-.31s.12-.24.69-.24c3.72,0,4.74.08,5.57.08.39,0,2.2-.08,2.81-.08.16,0,.2.2.2.43,0,2.18-.28,2.34-.39,2.34-.47,0-.16-.94-.47-1.4-.51-.67-2.56-.55-3.34-.55-1.89,0-1.85-.08-1.85,1.24Z"/><path d="M135.7,194.39a7,7,0,0,1,7.22-7.06,6.84,6.84,0,0,1,7.1,7c0,4.43-3,7.28-7.44,7.28S135.7,198.54,135.7,194.39Zm1.44-.57c0,3.64,2.38,7.16,6.27,7.16,2.87,0,5.17-2.3,5.17-5.94s-2.42-7.06-6.25-7.06C139,188,137.14,190.71,137.14,193.82Z"/><path d="M154.13,196.18c0,3.15,2,4.58,4.7,4.58,3.7,0,4.54-2.44,4.54-4.76v-6.37c0-2-1.83-1.18-1.83-1.93,0-.1.14-.2.2-.2.77,0,1.53.08,2.3.08.37,0,.73-.08,1.08-.08.1,0,.26.1.26.22,0,.55-1.16.12-1.16,1.93v6.1c0,1,.24,5.82-5.49,5.82-5.17,0-6.16-2.89-6.16-5.92V189c0-1.16-1.59-.69-1.59-1.32,0-.14.33-.2.43-.2.51,0,1,.08,1.53.08s1.26-.08,1.87-.08c.1,0,.63,0,.63.2,0,.55-1.32,0-1.32,1.42Z"/><path d="M168.66,191.38c0-4.09-2.38-3-2.38-3.68,0-.12.2-.2.29-.2.31,0,.61.08.92.08s.61-.08.9-.08.39.31.51.45l9.38,10.44c.12.14.2.22.24.22s.06-.06.06-.22v-8.22c0-2.58-2.18-1.83-2.18-2.48a.19.19,0,0,1,.22-.2c.59,0,1.16.08,1.79.08s1.51-.08,2-.08c.12,0,.2.06.2.18,0,.51-1.16.16-1.16,1.59v11.39c0,.57,0,.85-.18.85s-.33-.1-.75-.55l-8.46-9.52s-.28-.37-.41-.37-.14.06-.14.45v8c0,1.77,1.73,1.08,1.73,1.61,0,.1,0,.26-.22.26-.47,0-1-.08-2-.08-.69,0-1.71.08-1.85.08s-.26-.12-.26-.22c0-.69,1.73.18,1.73-2.58Z"/><path d="M184,189.61c0-2-1.61-1.38-1.61-1.91,0-.14.16-.2.28-.2.61,0,1.18.08,1.77.08,1.3,0,2.58-.08,4.27-.08,3.48,0,6.9,2.64,6.9,6.28,0,4.52-2.14,7.65-7.59,7.65-1,0-2-.08-3-.08l-2.2.08c-.16,0-.2-.08-.2-.2,0-.45,1.4,0,1.4-1.83Zm1.55,9c0,.31-.06,1.26.12,1.44a4.94,4.94,0,0,0,3,.89c2.79,0,5.45-1.49,5.45-6,0-4.37-2.91-6.84-6.65-6.86-1.87,0-1.95.31-1.95,1.24Z"/><path d="M199.84,193.23c0,.67,0,.67.75.67h2.12c2,0,1.51-1.57,2-1.57.16,0,.22.22.22.37,0,.69,0,1.36,0,2s0,1,0,1.55c0,.18-.08.26-.22.26-.61,0,.06-1.73-1.59-1.73h-2.91c-.41,0-.35.33-.35.63V199c0,1.16-.16,1.63,1.49,1.63,4.54,0,5.21-2,5.47-2s.16.2.16.24a3.11,3.11,0,0,1-1,1.91c-.63.71-1.06.67-1.93.67-1.49,0-3-.12-4.48-.08-.79,0-1.61.08-2.4.08-.18,0-.29,0-.29-.2s.24-.2.87-.51.55-.79.55-1.71v-9c0-.88,0-1.83-1.06-2-.16,0-.59-.08-.59-.31s.12-.24.69-.24c3.72,0,4.74.08,5.57.08.39,0,2.2-.08,2.81-.08.16,0,.2.2.2.43,0,2.18-.28,2.34-.39,2.34-.47,0-.16-.94-.47-1.4-.51-.67-2.56-.55-3.34-.55-1.89,0-1.85-.08-1.85,1.24Z"/><path d="M218.65,199.29c1.42,2.16,2.38,1.44,2.38,1.91,0,.24-1.1.24-1.28.24-1.44,0-2.2-1-3-2.12l-2.18-3.44c-.71-1.1-.41-1-2.62-1-.63,0-.51.35-.51.55v4.15c0,1.69,2,1.08,2,1.75,0,.2-.18.16-.33.16s-.63-.08-2.26-.08c-.75,0-1.49.08-2.24.08a.2.2,0,0,1-.2-.22c0-.49,1.44-.22,1.44-1.71v-10c0-1.89-1.69-1.08-1.69-1.75,0-.12.16-.24.39-.24a11.13,11.13,0,0,0,1.26.08c1.14,0,2.26-.08,3.28-.08.31,0,4.66-.39,4.66,3.4a3.81,3.81,0,0,1-2.48,3.4Zm-7.42-5.41c0,.37,1.22.28,2.14.28a2.57,2.57,0,0,0,2.73-2.79c0-2.4-1.83-3.21-3.76-3.21-.71,0-1.12,0-1.12.73Z"/><path d="M220.52,198c-.08-.39,0-.61.22-.61s.28.24.37.65a4.2,4.2,0,0,0,4.13,3c1.87,0,3.7-1,3.7-3.11,0-3.8-8-1.67-8-6.81,0-2.5,2.1-3.7,4.37-3.7a7,7,0,0,1,3.3.71c.18,0,.22-.22.41-.22s.22.06.24.28l.29,2.67c0,.16,0,.29-.22.29s-.35-.41-.41-.59a3.76,3.76,0,0,0-3.76-2.56c-1.55,0-3.21.75-3.21,2.56,0,3.7,8,1.53,8,7,0,1.65-1.16,4.13-5.63,4.13-1.46,0-3.25-.73-3.32-1.08Z"/><path d="M243.85,187.33c3.7,0,4.72,1.51,5.29,1.51.16,0,.28-.2.47-.2s.22.31.28,1.59c0,1,.22,1.69-.12,1.69s-.37-.51-.45-.65c-1.22-2.1-2.62-3.38-5.15-3.38-3.84,0-5.68,2.56-5.68,6.22,0,3.42,2,6.84,5.74,6.84,3.09,0,5-2,5.31-2.87a.33.33,0,0,1,.28-.26.2.2,0,0,1,.18.22l-.45,2c0,.08-1.42,1.55-5.84,1.55a6.59,6.59,0,0,1-6.92-6.84A7.1,7.1,0,0,1,243.85,187.33Z"/><path d="M254.37,193.23c0,.67,0,.67.75.67h2.12c2,0,1.51-1.57,2-1.57.16,0,.22.22.22.37,0,.69,0,1.36,0,2s0,1,0,1.55c0,.18-.08.26-.22.26-.61,0,.06-1.73-1.59-1.73h-2.91c-.41,0-.35.33-.35.63V199c0,1.16-.16,1.63,1.49,1.63,4.54,0,5.21-2,5.47-2s.16.2.16.24a3.11,3.11,0,0,1-1,1.91c-.63.71-1.06.67-1.93.67-1.5,0-3-.12-4.48-.08-.79,0-1.61.08-2.4.08-.18,0-.3,0-.3-.2s.24-.2.87-.51.55-.79.55-1.71v-9c0-.88,0-1.83-1.06-2-.16,0-.59-.08-.59-.31s.12-.24.69-.24c3.72,0,4.74.08,5.57.08.39,0,2.2-.08,2.81-.08.16,0,.2.2.2.43,0,2.18-.28,2.34-.39,2.34-.47,0-.16-.94-.47-1.4-.51-.67-2.56-.55-3.34-.55-1.89,0-1.85-.08-1.85,1.24Z"/><path d="M264.26,191.38c0-4.09-2.38-3-2.38-3.68,0-.12.2-.2.3-.2.31,0,.61.08.92.08s.61-.08.9-.08.39.31.51.45l9.38,10.44c.12.14.2.22.24.22s.06-.06.06-.22v-8.22c0-2.58-2.18-1.83-2.18-2.48a.19.19,0,0,1,.22-.2c.59,0,1.16.08,1.79.08s1.51-.08,2-.08c.12,0,.2.06.2.18,0,.51-1.16.16-1.16,1.59v11.39c0,.57,0,.85-.18.85s-.33-.1-.75-.55l-8.46-9.52s-.27-.37-.41-.37-.14.06-.14.45v8c0,1.77,1.73,1.08,1.73,1.61,0,.1,0,.26-.22.26-.47,0-1-.08-2-.08-.69,0-1.71.08-1.85.08s-.26-.12-.26-.22c0-.69,1.73.18,1.73-2.58Z"/><path d="M283.08,189.49c0-.14.08-.89-.2-.91h-3.21c-1.22,0-1.26.3-1.61,1.38-.06.2-.08.45-.33.45s-.2-.14-.2-.24l.22-1.91c0-.24,0-.77.35-.77,1.53,0,3,.08,5.59.08,3.56,0,5.37-.08,5.76-.08s.55.12.57.57l.1,1.57c0,.2,0,.43-.22.43-.73,0,.33-1.5-1.67-1.5h-2.81c-.89,0-.79-.08-.79,1v10c0,1.65,1.59,1,1.59,1.61,0,.06,0,.24-.18.24-.47,0-1-.08-1.59-.08a26.39,26.39,0,0,0-2.69.08c-.18,0-.24-.06-.24-.26,0-.47,1.55-.28,1.55-1.46Z"/><path d="M294.36,193.23c0,.67,0,.67.75.67h2.12c2,0,1.51-1.57,2-1.57.16,0,.22.22.22.37,0,.69,0,1.36,0,2s0,1,0,1.55c0,.18-.08.26-.22.26-.61,0,.06-1.73-1.59-1.73h-2.91c-.41,0-.35.33-.35.63V199c0,1.16-.16,1.63,1.49,1.63,4.54,0,5.21-2,5.47-2s.16.2.16.24a3.11,3.11,0,0,1-1,1.91c-.63.71-1.06.67-1.93.67-1.49,0-3-.12-4.48-.08-.79,0-1.61.08-2.4.08-.18,0-.3,0-.3-.2s.24-.2.87-.51.55-.79.55-1.71v-9c0-.88,0-1.83-1.06-2-.16,0-.59-.08-.59-.31s.12-.24.69-.24c3.72,0,4.74.08,5.57.08.39,0,2.2-.08,2.81-.08.16,0,.2.2.2.43,0,2.18-.28,2.34-.39,2.34-.47,0-.16-.94-.47-1.4-.51-.67-2.56-.55-3.34-.55-1.89,0-1.85-.08-1.85,1.24Z"/><path d="M312.65,199.29c1.42,2.16,2.38,1.44,2.38,1.91,0,.24-1.1.24-1.28.24-1.44,0-2.2-1-3-2.12l-2.18-3.44c-.71-1.1-.41-1-2.62-1-.63,0-.51.35-.51.55v4.15c0,1.69,2,1.08,2,1.75,0,.2-.18.16-.33.16s-.63-.08-2.26-.08c-.75,0-1.49.08-2.24.08a.2.2,0,0,1-.2-.22c0-.49,1.44-.22,1.44-1.71v-10c0-1.89-1.69-1.08-1.69-1.75,0-.12.16-.24.39-.24a11.13,11.13,0,0,0,1.26.08c1.14,0,2.26-.08,3.28-.08.31,0,4.66-.39,4.66,3.4a3.81,3.81,0,0,1-2.48,3.4Zm-7.16-5.41c0,.37,1.22.28,2.14.28a2.57,2.57,0,0,0,2.73-2.79c0-2.4-1.83-3.21-3.76-3.21-.71,0-1.12,0-1.12.73Z"/><path d="M104.48,94c0-.28.19-1.83-.47-1.87H96.41c-2.89,0-3,.61-3.83,2.84-.14.41-.19.93-.79.93a.51.51,0,0,1-.47-.49l.51-3.94c0-.49,0-1.58.84-1.58,3.64,0,7.23.16,13.25.16,8.45,0,12.74-.16,13.67-.16s1.31.24,1.35,1.18l.23,3.25c0,.41.09.89-.51.89-1.73,0,.79-3.08-4-3.08H110c-2.1,0-1.87-.16-1.87,2v20.7c0,3.41,3.78,2.07,3.78,3.33,0,.12,0,.49-.42.49-1.12,0-2.43-.16-3.78-.16-5.23,0-6.11.16-6.39.16s-.56-.12-.56-.53c0-1,3.69-.57,3.69-3Z"/><path d="M128.2,93.39c0-3-4.06-2.15-4.06-3,0-.37.37-.45.75-.45,1.73,0,3.41.16,5.13.16,1.45,0,2.89-.16,4.34-.16.79,0,.89.24.89.41,0,.81-3.36,0-3.36,3.08v8.77c0,.57,0,.73.7.73h17.08c.47,0,.37-1,.37-1.18V93.39c0-2.8-3.5-2.11-3.5-3,0-.24.09-.45.79-.45,1.54,0,4,.16,4.85.16,1.73,0,2.43-.16,3.36-.16,1.21,0,1.31.41,1.31.65,0,.73-3.13,0-3.13,2.84V114.9c0,3,4.25,2.23,4.25,3.25a.58.58,0,0,1-.51.49c-1.26,0-2.71-.16-4.39-.16-3,0-4.29.16-5.18.16-.42,0-1.12.12-1.12-.53,0-1,3.27-.41,3.27-3V105.4c0-.65.19-1-.37-1H132.44c-.56,0-.56.24-.56.69v10.11c0,2.76,4.43,1.87,4.43,3.13,0,.2-.33.32-.75.32-.61,0-4-.16-6.49-.16a28.13,28.13,0,0,0-4,.16c-.37,0-.51-.2-.51-.61,0-1.18,3.64.16,3.64-3.86Z"/><path d="M168.7,101.71c0,1.38-.09,1.38,1.77,1.38h5c4.85,0,3.59-3.25,4.71-3.25.37,0,.51.45.51.77,0,1.42-.09,2.8-.09,4.1,0,1.06.09,2.11.09,3.21a.46.46,0,0,1-.51.53c-1.45,0,.14-3.57-3.78-3.57h-6.91c-1,0-.84.69-.84,1.3v7.47c0,2.39-.37,3.37,3.55,3.37,10.78,0,12.37-4.18,13-4.18.33,0,.37.41.37.49,0,1.46-1.21,2.88-2.33,3.94-1.49,1.46-2.52,1.38-4.57,1.38-3.55,0-7.09-.24-10.64-.16-1.87,0-3.83.16-5.69.16-.42,0-.7-.08-.7-.41.09-.49.56-.41,2.05-1.06,1.21-.49,1.31-1.62,1.31-3.53V95.13c0-1.83,0-3.77-2.52-4.1-.37-.08-1.4-.16-1.4-.65,0-.32.28-.49,1.63-.49,8.82,0,11.25.16,13.21.16.93,0,5.23-.16,6.67-.16.37,0,.47.41.47.89,0,4.51-.65,4.83-.93,4.83-1.12,0-.37-1.95-1.12-2.88-1.21-1.38-6.07-1.14-7.93-1.14-4.48,0-4.39-.16-4.39,2.56Z"/><path d="M224.94,114.21c3.36,4.46,5.65,3,5.65,3.94,0,.49-2.61.49-3,.49-3.41,0-5.23-2.07-7-4.38l-5.18-7.1c-1.68-2.27-1-2.15-6.21-2.15-1.49,0-1.21.73-1.21,1.14v8.56c0,3.49,4.85,2.23,4.85,3.61,0,.41-.42.32-.79.32s-1.49-.16-5.37-.16c-1.77,0-3.55.16-5.32.16a.45.45,0,0,1-.47-.45c0-1,3.41-.45,3.41-3.53V94c0-3.9-4-2.23-4-3.61,0-.24.37-.49.93-.49.84,0,.61.16,3,.16,2.71,0,5.37-.16,7.79-.16.75,0,11.06-.81,11.06,7,0,3.17-2.61,5.89-5.88,7ZM208,103c0,.77,2.89.57,5.09.57,2,0,6.49-.73,6.49-5.76s-4.34-6.62-8.91-6.62c-1.68,0-2.66-.08-2.66,1.5Z"/><path d="M235.38,93.39c0-3-3.78-2.15-3.78-3,0-.37.09-.45.47-.45,1.73,0,3.41.16,5.13.16,1.45,0,2.89-.16,4.34-.16.75,0,.89.08.89.41,0,1-3.36,0-3.36,3.08v21.8c0,2.76,4.15,1.83,4.15,3,0,.28-.14.41-.93.41-1.07,0-3.08-.16-5.09-.16-2.85,0-3.83.16-4.48.16-.84,0-1-.2-1-.61,0-1.18,3.64.16,3.64-3.86Z"/><path d="M253.28,97.89c0-8.44-5.65-6.09-5.65-7.59,0-.24.47-.41.7-.41.75,0,1.45.16,2.19.16s1.45-.16,2.15-.16c.51,0,.93.65,1.21.93l22.26,21.55c.28.28.47.45.56.45s.14-.12.14-.45v-17c0-5.32-5.18-3.77-5.18-5.11,0-.28.23-.41.51-.41,1.4,0,2.75.16,4.25.16s3.59-.16,4.71-.16c.28,0,.47.12.47.37,0,1.06-2.75.32-2.75,3.29v23.5c0,1.18,0,1.75-.42,1.75s-.79-.2-1.77-1.14L256.6,98c-.09-.08-.65-.77-1-.77s-.33.12-.33.93v16.6c0,3.65,4.11,2.23,4.11,3.33a.46.46,0,0,1-.51.53c-1.12,0-2.43-.16-4.71-.16-1.63,0-4.06.16-4.39.16-.56,0-.61-.24-.61-.45,0-1.42,4.11.36,4.11-5.32Z"/><path d="M304,95.58c.89-.69,3.31-2.27,3.31-3.29,0-1.3-2.61-1.18-2.61-1.91,0-.32.23-.49.61-.49,1.73,0,2.47.16,4.95.16s2.8-.16,4.29-.16c.28,0,.84,0,.84.32,0,1.3-1.07-.24-6.39,3.53l-10.92,8.44c-.42.32-.7.57-.7.77s.19.45.51.77l13,11.81c3.13,2.84,5.13,1.3,5.13,2.56a.51.51,0,0,1-.56.53c-.93,0-1.91-.16-2.85-.16s-1.91.16-2.89.16c-.61,0-1-.65-1.4-1l-13.16-11.93a1.26,1.26,0,0,0-.84-.41.38.38,0,0,0-.42.41v8.48c0,4.51,4.57,2.6,4.57,4.06,0,.41-1,.41-1.26.41a38.8,38.8,0,0,0-4.57-.16c-2.38,0-3.83.16-4.57.16-.51,0-1.17,0-1.17-.65s3.31,0,3.31-3.41V93.79c0-3.37-3.92-2.39-3.92-3.45,0-.37.19-.45.61-.45,1.49,0,3,.16,4.53.16,2,0,3.41-.16,4.81-.16a.33.33,0,0,1,.37.37c0,.89-2.71.49-2.71,3.37v9.13c0,.24.09.41.23.41a.77.77,0,0,0,.51-.2Z"/></svg>