<svg id="Layer_1" data-name="Layer 1" xmlns="http://www.w3.org/2000/svg" xmlns:xlink="http://www.w3.org/1999/xlink" viewBox="0 0 410 300"><defs><style>.cls-1{fill:#58acd8;}.cls-2{fill:#554d42;}.cls-3{fill:#dec64b;}.cls-4{fill:#fff;}.cls-5{clip-path:url(#clip-path);}.cls-6{fill:#4886a7;}.cls-7{fill:url(#linear-gradient);}.cls-8{fill:url(#linear-gradient-2);}.cls-9{fill:url(#linear-gradient-3);}.cls-10{fill:url(#linear-gradient-4);}.cls-11{fill:#4c93b9;}.cls-12,.cls-13{fill:#d0e5f0;}.cls-13{stroke:#5eadd8;stroke-miterlimit:10;stroke-width:0.12px;}</style><clipPath id="clip-path"><path class="cls-1" d="M284.27,132.87a81,81,0,0,0-26.14-45.62l-.1-.09a58.76,58.76,0,0,1-25.8,5.65,57.65,57.65,0,0,1-22.08-4.16A52,52,0,0,1,204.65,86a51.61,51.61,0,0,1-5.48,2.63,57.65,57.65,0,0,1-22.1,4.16,59.39,59.39,0,0,1-22-4c-1.3-.52-2.57-1.08-3.78-1.67h0a81.09,81.09,0,0,0,15.81,132.92L204.64,239l37.59-18.88a81,81,0,0,0,42-87.21Z"/></clipPath><linearGradient id="linear-gradient" x1="246.65" y1="197.28" x2="246.65" y2="245.73" gradientUnits="userSpaceOnUse"><stop offset="0" stop-color="#fff"/><stop offset="1" stop-color="#5eadd8"/></linearGradient><linearGradient id="linear-gradient-2" x1="162.59" y1="197.28" x2="162.59" y2="245.73" xlink:href="#linear-gradient"/><linearGradient id="linear-gradient-3" x1="204.73" y1="197.35" x2="204.73" y2="260.61" xlink:href="#linear-gradient"/><linearGradient id="linear-gradient-4" x1="214.97" y1="324.44" x2="214.97" y2="353.87" gradientTransform="matrix(1, 0, 0, 1.05, -10.58, -130.82)" gradientUnits="userSpaceOnUse"><stop offset="0" stop-color="#58acd8"/><stop offset="1" stop-color="#4699c2"/></linearGradient></defs><title>identities</title><path class="cls-2" d="M314.2,153.68c0-.88.05-1.77.07-2.66a2.8,2.8,0,0,0,2.25-2.84l-.16-4.77a2.79,2.79,0,0,0-2.43-2.68c-.07-.89-.12-1.78-.21-2.66a2.81,2.81,0,0,0,1.87-3.07l-.72-4.72a2.79,2.79,0,0,0-2.7-2.37c-.17-.88-.38-1.74-.58-2.61a2.8,2.8,0,0,0,1.51-3.28l-1.27-4.6a2.79,2.79,0,0,0-3-2c-.28-.85-.56-1.69-.86-2.53a2.8,2.8,0,0,0,1.11-3.43l-1.8-4.42a2.8,2.8,0,0,0-3.2-1.67c-.38-.81-.76-1.61-1.15-2.4a2.8,2.8,0,0,0,.71-3.55l-2.31-4.17A2.79,2.79,0,0,0,298,91.95c-.47-.75-1-1.5-1.44-2.24a2.79,2.79,0,0,0,.3-3.62L294,82.22a2.8,2.8,0,0,0-3.54-.85c-.55-.69-1.1-1.39-1.66-2.07a2.8,2.8,0,0,0-.13-3.63l-3.23-3.52a2.8,2.8,0,0,0-3.6-.44c-.63-.62-1.28-1.22-1.92-1.83a2.8,2.8,0,0,0-.55-3.61l-3.62-3.11a2.8,2.8,0,0,0-3.64,0c-.7-.55-1.39-1.1-2.1-1.63a2.8,2.8,0,0,0-1-3.49l-4-2.66a2.8,2.8,0,0,0-3.58.39c-.76-.46-1.54-.89-2.31-1.33a2.79,2.79,0,0,0-1.39-3.35l-4.24-2.18a2.79,2.79,0,0,0-3.52.82c-.81-.37-1.61-.75-2.43-1.1a2.8,2.8,0,0,0-1.78-3.11l-4.47-1.66a2.8,2.8,0,0,0-3.38,1.2c-.85-.27-1.7-.52-2.56-.77a2.8,2.8,0,0,0-2.14-2.9l-4.63-1.11a2.8,2.8,0,0,0-3.22,1.59q-1.31-.25-2.63-.47a2.8,2.8,0,0,0-2.47-2.62l-4.73-.56a2.8,2.8,0,0,0-3,2c-.89-.06-1.77-.14-2.66-.18a2.81,2.81,0,0,0-2.76-2.3h-4.77a2.8,2.8,0,0,0-2.75,2.3c-1.33.06-2.64.17-4,.28a2.8,2.8,0,0,0-3-1.95l-4.73.62a2.81,2.81,0,0,0-2.43,2.66c-.88.16-1.76.29-2.63.47a2.8,2.8,0,0,0-3.23-1.54L175,41.75a2.81,2.81,0,0,0-2.1,2.9c-.85.26-1.69.55-2.54.83a2.79,2.79,0,0,0-3.4-1.17L162.52,46a2.81,2.81,0,0,0-1.73,3.16c-.81.36-1.63.72-2.43,1.1a2.79,2.79,0,0,0-3.52-.77l-4.23,2.23a2.81,2.81,0,0,0-1.34,3.36q-1.15.68-2.28,1.38a2.79,2.79,0,0,0-3.6-.36l-3.94,2.7a2.82,2.82,0,0,0-.93,3.51c-.7.54-1.4,1.09-2.09,1.64a2.79,2.79,0,0,0-3.63,0l-3.59,3.15a2.81,2.81,0,0,0-.5,3.61c-.63.61-1.27,1.23-1.89,1.86a2.79,2.79,0,0,0-3.6.48L120,76.66a2.8,2.8,0,0,0-.08,3.62c-.56.69-1.1,1.39-1.64,2.09a2.79,2.79,0,0,0-3.53.9L112,87.18a2.81,2.81,0,0,0,.35,3.61c-.48.75-1,1.49-1.42,2.25a2.79,2.79,0,0,0-3.36,1.32l-2.27,4.2a2.81,2.81,0,0,0,.73,3.52c-.38.8-.73,1.62-1.1,2.43a2.79,2.79,0,0,0-3.18,1.71L100,110.66a2.81,2.81,0,0,0,1.16,3.41c-.29.84-.59,1.68-.86,2.53a2.79,2.79,0,0,0-2.92,2.08l-1.21,4.62a2.81,2.81,0,0,0,1.53,3.25c-.19.87-.35,1.74-.51,2.62a2.8,2.8,0,0,0-2.68,2.4l-.66,4.73a2.81,2.81,0,0,0,1.92,3c-.08.88-.14,1.77-.2,2.66a2.79,2.79,0,0,0-2.39,2.71l-.1,4.77a2.81,2.81,0,0,0,2.28,2.81c0,.89,0,1.78.07,2.66a2.8,2.8,0,0,0-2,3l.46,4.75a2.81,2.81,0,0,0,2.58,2.51c.13.88.28,1.76.43,2.64A2.79,2.79,0,0,0,95.18,171l1,4.67a2.81,2.81,0,0,0,2.85,2.19c.23.86.48,1.72.73,2.57a2.8,2.8,0,0,0-1.29,3.37l1.57,4.51a2.8,2.8,0,0,0,3.11,1.83c.33.83.66,1.65,1,2.47a2.8,2.8,0,0,0-.89,3.5l2.09,4.29a2.81,2.81,0,0,0,3.3,1.45c.43.78.88,1.54,1.33,2.31a2.8,2.8,0,0,0-.5,3.6l2.58,4a2.8,2.8,0,0,0,3.5,1c.51.72,1,1.45,1.54,2.16a2.79,2.79,0,0,0-.06,3.63l3,3.69a2.81,2.81,0,0,0,3.58.62c.59.66,1.22,1.28,1.83,1.92a2.8,2.8,0,0,0,.34,3.64l3.45,3.3A2.81,2.81,0,0,0,133,232c.67.58,1.32,1.17,2,1.74a2.79,2.79,0,0,0,.78,3.55l3.81,2.87a2.81,2.81,0,0,0,3.63-.23c.73.5,1.48,1,2.22,1.45a2.79,2.79,0,0,0,1.19,3.44l4.13,2.4a2.8,2.8,0,0,0,3.57-.65c.79.41,1.57.82,2.37,1.22a2.8,2.8,0,0,0,1.6,3.25l4.38,1.89a2.81,2.81,0,0,0,3.46-1c.83.31,1.67.62,2.51.91a2.8,2.8,0,0,0,2,3l4.57,1.36a2.81,2.81,0,0,0,3.31-1.44c.86.21,1.73.41,2.6.6a2.79,2.79,0,0,0,2.32,2.77l4.7.81a2.81,2.81,0,0,0,3.12-1.84c.88.11,1.76.24,2.65.33a2.79,2.79,0,0,0,2.63,2.46l4.76.25a2.8,2.8,0,0,0,2.88-2.18l.69,0c.66,0,1.32,0,2-.05a2.8,2.8,0,0,0,2.91,2.17l4.76-.31a2.81,2.81,0,0,0,2.6-2.51c.88-.1,1.76-.22,2.64-.34a2.8,2.8,0,0,0,3.14,1.8l4.69-.87a2.81,2.81,0,0,0,2.28-2.8c.87-.2,1.74-.39,2.6-.61a2.8,2.8,0,0,0,3.32,1.39l4.56-1.42a2.81,2.81,0,0,0,1.94-3c.84-.31,1.66-.64,2.48-1a2.79,2.79,0,0,0,3.48,1l4.36-1.94a2.8,2.8,0,0,0,1.56-3.28c.79-.4,1.59-.79,2.36-1.21a2.79,2.79,0,0,0,3.57.6l4.1-2.44a2.81,2.81,0,0,0,1.15-3.45c.74-.49,1.46-1,2.18-1.5a2.8,2.8,0,0,0,3.65.2l3.78-2.91a2.8,2.8,0,0,0,.72-3.58c.67-.57,1.34-1.15,2-1.73a2.8,2.8,0,0,0,3.65-.23l3.41-3.33a2.8,2.8,0,0,0,.3-3.64q.9-1,1.78-2a2.8,2.8,0,0,0,3.6-.65l3-3.72a2.8,2.8,0,0,0-.12-3.64q.78-1.07,1.54-2.16a2.8,2.8,0,0,0,3.48-1.08l2.53-4a2.8,2.8,0,0,0-.54-3.59c.44-.77.87-1.54,1.29-2.33a2.8,2.8,0,0,0,3.31-1.49l2-4.32a2.8,2.8,0,0,0-.93-3.49c.34-.82.66-1.65,1-2.48a2.8,2.8,0,0,0,3.1-1.88l1.51-4.52a2.8,2.8,0,0,0-1.35-3.35c.24-.86.5-1.71.73-2.57a2.8,2.8,0,0,0,2.82-2.23l1-4.67a2.8,2.8,0,0,0-1.71-3.16c.14-.88.25-1.76.36-2.65a2.8,2.8,0,0,0,2.57-2.55l.41-4.76A2.8,2.8,0,0,0,314.2,153.68Z"/><path class="cls-3" d="M172.44,64.43a.2.2,0,0,1-.11.29L169.26,66l1,2.45,2.34-1a.2.2,0,0,1,.28.13l.51,1.22a.2.2,0,0,1-.11.29l-2.34,1,1,2.48,3.07-1.28c.15-.06.22,0,.28.11l.51,1.23a.18.18,0,0,1-.11.28l-4.52,1.89a.19.19,0,0,1-.27-.12L167,65.25a.19.19,0,0,1,.1-.27l4.52-1.89a.18.18,0,0,1,.28.11Z"/><path class="cls-3" d="M179.93,60.36a1.72,1.72,0,0,1,2.37,1.31L182.7,63a.19.19,0,0,1-.15.26l-1.33.38a.2.2,0,0,1-.26-.15l-.29-1a.47.47,0,0,0-.66-.36l-.61.18A.48.48,0,0,0,179,63l.51,1.76,3.33.12a.49.49,0,0,1,.47.38l.85,3a1.72,1.72,0,0,1-1.31,2.37l-1.43.41a1.72,1.72,0,0,1-2.37-1.31l-.39-1.34a.19.19,0,0,1,.15-.26l1.33-.38a.19.19,0,0,1,.26.15l.28,1a.48.48,0,0,0,.66.36L182,69a.47.47,0,0,0,.36-.66l-.49-1.7-3.32-.12a.47.47,0,0,1-.48-.37l-.87-3a1.72,1.72,0,0,1,1.31-2.37Z"/><path class="cls-3" d="M191.63,57.87a.19.19,0,0,1,.25.17l.22,1.31a.19.19,0,0,1-.17.25l-1.52.26,1.46,8.56a.19.19,0,0,1-.17.25l-1.36.23a.19.19,0,0,1-.25-.17l-1.46-8.56-1.52.26a.2.2,0,0,1-.25-.17l-.22-1.31a.2.2,0,0,1,.17-.25Z"/><path class="cls-3" d="M196.34,66.54a.24.24,0,0,1,.24-.29l1.21-.11a.24.24,0,0,1,.29.24l.11,1.22a.24.24,0,0,1-.24.29l-1.21.11a.24.24,0,0,1-.29-.24Z"/><path class="cls-3" d="M211.15,64.36a.33.33,0,0,0-.21.3l-.1,1.15a.24.24,0,0,0,.24.29l1.43.12,0-.54a.24.24,0,0,1,.29-.24l1.27.11a.24.24,0,0,1,.24.29l-.17,2a.24.24,0,0,1-.29.24l-4.77-.4a.24.24,0,0,1-.24-.29l.33-3.91c0-.25.12-.35.39-.46l3.3-1.43.16-2a.48.48,0,0,0-.49-.57l-.64-.05a.47.47,0,0,0-.57.49l-.09,1a.2.2,0,0,1-.23.19l-1.38-.12a.19.19,0,0,1-.19-.23L209.6,59a1.71,1.71,0,0,1,2.07-1.75l1.48.12a1.72,1.72,0,0,1,1.75,2.07l-.26,3.13c0,.25-.14.35-.4.46Z"/><path class="cls-3" d="M220.16,60.17a1.71,1.71,0,0,1,2.26-1.49l1.46.3a1.71,1.71,0,0,1,1.49,2.26L224,67.91a1.71,1.71,0,0,1-2.26,1.49l-1.46-.3a1.71,1.71,0,0,1-1.49-2.26Zm1.61,7.48a.47.47,0,0,0,.63-.41l1.23-6a.48.48,0,0,0-.41-.63l-.76-.15a.48.48,0,0,0-.63.41l-1.23,6a.47.47,0,0,0,.41.63Z"/><path class="cls-3" d="M233.41,61.53a.2.2,0,0,1,.14.27l-3.06,9.75a.2.2,0,0,1-.27.14l-1.32-.41a.19.19,0,0,1-.14-.27l2.52-8-.82-.15a.22.22,0,0,1-.19-.31l.38-1.22a.24.24,0,0,1,.32-.19Z"/><path class="cls-3" d="M240.38,68.63a1.67,1.67,0,0,1,1,2.45l-1.12,2.57a1.67,1.67,0,0,1-2.45,1L236.32,74a1.67,1.67,0,0,1-1-2.45l1.36-3.14a1.68,1.68,0,0,1,.39-.56l3.52-3.37a.3.3,0,0,1,.36-.06l1.27.55c.18.08.21.22.06.36l-3,2.85Zm-2.29,4.21a.48.48,0,0,0,.7-.28l.78-1.79a.48.48,0,0,0-.28-.7l-.68-.3a.48.48,0,0,0-.7.28l-.78,1.79a.48.48,0,0,0,.28.7Z"/><path class="cls-4" d="M165.18,223.86A85.32,85.32,0,0,1,148.49,84l2.12-1.85,2.53,1.24c1.11.55,2.29,1.06,3.48,1.54a55.31,55.31,0,0,0,20.45,3.68,53.56,53.56,0,0,0,20.49-3.84,47.43,47.43,0,0,0,5-2.41l2.06-1.15,2.06,1.15a47.88,47.88,0,0,0,5,2.42,53.57,53.57,0,0,0,20.47,3.84,54.2,54.2,0,0,0,23.94-5.21l2.51-1.23L260.9,84a85.32,85.32,0,0,1-16.71,139.78l-39.55,19.87Z"/><path class="cls-3" d="M204.65,86a52,52,0,0,0,5.49,2.63,57.65,57.65,0,0,0,22.08,4.16A58.76,58.76,0,0,0,258,87.16l.1.09a81.09,81.09,0,0,1-15.91,132.83L204.64,239l-37.55-18.88a81.09,81.09,0,0,1-15.8-132.92h0c1.21.59,2.49,1.16,3.78,1.67a59.39,59.39,0,0,0,22,4,57.65,57.65,0,0,0,22.1-4.16A51.66,51.66,0,0,0,204.65,86m0-9.69-4.12,2.29a43.21,43.21,0,0,1-4.58,2.2,49.36,49.36,0,0,1-18.88,3.53A51.1,51.1,0,0,1,158.18,81c-1.09-.43-2.16-.91-3.18-1.4l-5.06-2.48-4.24,3.71a89.56,89.56,0,0,0,17.45,146.79l.06,0,.06,0,37.55,18.88,3.8,1.91,3.8-1.91L246,227.64l.06,0,.06,0A89.56,89.56,0,0,0,263.72,80.89l0,0,0,0-.1-.09-4.24-3.67-5,2.47a50,50,0,0,1-22.07,4.78,49.35,49.35,0,0,1-18.86-3.52,43.5,43.5,0,0,1-4.59-2.2l-4.12-2.29Z"/><path class="cls-4" d="M166,222.24a83.51,83.51,0,0,1-16.31-136.9l1.21-1.06,1.45.71c1.16.57,2.37,1.1,3.61,1.59a57.12,57.12,0,0,0,21.12,3.81,55.36,55.36,0,0,0,21.18-4,49.13,49.13,0,0,0,5.22-2.51l1.18-.66,1.18.66a49.65,49.65,0,0,0,5.23,2.51,55.37,55.37,0,0,0,21.16,4A56,56,0,0,0,257,85l1.44-.7,1.31,1.13a83.51,83.51,0,0,1-16.37,136.8l-38.71,19.44Z"/><path class="cls-2" d="M204.65,86a52,52,0,0,0,5.49,2.63,57.65,57.65,0,0,0,22.08,4.16A58.76,58.76,0,0,0,258,87.16l.1.09a81.09,81.09,0,0,1-15.91,132.83L204.64,239l-37.55-18.88a81.09,81.09,0,0,1-15.8-132.92h0c1.21.59,2.49,1.16,3.78,1.67a59.39,59.39,0,0,0,22,4,57.65,57.65,0,0,0,22.1-4.16A51.66,51.66,0,0,0,204.65,86m0-5.54-2.35,1.31a46.84,46.84,0,0,1-5,2.38A53,53,0,0,1,177.08,88a54.71,54.71,0,0,1-20.23-3.64c-1.18-.47-2.34-1-3.44-1.52l-2.89-1.42-2.42,2.12a85.93,85.93,0,0,0,16.75,140.84l0,0,0,0,37.55,18.88,2.17,1.09,2.17-1.09L244.4,224.4l0,0,0,0A85.93,85.93,0,0,0,261.32,83.61l-.13-.11-2.42-2.1-2.88,1.41A53.6,53.6,0,0,1,232.23,88,53,53,0,0,1,212,84.17a47.21,47.21,0,0,1-5-2.39l-2.35-1.31Z"/><path class="cls-1" d="M284.27,132.87a81,81,0,0,0-26.14-45.62l-.1-.09a58.76,58.76,0,0,1-25.8,5.65,57.65,57.65,0,0,1-22.08-4.16A52,52,0,0,1,204.65,86a51.61,51.61,0,0,1-5.48,2.63,57.65,57.65,0,0,1-22.1,4.16,59.39,59.39,0,0,1-22-4c-1.3-.52-2.57-1.08-3.78-1.67h0a81.09,81.09,0,0,0,15.81,132.92L204.64,239l37.59-18.88a81,81,0,0,0,42-87.21Z"/><g class="cls-5"><rect class="cls-6" x="125.79" y="188.67" width="160.29" height="24.87"/><polygon class="cls-7" points="183.52 247.63 246.65 199.21 309.77 247.63 246.65 296.05 183.52 247.63"/><path class="cls-1" d="M246.65,202.26l59.15,45.37L246.65,293,187.5,247.63l59.15-45.37m0-6.1-2.94,2.26-59.15,45.37-5,3.84,5,3.84,59.15,45.37,2.94,2.26,2.94-2.26,59.15-45.37,5-3.84-5-3.84-59.15-45.37-2.94-2.26Z"/><polygon class="cls-8" points="99.47 247.63 162.59 199.21 225.72 247.63 162.59 296.05 99.47 247.63"/><path class="cls-1" d="M162.59,202.26l59.15,45.37L162.59,293l-59.15-45.37,59.15-45.37m0-6.1-2.94,2.26L100.5,243.79l-5,3.84,5,3.84,59.15,45.37,2.94,2.26,2.94-2.26,59.15-45.37,5-3.84-5-3.84-59.15-45.37-2.94-2.26Z"/><polygon class="cls-9" points="141.61 234 204.73 185.58 267.86 234 204.73 282.42 141.61 234"/><path class="cls-1" d="M204.73,188.63,263.88,234l-59.15,45.37L145.58,234l59.15-45.37m0-6.1-2.94,2.26-59.15,45.37-5,3.84,5,3.84,59.15,45.37,2.94,2.26,2.94-2.26,59.15-45.37,5-3.84-5-3.84-59.15-45.37-2.94-2.26Z"/><path class="cls-10" d="M186.88,232.4c-4-5.34-1.25-11.55,4.51-15.46,10.63-7.23,32.13-6,33.31-10.79.38-1.52-.94-2.75-2.19-3.89-.89-.81,1.53-1.46,1.53-1.46l.83,2.47c1.11,1.2,2.16,3,1.7,4.49-1.87,5.94-21.92,5.62-23.66,13.87-1.36,6.45,7.45,10.47,18,11.4l-15.46,8Z"/></g><path class="cls-11" d="M186,118.88a1,1,0,0,0-.51.91v3.31a.67.67,0,0,0,.73.76h4v-1.56a.67.67,0,0,1,.73-.76h3.51a.67.67,0,0,1,.73.76v5.83a.67.67,0,0,1-.73.76H181.26a.67.67,0,0,1-.73-.76V116.9c0-.72.26-1,1-1.41l8.71-4.88V105a1.36,1.36,0,0,0-1.46-1.52H187A1.33,1.33,0,0,0,185.5,105v3a.55.55,0,0,1-.59.61h-3.81a.53.53,0,0,1-.59-.61v-4c0-3.58,1.83-5.49,5.27-5.49h4.1c3.4,0,5.27,1.9,5.27,5.49v9c0,.72-.29,1-1,1.41Z"/><path class="cls-11" d="M214.24,110.92a2.71,2.71,0,0,1-2.31,2.71v.08a2.71,2.71,0,0,1,2.31,2.71v7c0,3.58-1.87,5.49-5.31,5.49h-4.06c-3.44,0-5.31-1.9-5.31-5.49v-7a2.71,2.71,0,0,1,2.31-2.71v-.08a2.71,2.71,0,0,1-2.31-2.71v-7c0-3.58,1.87-5.49,5.31-5.49h4.06c3.44,0,5.31,1.9,5.31,5.49ZM209.37,105a1.33,1.33,0,0,0-1.46-1.52h-2a1.33,1.33,0,0,0-1.46,1.52v4.69a1.33,1.33,0,0,0,1.46,1.49h2a1.33,1.33,0,0,0,1.46-1.49Zm0,12.72a1.33,1.33,0,0,0-1.46-1.52h-2a1.33,1.33,0,0,0-1.46,1.52v4.65a1.33,1.33,0,0,0,1.46,1.52h2a1.33,1.33,0,0,0,1.46-1.52Z"/><path class="cls-11" d="M231.62,98.42a.67.67,0,0,1,.73.76v3.5a.67.67,0,0,1-.73.76h-8.23v6l8.71,2.86a.81.81,0,0,1,.62.84v10.44c0,3.47-1.79,5.33-5.12,5.33h-4.39c-3.33,0-5.12-1.87-5.12-5.33v-1.22a.67.67,0,0,1,.73-.76h3.51a.67.67,0,0,1,.73.76v1.52h4a.67.67,0,0,0,.73-.76v-7l-8.71-2.86a.81.81,0,0,1-.62-.84V99.18a.67.67,0,0,1,.73-.76Z"/><path class="cls-4" d="M184.27,117.14a1,1,0,0,0-.51.91v3.31a.67.67,0,0,0,.73.76h4v-1.56a.67.67,0,0,1,.73-.76h3.51a.67.67,0,0,1,.73.76v5.83a.67.67,0,0,1-.73.76H179.51a.67.67,0,0,1-.73-.76V115.15c0-.72.26-1,1-1.41l8.71-4.88v-5.64a1.36,1.36,0,0,0-1.46-1.52h-1.76a1.33,1.33,0,0,0-1.46,1.52v3a.55.55,0,0,1-.59.61h-3.81a.53.53,0,0,1-.59-.61v-4c0-3.58,1.83-5.49,5.27-5.49h4.1c3.4,0,5.27,1.9,5.27,5.49v9c0,.72-.29,1-1,1.41Z"/><path class="cls-4" d="M212.49,109.17a2.71,2.71,0,0,1-2.31,2.71V112a2.71,2.71,0,0,1,2.31,2.71v7c0,3.58-1.87,5.49-5.31,5.49h-4.06c-3.44,0-5.31-1.9-5.31-5.49v-7a2.71,2.71,0,0,1,2.31-2.71v-.08a2.71,2.71,0,0,1-2.31-2.71v-7c0-3.58,1.87-5.49,5.31-5.49h4.06c3.44,0,5.31,1.9,5.31,5.49Zm-4.87-5.94a1.33,1.33,0,0,0-1.46-1.52h-2a1.33,1.33,0,0,0-1.46,1.52v4.69a1.33,1.33,0,0,0,1.46,1.49h2a1.33,1.33,0,0,0,1.46-1.49Zm0,12.72a1.33,1.33,0,0,0-1.46-1.52h-2a1.33,1.33,0,0,0-1.46,1.52v4.65a1.33,1.33,0,0,0,1.46,1.52h2a1.33,1.33,0,0,0,1.46-1.52Z"/><path class="cls-4" d="M229.88,96.68a.67.67,0,0,1,.73.76v3.5a.67.67,0,0,1-.73.76h-8.23v6l8.71,2.86a.81.81,0,0,1,.62.84v10.44c0,3.47-1.79,5.33-5.12,5.33h-4.39c-3.33,0-5.12-1.87-5.12-5.33V120.6a.67.67,0,0,1,.73-.76h3.51a.67.67,0,0,1,.73.76v1.52h4a.67.67,0,0,0,.73-.76v-7l-8.71-2.86a.81.81,0,0,1-.62-.84V97.44a.67.67,0,0,1,.73-.76Z"/><path class="cls-11" d="M145.39,135.51c.3,0,.47.2.47.54v25.88c0,.34-.18.54-.47.54h-2.94a.52.52,0,0,1-.53-.44l-4.54-14.39h-.15v14.29c0,.34-.15.54-.47.54h-3.09c-.3,0-.47-.2-.47-.54V136c0-.34.18-.54.47-.54h2.94a.52.52,0,0,1,.53.44l4.51,14.32h.18V136c0-.34.15-.54.47-.54Z"/><path class="cls-11" d="M149,140.36c0-3.17,1.48-4.85,4.27-4.85h3.32c2.79,0,4.27,1.69,4.27,4.85v17.26c0,3.17-1.48,4.85-4.27,4.85h-3.32c-2.79,0-4.27-1.69-4.27-4.85Zm6.85,17.76c.77,0,1.19-.44,1.19-1.35V141.2c0-.88-.41-1.35-1.19-1.35h-1.72c-.77,0-1.19.47-1.19,1.35v15.57c0,.91.42,1.35,1.19,1.35Z"/><path class="cls-11" d="M176.14,148.58c0,2.26-.74,3.74-2.17,4.45l2,8.83c.09.4-.09.61-.42.61h-3.08c-.3,0-.45-.17-.5-.47l-2-8.56h-2v8.49c0,.34-.18.54-.47.54h-3.09c-.3,0-.47-.2-.47-.54V136c0-.34.18-.54.47-.54h7.45c2.79,0,4.27,1.69,4.27,4.85Zm-5.22.4c.77,0,1.19-.47,1.19-1.35V141.3c0-.88-.42-1.35-1.19-1.35H168v9Z"/><path class="cls-11" d="M179.25,136c0-.34.15-.54.47-.54h7.12c2.79,0,4.27,1.72,4.27,4.89v17.22c0,3.17-1.48,4.85-4.27,4.85h-7.12c-.33,0-.47-.17-.47-.54ZM186,158c.77,0,1.19-.44,1.19-1.35V141.34c0-.91-.42-1.38-1.19-1.38h-2.73V158Z"/><path class="cls-11" d="M197.78,135.51c.3,0,.47.2.47.54v25.88c0,.34-.18.54-.47.54H194.7c-.33,0-.47-.2-.47-.54V136c0-.34.15-.54.47-.54Z"/><path class="cls-11" d="M213.26,144c0,.34-.18.54-.47.54h-3c-.33,0-.47-.2-.47-.54v-2.7c0-.88-.42-1.35-1.19-1.35h-1.54c-.8,0-1.19.47-1.19,1.35v15.37c0,.91.42,1.35,1.19,1.35h1.54c.77,0,1.19-.44,1.19-1.35V154c0-.34.15-.54.47-.54h3c.3,0,.47.2.47.54v3.64c0,3.17-1.51,4.85-4.27,4.85h-3.32c-2.79,0-4.3-1.69-4.3-4.85V140.36c0-3.17,1.51-4.85,4.3-4.85H209c2.76,0,4.27,1.69,4.27,4.85Z"/><path class="cls-11" d="M235.83,144c0,.34-.18.54-.47.54h-3c-.33,0-.47-.2-.47-.54v-2.7c0-.88-.42-1.35-1.19-1.35h-1.54c-.8,0-1.19.47-1.19,1.35v15.37c0,.91.42,1.35,1.19,1.35h1.54c.77,0,1.19-.44,1.19-1.35V154c0-.34.15-.54.47-.54h3c.3,0,.47.2.47.54v3.64c0,3.17-1.51,4.85-4.27,4.85h-3.32c-2.79,0-4.3-1.69-4.3-4.85V140.36c0-3.17,1.51-4.85,4.3-4.85h3.32c2.76,0,4.27,1.69,4.27,4.85Z"/><path class="cls-11" d="M243,158H250c.33,0,.47.2.47.54v3.37c0,.37-.15.54-.47.54H239.42c-.3,0-.47-.17-.47-.54V136c0-.34.18-.54.47-.54h3.09c.33,0,.47.2.47.54Z"/><path class="cls-11" d="M264,135.51a.64.64,0,0,1,.59.67v21.44c0,3.17-1.48,4.85-4.27,4.85H257c-2.79,0-4.27-1.69-4.27-4.85V136.18a.64.64,0,0,1,.59-.67h2.85a.64.64,0,0,1,.59.67v20.49c0,.91.42,1.35,1.19,1.35h1.54c.77,0,1.19-.44,1.19-1.35V136.18a.64.64,0,0,1,.59-.67Z"/><path class="cls-11" d="M279.6,146.56a2.35,2.35,0,0,1-1.87,2.39V149a2.35,2.35,0,0,1,1.87,2.39v6.2c0,3.17-1.51,4.85-4.3,4.85h-7.12c-.3,0-.47-.2-.47-.54V136c0-.37.18-.54.47-.54h7.12c2.79,0,4.3,1.69,4.3,4.85Zm-3.94-5.26c0-.88-.39-1.35-1.19-1.35h-2.7v6.81h2.7c.77,0,1.19-.47,1.19-1.31Zm0,11.26c0-.88-.39-1.35-1.19-1.35h-2.7V158h2.7c.77,0,1.19-.44,1.19-1.35Z"/><path class="cls-4" d="M143.65,133.76c.3,0,.47.2.47.54v25.88c0,.34-.18.54-.47.54h-2.94a.52.52,0,0,1-.53-.44l-4.54-14.39h-.15v14.29c0,.34-.15.54-.47.54h-3.09c-.3,0-.47-.2-.47-.54V134.3c0-.34.18-.54.47-.54h2.94a.52.52,0,0,1,.53.44l4.51,14.32h.18V134.3c0-.34.15-.54.47-.54Z"/><path class="cls-4" d="M147.23,138.62c0-3.17,1.48-4.85,4.27-4.85h3.32c2.79,0,4.27,1.69,4.27,4.85v17.26c0,3.17-1.48,4.85-4.27,4.85H151.5c-2.79,0-4.27-1.69-4.27-4.85Zm6.85,17.76c.77,0,1.19-.44,1.19-1.35V139.46c0-.88-.41-1.35-1.19-1.35h-1.72c-.77,0-1.19.47-1.19,1.35V155c0,.91.42,1.35,1.19,1.35Z"/><path class="cls-4" d="M174.4,146.84c0,2.26-.74,3.74-2.17,4.45l2,8.83c.09.4-.09.61-.42.61h-3.08c-.3,0-.45-.17-.5-.47l-2-8.56h-2v8.49c0,.34-.18.54-.47.54h-3.09c-.3,0-.47-.2-.47-.54V134.3c0-.34.18-.54.47-.54h7.45c2.79,0,4.27,1.69,4.27,4.85Zm-5.22.4c.77,0,1.19-.47,1.19-1.35v-6.34c0-.88-.42-1.35-1.19-1.35h-2.94v9Z"/><path class="cls-4" d="M177.51,134.3c0-.34.15-.54.47-.54h7.12c2.79,0,4.27,1.72,4.27,4.89v17.22c0,3.17-1.48,4.85-4.27,4.85H178c-.33,0-.47-.17-.47-.54Zm6.76,22c.77,0,1.19-.44,1.19-1.35V139.59c0-.91-.42-1.38-1.19-1.38h-2.73v18.07Z"/><path class="cls-4" d="M196,133.76c.3,0,.47.2.47.54v25.88c0,.34-.18.54-.47.54H193c-.33,0-.47-.2-.47-.54V134.3c0-.34.15-.54.47-.54Z"/><path class="cls-4" d="M211.52,142.26c0,.34-.18.54-.47.54h-3c-.33,0-.47-.2-.47-.54v-2.7c0-.88-.42-1.35-1.19-1.35h-1.54c-.8,0-1.19.47-1.19,1.35v15.37c0,.91.42,1.35,1.19,1.35h1.54c.77,0,1.19-.44,1.19-1.35v-2.7c0-.34.15-.54.47-.54h3c.3,0,.47.2.47.54v3.64c0,3.17-1.51,4.85-4.27,4.85h-3.32c-2.79,0-4.3-1.69-4.3-4.85V138.62c0-3.17,1.51-4.85,4.3-4.85h3.32c2.76,0,4.27,1.69,4.27,4.85Z"/><path class="cls-4" d="M234.09,142.26c0,.34-.18.54-.47.54h-3c-.33,0-.47-.2-.47-.54v-2.7c0-.88-.42-1.35-1.19-1.35h-1.54c-.8,0-1.19.47-1.19,1.35v15.37c0,.91.42,1.35,1.19,1.35H229c.77,0,1.19-.44,1.19-1.35v-2.7c0-.34.15-.54.47-.54h3c.3,0,.47.2.47.54v3.64c0,3.17-1.51,4.85-4.27,4.85h-3.32c-2.79,0-4.3-1.69-4.3-4.85V138.62c0-3.17,1.51-4.85,4.3-4.85h3.32c2.76,0,4.27,1.69,4.27,4.85Z"/><path class="cls-4" d="M241.23,156.28h7.06c.33,0,.47.2.47.54v3.37c0,.37-.15.54-.47.54H237.67c-.3,0-.47-.17-.47-.54V134.3c0-.34.18-.54.47-.54h3.09c.33,0,.47.2.47.54Z"/><path class="cls-4" d="M262.26,133.76a.64.64,0,0,1,.59.67v21.44c0,3.17-1.48,4.85-4.27,4.85h-3.32c-2.79,0-4.27-1.69-4.27-4.85V134.44a.64.64,0,0,1,.59-.67h2.85a.64.64,0,0,1,.59.67v20.49c0,.91.42,1.35,1.19,1.35h1.54c.77,0,1.19-.44,1.19-1.35V134.44a.64.64,0,0,1,.59-.67Z"/><path class="cls-4" d="M277.86,144.82a2.35,2.35,0,0,1-1.87,2.39v.07a2.35,2.35,0,0,1,1.87,2.39v6.2c0,3.17-1.51,4.85-4.3,4.85h-7.12c-.3,0-.47-.2-.47-.54V134.3c0-.37.18-.54.47-.54h7.12c2.79,0,4.3,1.69,4.3,4.85Zm-3.94-5.26c0-.88-.39-1.35-1.19-1.35H270V145h2.7c.77,0,1.19-.47,1.19-1.31Zm0,11.26c0-.88-.39-1.35-1.19-1.35H270v6.81h2.7c.77,0,1.19-.44,1.19-1.35Z"/><path class="cls-12" d="M150.17,171.67a.89.89,0,0,1-.77.87v0a.89.89,0,0,1,.77.87v2.26a1.59,1.59,0,0,1-1.78,1.77h-2.95a.18.18,0,0,1-.2-.2v-9.44a.18.18,0,0,1,.2-.2h2.95a1.59,1.59,0,0,1,1.78,1.77Zm-1.63-1.92a.44.44,0,0,0-.49-.49h-1.12v2.48H148a.44.44,0,0,0,.49-.48Zm0,4.11a.44.44,0,0,0-.49-.49h-1.12v2.48H148a.44.44,0,0,0,.49-.49Z"/><path class="cls-12" d="M156.62,167.64a.18.18,0,0,1,.2.2v9.44a.18.18,0,0,1-.2.2h-1.28a.18.18,0,0,1-.2-.2v-9.44a.18.18,0,0,1,.2-.2Z"/><path class="cls-12" d="M165.76,177.47a.27.27,0,0,1-.28-.18l-1.55-3.65-.45.87v2.72a.22.22,0,0,1-.25.25H162a.22.22,0,0,1-.25-.25v-9.34a.22.22,0,0,1,.25-.25h1.18a.22.22,0,0,1,.25.25v3.81l1.89-3.87a.29.29,0,0,1,.28-.18h1.29c.18,0,.26.12.17.3L165,172.22l2.22,5c.09.16,0,.28-.18.28Z"/><path class="cls-12" d="M176.8,169.06c0,.12,0,.21-.2.21h-3.07v2.46h2.35a.18.18,0,0,1,.2.21v1.22a.19.19,0,0,1-.2.21h-2.35v2.48h3.07c.15,0,.2.06.2.2v1.23c0,.12,0,.2-.2.2h-4.52a.18.18,0,0,1-.18-.2v-9.44a.18.18,0,0,1,.18-.2h4.52c.15,0,.2.07.2.2Z"/><path class="cls-12" d="M195.88,167.64a1.58,1.58,0,0,1,1.77,1.77v1.3a.18.18,0,0,1-.2.2h-1.28a.18.18,0,0,1-.2-.2v-1a.44.44,0,0,0-.49-.49h-.59a.45.45,0,0,0-.49.49v1.7l2.92,1a.45.45,0,0,1,.32.45v2.84a1.59,1.59,0,0,1-1.77,1.77H194.5a1.59,1.59,0,0,1-1.77-1.77v-1.29a.18.18,0,0,1,.2-.2h1.28c.14,0,.2.06.2.2v.95a.44.44,0,0,0,.49.49h.59a.44.44,0,0,0,.49-.49v-1.63l-2.91-1a.44.44,0,0,1-.33-.46v-2.9a1.59,1.59,0,0,1,1.77-1.77Z"/><path class="cls-12" d="M206.59,177.47a.27.27,0,0,1-.28-.18l-1.55-3.65-.45.87v2.72a.22.22,0,0,1-.25.25h-1.18a.22.22,0,0,1-.25-.25v-9.34a.22.22,0,0,1,.25-.25h1.18a.22.22,0,0,1,.25.25v3.81l1.89-3.87a.29.29,0,0,1,.28-.18h1.29c.18,0,.26.12.17.3l-2.09,4.29,2.22,5c.09.16,0,.28-.18.28Z"/><path class="cls-12" d="M214.45,167.64a.18.18,0,0,1,.2.2v9.44a.18.18,0,0,1-.2.2h-1.28a.18.18,0,0,1-.2-.2v-9.44a.18.18,0,0,1,.2-.2Z"/><path class="cls-12" d="M234.08,167.64a1.59,1.59,0,0,1,1.77,1.77v1.3a.18.18,0,0,1-.2.2h-1.28a.18.18,0,0,1-.2-.2v-1a.44.44,0,0,0-.49-.49h-.59a.45.45,0,0,0-.49.49v1.7l2.92,1a.45.45,0,0,1,.32.45v2.84a1.59,1.59,0,0,1-1.77,1.77h-1.38a1.59,1.59,0,0,1-1.77-1.77v-1.29a.18.18,0,0,1,.2-.2h1.28c.14,0,.2.06.2.2v.95a.44.44,0,0,0,.49.49h.59a.44.44,0,0,0,.49-.49v-1.63l-2.91-1a.44.44,0,0,1-.33-.46v-2.9a1.59,1.59,0,0,1,1.77-1.77Z"/><path class="cls-12" d="M243.34,167.83a.18.18,0,0,1,.2-.2h1.27c.15,0,.21.07.21.2v9.44c0,.12-.06.2-.21.2h-1.27a.18.18,0,0,1-.2-.2v-3.91h-1.57v3.91a.18.18,0,0,1-.2.2h-1.27c-.15,0-.21-.07-.21-.2v-9.44c0-.12.06-.2.21-.2h1.27a.18.18,0,0,1,.2.2v3.91h1.57Z"/><path class="cls-12" d="M249.26,169.41a1.59,1.59,0,0,1,1.77-1.77h1.38a1.59,1.59,0,0,1,1.77,1.77v6.29a1.59,1.59,0,0,1-1.77,1.77H251a1.59,1.59,0,0,1-1.77-1.77Zm2.84,6.48a.44.44,0,0,0,.49-.49v-5.68a.44.44,0,0,0-.49-.49h-.71a.44.44,0,0,0-.49.49v5.68a.44.44,0,0,0,.49.49Z"/><path class="cls-12" d="M263.33,169.06c0,.12,0,.21-.2.21h-3.07v2.46h2.35a.18.18,0,0,1,.2.21v1.22a.19.19,0,0,1-.2.21h-2.35v2.48h3.07c.15,0,.2.06.2.2v1.23c0,.12,0,.2-.2.2h-4.52a.18.18,0,0,1-.18-.2v-9.44a.18.18,0,0,1,.18-.2h4.52c.15,0,.2.07.2.2Z"/><path class="cls-13" d="M187.39,173.53l-.2-.76-.08,0a2.17,2.17,0,0,1-1.65-.22l-.09,0h0a2.17,2.17,0,0,1,1.65-.22l.17,0,.2-.76-.7-.19,0-.07.19-.7-.76-.2,0,.07a2.17,2.17,0,0,1-1,1.32l-.06,0v-.1a2.17,2.17,0,0,1,.64-1.53l.1-.1-.53-.53-.56.56h0l-.56-.56-.53.53.07.07a2.17,2.17,0,0,1,.64,1.53v.12l-.12-.07a2.17,2.17,0,0,1-1-1.32l0-.08-.73.2.21.78v0l-.78.21.2.73.15,0a2.17,2.17,0,0,1,1.65.22l.08,0-.16.09a2.17,2.17,0,0,1-1.65.22l-.07,0-.2.73.79.21-.21.79.73.2,0-.17a2.17,2.17,0,0,1,1-1.32l.1-.06v.09a2.17,2.17,0,0,1-.64,1.53l-.07.07.56.56.56-.56.56.56.56-.56-.1-.1a2.17,2.17,0,0,1-.64-1.53v-.07l0,0a2.17,2.17,0,0,1,1,1.32l0,.15.76-.2-.2-.75h0Z"/><path class="cls-13" d="M225.74,173.53l-.2-.76-.08,0a2.17,2.17,0,0,1-1.65-.22l-.09,0h0a2.17,2.17,0,0,1,1.65-.22l.17,0,.2-.76-.7-.19,0-.07.19-.7-.76-.2,0,.07a2.17,2.17,0,0,1-1,1.32l-.06,0v-.1a2.17,2.17,0,0,1,.64-1.53l.1-.1-.53-.53-.56.56h0l-.56-.56-.53.53.07.07a2.17,2.17,0,0,1,.64,1.53v.12l-.12-.07a2.17,2.17,0,0,1-1-1.32l0-.08-.73.2.21.78v0l-.78.21.2.73.15,0a2.17,2.17,0,0,1,1.65.22l.08,0-.16.09a2.17,2.17,0,0,1-1.65.22l-.07,0-.2.73.79.21-.21.79.73.2,0-.17a2.17,2.17,0,0,1,1-1.32l.1-.06v.09a2.17,2.17,0,0,1-.64,1.53l-.07.07.56.56.56-.56.56.56.56-.56-.1-.1a2.17,2.17,0,0,1-.64-1.53v-.07l0,0a2.17,2.17,0,0,1,1,1.32l0,.15.76-.2-.2-.75h0Z"/><polygon class="cls-12" points="238.25 105.78 263.97 107.2 238.25 108.63 238.25 105.78"/><polygon class="cls-12" points="238.25 109.91 268.96 111.33 238.25 112.76 238.25 109.91"/><polygon class="cls-12" points="238.25 114.04 272.43 115.47 238.25 116.89 238.25 114.04"/><polygon class="cls-12" points="171.66 105.78 145.94 107.2 171.66 108.63 171.66 105.78"/><polygon class="cls-12" points="171.66 109.91 140.95 111.33 171.66 112.76 171.66 109.91"/><polygon class="cls-12" points="171.66 114.04 137.49 115.47 171.66 116.89 171.66 114.04"/></svg>