<svg id="Layer_1" data-name="Layer 1" xmlns="http://www.w3.org/2000/svg" xmlns:xlink="http://www.w3.org/1999/xlink" viewBox="0 0 410 300"><defs><style>.cls-1{fill:#0061aa;}.cls-2{fill:#fff;}.cls-3{fill:#5087c7;}.cls-4{fill:url(#linear-gradient);}.cls-5{fill:#a6ce39;}</style><linearGradient id="linear-gradient" x1="190.33" y1="95.71" x2="190.33" y2="133.01" gradientUnits="userSpaceOnUse"><stop offset="0" stop-color="#5087c7"/><stop offset="0.15" stop-color="#4682c3"/><stop offset="0.42" stop-color="#2b75ba"/><stop offset="0.75" stop-color="#0061aa"/></linearGradient></defs><title>identities</title><path class="cls-1" d="M269.83,88.07,255.56,98.38,203.79,61h0L152,98.38,137.76,88.07l-47.5,34.3v98.2a12.31,12.31,0,0,0,12.31,12.31H304.8a12.31,12.31,0,0,0,12.31-12.31V122.21Z"/><polygon class="cls-2" points="119.22 207.15 122.25 202.14 123.35 202.14 123.35 201.06 120.29 201.06 120.29 202.14 120.96 202.14 118.6 206.08 116.24 202.14 116.92 202.14 116.92 201.06 113.88 201.06 113.88 202.14 114.94 202.14 117.98 207.15 117.98 212.21 116.99 212.21 116.99 213.29 120.21 213.29 120.21 212.21 119.22 212.21 119.22 207.15"/><path class="cls-2" d="M128.93,200.93a6.28,6.28,0,1,0,6.7,6.26A6.49,6.49,0,0,0,128.93,200.93Zm0,11.35a5.1,5.1,0,1,1,5.47-5.09A5.29,5.29,0,0,1,128.93,212.28Z"/><path class="cls-2" d="M142.36,202.12h1.08v8c0,1.54-1.42,2.08-2.63,2.08s-2.63-.55-2.63-2.08v-8h1.1v-1.06h-3.43v1.06h1.1v8c0,2.28,2,3.33,3.86,3.33s3.86-1,3.86-3.33v-8h1.08v-1.06h-3.4Z"/><path class="cls-2" d="M150.91,208h.58a3.46,3.46,0,1,0,0-6.9h-4.66v1.08h1.26v10.07h-1.26v1.08h3.73v-1.08H149.3V208h0l4.58,5.33H156v-1.08h-1.47Zm.65-1.08h-2.24v-4.75h2.24a2.37,2.37,0,0,1,0,4.75Z"/><path class="cls-2" d="M162.89,212.48c-.51,0-.7-.21-.7-.77v-6.38h1.72v-1h-1.72v-2.59h-1.11v2.59h-1v1h1v6.46a1.58,1.58,0,0,0,1.7,1.73,2.69,2.69,0,0,0,1.25-.28l.11-.05v-1.12l-.28.15A2.06,2.06,0,0,1,162.89,212.48Z"/><path class="cls-2" d="M172.58,207.31c0-1.88-1.5-3.14-3.72-3.14a4.76,4.76,0,0,0-3.15,1.08l-.13.12.66.85.15-.14a3.77,3.77,0,0,1,2.46-.85,2.37,2.37,0,0,1,2.63,2.23v.45a4.23,4.23,0,0,0-3.06-1.08c-2.51,0-3.83,1.66-3.83,3.31s1.3,3.33,3.79,3.33a4.29,4.29,0,0,0,3.09-1v.88h2.4v-1h-1.31Zm-4.15,5.09c-1.87,0-2.72-1.17-2.72-2.27s.85-2.27,2.72-2.27,2.92,1.17,2.92,2.27S170.43,212.4,168.43,212.4Z"/><polygon class="cls-2" points="179.24 205.33 180.05 205.33 178.37 207.98 176.72 205.33 177.48 205.33 177.48 204.37 174.57 204.37 174.57 205.33 175.54 205.33 177.74 208.95 175.62 212.31 174.59 212.31 174.59 213.29 177.58 213.29 177.58 212.31 176.79 212.31 178.34 209.81 179.97 212.31 179.12 212.31 179.12 213.29 182.13 213.29 182.13 212.31 181.22 212.31 178.91 208.88 181.24 205.33 182.16 205.33 182.16 204.37 179.24 204.37 179.24 205.33"/><path class="cls-2" d="M194.85,200.47h-2.4v1h1.3v4.14a3.83,3.83,0,0,0-3.2-1.47c-2.94,0-4.25,2.35-4.25,4.67s1.32,4.69,4.25,4.69a3.92,3.92,0,0,0,3.2-1.42v1.24h2.19v-1h-1.08Zm-4.31,11.95c-2.16,0-3.15-1.88-3.15-3.63s1-3.63,3.15-3.63,3.2,1.88,3.2,3.63S192.74,212.41,190.55,212.41Z"/><path class="cls-2" d="M200.75,204.12a4.68,4.68,0,1,0,4.54,4.69A4.52,4.52,0,0,0,200.75,204.12Zm0,8.3a3.62,3.62,0,1,1,3.43-3.61A3.38,3.38,0,0,1,200.75,212.41Z"/><polygon class="cls-2" points="207.74 200.47 205.55 200.47 205.55 201.44 206.63 201.44 206.63 212.31 205.55 212.31 205.55 213.29 208.82 213.29 208.82 212.31 207.74 212.31 207.74 200.47"/><polygon class="cls-2" points="211.66 200.47 209.47 200.47 209.47 201.44 210.56 201.44 210.56 212.31 209.47 212.31 209.47 213.29 212.75 213.29 212.75 212.31 211.66 212.31 211.66 200.47"/><path class="cls-2" d="M221,207.31c0-1.88-1.5-3.14-3.72-3.14a4.76,4.76,0,0,0-3.15,1.08l-.13.12.66.85.15-.14a3.77,3.77,0,0,1,2.46-.85,2.37,2.37,0,0,1,2.63,2.23v.45a4.23,4.23,0,0,0-3.06-1.08c-2.51,0-3.83,1.66-3.83,3.31s1.3,3.33,3.79,3.33a4.29,4.29,0,0,0,3.09-1v.88h2.4v-1H221Zm-4.15,5.09c-1.87,0-2.72-1.17-2.72-2.27s.85-2.27,2.72-2.27,2.92,1.17,2.92,2.27S218.89,212.4,216.89,212.4Z"/><path class="cls-2" d="M226.47,204.28a2,2,0,0,0-1.44.52v-.44h-2.19v1h1.08v7h-1.08v1h3.27v-1H225v-5.58a1.41,1.41,0,0,1,1.44-1.4,1.47,1.47,0,0,1,1,.37l.15.14.64-.86-.14-.11A2.39,2.39,0,0,0,226.47,204.28Z"/><path class="cls-2" d="M231.74,208c-1.35-.33-1.81-.72-1.81-1.52s.9-1.39,1.8-1.39a3,3,0,0,1,2,.74v.73h1v-2.35h-1v.39a3.79,3.79,0,0,0-2-.5c-1.68,0-2.91,1-2.91,2.38,0,1.74,1.51,2.31,2.83,2.61s2.18.7,2.18,1.64c0,1.17-1.08,1.59-2.1,1.59a3.45,3.45,0,0,1-2.14-.73v-.94h-1v2.64h1v-.44a4.21,4.21,0,0,0,2.14.54c1.91,0,3.19-1.06,3.19-2.65C234.92,209,233.35,208.42,231.74,208Z"/><path class="cls-2" d="M247.47,207.31c0-1.88-1.5-3.14-3.72-3.14a4.76,4.76,0,0,0-3.15,1.08l-.13.12.66.85.15-.14a3.77,3.77,0,0,1,2.46-.85,2.37,2.37,0,0,1,2.63,2.23v.45a4.23,4.23,0,0,0-3.06-1.08c-2.51,0-3.83,1.66-3.83,3.31s1.3,3.33,3.79,3.33a4.29,4.29,0,0,0,3.09-1v.88h2.4v-1h-1.31Zm-4.15,5.09c-1.87,0-2.72-1.17-2.72-2.27s.85-2.27,2.72-2.27,2.92,1.17,2.92,2.27S245.32,212.4,243.32,212.4Z"/><path class="cls-2" d="M251.54,212.48c-.51,0-.7-.21-.7-.77v-6.38h1.72v-1h-1.72v-2.59h-1.11v2.59h-1v1h1v6.46a1.58,1.58,0,0,0,1.7,1.73,2.69,2.69,0,0,0,1.25-.28l.11-.05v-1.12l-.28.15A2.06,2.06,0,0,1,251.54,212.48Z"/><polygon class="cls-2" points="266.47 205.33 267.2 205.33 265.38 210.83 263.18 204.37 262.71 204.37 260.62 210.84 258.61 205.33 259.34 205.33 259.34 204.37 256.71 204.37 256.71 205.33 257.48 205.33 260.35 213.29 260.84 213.29 262.94 206.86 265.12 213.29 265.63 213.29 268.32 205.33 269.11 205.33 269.11 204.37 266.47 204.37 266.47 205.33"/><path class="cls-2" d="M273.66,204.12a4.68,4.68,0,1,0,4.54,4.69A4.52,4.52,0,0,0,273.66,204.12Zm0,8.3a3.62,3.62,0,1,1,3.43-3.61A3.38,3.38,0,0,1,273.66,212.41Z"/><path class="cls-2" d="M282.48,204.28a2,2,0,0,0-1.44.52v-.44h-2.19v1h1.08v7h-1.08v1h3.27v-1H281v-5.58a1.41,1.41,0,0,1,1.44-1.4,1.47,1.47,0,0,1,1,.37l.15.14.64-.86-.14-.11A2.39,2.39,0,0,0,282.48,204.28Z"/><polygon class="cls-2" points="291.59 212.31 287.44 208.39 290.72 205.33 292.08 205.33 292.08 204.37 288.06 204.37 288.06 205.33 289.21 205.33 286.52 207.84 286.52 200.47 284.33 200.47 284.33 201.44 285.41 201.44 285.41 212.31 284.33 212.31 284.33 213.29 287.61 213.29 287.61 212.31 286.52 212.31 286.52 209.14 286.61 209.06 290.09 212.31 289.19 212.31 289.19 213.29 292.66 213.29 292.66 212.31 291.59 212.31"/><polygon class="cls-3" points="269.83 88.07 255.56 98.38 203.79 60.96 203.78 60.95 203.78 60.96 152.03 98.38 137.76 88.07 90.25 122.37 90.25 130.86 137.76 96.56 152.03 106.87 203.78 69.45 203.78 69.44 203.78 69.44 203.79 69.44 203.79 69.45 255.56 106.87 269.83 96.56 317.11 130.7 317.11 122.21 269.83 88.07"/><path class="cls-4" d="M200.35,65.42c7.54,7.93,15,18.45-12.36,40-9.13,7.2-37.46,28.27-37.46,28.27h66.83C252.79,100,203.62,67.51,200.35,65.42Z"/><path class="cls-2" d="M138.36,162.65v-7.86h3.34l-1.39-3.34H129.42l-1.13,3.24h4.11v8H114.26v-8.94h3.6l9.46-23.23h-3.75V121.7h15.88l13.16,32h4.26v8.94Zm-3.49-28.57-3.08,9.3h6.06Z"/><path class="cls-2" d="M175.26,149.5h-4.57v4.21H174v8.94H155.89v-8.94h4.21V130.48h-4.21V121.7h18.5c10.33,0,15.16,6.12,15,14.13C189.29,143.43,184.51,149.5,175.26,149.5Zm-1.39-18.55h-3.34v9.35h2.36c3,0,6.58-1,6.32-4.73C179.07,132.38,176.6,130.95,173.87,130.95Z"/><path class="cls-2" d="M212.11,135V131.1h-6.84v5.7h9.35v9.71h-9.35v6.84h6.84v-5h9.82v14.29h-31.4v-8.94h3.85V130.48h-3.85V121.7h31.55V135Z"/><path class="cls-2" d="M247.62,162.65v-8.84h2.62l-4.63-5.09-4.21,5.19h2.41v8.74H224.91v-8.94h3.85l10.74-12-9.61-11.25h-4V121.7h18.4V130H242l4,4.47,3.75-4.47h-2.11V121.7h18.5v8.79h-3.6L252.3,141.63l9.87,12.08h4.11v8.94Z"/><path class="cls-5" d="M276.47,168.36V121.68h16v46.68Zm0,22.72V175.3h16v15.77Z"/><path class="cls-5" d="M126.35,191.07l-5.06-7v2.51h1.17v4.51h-8.64v-4.51h2.13V174.84h-2.13V170.4h9.34c5.47,0,8.27,2.88,8.27,7.18,0,4-2.26,5.76-4.2,6.09l2.33,2.88h2.18v4.51Zm-3.45-16h-1.69v5.57h1.5c1.61,0,3.53-.52,3.53-2.72C126.19,175.36,124.17,175.1,122.9,175.07Z"/><path class="cls-5" d="M145.74,177.1v-1.95h-3.45V178H147v4.9h-4.72v3.45h3.45v-2.52h5v7.21H134.85v-4.51h1.95V174.84h-1.95V170.4h15.92v6.69Z"/><path class="cls-5" d="M173.67,174.84v16.23h-4.82L161,180v6.54h2v4.51h-9.13v-4.51h1.95V174.84H153.8V170.4h6.56l8.09,11.39v-6.95h-2.18V170.4h9.34v4.44Z"/><path class="cls-5" d="M189.69,177.1v-1.95h-3.45V178H191v4.9h-4.72v3.45h3.45v-2.52h5v7.21H178.8v-4.51h1.95V174.84H178.8V170.4h15.92v6.69Z"/><path class="cls-5" d="M224.41,174.84l-4.33,16.23h-4.56l-3.27-11.28L209,191.07h-4.67l-4.67-16.23H198V170.4h9.26v4.44h-2.13l1.82,7L210,170.4h4.33l3.4,11.36,1.58-6.92h-1.95V170.4h9.1v4.44Z"/><path class="cls-5" d="M240.59,177.1v-1.95h-3.45V178h4.72v4.9h-4.72v3.45h3.45v-2.52h5v7.21H229.7v-4.51h1.95V174.84H229.7V170.4h15.92v6.69Z"/><path class="cls-5" d="M259.39,191.07H248.86v-4.51h1.95V174.84h-1.95V170.4h10.63c6.3,0,9.8,4.62,9.93,10.06C269.53,186.14,266.05,191.07,259.39,191.07Zm-1.14-16h-1.82v11.18h3.22c3,0,4.46-2.67,4.51-5.39C264.21,177.66,262.34,175.1,258.24,175.07Z"/></svg>