<svg id="Layer_1" data-name="Layer 1" xmlns="http://www.w3.org/2000/svg" xmlns:xlink="http://www.w3.org/1999/xlink" viewBox="0 0 410 300"><defs><style>.cls-1{fill:#005099;}.cls-2{fill:url(#Water_Drop_Grad_3);}.cls-3{fill:url(#Water_Drop_Grad_3-2);}.cls-4{fill:url(#Water_Drop_Grad_2);}.cls-5{fill:url(#Water_Drop_Grad_3-3);}.cls-6{fill:url(#Water_Drop_Grad_2-2);}.cls-7{fill:#fff;}.cls-8{fill:#fcb813;}</style><radialGradient id="Water_Drop_Grad_3" cx="250.52" cy="-103.42" r="15.97" gradientTransform="translate(-25 214.5)" gradientUnits="userSpaceOnUse"><stop offset="0" stop-color="#005099"/><stop offset="0.3" stop-color="#005099"/><stop offset="0.57" stop-color="#006fb2"/><stop offset="0.84" stop-color="#0087c6"/><stop offset="1" stop-color="#0090cd"/></radialGradient><radialGradient id="Water_Drop_Grad_3-2" cx="216.68" cy="-85.58" r="26.33" xlink:href="#Water_Drop_Grad_3"/><radialGradient id="Water_Drop_Grad_2" cx="240.5" cy="-100.23" r="10.73" gradientTransform="translate(-25 214.5)" gradientUnits="userSpaceOnUse"><stop offset="0" stop-color="#0090cd"/><stop offset="0.3" stop-color="#0090cd"/><stop offset="0.57" stop-color="#0071b4"/><stop offset="0.84" stop-color="#0059a0"/><stop offset="1" stop-color="#005099"/></radialGradient><radialGradient id="Water_Drop_Grad_3-3" cx="96.33" cy="-20.81" r="11.91" gradientTransform="translate(99.3 125.99) rotate(-1.38)" xlink:href="#Water_Drop_Grad_3"/><radialGradient id="Water_Drop_Grad_2-2" cx="237.66" cy="-88.8" r="6.64" xlink:href="#Water_Drop_Grad_2"/></defs><title>identities</title><path class="cls-1" d="M107.56,113.69c-2.52.2-4.1,1.76-5,4.18L88.23,157.18H86.29L74.23,126.62h-.5L60.65,157.18h-2L43.41,117.87c-1.22-3.13-1.94-3.79-5-4.18v-1.63H59.57v1.63c-2.59.2-4.6.33-4.6,2.74a5.88,5.88,0,0,0,.5,2.15L64,142.16h.14l8.41-19.92L70.06,116c-.93-1.44-1.72-2.16-5.17-2.29v-1.63H87.3v1.63c-3.09.2-5.17.26-5.17,2.48a15.78,15.78,0,0,0,1,3.59l7.69,21.74H91l8-22.2a7.36,7.36,0,0,0,.5-2.74c0-2.68-2.51-2.74-5-2.88v-1.63h13.07Z"/><path class="cls-1" d="M130.68,153.39a10.76,10.76,0,0,1-7.9,3.72c-5,0-5.6-2.74-6-4.57a17.11,17.11,0,0,1-11.42,4.57c-3.45,0-7.9-2-7.9-7,0-6.79,9.12-9.4,19.32-12.21v-4.77c0-3.33-1-5.75-6.32-5.75-2.59,0-4.24,1.31-4.24,2.35,0,1.37,2.16,1.89,2.16,4.44,0,1.17-1.08,3.66-4.82,3.66-.86,0-4.74,0-4.74-4.44,0-4.11,4.52-8.1,13.43-8.1,8,0,14.37,2.81,14.37,8.95v17a1.43,1.43,0,0,0,1.58,1.63,1,1,0,0,0,.72-.26l.72-.66Zm-14-13.19c-1.65.33-8.76,2.22-8.76,7.9,0,2,1.08,4.37,3.66,4.37s4.09-1.76,5.1-2.81Z"/><path class="cls-1" d="M147.7,129H141v19.66c0,1-.07,3.72,2.8,3.72,2.08,0,3.3-2,4.1-3.4l1.79.72c-1.51,2.81-4.1,7.31-10.56,7.31-7.76,0-8-5.49-8.12-6.86V129h-3.74v-1.76a59.17,59.17,0,0,0,11.93-12.15H141v11h6.75Z"/><path class="cls-1" d="M175.32,149c-4.38,6.07-8.48,8.16-14.22,8.16-7.25,0-14.58-4.83-14.58-16,0-9.66,6.54-15.8,14.8-15.8,12.5,0,13.43,11.36,13.65,14.89h-18.1c.21,5.55,1.8,12.21,8.62,12.21,4.24,0,6.75-2.87,8.12-4.37Zm-9.19-11.17c-.07-2-.07-5.42-.65-7.38a3.79,3.79,0,0,0-3.88-3.07c-2.66,0-5.1,1.44-5.1,10.45Z"/><path class="cls-1" d="M192,156.2H172.94v-1.57c2.3-.39,3.88-.65,3.88-3.92v-19.2c0-3.26-1.72-3.59-3.88-3.85V126.1h13.58v5.16h.14c1.51-2,4.74-5.94,9.41-5.94,4.89,0,6,3.52,6,5.09a4.25,4.25,0,0,1-4.6,4.38c-4.17,0-4.1-3.85-6.4-3.85-1.08,0-4.24,1.44-4.24,6.2v12.34c0,4,.86,5,5.24,5.16Z"/><path class="cls-1" d="M286.46,125.32c9.41,0,16.16,6.86,16.16,15.93,0,8.69-6.4,15.87-16.16,15.87-10,0-16.23-7.38-16.23-15.87S276.47,125.32,286.46,125.32Zm.07,29.78c5,0,5.53-5.55,5.53-13.84,0-10.05-1.22-13.91-5.6-13.91-5.31,0-5.67,6.47-5.67,13.91C280.78,148.3,280.78,155.09,286.53,155.09Z"/><path class="cls-1" d="M319,156.2H299.91v-1.57c2.3-.39,3.88-.65,3.88-3.92v-19.2c0-3.26-1.72-3.59-3.88-3.85V126.1h13.58v5.16h.14c1.51-2,4.74-5.94,9.41-5.94,4.88,0,6,3.52,6,5.09a4.25,4.25,0,0,1-4.6,4.38c-4.16,0-4.1-3.85-6.39-3.85-1.08,0-4.23,1.44-4.23,6.2v12.34c0,4,.86,5,5.24,5.16Z"/><path class="cls-1" d="M343.45,156.2H326.28v-1.57c2.87,0,3.66-2.35,3.66-3.92v-33.3a3.47,3.47,0,0,0-3.66-3.79v-1.57h13.65v38.66c0,1.89.72,3.92,3.52,3.92Z"/><path class="cls-1" d="M377.79,154.9c-8.91,1-9.55,1-14,2.15v-4.24c-2.59,2.48-4.6,4.31-10,4.31-6,0-12.57-5.49-12.57-15,0-11.36,7.11-16.78,13.86-16.78,4.31,0,6.75,2.35,8.48,4v-12c0-3.46-1.51-3.53-5.46-3.79v-1.57h15.45v37.55c0,1.76.14,3.66,4.24,3.79ZM363.56,133c0-.06-1.58-4-5.6-4-5.1,0-6.11,5.88-6.11,12.21,0,3.79,0,12.28,5.75,12.28,3.3,0,6-3.85,6-4.57Z"/><path class="cls-1" d="M268,112.06v1.63c2.44.13,5,.2,5,2.88a7.43,7.43,0,0,1-.5,2.74l-8,22.2h-.14l-7.69-21.74a15.75,15.75,0,0,1-1-3.59c0-2.22,2.08-2.28,5.18-2.48v-1.63H238.4v1.63c3.45.13,4.24.85,5.17,2.29l2.51,6.27-8.41,19.92h-.14L229,118.59a5.91,5.91,0,0,1-.5-2.15c0-2.42,2-2.55,4.59-2.74v-1.63H223.2a7.28,7.28,0,0,1-4.12,11.36l13.07,33.76h2l13.07-30.56h.5l12.07,30.56h1.94l14.37-39.31c.86-2.42,2.44-4,5-4.18v-1.63Z"/><path class="cls-2" d="M236.87,102.86c-1.68,2.58-4.84,3.93-8.67,3.71-7.8-.45-13.53,1.36-17,5.37a14.07,14.07,0,0,0-1.23,1.68q-.71-1.43-1.48-2.72a35.45,35.45,0,0,0-2.85-4.05,25.56,25.56,0,0,1,2.8-6.28c4.24-6.79,11.46-10.81,18.84-10.48,4.73.21,8.37,2.12,10,5.25A7.51,7.51,0,0,1,236.87,102.86Z"/><path class="cls-3" d="M204.12,126.54c5.31,6.76,6.53,18.07,3.66,32.93a60.14,60.14,0,0,0,5.07-27.4,5.17,5.17,0,0,1-1.54-9.66,41.11,41.11,0,0,0-4.39-10.6c-5.23-8.7-13.19-13.61-21.83-13.45-9.77.17-14.79,5.56-14.7,10.79.08,4.79,4.65,9.88,14.5,9.72C193.55,118.73,200,121.31,204.12,126.54Z"/><path class="cls-4" d="M220.65,120.83a5.6,5.6,0,1,0-4.16,1A5.57,5.57,0,0,0,220.65,120.83Z"/><path class="cls-5" d="M187,88.14c-.68,2.69.81,6.25,5.69,7.74,5.45,1.66,9.43,4.77,11.7,8.88a26.7,26.7,0,0,1,2.11-4.47c.39-.66.81-1.3,1.26-1.91a21.68,21.68,0,0,0-1.92-6.24A14,14,0,0,0,196,84.19C190.75,83.13,187.71,85.41,187,88.14Z"/><path class="cls-6" d="M215.8,129.7a3.4,3.4,0,0,0-1.53-6.1,3.4,3.4,0,1,0-1,6.73A3.37,3.37,0,0,0,215.8,129.7Z"/><path class="cls-7" d="M203,91.07c-1.48-2.91-5.41-5.83-8.83-5.67-3,.14-2.35,1.89.24,2.39S199,87.35,203,91.07Z"/><path class="cls-7" d="M216.62,96.12c4.59-4.07,9.15-4.66,13.34-3s2.19,3.74-1,2.92C225.61,95.13,222.41,93.32,216.62,96.12Z"/><path class="cls-7" d="M199.69,106.93c-3.5-4.23-11.44-7.61-17-6.08-4.84,1.33-3.13,3.79,1.3,3.65S191.79,102.3,199.69,106.93Z"/><path class="cls-8" d="M94.74,167h2.67l4,10.22H97.89l-.48-1.4H93.92l-.5,1.4H90.55Zm1,3.88-1,2.88h2Z"/><path class="cls-8" d="M105.3,170.48a2.76,2.76,0,0,1,2.56-1.46,2.24,2.24,0,0,1,2.3,1.46A2.77,2.77,0,0,1,112.7,169a2.71,2.71,0,0,1,2,.75,2.58,2.58,0,0,1,.56,1.91v5.59h-3.19v-4.79c0-.3,0-1.26-.87-1.26a1.17,1.17,0,0,0-.94.52v5.53h-3.19v-4.65c0-.45,0-1.39-.91-1.39a1,1,0,0,0-.88.51v5.53h-3.15v-7.92h3.15Z"/><path class="cls-8" d="M124.41,175.43a4.35,4.35,0,0,1-3.78,2.05,4.28,4.28,0,0,1-.17-8.55,4.29,4.29,0,0,1,2.39.67c1.85,1.19,1.85,3.31,1.85,4.34h-5.22a1.83,1.83,0,0,0,.73,1.37,2.05,2.05,0,0,0,1.3.41,2.8,2.8,0,0,0,2.06-1Zm-2.79-3.13c0-.49-.08-1.59-1.11-1.59s-1.08,1-1.15,1.59Z"/><path class="cls-8" d="M128.7,170.62a2.31,2.31,0,0,1,2.21-1.53,2.72,2.72,0,0,1,.5,0v2.79a2.54,2.54,0,0,0-1.48-.54,1.67,1.67,0,0,0-1.23.45v5.43H125.5v-7.93h3.19Z"/><path class="cls-8" d="M132.49,167.16a1.79,1.79,0,1,1,1.74,1.36,1.92,1.92,0,0,1-1.23-.41A1.32,1.32,0,0,1,132.49,167.16Zm.13,2.17h3.22v7.92h-3.22Z"/><path class="cls-8" d="M144.69,175.41a3.88,3.88,0,0,1-3.66,2.14,4.14,4.14,0,0,1-4.22-4.21,4.21,4.21,0,0,1,4.33-4.34,3.73,3.73,0,0,1,3.54,2.08l-.9.68a2.13,2.13,0,0,0-1.69-.91c-1.13,0-2,.94-2,2.39,0,1.26.6,2.49,1.92,2.49a2.12,2.12,0,0,0,1.74-1Z"/><path class="cls-8" d="M153.5,177.26h-3.22V176.2a2.65,2.65,0,0,1-2.37,1.29,2.45,2.45,0,0,1-2.53-2.6,2.75,2.75,0,0,1,3-2.74,5.36,5.36,0,0,1,1.86.35,1.9,1.9,0,0,0-.56-1.58,1.52,1.52,0,0,0-1-.35,2.64,2.64,0,0,0-2,1l-1-.82a4.67,4.67,0,0,1,3.95-1.85,4.13,4.13,0,0,1,2.49.64,3,3,0,0,1,1.29,2.89Zm-3.22-3.4a2.82,2.82,0,0,0-.7-.1,1,1,0,0,0-1.11,1,.81.81,0,0,0,.81.85,1.3,1.3,0,0,0,1-.55Z"/><path class="cls-8" d="M155.39,167h3.11l-2.93,5.14-1.18-.3Z"/><path class="cls-8" d="M158.41,174.91a2.41,2.41,0,0,0,2,1.06c.69,0,1.13-.36,1.13-.81s-.63-.75-.92-.85-.87-.23-1.27-.39a2.24,2.24,0,0,1-1.55-2.21c0-1.56,1.22-2.78,3.46-2.78s2.91,1.32,3.15,1.87l-1,.58a1.81,1.81,0,0,0-1.57-.9c-.66,0-1,.41-1,.78,0,.54.59.68,1,.78.91.22,2.83.68,2.83,2.71,0,1.32-1,2.81-3.73,2.81a3.61,3.61,0,0,1-3.57-2Z"/><path class="cls-8" d="M168.95,167h4.83a3.91,3.91,0,0,1,3,1,2.07,2.07,0,0,1,.53,1.45,2.11,2.11,0,0,1-.62,1.52,3.18,3.18,0,0,1-1.29.8,3.55,3.55,0,0,1,1.36.52,2.48,2.48,0,0,1,1.13,2.08,2.6,2.6,0,0,1-1,2,4.27,4.27,0,0,1-2.94.8h-5Zm3.32,4.21a3.27,3.27,0,0,0,1-.09,1,1,0,0,0,.73-1,.92.92,0,0,0-.67-.9,3.48,3.48,0,0,0-1.08-.09Zm0,3.89a4.59,4.59,0,0,0,1.3-.1,1.19,1.19,0,0,0,.85-1.17,1.22,1.22,0,0,0-.41-.94,2.62,2.62,0,0,0-1.75-.38Z"/><path class="cls-8" d="M178.51,167.16a1.79,1.79,0,1,1,1.74,1.36,1.92,1.92,0,0,1-1.23-.41A1.32,1.32,0,0,1,178.51,167.16Zm.13,2.17h3.22v7.92h-3.22Z"/><path class="cls-8" d="M184,177.39a2.48,2.48,0,0,0,2.06,1.27,2,2,0,0,0,1.72-.91,3.45,3.45,0,0,0,.38-2,2.59,2.59,0,0,1-2.25,1.14c-1.82,0-3.21-1.55-3.21-3.83s1.4-4,3.26-4a2.35,2.35,0,0,1,2.2,1.26v-1h3.21v6.57a4.31,4.31,0,0,1-1.05,3.23,4.52,4.52,0,0,1-3.31,1.17,5.05,5.05,0,0,1-2.18-.43A4,4,0,0,1,183,178.1Zm4.16-5.77a1.28,1.28,0,0,0-.9-.38c-.56,0-1.23.46-1.23,1.75a2.45,2.45,0,0,0,.1.77,1.2,1.2,0,0,0,1.16,1,1.47,1.47,0,0,0,.87-.32Z"/><path class="cls-8" d="M193.47,177.39a2.48,2.48,0,0,0,2.06,1.27,2,2,0,0,0,1.72-.91,3.45,3.45,0,0,0,.38-2,2.59,2.59,0,0,1-2.25,1.14c-1.82,0-3.21-1.55-3.21-3.83s1.4-4,3.26-4a2.35,2.35,0,0,1,2.2,1.26v-1h3.21v6.57a4.31,4.31,0,0,1-1.05,3.23,4.52,4.52,0,0,1-3.3,1.17,5.05,5.05,0,0,1-2.18-.43,4,4,0,0,1-1.81-1.78Zm4.16-5.77a1.28,1.28,0,0,0-.9-.38c-.56,0-1.23.46-1.23,1.75a2.46,2.46,0,0,0,.1.77,1.2,1.2,0,0,0,1.16,1,1.47,1.47,0,0,0,.87-.32Z"/><path class="cls-8" d="M209.69,175.43a4.35,4.35,0,0,1-3.78,2.05,4.28,4.28,0,0,1-.17-8.55,4.29,4.29,0,0,1,2.39.67c1.85,1.19,1.85,3.31,1.85,4.34h-5.22a1.83,1.83,0,0,0,.73,1.37,2.05,2.05,0,0,0,1.3.41,2.8,2.8,0,0,0,2.06-1Zm-2.79-3.13c0-.49-.08-1.59-1.11-1.59s-1.08,1-1.15,1.59Z"/><path class="cls-8" d="M211.17,174.91a2.41,2.41,0,0,0,2,1.06c.69,0,1.13-.36,1.13-.81s-.63-.75-.92-.85-.87-.23-1.27-.39a2.24,2.24,0,0,1-1.55-2.21c0-1.56,1.22-2.78,3.46-2.78a3,3,0,0,1,3.15,1.87l-1,.58a1.82,1.82,0,0,0-1.57-.9c-.66,0-1,.41-1,.78,0,.54.59.68,1,.78.91.22,2.83.68,2.83,2.71,0,1.32-1,2.81-3.72,2.81a3.61,3.61,0,0,1-3.57-2Z"/><path class="cls-8" d="M218.94,168.08h3.21V170h1.33v1.9h-1.33v2.68c0,.35,0,1.22.9,1.22a1.92,1.92,0,0,0,.49-.07l.38,1.07a3.82,3.82,0,0,1-2.3.77,2.85,2.85,0,0,1-2-.75,2.75,2.75,0,0,1-.64-2.07v-2.84h-.85V170h.85Z"/><path class="cls-8" d="M224.47,176.07a1.78,1.78,0,1,1,1.76,1.48,1.88,1.88,0,0,1-1.25-.43A1.47,1.47,0,0,1,224.47,176.07Z"/><path class="cls-8" d="M236.2,167h2.67l4,10.22h-3.56l-.48-1.4h-3.49l-.5,1.4H232Zm1,3.88-1,2.88h2Z"/><path class="cls-8" d="M246.75,170.48a2.76,2.76,0,0,1,2.56-1.46,2.24,2.24,0,0,1,2.3,1.46,2.77,2.77,0,0,1,2.55-1.48,2.7,2.7,0,0,1,2,.75,2.58,2.58,0,0,1,.56,1.91v5.59h-3.19v-4.79c0-.3,0-1.26-.87-1.26a1.17,1.17,0,0,0-.94.52v5.53h-3.19v-4.65c0-.45,0-1.39-.91-1.39a1,1,0,0,0-.88.51v5.53H243.6v-7.92h3.15Z"/><path class="cls-8" d="M265.87,175.43a4.35,4.35,0,0,1-3.78,2.05,4.28,4.28,0,0,1-.17-8.55,4.29,4.29,0,0,1,2.4.67c1.85,1.19,1.85,3.31,1.85,4.34h-5.22a1.82,1.82,0,0,0,.73,1.37,2.05,2.05,0,0,0,1.3.41,2.8,2.8,0,0,0,2.06-1Zm-2.79-3.13c0-.49-.08-1.59-1.11-1.59s-1.08,1-1.15,1.59Z"/><path class="cls-8" d="M270.44,170.62a2.31,2.31,0,0,1,2.21-1.53,2.71,2.71,0,0,1,.5,0v2.79a2.54,2.54,0,0,0-1.48-.54,1.67,1.67,0,0,0-1.23.45v5.43h-3.19v-7.93h3.19Z"/><path class="cls-8" d="M274.23,167.16a1.79,1.79,0,1,1,1.74,1.36,1.92,1.92,0,0,1-1.23-.41A1.32,1.32,0,0,1,274.23,167.16Zm.13,2.17h3.22v7.92h-3.22Z"/><path class="cls-8" d="M286.43,175.41a3.88,3.88,0,0,1-3.65,2.14,4.14,4.14,0,0,1-4.22-4.21,4.21,4.21,0,0,1,4.33-4.34,3.73,3.73,0,0,1,3.54,2.08l-.9.68a2.13,2.13,0,0,0-1.69-.91c-1.13,0-2,.94-2,2.39,0,1.26.6,2.49,1.92,2.49a2.12,2.12,0,0,0,1.74-1Z"/><path class="cls-8" d="M295.24,177.26H292V176.2a2.65,2.65,0,0,1-2.37,1.29,2.45,2.45,0,0,1-2.53-2.6,2.75,2.75,0,0,1,3-2.74,5.36,5.36,0,0,1,1.86.35,1.9,1.9,0,0,0-.56-1.58,1.52,1.52,0,0,0-1-.35,2.65,2.65,0,0,0-2,1l-1-.82a4.67,4.67,0,0,1,3.95-1.85,4.13,4.13,0,0,1,2.49.64,3,3,0,0,1,1.29,2.89Zm-3.22-3.4a2.82,2.82,0,0,0-.7-.1,1,1,0,0,0-1.11,1,.81.81,0,0,0,.81.85,1.3,1.3,0,0,0,1-.55Z"/><path class="cls-8" d="M297.13,167h3.11l-2.93,5.14-1.18-.3Z"/><path class="cls-8" d="M300.15,174.91a2.41,2.41,0,0,0,2,1.06c.69,0,1.13-.36,1.13-.81s-.63-.75-.92-.85-.87-.23-1.27-.39a2.24,2.24,0,0,1-1.55-2.21c0-1.56,1.22-2.78,3.46-2.78s2.91,1.32,3.15,1.87l-1,.58a1.81,1.81,0,0,0-1.57-.9c-.66,0-1,.41-1,.78,0,.54.59.68,1,.78.91.22,2.83.68,2.83,2.71,0,1.32-1,2.81-3.72,2.81a3.61,3.61,0,0,1-3.57-2Z"/><path class="cls-8" d="M310.13,167H315a3.91,3.91,0,0,1,3,1,2.07,2.07,0,0,1,.53,1.45,2.11,2.11,0,0,1-.62,1.52,3.18,3.18,0,0,1-1.29.8,3.56,3.56,0,0,1,1.36.52,2.48,2.48,0,0,1,1.13,2.08,2.6,2.6,0,0,1-1,2,4.27,4.27,0,0,1-2.94.8h-5Zm3.32,4.21a3.27,3.27,0,0,0,1-.09,1,1,0,0,0,.73-1,.92.92,0,0,0-.67-.9,3.48,3.48,0,0,0-1.08-.09Zm0,3.89a4.59,4.59,0,0,0,1.3-.1,1.19,1.19,0,0,0,.85-1.17,1.22,1.22,0,0,0-.41-.94,2.63,2.63,0,0,0-1.75-.38Z"/><path class="cls-8" d="M327.91,175.43a4.35,4.35,0,0,1-3.78,2.05,4.28,4.28,0,0,1-.17-8.55,4.29,4.29,0,0,1,2.4.67c1.85,1.19,1.85,3.31,1.85,4.34H323a1.82,1.82,0,0,0,.73,1.37,2.05,2.05,0,0,0,1.3.41,2.8,2.8,0,0,0,2.06-1Zm-2.79-3.13c0-.49-.08-1.59-1.11-1.59s-1.08,1-1.15,1.59Z"/><path class="cls-8" d="M329.4,174.91a2.41,2.41,0,0,0,2,1.06c.69,0,1.13-.36,1.13-.81s-.63-.75-.92-.85-.87-.23-1.27-.39a2.24,2.24,0,0,1-1.55-2.21c0-1.56,1.22-2.78,3.46-2.78s2.91,1.32,3.15,1.87l-1,.58a1.81,1.81,0,0,0-1.57-.9c-.66,0-1,.41-1,.78,0,.54.59.68,1,.78.91.22,2.83.68,2.83,2.71,0,1.32-1,2.81-3.72,2.81a3.61,3.61,0,0,1-3.57-2Z"/><path class="cls-8" d="M336.89,168.08h3.21V170h1.33v1.9H340.1v2.68c0,.35,0,1.22.9,1.22a1.92,1.92,0,0,0,.49-.07l.38,1.07a3.81,3.81,0,0,1-2.3.77,2.85,2.85,0,0,1-2-.75,2.75,2.75,0,0,1-.64-2.07v-2.84H336V170h.85Z"/><path class="cls-8" d="M342.14,176.07a1.78,1.78,0,1,1,1.76,1.48,1.88,1.88,0,0,1-1.25-.43A1.47,1.47,0,0,1,342.14,176.07Z"/></svg>