<svg id="Layer_1" data-name="Layer 1" xmlns="http://www.w3.org/2000/svg" viewBox="0 0 410 300"><defs><style>.cls-1{fill:#231f20;}.cls-2{fill:#fff;}</style></defs><title>identities</title><path class="cls-1" d="M288.9,116.44h-5.5a6,6,0,0,1-3-2.93c-1.49-3.35.63-7.63,4.8-10.06-.36-.66-.73-1.32-1.11-2s-.77-1.31-1.16-2c-4.19,2.39-9,2.1-11.11-.87s-1-7.6,2.61-10.85q-1.48-1.74-3-3.38c-3.6,3.22-8.33,3.92-11.06,1.46s-2.52-7.24.3-11.16Q258.83,73.33,257,72c-2.85,3.9-7.33,5.57-10.52,3.73s-4-6.54-2-11q-2.05-1-4.15-1.84c-2,4.4-6,7-9.5,5.82s-5.25-5.57-4.27-10.3q-2.21-.53-4.45-.94c-1,4.71-4.43,8.05-8.08,7.67s-6.3-4.37-6.32-9.2q-2.27-.06-4.54,0c0,4.83-2.66,8.82-6.31,9.2s-7.07-3-8.09-7.69q-2.23.42-4.45.95c1,4.73-.77,9.18-4.26,10.31s-7.53-1.43-9.51-5.83q-2.09.87-4.15,1.85c1.94,4.42,1.15,9.12-2,11s-7.65.17-10.51-3.72q-1.88,1.29-3.68,2.67c2.82,3.92,3,8.69.3,11.15s-7.46,1.76-11.06-1.47q-1.57,1.65-3,3.38c3.58,3.25,4.78,7.88,2.62,10.85s-6.93,3.27-11.13.87q-1.18,1.94-2.27,3.94c4.17,2.43,6.3,6.71,4.81,10.07a6,6,0,0,1-3,2.93h-5.28c-19.21,0-34.83,13.6-34.83,30.31s15.63,30.31,34.83,30.31h4.47a6.19,6.19,0,0,1,3.78,3.26c1.49,3.35-.63,7.63-4.8,10.06q.54,1,1.11,2t1.16,2c4.19-2.39,9-2.09,11.11.87s1,7.6-2.61,10.85q1.48,1.73,3,3.38c3.6-3.22,8.33-3.92,11.06-1.46s2.53,7.24-.3,11.16q1.81,1.38,3.68,2.67c2.85-3.9,7.33-5.57,10.52-3.74s4,6.54,2,11q2.06,1,4.15,1.85c2-4.4,6-7,9.5-5.82s5.25,5.57,4.26,10.3q2.21.53,4.45.95c1-4.72,4.43-8.05,8.09-7.67s6.3,4.37,6.31,9.2q2.27.06,4.54,0c0-4.83,2.66-8.82,6.31-9.2s7.07,3,8.09,7.69q2.23-.42,4.44-.95c-1-4.73.77-9.18,4.26-10.31s7.52,1.43,9.51,5.83q2.09-.87,4.15-1.85c-1.94-4.42-1.15-9.12,2-11s7.65-.17,10.51,3.72q1.88-1.29,3.68-2.66c-2.82-3.92-3-8.69-.3-11.15s7.46-1.76,11.07,1.47q1.57-1.65,3-3.38c-3.58-3.25-4.78-7.88-2.62-10.85s6.93-3.27,11.13-.87q1.18-1.94,2.27-3.94c-4.18-2.43-6.3-6.71-4.81-10.07a6.19,6.19,0,0,1,3.77-3.26h4.71c19.21,0,34.83-13.6,34.83-30.31S308.11,116.44,288.9,116.44Zm-83.43-15.6A46,46,0,0,1,240,116.44H170.93A46,46,0,0,1,205.47,100.84Zm0,92.15a46,46,0,0,1-34.82-15.92h69.65A46,46,0,0,1,205.47,193Z"/><path class="cls-2" d="M161.42,93.63,163,95.25c1.88,2,1.94,4,0,5.82l-.92.87,4.41,4.67-2,1.85L152.73,96l2.88-2.72C157.56,91.46,159.55,91.64,161.42,93.63ZM156.36,96l4,4.21.92-.87c.62-.59.69-1.19-.15-2.08l-1.76-1.87c-.84-.89-1.44-.85-2.07-.27Z"/><path class="cls-2" d="M179.29,97,177,98.46l-2.07-2.36-2.77,1.78,1.29,2.86-2.08,1.33-6.95-15.86,3.31-2.13Zm-8.09-1.25,2.18-1.4-5.77-6.57Z"/><path class="cls-2" d="M187.56,93.61a5.26,5.26,0,0,1-1-1.88l-.94-2.52c-.56-1.49-1.27-1.85-2.41-1.42l-.87.33,2.44,6.52-2.52.94-6-16,3.8-1.42c2.61-1,4.18-.18,5.11,2.29l.47,1.26c.62,1.65.49,2.92-.43,3.87,1.45.06,2.32,1.11,2.95,2.78l.92,2.47a5,5,0,0,0,1,1.84Zm-7.88-12.7,1.84,4.92,1-.37c.94-.35,1.36-1,.88-2.26l-.59-1.58c-.43-1.14-1-1.5-1.9-1.17Z"/><path class="cls-2" d="M196.56,84.49l-.61,1.66.71,5.2-2.66.36-2.3-16.95,2.66-.36,1,7.38,2.48-7.86,2.66-.36-2.68,8.06,5,8.89-2.74.37Z"/><path class="cls-2" d="M215.89,91.57,213.26,91l3.56-16.73,2.63.56L217.93,82l3,.64,1.53-7.17,2.68.57-3.56,16.72-2.68-.57L220.4,85l-3-.64Z"/><path class="cls-2" d="M232.45,78.61l2.48,1-6.56,15.8-2.48-1Z"/><path class="cls-2" d="M241.68,82.95,244,84.37,236.2,96.81,240,99.15l-1.29,2.07-6-3.76Z"/><path class="cls-2" d="M253.3,91.09l2,1.83-10,10.72,3.23,3-1.67,1.79-5.2-4.85Z"/><path class="cls-2" d="M159.12,186.72l-.39.3c-1.11.86-2.09,1.07-3,.59.35,1.19-.2,2.18-1.34,3.06l-.88.68a2.91,2.91,0,0,1-4.57-.6l-2.07-2.68,10.84-8.37,2,2.57C161,184,160.79,185.43,159.12,186.72ZM153,186l-3.33,2.57.75,1c.44.57.94.68,1.75.06l.94-.73c1-.78,1.06-1.34.47-2.12Zm4.41-3.41-2.86,2.21.51.67c.49.63,1.07.81,1.93.14l.6-.47c.77-.6.91-1.12.45-1.73Z"/><path class="cls-2" d="M164.29,187.58l-7.39,7.55c-.68.7-.62,1.25-.13,1.73s1,.53,1.73-.17l7.39-7.55,1.45,1.42L160,198c-1.53,1.57-3.19,1.69-4.7.22s-1.42-3.14.11-4.7l7.29-7.45Z"/><path class="cls-2" d="M168.95,191.82l1.69,1.33-8.46,10.76-1.69-1.33Z"/><path class="cls-2" d="M172.44,194.51l1.82,1.15L168,205.57l3,1.9-1,1.65-4.81-3.05Z"/><path class="cls-2" d="M178,198l3.08,1.45c1.95.92,2.39,2.45,1.46,4.43l-3,6.26c-.94,2-2.4,2.61-4.35,1.69l-3.08-1.45Zm1.11,2.69-4.18,8.84,1.1.52c.62.29,1.14.15,1.56-.73l3-6.44c.42-.88.2-1.38-.42-1.67Z"/><path class="cls-2" d="M183,212.72l-.7,1.95-1.95-.7L181,212Z"/><path class="cls-2" d="M190.12,202.83l2.1.48-2.63,11.44,3.45.79-.44,1.91-5.55-1.27Z"/><path class="cls-2" d="M198.23,210.21l2.94.31-.2,1.95-2.94-.31-.42,4,3.7.39-.2,1.95-5.84-.61,1.43-13.62,5.84.61-.2,1.95-3.7-.39Z"/><path class="cls-2" d="M211.56,218.41l-2.17.06-.45-2.47-2.64.08-.3,2.49-2,.06,1.78-13.75,3.15-.09Zm-5-4.19,2.07-.06-1.24-6.89Z"/><path class="cls-2" d="M219,217.33a4.22,4.22,0,0,1-.47-1.63l-.36-2.12c-.21-1.25-.71-1.65-1.68-1.48l-.73.12.93,5.5-2.12.36-2.28-13.5,3.2-.54c2.2-.37,3.32.49,3.67,2.58l.18,1.06a2.73,2.73,0,0,1-.93,3c1.14.26,1.66,1.23,1.89,2.64l.35,2.08a4,4,0,0,0,.51,1.6Zm-4.26-11.19.7,4.15.83-.14c.79-.13,1.21-.56,1-1.64l-.22-1.33c-.16-1-.56-1.33-1.31-1.21Z"/><path class="cls-2" d="M223.63,206l3.11,9.42-1.84.61-4.29-13,2.56-.85,4.67,7.09-2.57-7.79,1.82-.6,4.29,13-2.1.69Z"/><path class="cls-2" d="M234.86,210.09l.84,1.89-1.89.84-.84-1.89Z"/><path class="cls-2" d="M244.6,207.09a4.21,4.21,0,0,1-1.05-1.33l-1.14-1.83c-.67-1.08-1.28-1.25-2.12-.74l-.63.39,2.94,4.73-1.83,1.14-7.22-11.63,2.76-1.71c1.89-1.18,3.26-.8,4.37,1l.57.91a2.73,2.73,0,0,1,.27,3.1c1.15-.19,2,.51,2.75,1.72l1.11,1.79a4,4,0,0,0,1.08,1.29Zm-8.19-8.73,2.22,3.57.71-.44c.68-.42.91-1,.33-1.91l-.71-1.15c-.52-.83-1-1-1.67-.62Z"/><path class="cls-2" d="M240.5,193.26l1.7-1.32,8.43,10.79-1.7,1.32Z"/><path class="cls-2" d="M243.95,190.56l2.43-2.38c1.54-1.5,3.13-1.39,4.66.18l4.84,4.95c1.53,1.57,1.61,3.16.07,4.66l-2.43,2.38Zm2.91-.11,6.84,7,.87-.85c.49-.48.54-1-.15-1.72l-5-5.09c-.68-.7-1.22-.66-1.71-.18Z"/><path class="cls-2" d="M255.71,186.41l1.81-2.33,1.55,1.2-1.81,2.33,3.17,2.46,2.28-2.94,1.55,1.2-3.6,4.64-10.82-8.39,3.6-4.64,1.55,1.2-2.28,2.94Z"/><path class="cls-2" d="M288.9,170.34H122.09c-15.46,0-28.1-10.61-28.1-23.58s12.65-23.58,28.1-23.58H288.9c15.46,0,28.1,10.61,28.1,23.58S304.36,170.34,288.9,170.34Z"/><path class="cls-1" d="M107.51,137.32h-2.08v-3.74h9.84c4.1,0,7,2.22,7,6.17a5.63,5.63,0,0,1-2.76,5.12v.07a5.61,5.61,0,0,1,3.65,5.63c0,4.79-3.62,6.94-7.85,6.94h-5.67c-1.51,0-2.18-.67-2.18-2.29Zm7.79,6a2.76,2.76,0,0,0,2.75-3.07,2.68,2.68,0,0,0-2.82-3h-3.52v6Zm-2.88,10.41h3.27c2.05,0,3.2-1.45,3.2-3.47a3.13,3.13,0,0,0-3.2-3.44h-4V153A.66.66,0,0,0,112.41,153.76Z"/><path class="cls-1" d="M125.71,144.7c0-.51-.26-.74-.7-.74h-1.28v-3.64h3.88c1.51,0,2.15.71,2.15,2.29v10.55a.66.66,0,0,0,.7.74h1.28v3.61h-3.88c-1.51,0-2.15-.67-2.15-2.29Zm.19-11.12h3.52v3.94H125.9Z"/><path class="cls-1" d="M133.75,138c0-.51-.26-.74-.7-.74h-1.28v-3.64h3.88c1.51,0,2.18.37,2.18,2v10.85H139a1.76,1.76,0,0,0,1.54-.64l3.33-5.43h4.52l-4.13,6.47a4.05,4.05,0,0,1-1.22,1.35v.07a2.79,2.79,0,0,1,1.15,1.35l1.86,3.71c.26.51.58.64,1.35.64h1.09v3.61h-3a2.29,2.29,0,0,1-2.56-1.48l-2.72-5.39a1.53,1.53,0,0,0-1.51-.64h-.9v7.52h-4.07Z"/><path class="cls-1" d="M156.81,139.91c4.68,0,7.24,3.61,7.24,8.16,0,.51-.1,1.58-.1,1.58H152.68a4.79,4.79,0,0,0,4.9,4.62,7.26,7.26,0,0,0,4.58-1.92l1.7,3a9.71,9.71,0,0,1-6.57,2.59c-5.41,0-8.78-4.11-8.78-9C148.52,143.62,151.91,139.91,156.81,139.91Zm3.08,6.77c-.06-2.06-1.41-3.47-3.08-3.47a4,4,0,0,0-4,3.47Z"/><path class="cls-1" d="M166.78,152.21s2.08,2.45,4.87,2.45c1.25,0,2.21-.52,2.21-1.64,0-2.35-8.62-2.32-8.62-7.72,0-3.33,2.95-4.87,6.34-4.87,2.21,0,5.73.75,5.73,3.47v1.73h-3.59v-.82c0-.79-1.15-1.18-2.05-1.18-1.44,0-2.43.52-2.43,1.5,0,2.62,8.68,2.09,8.68,7.65,0,3.14-2.72,5.1-6.28,5.1a8.9,8.9,0,0,1-6.79-3Z"/><path class="cls-1" d="M189,137.32h-3.49a.66.66,0,0,0-.7.74v1.45h-3.68v-3.77c0-1.58.51-2.16,2.05-2.16H199c1.54,0,2.05.57,2.05,2.16v3.77H197.4v-1.45a.66.66,0,0,0-.7-.74h-3.49V157.5H189Z"/><path class="cls-1" d="M205.77,139.91a9,9,0,1,1-8.94,9A8.78,8.78,0,0,1,205.77,139.91Zm0,14.36c2.66,0,4.87-2.16,4.87-5.36s-2.21-5.36-4.87-5.36-4.84,2.19-4.84,5.36S203.14,154.27,205.77,154.27Z"/><path class="cls-1" d="M223.23,139.91c3.78,0,5,2.43,5,2.43h.06v-.44a1.59,1.59,0,0,1,1.79-1.58h3.78V144h-1.25a.64.64,0,0,0-.7.67v11.83c0,5.9-4.36,8.12-8.62,8.12a12.51,12.51,0,0,1-5.8-1.48l1.25-3.37a10.15,10.15,0,0,0,4.52,1.15c2.47,0,4.61-1.11,4.61-4.21v-.81c0-.4,0-.91,0-.91h-.06a5,5,0,0,1-4.55,2.22c-4.68,0-7.34-4-7.34-8.69S218.52,139.91,223.23,139.91Zm4.77,8.59c0-3.91-1.86-5-4.07-5-2.47,0-3.81,1.89-3.81,4.79s1.44,5.22,4.07,5.22C226.14,153.56,228,152.38,228,148.51Z"/><path class="cls-1" d="M242.45,139.91c4.68,0,7.24,3.61,7.24,8.16,0,.51-.1,1.58-.1,1.58H238.32a4.79,4.79,0,0,0,4.9,4.62,7.26,7.26,0,0,0,4.58-1.92l1.7,3a9.71,9.71,0,0,1-6.57,2.59c-5.41,0-8.78-4.11-8.78-9C234.15,143.62,237.55,139.91,242.45,139.91Zm3.08,6.77c-.06-2.06-1.41-3.47-3.08-3.47a4,4,0,0,0-4,3.47Z"/><path class="cls-1" d="M252.41,143.72H250.3v-3.4h2.21v-4.68h4v4.68h3.72v3.4h-3.72v6.94a3,3,0,0,0,3.24,3.24,3.58,3.58,0,0,0,.74-.07v3.74a7.11,7.11,0,0,1-1.25.1c-2.27,0-6.79-.71-6.79-6.47Z"/><path class="cls-1" d="M262.47,138c0-.51-.26-.74-.7-.74h-1.28v-3.64h3.88c1.51,0,2.18.71,2.18,2.26v6c0,.84-.06,1.45-.06,1.45h.06a6.21,6.21,0,0,1,5.61-3.4c3.65,0,5.7,2,5.7,6.54v6.71a.66.66,0,0,0,.7.74h1.28v3.61H276c-1.51,0-2.15-.67-2.15-2.29v-7.89c0-2.09-.54-3.5-2.6-3.5a4.64,4.64,0,0,0-4.42,3.57,8.12,8.12,0,0,0-.26,2.22v7.89h-4.07Z"/><path class="cls-1" d="M288.17,139.91c4.68,0,7.24,3.61,7.24,8.16,0,.51-.1,1.58-.1,1.58H284a4.79,4.79,0,0,0,4.9,4.62,7.26,7.26,0,0,0,4.58-1.92l1.7,3a9.71,9.71,0,0,1-6.57,2.59c-5.41,0-8.78-4.11-8.78-9C279.87,143.62,283.26,139.91,288.17,139.91Zm3.08,6.77c-.06-2.06-1.41-3.47-3.08-3.47a4,4,0,0,0-4,3.47Z"/><path class="cls-1" d="M298.07,144.7c0-.51-.26-.74-.7-.74h-1.28v-3.64h3.72c1.44,0,2.18.64,2.18,2.09v1a8.24,8.24,0,0,1-.06,1.08H302c.74-2.46,2.69-4.42,5.19-4.42a5,5,0,0,1,.74.07v4.21a6.84,6.84,0,0,0-1-.07,4.64,4.64,0,0,0-4.45,3.61,10.92,10.92,0,0,0-.35,2.8v6.81h-4Z"/></svg>