<svg xmlns="http://www.w3.org/2000/svg" xmlns:xlink="http://www.w3.org/1999/xlink" viewBox="0 0 410 300"><defs><style>.cls-1{fill:url(#linear-gradient);}.cls-2{isolation:isolate;}.cls-3{fill:#006d3c;}.cls-4{fill:#7c7971;}.cls-5{mask:url(#mask);}.cls-6{fill:#abe1fa;mix-blend-mode:multiply;}.cls-7{fill:#00a5e1;}.cls-8{fill:url(#linear-gradient-2);}.cls-9{fill:url(#linear-gradient-3);}.cls-10{fill:url(#linear-gradient-4);}.cls-11{fill:url(#linear-gradient-5);}</style><linearGradient id="linear-gradient" x1="206.84" y1="110.8" x2="206.84" y2="140.75" gradientUnits="userSpaceOnUse"><stop offset="0" stop-color="#231f20"/><stop offset="0.09" stop-color="#2c2829"/><stop offset="0.25" stop-color="#454243"/><stop offset="0.45" stop-color="#6e6b6c"/><stop offset="0.68" stop-color="#a7a5a5"/><stop offset="0.94" stop-color="#eeedee"/><stop offset="1" stop-color="#fff"/></linearGradient><mask id="mask" x="174.83" y="110.86" width="64.01" height="30.12" maskUnits="userSpaceOnUse"><path class="cls-1" d="M174.83,110.86a32.06,32.06,0,0,0,64,0Z"/></mask><linearGradient id="linear-gradient-2" x1="181.43" y1="63.13" x2="214.19" y2="114.71" gradientUnits="userSpaceOnUse"><stop offset="0" stop-color="#8dc63f"/><stop offset="1" stop-color="#39b54a"/></linearGradient><linearGradient id="linear-gradient-3" x1="177.8" y1="65.43" x2="210.55" y2="117.02" xlink:href="#linear-gradient-2"/><linearGradient id="linear-gradient-4" x1="157.82" y1="78.12" x2="190.58" y2="129.7" xlink:href="#linear-gradient-2"/><linearGradient id="linear-gradient-5" x1="180.17" y1="63.93" x2="212.93" y2="115.51" xlink:href="#linear-gradient-2"/></defs><title>identities</title><g class="cls-2"><g id="Layer_1" data-name="Layer 1"><path class="cls-3" d="M74.13,163.28a18.13,18.13,0,0,0-7,1.25,13.61,13.61,0,0,0-5,3.48,14.9,14.9,0,0,0-3,5.36,22.34,22.34,0,0,0-1,6.92,23.26,23.26,0,0,0,1,7,14.7,14.7,0,0,0,3,5.39,13.27,13.27,0,0,0,5,3.45,18.79,18.79,0,0,0,7.06,1.22,18.14,18.14,0,0,0,5-.59,10.22,10.22,0,0,0,3.21-1.48,5.35,5.35,0,0,0,1.69-1.91,4.54,4.54,0,0,0,.5-2,3,3,0,0,0-.2-1.08,1.93,1.93,0,0,0-.3-.53,17.85,17.85,0,0,1-1.22,1.37,9.89,9.89,0,0,1-1.91,1.5,10.57,10.57,0,0,1-2.47,1.08,11.08,11.08,0,0,1-3.16.41,10.81,10.81,0,0,1-4.56-.87,7.36,7.36,0,0,1-3.05-2.63A12,12,0,0,1,66,186.32a31.43,31.43,0,0,1-.51-6,40.27,40.27,0,0,1,.42-6.12,15.19,15.19,0,0,1,1.38-4.57,7.07,7.07,0,0,1,2.58-2.88,7.42,7.42,0,0,1,3.93-1,4.82,4.82,0,0,1,4.3,2.25,6.66,6.66,0,0,1,.9,2.2,11.35,11.35,0,0,1,.26,2.12,8.86,8.86,0,0,0,2.18-.3,5.43,5.43,0,0,0,1.76-.82,3.44,3.44,0,0,0,1-1.2,3.28,3.28,0,0,0,.35-1.5,3.55,3.55,0,0,0-.62-2,5.35,5.35,0,0,0-1.91-1.65,12,12,0,0,0-3.28-1.13A23,23,0,0,0,74.13,163.28Z"/><path class="cls-3" d="M94.45,182.6l-1.1,3.29q-.15.47-.31,1.09a4.52,4.52,0,0,0-.16,1.09,1.36,1.36,0,0,0,.15.65,1.33,1.33,0,0,0,.39.46,1.8,1.8,0,0,0,.55.27,2.19,2.19,0,0,0,.64.09h1.61v2H86.27v-2h.47a3.59,3.59,0,0,0,.92-.11,2,2,0,0,0,.78-.42,3.41,3.41,0,0,0,.69-.85,9.36,9.36,0,0,0,.66-1.4l8.29-22.48h5.25l8,22.51a7.84,7.84,0,0,0,.59,1.33,3.15,3.15,0,0,0,.67.84,2.26,2.26,0,0,0,.77.44,2.81,2.81,0,0,0,.86.13h.69v2H102.29v-2h1.49a2.15,2.15,0,0,0,.58-.08,1.58,1.58,0,0,0,.53-.26,1.38,1.38,0,0,0,.38-.46,1.41,1.41,0,0,0,.15-.67,3.55,3.55,0,0,0-.11-.9q-.11-.43-.22-.75l-1.34-3.83ZM101,174q-.21-.65-.42-1.37t-.43-1.47q-.21-.75-.41-1.48t-.35-1.41q-.17.58-.39,1.27t-.48,1.42L98,172.4l-.48,1.4-2.26,6.46H103Z"/><path class="cls-3" d="M125.51,191.95a16.08,16.08,0,0,1-4.29-.49,8.52,8.52,0,0,1-2.75-1.25,4.41,4.41,0,0,1-1.91-3.6,3.46,3.46,0,0,1,.36-1.66,3.2,3.2,0,0,1,1-1.1,4,4,0,0,1,1.38-.62,6.89,6.89,0,0,1,1.61-.19,9.59,9.59,0,0,0,.39,2.88,6,6,0,0,0,1.08,2.07,4.43,4.43,0,0,0,1.65,1.25,5.2,5.2,0,0,0,2.1.42,5.84,5.84,0,0,0,2-.32,4.43,4.43,0,0,0,1.49-.88,3.69,3.69,0,0,0,.93-1.32,4.18,4.18,0,0,0,.32-1.63,3.7,3.7,0,0,0-.39-1.73,4.48,4.48,0,0,0-1.19-1.4,10.44,10.44,0,0,0-2-1.23q-1.2-.59-2.81-1.26a22,22,0,0,1-3.37-1.69,9.36,9.36,0,0,1-2.21-1.88,6.31,6.31,0,0,1-1.2-2.18,8.68,8.68,0,0,1-.36-2.58,7,7,0,0,1,.71-3.17,7.24,7.24,0,0,1,2-2.43,9,9,0,0,1,3-1.55,12.37,12.37,0,0,1,3.73-.54,16.76,16.76,0,0,1,3.64.34,8.65,8.65,0,0,1,2.53.94,4.18,4.18,0,0,1,1.48,1.41,3.35,3.35,0,0,1,.49,1.75,2.76,2.76,0,0,1-.29,1.25,2.8,2.8,0,0,1-.88,1,4.49,4.49,0,0,1-1.47.67,7.84,7.84,0,0,1-2.06.24,7.67,7.67,0,0,0-.21-1.73,5.78,5.78,0,0,0-.7-1.72,4.25,4.25,0,0,0-1.26-1.32,3.28,3.28,0,0,0-1.88-.52,4.68,4.68,0,0,0-1.46.22,3.41,3.41,0,0,0-1.2.67,3.19,3.19,0,0,0-.81,1.11,3.67,3.67,0,0,0-.3,1.52,4.33,4.33,0,0,0,.26,1.51,3.82,3.82,0,0,0,1,1.39,9.13,9.13,0,0,0,1.92,1.36,28.79,28.79,0,0,0,3.16,1.47,24,24,0,0,1,3.34,1.64,10.46,10.46,0,0,1,2.27,1.8,6,6,0,0,1,1.29,2.11,7.68,7.68,0,0,1,.4,2.55,7.83,7.83,0,0,1-.73,3.39,7.46,7.46,0,0,1-2.09,2.64,10,10,0,0,1-3.28,1.72A14,14,0,0,1,125.51,191.95Z"/><path class="cls-3" d="M153.71,187.06a4.59,4.59,0,0,0,.15,1.31,1.72,1.72,0,0,0,.42.75,1.33,1.33,0,0,0,.63.35,3.33,3.33,0,0,0,.77.08h1.61v2h-13.2v-2h1.61a3.43,3.43,0,0,0,.78-.08,1.27,1.27,0,0,0,.62-.35,1.78,1.78,0,0,0,.41-.75,4.6,4.6,0,0,0,.15-1.31V166.62h-3.06a4.75,4.75,0,0,0-1.44.19,2.44,2.44,0,0,0-.94.53,2.12,2.12,0,0,0-.54.85,5.28,5.28,0,0,0-.25,1.14l-.26,2.37h-2.58l.21-7.41H162.6l.19,7.41h-2.56l-.28-2.37a5.32,5.32,0,0,0-.25-1.14,2.12,2.12,0,0,0-.54-.85,2.44,2.44,0,0,0-.94-.53,4.75,4.75,0,0,0-1.44-.19h-3.06Z"/><path class="cls-3" d="M166.32,191.58v-2h1.61a3.42,3.42,0,0,0,.78-.08,1.27,1.27,0,0,0,.62-.35,1.78,1.78,0,0,0,.41-.75,4.6,4.6,0,0,0,.15-1.31V168.78a4.61,4.61,0,0,0-.15-1.31,1.79,1.79,0,0,0-.41-.75,1.27,1.27,0,0,0-.62-.34,3.39,3.39,0,0,0-.78-.08h-1.61v-2h13.2v2h-1.61a3.34,3.34,0,0,0-.76.08,1.35,1.35,0,0,0-.63.33,1.69,1.69,0,0,0-.42.7,3.83,3.83,0,0,0-.16,1.22v20.61h7.11a2.64,2.64,0,0,0,2.09-.85,5.34,5.34,0,0,0,1.08-2.47l.62-2.87H189l-.28,8.53Z"/><path class="cls-3" d="M201.81,189.24h7.65a2,2,0,0,0,1.7-.82,3.18,3.18,0,0,0,.48-.92,6.87,6.87,0,0,0,.27-1.17l.3-1.79h2.65l-.28,7h-22.4v-2h1.61a3.69,3.69,0,0,0,.77-.08,1.37,1.37,0,0,0,.63-.31,1.51,1.51,0,0,0,.42-.69,4,4,0,0,0,.15-1.2V168.78a4.61,4.61,0,0,0-.15-1.31,1.79,1.79,0,0,0-.41-.75,1.27,1.27,0,0,0-.62-.34,3.39,3.39,0,0,0-.78-.08h-1.61v-2H213.4l.15,7h-2.67l-.19-1.81a4.32,4.32,0,0,0-.71-2.15,2,2,0,0,0-1.74-.75h-6.44v9.56h9.07v2.3h-9.07Z"/><path class="cls-3" d="M250.77,172.39a9.3,9.3,0,0,1-.6,3.3,7.13,7.13,0,0,1-1.94,2.8,9.76,9.76,0,0,1-3.49,1.93,16.66,16.66,0,0,1-5.25.72h-1.31v6.12a3.56,3.56,0,0,0,.17,1.2,1.59,1.59,0,0,0,.45.69,1.44,1.44,0,0,0,.65.31,3.86,3.86,0,0,0,.77.08h2.33v2h-14v-2h1.61a3.42,3.42,0,0,0,.78-.08,1.27,1.27,0,0,0,.62-.35,1.78,1.78,0,0,0,.41-.75,4.6,4.6,0,0,0,.15-1.31V168.63a4.07,4.07,0,0,0-.15-1.22,1.58,1.58,0,0,0-.42-.7,1.41,1.41,0,0,0-.63-.33,3.3,3.3,0,0,0-.77-.08H228.6v-2h11.74a16.88,16.88,0,0,1,4.61.56,9,9,0,0,1,3.26,1.61,6.55,6.55,0,0,1,1.93,2.55A8.57,8.57,0,0,1,250.77,172.39Zm-12.58,6.53h.93a7.19,7.19,0,0,0,2.41-.35,3.61,3.61,0,0,0,1.61-1.12,4.86,4.86,0,0,0,.91-2,12.82,12.82,0,0,0,.29-2.93,12.35,12.35,0,0,0-.25-2.66,4.85,4.85,0,0,0-.8-1.87,3.34,3.34,0,0,0-1.44-1.1,5.74,5.74,0,0,0-2.17-.36h-1.49Z"/><path class="cls-3" d="M253.57,191.58v-2h1.61a3.42,3.42,0,0,0,.78-.08,1.27,1.27,0,0,0,.62-.35,1.78,1.78,0,0,0,.41-.75,4.6,4.6,0,0,0,.15-1.31V168.8a4.61,4.61,0,0,0-.15-1.31,1.79,1.79,0,0,0-.41-.75,1.27,1.27,0,0,0-.62-.34,3.39,3.39,0,0,0-.78-.08h-1.61v-2h13.2v2h-1.61a3.42,3.42,0,0,0-.77.08,1.27,1.27,0,0,0-.63.34,1.78,1.78,0,0,0-.41.75,4.6,4.6,0,0,0-.15,1.31v18.26a4.59,4.59,0,0,0,.15,1.31,1.77,1.77,0,0,0,.41.75,1.27,1.27,0,0,0,.63.35,3.46,3.46,0,0,0,.77.08h1.61v2Z"/><path class="cls-3" d="M291.76,191.58l-14.92-21.06v16.54a4.33,4.33,0,0,0,.16,1.31,1.85,1.85,0,0,0,.42.75,1.27,1.27,0,0,0,.63.35,3.37,3.37,0,0,0,.76.08h1.61v2h-10v-2H272a3.34,3.34,0,0,0,.77-.08,1.33,1.33,0,0,0,.63-.35,1.72,1.72,0,0,0,.42-.75,4.6,4.6,0,0,0,.15-1.31V168.63a3.84,3.84,0,0,0-.16-1.22,1.64,1.64,0,0,0-.43-.7,1.41,1.41,0,0,0-.63-.33,3.22,3.22,0,0,0-.75-.08h-1.61v-2h8.49l13.5,19.08V168.63a3.84,3.84,0,0,0-.16-1.22,1.64,1.64,0,0,0-.43-.7,1.41,1.41,0,0,0-.63-.33,3.22,3.22,0,0,0-.75-.08h-1.61v-2h10v2h-1.61a3.21,3.21,0,0,0-.75.08,1.33,1.33,0,0,0-.63.34,1.72,1.72,0,0,0-.42.75,4.59,4.59,0,0,0-.15,1.31v22.79Z"/><path class="cls-3" d="M312.13,189.24h7.65a2,2,0,0,0,1.7-.82,3.18,3.18,0,0,0,.48-.92,6.87,6.87,0,0,0,.27-1.17l.3-1.79h2.65l-.28,7h-22.4v-2h1.61a3.69,3.69,0,0,0,.77-.08,1.37,1.37,0,0,0,.63-.31,1.51,1.51,0,0,0,.42-.69,4,4,0,0,0,.15-1.2V168.78a4.61,4.61,0,0,0-.15-1.31,1.79,1.79,0,0,0-.41-.75,1.27,1.27,0,0,0-.62-.34,3.39,3.39,0,0,0-.78-.08h-1.61v-2h21.22l.15,7H321.2l-.19-1.81a4.32,4.32,0,0,0-.71-2.15,2,2,0,0,0-1.74-.75h-6.44v9.56h9.07v2.3h-9.07Z"/><path class="cls-3" d="M332.64,186.94a8.2,8.2,0,0,0-1.65.22,4.66,4.66,0,0,0-1.61.72,3.69,3.69,0,0,0-1.11,1.27,4,4,0,0,0-.42,1.92,5.27,5.27,0,0,0,.52,2.21,5.33,5.33,0,0,0,1.73,2,10.3,10.3,0,0,0,3.31,1.5,19.64,19.64,0,0,0,5.23.59,17.11,17.11,0,0,0,5.23-.75,12.19,12.19,0,0,0,4-2.07,9,9,0,0,0,2.5-3.16,9.43,9.43,0,0,0,.87-4.06,9.25,9.25,0,0,0-.48-3.05,7.21,7.21,0,0,0-1.53-2.51,12.68,12.68,0,0,0-2.74-2.17,29.47,29.47,0,0,0-4.09-2,35.91,35.91,0,0,1-3.94-1.82A11.63,11.63,0,0,1,336,174a5,5,0,0,1-1.26-1.82,5.66,5.66,0,0,1-.34-2,4.83,4.83,0,0,1,.39-2,4.24,4.24,0,0,1,1.07-1.47,4.51,4.51,0,0,1,1.58-.89,6.1,6.1,0,0,1,1.88-.29,4.34,4.34,0,0,1,2.47.69,5.55,5.55,0,0,1,1.64,1.71,7.46,7.46,0,0,1,.9,2.2,10.15,10.15,0,0,1,.27,1.91,9.14,9.14,0,0,0,2.2-.29,5.29,5.29,0,0,0,1.73-.79,3.19,3.19,0,0,0,1-1.14,3.14,3.14,0,0,0,.33-1.42,3.87,3.87,0,0,0-.56-2,4.9,4.9,0,0,0-1.74-1.64,10.46,10.46,0,0,0-3-1.13,20.49,20.49,0,0,0-4.43-.42,15,15,0,0,0-4.53.66A10.85,10.85,0,0,0,332,165.8a8.71,8.71,0,0,0-2.35,2.9,8.4,8.4,0,0,0-.85,3.79,10.5,10.5,0,0,0,.44,3.1,7.55,7.55,0,0,0,1.43,2.6,11.33,11.33,0,0,0,2.67,2.26,27,27,0,0,0,4.12,2.06c1.32.55,2.49,1.08,3.49,1.56a13.24,13.24,0,0,1,2.52,1.56,5.83,5.83,0,0,1,1.54,1.82,4.87,4.87,0,0,1,.52,2.26,5.47,5.47,0,0,1-.41,2.13,4.86,4.86,0,0,1-1.22,1.72,5.78,5.78,0,0,1-1.94,1.14,7.53,7.53,0,0,1-2.56.41,6.71,6.71,0,0,1-2.71-.54,5.78,5.78,0,0,1-2.14-1.62,7.78,7.78,0,0,1-1.39-2.65A11.91,11.91,0,0,1,332.64,186.94Z"/><path class="cls-4" d="M95.68,210.76v-8.18l-2.85,8.18H91.18l-2.85-8.18v8.18h-2V199.85h2.77L92,208.11l2.91-8.27h2.77v10.91Z"/><path class="cls-4" d="M103.14,210.76V199.85H109v1.93h-3.84v2.57h3.68v1.93h-3.68v2.54H109v1.93Z"/><path class="cls-4" d="M117.65,201.78v9h-2v-9h-2v-1.93h6.07v1.93Z"/><path class="cls-4" d="M129.2,210.76l-2.86-4.18v4.18h-2V199.85h3.14a4.1,4.1,0,0,1,3,.81,3.4,3.4,0,0,1,1.15,2.69,3.28,3.28,0,0,1-2.85,3.38l3,4Zm-2-9h-.9v3.28h1c1.56,0,2.23-.5,2.23-1.65C129.56,202.43,129.16,201.78,127.24,201.78Z"/><path class="cls-4" d="M141.38,210.95a5.65,5.65,0,1,1,5.62-5.65A5.56,5.56,0,0,1,141.38,210.95Zm0-9.34a3.7,3.7,0,0,0,0,7.4,3.55,3.55,0,0,0,3.6-3.68A3.61,3.61,0,0,0,141.37,201.6Z"/><path class="cls-4" d="M157.53,206.12a5.22,5.22,0,0,1-2.86.49H154v4.15h-2V199.85h2.7a5.15,5.15,0,0,1,2.79.5,3.22,3.22,0,0,1,1.48,2.86A3.36,3.36,0,0,1,157.53,206.12Zm-2.83-4.34H154v2.89h.59c1.82,0,2.32-.49,2.32-1.43C156.92,202.09,156.24,201.78,154.69,201.78Z"/><path class="cls-4" d="M168.83,210.95a5.65,5.65,0,1,1,5.62-5.65A5.56,5.56,0,0,1,168.83,210.95Zm0-9.34a3.7,3.7,0,0,0,0,7.4,3.55,3.55,0,0,0,3.6-3.68A3.61,3.61,0,0,0,168.82,201.6Z"/><path class="cls-4" d="M179.59,210.76V199.85h2v9H185v1.93Z"/><path class="cls-4" d="M189.78,210.76V199.85h2v10.91Z"/><path class="cls-4" d="M200.74,201.78v9h-2v-9h-2v-1.93h6.07v1.93Z"/><path class="cls-4" d="M214.34,210.76l-1.17-2.82h-3.88l-1.21,2.82h-2.23l4.55-10.91H212l4.58,10.91Zm-3.14-8.06L210,206h2.33Z"/><path class="cls-4" d="M227.8,210.76l-4.56-7.93v7.93h-2V199.85h2.3l4.52,7.94v-7.94h2v10.91Z"/><path class="cls-4" d="M249.42,210.15a7.5,7.5,0,0,1-3.53.61h-2.54V199.85h2.49a7.65,7.65,0,0,1,3.87.78,5.26,5.26,0,0,1,2.38,4.69A5.14,5.14,0,0,1,249.42,210.15Zm-1-7.93a5.4,5.4,0,0,0-2.61-.44h-.4v7h.44a5.45,5.45,0,0,0,2.66-.49,3.69,3.69,0,0,0-.09-6.11Z"/><path class="cls-4" d="M257.23,210.76V199.85h2v10.91Z"/><path class="cls-4" d="M267.69,210.95a3.44,3.44,0,0,1-3.59-3.31h2.11a1.33,1.33,0,0,0,1.48,1.36,1.35,1.35,0,0,0,1.48-1.33,1.38,1.38,0,0,0-.5-1.11,6.36,6.36,0,0,0-1.89-.84,3.12,3.12,0,1,1,4.13-3h-2.1a1.1,1.1,0,0,0-1.15-1.15,1.07,1.07,0,0,0-1.12,1.11,1.15,1.15,0,0,0,.61,1,7.08,7.08,0,0,0,1.21.49c2.21.83,2.82,1.79,2.82,3.26A3.44,3.44,0,0,1,267.69,210.95Z"/><path class="cls-4" d="M279.26,201.78v9h-2v-9h-2v-1.93h6.07v1.93Z"/><path class="cls-4" d="M290.75,210.76l-2.86-4.18v4.18h-2V199.85H289a4.1,4.1,0,0,1,3,.81,3.4,3.4,0,0,1,1.15,2.69,3.28,3.28,0,0,1-2.85,3.38l3,4Zm-2-9h-.9v3.28h1c1.56,0,2.23-.5,2.23-1.65C291.1,202.43,290.7,201.78,288.78,201.78Z"/><path class="cls-4" d="M298,210.76V199.85h2v10.91Z"/><path class="cls-4" d="M310.08,210.95a5.7,5.7,0,0,1-5.74-5.68,5.63,5.63,0,0,1,5.61-5.61,5.55,5.55,0,0,1,5.17,3.32h-2.26A3.27,3.27,0,0,0,310,201.6a3.58,3.58,0,0,0-3.62,3.68A3.71,3.71,0,0,0,310,209a3.44,3.44,0,0,0,2.7-1.28h2.38A5.39,5.39,0,0,1,310.08,210.95Z"/><path class="cls-4" d="M323,201.78v9h-2v-9h-2v-1.93H325v1.93Z"/><g class="cls-5"><path class="cls-6" d="M174.83,110.86a32.06,32.06,0,0,0,64,0Z"/></g><path class="cls-7" d="M240.65,111.6h0c0-.29,0-.58,0-.87a23.78,23.78,0,0,0-4.3-13.5l-20.5-30.72-2.7,4,18.13,27.22h0l1.29,1.93a19.29,19.29,0,0,1,3.56,11q0,.52,0,1c-.05.72-.14,1.44-.25,2.15-1.59,9.26-10,16.34-20.09,16.34-11.19,0-20.29-8.69-20.36-19.39h-4.52c.07,13.22,11.18,23.91,24.88,23.91a25.77,25.77,0,0,0,6-.71,30.1,30.1,0,0,1-15,4C191,138,178,125.93,177.46,110.86h-4.52c.59,17.59,15.53,31.68,33.88,31.68,17.08,0,31.21-12.2,33.56-28.08.11-.7.19-1.42.24-2.14C240.63,112.08,240.64,111.84,240.65,111.6Z"/><path class="cls-8" d="M195.45,108h29L213.26,91.31A19.22,19.22,0,0,0,195.45,108Z"/><path class="cls-9" d="M177.36,108h13.53A23.71,23.71,0,0,1,219.11,87.2L210,73.65A35.77,35.77,0,0,0,177.36,108Z"/><path class="cls-10" d="M177.11,91.19,165.83,108h7A40,40,0,0,1,177.11,91.19Z"/><path class="cls-11" d="M207.22,69.42l-12.07-18L171.28,87h8.23A40.3,40.3,0,0,1,207.22,69.42Z"/></g></g></svg>