<svg id="Layer_1" data-name="Layer 1" xmlns="http://www.w3.org/2000/svg" xmlns:xlink="http://www.w3.org/1999/xlink" viewBox="0 0 410 300"><defs><style>.cls-1{fill-rule:evenodd;fill:url(#New_Gradient_Swatch_6);}.cls-2{fill:url(#New_Gradient_Swatch_6-2);}.cls-3{fill:#231f20;stroke:#231f20;stroke-miterlimit:10;stroke-width:1.14px;}.cls-4{fill:#f05a28;}.cls-5{fill:url(#linear-gradient);}.cls-6{fill:url(#linear-gradient-2);}.cls-7{fill:url(#linear-gradient-3);}.cls-8{fill:url(#linear-gradient-4);}.cls-9{fill:url(#New_Gradient_Swatch_6-3);}.cls-10{fill:url(#New_Gradient_Swatch_6-4);}.cls-11{fill:url(#New_Gradient_Swatch_6-5);}.cls-12{fill:url(#New_Gradient_Swatch_6-6);}.cls-13{fill:url(#New_Gradient_Swatch_6-7);}.cls-14{fill:url(#New_Gradient_Swatch_6-8);}.cls-15{fill:url(#New_Gradient_Swatch_6-9);}.cls-16{fill:url(#New_Gradient_Swatch_6-10);}.cls-17{fill:url(#New_Gradient_Swatch_6-11);}.cls-18{fill:url(#New_Gradient_Swatch_6-12);}.cls-19{fill:url(#New_Gradient_Swatch_6-13);}.cls-20{fill:url(#New_Gradient_Swatch_6-14);}.cls-21{fill:url(#New_Gradient_Swatch_6-15);}.cls-22{fill:url(#New_Gradient_Swatch_6-16);}.cls-23{fill:url(#New_Gradient_Swatch_6-17);}.cls-24{fill:url(#New_Gradient_Swatch_6-18);}.cls-25{fill:url(#New_Gradient_Swatch_6-19);}.cls-26{fill:url(#New_Gradient_Swatch_6-20);}.cls-27{fill:url(#New_Gradient_Swatch_6-21);}.cls-28{fill:url(#New_Gradient_Swatch_6-22);}.cls-29{fill:url(#New_Gradient_Swatch_6-23);}.cls-30{fill:url(#New_Gradient_Swatch_6-24);}.cls-31{fill:url(#New_Gradient_Swatch_6-25);}.cls-32{fill:url(#New_Gradient_Swatch_6-26);}.cls-33{fill:url(#New_Gradient_Swatch_6-27);}</style><linearGradient id="New_Gradient_Swatch_6" x1="150.95" y1="221.59" x2="257.65" y2="81.69" gradientUnits="userSpaceOnUse"><stop offset="0"/><stop offset="0.21" stop-color="#666"/><stop offset="0.39" stop-color="#b3b3b3"/><stop offset="0.61" stop-color="#58595b"/><stop offset="0.78" stop-color="#231f20"/><stop offset="0.82" stop-color="#282425"/><stop offset="0.87" stop-color="#353233"/><stop offset="0.92" stop-color="#4b494a"/><stop offset="0.97" stop-color="#6a696a"/><stop offset="1" stop-color="gray"/></linearGradient><linearGradient id="New_Gradient_Swatch_6-2" x1="148.16" y1="219.45" x2="254.85" y2="79.55" xlink:href="#New_Gradient_Swatch_6"/><linearGradient id="linear-gradient" x1="143.79" y1="138.75" x2="143.79" y2="174.16" gradientUnits="userSpaceOnUse"><stop offset="0" stop-color="#fff"/><stop offset="1" stop-color="#faaf40"/></linearGradient><linearGradient id="linear-gradient-2" x1="281.54" y1="138.75" x2="281.54" y2="174.16" xlink:href="#linear-gradient"/><linearGradient id="linear-gradient-3" x1="220.16" y1="138.75" x2="220.16" y2="174.16" xlink:href="#linear-gradient"/><linearGradient id="linear-gradient-4" x1="283.91" y1="138.75" x2="283.91" y2="174.16" xlink:href="#linear-gradient"/><linearGradient id="New_Gradient_Swatch_6-3" x1="118.42" y1="196.77" x2="225.12" y2="56.87" xlink:href="#New_Gradient_Swatch_6"/><linearGradient id="New_Gradient_Swatch_6-4" x1="126.43" y1="202.89" x2="233.13" y2="62.99" xlink:href="#New_Gradient_Swatch_6"/><linearGradient id="New_Gradient_Swatch_6-5" x1="138.95" y1="212.43" x2="245.64" y2="72.53" xlink:href="#New_Gradient_Swatch_6"/><linearGradient id="New_Gradient_Swatch_6-6" x1="149.88" y1="220.77" x2="256.58" y2="80.87" xlink:href="#New_Gradient_Swatch_6"/><linearGradient id="New_Gradient_Swatch_6-7" x1="159.79" y1="228.33" x2="266.49" y2="88.43" xlink:href="#New_Gradient_Swatch_6"/><linearGradient id="New_Gradient_Swatch_6-8" x1="169.27" y1="235.55" x2="275.96" y2="95.65" xlink:href="#New_Gradient_Swatch_6"/><linearGradient id="New_Gradient_Swatch_6-9" x1="182" y1="245.26" x2="288.7" y2="105.36" xlink:href="#New_Gradient_Swatch_6"/><linearGradient id="New_Gradient_Swatch_6-10" x1="190.59" y1="251.81" x2="297.28" y2="111.91" xlink:href="#New_Gradient_Swatch_6"/><linearGradient id="New_Gradient_Swatch_6-11" x1="199.41" y1="258.54" x2="306.1" y2="118.64" xlink:href="#New_Gradient_Swatch_6"/><linearGradient id="New_Gradient_Swatch_6-12" x1="203.95" y1="262.01" x2="310.65" y2="122.11" xlink:href="#New_Gradient_Swatch_6"/><linearGradient id="New_Gradient_Swatch_6-13" x1="207.61" y1="264.8" x2="314.31" y2="124.9" xlink:href="#New_Gradient_Swatch_6"/><linearGradient id="New_Gradient_Swatch_6-14" x1="210.22" y1="266.79" x2="316.92" y2="126.89" xlink:href="#New_Gradient_Swatch_6"/><linearGradient id="New_Gradient_Swatch_6-15" x1="211.69" y1="267.91" x2="318.39" y2="128.01" xlink:href="#New_Gradient_Swatch_6"/><linearGradient id="New_Gradient_Swatch_6-16" x1="211.37" y1="267.66" x2="318.06" y2="127.76" xlink:href="#New_Gradient_Swatch_6"/><linearGradient id="New_Gradient_Swatch_6-17" x1="209.3" y1="266.08" x2="316" y2="126.18" xlink:href="#New_Gradient_Swatch_6"/><linearGradient id="New_Gradient_Swatch_6-18" x1="90.56" y1="175.52" x2="197.25" y2="35.62" xlink:href="#New_Gradient_Swatch_6"/><linearGradient id="New_Gradient_Swatch_6-19" x1="91.05" y1="175.9" x2="197.75" y2="36" xlink:href="#New_Gradient_Swatch_6"/><linearGradient id="New_Gradient_Swatch_6-20" x1="94.84" y1="178.79" x2="201.54" y2="38.89" xlink:href="#New_Gradient_Swatch_6"/><linearGradient id="New_Gradient_Swatch_6-21" x1="101.34" y1="183.75" x2="208.04" y2="43.85" xlink:href="#New_Gradient_Swatch_6"/><linearGradient id="New_Gradient_Swatch_6-22" x1="111.47" y1="191.47" x2="218.16" y2="51.57" xlink:href="#New_Gradient_Swatch_6"/><linearGradient id="New_Gradient_Swatch_6-23" x1="126.21" y1="202.72" x2="232.91" y2="62.82" xlink:href="#New_Gradient_Swatch_6"/><linearGradient id="New_Gradient_Swatch_6-24" x1="138.18" y1="211.84" x2="244.87" y2="71.94" xlink:href="#New_Gradient_Swatch_6"/><linearGradient id="New_Gradient_Swatch_6-25" x1="153.8" y1="223.76" x2="260.5" y2="83.86" xlink:href="#New_Gradient_Swatch_6"/><linearGradient id="New_Gradient_Swatch_6-26" x1="164.23" y1="231.71" x2="270.92" y2="91.81" xlink:href="#New_Gradient_Swatch_6"/><linearGradient id="New_Gradient_Swatch_6-27" x1="172.43" y1="237.97" x2="279.13" y2="98.07" xlink:href="#New_Gradient_Swatch_6"/></defs><title>identities</title><path class="cls-1" d="M212,96.86q1.42.15,2.82.37c2.83.33,4.18-4.8,5.22-6.64,1.43-2.53,4-1.86,3.94,1.05,0,2.09-1.38,7.11,1.11,8.32q1.43.54,2.82,1.17c2.63,1,5.23-3.59,6.7-5.08,2-2.08,4.31-.77,3.53,2-.57,2-3.25,6.65-1,8.4l.08.06q1,.77,2.06,1.58l.1.07c2.28,1.75,6-2,7.86-3.12,2.51-1.48,4.36.37,2.88,2.88-1.07,1.82-4.86,5.58-3.12,7.86l.08.11q.81,1,1.58,2l.07.09c1.75,2.28,6.36-.41,8.4-1,2.8-.78,4.11,1.49,2,3.53-1.5,1.47-6.08,4.1-5.07,6.74q.61,1.35,1.14,2.75c1.18,2.54,6.24,1.16,8.33,1.15,2.91,0,3.59,2.5,1.06,3.94-1.84,1-7,2.4-6.63,5.25v.06c.14.88.26,1.77.35,2.67v.07c.38,2.85,5.72,2.82,7.77,3.35,2.82.73,2.82,3.35,0,4.08-2,.53-7.39.51-7.77,3.35h0q-.15,1.43-.37,2.84c-.31,2.82,4.8,4.17,6.64,5.21,2.53,1.43,1.86,4-1.05,3.94-2.08,0-7.1-1.38-8.32,1.11q-.54,1.44-1.17,2.83c-.94,2.62,3.6,5.22,5.09,6.69,2.08,2,.77,4.31-2,3.53-2-.57-6.65-3.25-8.4-1l0,.06q-.78,1.07-1.61,2.1l-.06.09c-1.74,2.29,2,6,3.12,7.86,1.48,2.51-.37,4.36-2.88,2.88-1.83-1.08-5.58-4.86-7.86-3.12l-.1.07c-.68.55-1.36,1.08-2.07,1.59l-.07.06c-2.28,1.76.41,6.36,1,8.4.78,2.81-1.49,4.11-3.53,2-1.47-1.5-4.08-6-6.71-5.08q-1.38.62-2.8,1.16c-2.51,1.2-1.14,6.24-1.12,8.32,0,2.91-2.5,3.59-3.94,1.06-1-1.84-2.4-7-5.25-6.63h0q-1.37.22-2.77.37h0c-2.85.38-2.82,5.72-3.35,7.77-.73,2.82-3.35,2.82-4.08,0-.53-2.05-.51-7.39-3.35-7.77h0q-1.43-.15-2.84-.37c-2.82-.31-4.17,4.81-5.21,6.64-1.43,2.53-4,1.86-3.94-1.05,0-2.08,1.38-7.1-1.11-8.32q-1.44-.55-2.84-1.18c-2.62-.94-5.22,3.6-6.69,5.09-2,2.08-4.31.77-3.53-2,.57-2,3.26-6.65,1-8.4l-.05,0q-1.07-.78-2.1-1.61l-.09-.06c-2.28-1.74-6,2-7.86,3.12-2.51,1.48-4.36-.37-2.88-2.88,1.08-1.82,4.86-5.58,3.12-7.86l-.07-.1q-.82-1-1.59-2.07l-.05-.07c-1.76-2.28-6.36.41-8.4,1-2.81.78-4.11-1.49-2-3.53,1.49-1.47,6-4.08,5.08-6.71q-.62-1.38-1.16-2.8c-1.2-2.51-6.23-1.14-8.32-1.12-2.91,0-3.59-2.5-1.06-3.94,1.84-1,7-2.4,6.63-5.25h0q-.22-1.38-.37-2.78v0c-.38-2.85-5.72-2.82-7.77-3.35-2.82-.73-2.82-3.35,0-4.08,2-.53,7.39-.51,7.77-3.35h0q.15-1.44.37-2.85c.3-2.82-4.81-4.17-6.64-5.2-2.53-1.43-1.86-4,1.05-3.94,2.08,0,7.1,1.38,8.32-1.11q.55-1.44,1.18-2.84c.93-2.62-3.6-5.22-5.09-6.68-2.08-2-.77-4.31,2-3.53,2,.57,6.65,3.25,8.4,1l0-.05q.78-1.07,1.61-2.1l.06-.09c1.74-2.29-2-6-3.12-7.86-1.48-2.51.37-4.36,2.88-2.88,1.82,1.07,5.58,4.86,7.86,3.12l.1-.07q1-.82,2.08-1.6l.06-.05c2.28-1.75-.41-6.36-1-8.4-.78-2.8,1.49-4.11,3.53-2,1.47,1.49,4.08,6,6.71,5.08q1.38-.62,2.8-1.16c2.5-1.2,1.14-6.23,1.12-8.32,0-2.91,2.5-3.59,3.94-1.06,1,1.84,2.4,7,5.25,6.64h0c.92-.14,1.84-.27,2.78-.37h0c2.85-.38,2.82-5.72,3.36-7.77.73-2.82,3.35-2.82,4.07,0,.53,2,.51,7.38,3.35,7.77Zm-5.2,3.87a2.49,2.49,0,1,0,2.26,2.69,2.49,2.49,0,0,0-2.26-2.69Zm10.06,2c-5.06-1.06-8.3,7-1.22,8.59a34.9,34.9,0,0,1,18.79,10.85c4.92,5.33,10.28-1.5,6.83-5.35a43.69,43.69,0,0,0-24.4-14.09Zm24.4,77.84c3.45-3.86-1.91-10.68-6.83-5.35A34.91,34.91,0,0,1,215.64,186c-7.07,1.6-3.84,9.65,1.22,8.59a43.67,43.67,0,0,0,24.4-14.08Zm-44.94,14.09c5.07,1.06,8.3-7,1.22-8.59a34.91,34.91,0,0,1-18.79-10.85c-4.92-5.33-10.28,1.5-6.83,5.35a43.68,43.68,0,0,0,24.4,14.09Zm-24.4-77.84c-3.45,3.86,1.91,10.68,6.83,5.35a34.92,34.92,0,0,1,18.79-10.85c7.07-1.6,3.84-9.65-1.22-8.59a43.67,43.67,0,0,0-24.39,14.09Zm76.27,8.1a2.49,2.49,0,1,0-1.2,3.31,2.49,2.49,0,0,0,1.2-3.31ZM248,172.79a2.49,2.49,0,1,0-3.47.61,2.49,2.49,0,0,0,3.47-.61Zm-41.61,23.77a2.49,2.49,0,1,0-2.27-2.69,2.49,2.49,0,0,0,2.27,2.69ZM165,172.42a2.49,2.49,0,1,0,1.2-3.31,2.49,2.49,0,0,0-1.2,3.31Zm.21-47.92a2.49,2.49,0,1,0,3.46-.61,2.49,2.49,0,0,0-3.46.61Zm33.44,19.55a9.18,9.18,0,1,0,12.55-3.36,9.18,9.18,0,0,0-12.55,3.36Zm-9.08-19.56c-1.84,1.3-1,3.14,1.1,3.7a65.07,65.07,0,0,0,31.88,0c2.08-.56,2.94-2.4,1.1-3.7a29.56,29.56,0,0,0-34.08,0ZM236,146c-.2-2.24-2.23-2.42-3.75-.9a65.09,65.09,0,0,0-15.94,27.61c-.55,2.08.61,3.74,2.65,2.8A29.56,29.56,0,0,0,236,146Zm-41.83,29.51c2,.95,3.21-.72,2.65-2.8a65.1,65.1,0,0,0-15.94-27.61c-1.52-1.52-3.55-1.35-3.75.9a29.56,29.56,0,0,0,17,29.51Z"/><path class="cls-2" d="M336.91,142.88c0-.2,0-.41,0-.61,0-6.61-5.52-11.23-13.43-11.23a22.52,22.52,0,0,0-5,.57l.72-2.48a6.55,6.55,0,0,0-6.29-8.36h-8.28a6.55,6.55,0,0,0-6.29,4.75L296.74,131h-.26a16.79,16.79,0,0,0-3.89.47c-.33-5.71-4.82-9.64-11.17-9.64a11.66,11.66,0,0,0-6.71,2c-3.13-2.5-8.27-4.34-16.66-4.34-7.73,0-13.57.84-20.55,5.12a21.83,21.83,0,0,0-7.16,6.87h-7.69a6.63,6.63,0,0,0-1.33.13,14,14,0,0,0-4.12-.61,16.67,16.67,0,0,0-7,1.56,9.44,9.44,0,0,0-5.23-1.56,11.78,11.78,0,0,0-3.5.51l-.61,0h-8.21a6.52,6.52,0,0,0-2,.31,6.53,6.53,0,0,0-2-.31H180.4a6.58,6.58,0,0,0-1.87.27,6.54,6.54,0,0,0-1.87-.27h-3.37l.69-2.39a6.55,6.55,0,0,0-6.29-8.36h-8.28a6.55,6.55,0,0,0-6.29,4.75L151.54,131h-.26a17,17,0,0,0-10.46,3.64,11.72,11.72,0,0,0-5.74-3.27,13.13,13.13,0,0,0,2-5.55,11.66,11.66,0,0,0-.12-3.35c0-.14,0-.28-.07-.42v0a10.39,10.39,0,0,0-3.77-6.39c-6.34-5.18-14.32-2.08-14.32-2.08s3,6-2.2,6l.09,0a36.66,36.66,0,0,1-4.46-.51,63.23,63.23,0,0,0-10.12-.92h0c-8.08.13-13.24,1.46-19.05,4.9-6.3,3.72-9.91,9.39-9.91,15.56,0,5.39,3.16,9.68,7.69,11a23.7,23.7,0,0,1-1.37,2.89,6.55,6.55,0,0,0,.78,9.75,15.68,15.68,0,0,0,9.59,3.13l.82,0c3.55,0,7.29-.93,11.26-1.92s7.78-1.93,11.15-1.93a8.87,8.87,0,0,1,5.12,1.27c.13.09.27.15.4.23a6.6,6.6,0,0,0,4.59,1.76,6.76,6.76,0,0,0,4.14-1.36,12.39,12.39,0,0,0,4.85,1,14.41,14.41,0,0,0,7.66-2.25,14,14,0,0,0,13.1,1.13,11.13,11.13,0,0,0,4.89,1.12,13.17,13.17,0,0,0,6.1-1.57,11.22,11.22,0,0,0,5.78,1.57,12.89,12.89,0,0,0,6.26-1.62,11.49,11.49,0,0,0,5.88,1.62,12.88,12.88,0,0,0,3.89-.62A6.53,6.53,0,0,0,187,164h8.25a6.55,6.55,0,0,0,6.29-4.74l.3-1a13.25,13.25,0,0,0,16.86,5,11.66,11.66,0,0,0,5.25,1.25,14.29,14.29,0,0,0,9.79-4.24l1.18,1,0,0a5.32,5.32,0,0,0,.46.45,15.48,15.48,0,0,0,9.78,3.25,13.88,13.88,0,0,0,10.34-4.29,12.1,12.1,0,0,0,9.63,4.29,15.38,15.38,0,0,0,7.14-1.71,11.61,11.61,0,0,0,5.23,1.23,13.59,13.59,0,0,0,7.42-2.26,14,14,0,0,0,13.11,1.13,11.14,11.14,0,0,0,4.9,1.12,14,14,0,0,0,8.23-2.88,18.23,18.23,0,0,0,10.19,2.88,19.12,19.12,0,0,0,18.48-14.12A6.55,6.55,0,0,0,336.91,142.88Z"/><path class="cls-3" d="M332.53,146a9.4,9.4,0,0,0,.76-3.72c0-4.61-3.84-7.59-9.79-7.59a16.25,16.25,0,0,0-10.74,3.65l4-13.92H302.42l-3,10.66a10,10,0,0,0-2.89-.39,13.46,13.46,0,0,0-9,3.54l.88-3.06h0a6.67,6.67,0,0,0,.67-3c0-4-3-6.68-7.56-6.68-3.2,0-5.67,1.51-6.74,3.89-2.12-4.13-7.68-6.23-16.63-6.23-8.36,0-13.07,1.16-18.65,4.58a17.32,17.32,0,0,0-6.9,7.41H220.73l0,.12a10.62,10.62,0,0,0-3.48-.59,13.51,13.51,0,0,0-7.52,2.41,5.72,5.72,0,0,0-4.73-2.41,7.84,7.84,0,0,0-2.76.48H168.46l3.1-10.75H157.22l-3,10.66a10,10,0,0,0-2.89-.39,13.74,13.74,0,0,0-11.18,6,8.2,8.2,0,0,0-8.23-6,9.93,9.93,0,0,0-3,.48c-1.49.15-1.84-1.16-.42-2.12l0,0c.08-.05.15-.11.25-.17l.09,0h0a8.65,8.65,0,0,0,1.15-.9,10.58,10.58,0,0,0,3.48-6.43,8.05,8.05,0,0,0-2.12-6.39,8.38,8.38,0,0,0-8-2.54,5.22,5.22,0,0,1-1.07,5.41c-.85.84-2.53,1.27-4.93,1.35h-.4a36.24,36.24,0,0,1-5.24-.56,59.22,59.22,0,0,0-9.51-.88h0c-7.37.12-12.05,1.31-17.26,4.4s-8.12,7.58-8.12,12.43c0,4.4,3,7.71,6.92,7.71A7,7,0,0,0,85.9,146l-.18.69c-.72,2.55-2.09,6.49-3.44,8.13l-2.23,2.73,2.37,1.79a12.12,12.12,0,0,0,7.48,2.39l.73,0c3.1,0,6.63-.88,10.38-1.81,4-1,8.21-2,12-2a12.47,12.47,0,0,1,7.14,1.88l.31.21a26.31,26.31,0,0,1,3,2.78l1.16-4.27h0l.47-1.63a7.7,7.7,0,0,0,7,3.89,11.71,11.71,0,0,0,7.84-3.33,9.62,9.62,0,0,0,7.41,3.33,9.51,9.51,0,0,0,5.63-1.73,7.27,7.27,0,0,0,4.77,1.73,10.55,10.55,0,0,0,6.34-2.36,7.64,7.64,0,0,0,5.54,2.36,10.2,10.2,0,0,0,6.45-2.46,8,8,0,0,0,5.69,2.46,9.24,9.24,0,0,0,2.86-.48h12.8l3.44-12H203l.27,0c0,.49-.07,1-.07,1.51,0,7.21,5,11,10,11a10.12,10.12,0,0,0,5.65-1.85,8,8,0,0,0,5.13,1.85,9.89,9.89,0,0,0,5.72-2l.15-.1a37.21,37.21,0,0,0,3.8-3l1.85,1.42,2.2,1.72a11.92,11.92,0,0,0,7.54,2.48c3.65,0,8.39-1.5,10.62-8.49,1,6.21,5.47,8.49,9.35,8.49a11.73,11.73,0,0,0,7.13-2.4,7.8,7.8,0,0,0,5.23,1.92,11,11,0,0,0,7.58-3.37,9.62,9.62,0,0,0,7.44,3.37,9.51,9.51,0,0,0,5.63-1.73,7.27,7.27,0,0,0,4.77,1.73c3,0,5.87-1.62,8.19-4,2.33,2.53,5.88,4,10.23,4a15.33,15.33,0,0,0,15-11.48C337.08,146.9,334.6,145.41,332.53,146Z"/><path class="cls-4" d="M207.49,140.28a3,3,0,0,0-3-3.15c-2.47,0-4,1.56-5.08,3.86l1-3.38H192.2l-2.41,8.33-.05,0c-.61,2.15-2.46,5.73-4.16,5.73a1,1,0,0,1-.87-1.1,8.81,8.81,0,0,1,.3-1.72l3.25-11.23H180l-2.08,7.26c-.87,3.2-2.72,6.78-4.27,6.78-.64,0-1-.38-1-1.1a5.6,5.6,0,0,1,.26-1.39l3.33-11.56H168l-2.8,9.78c-.85,2-2.28,4.36-3.64,4.36a1.11,1.11,0,0,1-1-1,12.38,12.38,0,0,1,.61-2.63l6.13-21.26H159l-3.52,12.33a5.36,5.36,0,0,0-4.61-2.05c-5.17,0-10.13,4.17-11,10.21-1,2.35-2.73,4.59-3.93,4.59a.68.68,0,0,1-.68-.72c0-1.43,1.93-5.21,1.93-8.22,0-3.63-2.27-5.88-5.75-5.88a9.41,9.41,0,0,0-5.67,2.34l.49-1.86h-7.41l-3.32,11.49H98.59l2.05-8.28a9.06,9.06,0,0,1,7-.85c2.41.61,3.81,2.09,3.48,3.38a4,4,0,0,0,4.26-2.83c.6-2.38-.45-4.91-4.11-5.83-3.2-.81-6.33.05-9.2,1.57l2.21-6.57c3.64-1.46,6.17-.19,10.38.59h0l.14,0,.63.11h0c4.51.75,9.29,1.53,12.06-1.09,3.16-3,3.32-6.51,1.24-8.71a4.29,4.29,0,0,0-3-1.44,5.82,5.82,0,0,1-2,4.43c-1.6,1.51-4.07,2.05-6.84,2.14-4.15.13-8.61-1.43-15.21-1.43s-10.86,1-15.83,4c-3.52,2.08-6.69,5.54-6.69,9.93,0,3,1.82,4.8,4,4.8a4.29,4.29,0,0,0,4-3.23A2.61,2.61,0,0,1,85.68,137c0-4.94,5.22-8.31,8.93-9.1-1.55,1.85-2.76,5-3.63,8l-2.88,11.2c-.64,2.26-1.86,6.91-4.34,9.54a9.2,9.2,0,0,0,5.75,1.8h.1c8.19.39,22.43-7.71,31.77-1.46h.17l3.06-10.65c.64-2.25,2-4.63,3.14-4.63A1.18,1.18,0,0,1,128.8,143c0,2.39-2.19,5.54-2.19,9.32a4.79,4.79,0,0,0,5.11,5.16c3.43,0,6.37-2.45,8.39-5.53a7.07,7.07,0,0,0,12.75,2.42c1,1.82,2.35,3.1,4.5,3.1,2.64,0,5.19-1.86,7.16-4.36a4.69,4.69,0,0,0,4.72,4.36c3.06,0,5.11-2.2,7.15-4.06a5.27,5.27,0,0,0,5,4.06,8.71,8.71,0,0,0,5.94-3l-.72,2.48h8.25l3.45-12h4.26A4.79,4.79,0,0,0,207.49,140.28Zm-58.6,13.61c-1.06,0-1.59-.91-1.59-2.34,0-3.73,3.06-11.18,5.49-11.18.83,0,1.44.91,1.44,2.15C154.22,146,151.31,153.89,148.89,153.89Z"/><path class="cls-4" d="M281,135.64c2.5,0,4.65-1.39,4.65-3.92S283.77,128,281,128c-2.42,0-4.43,1.24-4.43,3.77S278.51,135.64,281,135.64Z"/><path class="cls-4" d="M233.05,146.78h0c-1.6,2.47-3.75,5-5.41,5-.53,0-.83-.33-.83-1a7.25,7.25,0,0,1,.3-1.91l3.21-11.23h-8.09l-.72,1.67c-.68-1.39-2.8-2.15-4.73-2.15-5.56,0-11.12,5-11.12,12.23,0,5.21,3.33,8.07,7.11,8.07,3.52,0,6.09-3.2,6.09-3.2a4.92,4.92,0,0,0,4.69,3.2c4.61,0,9-6,10.25-10.6C234,146.29,233.4,146.39,233.05,146.78Zm-18.32,7.35c-.91,0-1.51-1.15-1.51-2.39,0-2.91,3.21-11.56,5.6-11.56.83,0,1.36.91,1.36,2.29C220.18,145.44,217.38,154.13,214.74,154.13Z"/><path class="cls-4" d="M333.12,148.2s0-.09.05-.14h0c0-.31-.35-.38-.58,0h0c-1.67,3-5.57,6-9.39,6-2.16,0-4.27-1-4.27-4,4.46,0,11.08-2.72,11.08-8.31,0-3.39-3.4-4.68-6.88-4.68-5.73,0-11.14,2.92-12.2,8.86-.66,2.2-2.45,5.76-4.14,5.76a1.11,1.11,0,0,1-1-1,12.47,12.47,0,0,1,.61-2.63l6.13-21.26h-8.28l-3.52,12.33a5.36,5.36,0,0,0-4.61-2.05c-5,0-9.78,3.86-10.88,9.55-.86,2.44-2.46,5-3.8,5a1,1,0,0,1-1-1,4.16,4.16,0,0,1,.26-1.24L284,137.6h-8.25l-3.14,10.8-.25.85c-.64,1.2-1.43,2.16-2.29,2.16-1.89,0-2-4.3-2.57-6.11a9.2,9.2,0,0,0-3.25-4.63c3.78-.62,8.06-2.48,8.06-7.36,0-5.16-4.8-7.69-14.71-7.69-7.45,0-11.84.91-17.14,4.16-3.52,2.15-6.69,5.73-6.69,10.27,0,3.06,1.82,5,4,5,2,0,3.4-1.43,4-3.34-.87-.43-1.63-1-1.63-2.91,0-5.11,5.22-8.6,8.93-9.41-1.55,1.91-2.76,5.21-3.63,8.26l-2.88,10.08c-.64,2.34-2.19,7.12-3.59,8.36a9,9,0,0,0,5.75,1.86c4,0,6.69-2.25,8.06-7.17l2.76-9.51h.76c1.25,0,2,1.1,2,3,0,1.72-.3,3.3-.3,5.3,0,5.83,3,8.36,6.66,8.36a9.45,9.45,0,0,0,7.58-3.95,4.88,4.88,0,0,0,4.79,3.47c3.26,0,6.16-2.61,8.13-5.7.85,3.45,3.39,5.7,6.89,5.7a7,7,0,0,0,5.9-3.1c1,1.82,2.35,3.1,4.5,3.1,3.29,0,6.46-2.89,8.5-6.33,1.17,4,4.8,6.33,9.92,6.33a12.48,12.48,0,0,0,12.08-9.1l0-.06S333.11,148.23,333.12,148.2Zm-9.18-8.78c1,0,1.7.86,1.7,2.1,0,3.15-3.44,5.4-6.51,5.4C319.14,143.76,321.48,139.42,323.94,139.42Zm-65.82-1.34h-1.59l.79-2.68c.94-3.39,2.42-6.88,5.22-6.88,1.4,0,2.53,1.24,2.53,3.15C265.08,135.93,261.64,138.08,258.12,138.08Zm36,15.81c-1.06,0-1.59-.91-1.59-2.34,0-3.73,3.06-11.18,5.49-11.18.83,0,1.44.91,1.44,2.15C299.43,146,296.52,153.89,294.1,153.89Z"/><path class="cls-5" d="M207.91,140.74a3,3,0,0,0-3-3.15c-2.47,0-4,1.56-5.08,3.86l1-3.38h-8.21l-2.41,8.33-.05,0c-.61,2.15-2.46,5.73-4.16,5.73a1,1,0,0,1-.87-1.1,8.81,8.81,0,0,1,.3-1.72l3.25-11.23H180.4l-2.08,7.26c-.87,3.2-2.72,6.78-4.27,6.78-.64,0-1-.38-1-1.1a5.6,5.6,0,0,1,.26-1.39l3.33-11.56h-8.28l-2.8,9.78c-.85,2-2.28,4.36-3.64,4.36a1.11,1.11,0,0,1-1-1,12.38,12.38,0,0,1,.61-2.63l6.13-21.26h-8.28l-3.52,12.33a5.36,5.36,0,0,0-4.61-2.05c-5.17,0-10.13,4.17-11,10.21-1,2.35-2.73,4.59-3.93,4.59a.68.68,0,0,1-.68-.72c0-1.43,1.93-5.21,1.93-8.22,0-3.63-2.27-5.88-5.75-5.88a9.41,9.41,0,0,0-5.67,2.34l.49-1.86h-7.41L116,149.55H99l2.05-8.28a9.06,9.06,0,0,1,7-.85c2.41.61,3.81,2.09,3.48,3.38a4,4,0,0,0,4.26-2.83c.6-2.38-.45-4.91-4.11-5.83-3.2-.81-6.33.05-9.2,1.57l2.21-6.57c3.64-1.46,6.17-.19,10.38.59h0l.14,0,.63.11h0c4.51.75,9.29,1.53,12.06-1.09,3.16-3,3.32-6.51,1.24-8.71a4.29,4.29,0,0,0-3-1.44,5.82,5.82,0,0,1-2,4.43c-1.6,1.51-4.07,2.05-6.84,2.14-4.15.13-8.61-1.43-15.21-1.43s-10.86,1-15.83,4c-3.52,2.08-6.69,5.54-6.69,9.93,0,3,1.82,4.8,4,4.8a4.29,4.29,0,0,0,4-3.23,2.61,2.61,0,0,1-1.63-2.82c0-4.94,5.22-8.31,8.93-9.1-1.55,1.85-2.76,5-3.63,8l-2.88,11.2c-.64,2.26-1.86,6.91-4.34,9.54a9.2,9.2,0,0,0,5.75,1.8H90c8.19.39,22.43-7.71,31.77-1.46H122L125,146.76c.64-2.25,2-4.63,3.14-4.63a1.18,1.18,0,0,1,1.06,1.29c0,2.39-2.19,5.54-2.19,9.32a4.79,4.79,0,0,0,5.11,5.16c3.43,0,6.37-2.45,8.39-5.53a7.07,7.07,0,0,0,12.75,2.42c1,1.82,2.35,3.1,4.5,3.1,2.64,0,5.19-1.86,7.16-4.36a4.69,4.69,0,0,0,4.72,4.36c3.06,0,5.11-2.2,7.15-4.06a5.27,5.27,0,0,0,5,4.06,8.71,8.71,0,0,0,5.94-3l-.72,2.48h8.25l3.45-12H203A4.79,4.79,0,0,0,207.91,140.74Zm-58.6,13.61c-1.06,0-1.59-.91-1.59-2.34,0-3.73,3.06-11.18,5.49-11.18.83,0,1.44.91,1.44,2.15C154.64,146.47,151.73,154.35,149.31,154.35Z"/><path class="cls-6" d="M281.43,136.1c2.5,0,4.65-1.39,4.65-3.92s-1.89-3.77-4.65-3.77c-2.42,0-4.43,1.24-4.43,3.77S278.93,136.1,281.43,136.1Z"/><path class="cls-7" d="M233.48,147.24h0c-1.6,2.47-3.75,5-5.41,5-.53,0-.83-.33-.83-1a7.25,7.25,0,0,1,.3-1.91l3.21-11.23h-8.09l-.72,1.67c-.68-1.39-2.8-2.15-4.73-2.15-5.56,0-11.12,5-11.12,12.23,0,5.21,3.33,8.07,7.11,8.07,3.52,0,6.09-3.2,6.09-3.2a4.92,4.92,0,0,0,4.69,3.2c4.61,0,9-6,10.25-10.6C234.38,146.75,233.82,146.85,233.48,147.24Zm-18.32,7.35c-.91,0-1.51-1.15-1.51-2.39,0-2.91,3.21-11.56,5.6-11.56.83,0,1.36.91,1.36,2.29C220.6,145.9,217.8,154.59,215.16,154.59Z"/><path class="cls-8" d="M333.54,148.66s0-.09.05-.14h0c0-.31-.35-.38-.58,0h0c-1.67,3-5.57,6-9.39,6-2.16,0-4.27-1-4.27-4,4.46,0,11.08-2.72,11.08-8.31,0-3.39-3.4-4.68-6.88-4.68-5.73,0-11.14,2.92-12.2,8.86-.66,2.2-2.45,5.76-4.14,5.76a1.11,1.11,0,0,1-1-1,12.47,12.47,0,0,1,.61-2.63l6.13-21.26h-8.28l-3.52,12.33a5.36,5.36,0,0,0-4.61-2.05c-5,0-9.78,3.86-10.88,9.55-.86,2.44-2.46,5-3.8,5a1,1,0,0,1-1-1,4.16,4.16,0,0,1,.26-1.24l3.41-11.8h-8.25l-3.14,10.8-.25.85c-.64,1.2-1.43,2.16-2.29,2.16-1.89,0-2-4.3-2.57-6.11a9.2,9.2,0,0,0-3.25-4.63c3.78-.62,8.06-2.48,8.06-7.36,0-5.16-4.8-7.69-14.71-7.69-7.45,0-11.84.91-17.14,4.16-3.52,2.15-6.69,5.73-6.69,10.27,0,3.06,1.82,5,4,5,2,0,3.4-1.43,4-3.34-.87-.43-1.63-1-1.63-2.91,0-5.11,5.22-8.6,8.93-9.41-1.55,1.91-2.76,5.21-3.63,8.26l-2.88,10.08c-.64,2.34-2.19,7.12-3.59,8.36a9,9,0,0,0,5.75,1.86c4,0,6.69-2.25,8.06-7.17l2.76-9.51h.76c1.25,0,2,1.1,2,3,0,1.72-.3,3.3-.3,5.3,0,5.83,3,8.36,6.66,8.36a9.45,9.45,0,0,0,7.58-3.95,4.88,4.88,0,0,0,4.79,3.47c3.26,0,6.16-2.61,8.13-5.7.85,3.45,3.39,5.7,6.89,5.7a7,7,0,0,0,5.9-3.1c1,1.82,2.35,3.1,4.5,3.1,3.29,0,6.46-2.89,8.5-6.33,1.17,4,4.8,6.33,9.92,6.33a12.48,12.48,0,0,0,12.08-9.1l0-.06S333.53,148.69,333.54,148.66Zm-9.18-8.78c1,0,1.7.86,1.7,2.1,0,3.15-3.44,5.4-6.51,5.4C319.56,144.22,321.9,139.88,324.36,139.88Zm-65.82-1.34H257l.79-2.68c.94-3.39,2.42-6.88,5.22-6.88,1.4,0,2.53,1.24,2.53,3.15C265.5,136.39,262.06,138.54,258.54,138.54Zm36,15.81c-1.06,0-1.59-.91-1.59-2.34,0-3.73,3.06-11.18,5.49-11.18.83,0,1.44.91,1.44,2.15C299.85,146.47,296.94,154.35,294.52,154.35Z"/><path class="cls-9" d="M135.16,181.11c-.71.31-1,.41-1.21.5-1.83.72-2.86.74-3.63.05a8.09,8.09,0,0,1-1.64-3c-1.24-3.16-1.48-4.18-1.17-5,.25-.69.82-1.18,2-1.76.52-.25,1.5-.66,3-1.26a21.43,21.43,0,0,1,4.42-1.48c1.78-.22,2.42.52,4,4.57.83,2.1,1,2.87.76,3.58-.26.86-1,1.45-2.93,2.19l-.63.25-.93-2.37c.78-.33.93-.42,1.06-.63s0-1-.59-2.5-.82-1.87-1.2-2-1.21,0-3,.76-2.36,1-2.57,1.43-.13.82.5,2.42c1,2.5,1,2.53,2.8,1.85Z"/><path class="cls-10" d="M138.43,192.27l-2.9-4.71-2.23.53-1.52-2.48,13.28-3,2.07,3.38-8.67,10.47L136.95,194Zm5.25-6.17-.26-.43-5,1.18,2,3.18Z"/><path class="cls-11" d="M153,193.76l-4.19,9.67.18.2,7.08-6.47,1.74,1.93-9.55,8.62-3-3.29,4.17-9.69-.19-.21L142.19,201l-1.74-1.93,9.55-8.62Z"/><path class="cls-12" d="M162.57,212.91c-.45.63-.62.84-.78,1.05-1.21,1.55-2.09,2.09-3.09,1.9a8.09,8.09,0,0,1-2.92-1.7c-2.68-2.08-3.4-2.84-3.57-3.72a3.39,3.39,0,0,1,.82-2.54c.33-.48,1-1.33,2-2.63a21.37,21.37,0,0,1,3-3.53c1.42-1.1,2.35-.79,5.78,1.88,1.78,1.38,2.31,2,2.49,2.69.21.87-.16,1.78-1.4,3.38l-.41.53-2-1.56c.5-.69.59-.84.59-1.08s-.51-.86-1.79-1.85-1.66-1.19-2-1.1-1,.65-2.21,2.19-1.51,2.07-1.48,2.54.3.77,1.66,1.83c2.12,1.65,2.18,1.65,3.35.16Z"/><path class="cls-13" d="M176.86,211.86l-1.45,2.66-5.93-3.23-.9,1.64,5.63,3.07-1.36,2.49-5.63-3.07-1,1.8,6,3.26-1.48,2.71-8.17-4.46,6.17-11.3Z"/><path class="cls-14" d="M178.2,212.48l5.81,2c2.72,1,2.72,1,3.06,1.61s.3,1.64-.45,3.75c-.64,1.8-1,2.45-1.6,2.79a1.53,1.53,0,0,1-1.1.18c1.14.65,1.16,1.27.12,4.06l-.4,1.13-2.37-.83.23-.64c.48-1.36.59-1.82.51-2.19s-.23-.45-1.22-.8l-3.39-1.2-1.09,3.08-2.4-.85Zm3.66,8.07c1.22.39,1.22.39,1.45.26s.45-.45.72-1.22.32-1.2.13-1.45-.16-.18-1.24-.58l-3.38-1.19-1.05,3Z"/><path class="cls-15" d="M203.16,226.22c-.06.77-.09,1-.12,1.31-.22,2-.69,2.87-1.65,3.23a8.1,8.1,0,0,1-3.38.07c-3.38-.38-4.39-.64-5-1.31a3.39,3.39,0,0,1-.62-2.59c0-.58.12-1.64.3-3.27a21.42,21.42,0,0,1,.75-4.59c.64-1.68,1.59-1.9,5.91-1.42,2.24.25,3,.47,3.53,1s.79,1.6.57,3.62l-.07.67-2.53-.28c.07-.85.06-1-.07-1.23s-.88-.47-2.49-.65-2-.15-2.32.13-.53,1.09-.74,3-.21,2.56.07,2.94.66.5,2.37.69c2.67.3,2.72.26,2.94-1.61Z"/><path class="cls-16" d="M208.16,218.23l.29,4.6,5.75-.36-.29-4.6,2.67-.17.8,12.85-2.67.17-.29-4.64-5.75.36.29,4.64-2.67.17-.8-12.85Z"/><path class="cls-17" d="M229,225.83l-5.37,1.33-.17,2.29-2.83.7,1.2-13.55,3.85-1L233,227.08l-2.81.7ZM224.68,219l-.49.12-.4,5.13,3.63-.9Z"/><path class="cls-18" d="M233.24,213l3.78,8.81,5.47-2.34,1.29,3-7.92,3.39-5.07-11.83Z"/><path class="cls-19" d="M242.13,208.67l5,8.2,5.08-3.08,1.7,2.81-7.36,4.46-6.67-11Z"/><path class="cls-20" d="M255.4,198.94l1.93,2.34-5.2,4.3,1.19,1.44,4.94-4.08,1.8,2.19-4.94,4.08,1.3,1.58,5.24-4.33,2,2.38-7.17,5.92-8.19-9.92Z"/><path class="cls-21" d="M259.42,194.6l10.12,3,.17-.2-7.3-6.22,1.7-2,9.74,8.41L271,200.93,260.82,198l-.18.21,7.3,6.22-1.7,2L256.51,198Z"/><path class="cls-22" d="M275.4,181.18l.3.18c1.1.64,3,1.8,3.48,2.15,1.25.85,1.74,1.76,1.5,2.78a12.94,12.94,0,0,1-1.73,3.62c-1.46,2.47-2.06,3.15-3,3.39a3.91,3.91,0,0,1-2.64-.61c-.47-.23-1.61-.87-2.94-1.66-3-1.74-4-2.59-4.26-3.56s.2-2.12,1.68-4.65c1.58-2.68,2.44-3.51,3.59-3.48.73,0,1.46.33,3.1,1.28l-1.29,2.19c-.66-.37-.8-.43-1-.37s-.72.54-1.7,2.21c-1.51,2.57-1.5,2.59,1.38,4.28,1.88,1.1,2.49,1.37,2.92,1.31s.51-.21.9-.81l.79-1.27c1.1-1.87,1.29-2.3,1.12-2.67s-.29-.38-1.16-.88l-1.7,2.89-2.21-1.3Z"/><path class="cls-23" d="M274.53,168.22l2.83,1.09-2.42,6.3,1.75.67,2.3-6,2.65,1-2.3,6,1.91.73,2.44-6.35,2.88,1.11-3.34,8.69-12-4.62Z"/><path class="cls-24" d="M148,101.68c.72.41,1,.56,1.22.72,1.8,1.12,2.39,2.13,2.09,3.56a16.45,16.45,0,0,1-2.24,4.49c-2.68,4.3-3.64,5.52-4.72,6a3.18,3.18,0,0,1-3-.29c-.56-.28-1.55-.86-3-1.79-2.63-1.64-3.56-2.31-4.06-3-1.23-1.56-.81-2.91,2.63-8.42,1.78-2.86,2.52-3.77,3.4-4.23,1.07-.57,2.14-.36,4,.79l.62.38-2,3.22c-.8-.45-1-.52-1.27-.44s-1.07,1-2.35,3-1.54,2.63-1.46,3.13.72,1.16,2.5,2.27,2.41,1.37,3,1.17,1-.66,2.31-2.84c2.12-3.4,2.12-3.48.41-4.58Z"/><path class="cls-25" d="M155.35,83.4c1.25-.07,2.42.74,5.18,3.62s3.51,4.07,3.38,5.32-.87,2.15-4.64,5.76-4.71,4.31-6,4.38-2.42-.74-5.16-3.61-3.51-4.07-3.39-5.33.85-2.14,4.72-5.84C153.15,84.18,154.12,83.49,155.35,83.4ZM149.25,94.1a8,8,0,0,0,1.87,2.38c1.21,1.26,1.68,1.59,2.28,1.57s1.14-.4,3.39-2.55,2.64-2.61,2.7-3.27-.27-1.09-1.42-2.3c-1.44-1.5-2.07-2-2.62-2.09s-1,.12-3.67,2.64S149,93.27,149.25,94.1Z"/><path class="cls-26" d="M162.78,77.6l5.27,8.89L175.69,82l1.8,3-11.06,6.55-7.07-11.93Z"/><path class="cls-27" d="M189.09,67.3c1.16.48,1.84,1.73,3.05,5.53s1.35,5.2.69,6.26-1.73,1.55-6.71,3.13S180,84,178.84,83.53,177,81.8,175.8,78s-1.35-5.2-.7-6.28,1.71-1.55,6.81-3.16C186.77,67,187.94,66.84,189.09,67.3Zm-10.2,6.92a8,8,0,0,0,.63,3c.53,1.66.8,2.17,1.35,2.41s1.2.14,4.17-.8,3.51-1.18,3.86-1.75.24-1.1-.26-2.69c-.63-2-1-2.7-1.43-3s-1-.35-4.45.76S179,73.35,178.89,74.22Z"/><path class="cls-28" d="M194.51,65.51l9.17-.55c4.3-.25,4.3-.25,5.13.24,1,.59,1.32,1.48,1.47,3.89.12,2.06,0,2.86-.66,3.46a2.59,2.59,0,0,1-1.42.67c1.94.13,2.31.74,2.43,3.94l.08,1.29-3.73.22,0-.73c-.09-1.56-.2-2.05-.52-2.39s-.56-.34-2.13-.25l-5.36.32.21,3.51-3.79.23ZM204,71.84c1.9-.16,1.9-.16,2.15-.38s.37-.65.32-1.52-.23-1.32-.63-1.48-.32-.11-2,0l-5.34.32.2,3.41Z"/><path class="cls-29" d="M224.45,78.51l-8.1-1.56-1.49,2.11-4.26-.82,9.1-12.37L225.5,67l3.79,14.85L225.05,81Zm-2.11-8.86-.73-.14-3.36,4.71,5.47,1.06Z"/><path class="cls-30" d="M235.35,69.53l8.12,3.88c2.87,1.37,3.25,1.57,4.11,2.26a3.12,3.12,0,0,1,1.19,3.17,13.87,13.87,0,0,1-1.44,3.85c-1.57,3.28-2.43,4.44-3.66,4.89s-2.36.16-6.16-1.65l-8.12-3.88Zm3.71,13.22c3.11,1.48,3.42,1.4,4.76-1.42.74-1.56,1-2.31.81-2.88s-.56-.91-2.65-1.91l-4.75-2.26-3,6.19Z"/><path class="cls-31" d="M265.58,89.75c.21,1.23-.47,2.48-3,5.54s-3.67,3.93-4.92,3.93-2.23-.63-6.23-4-4.79-4.22-5-5.46.47-2.48,3-5.52,3.67-3.93,4.93-4,2.22.62,6.32,4.06C264.57,87.65,265.36,88.53,265.58,89.75Zm-11.3-4.91A8,8,0,0,0,252.11,87c-1.13,1.34-1.4,1.84-1.31,2.43s.52,1.09,2.9,3.09,2.88,2.34,3.54,2.33,1.06-.39,2.13-1.66c1.34-1.59,1.76-2.27,1.8-2.84s-.23-1-3-3.36S255.08,84.48,254.28,84.84Z"/><path class="cls-32" d="M271.65,95.87l-3.07,2.61c-1.33,1.13-2,1.52-2.6,1.57-.81.07-1.32-.28-2.6-1.77-.23-.27-.37-.44-.63-.77l1.66-1.41.18.21.22.26c.42.5.86.5,1.48,0l.3-.25-.67-.79,3.14-2.66Z"/><path class="cls-33" d="M267.7,105.93c-.71.44-.9.64-.92,1s.15.81,1.55,3.09c2.13,3.48,2.13,3.48,3.2,2.82.69-.43.72-.77.1-1.82l-1-1.75-.48-.87c-.44-.79-.92-1.65-1.46-2.66-1.53-2.68-1.23-3.88,1.37-5.48,2.25-1.38,3.61-1.43,4.87-.18a33.85,33.85,0,0,1,3.09,4.56c1.86,3,2.4,4.26,2.29,5.36-.08.9-.67,1.64-2,2.47-.11.07-.35.22-.61.35l-1.92-3.13c.64-.44.77-.58.78-.92s-.2-.8-1.67-3.19c-1.62-2.63-1.83-2.83-2.7-2.29-.44.27-.59.56-.47.95a26.59,26.59,0,0,0,1.88,3.54c2,3.58,2.36,4.32,2.31,5.3s-.71,1.82-2.29,2.79c-2.14,1.32-3.4,1.5-4.55.67-.66-.48-1.57-1.76-3.52-4.93s-2.64-4.7-2.59-5.77.61-1.71,2.18-2.68l.62-.38Z"/></svg>