<svg id="Layer_1" data-name="Layer 1" xmlns="http://www.w3.org/2000/svg" viewBox="0 0 410 300"><defs><style>.cls-1{fill:#fff;}.cls-2{fill:#221f1f;}.cls-3{fill:#fdb816;}</style></defs><title>identities</title><path d="M103.1,222.9A2.13,2.13,0,0,0,105,224a1.49,1.49,0,0,0,1.67-1.5c0-2.12-4-1-4-3.6a2.2,2.2,0,0,1,2.47-2.13,2.9,2.9,0,0,1,2.07.9l-.44.5a2.41,2.41,0,0,0-1.64-.73c-.92,0-1.69.45-1.69,1.41,0,1.88,4,.89,4,3.57a2.26,2.26,0,0,1-2.46,2.25,2.75,2.75,0,0,1-2.49-1.32Z"/><path d="M105,224.85a3,3,0,0,1-2.66-1.42l-.09-.16.87-.66.12.18a1.93,1.93,0,0,0,1.78,1,1.29,1.29,0,0,0,1.47-1.3c0-.79-.64-1-1.71-1.36s-2.33-.69-2.33-2.24a2.41,2.41,0,0,1,2.67-2.33,3.09,3.09,0,0,1,2.22,1l.12.13-.69.79-.15-.13a2.2,2.2,0,0,0-1.51-.68c-.72,0-1.49.32-1.49,1.21,0,.68.61.9,1.61,1.21s2.43.75,2.43,2.36A2.45,2.45,0,0,1,105,224.85Zm-2.22-1.48a2.54,2.54,0,0,0,2.22,1.07,2.07,2.07,0,0,0,2.26-2c0-1.31-1-1.63-2.14-2-.93-.29-1.89-.59-1.89-1.6s.74-1.62,1.89-1.62a2.45,2.45,0,0,1,1.61.65l.19-.21a2.73,2.73,0,0,0-1.8-.71,2,2,0,0,0-2.26,1.93c0,1.24,1,1.54,2,1.85s2,.59,2,1.74a1.7,1.7,0,0,1-1.88,1.7,2.3,2.3,0,0,1-2-1Z"/><path d="M116.56,222.08a2.76,2.76,0,0,1-5.51,0v-5.18l.71-.17v5.37a1.93,1.93,0,0,0,2,1.86,2,2,0,0,0,2-2.07v-5l.71-.17Z"/><path d="M113.81,224.85a2.66,2.66,0,0,1-3-2.77v-5.34l1.12-.27v5.62a1.74,1.74,0,0,0,1.84,1.66,1.8,1.8,0,0,0,1.84-1.87v-5.15l1.11-.27v5.6A2.66,2.66,0,0,1,113.81,224.85Zm-2.55-7.78v5a2.56,2.56,0,0,0,5.1,0V217l-.31.07v4.83a2.19,2.19,0,0,1-2.25,2.28,2.14,2.14,0,0,1-2.24-2.07V217Z"/><path d="M121.29,224.47l-.71.09v-7.66h1.48a2.37,2.37,0,0,1,2.63,2.52c0,1.62-1,2.52-2.86,2.52h-.54Zm0-3.22h.66a1.74,1.74,0,0,0,2-1.83,1.67,1.67,0,0,0-1.73-1.83h-.88Z"/><path d="M120.38,224.79V216.7h1.68a2.57,2.57,0,0,1,2.83,2.72c0,1.73-1.11,2.72-3.06,2.72h-.34v2.51Zm.4-7.69v7.23l.3,0v-2.56h.74c1.71,0,2.66-.82,2.66-2.32a2.16,2.16,0,0,0-2.42-2.31Zm1.16,4.35h-.86v-4.07h1.09a1.88,1.88,0,0,1,1.93,2A1.93,1.93,0,0,1,121.94,221.46Zm-.45-.4h.45a1.55,1.55,0,0,0,1.76-1.63,1.47,1.47,0,0,0-1.53-1.62h-.68Z"/><path d="M128.9,224.47l-.71.09v-7.66h1.48a2.36,2.36,0,0,1,2.63,2.52c0,1.62-1,2.52-2.86,2.52h-.54Zm0-3.22h.66a1.74,1.74,0,0,0,2-1.83,1.67,1.67,0,0,0-1.73-1.83h-.88Z"/><path d="M128,224.79V216.7h1.68a2.57,2.57,0,0,1,2.83,2.72c0,1.73-1.11,2.72-3.06,2.72h-.34v2.51Zm.4-7.69v7.23l.31,0v-2.56h.74c1.71,0,2.65-.82,2.65-2.32a2.16,2.16,0,0,0-2.42-2.31Zm1.17,4.35h-.86v-4.07h1.08a1.88,1.88,0,0,1,1.93,2A1.93,1.93,0,0,1,129.56,221.46Zm-.45-.4h.45a1.54,1.54,0,0,0,1.76-1.63,1.47,1.47,0,0,0-1.53-1.62h-.68Z"/><path d="M143.57,220.69a4.17,4.17,0,1,1-4.16-4A4.08,4.08,0,0,1,143.57,220.69Zm-7.54,0a3.38,3.38,0,1,0,3.38-3.27A3.37,3.37,0,0,0,136,220.69Z"/><path d="M139.41,224.85a4.16,4.16,0,1,1,4.36-4.16A4.27,4.27,0,0,1,139.41,224.85Zm0-7.91a3.76,3.76,0,1,0,4,3.75A3.87,3.87,0,0,0,139.41,216.94Zm0,7.23a3.48,3.48,0,1,1,3.59-3.48A3.58,3.58,0,0,1,139.41,224.17Zm0-6.55a3.07,3.07,0,1,0,3.18,3.07A3.17,3.17,0,0,0,139.41,217.62Z"/><path d="M147.17,224.56v-7.66h1.58a2.18,2.18,0,0,1,2.3,2.22,2.11,2.11,0,0,1-1.87,2.16l2.41,2.91-.72.37-2.94-3.7h0v3.61Zm.71-3.83h1c.94,0,1.4-.67,1.4-1.61a1.48,1.48,0,0,0-1.39-1.53h-1Z"/><path d="M150.81,224.82l-2.72-3.43v3.26l-1.12.14V216.7h1.78a2.38,2.38,0,0,1,2.5,2.42,2.27,2.27,0,0,1-1.71,2.29l2.36,2.85Zm-3.44-7.71v7.23l.31,0v-6.91h1.2a1.69,1.69,0,0,1,1.59,1.73,1.59,1.59,0,0,1-1.6,1.81h-.63l2.68,3.37.35-.18-2.47-3,.34-.06a1.9,1.9,0,0,0,1.7-2,2,2,0,0,0-2.1-2Zm.71,3.42h.78a1.23,1.23,0,0,0,1.2-1.41,1.28,1.28,0,0,0-1.19-1.33h-.8Z"/><path d="M156.91,224.47l-.71.09v-7H154l.16-.69H159v.69h-2.07Z"/><path d="M156,224.79v-7h-2.23l.26-1.09h5.17v1.09h-2.07v6.86Zm-1.72-7.4h2.13v6.94l.31,0v-6.91h2.07v-.28h-4.44Z"/><path d="M165,216h.28v9.84H165Z"/><rect x="164.84" y="215.83" width="0.68" height="10.25"/><path d="M173.18,221.49l-1.6,3.15-.75-.17,4-7.74h0l4,7.74-.69.15-1.61-3.13Zm1.66-3.21-1.32,2.53h2.63Z"/><path d="M171.69,224.88l-1.16-.27,4.18-8.08h.25l.08.11,4.12,8-1.1.24-1.63-3.16H173.3Zm-.56-.54.35.08,1.58-3.12h3.62l1.6,3.11.28-.06-3.71-7.18Zm5.35-3.32h-3.29l1.65-3.17Zm-2.62-.4h2l-1-1.89Z"/><path d="M182,216.91h2a3.72,3.72,0,0,1,3.84,3.73,3.77,3.77,0,0,1-3.84,3.83h-2Zm.71,6.88h1.16a3.08,3.08,0,0,0,3.21-3.15,2.88,2.88,0,0,0-3-3h-1.33Z"/><path d="M184,224.68h-2.22v-8H184a3.9,3.9,0,0,1,4,3.94A4,4,0,0,1,184,224.68Zm-1.82-.4H184a3.56,3.56,0,0,0,3.64-3.63,3.51,3.51,0,0,0-3.64-3.53h-1.82Zm1.67-.28h-1.36v-6.6H184a3.07,3.07,0,0,1,3.24,3.25A3.27,3.27,0,0,1,183.83,224Zm-1-.4h1a2.88,2.88,0,0,0,3-2.95A2.69,2.69,0,0,0,184,217.8h-1.13Z"/><path d="M197.24,216.73l.74.17-3.81,7.74h0l-3.65-7.74.75-.17,2.91,6.22Z"/><path d="M194.3,224.85H194l-3.81-8.08,1.15-.26,2.8,6,3-6,1.15.26Zm-3.5-7.8,3.37,7.15,3.52-7.15-.34-.08-3.19,6.45-3-6.45Z"/><path d="M208.86,220.69a4.17,4.17,0,1,1-4.16-4A4.08,4.08,0,0,1,208.86,220.69Zm-7.54,0a3.38,3.38,0,1,0,3.39-3.27A3.37,3.37,0,0,0,201.32,220.69Z"/><path d="M204.7,224.85a4.16,4.16,0,1,1,4.36-4.16A4.27,4.27,0,0,1,204.7,224.85Zm0-7.91a3.76,3.76,0,1,0,4,3.75A3.87,3.87,0,0,0,204.7,216.94Zm0,7.23a3.48,3.48,0,1,1,3.58-3.48A3.58,3.58,0,0,1,204.7,224.17Zm0-6.55a3.07,3.07,0,1,0,3.18,3.07A3.17,3.17,0,0,0,204.7,217.62Z"/><path d="M217.48,224.29a3.75,3.75,0,0,1-1.48.35,4,4,0,1,1,0-7.91,3.85,3.85,0,0,1,1.48.35l.11.84a2.94,2.94,0,0,0-1.64-.51,3.28,3.28,0,0,0,0,6.55,2.79,2.79,0,0,0,1.64-.51Z"/><path d="M216,224.85a4.16,4.16,0,1,1,0-8.32,4.14,4.14,0,0,1,1.56.37l.1,0,.18,1.43-.38-.29a2.75,2.75,0,0,0-1.52-.47,3.07,3.07,0,0,0,0,6.14,2.56,2.56,0,0,0,1.52-.47l.38-.29-.18,1.42-.1,0A3.91,3.91,0,0,1,216,224.85Zm0-7.91a3.75,3.75,0,1,0,0,7.51,3.5,3.5,0,0,0,1.29-.29l0-.31a3.1,3.1,0,0,1-1.39.32,3.48,3.48,0,0,1,0-7,3.29,3.29,0,0,1,1.39.32l0-.31A3.54,3.54,0,0,0,216,216.94Z"/><path d="M222.75,221.49l-1.59,3.15-.76-.17,4-7.74h0l4,7.74-.68.15-1.62-3.13Zm1.67-3.21-1.32,2.53h2.63Z"/><path d="M221.27,224.88l-1.16-.27,4.18-8.08h.25l.08.11,4.12,8-1.09.24L226,221.7h-3.13Zm-.57-.54.35.08,1.58-3.12h3.62l1.6,3.11.28-.06-3.71-7.18Zm5.35-3.32h-3.29l1.66-3.17Zm-2.62-.4h2l-1-1.89Z"/><path d="M233,224.47l-.72.09v-7h-2.18l.16-.69h4.8v.69H233Z"/><path d="M232.11,224.79v-7h-2.23l.26-1.09h5.16v1.09h-2.07v6.86Zm-1.72-7.4h2.13v6.94l.31,0v-6.91h2.07v-.28h-4.44Z"/><path d="M238.59,224.47v-7.57h4.25l.14.69H239.3v2.7h3.15V221H239.3v2.81h3.87l-.12.69Z"/><path d="M243.22,224.68h-4.84v-8H243l.22,1.09h-3.72v2.29h3.15v1.09h-3.15v2.41h3.91Zm-4.43-.4h4.09l0-.28H239.1v-3.22h3.15v-.28H239.1v-3.1h3.63l-.06-.28h-3.88Z"/><path d="M249.76,216H250v9.84h-.28Z"/><rect x="249.56" y="215.83" width="0.68" height="10.25"/><path d="M257,216.91l.71-.17v7.74l-.71.09Z"/><path d="M256.83,224.79v-8l1.12-.27v8.17Zm.4-7.73v7.27l.31,0V217Z"/><path d="M267.54,216.91l.72-.13v7.87h0L263,218.54h0v5.93l-.71.09v-7.83h0l5.26,6.07h0Z"/><path d="M268.46,224.85h-.32l-5-5.79v5.6l-1.12.14v-8.26h.29l.09.07,4.93,5.69v-5.56l1.12-.2Zm-6-7.6v7.09l.31,0v-6H263l.09.07,4.93,5.73V217l-.31.06V223h-.29l-.08-.07Z"/><path d="M272.76,222.9a2.14,2.14,0,0,0,2,1.06,1.49,1.49,0,0,0,1.67-1.5c0-2.12-4-1-4-3.6a2.2,2.2,0,0,1,2.47-2.13,2.88,2.88,0,0,1,2.07.9l-.43.5a2.42,2.42,0,0,0-1.64-.73c-.92,0-1.69.45-1.69,1.41,0,1.88,4,.89,4,3.57a2.27,2.27,0,0,1-2.47,2.25,2.74,2.74,0,0,1-2.49-1.32Z"/><path d="M274.7,224.85a2.94,2.94,0,0,1-2.66-1.42l-.09-.15.86-.66.12.18a1.93,1.93,0,0,0,1.78,1,1.29,1.29,0,0,0,1.47-1.3c0-.79-.64-1-1.71-1.36s-2.33-.69-2.33-2.24a2.41,2.41,0,0,1,2.67-2.33,3.06,3.06,0,0,1,2.22,1l.12.13-.68.79-.15-.13a2.22,2.22,0,0,0-1.51-.68c-.35,0-1.48.09-1.48,1.21,0,.68.61.9,1.61,1.21s2.43.75,2.43,2.36A2.45,2.45,0,0,1,274.7,224.85Zm-2.22-1.48a2.53,2.53,0,0,0,2.22,1.07,2.07,2.07,0,0,0,2.26-2c0-1.31-1-1.63-2.14-2-.93-.29-1.9-.59-1.9-1.6s.74-1.62,1.89-1.62a2.47,2.47,0,0,1,1.62.65l.18-.21a2.71,2.71,0,0,0-1.8-.71,2,2,0,0,0-2.26,1.93c0,1.24,1,1.54,2,1.85s2,.59,2,1.74a1.7,1.7,0,0,1-1.88,1.7,2.31,2.31,0,0,1-2-1Z"/><path d="M281.77,224.47l-.71.09v-7.66h1.48a2.37,2.37,0,0,1,2.63,2.52c0,1.62-1,2.52-2.86,2.52h-.54Zm0-3.22h.65a1.74,1.74,0,0,0,2-1.83,1.67,1.67,0,0,0-1.73-1.83h-.88Z"/><path d="M280.85,224.79V216.7h1.68a2.57,2.57,0,0,1,2.83,2.72c0,1.73-1.11,2.72-3.06,2.72H282v2.51Zm.4-7.69v7.23l.31,0v-2.56h.74c1.71,0,2.65-.82,2.65-2.32a2.16,2.16,0,0,0-2.42-2.31Zm1.16,4.35h-.85v-4.07h1.08a1.88,1.88,0,0,1,1.93,2A1.93,1.93,0,0,1,282.42,221.46Zm-.45-.4h.45c1.13,0,1.76-.58,1.76-1.63a1.46,1.46,0,0,0-1.53-1.62H282Z"/><path d="M289.07,216.91l.71-.17v7.74l-.71.09Z"/><path d="M288.87,224.79v-8l1.11-.27v8.17Zm.4-7.73v7.27l.31,0V217Z"/><path d="M294.23,224.56v-7.66h1.59a2.17,2.17,0,0,1,2.29,2.22,2.1,2.1,0,0,1-1.87,2.16l2.41,2.91-.72.37-2.94-3.7h0v3.61Zm.71-3.83h1c.94,0,1.4-.67,1.4-1.61a1.48,1.48,0,0,0-1.39-1.53h-1Z"/><path d="M297.87,224.82l-.1-.13-2.62-3.3v3.27l-1.12.14V216.7h1.79a2.38,2.38,0,0,1,2.49,2.42,2.27,2.27,0,0,1-1.71,2.29l2.36,2.85Zm-3.44-7.71v7.23l.31,0v-6.91h1.2a1.69,1.69,0,0,1,1.59,1.73,1.59,1.59,0,0,1-1.6,1.81h-.63l2.68,3.37.35-.18-2.47-3,.34-.06a1.89,1.89,0,0,0,1.7-2,2,2,0,0,0-2.09-2Zm.71,3.42h.78a1.23,1.23,0,0,0,1.2-1.41,1.28,1.28,0,0,0-1.18-1.33h-.8Z"/><path d="M302.14,224.47v-7.57h4.26l.14.69h-3.68v2.7H306V221h-3.16v2.81h3.88l-.12.69Z"/><path d="M306.77,224.68h-4.83v-8h4.63l.21,1.09h-3.73v2.29h3.16v1.09h-3.16v2.41H307Zm-4.43-.4h4.09l0-.28h-3.84v-3.22h3.16v-.28h-3.16v-3.1h3.64l-.06-.28h-3.89Z"/><path class="cls-1" d="M248.28,123.15c-2.1-.54-4.26-1-6.49-1.46l-2.16-6.89c-1.31-.31-2.68-.59-4.07-.83V95.21H217.24V77.48c0-12.22-13-12.09-13-12.09v4.69c-11.74,2.47-9.86,13.86-9.86,13.86H176.49v30c-1.4.24-2.77.51-4.1.83L170,121.49c-2.36.43-4.65.92-6.85,1.48q-7.33,19-13.81,38.16A85.69,85.69,0,0,1,174,156.37c19.38-.79,30.74,5.4,30.71,5.36,8.17-3.79,19-5.87,30.91-5.35a84.61,84.61,0,0,1,24.52,4.75Q254.6,142.09,248.28,123.15Z"/><path class="cls-2" d="M263,167.37l0-3.57v0h0l-1-3.48c-3.72-12.68-7.73-25.48-11.92-38l-.32-1-1-.26c-2.12-.53-4.15-1-6.11-1.39l-2-6.42-1-.24q-2-.47-4-.82V116c.72.14,1.46.26,2.16.42.55,1.78,8.47,27,10.11,32.24a69.7,69.7,0,0,0-17.64-2.33,55.56,55.56,0,0,0-25.38,5.65c-2.77-1.5-11.23-5.65-24.86-5.65h-.5a66.37,66.37,0,0,0-17.13,2.3l11.47-32.2c.67-.15,1.33-.26,2-.39v-3.8q-1.92.34-3.82.79l-1,.23-2.26,6.33c-2,.37-4,.8-6,1.31l-.93.24-.35.89c-4.86,12.63-9.52,25.49-13.84,38.24l-1.21,3.59h0v3.54l0,.05h0l3.57-1.26a84.22,84.22,0,0,1,24.15-4.65c17.14-.71,27.77,4.15,29.73,5.14l.8.4.88-.35c8.24-3.83,18.92-5.67,30-5.18a82.67,82.67,0,0,1,24,4.64l3.42,1.22v0Zm-27.24-13.13c-11.36-.5-22.3,1.35-30.95,5.18-3.23-1.51-14.14-5.88-30.82-5.19A88.14,88.14,0,0,0,152.31,158c3.86-11.26,7.95-22.58,12.23-33.73.93-.22,1.84-.42,2.75-.62L156.39,154.2l3.55-1.12a67.41,67.41,0,0,1,20-3.09c15.12,0,23.73,5.56,23.82,5.62l.92.57,1-.52C212.31,152,221,150,230.19,150A66,66,0,0,1,250,153.07l3.4,1.09-9.54-30.43c1,.21,1.94.43,2.94.68,3.7,11.12,7.23,22.39,10.55,33.61A86.75,86.75,0,0,0,235.73,154.24Z"/><path class="cls-3" d="M187.43,83.32l-1.35.62h8.26s-1.88-11.39,9.86-13.86V65.39s13-.12,13,12.09V95.21h3.31L219.83,94h.07v-.4l3.1,1.62h3.14l-4.36-4.83L232,93.3,223.45,87l10.63.8-9.69-4.46L235,82l-10.38-2.42,10.09-3.46L224,75.8l9.19-5.43-10.5,1.88,7.91-7.16L220.7,69l6.31-8.6-8.92,5.86,4.44-9.69L215,64.14l2.4-10.39-5.88,8.9L211.76,52l-4,9.9-1.89-10.49L204,61.89l-4-9.9.26,10.66-5.88-8.9,2.4,10.39-7.54-7.53,4.44,9.69-8.91-5.86,6.31,8.6-9.91-3.95,7.91,7.16-10.5-1.88,9.19,5.43-10.66.28,10.09,3.46L176.85,82Z"/><path class="cls-2" d="M203.35,86.56h-2.13V77.61h2.13Zm3.55-8.94h-2.13v8.94h2.13Zm3.54,0h-2.12v8.94h2.12ZM203.35,89h-2.13V98h2.13Zm3.55,0h-2.13V98h2.13Zm3.54,0h-2.12V98h2.12Zm-7.09,11.39h-2.13v9h2.13Zm3.55,0h-2.13v9h2.13Zm3.54,0h-2.12v9h2.12Zm-7.09,11.4h-2.13v8.95h2.13Zm3.55,0h-2.13v8.95h2.13Zm3.54,0h-2.12v8.95h2.12Z"/><path class="cls-2" d="M182,89.75a1.38,1.38,0,0,0-1.25,1.48s0,0,0,.06v6.59h2.51V91.2h0A1.38,1.38,0,0,0,182,89.75Zm8,1.46a1.27,1.27,0,1,0-2.5,0s0,0,0,.05v6.6h2.51V91.2Zm-1.25,9.21a1.38,1.38,0,0,0-1.25,1.48s0,0,0,.05v6.59h2.51v-6.67h0A1.37,1.37,0,0,0,188.8,100.42Zm-6.79,0a1.38,1.38,0,0,0-1.25,1.48s0,0,0,.05v6.59h2.51v-6.67h0A1.38,1.38,0,0,0,182,100.42Zm0,10.67a1.38,1.38,0,0,0-1.25,1.48s0,0,0,.06v6.59h2.51v-6.66h0A1.38,1.38,0,0,0,182,111.09Zm6.79,0a1.38,1.38,0,0,0-1.25,1.48s0,0,0,.06v6.59h2.51v-6.66h0A1.38,1.38,0,0,0,188.8,111.09ZM182,121.76a1.38,1.38,0,0,0-1.25,1.48s0,0,0,.06v6.59h2.51v-6.68h0A1.37,1.37,0,0,0,182,121.76Zm3.4-21.34a1.38,1.38,0,0,0-1.25,1.48.23.23,0,0,0,0,.05v6.59h2.5v-6.67h0A1.37,1.37,0,0,0,185.41,100.42Zm0-10.67a1.38,1.38,0,0,0-1.25,1.48.21.21,0,0,0,0,.06v6.59h2.5V91.2h0A1.38,1.38,0,0,0,185.41,89.75Zm0,32a1.38,1.38,0,0,0-1.25,1.48.16.16,0,0,0,0,.05v6.6h2.5v-6.68h0A1.37,1.37,0,0,0,185.41,121.76Zm0-10.67a1.38,1.38,0,0,0-1.25,1.48.23.23,0,0,0,0,.06v6.59h2.5v-6.66h0A1.38,1.38,0,0,0,185.41,111.09Zm3.4,10.67a1.38,1.38,0,0,0-1.25,1.48s0,0,0,.05v6.6h2.51v-6.68h0A1.37,1.37,0,0,0,188.8,121.76Z"/><path class="cls-2" d="M223.89,105h-2v-5h2Zm3.26-5h-2v5h2Zm3.26,0h-2v5h2Zm-6.52,12.7h-2v5h2Zm3.26,0h-2v5h2Zm3.26,0h-2v5h2Zm-6.52,12.71h-2v5h2Zm3.26,0h-2v5h2Zm3.26,0h-2v5h2Z"/><path class="cls-2" d="M218.65,93.25V84.3l0-7.28a13,13,0,0,0-12.78-12.9l-3.39,0V68.9A12.9,12.9,0,0,0,193,81.32v.57H174.71V135.2h0v2a63.71,63.71,0,0,1,26.25,5.6v-4.37c-1.5-.65-3.06-1.24-4.65-1.78V81.06a9.46,9.46,0,0,1,9.55-9.38V67.47a9.46,9.46,0,0,1,9.46,9.37V136c-1.68.49-3.32,1-4.9,1.64V123.07h-9.13v0l6.24,2.87v17.26c7.93-3.89,17.88-6,28.3-6l1.12,0v-2h0V93.25Zm-25.91,42.34a70.78,70.78,0,0,0-14.67-2.29V85.24h14.67Zm40.84-2.38a73.74,73.74,0,0,0-14.81,1.86V96.6h14.81Z"/><path d="M61.33,184.18h5.22c4.24,0,7.92,3.76,7.92,8.47a8.46,8.46,0,0,1-8.57,8.73H61.33Zm5.06,14c3,0,4.61-2.81,4.61-5.54,0-2.93-2-5.29-4.77-5.29h-1.6V198.2Z"/><path d="M76.57,201.39v-17.2h9.25l.55,3.18H79.88v3.44H85.1V194H79.88v4.21h7.3l-1.05,3.19Z"/><path d="M89.13,201.78v-18h.07l10.28,10.41v-10l3.31-.4v18h-.08L92.44,191.51v9.88Z"/><path d="M111.32,194.59l4.21-10.8,3.34.4-7.52,17.6h0L104,184.18l3.54-.4Z"/><path d="M120.14,201.39v-17.2h9.25l.55,3.18h-6.49v3.44h5.22V194h-5.22v4.21h7.29l-1.05,3.19Z"/><path d="M132.8,184.18h5.52c3.31,0,5.92,1.61,5.92,5.29a4.62,4.62,0,0,1-3.31,4.51l4.69,6.92-3.61.87-5.84-9h-.05v8.6l-3.31.2Zm3.31,7.8h1.2c1.63,0,3.21-.48,3.21-2.41s-1.5-2.21-3.13-2.21h-1.28Z"/><path d="M164.08,183.79v12.41c0,3.11-2.36,5.59-6.22,5.59-3,0-6-1.68-6-6.06V184.18l3.31-.4v11.46c0,1.5.27,3.35,2.86,3.35,2.31,0,2.76-1.58,2.76-3.63V184.18Z"/><path d="M166.89,184.18h5.52c3.31,0,5.92,1.61,5.92,5.29A4.62,4.62,0,0,1,175,194l4.69,6.92-3.61.87-5.84-9h-.05v8.6l-3.31.2Zm3.31,7.8h1.2c1.63,0,3.21-.48,3.21-2.41s-1.5-2.21-3.13-2.21H170.2Z"/><path d="M181.45,184.18h5.92c4.11,0,5,3.08,5,4.71a3.81,3.81,0,0,1-2.31,3.54,4.37,4.37,0,0,1,3.18,4.21c0,2.6-2,4.74-5.32,4.74h-6.49Zm3.31,7h1.83a1.95,1.95,0,1,0,0-3.86h-1.83Zm0,7h1.73c2.26,0,3.06-.68,3.06-2.16s-.8-2.15-3.06-2.15h-1.73Z"/><path d="M193.41,201.26l8.65-17.47h.05l9,17.47-3.54.53-2.05-4.36H198.9l-2,4.36Zm6.8-6.74h3.86l-2-4.66Z"/><path d="M212.26,201.78v-18h.08l10.28,10.41v-10l3.31-.4v18h-.07l-10.28-10.28v9.88Z"/><path d="M235.77,196.75c.85,1,1.46,1.85,3.31,1.85a2.15,2.15,0,0,0,2.2-2c0-3.41-7.5-1.48-7.5-7.57,0-3.29,2.46-5.27,5.87-5.27a6.5,6.5,0,0,1,4.81,2.33l-2.06,2.41a4.7,4.7,0,0,0-3-1.55,1.94,1.94,0,0,0-2.21,2.08c0,2.93,7.5.82,7.5,7.6,0,3.13-2.61,5.14-5.84,5.14a6.74,6.74,0,0,1-5.41-2.68Z"/><path d="M257.5,201.13a6.52,6.52,0,0,1-2.81.65,9,9,0,0,1-.1-18,6.21,6.21,0,0,1,2.78.62l.55,4a5.49,5.49,0,1,0-3.33,10A5.34,5.34,0,0,0,258,197Z"/><path d="M270.94,184.18l3.31-.4v17.6l-3.31.2v-7.5h-7v7.3l-3.31.2v-17.4l3.31-.4v7.12h7Z"/><path d="M285.35,183.79a9,9,0,1,1-9.08,9A9.06,9.06,0,0,1,285.35,183.79Zm0,14.61a5.61,5.61,0,1,0-5.62-5.61A5.67,5.67,0,0,0,285.35,198.4Z"/><path d="M296.3,201.39v-17.2l3.31-.4V198.2h6.27l-.83,3.19Z"/><path d="M306.55,201.26l8.65-17.47h0l9,17.47-3.54.53-2.05-4.36H312l-2,4.36Zm6.8-6.74h3.86l-2-4.66Z"/><path d="M325.65,184.18h5.52c3.31,0,5.91,1.61,5.91,5.29a4.62,4.62,0,0,1-3.31,4.51l4.69,6.92-3.61.87-5.84-9H329v8.6l-3.31.2ZM329,192h1.2c1.63,0,3.21-.48,3.21-2.41s-1.51-2.21-3.13-2.21H329Z"/><path d="M341.3,196.75c.85,1,1.45,1.85,3.31,1.85a2.15,2.15,0,0,0,2.21-2c0-3.41-7.5-1.48-7.5-7.57,0-3.29,2.46-5.27,5.87-5.27a6.5,6.5,0,0,1,4.81,2.33l-2.06,2.41a4.71,4.71,0,0,0-3-1.55,1.94,1.94,0,0,0-2.21,2.08c0,2.93,7.5.82,7.5,7.6,0,3.13-2.61,5.14-5.84,5.14A6.73,6.73,0,0,1,339,199.1Z"/></svg>