<svg id="Layer_1" data-name="Layer 1" xmlns="http://www.w3.org/2000/svg" xmlns:xlink="http://www.w3.org/1999/xlink" viewBox="0 0 410 300"><defs><style>.cls-1{fill:#fff;}.cls-2{fill:#0b0204;}.cls-3{fill:url(#New_Gradient_Swatch_2);}.cls-4{fill:url(#New_Gradient_Swatch_2-2);}.cls-5{fill:url(#New_Gradient_Swatch_2-3);}.cls-6{fill:url(#New_Gradient_Swatch_2-4);}.cls-7{fill:url(#New_Gradient_Swatch_2-5);}.cls-8{fill:url(#New_Gradient_Swatch_2-6);}.cls-9{fill:url(#New_Gradient_Swatch_2-7);}.cls-10{fill:url(#New_Gradient_Swatch_2-8);}.cls-11{fill:url(#New_Gradient_Swatch_2-9);}.cls-12{fill:#fdb913;}</style><linearGradient id="New_Gradient_Swatch_2" x1="109.14" y1="183.26" x2="109.14" y2="133.61" gradientUnits="userSpaceOnUse"><stop offset="0" stop-color="#ed1c24"/><stop offset="1" stop-color="#f7941d"/></linearGradient><linearGradient id="New_Gradient_Swatch_2-2" x1="135.64" y1="184.16" x2="135.64" y2="125.24" xlink:href="#New_Gradient_Swatch_2"/><linearGradient id="New_Gradient_Swatch_2-3" x1="160.47" y1="182.92" x2="160.47" y2="132.17" xlink:href="#New_Gradient_Swatch_2"/><linearGradient id="New_Gradient_Swatch_2-4" x1="233.12" y1="182.88" x2="233.12" y2="123.67" xlink:href="#New_Gradient_Swatch_2"/><linearGradient id="New_Gradient_Swatch_2-5" x1="255.8" y1="184.16" x2="255.8" y2="133.11" xlink:href="#New_Gradient_Swatch_2"/><linearGradient id="New_Gradient_Swatch_2-6" x1="300.53" y1="184.16" x2="300.53" y2="143.34" xlink:href="#New_Gradient_Swatch_2"/><linearGradient id="New_Gradient_Swatch_2-7" x1="185.46" y1="184.16" x2="185.46" y2="129.77" xlink:href="#New_Gradient_Swatch_2"/><linearGradient id="New_Gradient_Swatch_2-8" x1="211.99" y1="182.84" x2="211.99" y2="129.55" xlink:href="#New_Gradient_Swatch_2"/><linearGradient id="New_Gradient_Swatch_2-9" x1="278.78" y1="183.05" x2="278.78" y2="137.55" xlink:href="#New_Gradient_Swatch_2"/></defs><title>identities</title><path class="cls-1" d="M229.09,101.53a20.71,20.71,0,0,1-8.22-5.9l-4.32,6.9a20.73,20.73,0,0,0,8.22,5.9Z"/><path class="cls-1" d="M250.15,105.87c-3.59-.61-7.29-1-10.88-1.64l-4.32,6.9c3.59.61,7.3,1,10.89,1.64Z"/><path class="cls-1" d="M268.54,114.46a20.73,20.73,0,0,0-8.23-5.9L256,115.46a20.71,20.71,0,0,1,8.23,5.9Z"/><path class="cls-1" d="M225.19,88.76a24.28,24.28,0,0,1-4.9-11.22L216,84.45a24.29,24.29,0,0,0,4.9,11.22Z"/><path class="cls-1" d="M243.59,97.34a46.64,46.64,0,0,1-10.22-2.71l-4.31,6.9a46.56,46.56,0,0,0,10.22,2.71Z"/><path class="cls-1" d="M264.64,101.68A46.54,46.54,0,0,0,254.42,99l-4.32,6.91a46.73,46.73,0,0,1,10.23,2.71Z"/><path class="cls-1" d="M277.73,118.77a24.28,24.28,0,0,0-4.9-11.22l-4.32,6.9a24.23,24.23,0,0,1,4.9,11.22Z"/><path class="cls-1" d="M237.7,87.75a20.66,20.66,0,0,1-8.23-5.9l-4.32,6.91a20.74,20.74,0,0,0,8.23,5.9Z"/><path class="cls-1" d="M258.76,92.09c-3.59-.61-7.29-1-10.88-1.64l-4.32,6.91c3.59.61,7.3,1,10.89,1.64Z"/><path class="cls-1" d="M277.15,100.68a20.72,20.72,0,0,0-8.22-5.9l-4.32,6.9a20.71,20.71,0,0,1,8.23,5.9Z"/><path class="cls-1" d="M233.8,75a24.3,24.3,0,0,1-4.9-11.22l-4.31,6.91a24.28,24.28,0,0,0,4.9,11.22Z"/><path class="cls-1" d="M252.2,83.56A46.57,46.57,0,0,1,242,80.85l-4.32,6.91a46.71,46.71,0,0,0,10.22,2.71Z"/><path class="cls-1" d="M273.25,87.91A46.74,46.74,0,0,0,263,85.2l-4.31,6.91a46.45,46.45,0,0,1,10.22,2.71Z"/><path class="cls-1" d="M286.34,105a24.25,24.25,0,0,0-4.9-11.22l-4.31,6.9A24.28,24.28,0,0,1,282,111.9Z"/><path class="cls-1" d="M246.31,74a20.72,20.72,0,0,1-8.23-5.9L233.77,75a20.74,20.74,0,0,0,8.23,5.9Z"/><path class="cls-1" d="M267.36,78.31c-3.59-.61-7.29-1-10.88-1.64l-4.32,6.91c3.59.61,7.29,1,10.89,1.64Z"/><path class="cls-1" d="M285.76,86.91a20.72,20.72,0,0,0-8.22-5.9l-4.32,6.91a20.68,20.68,0,0,1,8.23,5.9Z"/><path d="M220.89,95.65A24.23,24.23,0,0,1,216,84.43l-4.31,6.9a24.31,24.31,0,0,0,4.9,11.22Z"/><path d="M239.29,104.23a46.43,46.43,0,0,1-10.22-2.71l-4.32,6.91A46.59,46.59,0,0,0,235,111.13Z"/><path d="M260.34,108.57a46.44,46.44,0,0,0-10.22-2.71l-4.31,6.91A46.64,46.64,0,0,1,256,115.48Z"/><path d="M273.43,125.66a24.27,24.27,0,0,0-4.91-11.22l-4.31,6.9a24.3,24.3,0,0,1,4.9,11.22Z"/><path d="M233.4,94.64a20.75,20.75,0,0,1-8.23-5.9l-4.31,6.9a20.68,20.68,0,0,0,8.22,5.9Z"/><path d="M254.45,99c-3.59-.61-7.29-1-10.88-1.64l-4.31,6.9c3.59.61,7.29,1,10.88,1.64Z"/><path d="M272.85,107.57a20.73,20.73,0,0,0-8.23-5.9l-4.32,6.9a20.75,20.75,0,0,1,8.23,5.9Z"/><path d="M229.49,81.87a24.24,24.24,0,0,1-4.9-11.22l-4.32,6.91a24.26,24.26,0,0,0,4.9,11.22Z"/><path d="M247.9,90.45a46.67,46.67,0,0,1-10.22-2.71l-4.32,6.91a46.68,46.68,0,0,0,10.22,2.71Z"/><path d="M268.95,94.79a46.66,46.66,0,0,0-10.22-2.71L254.41,99a46.63,46.63,0,0,1,10.22,2.71Z"/><path d="M282,111.88a24.23,24.23,0,0,0-4.9-11.22l-4.31,6.9a24.28,24.28,0,0,1,4.9,11.22Z"/><path class="cls-2" d="M242,80.87a20.71,20.71,0,0,1-8.23-5.9l-4.31,6.9a20.68,20.68,0,0,0,8.22,5.9Z"/><path d="M263.06,85.2c-3.59-.61-7.3-1-10.89-1.64l-4.31,6.9c3.59.61,7.29,1,10.88,1.64Z"/><path d="M281.45,93.8a20.72,20.72,0,0,0-8.23-5.9l-4.31,6.9a20.73,20.73,0,0,1,8.22,5.9Z"/><path d="M238.1,68.1a24.28,24.28,0,0,1-4.9-11.22l-4.31,6.9A24.32,24.32,0,0,0,233.78,75Z"/><path d="M256.51,76.68A46.53,46.53,0,0,1,246.29,74L242,80.87a46.59,46.59,0,0,0,10.22,2.71Z"/><path d="M277.56,81a46.6,46.6,0,0,0-10.23-2.71L263,85.22a46.67,46.67,0,0,1,10.22,2.71Z"/><path d="M290.64,98.11a24.32,24.32,0,0,0-4.9-11.22l-4.31,6.9a24.3,24.3,0,0,1,4.9,11.22Z"/><path d="M233.17,54a1.6,1.6,0,0,0-1.49,1l-44.3,70.79h3.71l43.35-69.28a1.52,1.52,0,0,0,.33-.94A1.58,1.58,0,0,0,233.17,54Z"/><path class="cls-1" d="M178.12,101.53a20.71,20.71,0,0,0,8.22-5.9l4.32,6.9a20.72,20.72,0,0,1-8.22,5.9Z"/><path class="cls-1" d="M157.06,105.87c3.59-.61,7.3-1,10.89-1.64l4.32,6.9c-3.59.61-7.3,1-10.88,1.64Z"/><path class="cls-1" d="M138.67,114.46a20.73,20.73,0,0,1,8.23-5.9l4.31,6.91a20.71,20.71,0,0,0-8.23,5.9Z"/><path class="cls-1" d="M182,88.76a24.3,24.3,0,0,0,4.9-11.22l4.32,6.91a24.28,24.28,0,0,1-4.9,11.22Z"/><path class="cls-1" d="M163.62,97.34a46.63,46.63,0,0,0,10.22-2.71l4.31,6.9a46.55,46.55,0,0,1-10.22,2.71Z"/><path class="cls-1" d="M142.57,101.68A46.52,46.52,0,0,1,152.79,99l4.32,6.91a46.72,46.72,0,0,0-10.22,2.71Z"/><path class="cls-1" d="M129.48,118.77a24.29,24.29,0,0,1,4.9-11.22l4.32,6.9c-2.27,2.73-3.76,5.88-4.69,10.74C132.38,122.95,131,121.1,129.48,118.77Z"/><path class="cls-1" d="M169.51,87.75a20.66,20.66,0,0,0,8.23-5.9l4.32,6.91a20.76,20.76,0,0,1-8.23,5.9Z"/><path class="cls-1" d="M148.46,92.09c3.59-.61,7.29-1,10.88-1.64l4.32,6.91c-3.59.61-7.3,1-10.89,1.64Z"/><path class="cls-1" d="M130.06,100.68a20.71,20.71,0,0,1,8.22-5.9l4.32,6.9a20.72,20.72,0,0,0-8.23,5.9Z"/><path class="cls-1" d="M173.41,75a24.29,24.29,0,0,0,4.9-11.22l4.31,6.91a24.28,24.28,0,0,1-4.9,11.22Z"/><path class="cls-1" d="M155,83.56a46.54,46.54,0,0,0,10.22-2.71l4.32,6.91a46.7,46.7,0,0,1-10.23,2.71Z"/><path class="cls-1" d="M134,87.91a46.73,46.73,0,0,1,10.22-2.71l4.31,6.91a46.42,46.42,0,0,0-10.22,2.71Z"/><path class="cls-1" d="M120.87,105a24.26,24.26,0,0,1,4.9-11.22l4.31,6.9a24.26,24.26,0,0,0-4.9,11.22Z"/><path class="cls-1" d="M160.9,74a20.73,20.73,0,0,0,8.22-5.9L173.44,75a20.74,20.74,0,0,1-8.23,5.9Z"/><path class="cls-1" d="M139.85,78.31c3.59-.61,7.29-1,10.89-1.64l4.32,6.91c-3.59.61-7.3,1-10.89,1.64Z"/><path class="cls-1" d="M121.46,86.91a20.73,20.73,0,0,1,8.22-5.9L134,87.92a20.69,20.69,0,0,0-8.23,5.9Z"/><path d="M186.33,95.65a24.23,24.23,0,0,0,4.9-11.22l4.31,6.9a24.31,24.31,0,0,1-4.9,11.22Z"/><path d="M167.92,104.23a46.41,46.41,0,0,0,10.22-2.71l4.32,6.91a46.56,46.56,0,0,1-10.22,2.71Z"/><path d="M146.87,108.57a46.45,46.45,0,0,1,10.22-2.71l4.31,6.91a46.64,46.64,0,0,0-10.22,2.71Z"/><path d="M134,125.18c.93-4.86,2.43-8,4.69-10.74l4.31,6.9a24.28,24.28,0,0,0-4.9,11.22C136.66,130.26,135.44,127.48,134,125.18Z"/><path d="M173.81,94.64a20.76,20.76,0,0,0,8.23-5.9l4.31,6.9a20.68,20.68,0,0,1-8.22,5.9Z"/><path d="M152.76,99c3.59-.61,7.29-1,10.88-1.64l4.32,6.9c-3.59.61-7.29,1-10.88,1.64Z"/><path d="M134.37,107.57a20.73,20.73,0,0,1,8.23-5.9l4.32,6.9a20.76,20.76,0,0,0-8.23,5.9Z"/><path d="M177.72,81.87a24.25,24.25,0,0,0,4.9-11.22l4.32,6.91A24.26,24.26,0,0,1,182,88.78Z"/><path d="M159.31,90.45a46.69,46.69,0,0,0,10.22-2.71l4.32,6.91a46.69,46.69,0,0,1-10.22,2.71Z"/><path d="M138.26,94.79a46.66,46.66,0,0,1,10.22-2.71L152.8,99a46.62,46.62,0,0,0-10.22,2.71Z"/><path d="M125.18,111.88a24.22,24.22,0,0,1,4.9-11.22l4.31,6.9a24.27,24.27,0,0,0-4.9,11.22Z"/><path d="M165.21,80.87a20.72,20.72,0,0,0,8.23-5.9l4.31,6.9a20.68,20.68,0,0,1-8.22,5.9Z"/><path d="M144.15,85.2c3.59-.61,7.3-1,10.89-1.64l4.31,6.9c-3.59.61-7.29,1-10.89,1.64Z"/><path d="M125.76,93.8A20.7,20.7,0,0,1,134,87.9l4.31,6.9a20.75,20.75,0,0,0-8.22,5.9Z"/><path d="M169.11,68.1A24.29,24.29,0,0,0,174,56.88l4.31,6.9A24.31,24.31,0,0,1,173.43,75Z"/><path d="M150.71,76.68A46.55,46.55,0,0,0,160.93,74l4.32,6.91A46.56,46.56,0,0,1,155,83.58Z"/><path d="M129.65,81a46.58,46.58,0,0,1,10.22-2.71l4.31,6.91A46.7,46.7,0,0,0,134,87.92Z"/><path d="M116.57,98.11a24.3,24.3,0,0,1,4.9-11.22l4.31,6.9a24.29,24.29,0,0,0-4.9,11.22Z"/><path d="M220,125.82,175.54,55A1.6,1.6,0,0,0,174,54a1.58,1.58,0,0,0-1.6,1.56,1.52,1.52,0,0,0,.33.94l43.5,69.28Z"/><path d="M301.92,140.92c-4.31-1.32-8.28-.89-11.14,1.21-.21.16-.4.34-.6.52l0-5.18-2.66-.36a8,8,0,0,0-3.76.42v-.32l-2.39-.52-10.59-2.31v0l-1-.18-2-.45v.08L257.5,132h0l-.11,0-3-.53v.08c-3.29-.51-6.63-1-9.93-1.38l-2.36-.29c0-.71,0-7.61,0-7.61l-2.69-.34c-3.61-.45-7.24-.84-10.81-1.15l-3.3-.29,0,3.31s0,3.13,0,3.31l-2.16-.16v2.64a8.53,8.53,0,0,0-6.18-3,8.25,8.25,0,0,0-4.55,1.16l-1.92,0c-3.48-.07-7-.09-10.46-.05l-3,0v5.41a14.66,14.66,0,0,0-2.36-2.89,12.19,12.19,0,0,0-9.16-3.39,14.43,14.43,0,0,0-10.31,5.1l.28-3.14-3.67.41-10.71,1.2v0l-.89.14h-.13l-2.19.34L150.44,132l-.1-10.49-3.64.76c-3.4.71-6.89,1.5-10.36,2.36l-2.35.58s.06,6.11.09,9.61a8.86,8.86,0,0,0-4.1,0c-5.27,1.24-8.38,4.82-9.31,10.66l-1.95-16-3.51,1.13c-5,1.59-10.07,3.33-15.12,5.18l-1.78.65-.2,1.89c-1.67,15.69-3.37,30.69-5,44.58l-.42,3.45,6.64-.07c-1.68,2-2.8,5-2.8,9.55v14c0,7.71,3.43,12.31,9.18,12.31a9,9,0,0,0,3.26-.67h9.93v-1.17a12,12,0,0,0,12.75,0v1.17H202a7.21,7.21,0,0,0,3.1.67,7.86,7.86,0,0,0,3-.67h10.57v-1.17a11.38,11.38,0,0,0,6.38,1.83,9.68,9.68,0,0,0,8.13-3.64,10.6,10.6,0,0,0,8.35,3.64,10.06,10.06,0,0,0,7.74-3.3l.28,2.63H273l.11-1.19a6.86,6.86,0,0,0,4.84,1.86,7.86,7.86,0,0,0,3-.67h6.21v7.31h10c6.22,0,7.23-8.88,7.77-13.65l2.92-25.85h-.05l.43-3.8c4-2,7.11-6.08,7.11-12.93V158.9A18.73,18.73,0,0,0,301.92,140.92Z"/><path class="cls-3" d="M101.16,138.8q7.46-2.76,15-5.19,3,23.85,6,49.47l-10.59.07-.57-8.43-3.84.25q-.24,4.12-.48,8.21l-10.59.08Q98.69,162,101.16,138.8Zm9.63,27.51q-1-11.11-2-21.93l-.11,0q-.79,11.31-1.59,22.36Z"/><path class="cls-4" d="M123.43,149.77c-.06-6.55,2-10.71,7.24-12a5.73,5.73,0,0,1,6.41,2.85l.12,0q-.06-6.51-.13-13,5.12-1.28,10.25-2.37.26,28.84.53,57.71l-10.77.05.49-2.72h-.12c-1.76,2.28-4.11,3.88-6.81,3.88-4.89,0-7.06-4.22-7-9.85Q123.54,162,123.43,149.77ZM133.87,172c0,1.6.32,3,1.7,2.91,1.67-.07,1.95-1.32,1.93-3.11q-.11-11.48-.22-23c0-1.7-.09-3.64-1.82-3.33-1.55.28-1.83,1.47-1.8,3.91Q133.76,160.73,133.87,172Z"/><path class="cls-5" d="M148.8,135.34q4.76-.82,9.54-1.5,1.49,19.31,3,38.93h.12q.83-19.69,1.67-39.57,4.52-.58,9-1-2.26,25.58-4.48,50.7l-13.42,0Q151.53,158.72,148.8,135.34Z"/><path class="cls-6" d="M224.44,131.32c.72.05,3.23.17,4,.23q0-3.94,0-7.88,5.35.47,10.7,1.16,0,3.86-.05,7.73l2.73.31q0,4.1-.06,8.19L239,140.8q-.1,15.88-.21,31.77c0,1.46.33,2.07,1.26,2.09l1.44,0q0,4.1-.06,8.19l-5.64,0c-6.91,0-7.64-4.13-7.6-12.1l.15-30.81-2.15-.13A22.52,22.52,0,0,0,224.44,131.32Z"/><path class="cls-7" d="M244.13,133.11q5.16.65,10.3,1.46-.16,18.11-.31,36.22c0,1.49.26,3.48,1.58,3.52s1.46-2,1.47-3.47q.16-17.89.32-35.78,5.14.86,10.26,1.87-.22,23-.44,46.05l-10.25,0q0-1.84,0-3.68H257a7.17,7.17,0,0,1-6.26,4.9c-4.32,0-6.94-4.14-6.87-13.25Z"/><path class="cls-8" d="M289,154.34c.1-10.85,6.51-12.08,12.06-10.36a15.72,15.72,0,0,1,11.19,15v7.33q-6.55-1-13.12-1.95L299,174.5c0,1.52.27,2.53,1.54,2.59,1.44.07,1.79-1.14,1.79-2.55q0-3.39,0-6.77,4.92.6,9.82,1.25v3.57c0,8.93-6,11.5-11.4,11.56-5.65.06-12.07-2.86-12-13.71Q288.91,162.39,289,154.34ZM299.13,158l3.31.62q0-2.32,0-4.65c0-1.42-.33-2.73-1.75-3.08-1.25-.3-1.54.62-1.55,2.14Z"/><path class="cls-9" d="M173.62,147.56c-.08-13.15,6.41-17.44,12.11-17.77,5-.32,11.53,3.71,11.54,16.81q0,5.47,0,10.95-6.66.07-13.31.27,0,6.74.05,13.48c0,2,.3,3.34,1.57,3.33,1.44,0,1.78-1.7,1.78-3.64q0-4.64,0-9.28,5-.11,9.95-.15,0,2.67,0,5.34c0,13.54-6,17.27-11.38,17.27-5.64,0-12.11-3.68-12.19-16.83Zm10.32,1.81,3.36-.13q0-3.18,0-6.36c0-1.95-.36-3.61-1.81-3.54-1.28.06-1.56,1.4-1.55,3.43Q183.93,146.06,183.94,149.36Z"/><path class="cls-10" d="M200.11,130.63q5.18-.06,10.36,0,0,2,0,4h.12c.82-2.56,3.15-5.27,6.29-5.13,4.37.2,7,4.71,7,14.11q-.08,19.58-.16,39.17H213.45q0-19.5.08-39c0-1.6-.28-3.74-1.62-3.77s-1.46,2.2-1.46,3.8q0,19.49-.05,39H200.15Q200.13,156.73,200.11,130.63Z"/><path class="cls-11" d="M270.86,137.55q4.94,1,9.87,2.18,0,2.77-.05,5.54l.11,0c1-4,4.07-5.39,6.35-5.08q-.07,7.59-.13,15.19a15,15,0,0,0-1.72-.43c-2.75-.47-4.38,1.57-4.41,5q-.11,11.55-.21,23.1L270.42,183Q270.64,160.27,270.86,137.55Z"/><path class="cls-12" d="M115.8,218.43h-4.45l-.52-2.23a6,6,0,0,1-5.16,2.89c-4.68,0-6.12-4.54-6.12-9.26v-14c0-5,1.26-9.84,8.13-9.84,5.79,0,7.91,2.63,7.91,9.13v3.25h-6.83v-4.9c0-1.25-.15-2.14-1.08-2.14-1.15,0-1.3,1.25-1.3,2.36v17.45c0,1.38.3,2.49,1.3,2.49,1.23,0,1.3-1.2,1.3-2.45v-5.34h-1.41v-4.54h8.24Z"/><path class="cls-12" d="M117.43,200.31c0-6.77,4.16-8.64,7.8-8.64s7.8,1.87,7.8,8.64v10.15c0,6.77-4.16,8.64-7.8,8.64s-7.8-1.87-7.8-8.64ZM124,212c0,.89.37,1.74,1.19,1.74s1.19-.84,1.19-1.74v-13.8c0-.89-.37-1.74-1.19-1.74s-1.19.85-1.19,1.74Z"/><path class="cls-12" d="M134.66,186.64h6.61v31.79h-6.61Z"/><path class="cls-12" d="M142.74,192.34h1.37c.15-4.63,1.41-5.7,5.49-5.7h2.93v4h-1c-1.08,0-1.93.27-2.08,1.69h3.23v4.27h-2v21.81h-6.61V196.62h-1.37Z"/><path class="cls-12" d="M183.58,186.64h7.54c4.38,0,7.76.31,7.76,6.45v2.85c0,3.47-1.11,5.39-4,5.61v.09c3,.22,4.27,2.09,4.27,5.65v11.13h-6.39V206.37c0-1.51-.37-2.76-1.78-2.76a2.09,2.09,0,0,0-.78.13v14.69h-6.61Zm6.61,12.15h.52c.93,0,2-.4,2-2.23v-2.63c0-1.82-1.11-2.23-2-2.23h-.52Z"/><path class="cls-12" d="M215.61,218.43h-6.39V217a5.5,5.5,0,0,1-4.16,2.14c-2.82,0-4.31-2.27-4.31-5.57V210c0-3,.15-4.05,4.2-5.83,3.71-1.69,4-2.14,4-3.65v-3.29c0-.76-.37-1.56-1.11-1.56s-1,.76-1,1.56v5.16h-6.13v-2.76c0-5.74,2.3-8,7.28-8,4.68,0,7.57,1.65,7.57,7.7Zm-8.72-5.74c0,.76.37,1.47,1,1.47a1.23,1.23,0,0,0,1.15-1.33V206a4.53,4.53,0,0,0-2.12,4Z"/><path class="cls-12" d="M217.25,200.31c0-6.77,4.16-8.64,7.79-8.64,4.42,0,7.35,2.8,7.35,8.41v2.18H226V198c0-.71-.07-1.51-1.08-1.51s-1.08.8-1.08,1.51v14.25c0,1.34.18,2,1.19,2s1.19-.71,1.19-2.14v-4.5h6.39v1.29c0,8.15-3.34,10.15-7.57,10.15-3.64,0-7.79-1.87-7.79-8.64Z"/><path class="cls-12" d="M233.73,200.31c0-6.77,4.16-8.64,7.8-8.64,3.19,0,7.35,2.09,7.35,8.64v5.48h-8.54v6.81c0,1,.18,1.69,1,1.69s1.15-.85,1.15-1.83v-4.67h6.39v2.67c0,6.77-3.86,8.64-7.35,8.64s-7.8-1.87-7.8-8.64Zm6.61,1.2h2.15v-3.21c0-1-.22-1.83-1.15-1.83s-1,.67-1,1.69Z"/><path class="cls-12" d="M255.59,192.34l1.23,18.88h.07l1.67-18.88h5.68L266,211.22h.07l1-18.88h5.64l-2.52,26.09h-7.39l-1.3-14.11h-.07l-1.6,14.11h-7.54l-2.82-26.09Z"/><path class="cls-12" d="M288.45,218.43h-6.39V217a5.49,5.49,0,0,1-4.16,2.14c-2.82,0-4.31-2.27-4.31-5.57V210c0-3,.15-4.05,4.19-5.83,3.71-1.69,4-2.14,4-3.65v-3.29c0-.76-.37-1.56-1.11-1.56s-1,.76-1,1.56v5.16H273.6v-2.76c0-5.74,2.3-8,7.28-8,4.68,0,7.57,1.65,7.57,7.7Zm-8.72-5.74c0,.76.37,1.47,1,1.47a1.23,1.23,0,0,0,1.15-1.33V206a4.53,4.53,0,0,0-2.12,4Z"/><path class="cls-12" d="M290.19,218.52h1.52c1-.09,1.3-.49,1.3-1.6,0-.22-.15-1.16-.22-1.69l-3.53-22.88h6.39l1.71,20.08h.07l1.15-20.08h5.79l-2.52,22.35c-.45,3.92-1.23,11-4.75,11h-6.91Z"/><path class="cls-12" d="M161.18,205.27v-.09c-2.09-.71-3.43-3.43-3.43-6,0-5.16,3.85-7.61,8.4-7.61s8.35,2.4,8.35,7.08c0,2.72-.93,3.74-2.46,5.74l2.78,5,4.45-2.67v5.57l-2.46,1.25,3.06,5.07H172L170.92,217a12.86,12.86,0,0,1-7.19,2.31,7.23,7.23,0,0,1-7.52-7.66C156.21,208.83,157.93,205.71,161.18,205.27Zm4.69,4a3.72,3.72,0,0,0-1.67,2.85,2,2,0,0,0,2,2.14,3.58,3.58,0,0,0,2.18-.85Zm.51-8.19a4.41,4.41,0,0,0,1.44-3.38c0-1.34-.6-1.83-1.53-1.83a1.67,1.67,0,0,0-1.58,1.74A5.55,5.55,0,0,0,166.37,201.08Z"/><circle cx="204.42" cy="109.96" r="27.27"/><path d="M188.37,131a26.37,26.37,0,1,0-10.2-17.41A26.18,26.18,0,0,0,188.37,131Z"/><path class="cls-1" d="M184.68,94.47a24.9,24.9,0,1,1-4.82,18.44A24.74,24.74,0,0,1,184.68,94.47Z"/><path d="M197.84,122.13a2.37,2.37,0,0,0-1.15-2.17,2.5,2.5,0,0,0-2.37-.57c0-.06.11-.25.15-.3.54-.71,1.8-.67,2.79.1s1.36,2,.81,2.68Z"/><path d="M192.41,117.37a2.38,2.38,0,0,0-.71-2.35,2.5,2.5,0,0,0-2.21-1,3.26,3.26,0,0,1,.21-.26c.68-.59,1.89-.3,2.72.64s1,2.19.28,2.78Z"/><path d="M187.69,111.87a2.37,2.37,0,0,0-.21-2.45,2.5,2.5,0,0,0-2-1.45c.05,0,.2-.18.26-.21.78-.44,1.92.09,2.53,1.19s.48,2.34-.3,2.78Z"/><path d="M203.9,125.19a2.37,2.37,0,0,0-1.52-1.93,2.49,2.49,0,0,0-2.43-.14,2.84,2.84,0,0,1,.1-.32c.41-.8,1.65-1,2.76-.4s1.69,1.69,1.28,2.49C204.06,124.95,203.93,125.15,203.9,125.19Z"/><path d="M210.59,127.13a2.38,2.38,0,0,0-1.87-1.6,2.5,2.5,0,0,0-2.41.33c0-.06,0-.27,0-.33.25-.86,1.43-1.28,2.64-.93s2,1.33,1.73,2.19C210.7,126.86,210.61,127.08,210.59,127.13Z"/><path d="M217.31,127.55a2.14,2.14,0,0,0-2-.95,2.24,2.24,0,0,0-2,.86c0-.06-.05-.24-.05-.3,0-.81.94-1.44,2.08-1.43s2,.69,2,1.5C217.34,127.29,217.32,127.51,217.31,127.55Z"/><path d="M222.3,125.17a1.71,1.71,0,0,0-1.75.23,1.79,1.79,0,0,0-1,1.45,2,2,0,0,1-.16-.18c-.34-.55,0-1.38.77-1.86a1.46,1.46,0,0,1,2,.13Z"/><path d="M184.53,105.59a2.13,2.13,0,0,0,.49-2.15,2.24,2.24,0,0,0-1.28-1.78l.28-.11c.79-.16,1.62.6,1.85,1.71s-.23,2.14-1,2.3Z"/><path d="M183.44,99.06a1.71,1.71,0,0,0,1.07-1.41,1.8,1.8,0,0,0-.34-1.72h.24c.63.14,1,1,.78,1.86s-.88,1.48-1.51,1.34Z"/><path d="M197.88,116.66a2.23,2.23,0,0,0-.71-2.19,2.34,2.34,0,0,0-2.1-.91s.15-.21.19-.25a2.26,2.26,0,0,1,2.88,3.16Z"/><path d="M193.4,112.23A2.24,2.24,0,0,0,193,110a2.35,2.35,0,0,0-1.95-1.2s.17-.19.22-.22c.7-.48,1.8-.07,2.47.91a1.91,1.91,0,0,1-.06,2.63Z"/><path d="M189.54,107.27a2.23,2.23,0,0,0,.08-2.31,2.35,2.35,0,0,0-1.66-1.58c.05,0,.21-.14.27-.17.78-.32,1.78.3,2.23,1.4a1.91,1.91,0,0,1-.6,2.56Z"/><path d="M203.32,119.92A2.23,2.23,0,0,0,202,118a2.34,2.34,0,0,0-2.27-.29,3,3,0,0,1,.11-.29,1.91,1.91,0,0,1,2.62-.19c1,.61,1.47,1.7,1,2.42Z"/><path d="M209.23,122.39c-.08-.68-.78-1.26-1.7-1.56a2.35,2.35,0,0,0-2.28.24,3.09,3.09,0,0,1,0-.31,1.91,1.91,0,0,1,2.51-.79c1.12.37,1.82,1.31,1.56,2.11C209.34,122.13,209.25,122.34,209.23,122.39Z"/><path d="M215.29,123.1a2,2,0,0,0-1.82-1,2.11,2.11,0,0,0-1.94.7c0-.05,0-.22,0-.28.06-.76,1-1.3,2-1.23s1.87.76,1.81,1.51C215.34,122.86,215.3,123.06,215.29,123.1Z"/><path d="M218.25,119.11a1.82,1.82,0,0,0-1.68-.86,1.91,1.91,0,0,0-1.74.68s0-.2,0-.25c0-.69.84-1.21,1.8-1.16s1.72.64,1.68,1.33C218.29,118.88,218.26,119.07,218.25,119.11Z"/><path d="M220.63,122.75a1.69,1.69,0,0,0-1.75-.54,1.9,1.9,0,0,0-1.56,1,2.27,2.27,0,0,1-.07-.25c-.08-.7.61-1.38,1.54-1.52s1.75.31,1.84,1C220.62,122.52,220.63,122.71,220.63,122.75Z"/><path d="M225.31,121a1.53,1.53,0,0,0-1.57-.07,1.59,1.59,0,0,0-1.08,1.1,1.77,1.77,0,0,1-.11-.18c-.21-.53.22-1.19,1-1.48a1.31,1.31,0,0,1,1.73.42S225.3,121,225.31,121Z"/><path d="M223.44,118a1.65,1.65,0,0,0-1.71-.11,1.74,1.74,0,0,0-1.2,1.2,2.29,2.29,0,0,1-.12-.2c-.22-.58.26-1.31,1.08-1.62a1.42,1.42,0,0,1,1.89.5S223.43,117.91,223.44,118Z"/><path d="M227.49,115.61a1.49,1.49,0,0,0-1.5.35,1.57,1.57,0,0,0-.73,1.35,2,2,0,0,1-.16-.14,1.51,1.51,0,0,1,2.26-1.75Z"/><path d="M225.29,113.39a1.65,1.65,0,0,0-1.71.08,1.75,1.75,0,0,0-1.06,1.32,2,2,0,0,1-.14-.19c-.29-.56.12-1.33.9-1.73a1.42,1.42,0,0,1,1.93.29Z"/><path d="M228.33,109.31a1.49,1.49,0,0,0-1.21,1,1.57,1.57,0,0,0-.09,1.53l-.2-.06a1.28,1.28,0,0,1-.25-1.74c.37-.7,1.07-1.06,1.56-.8Z"/><path d="M191.85,102.66a1.82,1.82,0,0,0,.15-1.88,1.9,1.9,0,0,0-1.29-1.34l.22-.13c.65-.23,1.44.31,1.77,1.22a1.56,1.56,0,0,1-.58,2.07Z"/><path d="M194.67,107.68a2,2,0,0,0-.13-2.08,2.11,2.11,0,0,0-1.62-1.28s.17-.15.22-.18c.68-.35,1.63.12,2.12,1.07a1.73,1.73,0,0,1-.32,2.35Z"/><path d="M190.22,92.3a1.45,1.45,0,0,0,1.16-1.08,1.55,1.55,0,0,0-.16-1.57,2.06,2.06,0,0,1,.23,0,1.33,1.33,0,0,1,.56,1.76,1.3,1.3,0,0,1-1.56,1Z"/><path d="M190.58,97.63A1.65,1.65,0,0,0,191.2,96a1.74,1.74,0,0,0-.78-1.51,1.94,1.94,0,0,1,.23-.05c.62,0,1.17.65,1.22,1.52s-.42,1.61-1,1.65Z"/><path d="M194.57,88.77a1.45,1.45,0,0,0,1.52-.43,1.55,1.55,0,0,0,.58-1.47,2.22,2.22,0,0,1,.18.15,1.33,1.33,0,0,1-.31,1.82,1.31,1.31,0,0,1-1.83.13Z"/><path d="M193.54,94.38a1.65,1.65,0,0,0,.86-1.48,1.74,1.74,0,0,0-.53-1.61,2.08,2.08,0,0,1,.23,0c.62.06,1.05.82,1,1.69s-.67,1.53-1.29,1.46Z"/><path d="M186.93,101.38a2,2,0,0,0,.63-2,2.1,2.1,0,0,0-1.05-1.77l.27-.08c.75-.09,1.47.69,1.59,1.75s-.38,2-1.13,2.07Z"/><path d="M187,95.44a1.61,1.61,0,0,0,1-1.34,1.7,1.7,0,0,0-.35-1.61h.22c.59.13.94.9.76,1.73s-.8,1.41-1.39,1.28Z"/><path d="M227.09,120.32a16.31,16.31,0,0,1-4.4,4.81,2.1,2.1,0,0,1-1.1,1.89,1.92,1.92,0,0,1-2.43,0c-.42.15-.84.28-1.28.39a2.39,2.39,0,0,1-2.56,1.66,2.7,2.7,0,0,1-2.37-1.19c-.69,0-1.38-.09-2.08-.19a3,3,0,0,1-2.85.48,3.12,3.12,0,0,1-2.11-1.73q-.89-.32-1.78-.69a3.33,3.33,0,0,1-4.72-2.43c-.39-.24-.78-.48-1.17-.74a3.21,3.21,0,0,1-4.4-3.38c-.46-.4-.91-.81-1.35-1.24a3.3,3.3,0,0,1-3.54-4c-.38-.5-.75-1-1.09-1.52a2.84,2.84,0,0,1-2.71-1.62,2.76,2.76,0,0,1,.09-3.28c-.19-.46-.36-.92-.51-1.39a2.45,2.45,0,0,1-2.08-2.15,2.37,2.37,0,0,1,1.16-2.86c0-.48,0-.95,0-1.42h0a1.85,1.85,0,0,1-1-2.33c.25-1.11,1.1-1.86,1.9-1.69a15.08,15.08,0,0,1,3.42-5.23l3.47-3.13a25.64,25.64,0,1,0,36,33.36Zm-45.86-11.13c-.3-1.17.14-2.29,1-2.5a1,1,0,0,1,.37,0c-.68.39-.39,1.3-.16,2.21s.44,1.86,1.14,1.86a1.1,1.1,0,0,1-.28.15C182.44,111.14,181.52,110.36,181.23,109.19Zm4.73,14c-.71.49-1.84.08-2.52-.92s-.66-2.19.05-2.68a1.17,1.17,0,0,1,.29-.11,2.68,2.68,0,0,0,2.41,3.43A1,1,0,0,1,186,123.21Zm.52-5.47c-.84.46-2-.11-2.69-1.28s-.49-2.5.34-3a1.12,1.12,0,0,1,.4-.1c-.62.61-.06,1.51.45,2.43s1,1.87,1.75,1.67A1.23,1.23,0,0,1,186.48,117.74Zm2.13,2.8a1.23,1.23,0,0,1,.3-.17c-.41.67.39,1.43,1.1,2.16s1.43,1.54,2.2,1.12a1.17,1.17,0,0,1-.21.36c-.68.67-2,.44-2.93-.52S187.93,121.21,188.61,120.54Zm4,8.67c-.52.69-1.72.66-2.68-.06s-1.33-1.87-.81-2.56a1.13,1.13,0,0,1,.25-.2,2.68,2.68,0,0,0,3.38,2.48A1.07,1.07,0,0,1,192.62,129.2Zm1.61-3.55a1.36,1.36,0,0,1,.23-.25c-.19.76.79,1.25,1.69,1.74s1.82,1.05,2.43.43a1.13,1.13,0,0,1-.09.4c-.46.84-1.78,1-3,.36S193.77,126.5,194.23,125.66Zm6.33,6.87c-.29.81-1.45,1.13-2.58.72s-1.81-1.4-1.52-2.21a1.13,1.13,0,0,1,.18-.26,2.68,2.68,0,0,0,4,1.38A1,1,0,0,1,200.56,132.53Zm5.79-2.26c-.26.92-1.52,1.37-2.81,1s-2.12-1.41-1.86-2.33a1.25,1.25,0,0,1,.18-.3c0,.78,1,1,2,1.33s2,.63,2.46-.11A1.06,1.06,0,0,1,206.35,130.27Zm4.73,1.65c-1.21,0-2.19-.69-2.19-1.55a1.07,1.07,0,0,1,.08-.3c.18.68,1.16.65,2.09.64s1.89,0,2.1-.71a1.08,1.08,0,0,1,.1.36C213.26,131.2,212.28,131.91,211.08,131.91Z"/></svg>