<svg id="Layer_1" data-name="Layer 1" xmlns="http://www.w3.org/2000/svg" viewBox="0 0 410 300"><defs><style>.cls-1{fill:#4e6e32;}</style></defs><title>identities</title><path class="cls-1" d="M62.47,96.1h-.18v22.26h4.62c7.74,0,12.55-4.31,12.55-11.24,0-6.7-4.9-11-12.47-11ZM66.16,99c4.66,0,10.22,1.43,10.22,8.27s-5.56,8.27-10.22,8.27h-.78V99Z"/><path class="cls-1" d="M99.44,96.1H87.5v22.26H99.62V115.5h-9v-7.92h8.77v-2.85H90.59V99h9V96.1Z"/><path class="cls-1" d="M108.92,95.23v23.13H112V102.3l16.44,17.22V96.1h-3.08V112L108.92,94.79Z"/><path class="cls-1" d="M154.69,96.1h-3.11L145.2,112c-.32-.78-6.42-15.91-6.42-15.91H135.4l9.79,23.71L155,96.1Z"/><path class="cls-1" d="M174.12,96.1H162.18v22.26h12.12V115.5h-9v-7.92H174v-2.85h-8.78V99h9V96.1Z"/><path class="cls-1" d="M184.18,96.1H184v22.26h3.09v-9.27H188l6.45,9.27h3.75l-7-9.61a6.09,6.09,0,0,0,5.15-6.22,6.2,6.2,0,0,0-3-5.38c-1.84-1-4.07-1-5.87-1Zm3.46,2.8c3.94,0,5.78,1.19,5.78,3.74,0,3.39-3,3.83-5.63,3.83h-.69V98.9Z"/><path class="cls-1" d="M210.09,96.1h-.17v22.26h5.78a7.38,7.38,0,0,0,5.23-1.61,5.92,5.92,0,0,0,2.09-4.67,5.66,5.66,0,0,0-4.34-5.57,4.89,4.89,0,0,0,2.34-4.42,5.89,5.89,0,0,0-1.89-4.67,6.54,6.54,0,0,0-4.65-1.32Zm3.81,1.66a6.73,6.73,0,0,1,3.65.67,3.93,3.93,0,0,1,1.72,3.45,3.67,3.67,0,0,1-1.55,3.37,5.19,5.19,0,0,1-3.45.77h-2.6V97.76Zm.67,9.93a10.55,10.55,0,0,1,4.54.68,4.14,4.14,0,0,1,2.17,3.76,4.45,4.45,0,0,1-2.07,3.75,7,7,0,0,1-4.11.81h-3.42v-9Z"/><path class="cls-1" d="M227.62,107.23a11.54,11.54,0,1,0,11.54-11.42A11.64,11.64,0,0,0,227.62,107.23Zm1.76,0a9.78,9.78,0,1,1,9.78,9.75A9.9,9.9,0,0,1,229.38,107.23Z"/><path class="cls-1" d="M266.29,96.1h-12.9v1.66H259v20.6h1.75V97.76h5.67V96.1Z"/><path class="cls-1" d="M277.78,95.48l-9.28,22.87h1.81l2.94-7.21h9.37l2.93,7.21h1.81l-9.42-23.28Zm.17,4.09,4,9.91h-8C274.09,109,277.65,100.31,277.95,99.57Z"/><path class="cls-1" d="M292.73,96v22.37h1.75V99.81l18.39,19.55V96.1h-1.75v18.85L292.73,95.54Z"/><path class="cls-1" d="M322.83,96.1h-1.57v22.26H323V96.1Z"/><path class="cls-1" d="M330.11,107.26a11.65,11.65,0,0,0,11.59,11.39,11.5,11.5,0,0,0,7.41-2.77l.06-.05v-2.5l-.32.39a10.22,10.22,0,0,1-7.21,3.27,10.37,10.37,0,0,1-6.9-3,9.28,9.28,0,0,1-2.88-6.63,10,10,0,0,1,9.79-9.9,9.78,9.78,0,0,1,7.21,3.39l.32.38V98.76l-.06-.06a11,11,0,0,0-7.38-2.89A11.55,11.55,0,0,0,330.11,107.26Z"/><path class="cls-1" d="M103.27,152.35v1.89c0,13.05-9.21,23.08-22.51,23.08s-24-11.47-24-24.65a24.75,24.75,0,0,1,44-15.7l-4.16,4a18.74,18.74,0,0,0-33.92,11.54c0,10,8.2,19.41,18.47,19.41,7.38,0,15.32-6.36,15.57-14.12H84.42v-5.42Z"/><path class="cls-1" d="M116.07,164.39l-5.42,11.92h-6.37L127,126.75l22.7,49.56h-6.37l-5.42-11.92ZM127,139.74,118.53,159h16.9Z"/><path class="cls-1" d="M186.41,176.31h-7.18l-14-20.11h-2.46v20.11h-5.92V128.77H164c4.22,0,8.76.06,12.54,2.21a13.15,13.15,0,0,1,6.25,11.35c0,6.81-4.54,12.48-11.41,13.3Zm-23.64-25.1h1.89c6.06,0,12.61-1.13,12.61-8.7S170.21,134,164.34,134h-1.58Z"/><path class="cls-1" d="M238.57,128.77h25.53v5.42H244.5v13.3h19v5.42h-19v18h19.61v5.42H238.57Z"/><path class="cls-1" d="M274.82,126.5l35.69,37.39V128.77h5.92v49.49l-35.68-37.39v35.44h-5.93Z"/><path class="cls-1" d="M347.14,137.78c-1.76-3-4-4.48-7.63-4.48-3.78,0-7.95,2.59-7.95,6.74,0,3.72,3.66,5.68,6.62,6.81l3.41,1.32c6.75,2.65,11.79,6.37,11.79,14.31,0,8.64-6.68,14.81-15.2,14.81-7.7,0-13.68-5.67-14.69-13.3l6-1.26a8.9,8.9,0,0,0,9.21,9c5.11,0,8.76-4.28,8.76-9.27s-4.1-7.32-8.2-9L336,152.09c-5.42-2.33-10.34-5.42-10.34-12,0-7.69,6.81-12.29,14-12.29a13.56,13.56,0,0,1,12.23,7.19Z"/><path class="cls-1" d="M212.19,140a45.07,45.07,0,0,1-6.41,5.85c3.55,8.82,1.88,11.64.14,13.84a5.92,5.92,0,0,1-.38,1.16,34.63,34.63,0,0,0,8.32-9.41c-3.91-5.9.07-11.38,2.5-15.92,3.54,11.21.73,14.16-1.48,16.25-.47.77-.63,1-1.15,1.74a8,8,0,0,1,.91-.35c.44-.14.78-.21,1.17-.29,2.75-5.38,8.39-5.67,13.59-6.06-2.5-12.12-13.37-18-26.13-18h-9.84v12.06a53,53,0,0,1,6.08-4.07c-1.85,6.24-4,9.26-6.08,10.92v1.09c1.14-.49,2.15-.95,3.06-1.4C197.93,144.67,200,141.45,212.19,140Zm17.5,8.52a26.67,26.67,0,0,1-5.43,4.06c-.46.26-.75.37-1.17.58a10.74,10.74,0,0,1-7.2.63,12.3,12.3,0,0,0-1.35.35,4.91,4.91,0,0,0-2.32,1.4,34,34,0,0,1-5.75,5.72,5.77,5.77,0,0,1,2.06.09c4.15-3.74,8.36-3.64,13.14-2.93a28.21,28.21,0,0,1,3.39.81c-.42.2-2.17.95-2.67,1.17-9.11,4.11-11.83,3.18-14.42,1.74a5,5,0,0,0-3,.39,51.39,51.39,0,0,1-10.39,5.84,6.32,6.32,0,0,1,1.58.32c6.6-3.17,11.1-.89,17.48,1a69.2,69.2,0,0,1-8.78,2.69c-2.45.47-4.45.61-6.73-.6a7.92,7.92,0,0,1-2.46-2.26,7.16,7.16,0,0,0-2.22-.4v7.16h9.65c15,0,26.86-7.82,26.86-24A28.59,28.59,0,0,0,229.69,148.5Zm-34.12,16.8c-2.37-4.88-.21-9,2.36-12.57l.79-1.07c.58-.77,1.18-1.52,1.72-2.24,1.5,11.3-1.47,14.12-4,15.92a3.05,3.05,0,0,1-.52,1.41,47.15,47.15,0,0,0,7.39-4.24,3.63,3.63,0,0,0,1.58-2.43c-3.68-4.23-2.76-8.77-1.31-13a11.82,11.82,0,0,1-6.9,1.21c-1,.47-2,1-3.25,1.47V167.9l.26-.11A3.72,3.72,0,0,0,195.57,165.3Z"/></svg>