<svg id="Layer_1" data-name="Layer 1" xmlns="http://www.w3.org/2000/svg" viewBox="0 0 410 300"><defs><style>.cls-1{fill:#231f20;}.cls-2,.cls-5{fill:#fff;}.cls-3,.cls-4,.cls-5{stroke:#000;}.cls-3{stroke-width:0.5px;}.cls-4{fill:none;stroke-width:2.73px;}.cls-5{stroke-linejoin:round;stroke-width:2.03px;}</style></defs><title>identities</title><path class="cls-1" d="M88.33,237.73h-7.8v19.64H77.29V237.73h-7.8v-2.91H88.33Z"/><path class="cls-1" d="M122.88,248.51c0,5.52-3.31,9.16-10,9.16-4.76,0-9.39-2.68-9.39-8.83v-14h3.24v13.32c0,2.55.33,3.6,1.36,4.63a6.58,6.58,0,0,0,4.86,1.92,7.37,7.37,0,0,0,5.29-1.82c1.16-1.16,1.42-2.81,1.42-4.93V234.82h3.24Z"/><path class="cls-1" d="M160.76,257.37H158L142.91,240v17.36h-3V234.82h2.58l15.27,17.46V234.82h3Z"/><path class="cls-1" d="M197.83,257.37h-3.31l-3-6.64h-9.59l-2.84,6.64h-3.31l9.69-22.68h2.28Zm-14.64-9.55h7l-3.64-8.17Z"/><path class="cls-1" d="M213.36,257.37v-23h11c5.17,0,9.29,1.21,9.29,5.78a6,6,0,0,1-3,5,5.14,5.14,0,0,1,3.83,5.27c0,5.14-3.93,6.93-9.9,6.93Zm7.54-17.63v3.83H224c1.5,0,2.59-.67,2.59-2,0-1.79-1.47-1.82-3.06-1.82Zm0,8V252h3.29c1.85,0,3.26-.38,3.26-2.11,0-2-1.76-2.14-4.15-2.14Z"/><path class="cls-1" d="M251.32,257.37v-23h7.54v23Z"/><path class="cls-1" d="M278,234.38h7.54v7.44l6.61-7.44H301l-8.4,8.66,9.29,14.34h-9l-5.52-9.16-1.79,1.88v7.28H278Z"/><path class="cls-1" d="M318.87,257.37v-23h18.74v5.37H326.41V243h9.48v5.36h-9.48V252h11.65v5.36Z"/><path class="cls-2" d="M228.09,186.07A71,71,0,1,0,136.7,144.4a71,71,0,0,0,91.39,41.67Z"/><path d="M260.44,67.7a77.73,77.73,0,1,1-109.75-6.13A77.73,77.73,0,0,1,260.44,67.7Zm-105.28-.95a70.74,70.74,0,1,0,99.89,5.58,70.74,70.74,0,0,0-99.89-5.58Z"/><path d="M263.42,167.92a10.14,10.14,0,0,0-2.78,10.61c1.8,5.9-.16,7.7-5.64,5.09a9.92,9.92,0,0,0-10.89,1.56"/><path d="M248.17,182.39a10.14,10.14,0,0,0-5.52,9.48c.16,6.16-2.22,7.37-6.79,3.39A9.92,9.92,0,0,0,225,193.85"/><path d="M229.61,192.25a10.14,10.14,0,0,0-7.85,7.66c-1.5,6-4.12,6.51-7.45,1.45a9.92,9.92,0,0,0-10.13-4.28"/><path d="M209.08,196.78a10.13,10.13,0,0,0-9.62,5.27c-3,5.36-5.71,5.17-7.57-.6a9.92,9.92,0,0,0-8.61-6.84"/><path d="M188.09,195.65a10.13,10.13,0,0,0-10.68,2.5c-4.37,4.35-6.88,3.45-7.13-2.61a9.92,9.92,0,0,0-6.47-8.9"/><path d="M168.17,188.93a10.13,10.13,0,0,0-11-.45c-5.38,3-7.56,1.48-6.17-4.43a9.92,9.92,0,0,0-3.85-10.3"/><path d="M150.78,177.12a10.14,10.14,0,0,0-10.44-3.37c-6,1.47-7.68-.6-4.76-5.92a9.92,9.92,0,0,0-.95-11"/><path d="M137.18,161.08a10.13,10.13,0,0,0-9.15-6c-6.16-.19-7.24-2.63-3-7a9.92,9.92,0,0,0,2-10.81"/><path d="M128.38,142a10.13,10.13,0,0,0-7.2-8.27c-5.89-1.84-6.27-4.48-1-7.52a9.92,9.92,0,0,0,4.85-9.87"/><path d="M125,121.24a10.14,10.14,0,0,0-4.72-9.9c-5.18-3.35-4.84-6,1-7.52a9.92,9.92,0,0,0,7.31-8.21"/><path d="M127.34,100.35a10.13,10.13,0,0,0-1.9-10.8c-4.09-4.61-3.06-7.07,3-7a9.92,9.92,0,0,0,9.25-6"/><path d="M135.17,80.84a10.14,10.14,0,0,0,1.07-10.92c-2.71-5.54-1.05-7.63,4.77-5.91a9.92,9.92,0,0,0,10.5-3.26"/><path d="M147.94,64.14a10.13,10.13,0,0,0,4-10.23c-1.13-6.06,1-7.63,6.17-4.42a9.92,9.92,0,0,0,11-.33"/><path d="M164.71,51.47a10.13,10.13,0,0,0,6.55-8.8c.54-6.14,3-7.08,7.13-2.6a9.92,9.92,0,0,0,10.68,2.63"/><path d="M184.27,43.76A10.13,10.13,0,0,0,192.94,37c2.17-5.77,4.82-6,7.57-.6a9.92,9.92,0,0,0,9.58,5.4"/><path d="M205.18,41.57a10.13,10.13,0,0,0,10.15-4.16c3.64-5,6.26-4.49,7.46,1.45a9.92,9.92,0,0,0,7.79,7.77"/><path d="M225.91,45.06a10.13,10.13,0,0,0,10.89-1.29c4.84-3.83,7.23-2.65,6.79,3.39A9.92,9.92,0,0,0,249,56.74"/><path d="M244.95,54a10.14,10.14,0,0,0,10.84,1.68c5.68-2.39,7.68-.62,5.63,5.09a9.93,9.93,0,0,0,2.66,10.67"/><path d="M260.9,67.67a10.14,10.14,0,0,0,10,4.52c6.11-.78,7.56,1.46,4.06,6.41a9.92,9.92,0,0,0-.29,11"/><path d="M272.6,85.13a10.13,10.13,0,0,0,8.42,7c6.1.89,6.89,3.43,2.2,7.27A9.92,9.92,0,0,0,280,109.95"/><path d="M279.2,105.09a10.13,10.13,0,0,0,6.22,9c5.64,2.49,5.72,5.15.17,7.59a9.92,9.92,0,0,0-5.93,9.27"/><path d="M280.21,126.09a10.13,10.13,0,0,0,3.58,10.37c4.77,3.91,4.14,6.5-1.87,7.36a9.93,9.93,0,0,0-8.19,7.34"/><path d="M275.28,147.32a10.13,10.13,0,0,0,.56,11c3.5,5.08,2.17,7.39-3.84,6.55a9.92,9.92,0,0,0-9.91,4.78"/><path d="M260.44,67.7a77.73,77.73,0,1,1-109.75-6.13A77.73,77.73,0,0,1,260.44,67.7Zm-97.57,7.43a59.5,59.5,0,1,0,84,4.69,59.5,59.5,0,0,0-84-4.69Z"/><path class="cls-3" d="M263.42,167.92a10.14,10.14,0,0,0-2.78,10.61c1.8,5.9-.16,7.7-5.64,5.09a9.92,9.92,0,0,0-10.89,1.56"/><path class="cls-3" d="M248.17,182.39a10.14,10.14,0,0,0-5.52,9.48c.16,6.16-2.22,7.37-6.79,3.39A9.92,9.92,0,0,0,225,193.85"/><path class="cls-3" d="M229.61,192.25a10.14,10.14,0,0,0-7.85,7.66c-1.5,6-4.12,6.51-7.45,1.45a9.92,9.92,0,0,0-10.13-4.28"/><path class="cls-3" d="M209.08,196.78a10.13,10.13,0,0,0-9.62,5.27c-3,5.36-5.71,5.17-7.57-.6a9.92,9.92,0,0,0-8.61-6.84"/><path class="cls-3" d="M188.09,195.65a10.13,10.13,0,0,0-10.68,2.5c-4.37,4.35-6.88,3.45-7.13-2.61a9.92,9.92,0,0,0-6.47-8.9"/><path class="cls-3" d="M168.17,188.93a10.13,10.13,0,0,0-11-.45c-5.38,3-7.56,1.48-6.17-4.43a9.92,9.92,0,0,0-3.85-10.3"/><path class="cls-3" d="M150.78,177.12a10.14,10.14,0,0,0-10.44-3.37c-6,1.47-7.68-.6-4.76-5.92a9.92,9.92,0,0,0-.95-11"/><path class="cls-3" d="M137.18,161.08a10.13,10.13,0,0,0-9.15-6c-6.16-.19-7.24-2.63-3-7a9.92,9.92,0,0,0,2-10.81"/><path class="cls-3" d="M128.38,142a10.13,10.13,0,0,0-7.2-8.27c-5.89-1.84-6.27-4.48-1-7.52a9.92,9.92,0,0,0,4.85-9.87"/><path class="cls-3" d="M125,121.24a10.14,10.14,0,0,0-4.72-9.9c-5.18-3.35-4.84-6,1-7.52a9.92,9.92,0,0,0,7.31-8.21"/><path class="cls-3" d="M127.34,100.35a10.13,10.13,0,0,0-1.9-10.8c-4.09-4.61-3.06-7.07,3-7a9.92,9.92,0,0,0,9.25-6"/><path class="cls-3" d="M135.17,80.84a10.14,10.14,0,0,0,1.07-10.92c-2.71-5.54-1.05-7.63,4.77-5.91a9.92,9.92,0,0,0,10.5-3.26"/><path class="cls-3" d="M147.94,64.14a10.13,10.13,0,0,0,4-10.23c-1.13-6.06,1-7.63,6.17-4.42a9.92,9.92,0,0,0,11-.33"/><path class="cls-3" d="M164.71,51.47a10.13,10.13,0,0,0,6.55-8.8c.54-6.14,3-7.08,7.13-2.6a9.92,9.92,0,0,0,10.68,2.63"/><path class="cls-3" d="M184.27,43.76A10.13,10.13,0,0,0,192.94,37c2.17-5.77,4.82-6,7.57-.6a9.92,9.92,0,0,0,9.58,5.4"/><path class="cls-3" d="M205.18,41.57a10.13,10.13,0,0,0,10.15-4.16c3.64-5,6.26-4.49,7.46,1.45a9.92,9.92,0,0,0,7.79,7.77"/><path class="cls-3" d="M244.95,54a10.14,10.14,0,0,0,10.84,1.68c5.68-2.39,7.68-.62,5.63,5.09a9.93,9.93,0,0,0,2.66,10.67"/><path class="cls-3" d="M260.9,67.67a10.14,10.14,0,0,0,10,4.52c6.11-.78,7.56,1.46,4.06,6.41a9.92,9.92,0,0,0-.29,11"/><path class="cls-3" d="M272.6,85.13a10.13,10.13,0,0,0,8.42,7c6.1.89,6.89,3.43,2.2,7.27A9.92,9.92,0,0,0,280,109.95"/><path class="cls-3" d="M279.2,105.09a10.13,10.13,0,0,0,6.22,9c5.64,2.49,5.72,5.15.17,7.59a9.92,9.92,0,0,0-5.93,9.27"/><path class="cls-3" d="M280.21,126.09a10.13,10.13,0,0,0,3.58,10.37c4.77,3.91,4.14,6.5-1.87,7.36a9.93,9.93,0,0,0-8.19,7.34"/><path class="cls-3" d="M275.28,147.32a10.13,10.13,0,0,0,.56,11c3.5,5.08,2.17,7.39-3.84,6.55a9.92,9.92,0,0,0-9.91,4.78"/><polygon class="cls-2" points="228.21 190.83 210.14 195.03 192.43 194.38 173.13 188.49 178.32 180 201.61 185.85 221.76 179.41 227.7 185.56 237.79 187.25 228.21 190.83 228.21 190.83"/><path class="cls-4" d="M229.64,189.79a75.18,75.18,0,1,0-96.75-44.11,75.19,75.19,0,0,0,96.75,44.11Z"/><path d="M277.2,134.68s-9.32,28.95-21.08,37.71L252,165.21l5.86-10.92,3.53-19.75,16.22-.73-.4.88Z"/><path class="cls-2" d="M262.68,134.77c2.76,2.85,10.58,16,9.71,31.18l-8,3.83c1.26-5.08-3-13.68-5.59-14.16"/><path d="M262.08,139.25c2.29,1.65,6.8,9.8,7.48,16.66-.91-3-5.38-9.91-7.74-11.75"/><path d="M260.58,142.53c2.29,1.65,6.8,9.8,7.48,16.66-.91-3-5.38-9.91-7.74-11.75"/><path d="M259.14,145.68c2.29,1.65,6.8,9.8,7.48,16.66-.91-3-5.38-9.91-7.74-11.75"/><path d="M233.31,75.65c4.23-4.25,12.27-8.71,23-8.59,0,0,32,24.66,19.49,70.33-6.3-3.23-13.8-.8-13.85-3.31-.65-32.26-14.52-49.87-28.62-58.43Z"/><path class="cls-2" d="M233.12,78.39c7.82-4.38,15.56-8,24.34-6.91,0,0-14.72,1.5-19.2,9l-5.14-2.08Z"/><path class="cls-2" d="M238.94,83.09c7.94-4.16,15.78-7.57,24.52-6.24,0,0-14.76,1.09-19.44,8.46l-5.08-2.22Z"/><path class="cls-2" d="M242.06,88.41c8.09-3.87,16.05-7,24.74-5.33,0,0-14.79.55-19.74,7.74l-5-2.41Z"/><path class="cls-2" d="M248.17,92.88c8.28-3.45,13.83-5.19,22.42-3.1,0,0-14.79-.21-20.11,6.71l-2.31-3.61Z"/><path class="cls-2" d="M251.21,99c8.47-3,14.11-4.37,22.57-1.78,0,0-14.76-1.08-20.47,5.52L251.21,99Z"/><path class="cls-2" d="M254.26,105.93c7.62-2.66,12.7-3.93,20.31-1.6,0,0-13.28-1-18.42,5l-1.89-3.37Z"/><path class="cls-2" d="M256,112.54c7.68-2.47,12.79-3.62,20.34-1.11,0,0-13.25-1.29-18.53,4.52L256,112.54Z"/><path class="cls-2" d="M258.37,118.68c6.91-2.22,11.51-3.26,18.31-1,0,0-11.93-1.17-16.68,4.07l-1.62-3.07Z"/><path class="cls-2" d="M257.84,125.06c6.91-2.22,11.51-3.26,18.31-1,0,0-11.93-1.17-16.68,4.07l-1.62-3.07Z"/><path class="cls-2" d="M258,131.84c6.22-2,10.36-2.94,16.48-.9,0,0-10.73-1-15,3.66L258,131.84Z"/><path class="cls-2" d="M260.3,135.54s-.54,20.94-13.4,35.2L244,162l-4.5-2.32,11.11-23.8,9.69-.35Z"/><path d="M183,93.6c-4.25-5.2-12.23-11.31-18.78-14.57,17-10.24,49.1-19.2,77,.94s25.32,59.25,16.61,78.2c-5.09,11.07-14.79,24.69-35.46,33.62,16-7.8,32.65-25.54,35.59-43s5.08-44.83-18.91-64.24-54.93-7.76-56.55-7.24c-4.12,1.3-12.27,8.11,1.94,12,2.43.67,15.29,2.65,19.74,3.17"/><path d="M181.92,93.89c-6.06-6.47-17.22-13.94-19.49-14.18l-3.07,1.51s14.59,6.92,22.56,12.67Z"/><path d="M181.81,93.93l-22.88-1.12.61,2.68c7.27-.95,22.27-1.55,22.27-1.55Z"/><path d="M216.09,81.66c2.93,4.12,7.22,16.33,3.82,25.8-7.42,20.65-19.93,14-22.4,8.37,4.83,5.47,14.31,5.25,20.57-10.84,4-10.34-2-23.33-2-23.33Z"/><path d="M223.87,100c0,5.82-1.35,11.3-4.93,16,6.65,8.06,16.34-1.38,4.93-16Z"/><path d="M220.82,116.68c9.89,9.92,9.73,16.47,10.18,24.24,1.68-3.5,4.13-11.58-.59-19.51,5,4.73,13.15,19.69,10.79,33.48,9.5-22.82-3.15-43.37-16.7-54.51,12.25,14.26,6.9,29.5-3.67,16.3Z"/><path d="M256.71,68.49c-11.42-13.68-39.31-16.6-52.31-15.38s-45.62,8.65-58.38,43c-14.07,37.94,19.8,68.16,41.75,66.62,16.78-1.18,21.78-16,19.68-26.52,5.72-6.75,8.23-9.14,7.86-15.31a9.09,9.09,0,0,0,2.61-3.4c5.79,5.11,14.45,14,8.66,32.9,5.11-5.79,8.65-9.3,9.38-15.15,2.46,8.54,5.16,16.88-3.15,34.4-2.83,6-10.65,15.05-17.81,18.54-12.26,6-21,5.61-35.08,2.19-7.47-1.82-36.1-12.22-48.85-48.93s11.59-69.58,19.47-76.4S178.85,38,222,45.94c22.15,4.09,34.74,22.55,34.74,22.55Z"/><path d="M183,82.92c12.45-4.65,31.64-7.82,51.25.86-18.1-11.43-38.65-9.2-50.85-4.64-4.79,1.79-4.23,5.22-.4,3.79Z"/><path d="M209,80.47a140.41,140.41,0,0,0-17.77,2.12c-1.1,3.36-1.07,8.44,12.9-1.18-6,3.28-9.53,4.82-8.33,1.16l13.2-2.1Z"/><path d="M162.54,96.22c8.37,2,11,4.8,13.36,7.2s7.95,4.58,13.67,5.44c3.47.52,4.21,3.36,5.58,5.19,2.91,3.89,14.69.69,14.89-12.72-1.53,8.57-9.91,13.4-12.5,10.37l6.84-1.83-7.52-.34,9.11-1.59-11.69-.12,13.11-2.23-15.44.55,16.65-2.83-20.81,1.11,20.88-3.19-25.86,1.54L208,99.53l-28.32,1.12L207,97.73l-30.19,1,28.68-3.08-32.3,1.52,27.9-2.91-38.55,2Z"/><polyline points="161.36 82.05 160.23 83.56 162.8 82.97"/><polyline points="163.04 82.81 161.91 84.33 164.48 83.73"/><polyline points="164.73 83.58 163.59 85.09 166.16 84.5"/><polyline points="166.41 84.35 165.28 85.86 167.84 85.26"/><polyline points="168.09 85.11 166.96 86.63 169.52 86.03"/><polyline points="169.77 85.88 168.64 87.39 171.2 86.8"/><polyline points="161.24 93.03 160.97 91.16 162.94 92.91"/><polyline points="163.08 93.16 162.81 91.29 164.78 93.04"/><polyline points="164.92 93.29 164.65 91.42 166.62 93.18"/><polyline points="166.76 93.43 166.5 91.56 168.46 93.31"/><polyline points="168.61 93.56 168.34 91.69 170.31 93.44"/><polyline points="170.45 93.69 170.18 91.82 172.15 93.58"/><path d="M214.36,190.43c12.05-4.75,22.72-16.76,30.33-36.32,6.31-16.19.72-44.17-20.68-55.33,0,0-1.44-12-5.72-17.26,9.14,2.4,14.77,3.21,23.79,11.73,10.49,9.9,14.25,24.51,14.56,37,.27,11-2.32,27.55-10.71,38.2s-13.39,17.38-31.56,22Z"/><path d="M188.7,152.85,148.33,130a14.12,14.12,0,0,1-13.84.18c-5.07-3-7.13-9-5.58-14.66L141.69,123l4.88-7.52L133.71,108c4.7-4.2,11.41-5.29,16.64-2.23A12.31,12.31,0,0,1,156.3,118l40.23,22.75,33.35,18.8a14.13,14.13,0,0,1,13.84-.18c5.07,3,7.13,9,5.58,14.66l-12.78-7.43-4.88,7.52,12.86,7.46c-4.7,4.2-11.41,5.29-16.64,2.23a12.31,12.31,0,0,1-5.94-12.29L188.7,152.85Z"/><path class="cls-5" d="M187.13,156l-40.33-22.89a13.06,13.06,0,0,1-13.45.38c-5.07-3-7.36-9.1-6.13-15L140,126l4.39-7.8-12.86-7.49c4.37-4.38,10.84-5.6,16.07-2.53A13.35,13.35,0,0,1,154,120.69l40.19,22.81,33.32,18.85a13.07,13.07,0,0,1,13.45-.38c5.07,3,7.36,9.1,6.13,15l-12.78-7.46-4.39,7.8,12.86,7.49c-4.37,4.38-10.84,5.6-16.07,2.53a13.35,13.35,0,0,1-6.37-12.54L187.13,156Z"/><path d="M213.59,121.53s-6.17,2.49-10,2.08c0,0-8.61,8.47-12,13.21-2.94,4.13-6.79,11-4.58,19.54,8.22,4.81,24.63,13.35,24.63,13.35-12.54-18-6.88-33.33-6.17-34.68,5.14-5.07,8-9.83,8.05-13.5Z"/><path class="cls-2" d="M212.68,122.24c-12.92,8.51-24.26,19.13-19.06,37.06-1-12.08.84-20.73,15.31-31.33"/><path class="cls-2" d="M211.29,123.32c-11.66,10.17-20.17,20.83-12.61,37.89-2.62-11.84-2-20.65,11-33.1"/><path class="cls-2" d="M208.86,124.43c-9,12.59-14.8,24.93-3.5,39.78-5.29-10.91-6.68-19.64,3-34.74"/><path class="cls-2" d="M211.89,123.31c-13.85,6.91-25.71,14.95-22.69,33.37.44-12.12,3.31-20.48,18.94-29.28"/><path d="M203.66,144.94a26.73,26.73,0,0,1,1.88-9.92c5.14-5.07,8-9.83,8.05-13.5,0,0-6.17,2.49-10,2.08,0,0-3.18,3.13-6.43,6.65a94.76,94.76,0,0,0,6.46,14.69Z"/><polygon points="248.93 177.63 244.6 175.79 240.41 179.17 245.29 181.53 248.93 177.63 248.93 177.63"/><polyline points="125.78 117.29 128.53 115.54 130.73 116.9 127.97 117.93"/></svg>