<svg id="Layer_1" data-name="Layer 1" xmlns="http://www.w3.org/2000/svg" xmlns:xlink="http://www.w3.org/1999/xlink" viewBox="0 0 410 300"><defs><style>.cls-1{fill:#231f20;}.cls-2{fill:#a97c50;}.cls-3{fill:#c49a6c;}.cls-4{fill:#fbb040;}.cls-5{fill:url(#New_Gradient_Swatch_7);}.cls-6{fill:#fff;}.cls-7{fill:#e7d7c4;}.cls-8{fill:#88ac2e;}.cls-9{fill:#9c4a9c;}.cls-10{fill:url(#New_Gradient_Swatch_7-2);}</style><linearGradient id="New_Gradient_Swatch_7" x1="239.38" y1="139.07" x2="239.38" y2="175.55" gradientUnits="userSpaceOnUse"><stop offset="0" stop-color="#c49a6c"/><stop offset="1" stop-color="#a97c50"/></linearGradient><linearGradient id="New_Gradient_Swatch_7-2" x1="180.03" y1="132.2" x2="180.03" y2="154.5" xlink:href="#New_Gradient_Swatch_7"/></defs><title>identities</title><path class="cls-1" d="M227.78,71.36h-.25v0a23.79,23.79,0,0,0-10,2,23.76,23.76,0,0,0-10-2v0h-.25A14.49,14.49,0,1,0,217.54,96.1a14.49,14.49,0,1,0,10.25-24.75Z"/><path class="cls-1" d="M253.41,206.35c4.94-7.94,9.62-26.2,8.79-43.55,1.79-26.74-3.25-49.85-10.16-66,13-10.31,2.13-15.47-6.88-12.94a39.4,39.4,0,0,0-6.58-7.81h-.08a14.45,14.45,0,0,0-10.72-4.74h-.25v0a23.79,23.79,0,0,0-10,2,23.76,23.76,0,0,0-10-2v0h-.25a14.44,14.44,0,0,0-5.68,1.16l-.06,0a56.08,56.08,0,0,0-8.84,3.78c-7.25-5.44-17.6-6.06-11.25,8-16,14.66-21.38,36.47-24.8,48.71-2.32,6.07-4,11.69-4.46,13.43-2.56,8.27-3.81,22.82-1.25,37.74-3.83-.24-7.1-.35-9.09-.26-33.34,1.43-48.06,18-46.3,26,9.81,7.41,23.79,11.36,38.33,9.47h60.62c6.35,0,6.7-4.06,5.64-7.13h11.32c-1.06,3.08-.71,7.13,5.64,7.13h60.76C278.1,201.28,266,205.89,253.41,206.35Z"/><path class="cls-2" d="M157.88,205.89A76,76,0,0,1,151.49,187c-2.9-.22-5-.35-5.8-.35-29.32.1-42,13.84-40.28,20.35a50.87,50.87,0,0,0,28.49,8.54C135.41,202,146.87,206.1,157.88,205.89Z"/><path class="cls-2" d="M242.94,86.76c.51,1,1,1.92,1.49,2.91,4.05-1.46,7.44-1.1,1.5,3.24.47,1.07.92,2.16,1.36,3.27,3-2,7-5.21,6.84-7.8C253.89,85,247,85.75,242.94,86.76Zm-51.62-5c.85-.58,1.73-1.14,2.64-1.69-4.77-3.16-16-8.81-8.22,6q1.16-1,2.42-2C185.24,78.57,188.27,79.15,191.32,81.76Z"/><path class="cls-3" d="M256.17,210.17h-8.45a89.1,89.1,0,0,0,7.66-54.53c1.06-5.16.93-17.08.06-23.74-2-19.75-6.68-34.71-13.18-46.4,0,.12,0,.23,0,.35A14.49,14.49,0,0,1,217.54,96.1,14.49,14.49,0,0,1,194,80c-19,11.31-23.93,28.66-26.8,41.75l-.75,2.39-2.35,8.57s-2.7,5.63-3.94,7.88a89.59,89.59,0,0,0,3.71,69.54h-9.68c-6.3,0-11.47-.22-12.38,5.85h46.36c3.83,0,11.47-1,3.83-9.11h27.55c-7.66,8.1,0,9.11,3.82,9.11h45.14C267.65,209.95,262.47,210.17,256.17,210.17Z"/><ellipse class="cls-4" cx="206.67" cy="168.79" rx="42.12" ry="35.69"/><path class="cls-5" d="M250.64,131l-13.13,6.38c.16,6.11-.05,25.35-9,35.18s-5.9,14.42-2.43,16,17,1.82,28.95-31.63c1.68-4.7,1.32-22.58-.12-28.15"/><path class="cls-1" d="M261.53,140.61,256,138c1.34,16.8-6.08,40-24.7,49.12a4.32,4.32,0,0,1-3.77,0c.94-.8,2-1.77,3.12-2.73,2-1.79,3.81-3.44,3.81-3.45L233,179.44s-2,1.88-4.19,3.78c-1.07,1-2.16,1.91-3,2.63l-.73.6a2.12,2.12,0,0,1-.78-.78l7.33-6.79-1.42-1.54h0l-6.1,5.65v0c0-.83.48-1.9,1.73-3.21,12.09-12.77,14.77-25.46,14.76-34.37a46.62,46.62,0,0,0-.76-8.3l-.26-1.44-8,4.4.21.79A35.31,35.31,0,0,1,233,150c0,8-2.82,14.58-5.76,19.89-1.47,2.66-3,5-4.14,7a14.64,14.64,0,0,0-2.25,5.32,15.63,15.63,0,0,0-.09,1.57,4.58,4.58,0,0,0,.31,1.84,3.94,3.94,0,0,0,.65,1h0a2.47,2.47,0,0,0,2.51,2.51h0A3,3,0,0,0,225,189a1.78,1.78,0,0,0,.33-.14C241.8,195.48,262.46,167.22,261.53,140.61Z"/><path class="cls-6" d="M225.46,74.64a11.17,11.17,0,0,0-7.92,3.28,11.21,11.21,0,1,0,0,15.86,11.21,11.21,0,1,0,7.92-19.13Z"/><path class="cls-1" d="M212.07,85l3.77-3.31A6.58,6.58,0,1,0,217,86Z"/><path class="cls-1" d="M226.6,85.9l3.6-3.41A5.54,5.54,0,1,0,231.44,86Z"/><path class="cls-7" d="M217.54,96.11a14.44,14.44,0,0,1-10.24,4.24h-.42a22.44,22.44,0,0,0-5.5,10.62c-2.19,9.79,1.85,19,9,20.62s14.74-5,16.94-14.81c1.47-6.6.12-12.94-3.11-16.86A14.48,14.48,0,0,1,217.54,96.11Z"/><path class="cls-1" d="M223.94,117.21l1.15-.66-.91-1a16,16,0,0,0-12-5.19,18.43,18.43,0,0,0-7,1.39l-1.27.55.87,1.07c2.23,2.77,5.28,6.61,7.32,9.48a13.58,13.58,0,0,1-.23,2.89,11.9,11.9,0,0,1-4.61-2.53c1.87,4.35,5.48,5.59,9.13,2.88a9.48,9.48,0,0,1-3.21,0,14.81,14.81,0,0,1,.71-3C216.86,121.34,221.81,118.42,223.94,117.21Z"/><ellipse class="cls-1" cx="184.31" cy="103.72" rx="1.23" ry="1.34"/><ellipse class="cls-1" cx="190.21" cy="106.04" rx="1.14" ry="1.25"/><ellipse class="cls-1" cx="185.55" cy="108.08" rx="1.51" ry="1.64"/><circle class="cls-1" cx="242.1" cy="110.97" r="1.37"/><circle class="cls-1" cx="243.06" cy="114.4" r="1.11"/><circle class="cls-1" cx="237.72" cy="114.81" r="1.54"/><path class="cls-1" d="M216.14,71.31a11.37,11.37,0,0,0-13.73-5.61l.64,3.06C205.66,67.55,213.61,67.86,216.14,71.31Z"/><path class="cls-1" d="M218.37,72.31c0-1.08,1.91-6.09,8.79-7.16l-.73,3.48C224,68.28,219.43,69.33,218.37,72.31Z"/><path class="cls-6" d="M216.24,113.36a8.91,8.91,0,0,1,5.36,2.85s-2.43,1.22-4.75,2.54C219.87,115.46,218.12,114.11,216.24,113.36Z"/><path class="cls-1" d="M145.32,120.21h0Zm57.82,39-6.84,2A50,50,0,0,1,182.65,163a3.45,3.45,0,0,0-1.71.36l-2.29,0,0-.07-7.23-.4A52.06,52.06,0,0,1,155.24,159l.11-.11a12.09,12.09,0,0,0,3.33-8.59q0-.44,0-.9c0-.09,0-.22,0-.39V149a12.38,12.38,0,0,0-3.21-7.19,16.1,16.1,0,0,0-5.32-3.79l-.45-.19A19.87,19.87,0,0,0,151,130.9c0-.38,0-.77,0-1.17a12.49,12.49,0,0,0-1.54-5.19,12,12,0,0,0-4.1-4.33,12.36,12.36,0,0,0-6.62-2q-.47,0-.92,0h0a11,11,0,0,0-5.67,2.24,12.85,12.85,0,0,0-2.14,2.08q-.43-.37-.9-.73a13.75,13.75,0,0,0-8.35-3l-.64,0h-.13a11.55,11.55,0,0,0-7.59,3.78,10.22,10.22,0,0,0-2.2,3.81,11.64,11.64,0,0,0-.53,3.54c0,.43,0,.83.05,1.21v.05a20.18,20.18,0,0,0,1.74,6.25,23.37,23.37,0,0,0-2.61,1.67,17.61,17.61,0,0,0-4.32,4.53,13.08,13.08,0,0,0-2.14,7.1q0,.49,0,.95v.06a13.1,13.1,0,0,0,7.36,10.54,14.18,14.18,0,0,0,5.65,1.34,11.79,11.79,0,0,0,.77,3.29,13.2,13.2,0,0,0,4,5.5,11.93,11.93,0,0,0,7.47,2.64q.44,0,.88,0h.08a11.67,11.67,0,0,0,1.73-.28h.1a12.51,12.51,0,0,0,3.76-1.68l1.21,2.39a9.81,9.81,0,0,0,4.52,4.44,11.54,11.54,0,0,0,5,1.07,17.61,17.61,0,0,0,5.09-.81,23.56,23.56,0,0,0,5.95-2.63,20.3,20.3,0,0,0,2-1.44c1.17.26,2.52.55,3.89.83s2.89.58,4.24.8a34.23,34.23,0,0,0,3.78.47l2.5.12v0l9.57.53v0h0c.17,0,.83,0,1.84-.08a8.3,8.3,0,0,0,2.24-.49l.4-.17c1.44-.18,3.49-.43,5.56-.71,1.43-.2,2.87-.41,4.2-.64a33.59,33.59,0,0,0,3.66-.8l4.47-1.33Z"/><path class="cls-8" d="M199,168.26c-3.47,1-17.17,4-27.89,3.36a58.49,58.49,0,0,1-24.41-7.16,37.76,37.76,0,0,1-7.77-5.8l-2.74-.85a10.21,10.21,0,0,1,0,2A31.17,31.17,0,0,0,148.75,169l2.48,1-2.59.72a18.92,18.92,0,0,0-7.54,4.52,3.71,3.71,0,0,0,3.13,1.26,11,11,0,0,0,3.11-.52,15.35,15.35,0,0,0,7.51-4.61l.36-.37.5.11c1.78.39,7.71,1.5,12.09,2.18h0l.43.06c1.16.18,2.2.32,3,.4v-.1a85.5,85.5,0,0,0,28.45-2.94Z"/><path class="cls-9" d="M139.26,141.58a12.8,12.8,0,0,1,.75,1.86c.27-.38.53-.78.79-1.18,1.75-2.85,3.18-6.05,3.17-9.06,0-.23,0-.47,0-.7a5.88,5.88,0,0,0-2.7-4.63,6,6,0,0,0-3.23-1.07l-.37,0a5.58,5.58,0,0,0-4.12,2.92,19.37,19.37,0,0,0-2.1,5.31c-.09.33-.16.66-.24,1a9.41,9.41,0,0,1,4.26,1.31A10.06,10.06,0,0,1,139.26,141.58Zm12.38,10.5c0-.08,0-.16,0-.21-.26-2.8-2.4-4.69-4.84-5.8a16.67,16.67,0,0,0-6.47-1.4,10.27,10.27,0,0,1,.2,2,9.29,9.29,0,0,1-3.36,7.18,10.89,10.89,0,0,1-7,2.45c-.31,0-.64,0-1,0a9.29,9.29,0,0,1-8.84-9.58,13.21,13.21,0,0,1,1.2-5.37h0a8.61,8.61,0,0,1,3.77-3.9,10.88,10.88,0,0,1,4.73-1.35,29.69,29.69,0,0,0-1.79-2.87c-2.28-3.07-5-5.71-8.27-5.7h-.3a5.22,5.22,0,0,0-3.4,1.76,4.35,4.35,0,0,0-1.06,3.05c0,.22,0,.44,0,.65.28,3,2,6.3,3.93,8.82.27.33.54.63.81.91l.67.68-1,.1a16.45,16.45,0,0,0-7.87,3.11c-2.18,1.62-3.91,3.85-3.91,6.54,0,.16,0,.32,0,.48a6.51,6.51,0,0,0,1,2.92,7,7,0,0,0,6.15,3.18,9.34,9.34,0,0,0,.94,0,17.84,17.84,0,0,0,5.94-1.78l1.15-.56-.52,1.17a16.34,16.34,0,0,0-1.69,6.43c0,.17,0,.34,0,.5a5.66,5.66,0,0,0,.35,1.58,6.18,6.18,0,0,0,5.61,4.12h.42a6.62,6.62,0,0,0,.8-.13A8.75,8.75,0,0,0,133,167a12.31,12.31,0,0,0,2.12-5.56c0-.55,0-1.1,0-1.64,0-.83,0-1.63-.1-2.38,0-.22,0-.43-.06-.65l-.07-.74.7.26a28.84,28.84,0,0,0,9.59,2.15c.32,0,.63,0,.93,0a6.26,6.26,0,0,0,4.05-1.69,5.72,5.72,0,0,0,1.49-4.13C151.66,152.44,151.66,152.26,151.64,152.08Z"/><path class="cls-4" d="M125.22,144.56c1.07-2.39,6.84-4.45,9.24.41s-1.34,8.22-5.46,7.88S123.39,148.67,125.22,144.56Z"/><path class="cls-10" d="M179.39,127.19l4.37,6.44,6.13,2.86c-7.34,17.36-4.37,21.32,1.25,33.38s1.32,15.53-2.48,16-26.06-17.21-21.94-61.28Z"/><path class="cls-1" d="M196.6,179.56a11.42,11.42,0,0,0-1.58-4.4c-2.6-5-7.44-12.65-7.44-23.78a43.88,43.88,0,0,1,2.67-14.7l.34-1-6.79-2.64-.35,1a39.59,39.59,0,0,0-2,12.65c0,8,2.2,18.56,10.49,29.84a5.55,5.55,0,0,1,1.33,3.1,2.66,2.66,0,0,1,0,.35l-5.35-6.37L186.3,175h0l6.22,7.4a2.18,2.18,0,0,1-.82.75l-.7-.75c-2.34-2.54-6.13-7-6.14-7l-1.6,1.36s1.8,2.13,3.7,4.3c.83,1,1.68,1.91,2.41,2.7a4.09,4.09,0,0,1-3.75-.51c-20.41-14.29-24-51.45-14.45-75.72.94-2.39-9,15.29-9,15.29-6.64,20.78,7.51,71.57,29.89,63.19a2.79,2.79,0,0,0,.62.07h0a2.47,2.47,0,0,0,1.76-.73,2.53,2.53,0,0,0,.69-1.46,3.85,3.85,0,0,0,1-1.21,5.83,5.83,0,0,0,.45-2.6C196.61,179.92,196.6,179.74,196.6,179.56Z"/></svg>