<svg id="Layer_1" data-name="Layer 1" xmlns="http://www.w3.org/2000/svg" viewBox="0 0 410 300"><defs><style>.cls-1{fill:#706c65;}.cls-2{fill:#825aa6;}.cls-3{fill:#fff6c0;}.cls-4{fill:#ffe600;}.cls-5{fill:#fff;}</style></defs><title>identities</title><path class="cls-1" d="M149,117.36h4.7v5.2H149Zm0,10h4.7v24.7H149Z"/><path class="cls-1" d="M159.49,152.06v-24.7h4.65v1.43s4.06-2,7.13-2c6.88,0,8.51,3.71,8.51,12.32v12.92h-4.7V139.19c0-5.59-.64-8-4.6-8a20.29,20.29,0,0,0-6.33,1.49v19.4Z"/><path class="cls-1" d="M205.27,152.06h-4.65v-1.44a17.8,17.8,0,0,1-7,1.93c-5.74,0-9.16-2.87-9.16-12.87,0-8.81,3-12.87,10.29-12.87a54.46,54.46,0,0,1,5.84.59v-10h4.65Zm-4.65-5.25V131.52a53.22,53.22,0,0,0-5.54-.49c-4.31,0-5.84,2.77-5.84,8.71,0,6.93,2.08,8.46,5,8.51A21.58,21.58,0,0,0,200.62,146.81Z"/><path class="cls-1" d="M231,127.36v24.7h-4.7v-1.44s-3.86,2-6.93,2c-7,0-8.46-3.46-8.46-12.37V127.36h4.7v12.82c0,6,.45,8.17,4.6,8.17a18,18,0,0,0,6.09-1.48v-19.5Z"/><path class="cls-1" d="M254.52,131.82a87.05,87.05,0,0,0-8.76-.79c-3,0-4.75.74-4.75,3.17,0,1.88,1.14,2.42,5.64,3.17,6.53,1,8.76,2.52,8.76,7.37,0,5.79-3.71,7.87-9.75,7.87a65.68,65.68,0,0,1-9-1l.2-4s5.84.79,8.36.79c3.76,0,5.44-.79,5.44-3.46,0-2.08-1-2.57-5.44-3.27-6.19-1-9-2.28-9-7.33,0-5.54,4.45-7.47,9.16-7.47a62.6,62.6,0,0,1,9.16,1Z"/><path class="cls-1" d="M267.39,131.57v10.79c0,4.45.25,5.84,3.07,5.84,1.38,0,4.21-.25,4.21-.25l.25,4.06a39.82,39.82,0,0,1-5,.59c-5.4,0-7.13-2-7.13-9.16V131.57h-3.32v-4.21h3.32v-7.42h4.65v7.42h7.27v4.21Z"/><path class="cls-1" d="M279.82,127.36h4.65v2.92a22.17,22.17,0,0,1,8.07-3.51v4.95a27.53,27.53,0,0,0-8.07,3v17.32h-4.65Z"/><path class="cls-1" d="M297.29,117.36H302v5.2h-4.7Zm0,10H302v24.7h-4.7Z"/><path class="cls-1" d="M326.34,146.17c0,1.68.94,2.18,2.42,2.38l-.15,4c-3.46,0-4.9-.54-6.28-1.78a25.36,25.36,0,0,1-8.61,1.83c-4.45,0-6.93-2.87-6.93-7.77s2.67-7,7.92-7.42l6.93-.59V135c0-2.52-1.34-3.76-3.66-3.76-3.66,0-9.5.59-9.5.59l-.2-4.06a82.49,82.49,0,0,1,9.95-1c5.3,0,8.12,2.33,8.12,8.17ZM315.26,141c-2.57.2-3.71,1.44-3.71,3.76s1.09,3.81,3,3.81a28.33,28.33,0,0,0,7.08-1.24v-6.83Z"/><path class="cls-1" d="M333.07,116.82h4.7v35.24h-4.7Z"/><path class="cls-2" d="M151,168.12l4.36,20.49h.94l5.15-20h4.95l5.15,20h.94l4.36-20.49h4.65L176,192.82h-7.72l-4.41-18-4.41,18h-7.67l-5.44-24.7Z"/><path class="cls-2" d="M185.58,158.13h4.7v5.2h-4.7Zm0,10h4.7v24.7h-4.7Z"/><path class="cls-2" d="M213.34,172.58a87.05,87.05,0,0,0-8.76-.79c-3,0-4.75.74-4.75,3.17,0,1.88,1.14,2.42,5.64,3.17,6.53,1,8.76,2.52,8.76,7.37,0,5.79-3.71,7.87-9.75,7.87a65.7,65.7,0,0,1-9-1l.2-4s5.84.79,8.36.79c3.76,0,5.44-.79,5.44-3.46,0-2.08-1-2.57-5.44-3.27-6.19-1-9-2.28-9-7.33,0-5.54,4.45-7.47,9.16-7.47a62.6,62.6,0,0,1,9.16,1Z"/><path class="cls-2" d="M238.64,192.82H234v-1.44a17.8,17.8,0,0,1-7,1.93c-5.74,0-9.16-2.87-9.16-12.87,0-8.81,3-12.87,10.29-12.87a54.44,54.44,0,0,1,5.84.59v-10h4.65ZM234,187.57V172.28a53.14,53.14,0,0,0-5.54-.49c-4.31,0-5.84,2.77-5.84,8.71,0,6.93,2.08,8.46,5,8.51A21.57,21.57,0,0,0,234,187.57Z"/><path class="cls-2" d="M264.82,180.25c0,8.31-2.38,13.11-10.79,13.11s-10.89-4.6-10.89-13.11c0-8.27,2.77-12.67,10.89-12.67C261.85,167.58,264.82,172.08,264.82,180.25Zm-4.75,0c0-5.89-1.63-8.46-6-8.46-4.75,0-6.14,2.38-6.14,8.46s1,8.86,6.14,8.86S260.07,186.14,260.07,180.25Z"/><path class="cls-2" d="M269.32,192.82v-24.7h4.6v1.48a16.31,16.31,0,0,1,5.29-1.78,12.28,12.28,0,0,1,2.62-.15,6.65,6.65,0,0,1,5,2.08c1.78-.69,5.59-2.18,8.81-2.18,6.73,0,8.46,3.41,8.46,12.32v12.92h-4.65V181.59c0-7.08-.3-9.65-4.65-9.65a15.87,15.87,0,0,0-6.19,1.53,31,31,0,0,1,.49,6.53v12.82h-4.65V180.1c0-6-.59-8.17-4.65-8.17a16.66,16.66,0,0,0-5.89,1.49v19.4Z"/><path class="cls-3" d="M82.92,165.84a7,7,0,0,0,9.71,0v5.57a4.85,4.85,0,0,1-9.71,0h0Z"/><path class="cls-3" d="M111.48,187.4a4.84,4.84,0,0,1-4.84-4.82v-6.13a6.94,6.94,0,0,0,9.68,0v6.21A4.83,4.83,0,0,1,111.48,187.4Z"/><path class="cls-3" d="M116.31,171.51a4.84,4.84,0,0,1-9.68-.07v-5.57a6.94,6.94,0,0,0,9.68,0Z"/><path class="cls-3" d="M94.78,182.58v-6.13a7,7,0,0,0,9.69,0v6.13a4.85,4.85,0,0,1-9.69,0Z"/><path class="cls-3" d="M104.47,171.44a4.85,4.85,0,0,1-9.69,0v-5.57a7,7,0,0,0,9.69,0Z"/><path class="cls-3" d="M82.92,182.58v-6.16a7,7,0,0,0,9.71,0v6.13a4.85,4.85,0,0,1-9.71,0Z"/><path class="cls-3" d="M116.31,150.84v10.07a4.84,4.84,0,0,1-9.68-.07V157.3A21.9,21.9,0,0,0,116.31,150.84Z"/><path class="cls-3" d="M104.47,158v2.8a4.85,4.85,0,0,1-9.69,0V158a21.93,21.93,0,0,0,9.69,0Z"/><path class="cls-3" d="M92.62,157.31v3.53a4.85,4.85,0,0,1-9.71,0h0v-10A21.89,21.89,0,0,0,92.62,157.31Z"/><path class="cls-4" d="M73.57,165.77a19.22,19.22,0,0,1,4.14-11.9v23.81A19.22,19.22,0,0,1,73.57,165.77Z"/><path class="cls-4" d="M121.59,177.51h-.08v-23.6a19.3,19.3,0,0,1,.08,23.61Z"/><path class="cls-2" d="M121.51,146.59v-9.89h0v-.32h0a21.89,21.89,0,0,0-43.77,0h0v10.16a24.49,24.49,0,0,0,.11,38.57,8.83,8.83,0,0,0,8.75,7.81h26.09a8.83,8.83,0,0,0,8.76-7.87,24.49,24.49,0,0,0,.1-38.45Zm-38.6,19.25a7,7,0,0,0,9.71,0v5.57a4.85,4.85,0,0,1-9.71,0h0Zm28.56,21.57a4.84,4.84,0,0,1-4.84-4.82v-6.13a6.94,6.94,0,0,0,9.68,0v6.21A4.83,4.83,0,0,1,111.48,187.4Zm4.83-15.9a4.84,4.84,0,0,1-9.68-.07v-5.57a6.94,6.94,0,0,0,9.68,0ZM94.78,182.58v-6.13a7,7,0,0,0,9.69,0v6.13a4.85,4.85,0,0,1-9.69,0Zm9.69-11.15a4.85,4.85,0,0,1-9.69,0v-5.57a7,7,0,0,0,9.69,0ZM82.92,182.58v-6.16a7,7,0,0,0,9.71,0v6.13a4.85,4.85,0,0,1-9.71,0Zm33.39-31.74v10.07a4.84,4.84,0,0,1-9.68-.07V157.3A21.9,21.9,0,0,0,116.31,150.84ZM104.47,158v2.8a4.85,4.85,0,0,1-9.69,0V158a21.93,21.93,0,0,0,9.69,0Zm-11.85-.74v3.53a4.85,4.85,0,0,1-9.71,0h0v-10A21.89,21.89,0,0,0,92.62,157.31Zm-19.06,8.46a19.22,19.22,0,0,1,4.14-11.9v23.81A19.22,19.22,0,0,1,73.57,165.77Zm48,11.75h-.08v-23.6a19.3,19.3,0,0,1,.08,23.61Z"/><path class="cls-5" d="M116.08,132.58v-.05c0-.13-.06-.26-.1-.39h0a9.66,9.66,0,0,0-16.34-4.32,9.66,9.66,0,0,0-16.34,4.32h0a17,17,0,1,0,32.81.44Z"/><path class="cls-2" d="M110.38,133.86a3.61,3.61,0,1,0-7.17.63,5.45,5.45,0,0,1-.3,2.22l-2.71,5a.57.57,0,0,1-1,0l-2.59-4.79a5.57,5.57,0,0,1-.48-2.79V134s0-.09,0-.13v0l0-.55a3.61,3.61,0,1,0-4.92,3.94,5.2,5.2,0,0,1,1.71,1.55l5.66,10.48a1.32,1.32,0,0,0,2.33,0l5.28-9.79a5.59,5.59,0,0,1,2-2.26,3.48,3.48,0,0,0,.73-.42l.43-.37A3.58,3.58,0,0,0,110.38,133.86Z"/></svg>