<svg id="Layer_1" data-name="Layer 1" xmlns="http://www.w3.org/2000/svg" viewBox="0 0 410 300"><defs><style>.cls-1{fill:#00adee;}.cls-2{fill:#fff;}</style></defs><title>identities</title><rect class="cls-1" x="58.11" y="89.22" width="293.54" height="112.99" rx="47.58" ry="47.58"/><path d="M310.79,203.19H98.8a40.9,40.9,0,0,1-40.85-40.85V129.73A40.9,40.9,0,0,1,98.8,88.87h212a40.9,40.9,0,0,1,40.85,40.85v32.61A40.9,40.9,0,0,1,310.79,203.19ZM98.8,99a30.78,30.78,0,0,0-30.75,30.75v32.61A30.78,30.78,0,0,0,98.8,193.08h212a30.78,30.78,0,0,0,30.75-30.75V129.73A30.78,30.78,0,0,0,310.79,99Z"/><polygon points="66.46 167.4 243.37 164.84 313.13 164.84 344.13 122.88 341.2 183.09 328.35 193.08 208.83 198.81 99.91 200.32 72.37 190.11 66.46 167.4"/><path d="M339.46,116.59H272.64a29.15,29.15,0,0,0-17.31-5.35q-1.49,0-3,.13l-1.65.18a39,39,0,0,0-14.59,5H113.59a24.18,24.18,0,0,0-20.47,11.16H87.45l-9.84,19.56h5.86s-3.1,6.49-3.6,7.5a11.11,11.11,0,0,1-10,6.18h-9l5.59,20H317l28-55.31A6.27,6.27,0,0,0,339.46,116.59Z"/><path class="cls-2" d="M175.69,150.39h6.76l13.23-16.61h3.23l2.64-5.12h-4.75a7.2,7.2,0,0,0-5.69,2.76l-8.5,10.8,2.27-13.56h-7.06L167.1,142.31l2.29-13.66H147.75c-7.36,0-10.34,1.91-13.87,8.88l-4.26,8.39a3.07,3.07,0,0,0,2.74,4.46H142c7.76,0,10.26-1.62,14.07-9.12l2.73-5.36c1.14-2,2.23-2.12,3.42-2.12h.68l-2.62,16.61H167l10.73-13.33Zm-32.52-5.27h0l-7.06,0,3.59-7c1.63-3.23,3.1-4.21,6.26-4.21h7.91l-3.39,6.62c-1.77,3.49-3.35,4.61-6.53,4.61Z"/><path class="cls-2" d="M126.66,123.66l-10.61,21a3.93,3.93,0,0,0,3.51,5.7h5l2.69-5.29-5.44,0,10.85-21.42Z"/><path class="cls-2" d="M204.53,130.4l-1.7,3.39h5.69l2.6-5.13h14.66l-24.11,13.45a20.44,20.44,0,0,0-7.21,8.28h27.26l4.31-8.52h-5.69l-1.9,3.71H204.78l29-16.3,5.67-5.62H215.48A12.25,12.25,0,0,0,204.53,130.4Z"/><path class="cls-2" d="M308.78,128.87l2.59-5.21h-4.18a9.06,9.06,0,0,0-8.07,5.09l-6.82,13.62-3.44-18.71H278.7l-2.61,5.21h3l-8,15.87h-7.8l-2.83,5.65h16.32l2.68-5.27h-2.59l7.78-15.43,3.84,20.69h5.67L305,128.87Z"/><path class="cls-2" d="M333.92,131.79l4.14-8.12H321.81a11.27,11.27,0,0,0-10,6.33l-6.57,12.94a3.92,3.92,0,0,1-3.49,2.2h-1l-2.6,5.28h26.36l3.87-7.6h-5.81l-1.26,2.34H310.06l3.17-6.09h9.87l2.49-4.94h-9.87l2.67-5.22H329.6l-1.48,2.91Z"/><path class="cls-2" d="M274.29,137.42c-2.19,11.05-14.86,20.24-28.17,20.17s-21.5-9.31-18.53-20.29c2.88-10.62,15.24-19,27.74-19S276.41,126.74,274.29,137.42Z"/><path d="M240.54,146.45l1.66-1.12,1-5.66-7.8,0c0,.22.05.43.1.64A9,9,0,0,0,240.54,146.45Z"/><path d="M246,147.77a18.58,18.58,0,0,0,7.77-1.49,18,18,0,0,0,8.23-6.54l-10.46,0-4,4h0l-2.43,2.39Z"/><path d="M259.71,125.94c-3.28-2-7.94-2.38-12.38-1l4.87,4.2Z"/><path d="M268.14,126.4c-4.93-6.22-15.4-7.17-24-3.24-8.4,3.82-14.29,11.94-13.17,19.42.73,4.81,4.17,8.52,9.06,10.27l-.62-4.64a10.75,10.75,0,0,1-5.26-7c-1.34-6.38,3.49-13.46,10.75-16.72s16.27-2.18,20.16,3.38c4.65,6.63.54,16.53-9.8,20.76a20,20,0,0,1-11,1.39L240.55,153c4.44,1.43,10,1.28,15.84-1.09C269.56,146.6,274.32,134.2,268.14,126.4Z"/><path d="M235.94,137.86l9.18,0a.18.18,0,0,1,.13.06.17.17,0,0,1,0,.14l-1.16,6.42,6.65-6.56a.17.17,0,0,1,.12-.05h0l8.79,0-4.6-4a.17.17,0,0,1,0-.26l7-6.85-10.11,4.26a.18.18,0,0,1-.18,0l-4.51-3.88-1.13,6.27a.17.17,0,0,1-.1.13Z"/><path d="M262.83,138.27a9.5,9.5,0,0,0-.2-9.51l-5.05,5Z"/><path d="M245,125.77c-4.79,2.16-8.38,6.15-9.4,10.31l8.94-3.76,1.24-6.87C245.52,125.55,245.26,125.65,245,125.77Z"/><path d="M241,148l.32,2.39,3-2.47-.87-1.58Z"/><path class="cls-2" d="M93.34,155.69l7.29-15H110l2.72-5.41h-9.5l.45-.87a10.45,10.45,0,0,1,9.23-5.55h7l2.68-5.25h-9a17.17,17.17,0,0,0-15.49,9.62l-1,2,0,0H91.56l-2.72,5.41h5.62S86.5,156.95,86,158a17.85,17.85,0,0,1-16.12,10.1H58.11a40.86,40.86,0,0,0,1.1,5.85H312.63l9.24-18.23Z"/><path d="M94.13,160.7l.81,6.47,7.43-6.47h3.53l-4.4,8.79H99.13l3.23-6.46-7.31,6.46h-2.3L91.92,163l-3.23,6.46H86.34l4.4-8.79Z"/><path d="M115.78,160.7l.67,8.79h-2.51l-.13-2.11h-6l-2.26,2.11h-2.75l9.47-8.79Zm-2.46,1.65-3.58,3.27h3.92l-.23-3.27Z"/><path d="M121.81,168l7.7-7.27h2.69l-9.3,8.79h-3.49l-.5-8.79h2.47Z"/><path d="M143.52,160.7l-.87,1.75h-7.7l-.81,1.62h7.46l-.88,1.76h-7.46l-.95,1.9H140l-.88,1.76H129.07l4.4-8.79Z"/><path d="M152.65,169.48h-2.37l.69-1.37c.43-.86.12-1.25-1-1.25h-4.64L144,169.48h-2.37l4.4-8.79h7.29c2.55,0,3.2.77,2.18,2.81l-.3.61a3.39,3.39,0,0,1-1.72,1.87c.45.18.56.63,0,1.67Zm.44-5.77c.34-.68.16-.91-.72-.91h-5l-1,2h5.08a1.47,1.47,0,0,0,1.56-.89Z"/><path d="M159.49,160.7h2.35l-4.4,8.79h-2.35Z"/><path d="M161.37,165.81l.56-1.11c1.72-3.43,3-4,6.68-4h2.09c3.85,0,4.55.52,3.32,3h-2.43c.33-.68.26-1-2-1H167.8c-2.12,0-2.55.16-3.48,2l-.48,1c-.85,1.71-.64,1.95,1.4,1.95h1.92c2.08,0,2.57-.16,3.06-1.15h2.43c-1.16,2.34-2.18,3.06-6.39,3.06h-2.15C160.51,169.5,159.91,168.72,161.37,165.81Z"/><path d="M179.87,160.7l-1.55,3.09h1.15l6.06-3.09h3.16L181,164.57l3,4.91h-2.72l-2.45-3.94h-1.43l-2,3.94h-2.36l4.4-8.79Z"/><path d="M201.14,160.7c2.46,0,3.24.8,2.4,2.48H201c.25-.53.15-.73-.84-.73h-4a1.53,1.53,0,0,0-1.56.82c-.35.7.1.72.77.75l4.27.15c2.19.08,3.19.33,2,2.65-.94,1.87-2.19,2.67-4.65,2.67h-4.87c-2.51,0-2.92-.8-2.07-2.49h2.41c-.22.43.11.73.78.73h3.93c1,0,1.63-.18,2-.89s.17-.92-1.15-1l-3.7-.14c-2.61-.1-3.49-.3-2.4-2.48.94-1.87,2.29-2.55,4.81-2.55Z"/><path d="M206.1,166.15c-.61,1.22-.23,1.57,1.35,1.57H210c1.52,0,2.25-.37,2.86-1.58l2.73-5.45H218l-2.83,5.66c-1.16,2.32-2.54,3.13-5.57,3.13h-3.48c-2.89,0-3.54-.89-2.41-3.13l2.83-5.66h2.35Z"/><path d="M227.37,160.7c2.46,0,3.24.8,2.4,2.48h-2.53c.25-.53.15-.73-.84-.73h-4a1.53,1.53,0,0,0-1.56.82c-.35.7.1.72.77.75l4.27.15c2.19.08,3.19.33,2,2.65-.94,1.87-2.19,2.67-4.65,2.67h-4.87c-2.51,0-2.92-.8-2.07-2.49h2.41c-.22.43.11.73.78.73h3.93c1,0,1.63-.18,2-.89s.17-.92-1.15-1l-3.7-.14c-2.61-.1-3.49-.3-2.4-2.48.94-1.87,2.29-2.55,4.81-2.55Z"/><path d="M241.58,163.51l-.3.61c-1,2-2.26,2.76-4.81,2.76h-4.36l-1.31,2.61h-2.35l4.4-8.79h6.56C242,160.7,242.6,161.47,241.58,163.51Zm-2.45.2c.34-.68.16-.91-.72-.91h-4.26l-1,2h4.32a1.47,1.47,0,0,0,1.56-.89Z"/><path d="M254.66,160.7l-.87,1.75h-7.7l-.81,1.62h7.46l-.88,1.76h-7.46l-.95,1.9h7.7l-.88,1.76H240.21l4.4-8.79Z"/><path d="M259.86,160.7l2.75,6,3-6H268l-4.4,8.79H261l-3.18-6.57-3.29,6.57H252.2l4.4-8.79Z"/><path d="M277.54,160.7c2.46,0,3.24.8,2.4,2.48H277.4c.25-.53.16-.73-.84-.73h-3.95a1.53,1.53,0,0,0-1.56.82c-.35.7.11.72.77.75l4.27.15c2.18.08,3.19.33,2,2.65-.94,1.87-2.19,2.67-4.65,2.67h-4.87c-2.51,0-2.91-.8-2.07-2.49h2.41c-.22.43.11.73.78.73h3.94c1,0,1.63-.18,2-.89s.16-.92-1.15-1l-3.7-.14c-2.61-.1-3.49-.3-2.4-2.48.94-1.87,2.29-2.55,4.81-2.55Z"/><path d="M283.46,160.7h2.35l-4.4,8.79h-2.35Z"/><path d="M288.15,169.48c-3.77,0-4.32-.68-2.8-3.72l.53-1.06c1.63-3.27,2.86-4,6.72-4h2.08c4.05,0,4.54.81,2.94,4l-.53,1.06c-1.62,3.24-2.79,3.76-6.87,3.76Zm3.68-6.84c-2.22,0-2.71.34-3.58,2.09l-.46.91c-.79,1.57-.64,1.9,1.5,1.9h1.87c2.31,0,2.79-.25,3.63-1.94l.46-.91c.89-1.77.69-2.05-1.68-2.05Z"/><path d="M304.86,160.7l2.75,6,3-6H313l-4.4,8.79H306l-3.18-6.57-3.29,6.57H297.2l4.4-8.79Z"/></svg>