<svg id="Layer_1" data-name="Layer 1" xmlns="http://www.w3.org/2000/svg" viewBox="0 0 410 300"><defs><style>.cls-1{fill:#448ccb;}.cls-2{fill:#4e4342;}</style></defs><title>identities</title><path class="cls-1" d="M204.71,86l14.17-32.08h12v1.28h-1.44a9.58,9.58,0,0,0-3.77.47,2.5,2.5,0,0,0-1.19,1.76,36.15,36.15,0,0,0-.31,6.13v19a48,48,0,0,0,.23,6,3.09,3.09,0,0,0,1.17,2.1,6.46,6.46,0,0,0,3.58.69h1.73v1.28H212.22V91.37h1.37a6.65,6.65,0,0,0,3.41-.63,2.93,2.93,0,0,0,1.23-2,42.1,42.1,0,0,0,.27-6.2V57.89L203.16,92.65h-1.41l-15.4-34.76V80.6a45.18,45.18,0,0,0,.29,6.35,5,5,0,0,0,1.78,3,7,7,0,0,0,4.21,1.45v1.28H178.68V91.37a7,7,0,0,0,4-1.37,4.91,4.91,0,0,0,1.9-3,41.52,41.52,0,0,0,.34-6.58V63.52a39.64,39.64,0,0,0-.27-6,2.63,2.63,0,0,0-1.14-1.86,8.91,8.91,0,0,0-3.81-.51h-1.06V53.89h11.83Z"/><rect class="cls-2" x="116.55" y="141.27" width="173.94" height="0.69"/><rect class="cls-2" x="116.77" y="208.45" width="173.51" height="0.7"/><path class="cls-1" d="M126.17,133.29h-.72a3.41,3.41,0,0,0-.53-1.17,6.15,6.15,0,0,1-1.33,1,4,4,0,0,1-2,.43,5.15,5.15,0,0,1-4.5-2.58,5.38,5.38,0,0,1-.71-2.75,5.65,5.65,0,0,1,.38-2.07,5.26,5.26,0,0,1,1.1-1.74,5.12,5.12,0,0,1,1.7-1.18,5.37,5.37,0,0,1,2.17-.43,4.37,4.37,0,0,1,3.21,1.26,4.82,4.82,0,0,0,.33-.95h.69l.12,3.82h-.73a4.74,4.74,0,0,0-.72-1.73,3.69,3.69,0,0,0-1.23-1.16,3,3,0,0,0-1.49-.4,2.69,2.69,0,0,0-1.57.48,3.11,3.11,0,0,0-1.09,1.46,6.62,6.62,0,0,0-.39,2.45,7.33,7.33,0,0,0,.33,2.37,3.7,3.7,0,0,0,.81,1.43,2.65,2.65,0,0,0,1,.65,2.74,2.74,0,0,0,.92.17,3,3,0,0,0,1.69-.51,4.24,4.24,0,0,0,1.23-1.28,4.75,4.75,0,0,0,.64-1.53h.73Z"/><path class="cls-1" d="M140.43,123.74a1.63,1.63,0,0,0-.7.19,2,2,0,0,0-.56.53q-.28.37-.82,1.19L136.17,129v2.45a2.06,2.06,0,0,0,.09.67.72.72,0,0,0,.41.4,2.53,2.53,0,0,0,1,.15v.7h-5.21v-.7a2.93,2.93,0,0,0,1-.13.71.71,0,0,0,.44-.38,2,2,0,0,0,.1-.72v-2.31l-2.6-4.33-.06-.1,0-.07a2.27,2.27,0,0,0-.6-.72,1.6,1.6,0,0,0-.77-.19V123h4.85v.71l-.58,0a.72.72,0,0,0-.35.12.36.36,0,0,0-.13.31.9.9,0,0,0,.09.35c.06.14.2.39.42.77l1.61,2.73,1.54-2.43a2.61,2.61,0,0,0,.5-1.15c0-.32-.1-.52-.31-.6a2.47,2.47,0,0,0-.87-.12V123h3.77Z"/><path class="cls-1" d="M154.32,128.3a5.19,5.19,0,0,1-.38,2,4.66,4.66,0,0,1-1,1.51,4.3,4.3,0,0,1-1.29.91,8.79,8.79,0,0,1-3.55.64h-4.73v-.7a3,3,0,0,0,1-.13.71.71,0,0,0,.44-.38,2,2,0,0,0,.1-.72v-6.54a1.32,1.32,0,0,0-.27-.95,1.91,1.91,0,0,0-1.26-.27V123l2.22,0,.93,0,.95,0a14.42,14.42,0,0,1,2.17.14,7.21,7.21,0,0,1,1.63.44,4.54,4.54,0,0,1,1.25.77,4.91,4.91,0,0,1,1,1.12,5.48,5.48,0,0,1,.61,1.37A5.59,5.59,0,0,1,154.32,128.3Zm-2.47,0a5.43,5.43,0,0,0-.62-2.7,3.31,3.31,0,0,0-1.67-1.51,3.5,3.5,0,0,0-1-.23q-.52,0-1.48-.05V131a4.88,4.88,0,0,0,.06.91.63.63,0,0,0,.36.44,2.19,2.19,0,0,0,.93.15,2.8,2.8,0,0,0,2.63-1.3A5.75,5.75,0,0,0,151.85,128.25Z"/><path class="cls-1" d="M168.75,123.74a2.69,2.69,0,0,0-1.06.15.67.67,0,0,0-.4.44,4.09,4.09,0,0,0-.08.95v8.2h-.7l-6.78-8v5.7a4,4,0,0,0,.08.94.71.71,0,0,0,.41.45,2.63,2.63,0,0,0,1.06.16v.7h-3.85v-.7a2.34,2.34,0,0,0,1-.16.68.68,0,0,0,.38-.45,4.29,4.29,0,0,0,.07-.94v-5.28c0-.43,0-.75,0-1a1.51,1.51,0,0,0-.16-.56.94.94,0,0,0-.42-.39,2.39,2.39,0,0,0-.81-.2V123h3l5.9,7v-4.72a3.78,3.78,0,0,0-.08-.89.75.75,0,0,0-.4-.48,2.27,2.27,0,0,0-1-.17V123h3.86Z"/><path class="cls-1" d="M181.05,130l-.08,3.41h-9.23v-.7a1.86,1.86,0,0,0,1.23-.27,1.32,1.32,0,0,0,.27-.95V125a2.17,2.17,0,0,0-.09-.69.69.69,0,0,0-.41-.39,2.63,2.63,0,0,0-1-.14V123h8.6l.14,2.68h-.7a3.6,3.6,0,0,0-.55-1.28,1.26,1.26,0,0,0-.7-.47,5.59,5.59,0,0,0-1.16-.09h-1.94v3.65h1.06a2.55,2.55,0,0,0,.81-.1.61.61,0,0,0,.37-.36,3,3,0,0,0,.15-.84h.73v3.45h-.7a2.54,2.54,0,0,0-.15-.85.64.64,0,0,0-.39-.36,2.65,2.65,0,0,0-.8-.09h-1.07v2.44c0,.41,0,.71,0,.9a1,1,0,0,0,.16.47.76.76,0,0,0,.43.27,3.35,3.35,0,0,0,.86.08h.83a3.61,3.61,0,0,0,1-.14,1.93,1.93,0,0,0,.94-.69,3.6,3.6,0,0,0,.64-1.74Z"/><path class="cls-1" d="M194.58,123.74a1.63,1.63,0,0,0-.7.19,2,2,0,0,0-.56.53q-.28.37-.82,1.19L190.33,129v2.45a2.07,2.07,0,0,0,.09.67.72.72,0,0,0,.41.4,2.53,2.53,0,0,0,1,.15v.7h-5.21v-.7a2.92,2.92,0,0,0,1-.13.71.71,0,0,0,.44-.38,2,2,0,0,0,.1-.72v-2.31l-2.6-4.33-.06-.1-.05-.07a2.26,2.26,0,0,0-.6-.72,1.6,1.6,0,0,0-.78-.19V123h4.85v.71l-.58,0a.71.71,0,0,0-.35.12.36.36,0,0,0-.13.31.92.92,0,0,0,.09.35c.06.14.2.39.42.77L190,128l1.54-2.43a2.61,2.61,0,0,0,.5-1.15c0-.32-.1-.52-.31-.6a2.48,2.48,0,0,0-.87-.12V123h3.77Z"/><path class="cls-1" d="M213.74,133.39h-4.88v-.7a3.23,3.23,0,0,0,.9-.09.39.39,0,0,0,.28-.41,1.26,1.26,0,0,0-.09-.46l-.49-1.22H206.1l-.25.67a2.74,2.74,0,0,0-.21.82.54.54,0,0,0,.35.58,2.6,2.6,0,0,0,.83.12v.7h-3.57v-.7a1.51,1.51,0,0,0,.73-.16,1.62,1.62,0,0,0,.57-.61,8.46,8.46,0,0,0,.59-1.26l3-7.83h.73L212,130.9c.23.57.4,1,.51,1.15a1.16,1.16,0,0,0,.44.47,1.59,1.59,0,0,0,.79.16Zm-4.55-3.65-1.43-3.6-1.36,3.6Z"/><path class="cls-1" d="M227.27,123.74a2.7,2.7,0,0,0-1.06.15.67.67,0,0,0-.4.44,4.24,4.24,0,0,0-.08.95v8.2H225l-6.78-8v5.7a3.9,3.9,0,0,0,.08.94.71.71,0,0,0,.41.45,2.63,2.63,0,0,0,1.06.16v.7H216v-.7a2.34,2.34,0,0,0,1-.16.69.69,0,0,0,.38-.45,4.28,4.28,0,0,0,.07-.94v-5.28c0-.43,0-.75,0-1a1.52,1.52,0,0,0-.17-.56.93.93,0,0,0-.42-.39,2.38,2.38,0,0,0-.81-.2V123h3l5.89,7v-4.72a3.72,3.72,0,0,0-.08-.89.74.74,0,0,0-.4-.48,2.26,2.26,0,0,0-1-.17V123h3.87Z"/><path class="cls-1" d="M240.27,128.3a5.14,5.14,0,0,1-.38,2,4.68,4.68,0,0,1-1,1.51,4.32,4.32,0,0,1-1.29.91,8.8,8.8,0,0,1-3.55.64h-4.73v-.7a3,3,0,0,0,1-.13.71.71,0,0,0,.44-.38,2,2,0,0,0,.1-.72v-6.54a1.32,1.32,0,0,0-.27-.95,1.91,1.91,0,0,0-1.26-.27V123l2.22,0,.93,0,1,0a14.4,14.4,0,0,1,2.17.14,7.21,7.21,0,0,1,1.63.44,4.52,4.52,0,0,1,1.25.77,4.88,4.88,0,0,1,1,1.12,5.26,5.26,0,0,1,.61,1.37A5.46,5.46,0,0,1,240.27,128.3Zm-2.47,0a5.42,5.42,0,0,0-.62-2.7,3.3,3.3,0,0,0-1.67-1.51,3.5,3.5,0,0,0-1-.23q-.52,0-1.48-.05V131a4.77,4.77,0,0,0,.06.91.62.62,0,0,0,.36.44,2.21,2.21,0,0,0,.93.15,2.8,2.8,0,0,0,2.62-1.3A5.73,5.73,0,0,0,237.8,128.25Z"/><path class="cls-1" d="M259.39,126h-.73a3,3,0,0,0-.42-1.42,1.35,1.35,0,0,0-.7-.56,3.13,3.13,0,0,0-.86-.11h-1.31v7.58a2.09,2.09,0,0,0,.09.7.7.7,0,0,0,.43.39,2.72,2.72,0,0,0,1,.14v.7h-5.2v-.7a1.86,1.86,0,0,0,1.23-.27,1.32,1.32,0,0,0,.28-.95v-7.58h-1.1a4.62,4.62,0,0,0-1.08.1,1.3,1.3,0,0,0-.75.56,2.74,2.74,0,0,0-.37,1.42h-.73V123h10.24Z"/><path class="cls-1" d="M273.73,128.21a5.42,5.42,0,0,1-.67,2.65,5,5,0,0,1-2,2,6.2,6.2,0,0,1-3.11.75,6.56,6.56,0,0,1-2.58-.47,5,5,0,0,1-1.82-1.27,5.23,5.23,0,0,1-1-1.74,5.66,5.66,0,0,1-.34-1.9,5.54,5.54,0,0,1,.65-2.61,4.93,4.93,0,0,1,2-2,6.16,6.16,0,0,1,3.12-.75,6.62,6.62,0,0,1,2.82.54,4.89,4.89,0,0,1,1.81,1.37,5.31,5.31,0,0,1,.93,1.73A5.92,5.92,0,0,1,273.73,128.21Zm-2.47,0a8.69,8.69,0,0,0-.15-1.65,4.28,4.28,0,0,0-.52-1.41,2.78,2.78,0,0,0-1-1,3.19,3.19,0,0,0-1.61-.37,3,3,0,0,0-2,.65,3.26,3.26,0,0,0-1,1.64,8.32,8.32,0,0,0-.26,2.15,11.64,11.64,0,0,0,.08,1.34,5.15,5.15,0,0,0,.4,1.43,3,3,0,0,0,1,1.23,3.07,3.07,0,0,0,1.82.5,2.94,2.94,0,0,0,1.8-.52,3.08,3.08,0,0,0,1-1.26,5.39,5.39,0,0,0,.39-1.43A10.93,10.93,0,0,0,271.26,128.18Z"/><path class="cls-1" d="M290.68,133.39h-5.19v-.7a2.65,2.65,0,0,0,1-.13.7.7,0,0,0,.41-.39,2.1,2.1,0,0,0,.1-.7V125l-3.91,8.41h-.46l-4-8.41v6.16a7,7,0,0,0,0,.75.92.92,0,0,0,.18.44.81.81,0,0,0,.45.27,3.11,3.11,0,0,0,.85.09v.7H276.3v-.7a3.06,3.06,0,0,0,.85-.09.82.82,0,0,0,.44-.27.9.9,0,0,0,.17-.44,7,7,0,0,0,0-.74v-5.86a4.78,4.78,0,0,0-.06-.95.66.66,0,0,0-.38-.44,2.59,2.59,0,0,0-1-.15V123h3.8l3.44,7.3L287,123h3.7v.71a1.86,1.86,0,0,0-1.24.28,1.31,1.31,0,0,0-.28.94v6.5a2.06,2.06,0,0,0,.09.68.7.7,0,0,0,.42.4,2.68,2.68,0,0,0,1,.14Z"/><path class="cls-1" d="M124.38,220.32h-.73a3.14,3.14,0,0,0-.51-1.27,1.29,1.29,0,0,0-.72-.49,5.29,5.29,0,0,0-1.11-.09h-1.86v3.69h1a1.37,1.37,0,0,0,.94-.24,1.7,1.7,0,0,0,.29-1.06h.71v3.48h-.72a3.23,3.23,0,0,0-.14-.86.61.61,0,0,0-.36-.36,2.08,2.08,0,0,0-.75-.1h-.95v3.1a1.45,1.45,0,0,0,.25.94q.25.3,1.19.3h.22v.71h-5.36v-.71a1.81,1.81,0,0,0,1.23-.28,1.34,1.34,0,0,0,.27-1v-6.57a2.08,2.08,0,0,0-.09-.7.73.73,0,0,0-.42-.39,2.63,2.63,0,0,0-1-.14v-.72h8.56Z"/><path class="cls-1" d="M133.87,228.06h-4.93v-.71a3.38,3.38,0,0,0,.91-.09.4.4,0,0,0,.28-.42,1.31,1.31,0,0,0-.09-.47l-.49-1.24h-3.39l-.25.68a2.72,2.72,0,0,0-.22.83.55.55,0,0,0,.36.59,2.6,2.6,0,0,0,.84.12v.71h-3.6v-.71a1.49,1.49,0,0,0,.73-.16,1.61,1.61,0,0,0,.57-.62,8.29,8.29,0,0,0,.59-1.28l3-7.89h.73l3.18,8.14q.35.86.51,1.17a1.2,1.2,0,0,0,.45.47,1.63,1.63,0,0,0,.8.17Zm-4.6-3.69-1.44-3.64-1.37,3.64Z"/><path class="cls-1" d="M149.08,228.06h-5.23v-.71a2.68,2.68,0,0,0,1-.13.71.71,0,0,0,.41-.4,2.08,2.08,0,0,0,.1-.71v-6.56l-4,8.51h-.47l-4-8.51v6.23a6.17,6.17,0,0,0,0,.76.89.89,0,0,0,.18.45.84.84,0,0,0,.45.28,3.26,3.26,0,0,0,.86.09v.71h-3.87v-.71a3.2,3.2,0,0,0,.86-.09.88.88,0,0,0,.44-.28.9.9,0,0,0,.17-.45,6.74,6.74,0,0,0,0-.75v-5.93a4.6,4.6,0,0,0-.07-1,.65.65,0,0,0-.38-.44,2.57,2.57,0,0,0-1.05-.15v-.71h3.82l3.48,7.38,3.48-7.38h3.73v.71a1.87,1.87,0,0,0-1.24.28,1.33,1.33,0,0,0-.28,1v6.58a2.1,2.1,0,0,0,.09.69.71.71,0,0,0,.43.41,2.74,2.74,0,0,0,1,.14Z"/><path class="cls-1" d="M155.24,228.06h-5.3v-.71a3.05,3.05,0,0,0,1-.13.7.7,0,0,0,.44-.38,2,2,0,0,0,.1-.73v-6.58a1.32,1.32,0,0,0-.28-1,1.94,1.94,0,0,0-1.27-.28v-.71h5.3v.71a3,3,0,0,0-1,.13.73.73,0,0,0-.44.38,2,2,0,0,0-.1.72v6.58a2,2,0,0,0,.1.71.72.72,0,0,0,.43.39,2.76,2.76,0,0,0,1,.14Z"/><path class="cls-1" d="M165.46,224.56l-.07,3.5h-9.31v-.72a1.86,1.86,0,0,0,1.24-.28,1.33,1.33,0,0,0,.28-1v-6.57a2.13,2.13,0,0,0-.09-.71.71.71,0,0,0-.43-.39,2.72,2.72,0,0,0-1-.14v-.71h5.26v.71a2.88,2.88,0,0,0-1,.13.73.73,0,0,0-.44.38,2,2,0,0,0-.1.72v6a5.24,5.24,0,0,0,.07,1,.68.68,0,0,0,.38.47,2.32,2.32,0,0,0,1,.16,7.84,7.84,0,0,0,1.55-.13,2.38,2.38,0,0,0,1.23-.72,3,3,0,0,0,.71-1.78Z"/><path class="cls-1" d="M175.75,218.31a1.66,1.66,0,0,0-.71.19,2,2,0,0,0-.56.53q-.28.37-.83,1.2l-2.2,3.4v2.48a2.14,2.14,0,0,0,.09.68.72.72,0,0,0,.41.4,2.5,2.5,0,0,0,1,.15v.71h-5.26v-.71a3,3,0,0,0,1-.13.7.7,0,0,0,.44-.38,2,2,0,0,0,.1-.73v-2.34l-2.62-4.38-.07-.11,0-.07a2.32,2.32,0,0,0-.6-.73,1.6,1.6,0,0,0-.78-.19v-.71H170v.71a5.82,5.82,0,0,0-.58,0,.67.67,0,0,0-.35.12.36.36,0,0,0-.13.32.92.92,0,0,0,.09.35c.06.14.2.4.42.78l1.63,2.76,1.55-2.45a2.64,2.64,0,0,0,.5-1.16c0-.32-.11-.53-.32-.61a2.45,2.45,0,0,0-.88-.12v-.71h3.8Z"/><path class="cls-1" d="M189.23,220.32h-.73A3.17,3.17,0,0,0,188,219a1.3,1.3,0,0,0-.72-.49,5.28,5.28,0,0,0-1.11-.09H184.3v3.69h1a1.37,1.37,0,0,0,.94-.24,1.69,1.69,0,0,0,.29-1.06h.71v3.48h-.72a3.08,3.08,0,0,0-.14-.86.61.61,0,0,0-.35-.36,2.09,2.09,0,0,0-.75-.1h-.95v3.1a1.45,1.45,0,0,0,.25.94q.25.3,1.19.3H186v.71h-5.37v-.71a1.81,1.81,0,0,0,1.23-.28,1.35,1.35,0,0,0,.27-1v-6.57a2.06,2.06,0,0,0-.09-.7.72.72,0,0,0-.42-.39,2.64,2.64,0,0,0-1-.14v-.72h8.56Z"/><path class="cls-1" d="M202.15,222.83a5.51,5.51,0,0,1-.68,2.67,5.05,5.05,0,0,1-2,2,6.23,6.23,0,0,1-3.14.75,6.59,6.59,0,0,1-2.6-.48,5,5,0,0,1-1.84-1.28,5.35,5.35,0,0,1-1.05-1.76,5.66,5.66,0,0,1-.34-1.92,5.57,5.57,0,0,1,.65-2.64,5,5,0,0,1,2-2,6.22,6.22,0,0,1,3.15-.76,6.69,6.69,0,0,1,2.84.55,4.91,4.91,0,0,1,1.83,1.38,5.4,5.4,0,0,1,.94,1.74A6,6,0,0,1,202.15,222.83Zm-2.49,0a8.78,8.78,0,0,0-.15-1.67,4.32,4.32,0,0,0-.53-1.42,2.8,2.8,0,0,0-1-1,3.24,3.24,0,0,0-1.62-.37,3,3,0,0,0-2.07.66,3.29,3.29,0,0,0-1,1.65,8.34,8.34,0,0,0-.27,2.16,11.32,11.32,0,0,0,.08,1.35,5.11,5.11,0,0,0,.41,1.44,3,3,0,0,0,1,1.24,3.09,3.09,0,0,0,1.84.5,3,3,0,0,0,1.82-.52,3.07,3.07,0,0,0,1-1.27,5.34,5.34,0,0,0,.4-1.44A11.13,11.13,0,0,0,199.66,222.8Z"/><path class="cls-1" d="M214.65,218.31a2.27,2.27,0,0,0-1,.16.69.69,0,0,0-.37.46,4.65,4.65,0,0,0-.07.93v3.86a12.7,12.7,0,0,1-.07,1.6,2.94,2.94,0,0,1-.39,1.08,3.08,3.08,0,0,1-1.63,1.46,5.75,5.75,0,0,1-2,.4,6.14,6.14,0,0,1-1.48-.19,4.58,4.58,0,0,1-1.41-.62,2.77,2.77,0,0,1-1-1.13,3.84,3.84,0,0,1-.29-.78,3.64,3.64,0,0,1-.12-.73c0-.23,0-.53,0-.9l0-4.36a1.37,1.37,0,0,0-.27-1,1.85,1.85,0,0,0-1.24-.28v-.71h5.27v.71a2.78,2.78,0,0,0-1,.14.71.71,0,0,0-.43.39,2,2,0,0,0-.1.71v4.36a9.13,9.13,0,0,0,.07,1.18,3.93,3.93,0,0,0,.2.88,2.09,2.09,0,0,0,.89,1,2.63,2.63,0,0,0,1.38.37,3,3,0,0,0,1.51-.4,2.13,2.13,0,0,0,1-1,3.65,3.65,0,0,0,.28-1,10.23,10.23,0,0,0,.07-1.26v-3.77a6.22,6.22,0,0,0,0-.76.92.92,0,0,0-.17-.44.79.79,0,0,0-.46-.27,3.47,3.47,0,0,0-.88-.09v-.71h3.86Z"/><path class="cls-1" d="M226.8,218.31a2.69,2.69,0,0,0-1.07.15.67.67,0,0,0-.4.44,4.15,4.15,0,0,0-.08,1v8.3h-.72L217.72,220v5.77a4,4,0,0,0,.08,1,.73.73,0,0,0,.41.46,2.71,2.71,0,0,0,1.07.16v.71h-3.89v-.71a2.41,2.41,0,0,0,1-.16.69.69,0,0,0,.38-.46,4.39,4.39,0,0,0,.07-1v-5.34c0-.43,0-.75,0-1a1.69,1.69,0,0,0-.17-.57,1,1,0,0,0-.43-.39,2.35,2.35,0,0,0-.82-.2v-.71h3.05l5.93,7v-4.78a4,4,0,0,0-.08-.9.74.74,0,0,0-.4-.48,2.27,2.27,0,0,0-1-.17v-.71h3.91Z"/><path class="cls-1" d="M238.64,222.92a5.19,5.19,0,0,1-.38,2,4.7,4.7,0,0,1-1,1.52,4.33,4.33,0,0,1-1.3.92,8.76,8.76,0,0,1-3.59.65H227.6v-.72a3.06,3.06,0,0,0,1-.13.72.72,0,0,0,.44-.38,2,2,0,0,0,.1-.72v-6.6a1.33,1.33,0,0,0-.28-1,2,2,0,0,0-1.28-.28v-.71l2.24-.05.94,0h1a14.5,14.5,0,0,1,2.19.14,7.2,7.2,0,0,1,1.65.45,4.54,4.54,0,0,1,1.26.78,5,5,0,0,1,1,1.13,5.46,5.46,0,0,1,.61,1.38A5.57,5.57,0,0,1,238.64,222.92Zm-2.49,0a5.47,5.47,0,0,0-.62-2.73,3.37,3.37,0,0,0-1.69-1.52,3.57,3.57,0,0,0-1-.23c-.35,0-.85-.05-1.5-.05v7.34a4.87,4.87,0,0,0,.06.92.64.64,0,0,0,.36.44,2.25,2.25,0,0,0,.94.15,2.84,2.84,0,0,0,2.66-1.31A5.8,5.8,0,0,0,236.15,222.87Z"/><path class="cls-1" d="M249.25,228.06h-4.93v-.71a3.37,3.37,0,0,0,.91-.09.4.4,0,0,0,.29-.42,1.31,1.31,0,0,0-.09-.47l-.49-1.24h-3.39l-.26.68a2.73,2.73,0,0,0-.21.83.55.55,0,0,0,.36.59,2.58,2.58,0,0,0,.83.12v.71h-3.6v-.71a1.5,1.5,0,0,0,.73-.16,1.6,1.6,0,0,0,.57-.62,8.28,8.28,0,0,0,.59-1.28l3-7.89h.73l3.18,8.14c.23.58.4,1,.51,1.17a1.2,1.2,0,0,0,.45.47,1.63,1.63,0,0,0,.8.17Zm-4.59-3.69-1.44-3.64-1.37,3.64Z"/><path class="cls-1" d="M259.58,220.58h-.73a3.11,3.11,0,0,0-.43-1.43,1.36,1.36,0,0,0-.7-.57,3.2,3.2,0,0,0-.87-.11h-1.32v7.66a2.19,2.19,0,0,0,.09.71.72.72,0,0,0,.43.39,2.78,2.78,0,0,0,1,.14v.71h-5.24v-.71a1.86,1.86,0,0,0,1.24-.28,1.32,1.32,0,0,0,.28-1v-7.66h-1.11a4.74,4.74,0,0,0-1.08.1,1.33,1.33,0,0,0-.76.57,2.76,2.76,0,0,0-.37,1.44h-.73v-3h10.33Z"/><path class="cls-1" d="M265.77,228.06h-5.31v-.71a3.05,3.05,0,0,0,1-.13.7.7,0,0,0,.44-.38,2,2,0,0,0,.1-.73v-6.58a1.32,1.32,0,0,0-.28-1,1.94,1.94,0,0,0-1.27-.28v-.71h5.31v.71a3,3,0,0,0-1,.13.73.73,0,0,0-.44.38,2,2,0,0,0-.1.72v6.58a2.08,2.08,0,0,0,.1.71.74.74,0,0,0,.43.39,2.76,2.76,0,0,0,1,.14Z"/><path class="cls-1" d="M278.64,222.83a5.5,5.5,0,0,1-.68,2.67,5,5,0,0,1-2,2,6.25,6.25,0,0,1-3.14.75,6.57,6.57,0,0,1-2.6-.48,5,5,0,0,1-1.84-1.28,5.3,5.3,0,0,1-1.05-1.76,5.59,5.59,0,0,1,.31-4.56,5,5,0,0,1,2-2,6.22,6.22,0,0,1,3.15-.76,6.68,6.68,0,0,1,2.84.55,4.93,4.93,0,0,1,1.83,1.38,5.44,5.44,0,0,1,.94,1.74A5.93,5.93,0,0,1,278.64,222.83Zm-2.49,0a8.8,8.8,0,0,0-.15-1.67,4.38,4.38,0,0,0-.53-1.42,2.79,2.79,0,0,0-1-1,3.25,3.25,0,0,0-1.62-.37,3,3,0,0,0-2.07.66,3.28,3.28,0,0,0-1,1.65,8.23,8.23,0,0,0-.27,2.16,11.28,11.28,0,0,0,.09,1.35,5.13,5.13,0,0,0,.41,1.44,3,3,0,0,0,1,1.24,3.09,3.09,0,0,0,1.84.5,3,3,0,0,0,1.82-.52,3.08,3.08,0,0,0,1-1.27,5.24,5.24,0,0,0,.4-1.44A10.63,10.63,0,0,0,276.15,222.8Z"/><path class="cls-1" d="M291.29,218.31a2.69,2.69,0,0,0-1.07.15.66.66,0,0,0-.4.44,4,4,0,0,0-.08,1v8.3H289L282.21,220v5.77a3.85,3.85,0,0,0,.08,1,.72.72,0,0,0,.41.46,2.68,2.68,0,0,0,1.07.16v.71h-3.89v-.71a2.42,2.42,0,0,0,1-.16.7.7,0,0,0,.38-.46,4.37,4.37,0,0,0,.07-1v-5.34c0-.43,0-.75,0-1a1.54,1.54,0,0,0-.17-.57,1,1,0,0,0-.43-.39,2.33,2.33,0,0,0-.82-.2v-.71h3.05l5.93,7v-4.78a3.81,3.81,0,0,0-.08-.9.75.75,0,0,0-.4-.48,2.28,2.28,0,0,0-1-.17v-.71h3.91Z"/><path class="cls-1" d="M98.84,185.4l13.94-31.76h11.87V155h-1.41a9.28,9.28,0,0,0-3.7.46,2.46,2.46,0,0,0-1.17,1.74,36,36,0,0,0-.3,6V182a47.67,47.67,0,0,0,.22,5.92,3.06,3.06,0,0,0,1.14,2.08,6.36,6.36,0,0,0,3.51.68h1.69V192H106.26v-1.33h1.36a6.55,6.55,0,0,0,3.38-.62,2.88,2.88,0,0,0,1.21-1.94,41,41,0,0,0,.27-6.12V157.6L97.37,192H96L80.58,157.6v22.49a44.4,44.4,0,0,0,.29,6.29,4.8,4.8,0,0,0,1.77,2.91,7,7,0,0,0,4.16,1.4V192H72.94v-1.33a7.08,7.08,0,0,0,4-1.32,4.77,4.77,0,0,0,1.88-2.93,41,41,0,0,0,.34-6.51V163.23a38.73,38.73,0,0,0-.27-5.91,2.59,2.59,0,0,0-1.13-1.84A8.81,8.81,0,0,0,74,155h-1v-1.34H84.65Z"/><path class="cls-1" d="M147,177.9H132.4l-1,2.42q-2.21,5.27-2.21,6.88a3.05,3.05,0,0,0,1.18,2.6,5,5,0,0,0,3.08.89V192H121.9v-1.33a6.23,6.23,0,0,0,3.82-1.79,22,22,0,0,0,3-5.9q.18-.42,1.39-3.29l11.17-26.6h1.14l12.84,30.46,1.76,4a5.35,5.35,0,0,0,1.59,2.13,5.82,5.82,0,0,0,3,1V192H146.51v-1.33a11.51,11.51,0,0,0,3.79-.41,1.58,1.58,0,0,0,1-1.63A16.34,16.34,0,0,0,150,185Zm-.55-1.33-6.78-16.34L133,176.56Z"/><path class="cls-1" d="M198.49,191.67V179.32h1.42q2.41,12.09,11.41,12.09a8.28,8.28,0,0,0,6.27-2.32,7.3,7.3,0,0,0,2.22-5.19,6.62,6.62,0,0,0-2-4.86q-2-1.93-7.14-4.14a51.63,51.63,0,0,1-7-3.47,10.6,10.6,0,0,1-3.67-3.87,10.27,10.27,0,0,1-1.32-5.07,9.1,9.1,0,0,1,2.85-6.84,10,10,0,0,1,7.2-2.73,13.17,13.17,0,0,1,4.59.8,11.8,11.8,0,0,1,4.42,3.29,6.08,6.08,0,0,0,1.47-3.37h1.25v10h-1.25a13.47,13.47,0,0,0-3.81-6.9,9.1,9.1,0,0,0-6.34-2.52q-3.43,0-5,1.86a6.07,6.07,0,0,0-1.6,4.06,5.86,5.86,0,0,0,2,4.5,27.44,27.44,0,0,0,7.19,4.19,72.51,72.51,0,0,1,7.23,3.56,10.07,10.07,0,0,1,3.62,3.72,10.89,10.89,0,0,1,1.36,5.5,10.5,10.5,0,0,1-3.29,8,12.29,12.29,0,0,1-8.78,3.08,13.39,13.39,0,0,1-10.54-4.85,9.84,9.84,0,0,0-1.39,3.78Z"/><path class="cls-1" d="M228.61,155v-1.34h17.5V155h-.82a9.21,9.21,0,0,0-3.68.46,2.46,2.46,0,0,0-1.17,1.74,36.26,36.26,0,0,0-.29,6V182a51,51,0,0,0,.21,5.92,3,3,0,0,0,1.12,2.08,6.31,6.31,0,0,0,3.5.68h1.12V192h-17.5v-1.33h1.12a6.54,6.54,0,0,0,3.38-.62,2.83,2.83,0,0,0,1.19-1.93,43.33,43.33,0,0,0,.25-6.12V163.22a41,41,0,0,0-.25-5.9,2.52,2.52,0,0,0-1.12-1.84,8.81,8.81,0,0,0-3.76-.51Z"/><path class="cls-1" d="M284.55,177.72h1.33v13.42h-1.33a10.27,10.27,0,0,0-1.82-4,16.57,16.57,0,0,1-12.92,5.64,18.4,18.4,0,0,1-13.58-5.27Q251,182.21,251,173.54a24.27,24.27,0,0,1,2.43-10.72,16.46,16.46,0,0,1,6.78-7.46,19.22,19.22,0,0,1,9.55-2.44,17,17,0,0,1,7.79,1.77,15.64,15.64,0,0,1,5.21,3.93,14,14,0,0,0,1.47-5h1.33l.35,14.58h-1.33q-1.26-7.82-5.18-10.89a13.93,13.93,0,0,0-8.82-3.07,11.19,11.19,0,0,0-9.56,4.91q-3.55,4.92-3.54,14.06,0,8.67,3.87,13.29a12.07,12.07,0,0,0,9.63,4.62,14.93,14.93,0,0,0,6.3-1.49,11,11,0,0,0,5.1-5A18.86,18.86,0,0,0,284.55,177.72Z"/><path class="cls-1" d="M292.25,172.57q0-8.89,6-14.27a21.32,21.32,0,0,1,14.86-5.38,21.85,21.85,0,0,1,15,5.33q6,5.32,6,14.52,0,8.92-5.77,14.44t-15.18,5.52q-9.16,0-15-5.52T292.25,172.57Zm6.48.2q0,9.3,3.71,14t11.12,4.67a12.51,12.51,0,0,0,10.28-4.67q3.77-4.66,3.78-13.91,0-9-3.72-13.78t-10.79-4.79q-7,0-10.66,4.68T298.73,172.77Z"/><path class="cls-1" d="M181.48,181.87c-5.12-9.54-10.35-8.47-10.35-8.47V182a49.88,49.88,0,0,0,.22,6A3,3,0,0,0,172.5,190a6.54,6.54,0,0,0,3.57.68h1.87V192H159.31v-1.34h1.26a6.77,6.77,0,0,0,3.45-.62,2.87,2.87,0,0,0,1.22-2,43.57,43.57,0,0,0,.26-6.17V163a41.35,41.35,0,0,0-.26-6,2.56,2.56,0,0,0-1.15-1.85,9.17,9.17,0,0,0-3.85-.51h-.66v-1.34l5.55-.29c3.7-.17,6.64-.26,8.82-.26a32.53,32.53,0,0,1,9,1,12.12,12.12,0,0,1,5.62,3.37,8,8,0,0,1,2.15,5.6,8.65,8.65,0,0,1-2.8,6.48q-2.8,2.68-8.24,3.34,2.48,1.13,7.84,8.43c2.91,3.92,4.67,9,12.43,15a10.05,10.05,0,0,0,5.92,1.94S193.33,204,181.48,181.87Zm-10.35-9.82c1.43,0,2.9-.09,4.42-.17a16.62,16.62,0,0,0,4-.63,6.24,6.24,0,0,0,4.36-4.11,11.37,11.37,0,0,0,.6-4,10,10,0,0,0-2-6.57q-2-2.47-8.89-2.47c-.7,0-1.51,0-2.43.11Z"/><path class="cls-1" d="M210.8,55.36c-6.9-3-16.65-10.3-26-10.3a14.76,14.76,0,0,0-9.22,2.69c-1.49,1-3.39,3.08-3.39,5.11A2.87,2.87,0,0,0,175,56c.59,0,1-.13.36-.79a4.87,4.87,0,0,1-.83-3c0-4,3.39-5.44,7.2-5.44,4.28,0,8.38,1.38,13.26,3.61,4.34,2,8.92,4.46,13.32,6.43.42.2,1.36.41.94.67-4,3.09-8.18,5.91-12.06,8.76l.19.43.18.38c5.16-3.66,9.29-6.8,12.54-8.93a.77.77,0,0,1,1-.2c1.48.52,2.86,1,4.16,1.38l.86-2a24.89,24.89,0,0,1-3.39-1.27"/><path class="cls-1" d="M231.17,98.95a3.91,3.91,0,0,0-2.3,1c-.43.47-.43.83-.16.83a2.13,2.13,0,0,1,2.73,2.07c0,2.66-1.87,4.19-5.46,4.19-3.1,0-6.26-.59-12.63-3.54-3.69-1.71-7.44-3.54-10.54-5.08-.53-.24-.48-.36-.05-.65,3.9-2.92,12.45-11.25,14.55-13.13l0-1.5c-.27.21-8.1,7.29-10.93,9.81-1.49,1.32-3.38,3.1-5,4.34-.32.24-.43.29-.7.18-5-2.18-8.72-3.31-13.49-3.31a15.69,15.69,0,0,0-8,2.24c-2.46,1.54-4,3.66-4,5.61,0,3.54,3.7,5,7.23,5,4,0,8.88-1.53,16.8-6.73.37-.24.93-.71,1.36-.54,2.73,1.3,5.48,2.9,8.8,4.43,5.67,2.6,9.86,4.67,13.71,4.67a12.42,12.42,0,0,0,7.65-2.24c1.5-1.06,3.11-2.89,3.11-4.9A2.6,2.6,0,0,0,231.17,98.95Zm-32.2.51c-4.66,3.35-9.07,5.73-14.27,5.95-3,.13-7.82-.84-8-4.45a4,4,0,0,1,1.62-3.16c1.7-1.43,3.85-1.84,7-2,3.91-.16,8.89,1.25,13.41,3.06C199.24,99.05,199.31,99.18,199,99.46Z"/><path class="cls-1" d="M231.52,45.54c-3.1,0-7.12,1.24-11.62,4.07-2.41,1.54-5.07,3.49-7.8,5.61-.25.14-.51.45-.79.49l1.26.54c-.25-.32.56-.74.84-1,6.76-5.79,10.93-8.4,16.83-8.58,4.15-.13,7.79,2.08,7.89,5.37s-2.43,6.4-10,6.64c-.82,0-1.67,0-2.54,0l0,2.1a19.44,19.44,0,0,0,9.84-3.12c2.57-1.77,4.28-3.48,4.28-6.49C239.66,49.2,238.11,45.54,231.52,45.54Z"/><path class="cls-1" d="M183.72,73.7c-3.89,2.93-9.09,6.16-12.9,6.32-3,.12-6.71-.72-6.87-4.67a5.37,5.37,0,0,1,2.24-4.45,9.63,9.63,0,0,1,5.7-1.78c3.25-.13,8.15,1.33,11.82,2.62V70.68A33.6,33.6,0,0,0,173.57,68a12.81,12.81,0,0,0-7.51,2.06c-2.17,1.37-3.43,3.14-3.53,5.12-.16,3,2,5.41,6.21,5.63,5.32.27,10.23-2.88,12.52-4.24.4-.24,1.4-.94,2.46-1.7Z"/><path class="cls-1" d="M240.83,68.19c-5.33-.21-10.2,3-12.47,4.38-.42.26-1.46,1-2.56,1.82l-.11,1.26c3.88-3,9.18-6.45,13.07-6.65,3-.16,6.71.64,6.92,4.59a5.37,5.37,0,0,1-2.19,4.48,9.6,9.6,0,0,1-5.68,1.85c-3.37.17-8.53-1.34-12.26-2.62l0,.51v.49a34.55,34.55,0,0,0,10.64,2.75,12.82,12.82,0,0,0,7.49-2.14c2.15-1.39,3.39-3.17,3.47-5.16C247.22,70.73,245.07,68.36,240.83,68.19Z"/></svg>