<svg id="Layer_1" data-name="Layer 1" xmlns="http://www.w3.org/2000/svg" viewBox="0 0 410 300"><defs><style>.cls-1{fill:#231f20;}.cls-2{fill:#006fb9;}</style></defs><title>identities</title><polygon class="cls-1" points="138.56 89.84 125.7 89.84 106.51 111.75 106.51 89.84 96.04 89.84 96.04 141.88 106.51 141.88 106.51 121.43 125.97 141.88 139.47 141.88 115.19 116.45 138.56 89.84"/><path class="cls-1" d="M171.51,123.09c0,6.56-3.65,10.18-10.27,10.18S151,129.65,151,123.09V89.84H140.51v34c0,11.42,8.14,18.8,20.73,18.8S182,135.27,182,123.86v-34H171.51Z"/><polygon class="cls-1" points="234.46 89.84 234.42 89.84 222.9 89.84 209.32 120.24 195.74 89.84 184.22 89.84 184.18 89.84 209.32 142.65 209.32 142.65 209.32 142.65 234.46 89.84"/><path class="cls-1" d="M255.51,89c-15.23,0-26.72,11.55-26.72,26.86s11.49,26.93,26.72,26.93,26.65-11.58,26.65-26.93S270.7,89,255.51,89Zm0,44.27c-9.68,0-17-7.48-17-17.4s7.3-17.33,17-17.33,17.05,7.45,17.05,17.33A17,17,0,0,1,255.51,133.26Z"/><path class="cls-2" d="M227.92,198.74h7.19l-25.8-52.29L183.6,198.74h7.27l5.29-11.26h26.47ZM220,181.89H198.77l10.62-21.5Z"/><path class="cls-2" d="M234,198.74h35.1v-5.6H244.25L270,147.21H234.38v5.6H260L234,198.54Z"/><path class="cls-2" d="M274.08,198.74h35.1v-5.6H284.29L310,147.21H274.42v5.6H300l-25.92,45.73Z"/><path class="cls-2" d="M177.19,147.21v37.48c0,6.16-3,9.29-8.87,9.29a12.61,12.61,0,0,1-6.75-2.21l-.24-.16-.62-.44-.32-.25c-.24-.19-.48-.38-.71-.58-.41-.35-.77-.68-1.07-1l-4.06,4.42.86.78.68.55a19.89,19.89,0,0,0,12.33,4.45c12.78,0,15.46-8.14,15.46-15v-37.4Z"/></svg>