<svg id="Layer_1" data-name="Layer 1" xmlns="http://www.w3.org/2000/svg" xmlns:xlink="http://www.w3.org/1999/xlink" viewBox="0 0 410 300"><defs><style>.cls-1{fill:#7159a6;}.cls-2{fill:#231f20;}.cls-3{fill:url(#linear-gradient);}.cls-4{fill:url(#linear-gradient-2);}.cls-5{fill:#534f98;}.cls-6{fill:#fff;}</style><linearGradient id="linear-gradient" x1="93.93" y1="95.75" x2="186.46" y2="149.17" gradientUnits="userSpaceOnUse"><stop offset="0.15" stop-color="#659ad1"/><stop offset="0.25" stop-color="#679cc8"/><stop offset="0.42" stop-color="#6ca2b0"/><stop offset="0.62" stop-color="#75ab88"/><stop offset="0.86" stop-color="#80b851"/><stop offset="0.95" stop-color="#85bd3c"/></linearGradient><linearGradient id="linear-gradient-2" x1="77.68" y1="111.58" x2="149.35" y2="152.96" gradientUnits="userSpaceOnUse"><stop offset="0" stop-color="#659ad2"/><stop offset="0.5" stop-color="#85bd3c"/><stop offset="1" stop-color="#cbd422"/></linearGradient></defs><title>identities</title><path class="cls-1" d="M145.94,158.51,132.69,192.1l-13.24-33.59-17.3,46L91.84,189.27c7.41-2.26,11.56-8.08,11.56-14.7,0-8.08-6.84-15.72-18.49-15.72H70.4v50.93h6.78V190.21h3.27a7.31,7.31,0,0,1,6.06,3.23l11,16.35h7.07a3.92,3.92,0,0,0,3.67-2.54l11.34-30.17,13.08,32.1,13.08-32.1,11.34,30.17a3.92,3.92,0,0,0,3.67,2.54h4.45Zm-61.06,25H77.18v-17.9h7.71c6.77,0,11.43,3.64,11.43,8.95S91.66,183.52,84.88,183.52Z"/><path class="cls-2" d="M180.23,158.84h-15v50.94h10.13V192h4.89c12.14,0,20.3-6.67,20.3-16.6C200.54,167.4,193.42,158.84,180.23,158.84Zm-4.89,8.87h4.57c6.08,0,10.33,3.18,10.33,7.73,0,4.77-4,7.73-10.33,7.73h-4.57Z"/><path class="cls-2" d="M233.61,182a12.16,12.16,0,0,0,4.3-9.37c0-6.85-5.46-13.76-17.66-13.76h-16.7v50.94h19.58c12.28,0,18.7-7.62,18.7-15.14C241.83,189.22,238.8,184.61,233.61,182ZM219.69,179h-6V167.71h6.09c4.89,0,7.93,2.11,7.93,5.52S224.41,179,219.69,179Zm-6,8.93h8.89c5.35,0,8.81,2.52,8.81,6.42s-3.54,6.56-8.81,6.56h-8.89Z"/><path class="cls-2" d="M264.16,179.65h0c-5-2.08-9.4-3.88-9.37-7.6,0-2.82,2.66-4.71,6.62-4.71,4.51,0,8.17,3.19,9.54,4.57l1,1,6.72-6.45-.87-.95a22.68,22.68,0,0,0-16.54-7.33c-9.56,0-16.83,5.93-16.92,13.79,0,9.43,7.86,12.64,14.8,15.46,5.34,2.18,10,4.06,10,8.46,0,3.19-2.9,5.33-7.22,5.33a14.44,14.44,0,0,1-11.09-5.94l-.92-1.19-7.1,6.81.41.57a22.74,22.74,0,0,0,18.24,9c10.54,0,18-5.95,18.06-14.46C279.61,186,271,182.49,264.16,179.65Z"/><path class="cls-3" d="M132.34,100.13a95.34,95.34,0,0,0-36.2,7.48L79.5,120.75a88.86,88.86,0,0,1,34.41-7.22c23-.26,43.74,7.93,58.68,21.36a14.39,14.39,0,0,0,20-.93l6.77-7.14C182.84,110.14,158.93,99.82,132.34,100.13Z"/><path class="cls-4" d="M107.92,114.46a72.24,72.24,0,0,0-12.7,1.2,85.92,85.92,0,0,0-15.72,5.09L66.42,131.09a66.6,66.6,0,0,1,69.86,8.85,14.68,14.68,0,0,0,20.26-1.17l2.71-2.94A70.06,70.06,0,0,0,107.92,114.46Z"/><path class="cls-5" d="M167.18,87.69a6.73,6.73,0,0,0-8.38,0l-4.06,3.23L136,76,96.14,107.6q2.35-1,4.77-1.87a110.7,110.7,0,0,1,100.69,9.34Z"/><circle class="cls-2" cx="315.82" cy="184.27" r="26.18"/><path class="cls-6" d="M330.93,184.53h2.89l-6.5-14.84H323l6.53,14.84h-3v3.93c0,2.39-1,3.41-4.23,3.36v7.6h4.25v-7.6H328a2.93,2.93,0,0,0,2.93-2.92Zm-12.5-14.84h-8c-6.52,0-11.89,4.56-11.89,11.31,0,5.68,3.42,9.74,8.53,10.51v7.9h10.63v-7.6h1.48a3,3,0,0,0,2.91-2.91v-4.39H325Zm-2.08,12.74a2.6,2.6,0,1,1,2.6-2.6A2.6,2.6,0,0,1,316.35,182.43Z"/></svg>