<svg id="Layer_1" data-name="Layer 1" xmlns="http://www.w3.org/2000/svg" xmlns:xlink="http://www.w3.org/1999/xlink" viewBox="0 0 410 300"><defs><style>.cls-1{fill:#061922;}.cls-2{fill:#373896;}.cls-3{fill:#c4ced4;}.cls-4{fill:#231f20;}.cls-5{fill:#fff;}.cls-6{fill:#f9ec00;}.cls-7{fill:#ed1c24;}.cls-8{fill:url(#_032_White);}.cls-9{fill:#006bb6;}</style><radialGradient id="_032_White" cx="-178.49" cy="-85.35" r="30.93" gradientTransform="translate(343.06 263.29) scale(1.06)" gradientUnits="userSpaceOnUse"><stop offset="0" stop-color="#fff"/><stop offset="0.56" stop-color="#f58b6d"/><stop offset="1" stop-color="#ed1c24"/></radialGradient></defs><title>identities</title><path class="cls-1" d="M345.06,79l5.63-13.52-17,5.45,2.65-6.4-8.49,2.75-5.68,1.82c-6.32,2-9.52,5.59-10.66,8.93L272.1,90.61l4.34-10.48L268,82.84l-3.33,1.07a12.71,12.71,0,0,0,.42-3.15A9.12,9.12,0,0,0,261.38,73c-4.63-3.38-12.2-2-17.73-.21a44.43,44.43,0,0,0-13.49,6.72L239,59l-8.64,2.74-7.86,2.5-11.83,14A7,7,0,0,0,208,72.5c-3.47-2.54-8.28-1-11.47,0l-25,8s-2.54,5.82-3.11,6.84c-.33-1-.82-2.9-1.81-3.72s-2.13-.9-4.92,0c-2.2.68-14.69,4.67-14.69,4.67l-2.14,3.65-.15-.15a6.06,6.06,0,0,0-6.08-.95,11,11,0,0,0-6.15,5.08l-.16.28c-1-.93-3.2-2.23-7-1l-6,1.79.36-4.79-5.12,1.49-24,7-.86.25-1.62.47-1.15,2.49c-3.44,7.13-13.9,31.61-6.07,51l0,.11.07.16.2.42,1.46,2.89.54,1c-4.43,1.11-41.75,10.9-44.61,31.38A9.92,9.92,0,0,0,42.47,200c4.32,3.15,10.93,2.25,14.53,1.09,9.71-3.11,20.5-10.22,31.44-21.51-.78,2-1.81,4.6-3.2,8l14.9-4.69a44,44,0,0,0,85.72,19.2L310.2,162.66l11.72-28.14c12.68-4,23.35-14.09,26.11-29.59a.87.87,0,0,0,0-.15,18.32,18.32,0,0,0,.35-3.38,11.13,11.13,0,0,0-3.15-8.22,9.81,9.81,0,0,0-1.85-1.41l4.74-1.52c3.9-1.37,6.86-2.41,9.32-8.33l3.24-8.28S348.7,77.79,345.06,79Z"/><path class="cls-2" d="M165.84,150.59c2.44-.67,7-2.76,9.59-6.95l-.24.19a18.34,18.34,0,0,1-8,5L157.51,152c-.5-.17-1-.33-1.51-.48q1.72.51,3.37,1.17Z"/><path class="cls-2" d="M243.15,155.75,205.06,168l6.71-14.86L209.48,155l-6.65,14.93,39.76-12.79,1.17-2.75h0Z"/><path class="cls-2" d="M291.09,140c-7.68,2.46-12,.36-14-1.5-.54.65-1.11,1.27-1.71,1.88,2.12,1.85,6.51,4,14.37,1.53a36.32,36.32,0,0,0,16.83-11,33.86,33.86,0,0,1-3.53,2.85A37.5,37.5,0,0,1,291.09,140Z"/><path class="cls-2" d="M335.72,122.94a37.48,37.48,0,0,1-12,6.36c-7.88,2.52-12.17.25-14.21-1.64-.54.65-1.11,1.27-1.7,1.89,2.13,1.93,6.53,4.22,14.52,1.66a36.13,36.13,0,0,0,17-11.24A34.22,34.22,0,0,1,335.72,122.94Z"/><path class="cls-2" d="M212.44,139.7a7.75,7.75,0,0,0,3.17,6.44,11,11,0,0,0,3,1.34l2.22-1.83a9.29,9.29,0,0,1-3.5-1.37,7.33,7.33,0,0,1-3-6.1,9.63,9.63,0,0,1,.29-2.38c-22.84,7.59-30.66-1.83-33.19-3.59l-.88,2.54,0,0c3.22,2.66,11.74,9.65,32,3.11A10.09,10.09,0,0,0,212.44,139.7Z"/><path class="cls-2" d="M258.73,150.6c-7.39,2.37-11.62.52-12.72-1.29l-.86,1.94a4.19,4.19,0,0,0,1.24,1.3c2.31,1.47,6.31,1.46,11,0a36.37,36.37,0,0,0,16.88-11.1,33.82,33.82,0,0,1-3.61,2.92A37.55,37.55,0,0,1,258.73,150.6Z"/><path class="cls-2" d="M182.57,195.57a38.7,38.7,0,1,1-74.83-18.66L91.83,182s4.56-11.2,6.08-14.89l-1.43.46-7,16.61,16-5.14a39.54,39.54,0,1,0,77.38,14.8c-.14.91-.31,1.82-.52,2.71C182.43,196.21,182.51,195.89,182.57,195.57Z"/><path class="cls-2" d="M75.21,187.65a49.67,49.67,0,0,1-14.9,8.28c-3.53,1.13-10.08,2.57-14.25-.47a7.91,7.91,0,0,1-3.17-6.59c0-5.08,3.09-9.27,7.7-12.75.17-.17.37-.34.55-.51-6,4-10.17,8.81-10.17,14.77a8.3,8.3,0,0,0,3.34,6.92c4.32,3.15,11,1.69,14.61.53,8.79-2.81,18.17-9.71,28.53-21A96.59,96.59,0,0,1,75.21,187.65Z"/><path class="cls-3" d="M182.57,195.57a38.7,38.7,0,1,1-74.83-18.66L91.83,182s4.56-11.2,6.08-14.89l1.4-.45-5.63,13.57,14.54-4.65,1-.33a38.16,38.16,0,1,0,73.35,20.33Zm95.73-58.72c-.4.55-.82,1.08-1.26,1.61,2.1,1.86,6.37,4,14,1.5A37.5,37.5,0,0,0,303,133.66a38.05,38.05,0,0,1-10.26,5.05C284.54,141.34,280.23,138.78,278.3,136.85ZM47.72,194.21a7.4,7.4,0,0,1-3.18-6.59c.33-4.32,2.64-8.15,6.05-11.51-4.61,3.48-7.7,7.67-7.7,12.75a7.91,7.91,0,0,0,3.17,6.59c4.17,3,10.72,1.6,14.25.47a49.67,49.67,0,0,0,14.9-8.28,47.52,47.52,0,0,1-13.25,7C58.43,195.81,51.89,197.25,47.72,194.21Zm166-42.66.39-.33-2.37,1.93L205.06,168l38.09-12.27.6-1.37L207.36,166Zm97-25.51c-.4.55-.82,1.09-1.26,1.62,2,1.89,6.33,4.16,14.21,1.64a37.48,37.48,0,0,0,12-6.36,38,38,0,0,1-10.34,5.12C316.95,130.76,312.62,128,310.77,126Zm-64.19,22-.57,1.3c1.1,1.81,5.34,3.66,12.72,1.29a37.55,37.55,0,0,0,11.89-6.27,38.09,38.09,0,0,1-10.24,5C252.93,151.76,248.68,149.85,246.58,148Zm-27.57-5a7.34,7.34,0,0,1-3-6.11,9.72,9.72,0,0,1,.29-2.38c-23.81,7.91-31.3-2.66-33.49-3.77l-1.23,1.07-.12.36c2.53,1.76,10.35,11.17,33.19,3.59a9.63,9.63,0,0,0-.29,2.38,7.33,7.33,0,0,0,3,6.1,9.29,9.29,0,0,0,3.5,1.37l1.45-1.22A8.33,8.33,0,0,1,219,143.06Zm-61.51,9,9.73-3.18a18.34,18.34,0,0,0,8-5,23.41,23.41,0,0,1-6.31,3.28L156,151.52h0C156.5,151.68,157,151.84,157.51,152Z"/><path class="cls-4" d="M353.38,104.78h0Z"/><path class="cls-5" d="M222.48,174c0-4-4.13-2.89-6.85-2l-14.08,4.41-1.51,3L214,175c1.51-.48,3.54-1.16,3.54.82,0,3.44-5.11,6.89-8,8.14l3.13-7.35-4.44,1.4-6.07,14.23,4.42-1.39,1.94-4.59s2.19-1.12,3.44-1.8a43.06,43.06,0,0,0,6-3.82C220.48,178.52,222.48,176.15,222.48,174Z"/><path class="cls-5" d="M289.48,157.09c2-.63,3.64-2.49,3.64-4.15s-1.63-2.46-3.64-1.83-3.64,2.49-3.64,4.13S287.47,157.72,289.48,157.09Z"/><path class="cls-5" d="M302.81,154.47l-2.92,2.41-1.29-1.08-5.15,1.63,2.92,2.34-2.54,2.08-5,1.57h0l-.55.17,2.27-5.26-4.46,1.41L284,164.68a3,3,0,0,0-.1.32l-5.68,1.79,1.6-3.64c.76-1.79-.76-1.41-1-1.33a7.91,7.91,0,0,0-3.3,1.89l-3.76,3.37,1.39-3.23-4.44,1.4-2.25,5.26-9.43,3c-.49.16-2,.56-1.41-.9l.9-2.1,2.55-.8L257.71,172l4.41-1.39c.75-.69,1.12-1.94.53-2.43a1.38,1.38,0,0,0-.56-.31,14.36,14.36,0,0,0-3.41.54h0l-1.57.5-14.58,4.6c-1.82.58-6.22,2.5-6.22,5.19a1.66,1.66,0,0,0,.42,1.19l-5.8,1.83,1.58-3.64c.59-1.39-.47-1.48-1-1.31a7.65,7.65,0,0,0-3.29,1.9L224.46,182l4.5-10.61-4.48,1.41-6,14.25,2.55-.81a4.92,4.92,0,0,0,1.8-1.1l4.66-4.21-.86,1.95c-.45,1-.14,1.63,1.19,1.21l10.9-3.44c.21-.06,2.4-.61,3.46-.95,3.27-1.05,5.91-2.93,5.91-4.94,0-.49-.33-1.24-.9-1.35l4.72-1.49a3.86,3.86,0,0,0-1.17,2.59c0,1.69,2.31,1.61,5.19.7l9.92-3.13,2.19-.69h0l.47-.15a4.7,4.7,0,0,0,2.75-2.07l3.47-3.18-.94,2.17c-.47,1.1,0,1.4,1.33,1l10.51-3.32h0l5.48-1.73h0l3.52-1.11h0l1.51-.48a5.85,5.85,0,0,0,2.18-1.25l.5.4,5-1.57L301,157.85,304,155.5l3.8-1.33a4.64,4.64,0,0,0,2.92-2.31Zm-60.07,23.68a8.08,8.08,0,0,1-1.18.34c0-.05-.25.13-.23.08h-.4c-.44,0-.73-.19-.48-.76l1.11-2.59,2.82-.89Z"/><ellipse cx="347.47" cy="107.15" ry="0.01" transform="translate(65.58 336.83) rotate(-56.31)"/><polygon class="cls-4" points="347.47 107.14 347.47 107.15 347.47 107.16 347.47 107.14"/><path class="cls-6" d="M172.2,110.22l-11.26,3.61-13.33,31.75a5.74,5.74,0,0,0-.26.77L135.6,150.1l13.64-32.53L138,121.18l-13.33,31.75c-1.19,2.8.31,4.21,3.87,3.07l26.24-8.4c.41-.13.92-.32,1.49-.56l11.37-3.84c2.07-.66,6.61-2.7,7.8-6.12l-16.86,5.69Z"/><path class="cls-6" d="M337.83,85.6l5.63-13.52-17,5.44c1-2.26,2.63-6.36,2.63-6.36L323.41,73c-5.94,1.9-8.27,5.38-8.32,7.86,0,2.16,1.76,3.54,4.49,2.45l-4.24,9.5L302,97.08l5.73-13.55-17.77,5.69c-6.15,2-13.38,6.07-15.45,12.19a6.91,6.91,0,0,0-.22,4.54l-15,4.8,3.87-9.38,2.58-.83a11.07,11.07,0,0,0,7.08-5.84l-8,2.55,4.34-10.48-6,1.94c-4.7,8-7.54,10.19-14.46,13.72l-2,4.2,5.12-1.64-4,9.42c-1.19,2.8.05,3.61,3.41,2.53l26.76-8.57a8.09,8.09,0,0,0,1.81-.21,20.14,20.14,0,0,0,6.1-2.43,12.63,12.63,0,0,0,4.46-3c.8,1.76,5.55-.06,5.55-.06L313,97.17c1.4-.45,6.15-2.18,7.6-6.06l4.26-9.51,6.46-2.07-3.93,9.4c-1.29,3.1,1.14,3.27,3.93,2.37l15.5-5c2.53-.81,5.32-2.16,6.06-5.61Zm-47.06,15.07c-4.7,1.5-6.2,1.09-5-1.65l2.32-5.63,6.61-2.12Z"/><polygon class="cls-7" points="181.58 114.56 170.04 118.33 177.27 123.02 171.29 135.36 182.21 125.86 189.59 129.62 189.48 119.31 200.12 109.39 189.18 112.3 188.35 101.87 181.58 114.56"/><path class="cls-6" d="M244.9,76.69c-4.25,1.36-9.69,3.69-13.68,7.22l-8.65,2.75L224,83.3l7.63-17.63-6.73,2.14L200.12,97l4.74-1.51,6.92-8.3,6.3-2L217,87.81c-.95,2.32,0,3.75,4,2.5l6.64-2.11a12.72,12.72,0,0,0-1.82,6.54c0,8.4,8.21,12.87,8.21,18.7,0,6.94-8.94,10.49-14.26,12.19-3.67,1.18-15.93,4.76-15.93-1.44,0-7.22,14.52-13.62,23.89-15.64l-2.14-2.94c-18.09,4.73-32.07,14.22-32.07,22.37,0,9.56,19.22,3.48,25.79,1.37,8.78-2.81,25.78-9.68,25.78-21.29,0-8.3-9.09-14.11-9.09-19.21,0-3,2.74-5.45,5.53-6.34a9.71,9.71,0,0,1,2.43-.52,13.44,13.44,0,0,0-1.08,4.55c0,4.88,4.6,6.51,9,5.09s9-6,9-10.88C260.92,72.87,250.74,74.82,244.9,76.69Zm-25.78,6-4.69,1.46,8.38-10Z"/><path class="cls-6" d="M174.79,83.66l-7.2,16.1-2.52-10.63c-.28-1.19-.71-2-2.4-1.46a4.94,4.94,0,0,0-3.42,3.21L150.45,111l-5.42.6a2.14,2.14,0,0,0-.42.1c-1.86.58-2.85,2.6-3.61,4.22l9.26-2.87a4.74,4.74,0,0,0,3-2.08l6.38-14.8L162.53,108c.25,1,1.21,1.2,2.43.82a3.69,3.69,0,0,0,2.45-2.07L178,82.66Z"/><path class="cls-6" d="M199.12,91.88a3.92,3.92,0,0,0-1.76-3.11c2.59-1.83,9.26-6.42,9.26-10.27,0-4.89-5.54-3.13-8.87-2.07L180.7,82l-1.64,3.78c.33-.09,16-5.16,16-5.16,1.41-.45,4.82-1.59,4.82,1.35,0,3.1-4.41,5.47-6.61,7.4A2.82,2.82,0,0,0,192,91.26c0,1,1.13,1.24.83,2.94a5,5,0,0,1-2.23,3.09l0,0,0,0a24.84,24.84,0,0,1-5.88,2.3l-1.16.37,7.08-16.45-6,1.9-8.18,19,14.84-4.71C197.24,97.89,199.11,94.22,199.12,91.88Z"/><path class="cls-6" d="M227.76,149.91l15.62-5L240.75,151l-25.94,8.31,2.32-5.29c4.48-3.82,20.13-15.3,20.13-20.87,0-2.6-2-2.67-4.3-1.9a5.89,5.89,0,0,1,.17,1.52c0,3.36-3.44,6.38-6.5,7.35s-6.5.17-6.5-3.19c0-6.21,10.54-8.9,14.2-10.08,5.68-1.82,13.64-3.26,13.64,3.2C248,136.84,233.09,146.75,227.76,149.91Z"/><path class="cls-6" d="M269.23,129c-1.55,5.68-5.42,11.05-8.69,12.06s-4.65-2.77-3.1-8.45,5.42-11.1,8.69-12.1S270.78,123.28,269.23,129Zm9.29-1.7c2.63-8.75-1.85-13.82-11.44-10.75-8.65,2.77-15.19,7.84-18.63,16.6-3.79,9.72.3,15.64,10.67,12.32C270.31,141.85,276.5,134.13,278.52,127.27Z"/><path class="cls-6" d="M301.59,118.32c-1.55,5.68-5.42,11.05-8.69,12.06s-4.64-2.76-3.09-8.45,5.42-11.1,8.69-12.1S303.14,112.63,301.59,118.32Zm9.29-1.7c2.63-8.75-1.85-13.83-11.44-10.76-8.65,2.77-15.19,7.84-18.63,16.6-3.79,9.72.3,15.64,10.67,12.32C302.67,131.21,308.86,123.48,310.88,116.62Z"/><path class="cls-6" d="M334.22,107.67c-1.55,5.68-5.42,11-8.69,12.05s-4.65-2.77-3.1-8.45,5.42-11.09,8.69-12.1S335.77,102,334.22,107.67Zm9.29-1.7c2.62-8.75-1.85-13.83-11.44-10.76-8.65,2.77-15.19,7.84-18.63,16.6-3.79,9.72.3,15.64,10.67,12.32C335.3,120.56,341.49,112.83,343.52,106Z"/><circle class="cls-1" cx="145.15" cy="188.12" r="38.16" transform="translate(-14.51 12.14) rotate(-4.56)"/><circle class="cls-8" cx="146.36" cy="186.98" r="34.49" transform="translate(-18.91 16.48) rotate(-6.06)"/><path class="cls-3" d="M99.79,193.78c12.1-9.08,41-27.2,88.67-36.7l2.78-4.06c-41.92,9.7-69.52,25.3-84.6,35.64l-1.82,1.27c-1.92,1.35-3.6,2.6-5,3.71,0,0,.06.68.11,1.11Z"/><path class="cls-1" d="M99.92,195.14a180.38,180.38,0,0,1,18.18-9.61c21.38-9.16,56.5-18.72,59.28-15,1,1.28.88,1.4.87,1.41l.05,0,10.23-14.84c-47.74,9.5-76.64,27.63-88.74,36.71"/><path class="cls-2" d="M99.93,195.14a180.3,180.3,0,0,1,18.17-9.61c21.38-9.16,56.5-18.72,59.28-15,1,1.28.88,1.4.87,1.41l.05,0,8.26-12c-21.17,3.3-41.77,11.26-58.38,18.95a245.29,245.29,0,0,0-28.31,15.88C99.89,194.88,99.9,195,99.93,195.14Z"/><path class="cls-3" d="M102.49,205.42c13.88-10,43.74-27.65,91.43-37.15l2.6-3.66c-48.82,11-79.82,30.18-94.06,40.72Z"/><path class="cls-1" d="M103,206.67a169.29,169.29,0,0,1,16.65-8.38c22.09-9.46,58.45-20.34,61.67-16a4.88,4.88,0,0,1,1.11,2.06l.44-.48,11-15.6c-47.68,9.5-77.55,27.17-91.43,37.15C102.63,205.79,103,206.67,103,206.67Z"/><path class="cls-2" d="M103,206.67a169.29,169.29,0,0,1,16.65-8.38c22.09-9.46,58.45-20.34,61.67-16a4.88,4.88,0,0,1,1.11,2.06l.44-.48,8.8-12.39h0c-15.1,2.15-36.4,8.87-51.73,15.35a253.57,253.57,0,0,0-37.12,19.46C102.89,206.46,103,206.67,103,206.67Z"/><path class="cls-3" d="M107.44,214.77c13.61-9.32,41.44-24.61,87.23-33.72l2.69-3.71c-47.43,10.85-76.23,27.61-90,37.39Z"/><path class="cls-1" d="M108.32,216A120.91,120.91,0,0,1,120,210.1c22.22-9.47,58.54-19.61,61.78-15.26l-.13,4.12.06,0,12.94-17.86c-45.8,9.11-73.63,24.4-87.24,33.73Z"/><path class="cls-2" d="M108.31,216A121,121,0,0,1,120,210.1c22.22-9.47,58.54-19.61,61.78-15.26l-.13,4.12.06,0,10.77-14.85h0c-14.93,1.89-41.78,10.09-61.72,19.36A228.34,228.34,0,0,0,108,215.64Z"/><path class="cls-5" d="M114.13,97.6,91.6,104.18l-.87.25-.41.89-.1.22C87,112.24,77,135.47,84.29,153.45v.06l.2.42c.42.88.84,1.79,1.35,2.68l.61,1.08,1.27-1c.22-.17,5.35-4.21,11.24-12.59a95.74,95.74,0,0,0,15.62-38.65c.68-3.9.9-6.64.91-6.75l.12-1.53Z"/><path class="cls-7" d="M102.75,109.79a.9.9,0,0,1,.23.05c.34.13.83.42.82.73a.45.45,0,0,1-.19.31s0,.52,0,.67a1.08,1.08,0,0,1-.23.57.81.81,0,0,1,.11.57c0,.14-.33,1.07-.57,1.69-.09.24-.19.67-.72.73a1.48,1.48,0,0,1-.36,0c-.06.16-.13.43-.13.43s-.08.25.26.34l.4.1.06-.12.74.06,0,.12a3.75,3.75,0,0,1,.64,0,1.53,1.53,0,0,1,1.08.89,5.17,5.17,0,0,1,.29,1.51s1.26.79,1.17,5.09c0,.45-3,2.35-3.51,2.49.14,2-1.15,5.14-1.93,6.65-.59,1.15-1.24,2.24-1.87,3.3l-.14-.05a34.7,34.7,0,0,1-3.29,5c-.18.23-.33.27-.47.44a11,11,0,0,1-1.06,1.5c-.2.26-2.69,2.89-4.45,4.69,0,.08,0,.16,0,.18l-.66.67c-.12.15-.06.26-.17.38-.73.75-1,.86-1.08,1.06-.17.81.36,1.34.37,1.88a1.09,1.09,0,0,1-.4.82s-.89.35-1.28.47a.87.87,0,0,1-.62-.07c.41.87.84,1.77,1.33,2.64,0,0,19.63-15.29,25.86-48.79Z"/><path class="cls-7" d="M103.35,120a15.32,15.32,0,0,1-.76,3.27l.14,1.29,1.73-1.57a.45.45,0,0,0,0-.19,4.71,4.71,0,0,1-1-2.82Z"/><path class="cls-9" d="M88.07,114.08l-.1,0c-3.48,9.5-7.53,25.22-2.46,38.15,0-.34.12-.81.17-1.17s-.08-1.11,0-1.25a5.32,5.32,0,0,1,2.07-2.25c.18-.18.48-.61.68-.85s.14-.11.22-.07c.61-.74,1.23-1.6,1.64-2.22a18.58,18.58,0,0,1,1.33-2.35,7.29,7.29,0,0,1,2-1.54,11.74,11.74,0,0,1,1-2.65c.39-.72,1.91-4.13,1.9-4.17s-.12,0-.2,0-3.61,5.89-4.13,6.52a3.2,3.2,0,0,1-.84.73,1.65,1.65,0,0,1-.55.8,3.33,3.33,0,0,1-.85.46l-.41.44c0,.12-.4.84-.52,1.12a3.73,3.73,0,0,1-.4.67,2.55,2.55,0,0,1-.86.79c-.42.18-.74.08-.85-.18a2.16,2.16,0,0,1,.29-1.74,11.22,11.22,0,0,1,1.41-1.59s.11-.39.15-.55a2.8,2.8,0,0,1,.51-1.15,1.66,1.66,0,0,1,.88-.56,2.8,2.8,0,0,1,.1-.8c.25-1.14,1.3-3.34,1.52-4.1a.81.81,0,0,1-.24,0c.4-.95,1.18-2.77,1.67-3.67a17,17,0,0,1,4-5.49s0-.18-.08-.59c0-.26-.14-1.57-.14-1.57a.75.75,0,0,1-.65-.61,4.94,4.94,0,0,1,0-1.59,2,2,0,0,0,0-.74l-.46.07a32.86,32.86,0,0,1-4,2.84c-.77,1-2.67,2.33-3.49,3.19a1.94,1.94,0,0,1,1.5,1.84,2.36,2.36,0,0,1,0,.3,4.26,4.26,0,0,1-1.32,2.77,4,4,0,0,1-1.67,1,2,2,0,0,1-2.83-2.08,4.33,4.33,0,0,1,2.48-3.59l.45-.28c.19-.15.48-.67.76-1,1-1.09,1.94-3.05,3.78-3.64.09-.06,2.46-2.24,2.46-2.24a4.82,4.82,0,0,1,1.64-1.58,16.6,16.6,0,0,1,1.59-.74l0-.09.8-.31v.09l1.13-.6c.06-.14.22-.67.34-1,.32-1-1-1-1.45-1.61,0,0,.4,0,.34-.06a3.94,3.94,0,0,1-.41-.46c.84.07,1.52-1.61,2.55-2.59a2,2,0,0,1,.34-.26Z"/><path class="cls-7" d="M91,106.79l23-6.73c.07-.65.1-1,.1-1l-22.53,6.58Z"/><path class="cls-9" d="M104.32,103.63l1.91-.56c1.25-.36,2.25-.09,2.07.64a2.89,2.89,0,0,1-1.2,1.52c.49,0,1,.23.8,1s-1.69,1.85-3.12,2.27L103,109Zm1.8,3c.12-.48-.27-.51-.62-.41l-.15,0-.31,1.26.15,0A1.36,1.36,0,0,0,106.11,106.59Zm.45-2.15c.12-.47-.34-.43-.57-.37l-.12,0-.29,1.16.14,0A1.32,1.32,0,0,0,106.56,104.43Z"/><path class="cls-9" d="M96.49,105.92l-.31.84c-.42,1.19-1,2.43-1,2.43a13.69,13.69,0,0,1,.14-2.93l-1.72.51a25.86,25.86,0,0,1-1.42,3.3,18,18,0,0,1,.16-2.19l.11-.78-1.81.53a14.84,14.84,0,0,0,.15,4.94l1.52-.45c.55-1.06,1.26-2.57,1.52-3.13,0,.11,0,.18,0,.18,0,.44,0,1.61.09,2.48l1.52-.45a34.1,34.1,0,0,0,2.84-5.82Z"/><path class="cls-9" d="M107.72,107.62l1.87-.55a11.35,11.35,0,0,1,.44-1.17l1.36-.4c0,.33,0,.69-.08,1.07l1.84-.54.07-.77a8.4,8.4,0,0,0-.79-4l-1.33.39C108.23,105.55,107.72,107.62,107.72,107.62Zm2.77-2.79c.34-.73.64-1.26.75-1.44l0,0a8.64,8.64,0,0,1,.12,1.22Z"/><path class="cls-9" d="M102,104.29l-.64,2.55,0,.14-1.22-2.14-1.47.43-1.34,5.38,1.66-.48.67-2.69,1.22,2.14,1.45-.42,1.33-5.38Z"/><path class="cls-6" d="M149.65,91.76l-10.5,17.1,3.06-12.29c.58-2.3-1.32-2.24-2.15-1.93a7.71,7.71,0,0,0-4.4,3.26l-8.86,15.58,3-11.82c.64-2.43-.57-3.49-3.28-2.63l-7.93,2.52-.47,3.43,6.19-2-4.85,19.54,2.34-.74a9.89,9.89,0,0,0,4.71-3.5l9.09-15.74-3.94,16.11,2.4-.76a8.51,8.51,0,0,0,4.19-3.34l15-24.05Z"/><path class="cls-6" d="M119.34,126.47l-29.19,35.2-2.84.91c-9,2.88-38.64,11.28-38.64,25,0,5.72,7.75,4.5,12,3.13,12.09-3.87,23.71-15.89,32.49-26.48L106.53,160l-5.63,13.57L112,170l19.94-47.58ZM65.25,184.36c-2.06.66-3.2.19-3.3-1.2-.21-2.09,1.75-4.35,2.94-5.62,4.91-5.2,14.46-8.83,20.51-10.77l.93-.3C81.17,172.54,72.12,182.16,65.25,184.36Zm42.93-28.46-11,3.51L116.66,136Z"/></svg>