<svg id="Layer_1" data-name="Layer 1" xmlns="http://www.w3.org/2000/svg" viewBox="0 0 410 300"><defs><style>.cls-1,.cls-3{fill:#92278f;}.cls-2{fill:#5b7f21;}.cls-3,.cls-4,.cls-5{fill-rule:evenodd;}.cls-4{fill:#f15a29;}.cls-5{fill:#fbb040;}</style></defs><title>identities</title><path class="cls-1" d="M105.75,91.59h-.05L98.89,108.4,92.1,91.59H92l-3.34,16.16H87.52l4.2-20.18,7.17,17.77,7.2-17.77,4.2,20.18h-1.19Z"/><path class="cls-1" d="M146.72,98A10.13,10.13,0,1,1,136.6,88,10.17,10.17,0,0,1,146.72,98Zm-19,0a8.88,8.88,0,1,0,8.88-8.86A8.94,8.94,0,0,0,127.71,98Z"/><path class="cls-1" d="M174.44,107.75H173l-6.37-9.25H166v9.25h-1.24V88.23h2.43a7.18,7.18,0,0,1,4.45,1,4.9,4.9,0,0,1,2,4.2c0,3.39-2.36,5.15-5.59,5.1ZM167.6,97.34a4.87,4.87,0,0,0,3.42-.91,3.91,3.91,0,0,0,1.37-3.08,3.73,3.73,0,0,0-2.07-3.52,8.35,8.35,0,0,0-3.5-.44H166v8Z"/><path class="cls-1" d="M192.44,88.23H196c2.85,0,5.1.47,7.25,2.46a10.1,10.1,0,0,1,.1,14.48c-2.15,2.07-4.45,2.59-7.36,2.59h-3.52Zm3.5,18.36a8.58,8.58,0,0,0,6.55-2.36,8.83,8.83,0,0,0-.23-12.72,8.67,8.67,0,0,0-6.32-2.12h-2.25v17.2Z"/><path class="cls-1" d="M225.6,89.39v7.1h7.87v1.17H225.6v8.94h8.08v1.17h-9.32V88.23h9.32v1.17Z"/><path class="cls-1" d="M268,92.21a8.91,8.91,0,0,0-6.55-3.08,9.07,9.07,0,0,0-8.88,9,8.5,8.5,0,0,0,2.62,6,9.48,9.48,0,0,0,6.27,2.69,9.29,9.29,0,0,0,6.55-3v1.71A10.05,10.05,0,1,1,261.55,88,9.69,9.69,0,0,1,268,90.51Z"/><path class="cls-1" d="M288.59,101.33,286,107.75H284.7l8.18-20.18L301,107.75h-1.27l-2.62-6.42Zm4.3-10.59-3.83,9.43h7.64Z"/><path class="cls-1" d="M319.54,107.75H318.3V88.23h1.24Z"/><path class="cls-2" d="M62.83,189.08l-1.31,3.22h-.64L65,182.2l4.08,10.1h-.64l-1.31-3.22Zm2.15-5.3-1.92,4.72h3.82Z"/><path class="cls-2" d="M75.47,192.3h-.62V183.1H72.32v-.58H78v.58H75.47Z"/><path class="cls-2" d="M91.44,182.52h1.76a4.83,4.83,0,0,1,3.63,1.23,5.06,5.06,0,0,1,.05,7.25,4.81,4.81,0,0,1-3.68,1.3H91.44Zm1.75,9.19a4.3,4.3,0,0,0,3.28-1.18,4.42,4.42,0,0,0-.12-6.37,4.34,4.34,0,0,0-3.16-1.06H92.07v8.61Z"/><path class="cls-2" d="M104.67,183.1v3.55h3.94v.58h-3.94v4.47h4v.58H104v-9.78h4.67v.58Z"/><path class="cls-2" d="M123.6,192.62l-8.21-8.73v8.4h-.62v-9.91l8.21,8.66v-8.53h.62Z"/><path class="cls-2" d="M132.39,190.87h0l2.89-8.35h.62l-3.55,10.1-3.51-10.1h.62Z"/><path class="cls-2" d="M141.81,183.1v3.55h3.94v.58h-3.94v4.47h4v.58h-4.67v-9.78h4.67v.58Z"/><path class="cls-2" d="M156.75,192.3H156l-3.19-4.63h-.31v4.63h-.62v-9.78h1.22a3.59,3.59,0,0,1,2.23.49,2.62,2.62,0,0,1-1.82,4.65Zm-3.42-5.21a2.44,2.44,0,0,0,1.71-.45,2,2,0,0,0,.69-1.54,1.87,1.87,0,0,0-1-1.76,4.19,4.19,0,0,0-1.75-.22h-.4v4Z"/><path class="cls-2" d="M170.55,192.3v-9.78h2a2.82,2.82,0,0,1,2,.57,2.56,2.56,0,0,1,.82,2,2.12,2.12,0,0,1-1.13,2,2.46,2.46,0,0,1,2,2.46,2.58,2.58,0,0,1-.91,2,3.22,3.22,0,0,1-2.28.7Zm.62-5.34h1.08a2.65,2.65,0,0,0,1.75-.36,1.72,1.72,0,0,0,.73-1.57,1.84,1.84,0,0,0-.8-1.61,3.07,3.07,0,0,0-1.67-.31h-1.08Zm0,4.76h1.49a3.42,3.42,0,0,0,2-.38,2.06,2.06,0,0,0,1-1.74,1.92,1.92,0,0,0-1-1.75,4.84,4.84,0,0,0-2.06-.31h-1.37Z"/><path class="cls-2" d="M191.58,187.41a5.07,5.07,0,1,1-5.07-5A5.09,5.09,0,0,1,191.58,187.41Zm-9.52,0a4.45,4.45,0,1,0,4.45-4.43A4.48,4.48,0,0,0,182.07,187.41Z"/><path class="cls-2" d="M199.43,192.3h-.62V183.1h-2.53v-.58H202v.58h-2.53Z"/><path class="cls-2" d="M207.16,189.08l-1.31,3.22h-.64l4.1-10.1,4.08,10.1h-.64l-1.31-3.22Zm2.15-5.3-1.92,4.72h3.82Z"/><path class="cls-2" d="M227.49,192.62l-8.21-8.73v8.4h-.62v-9.91l8.21,8.66v-8.53h.62Z"/><path class="cls-2" d="M234.36,192.3h-.62v-9.78h.62Z"/><path class="cls-2" d="M248.37,184.52a4.46,4.46,0,0,0-3.28-1.54,4.54,4.54,0,0,0-4.45,4.5,4.25,4.25,0,0,0,1.31,3,4.74,4.74,0,0,0,3.14,1.35,4.65,4.65,0,0,0,3.28-1.49v.86a5,5,0,1,1-3.24-8.82,4.85,4.85,0,0,1,3.24,1.27Z"/><path class="cls-2" d="M271.53,187.38a4.65,4.65,0,0,1-1,3.45,4.83,4.83,0,0,1-3.62,1.63,5.06,5.06,0,1,1,4.2-8l-.79.74a4,4,0,0,0-3.36-1.84,4.06,4.06,0,0,0-4,4.08,3.94,3.94,0,0,0,1.14,2.76,4.11,4.11,0,0,0,2.77,1.24,3.35,3.35,0,0,0,3.49-3.06h-2.9v-1Z"/><path class="cls-2" d="M278.68,189.52l-1.18,2.77h-1.19l4.51-10.24,4.39,10.24H284l-1.15-2.77Zm2.11-4.93-1.67,3.92h3.31Z"/><path class="cls-2" d="M291.52,192.3h-1.09v-9.78h1.41c1.85,0,3.58.49,3.58,2.7a2.55,2.55,0,0,1-2.45,2.7l3.11,4.38h-1.34l-3-4.29h-.27Zm0-5.25h.34c1.23,0,2.48-.23,2.48-1.75s-1.18-1.76-2.49-1.76h-.32Z"/><path class="cls-2" d="M301.6,182.52h1.84a5.33,5.33,0,0,1,3.81,1.18,5,5,0,0,1,0,7.36,5.2,5.2,0,0,1-3.86,1.23H301.6Zm1.88,8.76a4.1,4.1,0,0,0,3.09-1,4,4,0,0,0-.05-5.8,4.2,4.2,0,0,0-3-.95h-.79v7.75Z"/><path class="cls-2" d="M314.54,182.52h5.07v1h-4v2.9h3.86v1h-3.86v3.84h4v1h-5.07Z"/><path class="cls-2" d="M325.68,182.11l7.62,8v-7.57h1.09v10.22l-7.62-8v7.53h-1.09Z"/><path class="cls-2" d="M345,184.43a1.79,1.79,0,0,0-1.69-1.06,1.55,1.55,0,0,0-1.62,1.52c0,.84.87,1.23,1.53,1.53l.65.29c1.27.56,2.35,1.19,2.35,2.75a3.09,3.09,0,0,1-6.12.49l1.06-.3a2,2,0,0,0,2,1.82,2,2,0,0,0,2-1.91c0-1.14-.89-1.53-1.8-1.94l-.6-.26c-1.14-.52-2.13-1.1-2.13-2.5a2.57,2.57,0,0,1,2.74-2.49,2.8,2.8,0,0,1,2.53,1.52Z"/><path class="cls-3" d="M115.81,158.5v-.2a1.11,1.11,0,0,0-.38-.82c0-.06,0-.13,0-.2,0-1.36-.33-2.75-.32-4.25a8.49,8.49,0,0,1,.12-1.38l.06-.33-.17-.29c-.13-.22-.29-.46-.51-.76a48.7,48.7,0,0,1-.38-5.75c0-1.47,0-2.58,0-3.29,0-.05,0-.11,0-.16.56-.11.64-.26.75-.22h1l.06-.85c0-.65.12-.77.14-1.18a1.7,1.7,0,0,0-1-1.6,3.57,3.57,0,0,0-.76-.23l-.28-.77-.24.1c0-.06,0-.14,0-.22a69,69,0,0,1-.51-7.86c0-.52,0-.92,0-1.15,0-.06,0-.09,0-.13h.06a3.52,3.52,0,0,0,.26-.46l.12-.09v-.13a.5.5,0,0,1,.58-.29c.19-.21.19-.6.32-.86a.7.7,0,0,0,.54.11,1.13,1.13,0,0,1,0-.75c-.19-.06-.45-.06-.54-.22-.19-.51.11-.52.21-1-.82-.45-.35-1.93-1-2.14.06.05-1.36-.19-1.29-.86.11-.25.37-.35.32-.75-.19-.09-.27-.3-.65-.22-.2.22-.12.73-.32,1-.4,0-.23-.49-.43-.64-.11.33-.1-.31-.32-.22-.07.36-.41.45-.54.75A2.79,2.79,0,0,0,108,121.8c-.49-.16-.84,0-.86.54,0,.31.46.19.43.53-.08,0-.13.09-.11.22-.15,0-.2-.15-.43-.11s-.07.51-.22.64a.3.3,0,0,0,.29.16,2.13,2.13,0,0,0-.24.83.4.4,0,0,0,.19.35,1.5,1.5,0,0,1-.24.48,3.46,3.46,0,0,1,.92.44,11.19,11.19,0,0,0,.8,1l0,.12.11.05c.16.16.32.31.48.44a76.46,76.46,0,0,1,.58,9.08,4,4,0,0,0-1,.25l0-.07-.68.09a3.54,3.54,0,0,0-1.3.4c-2.58,1.08-3.89,1.47-3.89,1.48l-.12,0-.1.06a15.54,15.54,0,0,0-4.85,4.33l0,0,0,0c-.63,1.23-1,2-1.23,2.46a8.83,8.83,0,0,0-.94,2.74v.11c0,1,0,1.55,0,1.9a7.53,7.53,0,0,0,.05,1.05v.05l0,.06a19.44,19.44,0,0,0,1,3.16l0,0,0,0a8.17,8.17,0,0,0,7.19,3.74,11.33,11.33,0,0,0,7.21-2.48,7,7,0,0,1,.15,1.48c0,.19,0,.38,0,.57a4.84,4.84,0,0,0-2.15,3,.43.43,0,0,0,.27.41c1.43,2.18,2.68,3.22,3.84,3.22,1.59,0,3.35-2.13,3.39-3.58l.28-.32-.92-2.29Zm-5.93-5.22c-.59.69-2.89,1.46-5.16,1.42-3.38,0-5.22-2.32-5.28-5.65a9.57,9.57,0,0,1,6.3-8.34h1l.15-.05a3.31,3.31,0,0,1,1.12-.22,1.29,1.29,0,0,1,.45.07l.16.07h.47v.1l.5.26.29.12c.25,3.25.41,6,.41,8.32S110.21,153.05,109.88,153.28Zm62.56-14.11a6.47,6.47,0,0,0-5.3-2.27,16.35,16.35,0,0,0-2.59.24l-.47.07-.15.3,0,0-.12.09c-.25,0-.41.09-.67.11l-.26,0-.21.16a5.05,5.05,0,0,1-2.77.68h0a1.41,1.41,0,0,0-.61.18c.08-.23.18-.54.26-.89a.5.5,0,0,0,.34.06.83.83,0,0,1,0-.54l-.24-.07a5.48,5.48,0,0,0,.06-.7,2.74,2.74,0,0,0-.16-1.08l-.07-.17-.13-.14a1.25,1.25,0,0,0-.88-.4h0c-.22-.1-.42-.25-.39-.47s.27-.25.23-.54c-.14-.07-.2-.22-.47-.16s-.09.53-.23.7-.16-.36-.31-.47c-.08.24-.07-.22-.23-.15-.05.26-.3.32-.39.54a2,2,0,0,0-2.09,1.16c-.36-.12-.61,0-.62.39,0,.22.33.13.31.39-.06,0-.09.07-.08.16s-.15-.11-.31-.08,0,.37-.16.46c.15.25.39,0,.47.23-.22.3-.23.8-.47,1.09a2.55,2.55,0,0,1,.28.12c0,.06,0,.11,0,.17a2.8,2.8,0,0,0,0,.42v.45l.35.27h0c.28.37.66,2.59.63,6a60.57,60.57,0,0,1-.42,7.7,18.1,18.1,0,0,1-.33,1.9c0,.13-.06.23-.09.3a2,2,0,0,0-.55,1.43,1.41,1.41,0,0,0,.55,1.12,1.64,1.64,0,0,0,.66.3,3.29,3.29,0,0,0,.32.3,1.44,1.44,0,0,0,.92.35h.39l.24-.17.29-.18.1,0,.8.27.28-.65a1.81,1.81,0,0,0,.88-.77,3.19,3.19,0,0,0,.4-1.66c0-.25,0-.47,0-.79a3.53,3.53,0,0,0-.33-1.14,3.35,3.35,0,0,1-.22-1.22v-1.06c0-1.32.09-4,.35-7.92a2.9,2.9,0,0,0,.85-.62l.17-.19,0-.26a3,3,0,0,1,1.51-1.22,8.92,8.92,0,0,1,3.79-.85A4.07,4.07,0,0,1,169,141.9a6.9,6.9,0,0,1,1.15,4.42,26.13,26.13,0,0,1-.9,6.8c-.15.57-.32,1.08-.47,1.52h-.1c-1.61,0-3.58,2.39-3.58,3.54a.43.43,0,0,0,.27.42c1.43,2.18,2.68,3.22,3.84,3.22a3.12,3.12,0,0,0,2-1,2.51,2.51,0,0,0,1-1.25,3.07,3.07,0,0,0,.42-1.38,1.89,1.89,0,0,0-.22-.92,45.88,45.88,0,0,0,1.86-11.76A9.9,9.9,0,0,0,172.45,139.17Zm-103.78-3-.1,0H68.1c-.75,0-1.35.1-1.39.09a10.3,10.3,0,0,0-4.54,1.33c-.62.32-1.16.63-1.57.85a5.29,5.29,0,0,1-.48.24h0a1.59,1.59,0,0,1-.1-.28,26.74,26.74,0,0,1-.24-5.16c0-2.81.09-4.47.09-5.09,0-1.69-.09-2.9-.09-3.37s0-.78,0-1.16A4.16,4.16,0,0,0,61.19,121c0-1.1-.6-1.52-1.52-2a1.72,1.72,0,0,0-1.09-.63,10.43,10.43,0,0,1-1.24-.87h-.09c-1.61,0-3.58,2.39-3.58,3.54a.43.43,0,0,0,.27.42,14,14,0,0,0,1.3,1.71,14.74,14.74,0,0,1,.29,2.26c.13,1.79.19,4.3.19,7.51,0,2,0,4.11,0,6.53A4.46,4.46,0,0,0,54.61,142a2.13,2.13,0,0,0,.84,1.77c0,.35,0,.68,0,1,0,1.71.14,3.21.14,4.44a11.66,11.66,0,0,1-.66,4.15,8.74,8.74,0,0,1-.45,1,2,2,0,0,0-.32.92,1.57,1.57,0,0,0,.07.47,2.06,2.06,0,0,0-.07.59,1.65,1.65,0,0,0,1,1.54,4.56,4.56,0,0,0,1.44.31,1.94,1.94,0,0,0,1.06.49l.3,0,.27-.15c.59-.35.8-.58,1.24-.63l.31,0,.22-.22.13-.12a1.1,1.1,0,0,0,.32-.76,1.77,1.77,0,0,0-.23-.92l-.05-.08a3.58,3.58,0,0,0,.1-.53,1.46,1.46,0,0,0-.09-.58c-.11-.37-.2-.67-.25-.89s0-.21-.06-.26v-.23a22.75,22.75,0,0,1-.26-3.82c0-1.37.09-3.62.26-6.63l0-.13.55.18.29-.87c0-.13.07-.24.1-.33.47-.24.69-.37.7-.33h.56l.25-.51c.05-.1.09-.12.13-.13h0l0,0a9.83,9.83,0,0,1,3.54-1c2,0,3.33,1.45,3.39,4.22v1.57a29.5,29.5,0,0,1-1.76,9.75,10.84,10.84,0,0,1-.61,1.45,2.74,2.74,0,0,0-.41,1.15,1.52,1.52,0,0,0,.55,1.14,3.38,3.38,0,0,0,.9.55,1.38,1.38,0,0,0,.75.24c.58,0,.69-.16.79-.14h.42a2.73,2.73,0,0,0,2.33-1.59l.15-.28-.05-.31c-.15-.76-.39-1.21-.36-1.37V156c.4-2.3,1.48-5.23,1.48-9.37h0c0-3.61-.1-5.77-.76-7.1A5.6,5.6,0,0,0,68.67,136.18Zm14.05,18.47a36.79,36.79,0,0,1-.3-5.09c0-4.4.6-8.35.69-11.91v-.12c-.07-.61-.08-1-.17-1.45a1.52,1.52,0,0,0-.36-.74,1.26,1.26,0,0,0-.93-.39,1.45,1.45,0,0,0-.68.14l-1.25.54a5,5,0,0,0-1.38.63,1.92,1.92,0,0,0-.75,1.6,3.78,3.78,0,0,0,.49,1.93c.11.2.21.35.24.41v0c0,.16,0,.7,0,1.38,0,2.63.18,5.36.18,8.18,0,2.28,0,4-.15,5a7.18,7.18,0,0,0-.77,3.22v.19l.06.18a2.13,2.13,0,0,0,2,1.38c.65,0,.89-.21,1.06-.18h.28l.14,0c.73-.24,1.28-.42,1.69-.59a3.69,3.69,0,0,0,.56-.28,1.09,1.09,0,0,0,.55-.93v-.39l-.16-.16A6.6,6.6,0,0,0,82.72,154.65Zm1-26.59a.35.35,0,0,0-.17-.15s-.05,0-.15,0l-.85-.42a.4.4,0,0,1-.11-.31c.1-.22.32-.3.28-.65-.16-.08-.24-.26-.56-.19-.16.18-.12.56-.25.78l-.25-.16,0,0c0-.12,0-.25-.11-.31-.09.29-.09-.27-.28-.18a.67.67,0,0,1-.24.37,3.06,3.06,0,0,0-1.4.44,2.28,2.28,0,0,0-1.21,1l-.17.22c-.39-.11-.67,0-.68.47,0,.16.14.19.25.25a2.33,2.33,0,0,0-.09.34.33.33,0,0,0-.25,0c-.13.12-.06.44-.19.56.13.21.29.12.42.14a1.15,1.15,0,0,0,.1.22c-.21.37-.25.9-.52,1.22a4.12,4.12,0,0,1,2,1.58,6.68,6.68,0,0,1,1.48.19c-.2.19,0,.3.09.47.35,0,.44-.18.65-.28.15.25.22.58.65.56,0-.15,0-.32.19-.28-.28-.56.18-.93.74-.93.25-.35.36-1,.83-.84a1.73,1.73,0,0,0,.22-.6l.09-.13a.61.61,0,0,0,.43.08,1,1,0,0,1,0-.65l-.1,0a2.44,2.44,0,0,0,.22-.9h0A2.07,2.07,0,0,0,83.77,128.06Zm49.59,13.55a2.24,2.24,0,0,0,.44-1.21v-.47l-.07-.17a2.52,2.52,0,0,0-.93-1.14l-.23-.15h-.28a4.57,4.57,0,0,0-1.54.3,9,9,0,0,0-6.18,3.84c0-.41,0-.84,0-1.29,0-2.69.69-3,.79-4.49v-.39l0-.11,0-.05a1.53,1.53,0,0,0-.37-.84l0-.12-.13-.08c-.62-.53-1.69-.87-2.91-1.88h-.08c-1.46,0-3.25,2.17-3.25,3.21a.39.39,0,0,0,.24.38,12,12,0,0,0,1.37,1.76c.06.46.14,1,.22,1.83.18,1.83.36,4.56.37,8.35,0,1.71-.14,3.47-.14,5.32,0,.83-.69,2-.74,3.56v.73l.6.22a5.21,5.21,0,0,0,1.79.29c.28,0,.69,0,1.28-.05l.33,0,.47-.47a1.59,1.59,0,0,0,.91-.54,2.07,2.07,0,0,0,.42-1.35v-.48l-.17-.24a7.35,7.35,0,0,1-.84-3.53h0l.18-.18.06-.25a2.72,2.72,0,0,0,.07-.68,5.23,5.23,0,0,0-.06-.72c0-.09,0-.16,0-.21s0,0,0,0a3.81,3.81,0,0,1,.31-1.11l.06-.16v-.62a4.35,4.35,0,0,0,.72-1.69,9.58,9.58,0,0,1,1.79-2.62,4.65,4.65,0,0,1,1.53-.76,3.78,3.78,0,0,1,1.29.57l.21.12h1.18l.27-.27a3,3,0,0,0,.84-1.51A2.83,2.83,0,0,1,133.36,141.61ZM184,139.19a5.34,5.34,0,0,1,2.63-.54c1.39,2.08,2.61,3.07,3.74,3.07,1.61,0,3.4-2.18,3.4-3.64,0-1.26-.78-1.63-1.95-2.28a1.86,1.86,0,0,0-.24-.3l-.36-.37-.36.09a10.06,10.06,0,0,1-.94-.68h-.09a3,3,0,0,0-1.75.76c-2.72.09-4.81.51-6.38,1.56-1.8,1.21-2.61,3.28-2.59,5.89v.13l0,.12a9.38,9.38,0,0,0,.46,1.18,8.23,8.23,0,0,0,2.12,2.21l.07.07.09,0a3.66,3.66,0,0,0,1.16.42,20,20,0,0,1,5,2,2.57,2.57,0,0,1,1.31,2.35,5.82,5.82,0,0,1-1,2.91,5,5,0,0,1-3.28,1.39c0-.06,0-.13,0-.19a2.21,2.21,0,0,0-.09-.64,1.68,1.68,0,0,0,.07-.17s0-.1,0-.14.06-.07.07-.11a2.5,2.5,0,0,0-.31-1.2,7.63,7.63,0,0,0-.66-.85,1.44,1.44,0,0,0-.49-.59c-.39-.07-.8-.3-1.22-.08.26.46.76.69.85,1.25a2.49,2.49,0,0,1-.13.28,11.85,11.85,0,0,1-1.92-1.27h-.09a2.81,2.81,0,0,0-1.55.61.62.62,0,0,0,0-.11c0-.06,0-.15-.09-.18s-.12-.12-.18-.17a.4.4,0,0,0-.36.15,1.1,1.1,0,0,0-.21.66.4.4,0,0,0,.19.18,4.22,4.22,0,0,0-1.4,2.4.43.43,0,0,0,.27.41,13.09,13.09,0,0,0,1.55,2,3.28,3.28,0,0,0,3.15,1.6h.06a5.7,5.7,0,0,0,2-.34c.51,0,1-.08,1.51-.08h.14c4.63-.76,7.11-5.08,7.11-8.9a6.06,6.06,0,0,0-1.92-4.34c-.09-.14-.19-.19-.25-.26a7.23,7.23,0,0,0-1.93-1,29.65,29.65,0,0,0-3.78-1.14,5.34,5.34,0,0,1-2.08-.91,1.24,1.24,0,0,1-.5-1,1.47,1.47,0,0,1,0-.33A2.62,2.62,0,0,1,184,139.19ZM317.88,142a2.27,2.27,0,0,0,.44-1.21v-.47l-.07-.17a2.5,2.5,0,0,0-.93-1.14l-.23-.16h-.28a4.61,4.61,0,0,0-1.53.31,9,9,0,0,0-6.18,3.84c0-.41,0-.84,0-1.29a9.92,9.92,0,0,1,.14-1.8,3.57,3.57,0,0,0,.29-1.12,5.65,5.65,0,0,0,.35-1.57v-.39l0-.11a4.34,4.34,0,0,0-.32-.72l-.12-.29-.27-.16a2.93,2.93,0,0,0-1-.34c-1.13-.52-2.28.56-4.66,1l-.06.07c-1.11,1.22-.77,4.26,0,5a.41.41,0,0,0,.48.07c.35,0,.69.08,1,.1.17,1.82.32,4.4.32,7.86,0,1.71-.14,3.47-.14,5.32,0,.84-.69,2-.74,3.56v.73l.6.22a5.16,5.16,0,0,0,1.79.29c.28,0,.69,0,1.28,0l.33,0,.47-.47a1.6,1.6,0,0,0,.91-.54,2.08,2.08,0,0,0,.42-1.35v-.48l-.17-.24a7.36,7.36,0,0,1-.84-3.53h0l.18-.18.06-.25a2.63,2.63,0,0,0,.08-.68,5,5,0,0,0-.05-.72l0-.21s0,0,0,0a3.76,3.76,0,0,1,.31-1.11l.06-.16v-.62a4.38,4.38,0,0,0,.72-1.69,9.46,9.46,0,0,1,1.79-2.62,4.76,4.76,0,0,1,1.53-.76,3.89,3.89,0,0,1,1.29.57l.21.12h1.18l.27-.27a3,3,0,0,0,.85-1.51A2.67,2.67,0,0,1,317.88,142Zm-17.12,2.74a12.24,12.24,0,0,0-1.89-7.18,6.41,6.41,0,0,0-5.4-2.67,24.08,24.08,0,0,0-3.2.2,6,6,0,0,0-2.31.6,2.64,2.64,0,0,0-1.22.37l-.66.14-.06.07c-1.11,1.22-.77,4.26,0,5a.41.41,0,0,0,.48.07c2.54.33,4.15.06,5-.82a3,3,0,0,0,.67-1.71h.36a2.2,2.2,0,0,0,.6.29c2.6,1,3.53,2.14,3.59,4.58a5.64,5.64,0,0,1-.09,1,1.66,1.66,0,0,1-.87.35,17.5,17.5,0,0,0-2.27.49,18.4,18.4,0,0,0-7.92,5.15,4.27,4.27,0,0,0-1.25,3.11v.09a3.5,3.5,0,0,0,0,.65,7.64,7.64,0,0,0,.05,1v.08a3.23,3.23,0,0,0,1.31,2,6.62,6.62,0,0,0,4.86,1.7,7.69,7.69,0,0,0,2.89-.53c1.51-.54,2.62-1,2.71-1l.56-.06a5.36,5.36,0,0,1,0,.74l-.26.34-.06.08,0,.09a5.72,5.72,0,0,0-.61,2.54,4.57,4.57,0,0,0,.23,1.37l.2.65h.81s0,0,.17.07a1.86,1.86,0,0,0,.85.26c1.12-.08,1.89-.79,3-1.88l.27-.27v-.38c0-.41,0-.74,0-1s0-.67,0-1.11v-.12l0-.11a12.57,12.57,0,0,1-.48-3.1c0-.18,0-.33,0-.47a1.4,1.4,0,0,0,.22-.78c0-.31-.09-1.21-.09-3.05a22.87,22.87,0,0,1,.21-4.21h0v0a2.27,2.27,0,0,0,.74-1.14l0-.09V146a1.27,1.27,0,0,0-.45-1A1.62,1.62,0,0,0,300.75,144.75Zm-5,8.78-.18.24v.3l-.64.56a8.1,8.1,0,0,1-2.94,1,4.86,4.86,0,0,1-2.62-.72,2.86,2.86,0,0,1-1.22-1.53,2.71,2.71,0,0,1,0-.4c0-.92.67-1.95,2.79-3.15h.65l.26-.22a6.33,6.33,0,0,1,3.76-1.12,1.34,1.34,0,0,1,.89.27,4.55,4.55,0,0,1,.51,1.91A5.16,5.16,0,0,1,295.73,153.52Zm5.27-6.14,0,0-.89-.18.9.16Zm-148.94-3.79a2,2,0,0,0-.18-.68,3.25,3.25,0,0,1-.15-.71c-.21-2.19-.79-4-2.6-5a5.5,5.5,0,0,0-3.3-1.06,13.85,13.85,0,0,0-3.33.49,4.56,4.56,0,0,0-.58.24c-.14,0-.3,0-.53,0a2.2,2.2,0,0,0-1.31.44c-.3.21-.49.38-.72.51-2.67,1.61-4.59,3.38-5.48,5.9a14.21,14.21,0,0,0-1.45,6.22,6.8,6.8,0,0,0,.49,3,6.91,6.91,0,0,0,1.5,3c1.75,2.4,4.91,3.13,9.71,4a3.82,3.82,0,0,0,1.51.22h1.2c.6,0,1.13,0,1.43,0h0l.24.06.11,0h.11a3.37,3.37,0,0,0,3-3.55,3.62,3.62,0,0,0-.36-1.48l-.27-.62-.67.08a3.85,3.85,0,0,0-1.64.63l-.38.24h-1.56a17.92,17.92,0,0,1-2.55.22,8.84,8.84,0,0,1-4.63-1.21c-.43-.38-.91-.65-1.61-1.19l-.07-.05-.07,0c-.56-.26-1-1-1.26-2.92v-.06l0-.05a5.09,5.09,0,0,1-.2-1.33,5.34,5.34,0,0,1,.13-1.1,1.8,1.8,0,0,0,.41-.54,2.26,2.26,0,0,0,.58-.18,14.44,14.44,0,0,1,2.93-.28c.51,0,1.28.09,2.22.09,1.21,0,2.12-.3,2.45-.28s1.09.18,1.94.19a4.43,4.43,0,0,0,.68-.05l.16.16.34,0c.13,0,.13,0,.14,0l.08.06a1,1,0,0,0,.64.23,1.19,1.19,0,0,0,.76-.33h0a2.87,2.87,0,0,0,1.06-.16,1.25,1.25,0,0,0,.81-1,2.26,2.26,0,0,0,.33-1.26,1.5,1.5,0,0,0-.11-.62A1.2,1.2,0,0,0,152.07,143.59Zm-4.65-.42h0a1.69,1.69,0,0,1-.5.06l-7.89.28h-.78a14,14,0,0,1,2.8-3,5.1,5.1,0,0,0,1.24-.68l.88-.22.26-.05h.07c.32,0,.8.08,1.36.09,1.45.4,2,.77,2.28,1.27l0,0,0,0a3.66,3.66,0,0,1,.31,1.62v.2l0,.07A2.21,2.21,0,0,1,147.42,143.17ZM367,139.24h0Zm-8.05,4.29a2,2,0,0,0-.17-.68,3.29,3.29,0,0,1-.15-.71c-.2-2.19-.78-4-2.6-5a5.51,5.51,0,0,0-3.3-1.06,13.67,13.67,0,0,0-3.33.49,4.46,4.46,0,0,0-.58.24c-.14,0-.3,0-.53,0a2.22,2.22,0,0,0-1.31.44,7.65,7.65,0,0,1-.72.51c-2.67,1.62-4.59,3.39-5.48,5.91a14.23,14.23,0,0,0-1.45,6.21,10.45,10.45,0,0,0,2,5.92c1.75,2.4,4.91,3.13,9.71,4a3.81,3.81,0,0,0,1.51.22h1.2c.6,0,1.14,0,1.44,0h0l.24.06.11,0h.11a3.37,3.37,0,0,0,3-3.55,3.72,3.72,0,0,0-.35-1.48l-.28-.62-.67.09a3.81,3.81,0,0,0-1.64.63l-.38.24h-1.56a18,18,0,0,1-2.55.22,8.86,8.86,0,0,1-4.64-1.22c-.43-.38-.91-.65-1.61-1.19l-.07-.05-.08,0c-.56-.26-1-1-1.26-2.92V150a4.89,4.89,0,0,1-.2-1.33,5.43,5.43,0,0,1,.12-1.1,1.78,1.78,0,0,0,.41-.54,2.26,2.26,0,0,0,.58-.18,14.2,14.2,0,0,1,2.93-.28c.51,0,1.28.09,2.22.09,1.21,0,2.12-.3,2.45-.28s1.09.17,1.94.18a4.11,4.11,0,0,0,.68,0l.16.16.34,0c.13,0,.13,0,.15,0l.08.06a1,1,0,0,0,.64.24,1.2,1.2,0,0,0,.76-.33h0a2.87,2.87,0,0,0,1.06-.16,1.24,1.24,0,0,0,.81-1,2.27,2.27,0,0,0,.33-1.26,1.52,1.52,0,0,0-.11-.62A1.22,1.22,0,0,0,358.92,143.53Zm-4.65-.42h0a1.57,1.57,0,0,1-.5.06l-7.9.28h-.79a14.05,14.05,0,0,1,2.79-3,5.16,5.16,0,0,0,1.25-.68l.89-.22.26-.05h.08c.32,0,.8.08,1.36.09,1.45.4,2,.78,2.28,1.27l0,0,0,0a3.66,3.66,0,0,1,.31,1.61v.2l0,.07A2.51,2.51,0,0,1,354.27,143.11ZM178,135.57v0a62.93,62.93,0,0,1,3.08-5.93l0-.07,0-.08a1.84,1.84,0,0,0,.09-.61,1.25,1.25,0,0,0-.3-.85,1.18,1.18,0,0,0-.89-.38h-.13a3.85,3.85,0,0,0-1.48.18,2.34,2.34,0,0,0-1.18,1.28l-.11-.07c-.13,0-.22,0-.36,0a.41.41,0,0,0-.11.38.62.62,0,0,0,.29.31l0,.07c-.4,1-1,2.48-2,4.89a2.52,2.52,0,0,0-.22.93A1.3,1.3,0,0,0,176,137a2.28,2.28,0,0,0,1.91-1.4Zm99.55-5.23h.23l.4.16a3.82,3.82,0,0,0,.75,2.38.39.39,0,0,0,.44.07c2.34.38,3.81.17,4.52-.61a3,3,0,0,0,.56-2.16s0-.08,0-.12a3.18,3.18,0,0,0-1.18-2.86l-.22-.13h-.29a63.9,63.9,0,0,0-6.53-1,11.34,11.34,0,0,0-2-.19c-.28,0-.78,0-1.45.05h-.07c-6,.91-10,2.29-13.86,6.63l-.24.26v.41h0l-.78.11v.82s0,.11-.07.21l-.23.24a12.43,12.43,0,0,0-1.76,3.87,20,20,0,0,0-.95,5.61c-.05,6.7,3.3,9.69,6.61,12.11a15.6,15.6,0,0,0,8.1,3.32l.41.34.24.18h.4a1.64,1.64,0,0,0,.75-.18,9.38,9.38,0,0,0,2.58.32c1.13,0,2-.14,2.31-.14h.51l.27-.27.28-.27c.82-.08,1.36-.12,1.44-.11l.32,0a1.87,1.87,0,0,1,.48.27l.3.25.39,0a1.84,1.84,0,0,0,1.52-1.12,14.33,14.33,0,0,0,.48-1.43l.31-.35.34-.34-.08-.47a32,32,0,0,1-.59-4.74,29.49,29.49,0,0,1,.36-4.9c.09-.52.18-.91.24-1.2a3.73,3.73,0,0,0,.14-.75,1.34,1.34,0,0,0-.49-1,1.53,1.53,0,0,0-1-.34H281l-.09.09-.52.09-1.74,0h-.08l-.25,0c-.95-.11-1.71-.31-2.19-.31-1.72,0-3,0-4-.08l-.11-.13c0-.08,0-.17,0-.2l-.09.06-.09-.11a1.47,1.47,0,0,0,.08-.62c-.2-.07-.35,0-.52.08,0-.12.13-.07.1-.18a.17.17,0,0,1-.09-.09c-.17,0-.32.14-.55,0a2.7,2.7,0,0,0,0-.42c-.08-.06-.11,0-.2-.07-.07.15,0,.26,0,.4-.07,0,0-.12-.1-.15s-.15.16-.25.19c-.3-.13,0-.42-.25-.56-.16.31,0,.36-.12.63-.18.09-.24,0-.44-.06-.2.13-.24.28-.06.43-.17.16-.36-.06-.47-.17-.15.06-.12.18-.23.25.13.19.33,0,.55.17l-.79.29a.45.45,0,0,0-.11-.33c-.09,0-.16.06-.24.1.31-.42-.34-.36-.32-.6-.19,0-.27.33-.47.25.1-.17.16-.32-.05-.41a3.59,3.59,0,0,0-.11-1.14c-.08.55.12,1.16-.54,1.38.05-.07-.12-.09-.16-.14a.37.37,0,0,1-.26.13c0-.15-.09-.08-.19-.15-.09.14.1.21,0,.35-.1-.08-.14.07-.25,0-.11.13,0,.21-.09.33-.25-.08-.21-.32-.41-.19.12.12.28.24.24.41a.4.4,0,0,0-.33.09c.3.32-.5.59-.23.9.26,0,.72.2.46.59-.12-.08-.14-.15-.28-.16s.05.19,0,.29c.52.2.35.59.08.94-.36-.22-.63-.11-1-.21,0,.4.35.24.64.27.05.1.2.17.11.3-.15,0-.25.27-.24.43s.29,0,.3.13c-.22,0-.52.21-.71,0-.08.09-.16.16-.23.25.22.11.35,0,.53.06s.42.3.58.38c-.2.18-.35.32-.16.52s.18-.15.28-.17c.3.28-.05.73,0,1.19.18,0,.36-.24.39-.44.1.06.28.07.26.2s-.16.16-.23.25a.52.52,0,0,0,.17.37c.15-.11.14-.16.26-.37.16.07.25-.09.42,0,0,0,0,.07,0,.11a.59.59,0,0,1-.33.33c.21.24,0,.6.23.84.06,0,.2-.07.37,0,0,.3.32.83.59.28,0-.12-.29-.14-.26-.19a1.92,1.92,0,0,0,.16-1,.39.39,0,0,0,.33,0,.26.26,0,0,0,.16.14c0,.09-.09.2,0,.27.25.22.3.76.51,1.09.11-.16.08-.28.2-.45a3.15,3.15,0,0,1-.31-1.11c.25,0,.25.27.4.46.1,0,.08-.12.12-.21,0,.07.1.11.2.16.21-.25-.19-.33,0-.58.11.18.25.1.37,0,.29.2.31.47.39.73.12-.15.09.12.16,0-.11-.12.21-.28.11-.45a.7.7,0,0,1-.35-.49l.18,0c.11.09.17.22.31.26a.5.5,0,0,0,0-.31,3,3,0,0,0,1.73-.85,2.31,2.31,0,0,0,.2-.3c.53-.09,1.06-.16,1.59-.2a.36.36,0,0,0,0,.13c.09.09.12-.06.22,0s0,.07,0,.09a1.05,1.05,0,0,0,.15-.26l.59,0c1.14,0,2.06,0,2.82.06a20.57,20.57,0,0,1,.22,2.78c0,1.27,0,2.28,0,3.14v.32a12.66,12.66,0,0,1-.2,2.07l-.37,0a3.89,3.89,0,0,0-1,.16,1.55,1.55,0,0,0-.86-.21H275l-.24.18,0,0a1.42,1.42,0,0,1-.3-.12l-.56-.28-.65.59c-3.3-.5-5.38-1.13-5.74-1.5a2.27,2.27,0,0,0-1-.6c-5.07-2.22-7.56-6.14-7.57-10.35a16.27,16.27,0,0,1,3-8.75,4.07,4.07,0,0,1,1.42-1.53H264l.27-.31a1.91,1.91,0,0,1,.76-.59l.09,0,.08-.05a10,10,0,0,0,1.51-1.07,24.52,24.52,0,0,1,6.36-1.18C274.26,129.72,275.83,130.31,277.5,130.34ZM267.09,148.8c-.07,0-.09-.19-.18-.1s0-.11,0-.16.12,0,.2.06S267.12,148.67,267.09,148.8ZM337,156.22a3.6,3.6,0,0,0,0-.41,16.85,16.85,0,0,0-.33-2.42s0,0,0-.1a8,8,0,0,1,.13-1.24l.05-.33-.17-.29c-.13-.21-.29-.46-.5-.76a48.89,48.89,0,0,1-.38-5.75c0-1.47,0-2.58,0-3.29v-.15c.56-.11.64-.26.74-.23h1l.07-.85c0-.65.11-.77.14-1.17a1.7,1.7,0,0,0-1-1.6,3.38,3.38,0,0,0-.75-.23l-.28-.77-.24.1c0-.06,0-.14,0-.22a67.83,67.83,0,0,1-.51-7.86c0-.52-.05-.92,0-1.16,0-.44,0-.35.1-.43l0,0,.33.12-.29-.15.29-.22,0-.43a4.5,4.5,0,0,1,.19-1.06,4,4,0,0,0,.22-1,1.74,1.74,0,0,0,0-.3,1.1,1.1,0,0,0-.29-.57l-.08-.09-.1-.06c-.59-.3-.92-.87-2-1l-.12,0a.62.62,0,0,1,0-.11c-.05-.06-.18,0-.29,0a.55.55,0,0,1-.11.22l-.15,0a3.28,3.28,0,0,0-.53-.35,4.67,4.67,0,0,1,.08-.7c0-.07-.14-.07-.21-.12s0,.26-.08.29c.06-.17-.08-.15-.12-.21s.11-.15,0-.29c-.28,0-.2.41-.49.25a.86.86,0,0,0-.12.25c.14,0,.11.16.17.25-.16,0-.22.17-.37.21a1.09,1.09,0,0,1,0-.94c-.17-.3-.57-.23-.76.11.21.09,0,.11.27.22-.15,0,0,.32-.16.33a.37.37,0,0,0-.41.12c-.31-.14-.06-.6-.41-.7.19-.06.22-.14.18-.3-.24.17-.57,0-.78-.12-.15.27.42.13.15.42,0,.12.2.05.16.2a.29.29,0,0,0-.25.29c.2.05.09.16.2.29.18,0,.26,0,.29.16a.59.59,0,0,1-.9-.58c-.24,0-.33-.22-.45-.37-.05.17-.16,0-.25,0a.6.6,0,0,0-.08.37c.2.08.16.17.2.37s.18,0,.21,0c.26.26,0,.67.08.86-.15.1-.31-.09-.45-.12.06-.1.09-.08,0-.21s-.15,0-.25,0c0,.2-.16.14-.16.29s.06.29,0,.37c.28,0,.56-.07.66.17a.77.77,0,0,1-1,0,1.6,1.6,0,0,1-.45,0c0,.13,0,.11,0,.2s.12.07.16.12-.15.17-.16.33.2.13.25.25c.25-.14.64-.21.7.25-.06,0-.07.07-.12.08-.36,0-.93-.48-1.11,0,.36.25,1.06.13,1.23.66-.23.14-.27.47-.49.62a3.71,3.71,0,0,0-.53.12c0,.15.16.11.16.25a5.51,5.51,0,0,1,.78-.2c0,.31-.38.28-.58.41a.39.39,0,0,0,.25.33c.11,0,0-.22.08-.2s.23-.11.41-.08.34.16.37.37-.17.07-.25.12,0,.09,0,.17.24-.05.25,0a.2.2,0,0,0,0,.12c-.17.09-.28.24-.53.25,0,.11.13.12.21.17s.51-.46.7-.17c-.09.13-.1.1-.25.12a1.07,1.07,0,0,1,.08.33h.25c0-.16,0-.26.12-.29.32-.05.33.22.53.29,0,.4-.38.45-.41.82.4,0,.29-.59.66-.66-.06-.18,0-.2.17-.25.28.18.08.59,0,.82.2-.05.07.23.25.21s0-.52.2-.7c.5,0,.16.44.12.7.12.08.13.07.29,0a1.2,1.2,0,0,1,.08-.7c.08-.07.05,0,.16,0,0,.32,0,.56,0,.9a.34.34,0,0,0,.1-.07,74.3,74.3,0,0,1,.45,7.92,4,4,0,0,0-1,.25l0-.07-.68.09a3.59,3.59,0,0,0-1.29.4c-2.58,1.09-3.89,1.47-3.9,1.48l-.12,0-.1.06a15.52,15.52,0,0,0-4.85,4.34l0,0,0,0c-.64,1.23-1,2-1.24,2.47a8.8,8.8,0,0,0-.94,2.73v.11c0,1,0,1.54,0,1.9a7,7,0,0,0,.06,1.05v0l0,.06a19.57,19.57,0,0,0,1,3.16v0l0,0a8.16,8.16,0,0,0,7.19,3.73,11.45,11.45,0,0,0,7.36-2.59c0,.67,0,1.32,0,1.92a2.07,2.07,0,0,0-.23.79.4.4,0,0,0,.1.27c0,.09,0,.18-.09.28l-.11.28.07.29a2,2,0,0,0,.65,1.19l.06,0,.17.35h.57s0,0,.23.12l.23.16h.57a2.75,2.75,0,0,0,1.65.66c1.61,0,3.4-2.19,3.4-3.64S338.66,157.32,337,156.22Zm-5.52-2.55c-.58.68-2.89,1.45-5.16,1.42-3.38,0-5.22-2.32-5.28-5.65h0a9.56,9.56,0,0,1,6.3-8.34h1l.15-.06a3.26,3.26,0,0,1,1.12-.22,1.31,1.31,0,0,1,.45.07l.16.07h.47v.1l.5.26.29.12c.25,3.25.41,6,.41,8.31S331.77,153.45,331.45,153.68Zm-280,1.12a4.39,4.39,0,0,0-.49-.61,1.44,1.44,0,0,0-.49-.6c-.39-.07-.8-.29-1.22-.07a1.71,1.71,0,0,0,.19.25,4.63,4.63,0,0,0-2.54,1.86c-.3,0-.53,0-.67,0-5,0-10-1.91-12.52-4.57a11.21,11.21,0,0,1-3.54-8.15c0-4.21,1.7-7.84,5.4-11.76H36l.27-.27a.66.66,0,0,1,.51-.24h.38l.33-.33a5.35,5.35,0,0,0,2.3-.84l.66-.08.24,0h0c.87,0,1.67-.14,2.54-.14a3.53,3.53,0,0,1,.8.11l.07,0h.08a4.78,4.78,0,0,1,.55.08,1.8,1.8,0,0,1-.29.64,4.15,4.15,0,0,1,2,1.58,6.76,6.76,0,0,1,1.49.19c-.2.19,0,.3.09.46.35,0,.44-.18.65-.28.15.25.22.58.65.56,0-.15,0-.32.19-.28-.28-.56.18-.93.74-.93a3.85,3.85,0,0,0,.25-.45,2.51,2.51,0,0,0,.32-.37.37.37,0,0,1,.27,0c.16-.18.16-.52.28-.74a.61.61,0,0,0,.46.09,1,1,0,0,1,0-.65,1.87,1.87,0,0,1-.36-.12c.13-.43.25-.92.36-1.47l0-.23-.07-.22a2.39,2.39,0,0,0-1.92-1.42l-.26-.05a.35.35,0,0,1,0-.11c.1-.22.32-.3.28-.65-.16-.08-.24-.26-.56-.19s-.11.64-.28.84c-.35,0-.19-.42-.37-.56-.09.29-.09-.27-.28-.19-.06.3-.33.39-.45.63l-1.33-.09a10.9,10.9,0,0,0-2.21-.28,11.14,11.14,0,0,0-3.8.61c-.69,0-1.24.09-1.68.14a3.83,3.83,0,0,0-1.17.27l-.51.25v.24c-.32.16-1.05.49-1.91.95A18,18,0,0,0,31,130.93a12.42,12.42,0,0,0-2.21,2.76l0,0-.49,1.12c-1.77,3.54-2.71,6.56-2.71,9.15A13.6,13.6,0,0,0,29,153.4c2.38,2.87,6.52,5.1,11.57,5.93A60.15,60.15,0,0,0,49,160.49h0a2.46,2.46,0,0,0,1.27.4,2.25,2.25,0,0,0,.91-.23,1.65,1.65,0,0,0,.52-.23,1.16,1.16,0,0,0,.27-.24,4.34,4.34,0,0,0,1.71-2.94C53.65,155.88,52.74,155.57,51.4,154.8Zm123.84-24.37c0-.06,0-.15-.09-.18s-.12-.12-.18-.17a.41.41,0,0,0-.36.15c-.1.15-.26.5-.2.66C174.74,131.44,175.22,130.73,175.24,130.43Zm-1.09,1.89c-.07.06-.08.14-.11.22.11.33.43.21.45,0A.25.25,0,0,0,174.15,132.32Zm2-2.57c0-.07,0-.21-.12-.26a.33.33,0,0,0-.56.15C175.54,130.13,176.19,130.2,176.2,129.75Zm-1.14,1.31a.19.19,0,0,0,0,.26C175.37,131.38,175.28,130.93,175.06,131.06Zm-2.14-1.34a.48.48,0,0,0-.27.5A.49.49,0,0,0,172.92,129.71Zm3.33.72c.25,0,.17-.45-.07-.39S176.1,130.39,176.25,130.44Zm-.48.13a.27.27,0,0,0,.27.14c.05,0,.05-.06.1-.09C176.18,130.3,175.74,130.28,175.77,130.56ZM173.89,133a.21.21,0,0,0,.08.29C174.22,133.3,174.14,132.84,173.89,133Zm1.14.22c.2,0,.19-.42,0-.51S174.88,133.06,175,133.23Zm.67-6.16a.12.12,0,0,0,0,.16C175.7,127.19,175.69,127.13,175.69,127.07Zm4.25,24.53c0,.5.67.56.68.11,0-.07,0-.21-.12-.26A.33.33,0,0,0,179.94,151.6Zm.13-2.4s0-.1,0-.17A.12.12,0,0,0,180.07,149.19Zm-3,3a.49.49,0,0,0,.26-.5A.48.48,0,0,0,177.08,152.18Zm4.33-.43a3.13,3.13,0,0,1,.82,0,.39.39,0,0,0,.16-.15c0-.56-.6-.4-.86-.63-.12,0-.22,0-.36,0a.42.42,0,0,0-.11.38A.64.64,0,0,0,181.41,151.75Zm4.8,3s-.09,0,0,.09S186.22,154.81,186.21,154.77ZM43.8,154.06a.49.49,0,0,0,.26-.51A.48.48,0,0,0,43.8,154.06Zm2.87-.58c0,.5.67.56.68.11,0-.07,0-.21-.12-.26A.32.32,0,0,0,46.66,153.48Zm.13-2.41c.05,0,0-.1,0-.16A.12.12,0,0,0,46.79,151.08Zm1.1,1.83a.41.41,0,0,0-.11.38.63.63,0,0,0,.35.35,3.18,3.18,0,0,1,.82,0,.38.38,0,0,0,.16-.14c0-.56-.6-.4-.86-.63C48.13,152.9,48,152.82,47.89,152.9Zm-1.6,1.2c0-.12-.12-.12-.18-.17a.4.4,0,0,0-.36.15,1.09,1.09,0,0,0-.21.66c.33.56.81-.16.84-.46C46.34,154.22,46.36,154.13,46.29,154.1Zm1.1.18c.25,0,.17-.45-.07-.39S47.25,154.24,47.39,154.28Zm-.11.18c0-.32-.4-.33-.37,0a.27.27,0,0,0,.27.14C47.24,154.53,47.24,154.49,47.29,154.46Zm-1.08.44a.19.19,0,0,0,0,.26C46.51,155.22,46.43,154.77,46.2,154.9Zm52.71,12.75a.32.32,0,0,0,.3.3C99.22,167.74,99,167.76,98.91,167.65Zm-.65-.65a2.75,2.75,0,0,0,.59.65C98.79,167.36,98.23,167,98.26,167Zm.53-.41c.38.22.65.85,1,.89C99.48,167.2,99.14,166.63,98.79,166.58Zm-2.25-10.92c0,.14-.3.37-.18.48C96.39,156,96.64,155.75,96.54,155.67Zm.36,7.89c.14-.58,1-.45,1.48-.89-.11-.24-.56-.28-.83-.18,0-.18-.11-.4.06-.47s.31.09.48.12a.75.75,0,0,0,.36-.48c-.25-.12-.3-.07-.65-.06,0-.25-.3-.25-.3-.54.08,0,.06-.1.12-.12a.85.85,0,0,1,.65.18c.16-.44.74-.45.89-.89,0-.1-.23-.21-.24-.48.37-.22.82-1-.06-.95-.15.09,0,.47-.06.48a2.81,2.81,0,0,0-1.42.53.57.57,0,0,0-.24-.41.39.39,0,0,0,.06-.3c.13,0,.32,0,.35-.18.1-.48.74-.92,1-1.42-.28,0-.41.11-.71.06a4.59,4.59,0,0,1-1.19,1.19c-.17-.33.16-.51.3-.83-.11-.11-.22,0-.36,0a.49.49,0,0,0,.06-.36c-.46-.09-.28.47-.77.36.16-.26,0-.39-.24-.47,0-.51.38-.73.65-1-.27,0,.09-.2-.06-.24-.08.23-.5-.06-.65.18a1.08,1.08,0,0,1-.47.89c-.2-.36.14-.58.06-.89-.69.1-.6,1-1.53.83,0-.12.07-.24.11-.36l.09-.3c.17.07.35-.05.31-.36a.34.34,0,0,0-.35.19l-.13-.24A11.67,11.67,0,0,1,93,155a2.93,2.93,0,0,1-.06-.33l.18-.06c0-.31-.13-.44-.26-.48s0-.26,0-.4a3.08,3.08,0,0,0-.25-1,1.3,1.3,0,0,0,0-.41,2.11,2.11,0,0,0,0-.36c0-.06,0-.06,0-.06,0-3.83.09-7.16.09-10,0-3.8,0-6.77,0-8.83,0-3.88.09-6,.09-6.48,0-1.16-.09-2-.09-2.59,0-.1,0-.17,0-.26a4.39,4.39,0,0,0,1.86-3c0-1.87-1.7-1.77-3.84-3.54h-.09c-1.61,0-3.58,2.39-3.58,3.54a.43.43,0,0,0,.27.41c.17.27.35.51.52.75,0,.15,0,.31,0,.47v.28l.15.23v0a5.18,5.18,0,0,0-.07.86,5.24,5.24,0,0,0,.28,1.68v.73c0,1.73.19,3.31.19,4.67,0,1.16-.18,2.36-.19,3.61,0,1.56.23,3.28.28,5.19,0,.58,0,1.1,0,1.51,0,.86,0,1.51,0,1.76v4.62a50.35,50.35,0,0,1-.3,6.28,5.42,5.42,0,0,0-.3,1.25v0l0,.74v.12h-.37v1A1.68,1.68,0,0,0,88,158a1.67,1.67,0,0,1-.61.24c-.09,0,0-.29-.18-.24s-.21.3-.35.41c0-.22-.48-.12-.48.06s.23,0,.18.24a1.87,1.87,0,0,0-1,.35c.06.3.31.4.48.59-.19,0-.18-.11-.3,0a.29.29,0,0,1-.06.18c.16.19.41.3.36.71a3.92,3.92,0,0,0-.53.3c0,.14.11.13.06.3.24,0,.31-.2.53-.24,0,.12-.16.08-.12.24s.32.08.42.18c.05.47-.53.3-.54.71.51,0,.49-.21.89-.3.24.17.19.29.24.59.31.16.52.1.59-.24.33.09.18.5.12.71.19.14.31,0,.47.12.15-.31-.25-.41-.18-.83.34-.17.73.06.95.06,0,.16-.15.21-.18.36.13.07.33.07.36.24-.16.19-.46.25-.53.53.05.12.19.17.3.24-.75-.09-.21.68-.54.83.1.26.61.11.65.42-.29,0-.53,0-.48.35a5.23,5.23,0,0,0-1.36,1c.76-.3,1.38-1,2.13-.3-.13,0,0,.21-.06.3a.54.54,0,0,1,.36.24c-.22.05,0,.17-.06.36.24,0,.2-.28.42-.3,0,.19.18.13.12.36.25,0,.28-.12.48-.12.07.37-.26.5.06.65.07-.24.1-.53.35-.59.09.15.16.32.36.36.19-.61,1.11.21,1.3-.36-.15-.35-.25-1.05.41-1,0,.21-.09.29,0,.47.21,0,.2-.2.36-.24-.12-.81.5-.86,1.13-.77,0,.61.31.88.41,1.37.49-.31.06-.61-.12-1,.08-.14.06-.37.3-.36.08.21.52.12.71,0,0-.16-.23-.36-.06-.47.2.26.64.51.53.89.17,0,.31.09.48.12,0-.36-.26-.44-.3-.71s.08-.75.06-1c.37.12.65.21.77-.18C97.28,163.6,97,163.68,96.9,163.56Zm.71-3.26c0,.11-.17.25,0,.3,0,.08-.15,0-.24.06,0-.17-.08-.15-.06-.3S97.42,160.36,97.61,160.3ZM90.55,169c.1.26-.33.46-.12.83a10.08,10.08,0,0,0,1.07-2.49C91.15,167.78,90.94,168.7,90.55,169Zm4.09.59a.78.78,0,0,0-.77-.06c-.09.47.48.59.83.42C94.56,169.78,94.6,169.68,94.64,169.55Zm-3.32,1.07c.2-.1.27-.64.24-.77C91.47,170.09,91.42,170.38,91.32,170.62ZM93.63,166c0,.31-.12.4,0,.59C93.73,166.52,93.73,165.85,93.63,166Zm6.94-2.25s0-.07-.06,0c.2.16-.1.23-.12.24s0,.17.12.18.37.19.59,0c.07-.28-.26-.34,0-.47C100.94,163.53,100.76,163.73,100.57,163.74Zm-5.69-11.63c0-.17-.14-.22-.24-.3-.1.08,0,.34-.12.42C94.73,152.34,94.72,152.18,94.88,152.11Zm-9.73,8.37c0,.12-.16.07-.12.24h.18C85.21,160.56,85.32,160.53,85.15,160.47Zm8.9-5.4c.47,0,.65-.28.71-.71a1.73,1.73,0,0,0-1-.12c.14.19.05.35.06.65C94,154.85,93.89,155.09,94,155.08Zm-9.85,9.79a.93.93,0,0,0,.48.12c.05-.11.17-.15.12-.36A.4.4,0,0,0,84.2,164.86Zm5.1,6.65c0,.18.18.3.3.18S89.47,171.5,89.3,171.51Zm12.1-.59c0,.24.22.26.3.41C101.69,171.1,101.53,171,101.4,170.91Zm-1.48-6.05a.51.51,0,0,0,.06.36c.32,0,.37-.1.3-.36Zm-12.75,3.38c.23,0,.23-.13.3-.24C87.33,167.88,87.13,168,87.17,168.25Zm15.54-3.15c.23,0,.44.47.59.18C103.07,165.29,102.87,165,102.71,165.1Zm169.9-17.68a1,1,0,0,0-.17-.19c0,.2-.18.07-.26.13a2.65,2.65,0,0,0-.2.68C272.53,148.3,272.4,147.71,272.61,147.42ZM265,144.5c-.19-.1-.19-.21-.35-.2C264.67,144.37,265.07,144.6,265,144.5Zm9,3.42c.1,0,0-.24.18-.23a1.32,1.32,0,0,1,.31.36.55.55,0,0,0-.18-.85c-.2.16-.22.49-.45.21a.43.43,0,0,0,0,.44C274,147.71,274,147.89,274,147.92Zm-1,1.76c-.14.09,0,.13,0,.25s.18,0,.26,0S273,149.77,273,149.68Zm-1.55-1.25c-.18.27-.05.49.19.67a1.2,1.2,0,0,0,.41-.56c-.16,0-.23-.09-.41-.18C271.58,148.49,271.47,148.34,271.42,148.44Zm1.43-.46c.11.06.12.3.23.18-.07-.08.15-.24.09-.33A.23.23,0,0,0,272.85,148ZM262,147.7c.27-.1.73-.11.87-.3C262.67,147.54,262.19,147.5,262,147.7Zm1.36-5.74c-.12-.14-.27-.26-.38-.4C263,141.7,263.32,141.93,263.41,142Zm-.23-1.91c-.11-.06-.24,0-.21.12S263.13,140.15,263.18,140Zm.27,8.82.12-.21c-.09-.05-.17-.1-.23-.09C263.22,148.75,263.28,148.82,263.45,148.86Zm.83-7.21c-.19,0-.17-.35-.46-.35a7,7,0,0,0,1.13,1.48C264.79,142.4,264.31,142,264.29,141.65Zm1.61-1.53c.12,0,.1-.2,0-.26C265.75,140,265.85,140,265.9,140.12Zm-2.1,9.13s-.24.16-.2.35.29,0,.29.16c.15,0,.08-.22.14-.34s.06,0,0,0-.11-.14-.1-.15S263.84,149.2,263.8,149.25Zm4.85-9.77c0,.07,0,.15.17.19a.27.27,0,0,0,.06-.44C268.8,139.3,268.71,139.34,268.65,139.47Zm2.38,1.76c.09.05.07.13.16,0-.07,0,0-.12-.1-.15Zm-8.19,2.22c-.25-.21-.51.09-.53.36.12,0,.17,0,.23.08A.54.54,0,0,0,262.85,143.46Zm7.16,6c.08.07.14.3.23.27S270.11,149.42,270,149.46Zm-.24,3.33c-.07.16.09.25.11.39,0-.12,0-.08.1-.18C269.91,152.93,269.88,152.85,269.76,152.8Zm.94-1.25c-.07,0-.05-.09-.12-.12S270.67,151.69,270.7,151.54Zm-8.21-1.3c-.08.14-.43.1-.31.3C262.25,150.39,262.52,150.38,262.49,150.24Zm.36-3.31a1.89,1.89,0,0,0-.59.13C262.46,147.13,262.87,146.92,262.86,146.93Zm-.89.25c.12.08.18-.06.28-.08A.22.22,0,0,0,262,147.18Zm70.85-26.12c0-.21.17,0,.29-.16a.86.86,0,0,1,0-.54c-.21-.13-.37-.07-.66-.12-.09.27-.26.4-.12.7A4.08,4.08,0,0,0,332.81,121.06ZM327,122.47c.14-.51-.49-.4-.58-.16.11.14.18.18.25.29C326.78,122.52,327,122.55,327,122.47Zm6.7-.57a1.23,1.23,0,0,0,.25-.58c-.14,0-.15-.19-.29-.21,0,.15-.14.19-.29.21C333.49,121.54,333.48,121.85,333.74,121.89Zm-7.36-.54c-.14-.05-.08-.12-.12-.2-.17.08-.19-.19-.29,0C326.13,121.14,326.19,121.49,326.38,121.36Zm8.45-.55c-.08,0-.05-.11-.17-.08s-.08.11-.12.17C334.66,121,334.74,120.9,334.83,120.81Zm1,.92c0-.09-.18,0-.16-.12H336c0-.07.05-.24.16-.12,0-.24-.19-.25-.25-.41-.32,0-.42.28-.29.53h-.2c0,.11-.17.26,0,.37S335.84,122,335.84,121.73Zm-8.43,7.12c0-.14,0-.29.17-.21.07-.42.64-.51.49-.82,0,0-.06,0-.12,0a1.59,1.59,0,0,1-.74.7c.12,0,0,.13,0,.21S327.25,128.91,327.4,128.85Zm1.36.74a.44.44,0,0,0-.2-.49c0,.09-.1.09-.21.08,0,.21-.13.2,0,.41A.9.9,0,0,0,328.76,129.59ZM326,123c-.12,0-.27-.19-.37-.08C325.71,122.89,326,123.06,326,123Zm-2-.7c-.19,0-.37-.23-.54-.12C323.59,122.16,323.81,122.35,324,122.26Zm-208.78-2c.25,0,0,.29-.21.22a3.54,3.54,0,0,1,.21.86,1.62,1.62,0,0,0,1.93-.64C116.51,120.55,115.9,119.69,115.17,120.3Zm265.14,39c-.19-.51.1-.52.21-1-.66-.36-.5-1.38-.72-1.88a39.6,39.6,0,0,0,1.5-10.31,9.93,9.93,0,0,0-1.77-6.32,6.47,6.47,0,0,0-5.29-2.27,16.51,16.51,0,0,0-2.59.24l-.46.07-.15.3,0,0-.13.09c-.25,0-.41.09-.67.12l-.26,0-.21.16a5,5,0,0,1-2.77.68l-.17,0a4.33,4.33,0,0,0-.68-4.15c-1.33-1.22-2.43.14-5.18.62l-.06.07c-1.11,1.22-.77,4.26,0,5a.41.41,0,0,0,.48.07l.26,0a26,26,0,0,1,.39,5.3,61.62,61.62,0,0,1-.42,7.7,18.12,18.12,0,0,1-.33,1.9c0,.12-.06.23-.08.29a2.05,2.05,0,0,0-.55,1.44,1.41,1.41,0,0,0,.55,1.12,1.63,1.63,0,0,0,.65.3,3.41,3.41,0,0,0,.32.3,1.46,1.46,0,0,0,.92.35h.39l.24-.17.29-.19.09,0,.8.27.28-.65a1.79,1.79,0,0,0,.88-.76,3.18,3.18,0,0,0,.4-1.66c0-.25,0-.47,0-.79a3.54,3.54,0,0,0-.33-1.15,3.35,3.35,0,0,1-.22-1.21v-1.06c0-1.32.09-4,.35-7.92a3,3,0,0,0,.85-.62l.18-.19,0-.25a3,3,0,0,1,1.51-1.22,8.87,8.87,0,0,1,3.79-.85,4.06,4.06,0,0,1,3.39,1.33,6.92,6.92,0,0,1,1.15,4.41,26.2,26.2,0,0,1-.91,6.8c-.14.54-.3,1-.45,1.45a2.78,2.78,0,0,0-2.09,1.06,6.26,6.26,0,0,0-.5.51c-.39-.07-.66.08-.68.57a.22.22,0,0,0,.12.19,4.14,4.14,0,0,0-.3.58v0a2.1,2.1,0,0,0-.13.49h0s0,.11,0,.15a.43.43,0,0,0,.27.41l.17.25a3,3,0,0,1-.42,1,4.78,4.78,0,0,1,2.36,1.82,7.6,7.6,0,0,1,1.72.21c-.23.22,0,.35.11.54.41,0,.5-.21.75-.32.17.29.26.67.75.64,0-.17,0-.37.22-.32-.33-.65.21-1.07.86-1.07.29-.4.42-1.11,1-1,.18-.21.18-.6.32-.86a.69.69,0,0,0,.54.11,1.15,1.15,0,0,1,0-.75C380.65,159.42,380.4,159.42,380.31,159.27Z"/><path class="cls-4" d="M225.47,169.69a2.66,2.66,0,0,0-.39-1.09c-.16-.27-.17-.7-.35-1.13a2.65,2.65,0,0,1-.2-1.43,3.22,3.22,0,0,0-.48-1.55c-.19-.5-.6-.82-.7-1.16s.29-.78.5-1.15a1.19,1.19,0,0,0-.24-1.18,3,3,0,0,1-.4-.94.74.74,0,0,0-.85-.56c-.57,0-.51.51-.74.78a1.69,1.69,0,0,0-.4,1c0,.25-.32.77-.22,1.05a1.22,1.22,0,0,0,.89.6c.37.06.59.18.46.34s-.44.42-.48.74-.22.39-.47.49a1,1,0,0,0-.62.86,1.51,1.51,0,0,0,.1.73l-.13,0c-.05.08-.15.08-.19.19a.3.3,0,0,0,.11.27.47.47,0,0,0,.36,0l0,0,.11.27a3.48,3.48,0,0,1,0,1.8,3.12,3.12,0,0,0,.13,1.19,1,1,0,0,0-.09.12.58.58,0,0,0-.26,0c0-.09-.16-.15-.21,0a.12.12,0,0,0,.06.1.3.3,0,0,0-.05.16c0,.13.25.08.23.23a.07.07,0,0,0-.06.09c-.08,0-.11-.07-.23,0s0,.22-.12.28c.11.15.29,0,.35.14-.16.18-.17.49-.35.66a2.6,2.6,0,0,1,1.28.8,5.16,5.16,0,0,1,.93.09c-.13.1,0,.15.06.24.21,0,.27-.08.39-.13h0c.09.13.14.29.4.27,0-.07,0-.16.12-.14a.27.27,0,0,1,0-.16,1.38,1.38,0,0,0,.76-.54,1.61,1.61,0,0,0,.09-.18.29.29,0,0,1,.18,0c.1-.09.1-.26.17-.38a.45.45,0,0,0,.29,0,.41.41,0,0,1,0-.33A.69.69,0,0,1,225,171a.71.71,0,0,1,.08-.11A1.55,1.55,0,0,0,225.47,169.69Zm12.11-8.92a.27.27,0,0,1,.1-.4c.14-.07.32.05.47.16a.27.27,0,0,0,.42,0c.15-.16,0-.57-.11-.82a1.6,1.6,0,0,0-.63-.6,4.47,4.47,0,0,0-.51-.17c-.17-.08-.27-.35-.43-.5a1,1,0,0,0-.73-.2.57.57,0,0,0-.3.51c0,.18.15.46.25.45s.23,0,.26.12-.1.11-.2.22a.87.87,0,0,0-.26.64.83.83,0,0,0,.39.75c.16.12.09.14.19.44s.32.27.63.3a.91.91,0,0,0,.83-.4C238.17,161,237.69,160.91,237.59,160.76Zm10.86-.13a8.54,8.54,0,0,1-1-.24c-.34-.09-.51-.15-.73,0a.68.68,0,0,0-.18.87c0,.19-.12.4,0,.85a.59.59,0,0,0,.94.42c.41-.31.56-.1.7.12s-.19.34-.42.43-.25.16-.28.38.19.47.57.67.64,0,1.08-.51a2.25,2.25,0,0,0,.41-1.79A1.41,1.41,0,0,0,248.45,160.63Zm3.64-5.33c-.14,0-.18-.08-.41,0s-.26.16-.53.2a2,2,0,0,1-.71,0,2,2,0,0,1-.66-.23c-.1-.07-.23.07-.1.19a3.5,3.5,0,0,0,.94.45,1.88,1.88,0,0,0,1,.14,1.23,1.23,0,0,0,.63-.49C252.25,155.37,252.23,155.31,252.09,155.3Zm-45.89,6.06c.14-.29.49-.52.75-.92a2.6,2.6,0,0,1,1.08-1c.54-.28.71-.83,1-1.26s.35-.95.58-1.22.81-.19,1.23-.22.74-.52.85-.85a2.9,2.9,0,0,1,.57-.85.74.74,0,0,0,0-1c-.32-.47-.71-.14-1.06-.18a1.68,1.68,0,0,0-1,.21c-.2.15-.82.17-1,.4a1.23,1.23,0,0,0,0,1.08c.15.34.18.59,0,.57a1.65,1.65,0,0,0-.88,0c-.28.14-.45,0-.68-.12a1,1,0,0,0-1.06,0c-.49.24-.68.71-1,1.17a2.21,2.21,0,0,1-1,.72,1.49,1.49,0,0,0-.33-.14.51.51,0,0,0-.33-.13c-.2.08-.44.1-.61.32.19.13.46.1.58.32a5.81,5.81,0,0,0-1.44,1.55,2.74,2.74,0,0,0-.61,2.05,1.3,1.3,0,0,0,1.26.91c.42,0,.75-.21,1.17-.12a1.57,1.57,0,0,0,1.26-.34A2.66,2.66,0,0,0,206.2,161.36Zm-6.92-22.85a2.11,2.11,0,0,0-.46-.2,3,3,0,0,0-.46-.1c-.11,0-.22-.13-.32-.25s-.36-.17-.45,0,.11.38.29.41a.84.84,0,0,0,.44,0c.13,0,.21,0,.42.09a2.09,2.09,0,0,1,.43.31C199.34,138.86,199.56,138.69,199.28,138.52Zm11.41,25.71a1.52,1.52,0,0,0,1.23-1.07c.16-.6.11-1,.28-1.28s.56-.31.81-.5.54-.14,1-.43.41-.76.6-1.23a2.22,2.22,0,0,0,.1-1.21c0-.24.13-.64-.34-1-.26-.17-.34.13-.4.25s-.24.08-.43,0a1.75,1.75,0,0,0-.77-.3,1.49,1.49,0,0,0-.91.55c-.23.27-.58.51-.76.72s-.16.6-.25,1-.39.48-.87.63-.49.38-1,.68a2.32,2.32,0,0,0-1,1.4c0,.37-.13.3-.42.41s-.29.32-.46.46a3.45,3.45,0,0,0-.67.63,1.17,1.17,0,0,0-.26,1.08c.1.21,0,.38-.14.15s-.34-.11-.43,0a.27.27,0,0,0,.2.43c.18,0,.25-.07.3.19s-.12.26-.28.15-.4,0-.62.15-.23.53.13,1.08a1.93,1.93,0,0,0,1.42.88c.43,0,.73-.32,1-.33a1.77,1.77,0,0,0,1-.06c.47-.21.65-.7,1-1.34a2.83,2.83,0,0,0,.2-1.54C209.95,164.6,210.12,164.34,210.69,164.22Zm-12.62-27.1c.37.17.49.35.54.51a.91.91,0,0,0,.62.5,1.24,1.24,0,0,0,.89,0,1.76,1.76,0,0,0,.57-.49c.07-.09.32-.27.29-.42s-.48-.5-.77-.75a4,4,0,0,0-1.37-.79,2.53,2.53,0,0,0-1.46.13,1,1,0,0,0-.65.82,1.06,1.06,0,0,0,.37.94c.16.08.23.11.33,0S197.7,137,198.07,137.12Zm47.72,21.26c-.29-.14-.53,0-.88-.11s-.37,0-.53-.07-.37-.54-.48-.71-.28-.28-.41-.44-.2-.5-.4-.8a1.06,1.06,0,0,0-.84-.4,3.33,3.33,0,0,1-.7-.17.5.5,0,0,0-.6.46.91.91,0,0,1-.12.51,1.29,1.29,0,0,0,.09.95,1.78,1.78,0,0,0,.51.73c.43.39.63,0,.5-.33s-.32-.22-.48-.34-.08-.29.07-.43.27-.05.52.08.58,0,.77.07.32.32.4.44a.55.55,0,0,0,.43.25c.18,0,.21,0,.46.25s.21.34.44.62a4.27,4.27,0,0,0,.61.56c.13.12.26.26.23.43a.92.92,0,0,0,.11.55c.08.15.22.16.46-.12s.14-.42.27-.61a1.39,1.39,0,0,0,.23-.63C246.52,158.85,246.08,158.52,245.79,158.38ZM238.05,162c-.26.2.08.45.26.36C238.73,162.15,238.31,161.79,238.05,162Zm-2.71-4c-.09.26.3.45.38.15C235.84,157.69,235.39,157.85,235.34,158Zm3.42,3.2c.19-.07,0-.44-.17-.25S238.51,161.3,238.76,161.2Zm1.89,3.77c0-.25-.18-.43-.11-.76s.24-.42.42-.43.65-.07.53-.31a1.61,1.61,0,0,0-.57-.64c-.29-.19-.55-.61-.84-.77s-.52-.21-.65,0,0,.25-.09.48-.16.39-.37.35-.23-.26-.42-.24-.18.2-.17.46a1.61,1.61,0,0,0,.25.82c.21.34.39.36.46.55a.75.75,0,0,0,.59.46c.31,0,.39,0,.45.21s.07.46.3.35S240.66,165.22,240.65,165Zm3.42-5.41c-.26-.07-.35.27,0,.7s.5.44.69.32.14-.34.08-.62S244.33,159.62,244.07,159.56ZM241.65,167c-.15-.06-.29-.14-.33-.25a2.57,2.57,0,0,0-.21-.41,2,2,0,0,0-.3-.39c-.24-.22-.35,0-.22.16s.27.15.41.34.22.25.2.39a.85.85,0,0,0,.11.43c.08.16.3.33.47.17S241.8,167.1,241.65,167Zm.92-2.49a3.51,3.51,0,0,0-.92-.55c-.15,0-.26.3-.33.39a1.77,1.77,0,0,0-.33.68,1.23,1.23,0,0,0,.2.86.91.91,0,0,0,.65.47.84.84,0,0,1,.63.38c.26.31-.06.58-.19.72s-.08.2,0,.33a1.06,1.06,0,0,0,1,.11,1,1,0,0,0,.62-.84,2.55,2.55,0,0,0-.26-1.44A4,4,0,0,0,242.57,164.56ZM252,153.4a3.06,3.06,0,0,0-1.62-.79,3.22,3.22,0,0,1-1.14-.2c-.25-.15-.25-.5-.74-.78l-.32-.15a.55.55,0,0,0-.4-.33.16.16,0,0,0-.15.17l-.42-.08a2.25,2.25,0,0,1-.61-.21s0-.08-.06-.13a.12.12,0,0,0-.12,0,.57.57,0,0,1-.22-.25.9.9,0,0,0-.65-.74,7.2,7.2,0,0,0-1.64-.54c-.64-.12-.87-.21-1.08,0a2.32,2.32,0,0,0-.48.5c0-.32,0-.54-.1-.7a1.52,1.52,0,0,0-.6-.54c0-.26-.25-.36-.48-.43s-.38-.25-.61-.47a1.1,1.1,0,0,1,.81.09,4.18,4.18,0,0,0,1.5.47c.48,0,.72-.21,1-.21s.88.13,1.43.2a5.2,5.2,0,0,0,2.2,0c.72-.24.84-.58,1.14-1a.68.68,0,0,0,.1-.53,1.65,1.65,0,0,0,.06-.39,2.7,2.7,0,0,0-.15-.47.51.51,0,0,0-.12-.33,1.18,1.18,0,0,0-.65-.24c0,.17.13.31.16.47a2.91,2.91,0,0,0-1.44-.44c0-.1-.15-.16-.2-.05s0,0,.06.05l-.49.07s0,0-.08,0a.08.08,0,0,0,0,.06c-.39.08-.78.19-1.06.27a2.09,2.09,0,0,1-1.21.12,1.27,1.27,0,0,0-1.15.11c-.38.24-.51.19-.68.33s-.33.45-.53.41a1.35,1.35,0,0,1-.63-.56c-.13-.22-.22-.52-.52-.41s-.41.24-.6.2-.48,0-.61.54h-.13c-.23,0-.47-.24-.14-.65s.28-.58.23-.74-.21-.31-.18-.48a1.28,1.28,0,0,0-.08-1c0-.08,0-.13-.05-.2,0-.36,0-.66,0-.9a.85.85,0,0,1,.16-.2h0a10,10,0,0,0,1.91-.24,3.59,3.59,0,0,0,.47-.17.8.8,0,0,0,.61.1.66.66,0,0,0,.36-.21.48.48,0,0,0,.22,0,.71.71,0,0,0,.23-.27.31.31,0,0,0,.31-.1.78.78,0,0,1,.51-.34.62.62,0,0,0,.48-.44v0c.25,0,.36.15.5.35a1,1,0,0,0,.52.38.63.63,0,0,1-.25-.06,1.41,1.41,0,0,0-.54-.13c-.19,0-.43,0-.51.2-.17.34.25.65,1.13,1a1.47,1.47,0,0,0,.86.07c.2,0,.48-.1.42-.26s-.19-.19-.1-.37.07-.19.24-.28.47-.4.36-.52a.45.45,0,0,0-.13-.09l.36-.25.13-.07a1.18,1.18,0,0,1,.25,0c-.1.23-.28.46-.06.69.1-.08.21-.19.28-.05a.56.56,0,0,1,1-.1c.36-.05.83-.34,1,0,.2,0,.43-.2.64-.26a.41.41,0,0,0,.16.32,1,1,0,0,1,.44-.37c0-.13-.16-.25-.1-.38.21-.35.35-.2.65-.37-.09-.63,1-1.13.84-1.54a1.1,1.1,0,0,1-.19-.44,1.29,1.29,0,0,0,.16-.5,1,1,0,0,0,0-.13h0c.19-.07.36,0,.57-.21,0-.14.06-.28-.15-.43a1.41,1.41,0,0,0-.49.24,1.2,1.2,0,0,0-.13-.26.36.36,0,0,0,.12-.2c-.24.11.14-.2,0-.27a.93.93,0,0,1-.51.07,1.55,1.55,0,0,0-.23-.12l-.09,0a1.8,1.8,0,0,0-1.92-.51h-.11c-.12-.3-.34-.4-.67-.14-.15.14,0,.28-.09.42l-.1,0a.16.16,0,0,0-.11.06c0-.09,0-.18-.12-.27s-.32.22-.47.21c-.11.27.21.26.09.46l-.06,0a9.74,9.74,0,0,1-1.09.4c0,.06,0,.12,0,.17a2.64,2.64,0,0,1-1.12.35c-.6.06-1,.5-1.41.79a2,2,0,0,0-.35.3.19.19,0,0,0-.21.08.27.27,0,0,0-.06.21,1.57,1.57,0,0,1-.34.31,1.28,1.28,0,0,0-.62-.2,3.32,3.32,0,0,0-.47,0l-.16-.06a.6.6,0,0,0-.17,0,3.84,3.84,0,0,0-.49-.61,1.6,1.6,0,0,1-.44-.7,1.92,1.92,0,0,0,.65-.2c.31-.17.72-.27,1-.39s.37-.5.6-.82.53-.3,1-.27.6-.17,1.18-.27a2.33,2.33,0,0,0,1.46-.93c.14-.34.23-.23.54-.23s.38-.19.59-.26a3.38,3.38,0,0,0,.85-.34A1.17,1.17,0,0,0,249,133c0-.23.17-.34.18-.09l-.08,0c.07.05,0,0,0,.1s.13.06.25.05a.32.32,0,0,0,.21,0,.27.27,0,0,0,0-.47l-.16,0s0,0,0,0,0-.2,0-.25,0,.05.07,0-.05-.06-.06-.11h.06a.19.19,0,0,1,.18.09c.09.13.29.15.5.11,0,0,.06,0,.08,0l0,0,.09,0a.44.44,0,0,0,.29-.37l.07,0-.07,0a1.63,1.63,0,0,0,0-.67,1.88,1.88,0,0,0-.12-.34l0,0-.07-.06a2.09,2.09,0,0,0-.21-.35l.18-.08v-.13l-.25.12a1.75,1.75,0,0,0-.34-.32.17.17,0,0,1,0-.1s-.07,0-.12,0v0l-.08-.05a.86.86,0,0,0-.22,0c0-.08,0-.2,0-.24s-.06,0-.08,0,0,.11,0,.12,0-.06-.05-.08,0-.06,0-.12-.08.17-.2.1a.35.35,0,0,0-.05.1c.06,0,0,.07.07.1s-.09.06-.15.08h0a.44.44,0,0,1,0-.38c-.07-.12-.23-.09-.31,0,.09,0,0,0,.11.09-.06,0,0,.13-.07.13a.15.15,0,0,0-.17.05c-.13-.06,0-.24-.17-.28.08,0,.09-.06.08-.12s-.23,0-.32-.05c-.06.11.17.05.06.17s.08,0,.07.08l-.07,0a1.15,1.15,0,0,0-.33-.07l0-.06c0,.07-.07,0-.1,0l0,0c-.5,0-.85.41-1.44.86a2.8,2.8,0,0,0-.75,1.36c-.12.18-.37.36-.95.25a1.52,1.52,0,0,0-1.54.54c-.37.5-.47.9-.73,1.08s-.64.08-.93.17-.55-.07-1.08,0-.67.56-1,.92a2.25,2.25,0,0,0-.54,1.09c0,.21-.25.46-.14.8a.86.86,0,0,0-.77.69l0,.11a.9.9,0,0,1-.17-.61,1,1,0,0,0-.38-.69,4.68,4.68,0,0,0-.7-.49c-.35-.24-.14-.57-.12-.74a1.55,1.55,0,0,0-.35-.75,1.12,1.12,0,0,1-.21-.39c.22.09.39.11.52.18a1.07,1.07,0,0,0,.59.12c.2,0,.28-.17.41-.31s.23-.17.33-.12.45.25.71,0,.29-.5.45-.57a1.23,1.23,0,0,0,.51-.57c.06-.2.13-.13.26-.12s.28-.08.45-.09a2.67,2.67,0,0,0,.84-.2,3,3,0,0,1,.92-.13,1,1,0,0,0,.54-.37,1.93,1.93,0,0,0,.19-.52,2.76,2.76,0,0,0,1.27-.35,7.53,7.53,0,0,0,1-.9c.32-.34.54-.52.72-.53s.48,0,.59-.3a1.55,1.55,0,0,0,0-1.11c-.17-.26-.29-.76-.82-.76s-.67.17-.86.13-.35-.2-.58-.3a1,1,0,0,0-.65,0,.82.82,0,0,1-.3-.11c-.07,0-.13,0-.21,0a.25.25,0,0,0-.07.23.42.42,0,0,0,.07.1,1,1,0,0,0-.27.28.09.09,0,0,0-.07,0c-.08,0-.07.12,0,.18l0,.05a.11.11,0,0,0-.2.08.16.16,0,0,0,.13.08l-.06.14c-.14.31-.37.43-.48,1l0,.1h0c-.06,0-.06.1,0,.18s-.16.16-.28.2a3.8,3.8,0,0,0-.85.12,2.49,2.49,0,0,0-.82.63,3.23,3.23,0,0,0-.4.72c-.06.12-.3,0-.49,0a5.25,5.25,0,0,0-1.55,0,3.14,3.14,0,0,0-1.46,1,3.46,3.46,0,0,0-.34,1.07c0,.09-.13.1-.33,0a2.57,2.57,0,0,0-.8-.24,2.07,2.07,0,0,0-1.26.55,5.6,5.6,0,0,1-1,.65,1.49,1.49,0,0,0-.71.87c-.11.3-.16.22-.33.29a.78.78,0,0,0-.48.42c-.09.24-.3.1-.41,0s-.24-.22-.44-.35a1.94,1.94,0,0,1,.71-.81,4.37,4.37,0,0,0,1.36-1.64c.21-.46.65-.76.13-1.4a3.63,3.63,0,0,0-2.27-1.3,4.48,4.48,0,0,1-2.16-.34,11.4,11.4,0,0,0-1.91-.7c.15-.12.45-.25.48-.43s.08-.45.23-.42.36.36.45.62.44.53.67.29a.83.83,0,0,1,.67-.28c.27,0,.51-.15.93-.57s.22-.57.14-.72a1.06,1.06,0,0,1-.12-.83,1.73,1.73,0,0,0-.2-1.25c-.18-.2-.51-.29-.77-.56a7.69,7.69,0,0,0-1.1-.79c-.23-.15-.44-.45-.71-.63s-.51-.06-.54.09a.71.71,0,0,1-.29.43.84.84,0,0,1-.58.26c-.34,0-.4.31-.42.59s-.18.43-.35.73a2.68,2.68,0,0,0-.13,1.43,2.47,2.47,0,0,0,.11.53l0,0c-.12,0-.16.28-.27.69a1,1,0,0,1-.25.46l-.19-.06a.88.88,0,0,0-.71,0c0-.09-.11-.18-.19-.29s-.16-.21-.1-.43c.38.1.41.34.72.2a1.35,1.35,0,0,0,.71-1.12c0-.51,0-.87,0-1.36a.93.93,0,0,0-.28-.79c-.17-.17-.37-.07-.53-.14s-.3-.24-.05-.34a1.35,1.35,0,0,0,.67-.79,5.59,5.59,0,0,1,.59-1h0c.12,0,.21-.11.12-.31h0c.07-.34,0-.67.07-.95a8.59,8.59,0,0,1,.31-.85.25.25,0,0,0,.18,0,1.11,1.11,0,0,0-.12-.16,1.51,1.51,0,0,0,.05-.4s0-.06,0-.09a.86.86,0,0,0,.15.1c.3.15.74.27,1,.39-.37-.21-.8-.36-1.15-.6,0-.08.08-.09.05-.21.22-.08.36.15.57.08,0-.09,0-.16-.08-.18a.83.83,0,0,1-.47-.13c0-.15.06-.29,0-.39.22-.25.62,0,.83-.24-.06-.06-.09-.15-.23-.13s0,.07-.05.08c0-.16-.27,0-.36,0,.07-.09.09-.14.23-.1s0-.17.05-.23c-.16,0-.28,0-.31.13,0-.13-.24,0-.26-.16.32-.08.53-.26.78-.34v-.21c-.3.14-.62.36-.83.23a1.46,1.46,0,0,0-.11-.35.19.19,0,0,1,.05-.09.26.26,0,0,1-.08-.26s-.11,0-.18,0,0,0,0,.06l0,0a1,1,0,0,0-.45-.16c0-.13,0-.31,0-.37s-.09,0-.13-.08,0,.16-.05.18,0-.09-.08-.13.07-.09,0-.18-.13.26-.31.16a.53.53,0,0,0-.08.16c.09,0,.07.1.1.16s-.14.11-.23.13a.7.7,0,0,1,0-.6c-.1-.19-.36-.14-.48.07.13.06,0,.07.17.14-.09,0,0,.2-.1.21a.23.23,0,0,0-.26.08c-.2-.09,0-.38-.26-.44.12,0,.14-.09.12-.19-.15.11-.36,0-.49-.08-.09.17.27.08.09.27,0,.07.12,0,.1.13a.19.19,0,0,0-.16.18c.13,0,.06.1.13.18s.17,0,.18.1a.38.38,0,0,1-.57-.36c-.15,0-.21-.14-.29-.23,0,.11-.1,0-.16,0a.38.38,0,0,0-.05.23c.13,0,.1.11.13.23s.11,0,.13,0,0,.42.05.55-.19-.05-.29-.08.05,0,0-.13-.09,0-.16,0c0,.13-.1.09-.1.18s0,.18,0,.23c.17,0,.36,0,.41.11a.49.49,0,0,1-.65,0,1,1,0,0,1-.29,0c0,.08,0,.07,0,.13s.08,0,.1.08-.1.11-.1.21.12.08.16.16c.16-.09.4-.13.44.16,0,0,0,0-.08.05-.23,0-.59-.31-.7,0,.23.16.67.08.78.42-.14.09-.17.3-.31.39a2.36,2.36,0,0,0-.34.08c0,.09.1.07.1.15a3.5,3.5,0,0,1,.49-.13c0,.2-.24.18-.36.26a.24.24,0,0,0,.16.21c.07,0,0-.14.05-.13s.14-.07.26-.05l0,0c0,.09,0,.17,0,.25s0,.26,0,.38l-.07,0a.1.1,0,0,0,.07.08c0,.13,0,.28,0,.45a1.76,1.76,0,0,1-.26.18c.08,0,0,.08,0,.13s0,.09.13.05,0-.16.09-.13,0,.18-.05.3a6.43,6.43,0,0,0-.15,1.92,2.29,2.29,0,0,0,.4,1c.17.26,0,.48-.09.68s-.27,1.55.12,1.94a3.42,3.42,0,0,1,.26.28,1.46,1.46,0,0,0-.23-.06c-.17,0-.19.28-.14.48a1.47,1.47,0,0,0,.29.81,5.94,5.94,0,0,0,.45.51,3.72,3.72,0,0,1-1.13.6,8.69,8.69,0,0,0-1.44.89,4.63,4.63,0,0,1-1.31.11c-.22-.36-.13-.56-.18-.8a2.86,2.86,0,0,1-.2-.77,1.75,1.75,0,0,0-.5-1.11h0c0-.14.05-.19,0-.36a.39.39,0,0,0-.21-.26.26.26,0,0,0-.19.11c-.08-.2-.14-.42-.22-.65.06,0,.11,0,.11-.15s-.13-.19-.2-.13l0-.09c.1,0,.11-.3,0-.36a.13.13,0,0,0-.06.05,3.62,3.62,0,0,1-.15-.87h0s0,0,0,0h0c0-.48,0-1.08-.35-1.24a1.17,1.17,0,0,0-.29-.1s0,0,0,0a.47.47,0,0,0-.12-.19c-.09,0-.13.06-.14.14a.75.75,0,0,1-.35-.19c-.27-.26-.78-.86-1.05-.84s-.26.12-.19.25a.3.3,0,0,1-.09.44.55.55,0,0,1-.58,0c-.17-.12-.41.42-.43.78a1.63,1.63,0,0,0,.3,1.06,1.83,1.83,0,0,1,.3.87,5.31,5.31,0,0,0,.65,1.69,6.13,6.13,0,0,0,.91,1.13,1.47,1.47,0,0,1,.49.91,1.72,1.72,0,0,0,.74,1.06c.44.28.56.26.85.16s.65-.18.68,0-.31.32-.4.56a2.72,2.72,0,0,0-.4,1.43c0,.32,0,.55,0,.75-.11-.17-.34-.46-.5-.69a1.4,1.4,0,0,0-.72-.48c-.19-.08-.39,0-.7.09a2.3,2.3,0,0,0,.35-.59c.12-.25,0-.45-.31-1a7.17,7.17,0,0,0-1-1.45.9.9,0,0,0-.89-.43c-.29,0-.66-.46-.83-.83a3.61,3.61,0,0,0-.71-1.14c-.39-.4-.73-.31-.94-.51s-.27-.52-.5-1a3,3,0,0,0-1.18-1.35,1.09,1.09,0,0,0-1.3-.16.67.67,0,0,0-.27.63c0,.18.28.24.4.25s.27.11.21.41a2.1,2.1,0,0,0,0,1,1.09,1.09,0,0,0,.56.61c.17.07.34,0,.48.16s0,.33,0,.59a1.52,1.52,0,0,0,.36,1c.2.15.38.14.55.46a1.31,1.31,0,0,0,.59.55,1.22,1.22,0,0,1,.48.5c.19.31,0,.38.1.66a3.25,3.25,0,0,1,.25.87c.05.42.25.55.48.87a5.56,5.56,0,0,0,.54.67,1,1,0,0,0,.69.1,2.14,2.14,0,0,1,.63,0s-.44.36-.63.55a2.9,2.9,0,0,0-.65.92c-.06.26-.32.79-.5.82a1.2,1.2,0,0,0-.64.71,3.07,3.07,0,0,0-.17.94,1.26,1.26,0,0,0,.4.69c.21.2.36.1.54.13s.18.26.18.5a.74.74,0,0,1-.34.73c-.34.24-.47-.11-.61-.32s-.05-.46-.08-.65-.07-.15-.28-.24a.88.88,0,0,0-.78.25,2.35,2.35,0,0,0-.72.79,7.47,7.47,0,0,0-.26,1.6,10.05,10.05,0,0,0,.16,1.3,9.82,9.82,0,0,1,.28,1.45c-.05.29-.3.3-.32.74s.39.81.51,1.16-.08.6,0,.93-.09.68,0,.91a2.42,2.42,0,0,0,.26.38h0a2.36,2.36,0,0,0-1,.48,1.1,1.1,0,0,1-.8.22l-.35,0a2.07,2.07,0,0,0,.42-.39.51.51,0,0,0,.07-.62c-.13-.23-.33-.19-.51-.15s-.3.34-.46.24-.44-.25-.52-.09-.08.46-.28.44-.28-.09-.29-.29a.78.78,0,0,1,0-.24.6.6,0,0,0,.19-.24.29.29,0,0,0,.1-.37c-.09-.16-.43-.21-.64.09l-.08.09,0,0-.1.11c-.16.14-.32.22-.35.32a.56.56,0,0,0,.14.45.47.47,0,0,1,.11.43c-.05.18-.22.53-.52.55s-.38-.22-.49-.29-.23-.41-.08-.42.41.24.55,0a.36.36,0,0,0-.2-.56c-.24-.07-.38-.18-.64-.11s-.34.26-.48.25a.46.46,0,0,0-.38.17l-.06.08,0,0c-.11,0-.14.08-.12.16l-.08.06h0l-.09,0-.56,0a.48.48,0,0,0,.08-.19c-.06,0-.06-.08-.12-.08s-.06.08-.12.08a.45.45,0,0,0,.1.19h0l-.54.07c0-.08,0-.19,0-.23s-.06,0-.08,0,0,.11,0,.12,0-.06,0-.08,0-.06,0-.12-.08.17-.2.1a.35.35,0,0,0-.05.1c.06,0,0,.07.07.1a.28.28,0,0,0-.1.06l-.06,0a.48.48,0,0,1,0-.34c-.07-.12-.23-.09-.31,0,.09,0,0,0,.11.09-.06,0,0,.13-.07.13h-.21c0-.08,0-.2-.12-.23.08,0,.09-.06.08-.12s-.23,0-.32-.05c-.06.11.17.05.06.17s.08,0,.07.08a.12.12,0,0,0-.1.12c.07,0,.05.05.07.09l-.16.06a.27.27,0,0,1-.08-.2c-.1,0-.13-.09-.18-.15s-.07,0-.1,0a.24.24,0,0,0,0,.15c.08,0,.07.07.08.15s.07,0,.08,0a.18.18,0,0,1,0,.1l-.13,0-.08.06h-.06c0,.06,0,.07,0,.09a1.44,1.44,0,0,0-.19.23.62.62,0,0,1-.18,0c0,.05,0,0,0,.08s0,0,.07.05-.06.07-.07.13l0,0-.08.16a.11.11,0,0,0-.06.06h0a2,2,0,0,0-.07.19c-.08.32.12.78.67,1.16h0a.65.65,0,0,1-.3.28s0,.05,0,.08,0,.06.08,0,0-.12.07-.08c0-.15.19-.2.2-.29h0a1.32,1.32,0,0,0,.36.17.23.23,0,0,0-.08.14c.08,0,.1-.06.13-.12a1,1,0,0,0,.22,0l0,.07c.08,0,0,.09.1.08a.27.27,0,0,0,0-.14l.15,0c0,.05,0,.12,0,.17s.05,0,.12,0a.85.85,0,0,1,0-.2l.09,0a2.65,2.65,0,0,0,0,.3c.13-.06.07-.21.07-.33l.14,0,0,0a.27.27,0,0,1,.13.29c.05,0,.07,0,.1,0s0,.16-.06.25h-.05s0,0,0,0l0,.12h0a.13.13,0,0,1,0,0l0,.12c-.12.51.32.9.79,1.09a2.82,2.82,0,0,0,1.89-.07,10.31,10.31,0,0,0,1.47-1c.37-.27.76-.58,1.08-.56a1.26,1.26,0,0,0,1-.52c.27-.36.41-.37.51-.56s.15-.54.34-.58a1.36,1.36,0,0,1,.8.29c.2.16.39.4.63.18s.29-.37.48-.41.6-.24.25-1.17a6.3,6.3,0,0,0,1.05.31s0,.06,0,.09a5.45,5.45,0,0,0,.34,2.23,9.89,9.89,0,0,1,.61,1.85c0,.3-.2.63-.2.83a1,1,0,0,0,.54.71,1.5,1.5,0,0,1,.64.85c0,.2.08,1,.39,1.21a1.31,1.31,0,0,0,1,.18c.21,0,.39.15.55.54s.5.42.61.5a1.84,1.84,0,0,0,.5.13.83.83,0,0,0-.85.45,2.32,2.32,0,0,0-.13,1.06,1.09,1.09,0,0,1-.26.79,4.27,4.27,0,0,0-.77,1.37,4.47,4.47,0,0,0,0,1,3.06,3.06,0,0,0-.45.35,3.13,3.13,0,0,1-.8.46,1,1,0,0,0-.37.54,1.9,1.9,0,0,0,0,.55,2.74,2.74,0,0,0-1,.79,7.61,7.61,0,0,0-.55,1.19c-.17.43-.32.69-.47.76s-.44.17-.44.5a1.54,1.54,0,0,0,.39,1c.25.18.55.6,1,.4s.56-.4.75-.44a3.92,3.92,0,0,1,.65.07,1.33,1.33,0,0,0,.91-.54,1.06,1.06,0,0,0,.26-.68,1.1,1.1,0,0,0,1.21-.14,2.81,2.81,0,0,0,1-1.61,9.94,9.94,0,0,0,0-1.77,4.69,4.69,0,0,1,0-.84,4.83,4.83,0,0,0,1.35-.51,3.13,3.13,0,0,0,1-1.5,3.44,3.44,0,0,0-.07-1.12c0-.08.08-.14.3-.15a2.53,2.53,0,0,0,.84-.07,2.12,2.12,0,0,0,1-1,2.89,2.89,0,0,1,.17-.26,1.66,1.66,0,0,1,.37.14c.25.16.42.51.58.63a1,1,0,0,0,.89-.06,1.51,1.51,0,0,1,1.06-.06c.19.08.83.46,1.22.35s.59-.53.69-.71.34-.24.76-.16a1,1,0,0,0,.76-.23,4.72,4.72,0,0,0,.63-.58.42.42,0,0,1,.29-.12,2.33,2.33,0,0,0,.4.46,2.2,2.2,0,0,0,.78.39v0a.41.41,0,0,0,0,.19c-.16,0-.38.05-.39.16-.05.42.46.52.55.1,0,0,0,0,0,0v0a.39.39,0,0,1,.08.23.63.63,0,0,0-.09.07.87.87,0,0,0-.09.27.59.59,0,0,0-.08.28v0l-.06.09a1,1,0,0,0-.14.14h0a.75.75,0,0,1-.3.14c-.15-.13.14-.26.14-.39-.18.08.1-.15,0-.2-.18.1-.32,0-.49.07a1.34,1.34,0,0,0-1.6-.49c-.08-.24-.25-.32-.5-.12s.06.24-.1.35-.08,0-.13,0,0-.13-.09-.2-.24.16-.34.15c-.09.2.18.18.06.36-.27,0-.58.29-.85.31a2.4,2.4,0,0,1,0,1.54,2.86,2.86,0,0,1,.39.61s0,.07,0,.11-.11.13-.16.23a.26.26,0,0,0,.21.13,2.56,2.56,0,0,0,0,.26v0a.25.25,0,0,0,.06.26l.06,0c.14.17.35.32.54.52s.18.58,0,1.07,0,.62,0,1.21a2.32,2.32,0,0,0,.6,1.63c.3.21.18.27.11.57s.11.42.13.64a3.52,3.52,0,0,0,.15.9c.2.53.53.79.76.82s.3.24,0,.2-.27.22-.22.37a.27.27,0,0,0,.47.07c.08-.17.08-.25.32-.15a.17.17,0,0,1,0,.32c-.18.08-.22.33-.22.6s.31.49,1,.49a1.94,1.94,0,0,0,1.52-.7c.23-.36.14-.78.25-1s.41-.34.5-.85-.22-.93-.55-1.6a1.33,1.33,0,0,0-.15-.21.57.57,0,0,0,.07-.17c0-.32,0-.43,0-.67a1.59,1.59,0,0,0-.29-.68,6.43,6.43,0,0,1-.14-.84c0-.22-.08-.45-.11-.58a2.37,2.37,0,0,0,.34.13.44.44,0,0,0,.26,0,1.83,1.83,0,0,0,.12.61,6,6,0,0,0,.46.77,1.17,1.17,0,0,1-.21.15c.05,0,0,.06,0,.09s0,.06.09,0,0-.13.07-.09a.27.27,0,0,1,.08-.14l.2.3.06.1c0,.06,0,.08,0,.16h.11a1,1,0,0,1,.21.55c0,.17-.1.47.18.64a1.54,1.54,0,0,0,1.08.25c.29-.11.8-.12.91-.65s0-.68.05-.86.27-.3.42-.5a.93.93,0,0,0,.13-.52l.07,0-.07,0a1.92,1.92,0,0,0-.07-.53,1,1,0,0,0-.32-.51.32.32,0,0,0,.28-.08s-.06-.1-.16-.09,0,.05,0,.05-.19,0-.25,0,.06-.09.16-.07,0-.12,0-.16-.19,0-.22.09c0-.09-.17,0-.18-.11.22-.06.36-.18.54-.24v-.14c-.29.13-.59.37-.7,0,.06,0,0-.08.09-.11a.18.18,0,0,1-.05-.18s-.08,0-.13,0a.24.24,0,0,1-.07.14,2.9,2.9,0,0,0-.27-.18,1.86,1.86,0,0,1,0-.31s-.06,0-.09-.05,0,.11,0,.13,0-.06-.05-.09,0-.07,0-.13-.09.18-.22.11a.36.36,0,0,0-.06.11c.06,0,0,.07.07.11s-.1.07-.16.09a.48.48,0,0,1,0-.41.15.15,0,0,0-.16-.08,1.64,1.64,0,0,0,0-.6,2.47,2.47,0,0,0-.45-.93,3.11,3.11,0,0,0-.62-.54c-.1-.09,0-.3.11-.48a5.37,5.37,0,0,0,.36-1.51,2.81,2.81,0,0,0-.38-1.17.9.9,0,0,0,.45,0c.42-.13.37-.38.63-.5a10.19,10.19,0,0,1,1.47-.1,10.15,10.15,0,0,0,1.3-.19,7.47,7.47,0,0,0,1.47-.67,2.39,2.39,0,0,0,.58-.9.89.89,0,0,0,0-.82c-.14-.18-.12-.23-.31-.21s-.4.17-.65.09-.61-.11-.47-.51a.75.75,0,0,1,.62-.52c.23-.06.46-.12.53,0s0,.34.27.49a1.26,1.26,0,0,0,.77.21,3.22,3.22,0,0,0,.87-.41,1.21,1.21,0,0,0,.52-.81c0-.18.42-.57.66-.7a3,3,0,0,0,.72-.87c.13-.23.36-.75.36-.75a2.22,2.22,0,0,1,.16.61,1,1,0,0,0,.27.64,5.34,5.34,0,0,0,.79.35,1.67,1.67,0,0,0,1,.24,3.23,3.23,0,0,1,.9,0c.3,0,.31-.18.67-.08a1.21,1.21,0,0,1,.6.33,1.35,1.35,0,0,0,.69.43c.35.08.38.25.58.41a1.54,1.54,0,0,0,1,.1c.24-.07.41-.29.56-.18s.17.27.28.42a1.11,1.11,0,0,0,.74.38,2.1,2.1,0,0,0,.94-.27c.28-.14.41,0,.45.1s.17.33.35.32a.67.67,0,0,0,.53-.42A1.09,1.09,0,0,0,252,153.4Zm-12.9-16.56c.09-.08.21,0,.33.12-.11.1-.18,0-.37-.08ZM201.38,151s0-.06,0-.1-.09-.11-.1-.2l.08,0a.82.82,0,0,0,.07.16A1.39,1.39,0,0,0,201.38,151Zm14.77-16c.06.12.05.23-.36.61s-.71-.17-.73-.47a1.14,1.14,0,0,0-.18-.63c-.15-.24-.48-.26-.82-.16s-.65.15-.86.2-.25-.07-.15-.31.36-.39.85-.62.62,0,.87.16a4.4,4.4,0,0,0,.92.58c.23.08.3-.13.45-.21s.2-.08.27-.12a.92.92,0,0,0,0,.35.88.88,0,0,0-.35.19C216,134.77,216.1,134.95,216.15,135.06Zm.59,24.89c-.06.17-.15.24-.26.24h-.08a1.16,1.16,0,0,1,.38-.32Zm.86-.54h-.06a.29.29,0,0,0,0-.11c0-.22-.09-.35-.09-.47a2,2,0,0,0,.35.26,1.13,1.13,0,0,1,.34.29C217.9,159.38,217.74,159.42,217.59,159.41Zm24.06-8.77c-.09.53-.18.82-.38,1s-.34.16-.34-.06,0-.2,0-.32l.45-.45a2,2,0,0,1,.28-.2S241.66,150.61,241.65,150.64ZM207.2,127.18c.15.09.25-.07.16-.14a2,2,0,0,1-.4-.57,2,2,0,0,1-.22-.67c0-.27.06-.33.05-.56s-.1-.25-.14-.39-.11-.13-.22-.09a1.22,1.22,0,0,0-.31.74,1.89,1.89,0,0,0,.39.91A3.45,3.45,0,0,0,207.2,127.18Zm26.6.42c.27,0,.41-.37.7-.52s.72-.35.86-.69a.8.8,0,0,0-.3-.87c-.19-.14-.29-.24-.25-.39s.22-.08.46.12.29.14.63.14a1.43,1.43,0,0,0,1-.66c.26-.37.65-.52.59-.9s.19-.49.16-.95-.52-.84-.91-1.12-.82.06-1.16.21a4.42,4.42,0,0,0-1.49,2.8c0,.31,0,.24-.41.37s-.51.5-.71,1.12c-.09.29-.28.53-.11.89S233.53,127.57,233.8,127.6Zm-27.07-3.31c.1-.09,0-.32-.17-.17A.12.12,0,0,0,206.73,124.28Zm45.87,30.81a.12.12,0,0,0,.21.12C252.92,155,252.66,155,252.6,155.09Zm-25-31.8c.34.19.75.16.85,0a2.5,2.5,0,0,0,.42-1.12c0-.58-.35-.72-.4-.91s.09-.24.53-.35.43-.25,1-.67.59-.76.83-1.44A1.77,1.77,0,0,0,230,117a1.63,1.63,0,0,0-1.67,0,1.82,1.82,0,0,0-.73,1.49,4.91,4.91,0,0,1-.21,1.14,2,2,0,0,0,0,1.14c.08.21,0,.31-.19.58a1.86,1.86,0,0,0-.21,1A.8.8,0,0,0,227.57,123.29Zm5,4c-.12-.22-.39.1-.24.25S232.66,127.49,232.53,127.27Zm-.92,3.65a.83.83,0,0,0,.73.13,3,3,0,0,0,.91-.74,1.72,1.72,0,0,0,.44-1.39c-.05-.48-.5-.62-.86-.79s-.41-.31-.73-.23a.86.86,0,0,0-.72.64,12.07,12.07,0,0,0-.35,1.19A1,1,0,0,0,231.61,130.92Zm-27,2.77c-.13-.23-.28-.61-.57-.6s-.5,0-.58.23,0,.41.49.59S204.77,133.92,204.64,133.68Zm.26,7.78c.32,0,.32-.06.47.06a.83.83,0,0,0,.83.18.87.87,0,0,0,.55-.43c.08-.12.08-.25.16-.24s.16.12.18.22.33.16.5.12A.58.58,0,0,0,208,141a1,1,0,0,0-.38-.65c-.18-.12-.47-.14-.59-.29s-.12-.28-.29-.45a1.6,1.6,0,0,0-.74-.45c-.27,0-.7-.08-.82.1a.28.28,0,0,0,.08.42c.15.11.31.26.28.41a.27.27,0,0,1-.36.2c-.17-.07-.34-.51-.56-.23a.92.92,0,0,0-.17.9C204.56,141.22,204.58,141.46,204.9,141.46Zm-1-1.33c.13-.3-.32-.61-.41-.16C203.4,140.17,203.73,140.44,203.85,140.13Zm.59-.89c0,.27.15.33.28.09S204.46,139,204.44,139.24Zm-1.47-.19c.18-.18.23,0,.43-.22s.11-.41-.13-.64-.7-.38-1-.61a1.59,1.59,0,0,0-.77-.38c-.26-.06-.2.41-.16.59s0,.37-.3.51-.52,0-.77.09-.43.13-.48.38.23.19.41.2.2.09.32.37a.73.73,0,0,0,.6.45c.2,0,.27.19.65.3a1.61,1.61,0,0,0,.86,0c.25-.06.43-.09.39-.28s-.24-.15-.34-.34S202.79,139.24,203,139.05Zm5.21,2.32c-.27.15,0,.48.25.33S208.59,141.14,208.18,141.38Zm-4.8-8.86a.91.91,0,0,0,.56,0,.49.49,0,0,1,.47.1,4,4,0,0,0,.71.45c.33.15.45.07.71.26s.32.2.36.38a.55.55,0,0,0,.36.36c.14,0,.43.1.53.28s.08.52.27.73.3.3.21.48-.24.3-.4.18-.11-.33-.45-.37-.68.26-.19.57a1.8,1.8,0,0,0,.84.3,1.3,1.3,0,0,0,.94-.16,1,1,0,0,1,.46-.25.5.5,0,0,0,.29-.7,3.47,3.47,0,0,1-.35-.63,1.06,1.06,0,0,0-.6-.71c-.34-.11-.69-.09-.88-.17s-.34-.22-.53-.28-.7-.14-.81-.28,0-.18-.2-.49-.13-.58-.34-.82-.64-.58-.88-.47a1.43,1.43,0,0,0-.54.38c-.16.18-.31.13-.53.42S203.21,132.48,203.38,132.52ZM226,116.81c0-.05-.12,0-.1-.08h.18s0-.15.1-.08c0-.15-.12-.16-.16-.26-.2,0-.27.17-.18.34h-.13c0,.07-.11.17,0,.23S226,117,226,116.81Zm-6-.24c-.09,0,0-.07-.08-.13s-.12-.12-.18,0C219.88,116.43,219.92,116.65,220,116.57Zm-.26,1c-.07,0-.17-.12-.23-.05S219.81,117.65,219.77,117.59Zm-1.28-.44c-.12,0-.24-.14-.34-.08C218.27,117.08,218.41,117.2,218.5,117.15Zm6.88-.92c-.05,0,0-.07-.1-.05s-.05.07-.08.11S225.33,116.28,225.38,116.23Zm-1.28.16c0-.13.11,0,.18-.1a.56.56,0,0,1,0-.34c-.13-.08-.23,0-.42-.08-.06.17-.17.25-.08.44A2.59,2.59,0,0,0,224.1,116.38Zm-3.66.89c.09-.33-.31-.26-.37-.1s.11.12.16.18S220.41,117.33,220.45,117.28Zm4.24-.36a.79.79,0,0,0,.16-.36c-.09,0-.09-.12-.18-.13s-.09.12-.18.13S224.53,116.89,224.69,116.91Zm.7,3.64v-.08a.15.15,0,0,0-.1,0C225.26,120.58,225.35,120.55,225.39,120.56Zm-.24.29a.48.48,0,0,1-.18-.1C225,120.82,225.1,120.9,225.16,120.84Zm-.21-.13c-.12,0-.23-.24-.34-.21C224.71,120.57,224.84,120.74,225,120.71Zm8.92,42.57c0,.12-.11.18-.05.31l.22.05c0-.09.07,0,.12-.07a.4.4,0,0,1,0-.24C234.07,163.27,234,163.3,233.88,163.28Zm1.38.6h-.09c0,.05-.08.12,0,.16s.22,0,.22-.11-.08,0-.07-.05h.13s0-.11.07-.05c0-.1-.08-.11-.11-.18S235.2,163.77,235.26,163.88Zm-.33-.35s0,0-.07,0,0,0-.06.07S234.89,163.57,234.92,163.53Zm-.62.22c0,.1,0,.24.14.25a.54.54,0,0,0,.11-.25c-.06,0-.06-.08-.13-.09S234.36,163.74,234.3,163.75Zm-36.17-15.34c-.08,0-.15-.09-.22-.05S198.07,148.45,198.13,148.41Zm1.78,2.8c0,.09-.05.08,0,.17a.38.38,0,0,0,.18,0,.18.18,0,0,0-.08-.2S200,151.22,199.92,151.21Zm-.77-2.78c0,.05.07.07.1.12s.11,0,.13,0C199.44,148.29,199.18,148.33,199.15,148.43Zm-.08-.47c-.07,0-.08-.08-.12,0s.09.15.17.1S199.08,148,199.06,148Zm2.51-.37c0,.11-.11.16-.05.28l.2,0c0-.09.07,0,.12-.07a.35.35,0,0,1,0-.22C201.75,147.59,201.69,147.61,201.57,147.59Zm1,.23s0,0-.07,0,0,0-.05.07S202.51,147.86,202.54,147.83Zm-3.75.84s.17.07.15,0S198.84,148.62,198.8,148.66Zm48.2-19c-.06,0,0,0,0-.08s-.08-.08-.12,0S246.93,129.68,247,129.63Zm2.64,3.6c-.07,0-.12,0-.18.05s0,0,0,.1S249.72,133.41,249.64,133.23ZM246,130c-.08,0-.15-.09-.22-.05S246,130,246,130Zm3.17,3.2a.11.11,0,0,0,0,.13A.22.22,0,0,0,249.19,133.2Zm0-.13s0,.11,0,.12S249.19,133.06,249.14,133.06Zm1.29-3.66s0,0-.07,0,0,0-.05.07S250.39,129.44,250.43,129.41Zm-.82.1c0-.09.07,0,.12-.06a.36.36,0,0,1,0-.22c-.09-.05-.15,0-.27-.05s-.11.16-.05.28Zm1.23.27s-.07,0-.07-.05h.12s0-.1.07-.05-.08-.1-.1-.17-.17.11-.12.22h-.08s-.07.11,0,.15S250.84,129.89,250.84,129.78Zm-.85.07a.5.5,0,0,0,.1-.23c-.06,0-.06-.08-.12-.08s-.06.08-.12.08S249.88,129.83,250,129.84Zm-9-.53a.12.12,0,0,0,0,.17C241.14,129.48,241.09,129.21,240.95,129.31Zm-.58-2a.28.28,0,0,0-.16.3A.29.29,0,0,0,240.37,127.35Zm.94,1.68a.15.15,0,0,0-.2-.12s0,.08-.06.13C241.11,129.23,241.29,129.16,241.31,129Zm.71-3.25a.07.07,0,0,0,0,.1S242,125.81,242,125.77Zm.3,1.6s0-.13-.07-.16a.19.19,0,0,0-.33.09C241.93,127.6,242.32,127.64,242.32,127.37Zm-.68.78a.12.12,0,0,0,0,.15C241.83,128.34,241.78,128.07,241.64,128.15Zm.11-.37s0-.09-.05-.11-.07-.07-.11-.1a.24.24,0,0,0-.22.09.65.65,0,0,0-.12.39C241.45,128.38,241.74,128,241.75,127.78Zm-25.38-2.18c.08,0,.09-.06.12-.11a.72.72,0,0,0,0-.41c-.08-.16-.27-.45-.37-.45-.38.1,0,.84.17,1C216.3,125.59,216.35,125.65,216.37,125.6Zm.17,1.2s.13,0,.17,0,.11-.48,0-.6C216.4,126,216.28,126.61,216.55,126.8Zm.43-3.13a.57.57,0,0,0-.27-.45A.59.59,0,0,0,217,123.67Zm1.24,3.7c0-.07,0-.11-.09-.1A.17.17,0,0,0,218.22,127.37Zm-3.34-4.06c0-.09-.13-.11-.18,0C214.67,123.51,214.95,123.61,214.88,123.3ZM247.09,151s.1,0,.08-.09,0-.11,0-.16a.7.7,0,0,0-.29-.28c-.16-.07-.49-.17-.57-.11C246.11,150.67,246.86,151,247.09,151Zm2.63.07c-.06,0-.1-.06-.14,0A.17.17,0,0,0,249.72,151.07Zm-3.83-2.2a.59.59,0,0,0,.5.17A.57.57,0,0,0,245.89,148.87Zm-25.3,20.53a.3.3,0,0,0,0,.17c.22.14.34-.08.26-.22A.19.19,0,0,0,220.59,169.4Zm-1.51-3.66s0-.08-.05-.11A.09.09,0,0,0,219.08,165.74Zm1.84,1.58c.13-.13-.11-.34-.23-.19S220.82,167.37,220.92,167.33Zm-.4.92a.15.15,0,0,0,.15.13C220.85,168.28,220.59,168.06,220.52,168.24Zm.05-1.29s-.12-.1-.19-.1-.35.2-.25.35S220.78,167.22,220.57,166.95Zm.13.68a.21.21,0,0,0,.23,0s0-.06,0-.1C220.82,167.27,220.56,167.47,220.71,167.62Zm-.5.11c-.08,0-.13,0-.18,0a.3.3,0,0,0-.14.25c0,.14.09.41.19.48.45.17.4-.47.27-.66C220.28,167.78,220.25,167.71,220.2,167.73Zm-1.47,1.15a.36.36,0,0,0-.08-.42A.36.36,0,0,0,218.74,168.88Zm-16.67-9.31c.14,0,0-.23-.06-.11A.08.08,0,0,0,202.07,159.57Zm-.32.75a.27.27,0,0,0,0,.13c.1.12.24,0,.22-.14A.12.12,0,0,0,201.74,160.31Zm-1-.53a.31.31,0,0,0,.06-.31A.29.29,0,0,0,200.71,159.78Zm2.06-1.48a2.06,2.06,0,0,1,.4-.24.32.32,0,0,0,.06-.12c-.09-.25-.35,0-.51,0s-.11,0-.17.13a.22.22,0,0,0,0,.21A.25.25,0,0,0,202.77,158.3Zm-.36.36a.09.09,0,0,0,.09.16C202.62,158.74,202.52,158.56,202.41,158.66Zm-.13.36a.14.14,0,0,0,.16,0s0,0,0-.07S202.23,158.9,202.28,159Zm0-.59c-.11-.06-.27.12-.25.24s.41.06.35-.15C202.36,158.49,202.33,158.43,202.28,158.43Zm-.27.68s0-.06-.07-.05-.07,0-.11,0a.31.31,0,0,0-.16.17c0,.1-.05.31,0,.36C201.91,159.73,202,159.26,202,159.12Zm-.29,1.59a.08.08,0,0,0,.08.11C201.92,160.74,201.81,160.56,201.71,160.71Zm45.19-15.83c0-.12-.27-.13-.34,0s.23.34.34.16S246.93,144.91,246.9,144.88Zm2.28,2.35s-.05,0,0,0S249.18,147.25,249.18,147.23Zm-1.81-2.42a.23.23,0,0,0-.16.14.24.24,0,0,0,.1.2,2.09,2.09,0,0,1,.45.14.32.32,0,0,0,.13,0c.13-.24-.23-.27-.31-.41S247.47,144.8,247.37,144.82Zm-1.46.12c-.09,0-.27.16-.28.24,0,.29.48.07.57,0s0-.07,0-.09,0-.07-.06-.1A.31.31,0,0,0,245.91,144.94Zm.84.36c.14,0,.21-.16.06-.17A.09.09,0,0,0,246.75,145.3Zm1.83,2.31s-.06,0-.07,0S248.59,147.64,248.59,147.61Zm-3.47-3.18a.29.29,0,0,0-.27.16A.31.31,0,0,0,245.12,144.44Zm7.76-5.84c.11.13-.19.12-.22,0a3,3,0,0,1-.41.53,1,1,0,0,0,1.2.65C253.3,139.4,253.55,138.66,252.88,138.6Zm-53.64-6.67a3.67,3.67,0,0,1,.8.1c-.11.1,0,.16,0,.25s.24-.1.35-.15c.08.14.12.31.35.3,0-.08,0-.17.1-.15a.3.3,0,0,1,.14-.43.69.69,0,0,0,.49.15c.45,0,.61-.25.81-.26s.6.08.79-.4c.11-.26,0-.41-.17-.71a7.74,7.74,0,0,1-.49-.89,1.44,1.44,0,0,0-1.23-.74c-.15-.06-.3-.17-.28-.32s.17-.16.15-.35-.13-.14-.3-.1-.06.34-.15.45-.11-.23-.2-.3c-.05.15,0-.14-.15-.1s-.19.21-.25.35a1.3,1.3,0,0,0-1.35.75c-.23-.08-.39,0-.4.25s.21.09.2.25c0,0-.06,0-.05.1s-.09-.07-.2-.05,0,.24-.1.3c.1.16.25,0,.3.15-.14.19-.15.52-.3.7A2.24,2.24,0,0,1,199.24,131.93Z"/><path class="cls-5" d="M237.88,149a1.73,1.73,0,0,1-.39-1.17c0-.49.15-1.14.18-2a1.17,1.17,0,0,0-.37-.89,1.4,1.4,0,0,0-1-.41,1.05,1.05,0,0,0-.3,0,1.93,1.93,0,0,0-.25-.25l-.25-.29a.77.77,0,0,0,.2-.47,1.14,1.14,0,0,0-.33.06,1,1,0,0,0,0-.1.5.5,0,0,1-.07-.26,1.65,1.65,0,0,1,.34-.81,1.15,1.15,0,0,0,.16-.44.07.07,0,0,1,0,0c.16.13.3-.13.14-.21a.17.17,0,0,0-.14.1,1.16,1.16,0,0,0-.31-.94,4,4,0,0,0-.45-.38h0a1,1,0,0,0,.25-.26v0a.15.15,0,0,0,.21-.14.29.29,0,0,0-.08-.14.16.16,0,0,0-.11,0s0,0,0,0-.27.08-.27-.07a.56.56,0,0,1-.94-.34,3.26,3.26,0,0,0-.39-.08,1.33,1.33,0,0,0,.17-.19,1.17,1.17,0,0,0-.1-1.48l-.13-.15a1.57,1.57,0,0,0-.29-.24l.13,0c0-.16,0-.23-.08-.41-.18,0-.3-.06-.44.09,0,.06,0,.12,0,.19l-.07,0c0-.1-.07-.21-.12-.33h0v0c0-.11-.09-.22-.16-.35l-.08-.11h.05c.14-.17,0-.39-.25-.42,0,.11,0,.09-.05.14L232,136c.09-.06.2-.1.19-.24.08.1.13.1.22,0-.16-.1-.12-.34-.11-.49-.19,0,0,.28-.21.18-.06,0,0,.13-.08.15a.19.19,0,0,0-.23-.08.1.1,0,0,1,0,.12l-.08-.09a1.29,1.29,0,0,0-.05-.19.41.41,0,0,1,.15-.1c0-.15.05-.24.11-.35-.11,0-.05-.09-.06-.15a.38.38,0,0,0-.24,0c0,.12-.05.14-.13.18a1.13,1.13,0,0,0-.24-.28,2.7,2.7,0,0,0-.34-.23c.21-.08,0-.35-.1-.35s-.06.15-.11.21a.15.15,0,0,1,0,.05,2.43,2.43,0,0,0-1.09-.27,3.47,3.47,0,0,0-2.11.88,1.16,1.16,0,0,0-.15-.21,3.1,3.1,0,0,0,.12-.54.77.77,0,0,0,.09-.46c-.14-.23-.2-.52-.51-.67-.11.26-.06.54-.21.77a.92.92,0,0,0,0-.1,7.26,7.26,0,0,0-1.41-1.49,3.25,3.25,0,0,0-1.87-.88,1.32,1.32,0,0,0-.49.09h-.12a1.7,1.7,0,0,0-1.2.44,1.9,1.9,0,0,0-.2.25,1.17,1.17,0,0,0-.69.6,1.59,1.59,0,0,0-.08.21,1.77,1.77,0,0,0-.48-.06,5.29,5.29,0,0,0-1,.15,2.42,2.42,0,0,0-3,1.31l-.19,0a1.16,1.16,0,0,0-.84.68,1.76,1.76,0,0,0-.09.26l-.1.1a1.16,1.16,0,0,0-.28,1,1,1,0,0,1-.28,0c0,.08,0,.07,0,.13s.08,0,.1.08-.1.11-.1.21.12.08.16.16a.49.49,0,0,1,.2-.06,1.87,1.87,0,0,0,0,.25c-.22-.06-.48-.24-.58,0,.19.13.5.11.68.28,0,.06,0,.11.07.17h0c-.11.1-.15.27-.28.35a2.32,2.32,0,0,0-.34.08c0,.09.1.07.1.15a3.57,3.57,0,0,1,.49-.13c0,.2-.24.18-.36.26a.25.25,0,0,0,.16.21c.07,0,0-.14.05-.13s.14-.07.26-.05.21.1.23.24-.11,0-.16.08,0,.05,0,.1.15,0,.16,0a.13.13,0,0,0,0,.08c-.11.06-.17.15-.34.16,0,.07.08.08.13.1s.33-.29.44-.1c-.06.08-.06.06-.16.08a.67.67,0,0,1,.05.21h.16c0-.1,0-.16.08-.18a.2.2,0,0,1,.21.08v0a1.17,1.17,0,0,0-.38.79s0,.07,0,.1h-.05c0,.13-.08.13,0,.26h0c-.25.11-.34,0-.64,0-.19.61-1.36.61-1.42,1,0,0,.09.9-.42,1-.2,0-.32-.17-.61-.06,0,.14-.17.23,0,.45s.56-.07.77,0c.1.25-.32.24-.4.4.07,0,.09,0,.08,0a1.16,1.16,0,0,0-.9.59,1.18,1.18,0,0,0,.06,1.23,4.17,4.17,0,0,0,.67.77,2.45,2.45,0,0,0,.67.42,1.16,1.16,0,0,0-.09.79,1.57,1.57,0,0,0,.12.34,1.17,1.17,0,0,0,0,.58,11.79,11.79,0,0,1,.44,1.36l-.08.08a1.17,1.17,0,0,0-.23,1.51,2.85,2.85,0,0,0,1.13,1.06v0a.32.32,0,0,1-.09.08c0,.09-.09.12-.08.24a.28.28,0,0,0,.17.2.38.38,0,0,0,.17,0c.14.28.3.46.4.64a2.67,2.67,0,0,1,.2.33,1.17,1.17,0,0,0,1.22,1.47h0c1.24,0,1.71.53,2.88,1.42a.26.26,0,0,1-.1,0c0,.07.08.08.13.1l.08,0,.12.1.12.07v.06h.09a1.17,1.17,0,0,0,.45.09c-.06.17-.22.23-.24.43.25,0,.18-.37.42-.42,0,0,0,0,0,0l.15,0h0a.65.65,0,0,1-.11.4c.13,0,0,.15.16.13s0-.33.13-.44c.32,0,.1.28.08.44s.08,0,.18,0a.76.76,0,0,1,.05-.44h.11c0,.2,0,.34,0,.56.21-.1.09-.36.1-.54l.25,0h.15a.46.46,0,0,1,.09.36c.1,0,.11,0,.18,0s0-.12,0-.21a.21.21,0,0,1-.12-.15l.15,0c.07.13.15.22.24.17a1.17,1.17,0,0,0,2.1,0l0,0h0a2.11,2.11,0,0,0,.56.24,1.18,1.18,0,0,0,1-.17,2.52,2.52,0,0,0,.53-.49,1.26,1.26,0,0,0,.17.26l.67.77a1.16,1.16,0,0,0,.88.4,1.17,1.17,0,0,0,.76-.28l.2-.17a1.19,1.19,0,0,0,.25-.3l.09,0a1.17,1.17,0,0,0,.49-1.59c0-.07,0-.16,0-.27a1.8,1.8,0,0,0,0-.23,1,1,0,0,0,0-.19,1.17,1.17,0,0,0,.81-.48,1.37,1.37,0,0,1,.54-.38l.09,0a1.73,1.73,0,0,0,.39.06,1.33,1.33,0,0,0,1.17-.72,1.81,1.81,0,0,0,.13-.33,1.58,1.58,0,0,0,.07-.15.48.48,0,0,0,.31.46.89.89,0,0,0,.4.05.73.73,0,0,0,.35-.19s0,0,0-.06l.07,0a.9.9,0,0,0,.13-.55,2.63,2.63,0,0,0-.15-.47.52.52,0,0,0-.12-.33,1.19,1.19,0,0,0-.65-.24c0,.24.24.41.15.66a3,3,0,0,1-.34.22.48.48,0,0,0-.08.12,2,2,0,0,0,0-.23,1.34,1.34,0,0,0-.37-.91,2.21,2.21,0,0,1,.44.14.31.31,0,0,0,.12,0c.13-.24-.23-.27-.31-.41s-.11-.06-.21,0a.17.17,0,0,0-.09.3,1.14,1.14,0,0,0-.17-.14l-.15-.09c.3-.18.54-.38.75-.52a2.16,2.16,0,0,1,.81-.47l0,0a1.18,1.18,0,0,0,1.29.25l.09,0,0,0a1.94,1.94,0,0,0,1.19.46h0a1.17,1.17,0,0,0,.93-1.88Zm-23.22-13.1c.09-.33-.31-.26-.36-.1a2.4,2.4,0,0,1,.16.18S214.62,136,214.66,135.93Zm-.68.31c-.07,0-.17-.12-.23-.05S214,136.31,214,136.25Zm-1.28-.44c-.12,0-.24-.14-.34-.08C212.48,135.73,212.62,135.86,212.71,135.8Zm1.54-.57c-.09,0,0-.07-.08-.13s-.12-.12-.18,0C214.09,135.09,214.13,135.31,214.24,135.23Zm.65,4.74c0-.09,0-.19.1-.13,0-.27.4-.32.31-.52,0,0,0,0-.08,0a1,1,0,0,1-.47.44c.08,0,0,.08,0,.13S214.79,140,214.89,140Zm5,17.58c0,.13-.08.13,0,.26a.57.57,0,0,0,.29,0,.28.28,0,0,0-.13-.31C220,157.55,219.93,157.55,219.87,157.55Zm-.73-.39c.08,0,0,.08,0,.13s0,.09.13.05,0-.19.1-.13c0-.27.4-.32.31-.52,0,0,0,0-.08,0A1,1,0,0,1,219.14,157.16Zm2.81.81c0,.06,0,.17.08.18S222,158,221.95,158Zm.13.42a.35.35,0,0,0-.05-.21A.17.17,0,0,0,222.08,158.38Zm.36-.08c0,.1,0,.07,0,.16.19.18.42.05.29-.23C222.62,158.24,222.53,158.22,222.44,158.3Zm-.26-.73c0,.12-.11.15-.23.16.11.08,0,.07.05.16s.22.09.41.08c0-.15-.15-.21-.16-.39Zm9.23-23.85c-.09-.08.07-.16,0-.18s-.17.22,0,.3C231.32,133.75,231.38,133.77,231.42,133.72Zm-1.13.26c0-.07,0-.21,0-.24S230.24,134,230.29,134Zm-.12-1.69c0,.11,0,.28.05.34C230.17,132.52,230.26,132.36,230.16,132.29Zm-4.74-.39s.07-.06.05-.11,0-.1,0-.15a.32.32,0,0,0-.24-.14c-.13,0-.38,0-.44.12C224.66,132,225.25,132,225.42,131.9Zm.62.35c-.12-.08-.21.08-.17.17S226.18,132.36,226,132.25Zm-.31.18c.19-.09,0-.33-.14-.21a.18.18,0,0,0,0,.19Zm1.56-1.43s.07,0,.11,0S227.31,131,227.29,131Zm-.38,2a.32.32,0,0,0,.15,0c.29-.2-.06-.45-.05-.67-.08-.05-.08-.13-.18-.17a.28.28,0,0,0-.25.07.36.36,0,0,0,0,.3A2.27,2.27,0,0,1,226.9,133Zm-.7-.85s.09-.1.09-.15-.19-.31-.33-.24A.23.23,0,0,0,226.2,132.16Zm-1.45-1.73a.34.34,0,0,0-.38,0A.35.35,0,0,0,224.75,130.44ZM215,154.12a.11.11,0,0,0,.15.06C215.25,154,215,153.94,215,154.12Zm-1.34.89a.34.34,0,0,0,.19.33A.35.35,0,0,0,213.65,155Zm1.75.11a.29.29,0,0,0,.08.14c.2,0,.24-.2.12-.29A.15.15,0,0,0,215.4,155.11Zm.29.39a.12.12,0,0,0,.17.05C215.94,155.4,215.67,155.3,215.69,155.51Zm-.6-2.12s0-.05,0-.09c-.16-.13-.3.14-.14.22A.18.18,0,0,0,215.08,153.39Zm-.47-.42s-.13,0-.17,0-.2.3-.08.4A.23.23,0,0,0,214.62,153Zm.38.2c.06-.16-.19-.26-.23-.08S214.94,153.25,215,153.17Zm-.41.62c-.08,0-.1,0-.14.06a.32.32,0,0,0,0,.27c.05.11.19.33.29.35.39,0,.15-.56,0-.68S214.62,153.76,214.59,153.79Zm21.52-11.47c0-.14-.16-.16-.23-.09S236.07,142.5,236.11,142.32Zm-.19-1a.11.11,0,0,0-.15-.06C235.65,141.36,235.92,141.47,235.91,141.28Zm.39.33c.08,0,.1,0,.14-.05a.32.32,0,0,0,0-.27c0-.12-.19-.33-.28-.36-.39,0-.17.56,0,.68S236.28,141.65,236.31,141.62Zm-.05.82s.12,0,.17,0,.21-.3.09-.4A.23.23,0,0,0,236.26,142.44Zm1-2a.34.34,0,0,0-.18-.34A.35.35,0,0,0,237.27,140.43Zm-2-.54a.11.11,0,0,0-.17-.05C235,140,235.25,140.09,235.24,139.88Zm.54,3.69c.3.18.39-.23.59-.31,0-.09.09-.12.08-.24a.27.27,0,0,0-.17-.2.35.35,0,0,0-.29.09,2.28,2.28,0,0,1-.25.51A.33.33,0,0,0,235.78,143.58Zm-.85,10s0,0,0,0S234.92,153.55,234.93,153.58Zm-.77-.07a.28.28,0,0,0-.17.06C234,153.55,234.15,153.56,234.15,153.51Zm.22.42s-.06,0-.07,0S234.38,154,234.38,153.93Z"/></svg>