<svg id="Layer_1" data-name="Layer 1" xmlns="http://www.w3.org/2000/svg" viewBox="0 0 410 300"><defs><style>.cls-1{fill:#ed4930;}.cls-2{fill:#f7c41f;}.cls-3{fill:#f7941d;}.cls-4{fill:#573c3e;}</style></defs><title>identities</title><path class="cls-1" d="M71.27,114.62v15.53l5.34,5.32V110.59A8.27,8.27,0,0,0,71.27,114.62Z"/><path class="cls-1" d="M49.86,129.34l11.07,11.07h7.54L50.85,122.78A8.27,8.27,0,0,0,49.86,129.34Z"/><path class="cls-1" d="M53.58,120.11l17.58,17.58v-7.54L60.33,119.31A8.27,8.27,0,0,0,53.58,120.11Z"/><path class="cls-1" d="M107.11,129.4a8.27,8.27,0,0,0-1-6.6L88.56,140.4H96.1Z"/><path class="cls-1" d="M96.72,119.29l-10.9,10.9v7.54l17.6-17.6A8.27,8.27,0,0,0,96.72,119.29Z"/><path class="cls-1" d="M80.42,110.6v24.83l5.34-5.32V114.69A8.28,8.28,0,0,0,80.42,110.6Z"/><path class="cls-2" d="M85.76,181V165.37L80.42,160v25A8.28,8.28,0,0,0,85.76,181Z"/><path class="cls-2" d="M103.56,175.49,85.83,157.76v7.54L97,176.47A8.27,8.27,0,0,0,103.56,175.49Z"/><path class="cls-2" d="M107,166,96.09,155.06H88.55l17.68,17.68A8.27,8.27,0,0,0,107,166Z"/><path class="cls-2" d="M60,176.46l11.12-11.12V157.8l-17.7,17.7A8.27,8.27,0,0,0,60,176.46Z"/><path class="cls-2" d="M50.78,172.79l17.71-17.71H60.94l-11,11A8.27,8.27,0,0,0,50.78,172.79Z"/><path class="cls-2" d="M76.61,185.1V160l-5.34,5.32v15.74A8.27,8.27,0,0,0,76.61,185.1Z"/><circle class="cls-3" cx="78.49" cy="147.74" r="9.48"/><path class="cls-3" d="M45.23,155H60.88l5.32-5.34h-25A8.27,8.27,0,0,0,45.23,155Z"/><path class="cls-3" d="M45.4,140.5a8.27,8.27,0,0,0-4.14,5.34h25l-5.32-5.34Z"/><path class="cls-3" d="M111.59,140.5H96.1l-5.32,5.34h25A8.27,8.27,0,0,0,111.59,140.5Z"/><path class="cls-3" d="M115.76,149.65h-25L96.11,155h15.65A8.27,8.27,0,0,0,115.76,149.65Z"/><path class="cls-4" d="M126.23,154.48V116.09s4.82-.05,8.72-.05c8.94,0,15.41,2.36,15.41,11.85,0,7.57-4.83,12.39-14.86,12.39-2.52,0-4.33-.05-4.33-.05v14.26Zm4.93-18.43s2.2.05,4.55.05c5.81,0,9.71-1.7,9.71-8.17,0-5.27-3.29-7.79-10.09-7.79-2.41,0-4.17.05-4.17.05Z"/><path class="cls-4" d="M188.55,133.7c0-2.19-1.15-2.52-3.29-2.52v-3a6.38,6.38,0,0,1,2.69-.55,4.62,4.62,0,0,1,4.88,3.95h.05a9.37,9.37,0,0,1,8.28-4.5c4.94,0,8.17,3.4,8.17,9v18.43h-4.66V136.61c0-4.06-1.76-5.7-5-5.7-3.89,0-6.42,3.24-6.42,5.37v18.21h-4.66Z"/><path class="cls-4" d="M266.69,142.86v1.76c0,4.5,2.36,6.86,5.87,6.86s5-2.2,5.43-4.94l3.84.27c.22,4.33-3.18,8.5-9.27,8.5-6.47,0-10.31-4-10.48-9.87-.11-3.89-.11-5.6,0-8.17.27-5.65,3.84-10.2,10.48-10.2,5.81,0,9.32,3.62,9.32,9,0,3.62-.77,4.11-4.82,5S266.69,142.86,266.69,142.86Zm0-3s3.95-.49,7.73-1.31c2.41-.55,2.8-1,2.8-2.52,0-3.13-1.7-5.1-4.66-5.1-4.11,0-5.87,3-5.87,7.24Z"/><path class="cls-4" d="M298.09,142.86v1.76c0,4.5,2.36,6.86,5.87,6.86s5-2.2,5.43-4.94l3.84.27c.22,4.33-3.18,8.5-9.27,8.5-6.47,0-10.31-4-10.48-9.87-.11-3.89-.11-5.6,0-8.17.27-5.65,3.84-10.2,10.48-10.2,5.81,0,9.32,3.62,9.32,9,0,3.62-.77,4.11-4.82,5S298.09,142.86,298.09,142.86Zm0-3s3.95-.49,7.73-1.31c2.41-.55,2.8-1,2.8-2.52,0-3.13-1.7-5.1-4.66-5.1-4.11,0-5.87,3-5.87,7.24Z"/><path class="cls-4" d="M316.35,145.71c-.11-3.56-.11-5.59,0-8.77.22-6.47,4.5-9.87,10.26-9.87,5.92,0,9.54,3.29,9.38,8.23l-4.11.27c-.16-3.29-2.52-4.66-5.27-4.66-3.18,0-5.43,2-5.59,6-.11,3.4-.11,5,0,8,.16,4.55,2.36,6.58,5.81,6.58,3.29,0,4.94-2.2,5.32-4.94l3.84.27c.22,4.33-3,8.5-9.16,8.5C321,155.31,316.52,152.13,316.35,145.71Z"/><path class="cls-4" d="M361.62,120a6.48,6.48,0,1,1-6.48,6.48A6.47,6.47,0,0,1,361.62,120Zm0,12.07a5.6,5.6,0,1,0-5.45-5.59A5.46,5.46,0,0,0,361.62,132.12Zm1.19-5,.25.28,1.42,2.81h-1.35l-1.4-2.89h-1.33v2.89h-1.24v-7.49H362a2.23,2.23,0,0,1,2.45,2.27A2.19,2.19,0,0,1,362.81,127.11Zm-2.41-.78h1.39A1.26,1.26,0,0,0,363.2,125c0-.8-.5-1.24-1.42-1.24h-1.39Z"/><path class="cls-4" d="M157.88,147.63V116h-3.06a1.6,1.6,0,0,0-1.6,1.6v31.68c0,5.49,4.55,6.31,8.23,5.21v-3.29C158.86,151.19,157.88,150.37,157.88,147.63Z"/><path class="cls-4" d="M289.32,147.63V116h-2.68a2,2,0,0,0-2,2v31.29c0,5.49,4.55,6.31,8.23,5.21v-3.29C290.3,151.19,289.32,150.37,289.32,147.63Z"/><path class="cls-4" d="M353.62,151.19a23.47,23.47,0,0,1-3.4.27c-2.36,0-4.55-.55-4.55-4.55V131.56H353v-3.67h-7.35v-6.81l-2.67,0a2,2,0,0,0-2,2v4.78h-3.84v3.67H341v15.57c0,6,3.73,8.17,7.62,8.17a16.12,16.12,0,0,0,5.21-.82Z"/><path class="cls-4" d="M227,151.19a23.47,23.47,0,0,1-3.4.27c-2.36,0-4.55-.55-4.55-4.55V131.56h7.35v-3.67h-7.35v-6.81l-2.67,0a2,2,0,0,0-2,2v4.78h-3.84v3.67h3.84v15.57c0,6,3.73,8.17,7.62,8.17a16.12,16.12,0,0,0,5.21-.82Z"/><path class="cls-4" d="M127.89,169.39c0-1.14-.6-1.31-1.71-1.31v-1.57a3.32,3.32,0,0,1,1.4-.28,2.4,2.4,0,0,1,2.54,2.05h0a4.84,4.84,0,0,1,4.3-2.34c2.68,0,4.39,1.91,4.47,4.84.06,1.8.06,2.68,0,4.67-.11,3.28-2.08,5.16-4.62,5.16a4.52,4.52,0,0,1-4-2h0v8.69h-2.42Zm2.42,6c0,2.34,1.51,3.22,3.45,3.22,1.57,0,2.62-1,2.74-3a45.27,45.27,0,0,0,0-4.81,2.64,2.64,0,0,0-2.93-2.82c-1.6,0-3.25,1.4-3.25,2.76Z"/><path class="cls-4" d="M159,169.39c0-1.14-.6-1.31-1.71-1.31v-1.57a3.32,3.32,0,0,1,1.4-.28,2.4,2.4,0,0,1,2.54,2.05h0a4.87,4.87,0,0,1,4.3-2.34c2.56,0,4.24,1.77,4.24,4.67v9.57H167.4V170.9c0-2.11-.91-3-2.62-3a3.29,3.29,0,0,0-3.33,2.79v9.46H159Z"/><path class="cls-4" d="M197.71,169.39c0-1.14-.6-1.31-1.71-1.31v-1.57a3.32,3.32,0,0,1,1.4-.28,2.4,2.4,0,0,1,2.54,2.05h0a4.47,4.47,0,0,1,3.93-2.34,3.45,3.45,0,0,1,3.59,2.59h.06a4.68,4.68,0,0,1,4.27-2.59c2.28,0,4,1.57,4,4.47v9.77h-2.42V170.9c0-1.77-.6-3-2.36-3a3.09,3.09,0,0,0-3.08,3.3v8.95h-2.42v-9.26c0-2.19-.88-3-2.36-3a3.1,3.1,0,0,0-3.08,3.33v8.92h-2.42Z"/><path class="cls-4" d="M230.38,169.39c0-1.14-.6-1.31-1.71-1.31v-1.57a3.31,3.31,0,0,1,1.4-.28,2.43,2.43,0,0,1,2.56,2.05h.06a2.92,2.92,0,0,1,3-2.34,1.83,1.83,0,0,1,1.45.57l-.37,1.71h-1.48c-2,0-2.48,1.14-2.51,3.79v8.18h-2.42Z"/><path class="cls-4" d="M249.5,174.14v.91c0,2.34,1.23,3.56,3,3.56a2.69,2.69,0,0,0,2.82-2.56l2,.14c.11,2.25-1.65,4.42-4.81,4.42-3.36,0-5.36-2.08-5.44-5.13-.06-2-.06-2.91,0-4.24a5.19,5.19,0,0,1,5.44-5.3c3,0,4.84,1.88,4.84,4.7,0,1.88-.4,2.14-2.51,2.59S249.5,174.14,249.5,174.14Zm0-1.57s2.05-.26,4-.68c1.25-.28,1.45-.54,1.45-1.31a2.34,2.34,0,0,0-2.42-2.65c-2.14,0-3,1.57-3,3.76Z"/><path class="cls-4" d="M259.92,169.39c0-1.14-.6-1.31-1.71-1.31v-1.57a3.31,3.31,0,0,1,1.4-.28,2.43,2.43,0,0,1,2.56,2.05h.06a2.92,2.92,0,0,1,3-2.34,1.83,1.83,0,0,1,1.45.57l-.37,1.71h-1.48c-2,0-2.48,1.14-2.51,3.79v8.18h-2.42Z"/><path class="cls-4" d="M143.22,176.6V160.06h-1.4a1,1,0,0,0-1,1v16.35c0,2.87,2.38,3.3,4.3,2.72v-1.72C143.73,178.46,143.22,178,143.22,176.6Z"/><path class="cls-4" d="M179.22,178.46a12.27,12.27,0,0,1-1.78.14c-1.23,0-2.38-.29-2.38-2.38v-8h3.84v-1.92h-3.84v-3.56h-1.4a1.05,1.05,0,0,0-1,1.05v2.5h-2v1.92h2v8.14c0,3.15,1.95,4.27,4,4.27a8.42,8.42,0,0,0,2.72-.43Z"/><path class="cls-4" d="M246.89,178.46a12.27,12.27,0,0,1-1.78.14c-1.23,0-2.38-.29-2.38-2.38v-8h3.84v-1.92h-3.84v-3.56h-1.4a1.05,1.05,0,0,0-1,1.05v2.5h-2v1.92h2v8.14c0,3.15,1.95,4.27,4,4.27a8.42,8.42,0,0,0,2.72-.43Z"/><path class="cls-4" d="M248.37,133c-4.33-1.86-7.57-3.46-7.57-7.73,0-3.89,3-5.87,6.64-5.87,4.35,0,6.7,2.32,6.79,6.79h4.4c.6-7-4.33-10.9-11.19-10.9-6.58,0-11.57,4.5-11.57,10.75,0,6.75,5.32,9.11,10.48,11.24,4.22,1.75,8.39,3.35,8.39,8.12,0,3.89-3.07,5.81-7.18,5.81a8.24,8.24,0,0,1-8.45-7.18h-4.43c.44,7.45,6,11.29,12.72,11.29,6.91,0,12.28-4.28,12.28-10.86C259.67,137.59,253.53,135.18,248.37,133Z"/><path class="cls-4" d="M182.34,148.18V136.5c0-5.4-2.39-8.4-6.49-9.2a11.57,11.57,0,0,0-2.3-.24h0a12.14,12.14,0,0,0-1.92.15h-.05a11,11,0,0,0-1.74.43c-.13,0-.25.11-.38.16a9.75,9.75,0,0,0-1.22.54c-.2.11-.38.25-.57.38a8.43,8.43,0,0,0-.8.57,7.82,7.82,0,0,0-.63.62c-.17.18-.35.35-.5.55a7.09,7.09,0,0,0-.54.85c-.1.18-.21.36-.3.55a7,7,0,0,0-.36,1c-.06.2-.11.39-.15.6a7.74,7.74,0,0,0-.12,1.13c0,.14,0,.4,0,.4,0,.18,0,.54,0,.54h4.07a6,6,0,0,1,.08-1v0a4.87,4.87,0,0,1,.23-.85l0-.07a4.14,4.14,0,0,1,.37-.73l0-.05a3.87,3.87,0,0,1,.53-.64l0,0a5.1,5.1,0,0,1,3.61-1.25c3.38,0,4.42,2.14,4.42,5.87v.85l-5.43,1.49c-5.54,1.66-8.74,3.5-8.9,8.57h0c0,.07,0,.13,0,.19s0,.12,0,.18h0a7.25,7.25,0,0,0,7.48,7.25,7.89,7.89,0,0,0,7.29-4.11h.16c.88,4.88,6.47,3.95,7.62,3.29v-3.29C183.54,151.19,182.34,150.92,182.34,148.18Zm-4.66-3.59c0,3.4-2,6.39-5.21,6.39-2.49,0-4.27-1.14-4.46-3.71-.24-2.4,1.73-3.71,4.23-4.42l5.43-1.65Z"/><path class="cls-4" d="M191.25,172.23c-1.42-.54-2.65-1.08-2.65-2.39a2,2,0,0,1,2.19-1.91,2.17,2.17,0,0,1,2.27,2.33h2.15c.28-2.28-1.4-4.32-4.33-4.32-2.65,0-4.7,1.65-4.7,4.16s1.88,3.5,4,4.22,3,1.25,3,2.45-1,1.85-2.31,1.85A2.8,2.8,0,0,1,188,176.2H185.8c0,2.45,2,4.42,5.07,4.42,2.91,0,4.73-1.8,4.73-4C195.6,173.86,193.3,173,191.25,172.23Z"/><path class="cls-4" d="M227.13,176.91v-6.07c0-2.81-1.24-4.37-3.38-4.78a6,6,0,0,0-1.19-.12h0a6.31,6.31,0,0,0-1,.08h0a5.73,5.73,0,0,0-.9.22l-.2.08a5.07,5.07,0,0,0-.63.28c-.11.06-.2.13-.3.2a4.38,4.38,0,0,0-.42.29,4.07,4.07,0,0,0-.33.32c-.09.09-.18.18-.26.28a3.69,3.69,0,0,0-.28.44c-.05.09-.11.18-.16.28a3.63,3.63,0,0,0-.19.53c0,.1-.06.2-.08.31a4,4,0,0,0-.06.59c0,.07,0,.21,0,.21s0,.28,0,.28h2.12a3.11,3.11,0,0,1,0-.52v0a2.53,2.53,0,0,1,.12-.44v0a2.16,2.16,0,0,1,.19-.38l0,0a2,2,0,0,1,.28-.33h0a2.65,2.65,0,0,1,1.88-.65c1.76,0,2.3,1.11,2.3,3.05v.44l-2.83.78c-2.88.86-4.54,1.82-4.63,4.45h0s0,.07,0,.1,0,.06,0,.09h0a3.77,3.77,0,0,0,3.89,3.77,4.1,4.1,0,0,0,3.79-2.14H225c.46,2.54,3.37,2.05,4,1.71v-1.71C227.76,178.47,227.13,178.33,227.13,176.91ZM224.71,175c0,1.77-1.05,3.32-2.71,3.32a2,2,0,0,1-2.32-1.93c-.13-1.25.9-1.93,2.2-2.3l2.83-.86Z"/><path class="cls-4" d="M155.67,176.91v-6.07c0-2.81-1.24-4.37-3.38-4.78a6,6,0,0,0-1.19-.12h0a6.31,6.31,0,0,0-1,.08h0a5.73,5.73,0,0,0-.9.22l-.2.08a5.07,5.07,0,0,0-.63.28c-.11.06-.2.13-.3.2a4.38,4.38,0,0,0-.42.29,4.07,4.07,0,0,0-.33.32c-.09.09-.18.18-.26.28a3.69,3.69,0,0,0-.28.44c-.05.09-.11.18-.16.28a3.63,3.63,0,0,0-.19.53c0,.1-.06.2-.08.31a4,4,0,0,0-.06.59c0,.07,0,.21,0,.21s0,.28,0,.28h2.12a3.11,3.11,0,0,1,0-.52v0a2.53,2.53,0,0,1,.12-.44v0a2.16,2.16,0,0,1,.19-.38l0,0a2,2,0,0,1,.28-.33h0a2.65,2.65,0,0,1,1.88-.65c1.76,0,2.3,1.11,2.3,3.05v.44l-2.83.78c-2.88.86-4.54,1.82-4.63,4.45h0s0,.07,0,.1,0,.06,0,.09h0a3.77,3.77,0,0,0,3.89,3.77,4.1,4.1,0,0,0,3.79-2.14h.09c.46,2.54,3.37,2.05,4,1.71v-1.71C156.3,178.47,155.67,178.33,155.67,176.91ZM153.25,175c0,1.77-1.05,3.32-2.71,3.32a2,2,0,0,1-2.32-1.93c-.13-1.25.9-1.93,2.2-2.3l2.83-.86Z"/></svg>