<svg id="Layer_1" data-name="Layer 1" xmlns="http://www.w3.org/2000/svg" xmlns:xlink="http://www.w3.org/1999/xlink" viewBox="0 0 410 300"><defs><style>.cls-1{fill:#0a0203;}.cls-2{fill:#fff;}.cls-3{fill:url(#linear-gradient);}.cls-4{fill:url(#linear-gradient-2);}.cls-5{fill:url(#linear-gradient-3);}.cls-6{fill:url(#linear-gradient-4);}.cls-7{fill:url(#linear-gradient-5);}.cls-8{fill:url(#linear-gradient-6);}.cls-9{fill:url(#linear-gradient-7);}.cls-10{fill:url(#linear-gradient-8);}.cls-11{fill:url(#linear-gradient-9);}.cls-12{fill:url(#linear-gradient-10);}.cls-13{fill:url(#linear-gradient-11);}.cls-14{fill:url(#linear-gradient-12);}.cls-15{fill:url(#linear-gradient-13);}.cls-16{fill:url(#linear-gradient-14);}.cls-17{fill:url(#linear-gradient-15);}.cls-18{fill:url(#linear-gradient-16);}</style><linearGradient id="linear-gradient" x1="134.23" y1="102.85" x2="134.23" y2="122.33" gradientUnits="userSpaceOnUse"><stop offset="0.12" stop-color="#ee4036"/><stop offset="0.71" stop-color="#ad1a27"/><stop offset="1" stop-color="#820a16"/></linearGradient><linearGradient id="linear-gradient-2" x1="155.85" y1="102.85" x2="155.85" y2="122.33" xlink:href="#linear-gradient"/><linearGradient id="linear-gradient-3" x1="176.32" y1="102.85" x2="176.32" y2="122.33" xlink:href="#linear-gradient"/><linearGradient id="linear-gradient-4" x1="198.66" y1="102.85" x2="198.66" y2="122.33" xlink:href="#linear-gradient"/><linearGradient id="linear-gradient-5" x1="223" y1="102.85" x2="223" y2="122.33" xlink:href="#linear-gradient"/><linearGradient id="linear-gradient-6" x1="238.92" y1="102.85" x2="238.92" y2="122.33" xlink:href="#linear-gradient"/><linearGradient id="linear-gradient-7" x1="255.34" y1="102.16" x2="255.34" y2="122.33" xlink:href="#linear-gradient"/><linearGradient id="linear-gradient-8" x1="277.83" y1="102.85" x2="277.83" y2="122.33" xlink:href="#linear-gradient"/><linearGradient id="linear-gradient-9" x1="103.1" y1="129.97" x2="103.1" y2="180.32" gradientUnits="userSpaceOnUse"><stop offset="0.09" stop-color="#ee4036"/><stop offset="0.71" stop-color="#ad1a27"/><stop offset="1" stop-color="#820a16"/></linearGradient><linearGradient id="linear-gradient-10" x1="153.19" y1="129.97" x2="153.19" y2="180.34" xlink:href="#linear-gradient-9"/><linearGradient id="linear-gradient-11" x1="208.3" y1="129.97" x2="208.3" y2="180.34" xlink:href="#linear-gradient-9"/><linearGradient id="linear-gradient-12" x1="259.18" y1="129.97" x2="259.18" y2="180.34" xlink:href="#linear-gradient-9"/><linearGradient id="linear-gradient-13" x1="306.38" y1="129.97" x2="306.38" y2="180.34" xlink:href="#linear-gradient-9"/><linearGradient id="linear-gradient-14" x1="311.17" y1="90.31" x2="311.17" y2="128.76" gradientUnits="userSpaceOnUse"><stop offset="0.09" stop-color="#fd0"/><stop offset="0.57" stop-color="#f16522"/><stop offset="1" stop-color="#ee4036"/></linearGradient><linearGradient id="linear-gradient-15" x1="99.2" y1="90.31" x2="99.2" y2="128.76" xlink:href="#linear-gradient-14"/><linearGradient id="linear-gradient-16" x1="57.78" y1="191.41" x2="351.78" y2="191.41" gradientUnits="userSpaceOnUse"><stop offset="0.23" stop-color="#ee4036"/><stop offset="1" stop-color="#8a0e1a"/></linearGradient></defs><title>identities</title><path class="cls-1" d="M269.43,207.52l.72,3.68H259l-1.59-9.8h10.83l.7,3.54-2.84-.5-.21-1.1h-5.42l1,5.82H267l-.21-1.14Z"/><path class="cls-1" d="M280.53,201.4l1.11,4.74-3,.71,4.66,4.34h-3.88l-3.84-3.62-1.75.41.67,3.21h-2.8l-2-9.8Zm-2.28,1.94h-5.42l.51,2.44,5.19-1.21Z"/><path class="cls-1" d="M286.55,209.17h5.52l-.2-.77,2.68-.38.87,3.19H284.25l-2.34-9.8h10.83l1.3,4.76L286.26,208Zm-1.44-5.82.61,2.45,5.14-1.21-.33-1.24Z"/><path class="cls-1" d="M297.14,211.2l-2.72-9.8h7.49l4.05,2.33,2.33,7.47Zm6.25-6.92-1.63-.94h-4.07l1.67,5.82h5.51Z"/><path class="cls-1" d="M309.69,211.2l-.64-2h2.79l.66,2Z"/><path class="cls-1" d="M325.17,211.2H314l-3.23-9.8h10.83Zm-5.59-7.86h-5.42l2,5.82h5.52Z"/><path class="cls-1" d="M334.63,201.4l1.91,4.74-2.91.71L339,211.2h-3.88l-4.45-3.62L329,208l1.22,3.21h-2.8l-1-2.59L325,209l-.8-2.19,1.45-.35-1.86-5Zm-2,1.94h-5.42l.92,2.44,5-1.21Z"/><path class="cls-1" d="M347.88,201.4l1.51,3.4-3-.5-.42-1h-5.42l2.43,5.82h5.52l-.58-1.35H345.7l-.85-2h5l2.38,5.38H341.05l-3.21-7.86H336.5l-.78-1.94Z"/><path class="cls-1" d="M344.69,183.94,320,130.62l19.08-23.13h-15.6l36.65-51.6L292.5,112.66l-6.76-14.84H248.55l.72,2.48-13.8-9.37L237,97.82H127.09l-7.52,16.25L50.26,55.89l36.65,51.6H71.31l19.08,23.13L65.72,183.94H56.85l-7,14.94H359.69l-7-14.94Zm-88.22,0-2.79-16.27,14,16.27ZM96.35,165.54l.63-.17,4.34,18.57H88.77Z"/><path class="cls-2" d="M144.4,118h0l-1.64,4.88H149l2.11-6.83,2.72-.65,3.31,7.48H170.9l2.5-5.29h7.44l.78,5.29h6.55l-3.65-20.59H171.18l-1,4.73h2l-7.38,14.61-3.83-8,5.57-1.34,2.27-10H149.68l-4.86,14.4Zm9.52-11H162l-.33,1.32-8.77,2.05Zm26.14,5.38h-4.19l2.57-5.38h.81Z"/><polygon class="cls-2" points="188.27 122.89 210.24 122.89 210.07 113.95 203.96 115.21 203.93 117.45 194.99 117.45 195.68 107.02 204.03 107.02 204.01 109.02 210 110.22 209.85 102.29 187.56 102.29 187.04 107.02 189.77 107.02 188.27 122.89"/><polygon class="cls-2" points="212.11 114.31 212.43 122.89 218.78 122.89 218.29 115.34 219.8 114.71 226.93 122.89 234.4 122.89 233.54 117.21 229.93 117.21 225.45 112.39 232.28 109.56 231.19 102.29 225.42 102.29 225.86 105.97 217.89 109.18 217.44 102.29 211.67 102.29 212.12 114.33 212.11 114.31"/><polygon class="cls-2" points="235.84 107.02 238.63 122.89 245.01 122.89 240.8 102.29 232.86 102.29 233.62 107.02 235.84 107.02"/><polygon class="cls-2" points="246.95 122.89 254.86 122.89 253.48 117.45 251.87 117.45 251.09 114.22 263.14 122.89 268.4 122.89 261.68 102.29 254.51 102.29 255.88 107.02 257.4 107.02 258.97 112.29 242.21 100.91 246.95 122.89"/><polygon class="cls-2" points="264.74 105.9 270.59 122.89 287.4 122.89 287.4 122.89 305.1 122.89 299.08 129.41 274.53 129.41 281.59 152.51 316.97 161.39 319.75 167.97 298.88 167.97 297.55 164.12 284.16 160.9 290.27 180.9 338.35 180.9 325.51 153.17 325.4 152.92 290.78 144.53 288.98 139.32 307.63 139.32 309.28 143.21 322.29 146.21 314.81 130.05 329.73 111.95 314.95 111.95 336.39 81.76 290.9 119.95 286.85 111.04 276.97 111.04 278.82 115.7 282.81 115.7 283.55 117.45 274.89 117.45 271.01 107.02 279.09 107.02 279.88 108.86 285.83 108.86 282.86 102.29 263.5 102.29 264.74 105.9 264.74 105.9"/><path class="cls-2" d="M85.19,180.88,93,161.81l7.24-2,4.92,21.06h17.62l-7.69-25.17,13-3.6,5.89-22.7H111.3l-6-6.52h21.61l3-6.89h8.37l2-5.12H132.1l1.67-3.85h6.75l-.76,2,5.82,0,2.39-6.68H130l-8.82,19.05L74,81.76,95.42,112H80.64l14.94,18.12L72.07,180.88ZM98.31,149l4.16-10.12H120.6l-1.44,4.63Z"/><path class="cls-2" d="M126.74,180.9h48.51L179.49,130l.05-.61H139.2Zm21.45-41.58h19.15L163.82,168H142.4Z"/><polygon class="cls-2" points="234.37 180.9 231.84 158.86 219.92 161.85 220.38 167.97 198.95 167.97 199.06 139.32 218.23 139.32 218.62 144.45 230.5 147.14 228.46 129.41 182.92 129.41 182.26 139.32 187.7 139.32 185.88 180.9 234.37 180.9"/><polygon class="cls-2" points="270.79 180.7 270.95 180.9 286.88 180.9 282.94 167.33 275.22 167.33 262.24 153.34 276.47 145.89 271.7 129.41 260.69 129.41 262.87 138.14 245.53 146.75 242.55 129.41 231.57 129.41 238.37 180.9 251.4 180.9 247.94 160.76 251.85 158.69 270.79 180.7"/><polygon class="cls-2" points="349.86 188.42 59.7 188.42 56.9 194.4 352.65 194.4 349.86 188.42"/><polygon class="cls-3" points="129.51 115.44 137.87 115.44 139.41 111.44 131.25 111.44 133.41 106.46 141.34 106.46 140.58 108.43 145.18 108.42 147.17 102.85 130.31 102.85 121.3 122.33 126.52 122.33 129.51 115.44"/><path class="cls-4" d="M146.85,112.44l-1.49,4.43h0l-1.84,5.46h5.08l2.08-6.74,3.49-.83,3.35,7.58h7l-4.35-9,5.91-1.42,2-9H150.08l-3.22,9.58Zm6.67-6h9.19l-.59,2.34-10,2.36Z"/><path class="cls-5" d="M165.13,122.33h5.42l2.5-5.29h8.27l.78,5.29h5.4l-3.45-19.47H171.63l-.76,3.61h2.27Zm13-15.86h1.64l1,6.5H175Z"/><polygon class="cls-6" points="188.89 122.33 209.67 122.33 209.52 114.63 204.51 115.67 204.49 118.01 194.39 118.01 195.15 106.46 204.6 106.46 204.58 108.57 209.42 109.53 209.3 102.85 188.06 102.85 187.66 106.46 190.38 106.46 188.89 122.33"/><polygon class="cls-7" points="212.59 111.95 212.78 117.05 212.77 117.04 212.97 122.33 218.19 122.33 217.71 114.98 219.96 114.03 227.19 122.33 233.75 122.33 233.06 117.77 229.69 117.77 224.5 112.18 231.66 109.21 230.71 102.85 226.05 102.85 226.47 106.33 217.38 109.99 216.91 102.85 212.25 102.85 212.58 111.93 212.59 111.95"/><polygon class="cls-8" points="236.31 106.46 239.1 122.33 244.32 122.33 240.34 102.85 233.52 102.85 234.09 106.46 236.31 106.46"/><polygon class="cls-9" points="247.4 122.33 254.14 122.33 253.05 118.01 251.43 118.01 250.18 112.88 263.32 122.33 267.63 122.33 261.28 102.85 255.26 102.85 256.3 106.46 257.81 106.46 259.95 113.64 243.05 102.16 247.4 122.33"/><polygon class="cls-10" points="265.52 106.46 270.99 122.33 291.36 122.33 286.49 111.6 277.79 111.6 279.2 115.14 283.18 115.14 284.4 118.01 274.5 118.01 270.2 106.46 279.46 106.46 280.25 108.3 284.96 108.3 282.5 102.85 264.29 102.85 265.53 106.46 265.52 106.46"/><path class="cls-11" d="M127.64,151.66,133.26,130h-37l-23.3,50.35H84.82l7.81-19,8.07-2.22,5,21.2h16.42l-7.64-25Zm-30.27-1.82,4.74-11.5h19.26L119.61,144Z"/><path class="cls-12" d="M127.46,180.34h47.28l4.2-50.37H139.64ZM168,138.76l-3.67,29.77H141.72l6-29.77Z"/><polygon class="cls-13" points="233.74 180.34 231.36 159.56 220.51 162.28 220.98 168.53 198.39 168.53 198.51 138.76 218.75 138.76 219.14 144 229.85 146.42 227.96 129.97 183.44 129.97 182.86 138.76 188.29 138.76 186.46 180.34 233.74 180.34"/><polygon class="cls-14" points="271.21 180.34 286.14 180.34 282.52 167.89 274.98 167.89 261.33 153.19 275.81 145.61 271.27 129.97 261.41 129.97 263.52 138.44 245.11 147.58 242.08 129.97 232.21 129.97 238.86 180.34 250.73 180.34 247.32 160.46 251.99 157.99 271.21 180.34"/><polygon class="cls-15" points="282.04 152.05 317.38 160.91 320.6 168.53 298.48 168.53 297.12 164.59 284.98 161.67 290.69 180.34 337.47 180.34 325 153.4 290.35 145 288.19 138.76 308 138.76 309.69 142.73 321.3 145.41 314.16 129.97 275.28 129.97 282.04 152.05"/><polygon class="cls-16" points="333.41 85 288.94 122.33 306.37 122.33 297.85 131.57 312.83 131.57 328.55 112.51 313.87 112.51 333.41 85"/><polygon class="cls-17" points="76.96 85 121.44 122.33 104 122.33 112.53 131.57 97.55 131.57 81.83 112.51 96.5 112.51 76.96 85"/><polygon class="cls-18" points="351.77 193.84 57.78 193.84 60.05 188.98 349.5 188.98 351.77 193.84"/></svg>