<svg id="Layer_1" data-name="Layer 1" xmlns="http://www.w3.org/2000/svg" xmlns:xlink="http://www.w3.org/1999/xlink" viewBox="0 0 410 300"><defs><style>.cls-1{fill:#f6a01a;}.cls-2{fill:#00539f;}.cls-3{fill:url(#radial-gradient);}.cls-4{fill:#fff;}</style><radialGradient id="radial-gradient" cx="206.17" cy="101.02" r="45.29" gradientUnits="userSpaceOnUse"><stop offset="0" stop-color="#1998d5"/><stop offset="0.16" stop-color="#1d9ad6"/><stop offset="0.34" stop-color="#2aa0d9"/><stop offset="0.51" stop-color="#3ea9dd"/><stop offset="0.68" stop-color="#5bb6e4"/><stop offset="0.86" stop-color="#80c7ec"/><stop offset="1" stop-color="#a4d7f4"/></radialGradient></defs><title>identities</title><path class="cls-1" d="M60.3,216.47c-.15,0-.21-.06-.21-.21v-13c0-.15.06-.21.21-.21h2c.15,0,.21.06.21.21V214c0,.15.06.21.21.21H67.8c.15,0,.21.06.21.21v1.81c0,.15-.06.21-.21.21Z"/><path class="cls-1" d="M72.67,216.47c-.15,0-.21-.06-.21-.21v-13c0-.15.06-.21.21-.21h7.5c.15,0,.21.06.21.21v1.81c0,.15-.06.21-.21.21H75.11c-.15,0-.21.06-.21.21v2.83c0,.15.06.21.21.21h4.14c.15,0,.21.06.21.21v1.81c0,.15-.06.21-.21.21H75.11c-.15,0-.21.06-.21.21v3c0,.15.06.21.21.21h5.06c.15,0,.21.06.21.21v1.81c0,.15-.06.21-.21.21Z"/><path class="cls-1" d="M84.61,216.47c-.15,0-.23-.06-.23-.17a2.84,2.84,0,0,1,.11-.38l3.87-12.69a.19.19,0,0,1,.21-.15H90.1a.19.19,0,0,1,.21.15l3.87,12.69a1.78,1.78,0,0,1,.11.38c0,.11-.08.17-.23.17H91.9a.19.19,0,0,1-.21-.15l-.64-2.23c0-.11-.11-.13-.21-.13h-3c-.11,0-.19,0-.21.13L87,216.32a.19.19,0,0,1-.21.15Zm5.48-4.74c.15,0,.23-.09.23-.19a1.92,1.92,0,0,0-.11-.4l-.62-2.49c0-.15-.19-1-.23-1.17h-.06c0,.17-.21,1-.26,1.17l-.64,2.47a2.46,2.46,0,0,0-.11.42c0,.11.08.19.23.19Z"/><path class="cls-1" d="M98.47,216.47c-.15,0-.21-.06-.21-.21v-13c0-.15.06-.21.21-.21h4.78a3.69,3.69,0,0,1,4,4v5.48a3.68,3.68,0,0,1-4,4Zm4.78-2.23a1.52,1.52,0,0,0,1.53-1.53v-5.87a1.55,1.55,0,0,0-1.53-1.53h-2.34c-.15,0-.21.06-.21.21V214c0,.15.06.21.21.21Z"/><path class="cls-1" d="M112.52,216.47c-.15,0-.21-.06-.21-.21v-13c0-.15.06-.21.21-.21H120c.15,0,.21.06.21.21v1.81c0,.15-.06.21-.21.21H115c-.15,0-.21.06-.21.21v2.83c0,.15.06.21.21.21h4.14c.15,0,.21.06.21.21v1.81c0,.15-.06.21-.21.21H115c-.15,0-.21.06-.21.21v3c0,.15.06.21.21.21H120c.15,0,.21.06.21.21v1.81c0,.15-.06.21-.21.21Z"/><path class="cls-1" d="M125.4,216.47c-.15,0-.21-.06-.21-.21v-13c0-.15.06-.21.21-.21h4.78a3.69,3.69,0,0,1,4,4v.21a4.09,4.09,0,0,1-1.72,2.89.17.17,0,0,0-.08.17,1.36,1.36,0,0,0,.11.34l1.83,5.31a2.72,2.72,0,0,1,.11.34c0,.11-.06.17-.21.17H132a.2.2,0,0,1-.19-.15l-1.87-5.4a.16.16,0,0,0-.17-.13h-1.89c-.15,0-.21.06-.21.21v5.25c0,.15-.06.21-.21.21Zm4.78-7.91a1.55,1.55,0,0,0,1.53-1.53v-.19a1.55,1.55,0,0,0-1.53-1.53h-2.34c-.15,0-.21.06-.21.21v2.83c0,.15.06.21.21.21Z"/><path class="cls-1" d="M142,216.68a3.61,3.61,0,0,1-3.36-1.72,3,3,0,0,1-.4-.79c0-.06,0-.11.13-.15l1.7-.87a.66.66,0,0,1,.25-.11c.06,0,.13,0,.17.15.38.91.94,1.25,1.51,1.25h.85a1.55,1.55,0,0,0,1.53-1.53c0-1.15-1.13-1.57-2.27-2.1-1.68-.81-3.53-1.68-3.53-4.19a3.65,3.65,0,0,1,4-3.76h.34a3.61,3.61,0,0,1,3.36,1.72,3,3,0,0,1,.4.79c0,.06,0,.11-.13.15l-1.7.87a.65.65,0,0,1-.25.11c-.06,0-.13,0-.17-.15-.38-.91-.94-1.25-1.51-1.25h-.34a1.55,1.55,0,0,0-1.53,1.53c0,1.08,1.23,1.4,2.47,2,1.61.74,3.34,1.74,3.34,4.31a3.65,3.65,0,0,1-4,3.76Z"/><path class="cls-1" d="M151.91,216.47c-.15,0-.21-.06-.21-.21v-13c0-.15.06-.21.21-.21h2c.15,0,.21.06.21.21v5.06c0,.15.06.21.21.21h4c.15,0,.21-.06.21-.21v-5.06c0-.15.06-.21.21-.21h2c.15,0,.21.06.21.21v13c0,.15-.06.21-.21.21h-2c-.15,0-.21-.06-.21-.21V211c0-.15-.06-.21-.21-.21h-4c-.15,0-.21.06-.21.21v5.25c0,.15-.06.21-.21.21Z"/><path class="cls-1" d="M166.49,216.47c-.15,0-.21-.06-.21-.21v-13c0-.15.06-.21.21-.21h2c.15,0,.21.06.21.21v13c0,.15-.06.21-.21.21Z"/><path class="cls-1" d="M174.27,216.47c-.15,0-.21-.06-.21-.21v-13c0-.15.06-.21.21-.21h4.36a3.86,3.86,0,1,1,0,7.72h-1.91c-.15,0-.21.06-.21.21v5.25c0,.15-.06.21-.21.21Zm4.36-7.91a1.55,1.55,0,0,0,1.53-1.53v-.19a1.55,1.55,0,0,0-1.53-1.53h-1.91c-.15,0-.21.06-.21.21v2.83c0,.15.06.21.21.21Z"/><path class="cls-1" d="M193.31,216.47c-.15,0-.21-.06-.21-.21V203.32c0-.15.06-.21.21-.21h7c.15,0,.21.06.21.21v.79c0,.15-.06.21-.21.21h-5.55c-.15,0-.21.06-.21.21v4.34c0,.15.06.21.21.21h4.55c.15,0,.21.06.21.21v.79c0,.15-.06.21-.21.21h-4.55c-.15,0-.21.06-.21.21V215c0,.15.06.21.21.21h5.55c.15,0,.21.06.21.21v.79c0,.15-.06.21-.21.21Z"/><path class="cls-1" d="M205.13,216.47c-.15,0-.23-.06-.23-.17a2.32,2.32,0,0,1,.28-.62L208,210a.8.8,0,0,0,.11-.26.89.89,0,0,0-.11-.28l-2.91-5.74a1.79,1.79,0,0,1-.21-.49c0-.11.08-.17.23-.17h1.17a.25.25,0,0,1,.19.13l2.49,5.08a.19.19,0,0,0,.38,0l2.34-5.08a.2.2,0,0,1,.19-.13h1.17c.15,0,.23.06.23.17a2.78,2.78,0,0,1-.26.55l-2.85,5.65a1.13,1.13,0,0,0-.11.28.73.73,0,0,0,.11.28l2.89,5.76a2.26,2.26,0,0,1,.23.51c0,.11-.08.17-.23.17h-1.19a.2.2,0,0,1-.19-.13l-2.34-5.06a.19.19,0,0,0-.38,0l-2.49,5.06a.25.25,0,0,1-.19.13Z"/><path class="cls-1" d="M221.26,216.68a3.4,3.4,0,0,1-3.7-3.49v-6.84a3.4,3.4,0,0,1,3.7-3.49h.66a3.56,3.56,0,0,1,2.85,1.13,2.41,2.41,0,0,1,.47.7.23.23,0,0,1-.15.19l-.81.4a.35.35,0,0,1-.19.06.16.16,0,0,1-.15-.09,2.67,2.67,0,0,0-2-1.17h-.66a2.21,2.21,0,0,0-2.25,2.25v6.84a2.26,2.26,0,0,0,2.25,2.27h.66a2.6,2.6,0,0,0,2-1.21.16.16,0,0,1,.15-.09.35.35,0,0,1,.19.06l.81.4a.23.23,0,0,1,.15.19,2.3,2.3,0,0,1-.49.72,3.48,3.48,0,0,1-2.83,1.13Z"/><path class="cls-1" d="M230.16,216.47c-.15,0-.21-.06-.21-.21V203.32c0-.15.06-.21.21-.21h1c.15,0,.21.06.21.21v5.55c0,.15.06.21.21.21h5.1c.15,0,.21-.06.21-.21v-5.55c0-.15.06-.21.21-.21h1c.15,0,.21.06.21.21v12.94c0,.15-.06.21-.21.21h-1c-.15,0-.21-.06-.21-.21V210.5c0-.15-.06-.21-.21-.21h-5.1c-.15,0-.21.06-.21.21v5.76c0,.15-.06.21-.21.21Z"/><path class="cls-1" d="M242.56,216.47c-.15,0-.23-.06-.23-.17a2.6,2.6,0,0,1,.15-.53l3.8-12.52a.19.19,0,0,1,.21-.15h.81a.19.19,0,0,1,.21.15l3.76,12.39a4,4,0,0,1,.19.66c0,.11-.09.17-.23.17h-1.08a.19.19,0,0,1-.21-.15l-.83-2.93c0-.11-.11-.13-.21-.13h-4c-.11,0-.19,0-.21.13l-.83,2.93a.19.19,0,0,1-.21.15ZM248.4,212c.15,0,.23-.08.23-.19l-1.44-5.55c0-.11-.19-.66-.23-.83h-.08c0,.17-.19.7-.23.83l-1.53,5.55c0,.11.09.19.23.19Z"/><path class="cls-1" d="M256.33,216.47c-.15,0-.21-.06-.21-.21V203.32c0-.15.06-.21.21-.21h1a.22.22,0,0,1,.19.11l5.16,9.46c.06.11.32.6.38.77l.08,0c0-.51-.06-3.25-.06-4.93v-5.16c0-.15.06-.21.21-.21h1c.15,0,.21.06.21.21v12.94c0,.15-.06.21-.21.21h-1a.26.26,0,0,1-.19-.11L257.94,207c-.08-.15-.32-.6-.38-.77l-.08,0c0,.51.06,3.25.06,4.93v5.06c0,.15-.06.21-.21.21Z"/><path class="cls-1" d="M273.52,216.68a3.4,3.4,0,0,1-3.7-3.49v-6.84a3.4,3.4,0,0,1,3.7-3.49h1.06a3.44,3.44,0,0,1,2.85,1.15,2.2,2.2,0,0,1,.45.68.23.23,0,0,1-.15.19l-.77.38a.63.63,0,0,1-.23.09.16.16,0,0,1-.15-.09,2.49,2.49,0,0,0-2-1.17h-1.06a2.21,2.21,0,0,0-2.25,2.25v6.84a2.26,2.26,0,0,0,2.25,2.27h.66a2.3,2.3,0,0,0,2.27-2.27v-1.7c0-.15-.06-.21-.21-.21H274c-.15,0-.21-.06-.21-.21v-.81c0-.15.06-.21.21-.21h3.68c.15,0,.21.06.21.21v2.93a3.41,3.41,0,0,1-3.72,3.49Z"/><path class="cls-1" d="M283.24,216.47c-.15,0-.21-.06-.21-.21V203.32c0-.15.06-.21.21-.21h7c.15,0,.21.06.21.21v.79c0,.15-.06.21-.21.21h-5.55c-.15,0-.21.06-.21.21v4.34c0,.15.06.21.21.21h4.55c.15,0,.21.06.21.21v.79c0,.15-.06.21-.21.21h-4.55c-.15,0-.21.06-.21.21V215c0,.15.06.21.21.21h5.55c.15,0,.21.06.21.21v.79c0,.15-.06.21-.21.21Z"/><path class="cls-1" d="M301.43,216.47c-.15,0-.21-.06-.21-.21v-2.44c0-2.49,1.61-3.74,3.17-4.7,1.23-.74,2.49-1.3,2.49-2.49a1.55,1.55,0,0,0-1.53-1.53h-.77c-.57,0-1.13.34-1.51,1.25,0,.11-.11.15-.17.15a.65.65,0,0,1-.25-.11l-1.7-.87c-.09,0-.13-.09-.13-.15a3,3,0,0,1,.4-.79,3.61,3.61,0,0,1,3.36-1.72h.77a3.64,3.64,0,0,1,4,3.76c0,2.49-1.76,3.53-3.4,4.53-1.15.7-2.23,1.34-2.23,2.66V214c0,.15.06.21.21.21h5.06c.15,0,.21.06.21.21v1.81c0,.15-.06.21-.21.21Z"/><path class="cls-1" d="M317.39,216.68a3.65,3.65,0,0,1-4-3.76v-6.29a3.65,3.65,0,0,1,4-3.76H318a3.66,3.66,0,0,1,4,3.76v6.29a3.66,3.66,0,0,1-4,3.76Zm.62-2.23a1.51,1.51,0,0,0,1.51-1.53v-6.29A1.51,1.51,0,0,0,318,205.1h-.62a1.55,1.55,0,0,0-1.53,1.53v6.29a1.55,1.55,0,0,0,1.53,1.53Z"/><path class="cls-1" d="M326.49,216.47c-.15,0-.21-.06-.21-.21v-1.81c0-.15.06-.21.21-.21h2c.15,0,.21-.06.21-.21V207.8c0-.15-.06-.23-.17-.23a.23.23,0,0,0-.19.09l-.64.66a.18.18,0,0,1-.15.09c-.06,0-.09,0-.15-.09l-1.32-1.3a.19.19,0,0,1-.09-.15c0-.06,0-.09.09-.15l3.49-3.51a.33.33,0,0,1,.25-.13h1.11c.15,0,.21.06.21.21V214c0,.15.06.21.21.21h2c.15,0,.21.06.21.21v1.81c0,.15-.06.21-.21.21Z"/><path class="cls-1" d="M340.67,216.68a3.66,3.66,0,0,1-4-3.76v-6.29a3.66,3.66,0,0,1,4-3.76h.66a3.61,3.61,0,0,1,3.36,1.72,3,3,0,0,1,.4.79c0,.06,0,.11-.13.15l-1.7.87a.65.65,0,0,1-.25.11c-.06,0-.13,0-.17-.15-.38-.91-.94-1.25-1.51-1.25h-.66a1.51,1.51,0,0,0-1.51,1.53v1.93c0,.15.06.23.17.23a.4.4,0,0,0,.15,0,3.27,3.27,0,0,1,1.4-.4h.64a3.68,3.68,0,0,1,3.76,3.76v.81a3.66,3.66,0,0,1-4,3.76Zm.64-2.23a1.55,1.55,0,0,0,1.53-1.53v-.81a1.55,1.55,0,0,0-1.53-1.53h-.64a1.51,1.51,0,0,0-1.51,1.53v.81a1.51,1.51,0,0,0,1.51,1.53Z"/><path class="cls-2" d="M66.29,195.43a9.74,9.74,0,0,1-7-2.59c-.68-.64-1.87-2-1.87-2.64a.44.44,0,0,1,.25-.43l4.42-2.93a.72.72,0,0,1,.42-.13.47.47,0,0,1,.43.26,3.58,3.58,0,0,0,3.27,2.21h1.32a1.92,1.92,0,0,0,2.17-2c0-1.91-2.13-2.17-5-3.15-4.55-1.57-7.1-3.44-7.1-8.16,0-5.27,3.53-8.42,9.35-8.42h.64a9.89,9.89,0,0,1,6.67,2.25c.77.68,2.21,2.21,2.21,3a.43.43,0,0,1-.25.42l-4.42,2.93a.9.9,0,0,1-.42.17A.44.44,0,0,1,71,176a3.58,3.58,0,0,0-3.27-2.21H67c-1.27,0-2.13.6-2.13,2,0,1.66,2.59,2.25,4.72,2.93,5,1.57,7.35,3.66,7.35,8.42,0,5.23-3.32,8.37-9.31,8.37Z"/><path class="cls-2" d="M80.1,194.88c-.3,0-.47-.13-.47-.34a.38.38,0,0,1,0-.21l8.88-26a.38.38,0,0,1,.42-.3h4.63c.17,0,.3,0,.38.3l8.88,26a.84.84,0,0,1,0,.3c0,.17-.08.26-.42.26H95.83c-.26,0-.3-.09-.38-.3l-1.11-3.19c-.08-.21-.21-.3-.55-.3h-5.1c-.34,0-.42.09-.51.3L87,194.58c-.08.21-.17.3-.38.3Zm12.41-8.8a.34.34,0,0,0,.38-.38l-.68-3.32c-.51-2.51-.81-5.23-.81-5.23h-.13a49.39,49.39,0,0,1-.89,5.23l-.77,3.32c0,.21,0,.38.42.38Z"/><path class="cls-2" d="M107.86,194.88c-.21,0-.38-.09-.38-.42v-26c0-.34.17-.42.38-.42h6.29a.4.4,0,0,1,.42.42v19.68c0,.3.13.47.51.47h10.46c.21,0,.42.09.42.38v5.44c0,.34-.17.42-.42.42Z"/><path class="cls-2" d="M131.79,194.88c-.21,0-.38-.09-.38-.42V174.77c0-.3-.08-.47-.55-.47h-4.72c-.21,0-.42-.09-.42-.38v-5.44a.38.38,0,0,1,.42-.42h17.6a.39.39,0,0,1,.38.42v5.44a.34.34,0,0,1-.38.38H139c-.42,0-.51.17-.51.47v19.68a.38.38,0,0,1-.42.42Z"/><path class="cls-2" d="M158.79,194.88c-.21,0-.38-.09-.38-.42v-26c0-.34.17-.42.38-.42h6.29a.4.4,0,0,1,.42.42v19.68c0,.3.13.47.51.47h10.46c.21,0,.42.09.42.38v5.44c0,.34-.17.42-.42.42Z"/><path class="cls-2" d="M180.17,194.88c-.3,0-.47-.13-.47-.34a.38.38,0,0,1,0-.21l8.88-26a.38.38,0,0,1,.42-.3h4.63c.17,0,.3,0,.38.3l8.88,26a.84.84,0,0,1,0,.3c0,.17-.08.26-.42.26H195.9c-.26,0-.3-.09-.38-.3l-1.11-3.19c-.08-.21-.21-.3-.55-.3h-5.1c-.34,0-.42.09-.51.3l-1.15,3.19c-.08.21-.17.3-.38.3Zm12.41-8.8a.34.34,0,0,0,.38-.38l-.68-3.32c-.51-2.51-.81-5.23-.81-5.23h-.13a49.39,49.39,0,0,1-.89,5.23l-.77,3.32c0,.21,0,.38.42.38Z"/><path class="cls-2" d="M207.72,194.88c-.21,0-.38-.09-.38-.42v-26c0-.34.17-.42.38-.42H214a.42.42,0,0,1,.42.42v5.91a11.35,11.35,0,0,1-.38,2.89l7.44-8.93a.74.74,0,0,1,.6-.3h7.61c.3,0,.47.13.47.3a.52.52,0,0,1-.17.38l-9.39,10.5a.31.31,0,0,0-.08.26.28.28,0,0,0,.08.21l10,14.54a.46.46,0,0,1,.08.3c0,.21-.13.34-.42.34h-8.2a.73.73,0,0,1-.68-.34l-5.7-8.88a.44.44,0,0,0-.3-.21.51.51,0,0,0-.38.21l-.6.64v8.16a.38.38,0,0,1-.42.42Z"/><path class="cls-2" d="M235.73,194.88c-.21,0-.38-.09-.38-.42v-26c0-.34.17-.42.38-.42h17.68a.4.4,0,0,1,.42.42v5.44c0,.3-.17.38-.42.38H243c-.38,0-.51.17-.51.47v2.93c0,.3.13.47.51.47h8.59c.21,0,.42.09.42.38V184c0,.3-.21.38-.42.38H243c-.38,0-.51.17-.51.47v3.27c0,.3.13.47.51.47h10.46c.21,0,.42.09.42.38v5.44c0,.34-.17.42-.42.42Z"/><path class="cls-2" d="M278,195.43c-5.74,0-9.22-3.19-9.22-8V175.5c0-4.8,3.49-8,9.22-8h2.93c4.29,0,6.76,1.66,8.88,5.7a1.51,1.51,0,0,1,.13.47.35.35,0,0,1-.21.34l-5.27,2.42a.6.6,0,0,1-.25.09c-.21,0-.42-.21-.55-.42-.85-1.53-1.83-2.38-3.1-2.38H278c-1.45,0-2.25.72-2.25,1.79v11.94c0,1.06.81,1.79,2.25,1.79h2.55c1.28,0,2.25-.85,3.1-2.38a.72.72,0,0,1,.55-.38.53.53,0,0,1,.25,0l5.27,2.42a.35.35,0,0,1,.21.34,1.51,1.51,0,0,1-.13.47c-2.13,4.08-4.68,5.7-8.88,5.7Z"/><path class="cls-2" d="M295.16,194.88c-.21,0-.38-.09-.38-.42v-26c0-.34.17-.42.38-.42h6.25a.43.43,0,0,1,.47.42v26c0,.34-.21.42-.47.42Z"/><path class="cls-2" d="M313,194.88c-.21,0-.38-.09-.38-.42V174.77c0-.3-.08-.47-.55-.47h-4.72c-.21,0-.42-.09-.42-.38v-5.44a.38.38,0,0,1,.42-.42h17.6a.39.39,0,0,1,.38.42v5.44a.34.34,0,0,1-.38.38h-4.76c-.42,0-.51.17-.51.47v19.68a.38.38,0,0,1-.43.42Z"/><path class="cls-2" d="M337.92,194.88c-.26,0-.38-.09-.38-.42v-11.6l-8.46-14.15a.31.31,0,0,1-.08-.26.39.39,0,0,1,.42-.38h7.1a.73.73,0,0,1,.68.42l3.4,6.21a.43.43,0,0,0,.38.3c.17,0,.3-.09.43-.3l3.53-6.21a.77.77,0,0,1,.68-.42h7c.3,0,.43.13.43.34a.8.8,0,0,1-.09.3l-8.42,14.15v11.6c0,.34-.17.42-.42.42Z"/><circle class="cls-3" cx="206.17" cy="101.02" r="45.29"/><circle class="cls-4" cx="206.07" cy="136.92" r="1.46" transform="translate(-36.46 185.82) rotate(-45)"/><circle class="cls-4" cx="242.12" cy="100.35" r="1.46" transform="translate(-0.04 200.6) rotate(-45)"/><circle class="cls-4" cx="169.86" cy="100.35" r="1.46" transform="translate(-21.21 149.5) rotate(-45)"/><circle class="cls-4" cx="206.2" cy="64.43" r="1.46" transform="translate(14.84 164.68) rotate(-45)"/><path class="cls-4" d="M224.68,79.13s0,0,0,.05h0a7,7,0,0,1-5.73,6H215.5a1.67,1.67,0,0,0-1.67,1.67v4.29a1.67,1.67,0,0,0,1.67,1.67h4.29a1.67,1.67,0,0,0,1.67-1.67V87.89a7,7,0,0,1,6-5.87h0a2.73,2.73,0,1,0-2.83-2.9Z"/><circle class="cls-4" cx="231.3" cy="75.2" r="1.33" transform="translate(14.57 185.58) rotate(-45)"/><path class="cls-4" d="M187.55,79.13s0,0,0,.05h0a7,7,0,0,0,5.73,6h3.45a1.67,1.67,0,0,1,1.67,1.67v4.29a1.67,1.67,0,0,1-1.67,1.67h-4.29a1.67,1.67,0,0,1-1.67-1.67V87.89a7,7,0,0,0-6-5.87h0a2.73,2.73,0,1,1,2.83-2.9Z"/><circle class="cls-4" cx="180.93" cy="75.2" r="1.33" transform="translate(-0.18 149.97) rotate(-45)"/><path class="cls-4" d="M204.29,71.38h0c2.12,2.89.65,3.94.11,4.48l-.09.09a3,3,0,1,0,4,.25l-.18-.17-.14-.14c-.69-.71-2.1-1.54,0-4.53a2.32,2.32,0,1,0-3.75,0Z"/><path class="cls-4" d="M226.05,102.53a3,3,0,0,0,4.55-.29l.08-.09c.54-.53,1.59-2,4.48.11h0a2.31,2.31,0,1,0,0-3.75c-3,2.15-3.82.73-4.53,0l-.14-.14-.17-.18a3,3,0,1,0-4.29,4.29Z"/><path class="cls-4" d="M186,98.34a3,3,0,0,0-4.55.29l-.09.09c-.54.53-1.59,2-4.48-.11h0a2.31,2.31,0,1,0,0,3.75c3-2.15,3.82-.73,4.53,0l.14.14.17.18A3,3,0,0,0,186,98.34Z"/><path class="cls-4" d="M227.5,119.08h0a7,7,0,0,1-6-5.73V109.9a1.67,1.67,0,0,0-1.67-1.67H215.5a1.67,1.67,0,0,0-1.67,1.67v4.29a1.67,1.67,0,0,0,1.67,1.67h3.24a7,7,0,0,1,5.87,6h0a2.73,2.73,0,1,0,2.9-2.83Z"/><circle class="cls-4" cx="231.43" cy="125.7" r="1.33" transform="translate(-21.1 200.46) rotate(-45)"/><path class="cls-4" d="M184.73,119.08h0a7,7,0,0,0,6-5.73V109.9a1.67,1.67,0,0,1,1.67-1.67h4.29a1.67,1.67,0,0,1,1.67,1.67v4.29a1.67,1.67,0,0,1-1.67,1.67H193.5a7,7,0,0,0-5.87,6h0a2.73,2.73,0,1,1-2.9-2.83Z"/><circle class="cls-4" cx="180.81" cy="125.7" r="1.33" transform="translate(-35.92 164.67) rotate(-45)"/><circle class="cls-4" cx="206.15" cy="100.37" r="3.58" transform="translate(-10.59 175.17) rotate(-45)"/><path class="cls-4" d="M207.81,129.49h0c-2.12-2.89-.65-3.94-.11-4.48l.09-.09a3,3,0,1,0-4-.25l.18.17.14.14c.69.71,2.1,1.54,0,4.53a2.32,2.32,0,1,0,3.75,0Z"/><path class="cls-4" d="M227.87,108.09h-.05c-2.72-.11-6.12-2.86-6.58-6.49,0,0-.08-.94-.08-1.21a18,18,0,0,1,.26-1.88,6.89,6.89,0,0,1,.29-.93l.12-.29a7.56,7.56,0,0,1,.63-1.15l0-.05a7.42,7.42,0,0,1,5.36-3.37h.05a3,3,0,1,0-3.16-3.09h0a4.93,4.93,0,0,1-.14,1v0l0,.11a7.44,7.44,0,1,1-9-8.76,5.2,5.2,0,0,1,1.33-.27h.05a3,3,0,1,0-3.16-3.09h0a7,7,0,0,1-2.23,4.49,7.45,7.45,0,0,1-5.42,2.34,7.54,7.54,0,0,1-1.55-.16h0a6.93,6.93,0,0,1-1.28-.39c-.19-.08-.37-.19-.56-.28s-.41-.2-.6-.32-.4-.28-.59-.43-.35-.27-.51-.41l-.35-.35a7,7,0,0,1-2.12-4.31h0s0,0,0-.06a3,3,0,1,0-3.09,3.16h0a5.66,5.66,0,0,1,2.13.56,7.27,7.27,0,1,1-8.95,10.38,6.23,6.23,0,0,1-1.09-3.06h0s0,0,0-.06a3,3,0,1,0-3.09,3.16h0A7,7,0,0,1,188.8,95l.09.09a7.45,7.45,0,0,1,2,3.59,10.23,10.23,0,0,1,.2,1.76,7.63,7.63,0,0,1-3.62,6.45,6.31,6.31,0,0,1-3.17,1.16h-.05a3,3,0,1,0,3.16,3.09h0a6.32,6.32,0,0,1,1.18-3.23,7.18,7.18,0,0,1,3.79-3c.18-.07.36-.12.54-.17l.53-.12c.16,0,1.06-.11,1.06-.11h2.94a1.82,1.82,0,0,0,1.82-1.82v-2.08a9.61,9.61,0,0,1,.18-1.73c0-.18.11-.4.17-.58a6.81,6.81,0,1,1,7.95,8.64,4.8,4.8,0,0,1-1.25.16h-2.63a1.78,1.78,0,0,0-1.8,1.8v3.5a6.78,6.78,0,0,1-.53,1.93l-.13.31a7.53,7.53,0,0,1-.4.74c-.11.19-.22.37-.35.54s-.3.37-.46.55-.23.27-.36.4a7,7,0,0,1-4.37,2.17h-.05a3,3,0,1,0,3.16,3.09h0a7.47,7.47,0,0,1,3.49-5.5h0a7.53,7.53,0,0,1,1.15-.62l.38-.14c.2-.07.4-.13.61-.19a7.07,7.07,0,0,1,5.54.6l.22.12a7.42,7.42,0,0,1,.72.47,8.21,8.21,0,0,1,.73.59l.11.1a7.08,7.08,0,0,1,2.33,4.59h0a3,3,0,1,0,3.16-3.09h-.05a4.87,4.87,0,0,1-.61-.1,7.37,7.37,0,1,1,8.45-8.17c0,.12,0,.24.05.36h0a3,3,0,1,0,3.16-3.09Z"/></svg>